<svg xmlns="http://www.w3.org/2000/svg" xmlns:xlink="http://www.w3.org/1999/xlink" width="16" height="16">
  <defs>
    <linearGradient id="b">
      <stop offset="0" stop-color="#8e4694"/>
      <stop offset="1" stop-color="#8e4694"/>
    </linearGradient>
    <linearGradient id="a">
      <stop offset="0" stop-color="#1b867b"/>
      <stop offset="1" stop-color="#1b867b"/>
    </linearGradient>
    <linearGradient xlink:href="#a" id="f" x1="4.848" x2="10.969" y1="1040.798" y2="1040.798" gradientTransform="matrix(1.2025 0 0 1.14565 -1.105 -151.463)" gradientUnits="userSpaceOnUse"/>
    <linearGradient xlink:href="#b" id="d" x1="13.639" x2="9.096" y1="8.706" y2="13.872" gradientTransform="matrix(1.13725 0 0 1.1494 -.516 1035.777)" gradientUnits="userSpaceOnUse"/>
    <linearGradient id="c">
      <stop offset="0" stop-color="#4e8fbd"/>
      <stop offset="1" stop-color="#30495a"/>
    </linearGradient>
    <linearGradient xlink:href="#c" id="e" x1="-2.287" x2="-2.287" y1="1044.692" y2="1049.598" gradientTransform="translate(4.974 1.06)" gradientUnits="userSpaceOnUse"/>
  </defs>
  <path fill="url(#d)" d="m 9.9971047,1045.3563 6.0109773,0.01 0,1.9907 -4.008277,3.384 0,0.635 2.985905,0 1.008439,-1.9304 0,2.9209 -5.980898,0 0,-2.0065 3.992074,-3.9964 -2.013092,-0.01 -1.9923922,2.018 z" transform="translate(0 -1036.362)"/>
  <path fill="url(#e)" d="m 1.9797422,1038.3503 1.0827571,0 0,10.0119 1.8119613,0 -2.4057108,3 -2.43355109,-2.9779 1.96664059,0 z" transform="translate(0 -1036.362)"/>
  <path fill="url(#f)" d="m 7.9998393,1037.3629 c 0,0 -0.8325324,0.01 -1.4470318,0.01 -0.2569555,0 -0.5294263,0.057 -0.5294263,0.5603 0,0.5717 0.020529,1.0228 0.1533892,1.2507 0.132859,0.2277 0.600447,0.2237 1.025597,0.1731 0.5785233,-0.2117 0.043655,-0.7856 0.8103336,-0.991 0.4766326,0 0.9957554,0.01 0.9957554,0.01 l -0.01012,2.0034 -2.9927639,-2e-4 c -0.686672,0.1449 -1.0043713,0.9925 -1.0043713,0.9925 l -5.733e-4,2.0028 c 0,0 0.2846107,1.0507 1.0020517,1.0507 0.717441,0 6.0273294,-0.044 6.0273294,-0.044 l 0,-1.0025 -1.020389,0 0,-5.0022 c 0,-0.9971 -0.0059,-0.9894 -1.0105978,-0.9979 z m 0.00922,3.9929 c 0.5586971,0 0.7857472,0.01 0.9956186,0.01 0,0.2637 -0.00201,0.3533 -0.00201,0.9926 l -1.0029653,0 0.00411,1 c -0.640245,0 -1.0013821,-0.01 -1.0013821,-0.01 0,0 0.0022,-0.3824 0.0022,-0.9775 0,-0.827 0.00696,-1.0121 0.00696,-1.0121 0.3284056,0 0.5484039,-0.01 0.9974685,-0.01 z" transform="translate(0 -1036.362)"/>
</svg>
