<svg xmlns="http://www.w3.org/2000/svg" xmlns:xlink="http://www.w3.org/1999/xlink" width="16" height="16">
  <defs>
    <linearGradient id="a">
      <stop offset="0" stop-color="#879688"/>
      <stop offset=".624" stop-color="#9e9e9e"/>
      <stop offset="1" stop-color="#cacaca"/>
    </linearGradient>
    <linearGradient xlink:href="#a" id="d" x1="388.637" x2="388.418" y1="478.188" y2="462.11" gradientUnits="userSpaceOnUse"/>
    <linearGradient id="b">
      <stop offset="0" stop-color="#4177af"/>
      <stop offset=".476" stop-color="#14518f"/>
      <stop offset="1" stop-color="#6ea2d8"/>
    </linearGradient>
    <linearGradient xlink:href="#b" id="e" x1="7.88" x2="1.035" y1="-6.99" y2="-6.99" gradientUnits="userSpaceOnUse"/>
    <linearGradient id="c">
      <stop offset="0" stop-color="#4e8fbd"/>
      <stop offset="1" stop-color="#30495a"/>
    </linearGradient>
    <linearGradient xlink:href="#c" id="f" x1="-2.287" x2="-2.287" y1="1044.692" y2="1049.598" gradientTransform="translate(-15.753 -116.845) scale(1.11263)" gradientUnits="userSpaceOnUse"/>
  </defs>
  <path fill="url(#d)" stroke="#656565" stroke-linecap="round" stroke-linejoin="round" stroke-width="3.366" d="m 398.75,468.23718 c 0,5.86803 -4.75697,10.625 -10.625,10.625 -5.86803,0 -10.625,-4.75697 -10.625,-10.625 0,-5.86802 4.75697,-10.625 10.625,-10.625 5.86803,0 10.625,4.75698 10.625,10.625 z" font-family="Sans" font-size="13.589" font-weight="400" letter-spacing="0" style="line-height:125%" transform="matrix(.2844 0 0 .28945 -101.899 -130.04)" word-spacing="0"/>
  <path fill="url(#e)" stroke="#105c9c" stroke-width=".474" d="m 4.6403881,-9.4591022 1.1687457,2.0243272 1.1687458,2.0243272 -2.3374916,0 -2.3374917,-1e-7 1.1687459,-2.0243271 z" color="#000" overflow="visible" style="marker:none" transform="matrix(1.28256 0 0 .85798 6.49 17.426)"/>
  <path fill="url(#f)" d="m -19.084488,1037.2757 1.152554,0 -0.0087,11.1395 2.224662,0 -2.824439,3.3379 -2.707644,-3.3133 2.188145,0 z" transform="translate(19.132 -930.285) scale(.89877)"/>
</svg>
