<svg xmlns="http://www.w3.org/2000/svg" xmlns:xlink="http://www.w3.org/1999/xlink" width="16" height="16">
  <defs>
    <linearGradient id="c">
      <stop offset="0" stop-color="#5f5f5f"/>
      <stop offset="1" stop-color="#5c85a5"/>
    </linearGradient>
    <linearGradient id="b">
      <stop offset="0"/>
      <stop offset="1"/>
    </linearGradient>
    <linearGradient xlink:href="#a" id="d" x1="388.637" x2="388.637" y1="478.188" y2="462.115" gradientUnits="userSpaceOnUse"/>
    <linearGradient id="a">
      <stop offset="0" stop-color="#4f9e55"/>
      <stop offset=".5" stop-color="#418a4d"/>
      <stop offset="1" stop-color="#a4c589"/>
    </linearGradient>
    <linearGradient xlink:href="#b" id="e" x1="18.446" x2="26.329" y1="1034.349" y2="1034.349" gradientUnits="userSpaceOnUse"/>
    <linearGradient xlink:href="#c" id="i" x1="446.039" x2="446.039" y1="445.485" y2="429.586" gradientUnits="userSpaceOnUse"/>
    <linearGradient xlink:href="#b" id="g" x1="18.446" x2="26.329" y1="1034.349" y2="1034.349" gradientUnits="userSpaceOnUse"/>
    <linearGradient xlink:href="#b" id="f" x1="18.446" x2="26.329" y1="1034.349" y2="1034.349" gradientUnits="userSpaceOnUse"/>
    <linearGradient xlink:href="#b" id="h" x1="18.446" x2="26.329" y1="1034.349" y2="1034.349" gradientUnits="userSpaceOnUse"/>
  </defs>
  <path fill="url(#d)" stroke="#14733c" stroke-linecap="round" stroke-linejoin="round" stroke-width="2.351" d="m 396.39872,468.23718 c 0,4.56945 -3.70427,8.27372 -8.27372,8.27372 -4.56945,0 -8.27372,-3.70427 -8.27372,-8.27372 0,-4.56945 3.70427,-8.27372 8.27372,-8.27372 4.56945,0 8.27372,3.70427 8.27372,8.27372 z" font-family="Sans" font-size="13.589" font-weight="400" letter-spacing="0" style="line-height:125%" transform="matrix(.47821 0 0 .47821 -177.042 -212.402)" word-spacing="0"/>
  <g fill="url(#e)" transform="translate(-15.382 -1030.466)">
    <path fill="url(#i)" d="m 454.64574,437.86829 -6.94362,0 0,-9.86916 -21.64283,0 0.028,3.17683 17.80703,0 0,6.69233 -7.2796,0 9.40749,10.17775 z" transform="matrix(.27903 0 0 .30108 -100.532 902.644)"/>
  </g>
  <path fill="#fff" d="m 9.5617204,1047.3552 c -0.047196,-0.2888 -0.155049,-0.5063 -0.3235716,-0.6526 -0.1651603,-0.1462 -0.3808747,-0.2191 -0.6471437,-0.2191 -0.3539097,0 -0.6370345,0.127 -0.8493763,0.3811 -0.2089755,0.2504 -0.3134616,0.4141 -0.3134602,1.0057 -1.4e-6,0.6577 0.1061702,0.9506 0.3185162,1.222 0.2157123,0.2715 0.5038931,0.4072 0.8645437,0.4072 0.2696395,0 0.4904099,-0.078 0.6623104,-0.235 0.1718937,-0.1601 0.2932334,-0.4331 0.364019,-0.8195 l 1.3954031,-0.012 c -0.144939,0.6611 -0.423007,1.418 -0.834208,1.7556 -0.4112111,0.3376 -0.9622939,0.5063 -1.6532507,0.5063 -0.7853378,0 -1.4122574,-0.2557 -1.8807604,-0.7673 -0.4651353,-0.5115 -0.6977019,-1.0481 -0.6977019,-1.9529 0,-0.9152 0.2342515,-1.3695 0.7027572,-1.8774 0.4685037,-0.5116 1.1021643,-0.7674 1.9009845,-0.7674 0.6538812,0 1.1729444,0.1462 1.5571893,0.4385 0.387608,0.2887 0.708588,0.9668 0.87712,1.5617 z" font-family="Arial" font-size="15.569" font-weight="700" letter-spacing="0" style="line-height:125%;-inkscape-font-specification:Arial Bold" transform="translate(0 -1036.362)" word-spacing="0"/>
</svg>
