<svg xmlns="http://www.w3.org/2000/svg" xmlns:xlink="http://www.w3.org/1999/xlink" width="16" height="16">
  <defs>
    <linearGradient id="b">
      <stop offset="0" stop-color="#5c7aaa"/>
      <stop offset=".625" stop-color="#6f7684"/>
      <stop offset="1" stop-color="#4d5a5d"/>
    </linearGradient>
    <linearGradient xlink:href="#a" id="c" x1="388.637" x2="388.637" y1="478.188" y2="462.115" gradientUnits="userSpaceOnUse"/>
    <linearGradient id="a">
      <stop offset="0" stop-color="#75ba7a"/>
      <stop offset=".5" stop-color="#418a4d"/>
      <stop offset="1" stop-color="#a4c589"/>
    </linearGradient>
    <linearGradient xlink:href="#b" id="d" x1="0" x2="7" y1="13.5" y2="13.5" gradientTransform="rotate(-90 509.11 533.239)" gradientUnits="userSpaceOnUse"/>
  </defs>
  <g fill="#fff" font-family="Sans" font-size="13.589" font-weight="400" letter-spacing="0" word-spacing="0">
    <g style="line-height:125%">
      <path fill="#fefdef" stroke="#c4a543" stroke-linecap="round" stroke-linejoin="round" d="M-5.641 1037.838H-3.618V1039.861H-5.641z" transform="translate(16.13 -1028.348)"/>
      <path fill="url(#c)" stroke="#14733c" stroke-linecap="round" stroke-linejoin="round" stroke-width="5.254" d="m 398.75,468.23718 c 0,5.86803 -4.75697,10.625 -10.625,10.625 -5.86803,0 -10.625,-4.75697 -10.625,-10.625 0,-5.86802 4.75697,-10.625 10.625,-10.625 5.86803,0 10.625,4.75698 10.625,10.625 z" transform="matrix(.18866 0 0 .18866 -67.71 -85.85)"/>
      <path fill="url(#d)" d="m -11.12959,1043.3481 1,0 0,-6 2,0 -2.5,-2.9998 -2.5,2.9998 2,0 z" style="line-height:125%" transform="translate(16.13 -1028.348)"/>
      <path fill="#6b778c" d="m -10.12959,1038.3481 0,1 4,0 0,-1 z" style="line-height:125%" transform="translate(16.13 -1028.348)"/>
      <path fill="#5c7aaa" d="m -10.12959,1042.3481 0,1 4,0 0,-1 z" style="line-height:125%" transform="translate(16.13 -1028.348)"/>
      <path fill="#fefdef" stroke="#c4a543" stroke-linecap="round" stroke-linejoin="round" d="M-5.641 1041.838H-3.618V1043.861H-5.641z" style="line-height:125%" transform="translate(16.13 -1028.348)"/>
    </g>
  </g>
</svg>
