<svg xmlns="http://www.w3.org/2000/svg" xmlns:xlink="http://www.w3.org/1999/xlink" width="16" height="16">
  <defs>
    <linearGradient id="b">
      <stop offset="0" stop-color="#bd8416"/>
      <stop offset="1" stop-color="#a66b10"/>
    </linearGradient>
    <linearGradient id="c">
      <stop offset="0" stop-color="#f9cd5f"/>
      <stop offset="1" stop-color="#ffebb7"/>
    </linearGradient>
    <linearGradient id="d">
      <stop offset="0" stop-color="#bd8416"/>
      <stop offset="1" stop-color="#a66b10"/>
    </linearGradient>
    <linearGradient xlink:href="#a" id="g" x1="22.931" x2="22.931" y1="1039.698" y2="1041.736" gradientUnits="userSpaceOnUse"/>
    <linearGradient id="a">
      <stop offset="0" stop-color="#f9cd5f"/>
      <stop offset="1" stop-color="#ffebb7"/>
    </linearGradient>
    <linearGradient xlink:href="#b" id="h" x1="25.363" x2="25.363" y1="1044.731" y2="1037.731" gradientUnits="userSpaceOnUse"/>
    <linearGradient xlink:href="#c" id="e" x1="22.519" x2="22.519" y1="1042.028" y2="1040.735" gradientUnits="userSpaceOnUse"/>
    <linearGradient xlink:href="#d" id="f" x1="23.551" x2="23.551" y1="1037.362" y2="1045.362" gradientUnits="userSpaceOnUse"/>
  </defs>
  <path fill="url(#e)" stroke="url(#f)" d="m 23.585155,1039.3249 0,-1.591 c 0,0 -0.353553,-0.8397 -1.370019,-0.044 -1.016466,0.7955 -2.209709,2.0772 -2.386486,2.4307 -0.176776,0.3536 -0.928077,0.9723 0.08839,1.9446 1.016466,0.9722 2.121321,1.9887 2.121321,1.9887 0,0 1.546796,1.4584 1.546796,0.088 0,-1.37 0,-1.812 0,-1.812 1.366404,-0.063 1.694788,0.3552 2.039845,0.6884 0.345482,0.3336 0.8125,1.9687 1.21875,2.0937 0.40625,0.125 0.625,-2.1875 0.625,-2.625 0,-0.4375 -0.174793,-1.2439 -0.71875,-1.9687 -0.293544,-0.3911 -1.006571,-0.9555 -1.53125,-1.0998 -0.524679,-0.1444 -1.633595,-0.094 -1.633595,-0.094 z" transform="translate(-13.114 -1035.675)"/>
  <path fill="#fff" d="m 23.069359,2.3660973 0,-0.5966213 c 0,0 0.110485,-0.3756505 -0.220971,-0.243068 -0.331456,0.1325826 -0.972272,0.6629126 -1.038563,0.773398 -0.06629,0.1104855 -0.751301,0.5966214 -0.596622,0.8175923 0.15468,0.2209709 1.458408,0.066291 1.458408,0.066291 z" opacity=".857" transform="translate(-13.114 .687)"/>
  <path fill="url(#g)" stroke="url(#h)" d="m 23.585155,1039.3249 0,-1.591 c 0,0 -0.353553,-0.8397 -1.370019,-0.044 -1.016466,0.7955 -2.209709,2.0772 -2.386486,2.4307 -0.176776,0.3536 -0.928077,0.9723 0.08839,1.9446 1.016466,0.9722 2.121321,1.9887 2.121321,1.9887 0,0 0.404271,0.3812 0.799458,0.5707 0.37782,0.1811 0.747338,0.1871 0.747338,-0.4827 0,-1.37 0,-1.812 0,-1.812 1.366404,-0.063 1.727345,0.3446 2.039845,0.6884 0.3125,0.3437 0.8125,1.9687 1.21875,2.0937 0.40625,0.125 0.625,-2.1875 0.625,-2.625 0,-0.4375 -0.09375,-1.3125 -0.71875,-1.9687 -0.625,-0.6563 -1.006571,-0.9555 -1.53125,-1.0998 -0.524679,-0.1444 -1.633595,-0.094 -1.633595,-0.094 z" transform="rotate(180 14.557 526.428)"/>
  <path fill="#fff" d="m 23.069359,1042.9731 0,0.5966 c 0,0 0.110485,0.3757 -0.220971,0.2431 -0.331456,-0.1326 -0.972272,-0.6629 -1.038563,-0.7734 -0.06629,-0.1105 -0.751301,-0.5966 -0.596622,-0.8176 0.15468,-0.221 1.458408,-0.066 1.458408,-0.066 z" opacity=".857" transform="rotate(180 14.557 526.428)"/>
</svg>
