<svg xmlns="http://www.w3.org/2000/svg" xmlns:xlink="http://www.w3.org/1999/xlink" width="16" height="16">
  <defs>
    <linearGradient id="a">
      <stop offset="0" stop-color="#fff"/>
      <stop offset="1" stop-color="#fff" stop-opacity="0"/>
    </linearGradient>
    <linearGradient id="b">
      <stop offset="0" stop-color="#707070"/>
      <stop offset="1" stop-color="#a0a0a0"/>
    </linearGradient>
    <linearGradient id="c">
      <stop offset="0" stop-color="#2b2b2b"/>
      <stop offset="1" stop-color="#404040"/>
    </linearGradient>
    <linearGradient xlink:href="#b" id="t" x1="4.753" x2="4.753" y1="1051.047" y2="1038.581" gradientTransform="matrix(.54892 0 0 .54892 -18.987 475.73)" gradientUnits="userSpaceOnUse"/>
    <linearGradient xlink:href="#c" id="u" x1="8.657" x2="8.657" y1="1050.739" y2="1037.7" gradientTransform="matrix(.54892 0 0 .54892 -18.987 475.73)" gradientUnits="userSpaceOnUse"/>
    <linearGradient xlink:href="#d" id="k" x1="-18.015" x2="-18.015" y1="1056.339" y2="1061.313" gradientTransform="translate(3.75 -16.5)" gradientUnits="userSpaceOnUse"/>
    <linearGradient id="d">
      <stop offset="0" stop-color="#ffeab6"/>
      <stop offset="1" stop-color="#f8d888"/>
    </linearGradient>
    <linearGradient xlink:href="#e" id="l" x1="-18.015" x2="-9.604" y1="1061.313" y2="1059.978" gradientTransform="translate(3.75 -16.5)" gradientUnits="userSpaceOnUse"/>
    <linearGradient id="e">
      <stop offset="0" stop-color="#bc7f32"/>
      <stop offset="1" stop-color="#a37840"/>
    </linearGradient>
    <linearGradient xlink:href="#d" id="q" x1="-10.678" x2="-13.058" y1="1063.509" y2="1061.874" gradientTransform="translate(4.094 -16.375)" gradientUnits="userSpaceOnUse"/>
    <linearGradient xlink:href="#f" id="r" x1="-13.058" x2="-14.473" y1="1061.874" y2="1065.144" gradientTransform="translate(4.094 -16.375)" gradientUnits="userSpaceOnUse"/>
    <linearGradient id="f">
      <stop offset="0" stop-color="#bc7f32"/>
      <stop offset="1" stop-color="#7b6244"/>
    </linearGradient>
    <linearGradient id="g">
      <stop offset="0" stop-color="#faefba"/>
      <stop offset="1" stop-color="#9e6542"/>
    </linearGradient>
    <linearGradient id="h">
      <stop offset="0" stop-color="#faefba"/>
      <stop offset="1" stop-color="#9e6542"/>
    </linearGradient>
    <linearGradient id="i">
      <stop offset="0" stop-color="#faefba"/>
      <stop offset="1" stop-color="#9e6542"/>
    </linearGradient>
    <linearGradient id="j">
      <stop offset="0" stop-color="#faefba"/>
      <stop offset="1" stop-color="#9e6542"/>
    </linearGradient>
    <radialGradient xlink:href="#a" id="s" cx="-18.562" cy="27.314" r="3.359" fx="-18.562" fy="27.314" gradientUnits="userSpaceOnUse"/>
    <radialGradient xlink:href="#g" id="m" cx="387.597" cy="442.578" r="6.188" fx="387.597" fy="442.578" gradientTransform="matrix(1.56579 0 0 1.37407 -219.208 -165.52)" gradientUnits="userSpaceOnUse"/>
    <radialGradient xlink:href="#h" id="n" cx="387.597" cy="442.578" r="6.188" fx="387.597" fy="442.578" gradientTransform="matrix(1.56579 0 0 1.37407 -228.333 -165.52)" gradientUnits="userSpaceOnUse"/>
    <radialGradient xlink:href="#i" id="o" cx="387.597" cy="442.578" r="6.188" fx="387.597" fy="442.578" gradientTransform="matrix(1.56579 0 0 1.37407 -219.208 -154.646)" gradientUnits="userSpaceOnUse"/>
    <radialGradient xlink:href="#j" id="p" cx="387.597" cy="442.578" r="6.188" fx="387.597" fy="442.578" gradientTransform="matrix(1.56579 0 0 1.37407 -208.333 -154.646)" gradientUnits="userSpaceOnUse"/>
  </defs>
  <g transform="translate(19.082 -1036.237)">
    <path fill="url(#k)" stroke="url(#l)" d="m -17.595785,1048.2294 c -0.04419,-0.7071 0,-5.3378 0,-6.8943 0,-1.5565 1.000669,-2.5911 3.702254,-2.5911 2.717929,0 5.7111048,-0.017 5.7111048,-0.017 0,0 1.878252,0.088 1.878252,1.8783 l 0,3.271"/>
    <rect width="1.03" height="8.068" x="-12.066" y="1038.16" fill="#fff" ry="0"/>
    <path fill="none" stroke="#ba7f33" d="m -17.374999,1040.6747 10.749999,0" opacity=".115"/>
    <path fill="#fff" fill-opacity=".671" d="m -11.490485,1040.1204 4.640388,0 c 0,0 -0.220971,-0.9723 -1.5467957,-0.9281 -1.3258251,0.044 -5.7639293,0 -5.7639293,0 0,0 -1.846352,0.088 -2.023128,0.9281 2.784233,0 4.693465,0 4.693465,0 z"/>
  </g>
  <g stroke="#694337" stroke-width="3.584">
    <path fill="url(#m)" stroke-linecap="round" stroke-linejoin="round" d="M384.026 439.175H395.125V450.05H384.026z" transform="matrix(.27903 0 0 .27903 -98.637 -120.068)"/>
    <path fill="url(#n)" stroke-linecap="round" stroke-linejoin="round" d="M375.125 439.175H385.496V450.05H375.125z" transform="matrix(.27903 0 0 .27903 -93.056 -120.068)"/>
    <path fill="url(#o)" stroke-linecap="round" stroke-linejoin="round" d="M383.97 450.05H395.125V460.925H383.97z" transform="matrix(.27903 0 0 .27903 -98.637 -120.068)"/>
    <path fill="url(#p)" stroke-linecap="round" stroke-linejoin="round" d="M395.125 450.05H405.552V460.925H395.125z" transform="matrix(.27903 0 0 .27903 -98.637 -120.068)"/>
    <path fill="none" d="m358.583 450.077 32.35 0M374.784 433.853l0 30.582" transform="matrix(.27903 0 0 .27903 -93.056 -120.068)"/>
  </g>
  <path fill="url(#q)" stroke="url(#r)" d="m -12.611647,1044.0594 -0.04419,0.01 8.352698,0 c 0,0 2.077126,-0.221 1.06066,1.1048 -1.016466,1.3258 -3.358757,3.7565 -3.358757,3.7565 -3.401795,0 -7.923481,-0.044 -10.606601,-0.044 0,-1.5305 -0.04419,-4.6846 -0.04419,-4.6846" transform="translate(18.738 -1036.362)"/>
  <path fill="none" stroke="#bc7f32" d="m -12.44064,1043.9872 c -0.25,0 -4.774318,4.3765 -4.774318,4.3765" transform="translate(18.738 -1036.362)"/>
  <path fill="none" stroke="#bc7f32" d="m -12.749999,1043.9872 c -0.25,0 -4.53125,4.5312 -4.53125,4.5312" transform="translate(18.738 -1036.362)"/>
  <path fill="url(#s)" d="m -15.202795,27.313707 c 0,1.854991 -1.503767,3.358757 -3.358757,3.358757 -1.85499,0 -3.358757,-1.503766 -3.358757,-3.358757 0,-1.85499 1.503767,-3.358757 3.358757,-3.358757 1.85499,0 3.358757,1.503767 3.358757,3.358757 z" transform="translate(36.165 -36.98) scale(1.73684)"/>
  <path fill="url(#t)" stroke="url(#u)" stroke-linecap="round" d="m -11.621264,1045.8667 c -0.256996,-0.2569 -0.670765,-0.2569 -0.927748,0 l -1.708671,1.7087 -1.708658,-1.7087 c -0.256957,-0.2569 -0.670765,-0.2569 -0.927747,0 l -0.4721,0.4721 c -0.25697,0.257 -0.256963,0.6707 2.1e-5,0.9277 l 1.70863,1.7088 -1.708634,1.7085 c -0.257008,0.2571 -0.257002,0.6708 -6e-6,0.9278 l 0.472125,0.4722 c 0.256968,0.2569 0.670737,0.2569 0.927745,0 l 1.708662,-1.7087 1.720533,1.7205 c 0.256969,0.2571 0.670738,0.2571 0.927747,0 l 0.4721,-0.472 c 0.256981,-0.257 0.2544,-0.6683 -2.1e-5,-0.9278 l -1.720533,-1.7205 1.708661,-1.7087 c 0.256993,-0.257 0.256987,-0.6708 1.9e-5,-0.9278 z" transform="translate(18.738 -1036.362)"/>
</svg>
