<svg xmlns="http://www.w3.org/2000/svg" xmlns:xlink="http://www.w3.org/1999/xlink" width="16" height="16">
  <defs>
    <linearGradient id="a">
      <stop offset="0" stop-color="#707070"/>
      <stop offset="1" stop-color="#a0a0a0"/>
    </linearGradient>
    <linearGradient id="b">
      <stop offset="0" stop-color="#414141"/>
      <stop offset="1" stop-color="#535353"/>
    </linearGradient>
    <linearGradient xlink:href="#a" id="c" x1="4.753" x2="4.753" y1="1051.047" y2="1038.581" gradientTransform="matrix(.99105 0 0 1.03773 -.032 -39.636)" gradientUnits="userSpaceOnUse"/>
    <linearGradient xlink:href="#b" id="d" x1="8.657" x2="8.657" y1="1050.739" y2="1037.7" gradientTransform="matrix(.99105 0 0 1.03773 -.032 -39.636)" gradientUnits="userSpaceOnUse"/>
  </defs>
  <path fill="url(#c)" stroke="url(#d)" stroke-linecap="round" d="m 13.267004,1038.2068 c -0.463993,-0.4858 -1.211033,-0.4858 -1.675002,-10e-5 l -3.0849275,3.2304 -3.0849031,-3.2303 c -0.4639226,-0.4858 -1.2110333,-0.4858 -1.6750018,0 l -0.8523552,0.8927 c -0.4639479,0.4856 -0.463936,1.2678 3.62e-5,1.7537 l 3.0848535,3.2303 -3.084858,3.2302 c -0.4640179,0.4858 -0.4640062,1.268 -1.34e-5,1.7538 l 0.852401,0.8927 c 0.4639431,0.4858 1.2109842,0.4858 1.6750016,0 l 3.084908,-3.2302 3.1063417,3.2526 c 0.463945,0.4859 1.210985,0.4859 1.675003,0 l 0.852355,-0.8925 c 0.463969,-0.4859 0.459308,-1.2632 -3.6e-5,-1.7539 l -3.106344,-3.2527 3.084908,-3.2302 c 0.46399,-0.4859 0.463978,-1.2681 3.4e-5,-1.7538 z" transform="translate(0 -1036.362)"/>
</svg>
