<svg xmlns="http://www.w3.org/2000/svg" xmlns:xlink="http://www.w3.org/1999/xlink" width="16" height="16">
  <defs>
    <linearGradient id="c">
      <stop offset="0" stop-color="#c4a543"/>
      <stop offset="1" stop-color="#ae8820"/>
    </linearGradient>
    <linearGradient id="b">
      <stop offset="0" stop-color="#5c7aaa"/>
      <stop offset=".625" stop-color="#6f7684"/>
      <stop offset="1" stop-color="#4d5a5d"/>
    </linearGradient>
    <linearGradient xlink:href="#a" id="f" x1="388.637" x2="388.637" y1="478.188" y2="462.115" gradientUnits="userSpaceOnUse"/>
    <linearGradient id="a">
      <stop offset="0" stop-color="#75ba7a"/>
      <stop offset=".5" stop-color="#418a4d"/>
      <stop offset="1" stop-color="#a4c589"/>
    </linearGradient>
    <linearGradient xlink:href="#b" id="g" x1="0" x2="7" y1="13.5" y2="13.5" gradientTransform="rotate(90 -517.226 519.118)" gradientUnits="userSpaceOnUse"/>
    <linearGradient xlink:href="#c" id="e" x1="-12.13" x2="-12.13" y1="1032.348" y2="1033.348" gradientTransform="translate(15.26 8.994)" gradientUnits="userSpaceOnUse"/>
    <linearGradient id="d">
      <stop offset="0" stop-color="#c4a543"/>
      <stop offset="1" stop-color="#ae8820"/>
    </linearGradient>
    <linearGradient xlink:href="#d" id="h" x1="-12.13" x2="-12.13" y1="1032.348" y2="1033.348" gradientTransform="translate(15.26 4.994)" gradientUnits="userSpaceOnUse"/>
  </defs>
  <g fill="#fff" font-family="Sans" font-size="13.589" font-weight="400" letter-spacing="0" word-spacing="0">
    <g style="line-height:125%">
      <path fill="#6f7684" d="m-3.13 1038.348 0-1-4 0 0 1zM-6.108 1032.345l0-1-4 0 0 1zM-3.13 1042.348l0-1-4 0 0 1z" style="line-height:125%" transform="translate(16.13 -1028.348)"/>
      <path fill="#6f7684" d="m -7.1079313,1041.3447 1,0 0,-10 -1,0 z" style="line-height:125%" transform="translate(16.13 -1028.348)"/>
      <path fill="#fefdef" stroke="url(#e)" stroke-linecap="round" stroke-linejoin="round" d="M1.637 1040.833H3.66V1042.856H1.637z" transform="matrix(-1 0 0 1 16.13 -1028.348)"/>
      <path fill="url(#f)" stroke="#14733c" stroke-linecap="round" stroke-linejoin="round" stroke-width="5.254" d="m 398.75,468.23718 c 0,5.86803 -4.75697,10.625 -10.625,10.625 -5.86803,0 -10.625,-4.75697 -10.625,-10.625 0,-5.86802 4.75697,-10.625 10.625,-10.625 5.86803,0 10.625,4.75698 10.625,10.625 z" transform="matrix(-.18866 0 0 .18866 77.731 -84.837)"/>
      <path fill="url(#g)" d="m -11.107931,1035.3447 -1,0 0,6 -2,0 2.5,2.9998 2.4999997,-2.9998 -1.9999997,0 z" style="line-height:125%" transform="translate(16.13 -1028.348)"/>
      <path fill="#fefdef" stroke="url(#h)" stroke-linecap="round" stroke-linejoin="round" d="M1.637 1036.833H3.66V1038.856H1.637z" style="line-height:125%" transform="matrix(-1 0 0 1 16.13 -1028.348)"/>
    </g>
  </g>
</svg>
