<svg xmlns="http://www.w3.org/2000/svg" xmlns:xlink="http://www.w3.org/1999/xlink" width="16" height="16">
  <defs>
    <linearGradient id="a">
      <stop offset="0" stop-color="#fbe597"/>
      <stop offset="1" stop-color="#fffcf0"/>
    </linearGradient>
    <linearGradient id="b">
      <stop offset="0" stop-color="#bd8416"/>
      <stop offset="1" stop-color="#806229"/>
    </linearGradient>
    <linearGradient xlink:href="#a" id="e" x1="4.964" x2="4.964" y1="6.698" y2="2.933" gradientTransform="matrix(-.89057 0 0 .88223 32.05 1036.3)" gradientUnits="userSpaceOnUse"/>
    <linearGradient xlink:href="#b" id="f" x1="5.759" x2="5.759" y1="2.395" y2="8.2" gradientTransform="matrix(-.89057 0 0 .88223 32.05 1036.3)" gradientUnits="userSpaceOnUse"/>
    <linearGradient id="c">
      <stop offset="0" stop-color="#fbe597"/>
      <stop offset="1" stop-color="#fffcf0"/>
    </linearGradient>
    <linearGradient id="d">
      <stop offset="0" stop-color="#bd8416"/>
      <stop offset="1" stop-color="#806229"/>
    </linearGradient>
    <linearGradient xlink:href="#c" id="g" x1="4.964" x2="4.964" y1="6.698" y2="2.933" gradientTransform="matrix(.89057 0 0 .88223 16.855 1043.464)" gradientUnits="userSpaceOnUse"/>
    <linearGradient xlink:href="#d" id="h" x1="5.759" x2="5.759" y1="2.395" y2="8.2" gradientTransform="matrix(.89057 0 0 .88223 16.855 1043.464)" gradientUnits="userSpaceOnUse"/>
  </defs>
  <g stroke-width=".992">
    <path fill="url(#e)" stroke="url(#f)" d="m 26.996464,1038.5671 0,-1.9929 1.236475,0 3.424129,3.587 -3.58156,3.548 -1.039688,0 0,-2.0909 -5.245635,0 -1.023303,-1.4707 0.983944,-1.5025 z" transform="matrix(-.98581 0 0 .98581 32.092 -1020.394)"/>
    <path fill="url(#g)" stroke="url(#h)" d="m 21.908808,1045.7313 0,-1.9929 -1.236476,0 -3.424127,3.587 3.581559,3.548 1.039688,0 0,-2.0909 5.245635,0 1.023302,-1.4707 -0.983944,-1.5025 z" transform="matrix(-.98581 0 0 .98581 32.092 -1020.394)"/>
  </g>
</svg>
