<svg xmlns="http://www.w3.org/2000/svg" xmlns:xlink="http://www.w3.org/1999/xlink" width="16" height="16">
  <defs>
    <linearGradient xlink:href="#a" id="e" x1="4.964" x2="4.964" y1="6.698" y2="2.933" gradientTransform="matrix(-.89057 0 0 .88223 32.05 1036.3)" gradientUnits="userSpaceOnUse"/>
    <linearGradient id="a">
      <stop offset="0" stop-color="#fbe597"/>
      <stop offset="1" stop-color="#fffcf0"/>
    </linearGradient>
    <linearGradient xlink:href="#b" id="f" x1="5.759" x2="5.759" y1="2.395" y2="8.2" gradientTransform="matrix(-.89057 0 0 .88223 32.05 1036.3)" gradientUnits="userSpaceOnUse"/>
    <linearGradient id="b">
      <stop offset="0" stop-color="#bd8416"/>
      <stop offset="1" stop-color="#806229"/>
    </linearGradient>
    <linearGradient xlink:href="#c" id="g" x1="4.964" x2="4.964" y1="6.698" y2="2.933" gradientTransform="matrix(.89057 0 0 .88223 16.855 1043.464)" gradientUnits="userSpaceOnUse"/>
    <linearGradient id="c">
      <stop offset="0" stop-color="#fbe597"/>
      <stop offset="1" stop-color="#fffcf0"/>
    </linearGradient>
    <linearGradient xlink:href="#d" id="h" x1="5.759" x2="5.759" y1="2.395" y2="8.2" gradientTransform="matrix(.89057 0 0 .88223 16.855 1043.464)" gradientUnits="userSpaceOnUse"/>
    <linearGradient id="d">
      <stop offset="0" stop-color="#bd8416"/>
      <stop offset="1" stop-color="#806229"/>
    </linearGradient>
  </defs>
  <g stroke-width=".992">
    <path fill="url(#e)" stroke="url(#f)" d="m 26.996464,1038.5671 0,-1.9929 1.236475,0 3.424129,3.587 -3.58156,3.548 -1.039688,0 0,-2.0909 -5.245635,0 -1.023303,-1.4707 0.983944,-1.5025 z" transform="matrix(-.98581 0 0 .98581 32.168 -1020.351)"/>
    <path fill="url(#g)" stroke="url(#h)" d="m 21.908808,1045.7313 0,-1.9929 -1.236476,0 -3.424127,3.587 3.581559,3.548 1.039688,0 0,-2.0909 5.245635,0 1.023302,-1.4707 -0.983944,-1.5025 z" transform="matrix(-.98581 0 0 .98581 32.168 -1020.351)"/>
  </g>
  <path fill="#fff" d="M-25.001 1034.73H-22.372V1050.51H-25.001z" color="#000" overflow="visible" style="marker:none" transform="matrix(.90679 .19744 -.1988 .9065 236.753 -932.397)"/>
  <path fill="none" stroke="#787878" stroke-width="1.275" d="m 6.4965436,-0.35184431 0,15.64473731" transform="scale(.9414) rotate(12.325 3.094 10.56)"/>
  <path fill="none" stroke="#787878" stroke-width="1.293" d="m 23.09423,1034.721 0,15.8699" transform="matrix(-.90665 -.1981 -.1981 .90665 236.753 -932.397)"/>
</svg>
