<svg xmlns="http://www.w3.org/2000/svg" xmlns:xlink="http://www.w3.org/1999/xlink" width="16" height="16">
  <defs>
    <linearGradient id="c">
      <stop offset="0" stop-color="#91a5c7"/>
      <stop offset="1" stop-color="#637aa7"/>
    </linearGradient>
    <linearGradient id="e">
      <stop offset="0" stop-color="#91a5c7"/>
      <stop offset="1" stop-color="#637aa7"/>
    </linearGradient>
    <linearGradient id="d">
      <stop offset="0" stop-color="#91a5c7"/>
      <stop offset="1" stop-color="#637aa7"/>
    </linearGradient>
    <linearGradient id="h">
      <stop offset="0" stop-color="#f9fafc"/>
      <stop offset="1" stop-color="#dce7f7"/>
    </linearGradient>
    <linearGradient id="g">
      <stop offset="0" stop-color="#c7b571"/>
      <stop offset="1" stop-color="#9a9a8f"/>
    </linearGradient>
    <linearGradient id="f">
      <stop offset="0" stop-color="#e0c88f"/>
      <stop offset="1" stop-color="#d5b269"/>
    </linearGradient>
    <linearGradient id="a">
      <stop offset="0" stop-color="#91a5c7"/>
      <stop offset="1" stop-color="#5e76a3"/>
    </linearGradient>
    <linearGradient id="b">
      <stop offset="0" stop-color="#91a5c7"/>
      <stop offset="1" stop-color="#637aa7"/>
    </linearGradient>
    <linearGradient xlink:href="#a" id="n" x1="7.007" x2="11" y1="1043.857" y2="1043.857" gradientTransform="translate(-4 -4)" gradientUnits="userSpaceOnUse"/>
    <linearGradient xlink:href="#b" id="o" x1="7.007" x2="14" y1="1045.857" y2="1045.857" gradientTransform="translate(-4 -4)" gradientUnits="userSpaceOnUse"/>
    <linearGradient xlink:href="#c" id="p" x1="7.007" x2="14" y1="1047.857" y2="1047.857" gradientTransform="translate(-4 -4)" gradientUnits="userSpaceOnUse"/>
    <linearGradient xlink:href="#d" id="r" x1="7.007" x2="12.016" y1="1051.857" y2="1051.857" gradientTransform="translate(-4 -4)" gradientUnits="userSpaceOnUse"/>
    <linearGradient xlink:href="#e" id="q" x1="7.007" x2="14" y1="1049.857" y2="1049.857" gradientTransform="translate(-4 -4)" gradientUnits="userSpaceOnUse"/>
    <linearGradient xlink:href="#f" id="l" x1="7.999" x2="9.987" y1="1042.231" y2="1040.33" gradientTransform="translate(0 -2)" gradientUnits="userSpaceOnUse"/>
    <linearGradient xlink:href="#g" id="m" x1="10.545" x2="10.545" y1="1038.578" y2="1052.323" gradientTransform="translate(-4 -2)" gradientUnits="userSpaceOnUse"/>
    <linearGradient xlink:href="#h" id="k" x1="9.895" x2="9.895" y1="1039.153" y2="1051.838" gradientTransform="translate(-4 -2)" gradientUnits="userSpaceOnUse"/>
    <linearGradient id="i">
      <stop offset="0" stop-color="#707070"/>
      <stop offset="1" stop-color="#a0a0a0"/>
    </linearGradient>
    <linearGradient id="j">
      <stop offset="0" stop-color="#3f3f3f"/>
      <stop offset="1" stop-color="#303030"/>
    </linearGradient>
    <linearGradient xlink:href="#i" id="u" x1="4.753" x2="4.753" y1="1051.047" y2="1038.581" gradientUnits="userSpaceOnUse"/>
    <linearGradient xlink:href="#j" id="v" x1="8.657" x2="8.657" y1="1050.739" y2="1037.7" gradientUnits="userSpaceOnUse"/>
    <filter id="t" width="1.48" height="1.48" x="-.24" y="-.24">
      <feGaussianBlur stdDeviation="1.205"/>
    </filter>
    <mask id="s" maskUnits="userSpaceOnUse"/>
  </defs>
  <path fill="url(#k)" d="m 1.4972825,1036.9037 7.0096685,0 3.062057,3.0066 0,9.9546 -10.0717255,0 z" transform="translate(0 -1036.362)"/>
  <path fill="url(#l)" d="m 7.976621,1036.441 0,3.9112 3.977476,0 z" transform="translate(0 -1036.362)"/>
  <path fill="none" stroke="url(#m)" d="m 1.4972825,1036.9037 7.0096685,0 3.062057,3.0066 0,9.9546 -10.0717255,0 z" transform="translate(0 -1036.362)"/>
  <path fill="url(#n)" d="M3.007 1039.352H7V1040.362H3.007z" transform="translate(0 -1036.362)"/>
  <path fill="url(#o)" d="M3.007 1041.352H10V1042.362H3.007z" transform="translate(0 -1036.362)"/>
  <path fill="url(#p)" d="M3.007 1043.352H10V1044.362H3.007z" transform="translate(0 -1036.362)"/>
  <path fill="url(#q)" d="M3.007 1045.352H10V1046.362H3.007z" transform="translate(0 -1036.362)"/>
  <path fill="url(#r)" d="M3.007 1047.352H8.016V1048.362H3.007z" transform="translate(0 -1036.362)"/>
  <g mask="url(#s)" transform="matrix(1.46602 0 0 1.22127 -5.637 -1268.442)">
    <g fill="#fff" stroke="#fff" stroke-width="3.707" filter="url(#t)" opacity=".75" transform="matrix(.53948 0 0 .53948 7.846 484.47)">
      <path stroke-linecap="round" d="m 13.419292,1038.6553 c -0.468185,-0.4682 -1.221974,-0.4682 -1.690135,-10e-5 l -3.1127968,3.1129 -3.1127723,-3.1128 c -0.4681138,-0.4682 -1.221974,-0.4682 -1.690134,0 l -0.8600555,0.8601 c -0.4681391,0.468 -0.4681272,1.2218 3.66e-5,1.6901 l 3.1127223,3.1128 -3.1127269,3.1127 c -0.4682099,0.4682 -0.468198,1.222 -1.34e-5,1.6902 l 0.8601016,0.8601 c 0.4681344,0.4681 1.2219244,0.4681 1.6901337,0 l 3.1127774,-3.1128 3.1344053,3.1344 c 0.468135,0.4682 1.221925,0.4682 1.690135,0 l 0.860055,-0.86 c 0.46816,-0.4682 0.463458,-1.2173 -3.7e-5,-1.6902 l -3.134406,-3.1344 3.112777,-3.1127 c 0.468181,-0.4683 0.468169,-1.2221 3.4e-5,-1.6902 z"/>
    </g>
  </g>
  <path fill="#fff" stroke="#fff" stroke-width=".507" d="m 10.09375,7.0489054 c -0.3172668,0.031974 -0.6221509,0.15383 -0.78125,0.3125 l -0.59375,0.5625 C 8.400566,8.241043 8.3380492,9.7451599 8.65625,10.0625 L 10.25,11.59375 8.59375,13.1875 C 8.4346339,13.346119 8.405526,13.69178 8.4375,14.03125 l 3.59375,0 0,-5.7010946 -1.125,-1.09375 c -0.159083,-0.15867 -0.495233,-0.2194744 -0.8125,-0.1875 z"/>
  <path fill="url(#u)" stroke="url(#v)" stroke-linecap="round" stroke-width="1.973" d="m 13.419292,1038.6553 c -0.468185,-0.4682 -1.221974,-0.4682 -1.690135,-10e-5 l -3.1127968,3.1129 -3.1127723,-3.1128 c -0.4681138,-0.4682 -1.221974,-0.4682 -1.690134,0 l -0.8600555,0.8601 c -0.4681391,0.468 -0.4681272,1.2218 3.66e-5,1.6901 l 3.1127223,3.1128 -3.1127269,3.1127 c -0.4682099,0.4682 -0.468198,1.222 -1.34e-5,1.6902 l 0.8601016,0.8601 c 0.4681344,0.4681 1.2219244,0.4681 1.6901337,0 l 3.1127774,-3.1128 3.1344053,3.1344 c 0.468135,0.4682 1.221925,0.4682 1.690135,0 l 0.860055,-0.86 c 0.46816,-0.4682 0.463458,-1.2173 -3.7e-5,-1.6902 l -3.134406,-3.1344 3.112777,-3.1127 c 0.468181,-0.4683 0.468169,-1.2221 3.4e-5,-1.6902 z" transform="matrix(.50767 0 0 .50612 8.12 -517.026)"/>
</svg>
