<svg xmlns="http://www.w3.org/2000/svg" xmlns:xlink="http://www.w3.org/1999/xlink" width="16" height="16">
  <defs>
    <linearGradient id="c">
      <stop offset="0" stop-color="#3a4e81"/>
      <stop offset="1" stop-color="#7688b7"/>
    </linearGradient>
    <linearGradient id="b">
      <stop offset="0" stop-color="#546483"/>
      <stop offset="1" stop-color="#818b9f"/>
    </linearGradient>
    <linearGradient id="a">
      <stop offset="0" stop-color="#2b5c9c"/>
      <stop offset="1" stop-color="#3673c4"/>
    </linearGradient>
    <linearGradient xlink:href="#a" id="f" x1="22.42" x2="22.42" y1="1044.658" y2="1037.933" gradientUnits="userSpaceOnUse"/>
    <linearGradient xlink:href="#b" id="e" x1="22.995" x2="22.995" y1="1040.173" y2="1048.318" gradientUnits="userSpaceOnUse"/>
    <linearGradient xlink:href="#c" id="g" x1="25.096" x2="19.998" y1="1041.878" y2="1041.878" gradientTransform="translate(-1.028)" gradientUnits="userSpaceOnUse"/>
    <linearGradient id="d">
      <stop offset="0" stop-color="#3a4e81"/>
      <stop offset="1" stop-color="#7688b7"/>
    </linearGradient>
    <linearGradient xlink:href="#d" id="h" x1="25.096" x2="19.998" y1="1041.878" y2="1041.878" gradientTransform="matrix(1.20625 0 0 1 -5.148 2.031)" gradientUnits="userSpaceOnUse"/>
  </defs>
  <g transform="translate(-14 -1036.362)">
    <rect width="11.932" height="10.01" x="16.573" y="1037.867" fill="url(#e)" stroke="url(#f)" rx=".795" ry=".795"/>
    <rect width="9.016" height="7.009" x="18.003" y="1039.372" fill="#fff" rx="0" ry="0"/>
    <g fill="#4673ad" transform="matrix(1.22794 0 0 1 -5.117 0)">
      <rect width="4.075" height="1.039" x="20.448" y="1048.352" rx="0" ry="0"/>
      <path d="M17.989 1049.367H27.005V1050.351H17.989z"/>
    </g>
    <g fill="#2a5893">
      <rect width="3.049" height="1.039" x="20.97" y="1048.352" rx="0" ry="0"/>
      <path d="M17.989 1049.367H27.005V1050.351H17.989z"/>
    </g>
    <g fill="#cfedfb">
      <path d="M17.987 3.007H26.986V3.996H17.987z" transform="translate(.022 1036.362)"/>
      <path d="M1039.369-18.981H1046.374V-17.976H1039.369z" transform="rotate(90 .011 .011)"/>
    </g>
    <path fill="url(#g)" d="M19.003 1041.362H24.003V1042.362H19.003z"/>
    <path fill="url(#h)" d="M19.007 1043.366H25.999V1044.366H19.007z"/>
  </g>
</svg>
