<svg xmlns="http://www.w3.org/2000/svg" xmlns:xlink="http://www.w3.org/1999/xlink" width="16" height="16">
  <defs>
    <linearGradient id="a">
      <stop offset="0" stop-color="#7395b8"/>
      <stop offset="1" stop-color="#125f9c"/>
    </linearGradient>
    <linearGradient id="b">
      <stop offset="0" stop-color="#7395b8"/>
      <stop offset="1" stop-color="#125f9c"/>
    </linearGradient>
    <linearGradient xlink:href="#a" id="c" x1="-17.094" x2="-13.313" y1="9.625" y2="12.438" gradientUnits="userSpaceOnUse"/>
    <linearGradient xlink:href="#b" id="d" x1="-17.094" x2="-13.313" y1="9.625" y2="12.438" gradientTransform="translate(27.726 1036.564)" gradientUnits="userSpaceOnUse"/>
  </defs>
  <g transform="matrix(.75134 .65048 -.62287 .78464 652.417 -816.707)">
    <path fill="#79879d" stroke="#4d607b" stroke-width=".5" d="m 6.312499,1045.9559 2.125,-3 2.500001,-5.875 c 0,0 0.71875,1.4063 0.5,2.0313 -0.21875,0.625 -2.531251,6.0312 -2.531251,6.0312 l -2,1.9688 z"/>
    <path fill="#79879d" stroke="#4d607b" stroke-width=".5" d="m 11.317555,1045.6254 -1.963626,-2.6695 -2.500001,-5.875 c 0,0 -0.71875,1.4063 -0.5,2.0313 0.21875,0.625 2.531251,6.0312 2.531251,6.0312 l 1.838626,1.6383 z"/>
    <path fill="#4d607b" d="m -10.906251,7.0937495 a 0.265625,0.265625 0 0 1 -0.265625,0.265625 0.265625,0.265625 0 0 1 -0.265625,-0.265625 0.265625,0.265625 0 0 1 0.265625,-0.265625 0.265625,0.265625 0 0 1 0.265625,0.265625 z" transform="translate(24.013 1033.89) scale(1.35294)"/>
    <path fill="none" stroke="url(#c)" stroke-linecap="round" stroke-linejoin="round" d="m -13.187501,10.875 a 2.03125,2.1875 0 0 1 -2.03125,2.1875 2.03125,2.1875 0 0 1 -2.03125,-2.1875 2.03125,2.1875 0 0 1 2.03125,-2.1875 2.03125,2.1875 0 0 1 2.03125,2.1875 z" transform="translate(20 1036.706)"/>
    <ellipse cx="12.508" cy="1047.439" fill="none" stroke="url(#d)" stroke-linecap="round" stroke-linejoin="round" rx="2.031" ry="2.188"/>
  </g>
</svg>
