<svg xmlns="http://www.w3.org/2000/svg" xmlns:xlink="http://www.w3.org/1999/xlink" width="16" height="16">
  <defs>
    <linearGradient id="o">
      <stop offset="0" stop-color="#a4b1c7"/>
      <stop offset=".5" stop-color="#e1e9f8" stop-opacity="0"/>
      <stop offset="1" stop-color="#e7eefa" stop-opacity="0"/>
    </linearGradient>
    <linearGradient id="n">
      <stop offset="0" stop-color="#a4b1c7"/>
      <stop offset=".25" stop-color="#e1e9f8"/>
      <stop offset="1" stop-color="#e7eefa"/>
    </linearGradient>
    <linearGradient id="e">
      <stop offset="0" stop-color="#a79c68"/>
      <stop offset=".319" stop-color="#687692"/>
      <stop offset=".426" stop-color="#8c99a6"/>
      <stop offset=".672" stop-color="#7b8da7"/>
      <stop offset="1" stop-color="#5e78a8"/>
    </linearGradient>
    <linearGradient id="a">
      <stop offset="0" stop-color="#937323"/>
      <stop offset="1" stop-color="#79601d"/>
    </linearGradient>
    <linearGradient id="b">
      <stop offset="0" stop-color="#dec26f"/>
      <stop offset="1" stop-color="#fce69e"/>
    </linearGradient>
    <linearGradient id="c">
      <stop offset="0" stop-color="#fdf3cb"/>
      <stop offset=".486" stop-color="#fdf3cb"/>
      <stop offset=".565" stop-color="#a77e1c" stop-opacity=".502"/>
      <stop offset="1" stop-color="#a77e1c" stop-opacity=".5"/>
    </linearGradient>
    <linearGradient id="d">
      <stop offset="0" stop-color="#925218"/>
      <stop offset="1" stop-color="#c1aa38"/>
    </linearGradient>
    <linearGradient xlink:href="#a" id="D" x1="30.063" x2="30.063" y1="1034.496" y2="1040.971" gradientTransform="translate(-42.735 2.5)" gradientUnits="userSpaceOnUse"/>
    <linearGradient xlink:href="#b" id="E" x1="32.326" x2="32.326" y1="1049.994" y2="1040.736" gradientTransform="translate(-43.39 1.055)" gradientUnits="userSpaceOnUse"/>
    <linearGradient xlink:href="#c" id="F" x1="27.208" x2="32.558" y1="1041.838" y2="1049.788" gradientTransform="translate(-43.39 1.055)" gradientUnits="userSpaceOnUse"/>
    <linearGradient xlink:href="#d" id="H" x1="29.263" x2="29.263" y1="1048.656" y2="1040.78" gradientTransform="translate(-43.39 1.055)" gradientUnits="userSpaceOnUse"/>
    <linearGradient xlink:href="#e" id="p" x1="8.014" x2="8.014" y1="1035.974" y2="1049.008" gradientTransform="translate(-22.46 20.31)" gradientUnits="userSpaceOnUse"/>
    <linearGradient xlink:href="#f" id="q" x1="-13" x2="-15" y1="1047.362" y2="1047.362" gradientTransform="translate(2.54 14.31)" gradientUnits="userSpaceOnUse"/>
    <linearGradient xlink:href="#g" id="r" x1="-11" x2="-11" y1="1042.362" y2="1044.362" gradientTransform="translate(2.54 14.31)" gradientUnits="userSpaceOnUse"/>
    <linearGradient id="g">
      <stop offset="0" stop-color="#d1eeff"/>
      <stop offset="1" stop-color="#fff" stop-opacity="0"/>
    </linearGradient>
    <linearGradient id="f">
      <stop offset="0" stop-color="#fff" stop-opacity="0"/>
      <stop offset="1" stop-color="#d1eeff"/>
    </linearGradient>
    <linearGradient xlink:href="#e" id="s" x1="-22.477" x2="-22.477" y1="1056.516" y2="1069.672" gradientTransform="translate(18)" gradientUnits="userSpaceOnUse"/>
    <linearGradient id="i">
      <stop offset="0" stop-color="#fff" stop-opacity="0"/>
      <stop offset="1" stop-color="#d1eeff"/>
    </linearGradient>
    <linearGradient xlink:href="#h" id="u" x1="-13" x2="-13" y1="1042.362" y2="1044.362" gradientTransform="translate(11.523 14.31)" gradientUnits="userSpaceOnUse"/>
    <linearGradient id="h">
      <stop offset="0" stop-color="#d1eeff"/>
      <stop offset="1" stop-color="#fff" stop-opacity="0"/>
    </linearGradient>
    <linearGradient xlink:href="#i" id="t" x1="-13" x2="-15" y1="1044.362" y2="1044.362" gradientTransform="translate(11.523 14.31)" gradientUnits="userSpaceOnUse"/>
    <linearGradient id="k">
      <stop offset="0" stop-color="#fff" stop-opacity="0"/>
      <stop offset="1" stop-color="#d1eeff"/>
    </linearGradient>
    <linearGradient xlink:href="#j" id="x" x1="-13" x2="-13" y1="1042.362" y2="1044.362" gradientTransform="translate(11.523 18.31)" gradientUnits="userSpaceOnUse"/>
    <linearGradient id="j">
      <stop offset="0" stop-color="#d1eeff"/>
      <stop offset="1" stop-color="#fff" stop-opacity="0"/>
    </linearGradient>
    <linearGradient xlink:href="#k" id="w" x1="-13" x2="-15" y1="1044.362" y2="1044.362" gradientTransform="translate(11.523 18.31)" gradientUnits="userSpaceOnUse"/>
    <linearGradient id="m">
      <stop offset="0" stop-color="#fff" stop-opacity="0"/>
      <stop offset="1" stop-color="#d1eeff"/>
    </linearGradient>
    <linearGradient xlink:href="#l" id="z" x1="-13" x2="-13" y1="1042.362" y2="1044.362" gradientTransform="translate(11.523 23.31)" gradientUnits="userSpaceOnUse"/>
    <linearGradient id="l">
      <stop offset="0" stop-color="#d1eeff"/>
      <stop offset="1" stop-color="#fff" stop-opacity="0"/>
    </linearGradient>
    <linearGradient xlink:href="#m" id="y" x1="-13" x2="-15" y1="1044.362" y2="1044.362" gradientTransform="translate(11.523 23.31)" gradientUnits="userSpaceOnUse"/>
    <linearGradient xlink:href="#n" id="v" x1="-2.477" x2="-2.477" y1="1060.672" y2="1064.672" gradientUnits="userSpaceOnUse"/>
    <linearGradient xlink:href="#o" id="A" x1="-2.477" x2="-2.477" y1="1060.672" y2="1064.672" gradientUnits="userSpaceOnUse"/>
    <filter id="G" color-interpolation-filters="sRGB">
      <feGaussianBlur stdDeviation=".324"/>
    </filter>
    <filter id="C" width="1.384" height="1.339" x="-.192" y="-.169">
      <feGaussianBlur stdDeviation=".633"/>
    </filter>
    <mask id="B" maskUnits="userSpaceOnUse">
      <rect width="14" height="14" x="1" y="1037.362" fill="#fff" rx=".671" ry=".671"/>
    </mask>
  </defs>
  <path fill="#f4fcff" stroke="url(#p)" d="M-12.977 1056.172H.009V1069.186H-12.977z" transform="translate(15.538 -1054.672)"/>
  <path fill="url(#q)" d="m -11.460469,1057.6724 -0.01646,11 -1,0 0.01646,-12 z" transform="translate(15.538 -1054.672)"/>
  <path fill="url(#r)" d="m -11.460469,1057.6724 6.983538,0 0,-1 -7.983538,0 z" transform="translate(15.538 -1054.672)"/>
  <path fill="url(#s)" d="M-4.477 1055.672H-3.477V1069.672H-4.477z" transform="translate(15.538 -1054.672)"/>
  <path fill="#687692" d="M1059.672.477H1060.672V3.477H1059.672z" transform="rotate(90 535.105 -519.567)"/>
  <path fill="#7b8ca7" d="M1064.672.477H1065.672V3.477H1064.672z" transform="rotate(90 535.105 -519.567)"/>
  <path fill="url(#t)" d="m -2.476931,1057.6724 0,2 -1,0 0,-3 z" transform="translate(15.538 -1054.672)"/>
  <path fill="url(#u)" d="m -2.476931,1057.6724 2,0 0,-1 -3,0 z" transform="translate(15.538 -1054.672)"/>
  <path fill="url(#v)" d="M-3.477 1060.672H-.477V1064.672H-3.477z" transform="translate(15.538 -1054.672)"/>
  <path fill="url(#w)" d="m -2.476931,1061.6724 0,3 -1,0 0,-4 z" transform="translate(15.538 -1054.672)"/>
  <path fill="url(#x)" d="m -2.476931,1061.6724 2,0 0,-1 -3,0 z" transform="translate(15.538 -1054.672)"/>
  <path fill="url(#y)" d="m -2.476931,1066.6724 0,2 -1,0 0,-3 z" transform="translate(15.538 -1054.672)"/>
  <path fill="url(#z)" d="m -2.476931,1066.6724 2,0 0,-1 -3,0 z" transform="translate(15.538 -1054.672)"/>
  <path fill="url(#A)" d="M-3.477 1060.672H-.477V1064.672H-3.477z" transform="translate(15.538 -1054.672)"/>
  <path fill="#4b6ea2" d="M12 3H13V4H12z" transform="translate(1.06)"/>
  <path fill="#4b6ea2" d="M-2.477 1066.672H-1.477V1067.672H-2.477z" transform="translate(15.538 -1054.672)"/>
  <g mask="url(#B)" transform="translate(1.06 -1036.362)">
    <path fill="#fff" d="m 3.96875,1043.3622 c -1.839313,0 -3.34375,1.4732 -3.34375,3.3125 l 0,0.3125 c -0.347633,0.1472 -0.59375,0.4741 -0.59375,0.875 l 0,3.5 c 0,0.5346 0.434192,0.9688 0.96875,0.9688 l 5.9375,0 c 0.534558,0 1,-0.4342 1,-0.9688 l 0,-3.5 c 0,-0.3852 -0.258682,-0.6877 -0.59375,-0.8437 l 0,-0.3438 c 0,-1.8416 -1.535687,-3.3125 -3.375,-3.3125 z m 0,1.8125 c 0.865247,0 1.53125,0.6385 1.53125,1.5 l 0,0.2188 -3.03125,0 0,-0.2188 c 0,-0.8653 0.634753,-1.5 1.5,-1.5 z" color="#000" enable-background="accumulate" filter="url(#C)" font-family="Sans" font-weight="400" overflow="visible" style="text-indent:0;text-align:start;line-height:normal;text-transform:none;block-progression:tb;marker:none;-inkscape-font-specification:Sans"/>
  </g>
  <g transform="matrix(.60715 0 0 .60715 13.623 -622.546)">
    <path fill="none" stroke="url(#D)" stroke-width="2.471" d="m -10.059546,1045.0618 0,-2.9375 c 0,-2.7586 -1.253608,-5 -4.012192,-5 -2.758584,0 -4.162918,2.2414 -4.162918,5 l 0,2.9375" color="#000" enable-background="accumulate" font-family="Sans" font-weight="400" overflow="visible" style="text-indent:0;text-align:start;line-height:normal;text-transform:none;block-progression:tb;marker:none;-inkscape-font-specification:Sans"/>
    <rect width="11.999" height="7.938" x="-19.876" y="1042.982" fill="url(#E)" rx="1.105" ry="1.105"/>
    <rect width="10.729" height="6.824" x="-19.242" y="1043.485" fill="none" stroke="url(#F)" stroke-width=".879" filter="url(#G)" rx=".622" ry=".601"/>
    <path fill="#a77e1c" d="M-19.393 1045.48H-8.362V1046.48H-19.393zM-19.393 1047.48H-8.362V1048.48H-19.393zM-19.393 1049.48H-8.362V1050.48H-19.393z" opacity=".25"/>
    <path fill="#785b13" d="m 10.496117,12.531184 c 0,0.561379 -0.455088,1.016466 -1.0164665,1.016466 -0.5613787,0 -1.016466,-0.455087 -1.016466,-1.016466 0,-0.561378 0.4550873,-1.016466 1.016466,-1.016466 0.5613785,0 1.0164665,0.455088 1.0164665,1.016466 z" transform="translate(-23.39 1033.418)"/>
    <path fill="#785b13" d="M-14.44 1046.59H-13.379V1049.396H-14.44z"/>
    <rect width="11.51" height="8.229" x="-19.876" y="1042.691" fill="none" stroke="url(#H)" stroke-width="1.647" rx="1.105" ry="1.105"/>
  </g>
</svg>
