<svg xmlns="http://www.w3.org/2000/svg" xmlns:xlink="http://www.w3.org/1999/xlink" width="16" height="16">
  <defs>
    <linearGradient id="e">
      <stop offset="0" stop-color="#607396"/>
      <stop offset="1" stop-color="#a7afbc"/>
    </linearGradient>
    <linearGradient id="f">
      <stop offset="0" stop-color="#8194b4"/>
      <stop offset="1" stop-color="#cdd4e0"/>
    </linearGradient>
    <linearGradient id="d">
      <stop offset="0" stop-color="#f2c671"/>
      <stop offset="1" stop-color="#f3e2bf"/>
    </linearGradient>
    <linearGradient id="c">
      <stop offset="0" stop-color="#daedef"/>
      <stop offset="1" stop-color="#fff"/>
    </linearGradient>
    <linearGradient id="b">
      <stop offset="0" stop-color="#c89840"/>
      <stop offset="1" stop-color="#798da2"/>
    </linearGradient>
    <linearGradient id="a">
      <stop offset="0" stop-color="#7795b6"/>
      <stop offset="1" stop-color="#7795b6" stop-opacity="0"/>
    </linearGradient>
    <linearGradient id="l">
      <stop offset="0" stop-color="#d8bc68"/>
      <stop offset="1" stop-color="#fff0c2"/>
    </linearGradient>
    <linearGradient xlink:href="#a" id="m" x1="12.793" x2="8.146" y1="1032.078" y2="1032.078" gradientTransform="scale(.9856 1.0146)" gradientUnits="userSpaceOnUse"/>
    <linearGradient xlink:href="#b" id="k" x1="15.996" x2="8.21" y1="931.126" y2="937.904" gradientTransform="scale(.89262 1.1203)" gradientUnits="userSpaceOnUse"/>
    <linearGradient xlink:href="#c" id="j" x1="15.996" x2="8.21" y1="931.126" y2="937.904" gradientTransform="scale(.89262 1.1203)" gradientUnits="userSpaceOnUse"/>
    <linearGradient xlink:href="#d" id="g" x1="6.193" x2="6.193" y1="1009.338" y2="1003.399" gradientTransform="scale(.9599 1.04178)" gradientUnits="userSpaceOnUse"/>
    <linearGradient xlink:href="#e" id="i" x1="5.587" x2="5.587" y1="1502.386" y2="1498.009" gradientTransform="scale(1.44383 .6926)" gradientUnits="userSpaceOnUse"/>
    <linearGradient xlink:href="#f" id="h" x1="5.587" x2="5.587" y1="1502.386" y2="1498.009" gradientTransform="scale(1.44383 .6926)" gradientUnits="userSpaceOnUse"/>
  </defs>
  <g transform="translate(0 -1036.362)">
    <rect width="10.989" height="12.011" x="2.488" y="1039.851" fill="url(#g)" stroke="#af8456" color="#000" overflow="visible" ry="1.206" style="marker:none"/>
    <path fill="url(#h)" stroke="url(#i)" d="m 6.6872685,1037.8674 -1.9237704,3.0156 3.2735126,0 3.2735103,0 -1.923769,-3.0156 -1.3497413,0 z"/>
    <path fill="url(#j)" stroke="url(#k)" d="m 7.5294306,1042.8539 0.022097,9.0235 6.9629104,0 -0.0221,-7.0161 -1.972619,0 0.0023,-2.0089 z" color="#000" overflow="visible" style="marker:none"/>
    <path fill="url(#l)" d="m 13.021488,1042.3689 2.01799,2.0018 -2.031854,0 z"/>
    <path fill="url(#m)" d="m 8.1401475,1049.3676 0,-0.3002 0,-0.7009 4.8577025,0 0,1.0011 -4.8577025,0 z m 0,-2.0108 0,-0.3002 0,-0.7009 4.8577025,0 0,1.0011 -4.8577025,0 z m 0.1767768,-1.9887 0,-0.3002 0,-0.7009 2.6921877,0 0,1.0011 -2.6921877,0 z" color="#000" font-family="sans-serif" font-weight="400" overflow="visible" style="line-height:normal;text-indent:0;text-align:start;text-decoration-line:none;text-decoration-style:solid;text-decoration-color:#000;text-transform:none;block-progression:tb;white-space:normal;isolation:auto;mix-blend-mode:normal;solid-color:#000;solid-opacity:1;marker:none"/>
  </g>
</svg>
