<svg xmlns="http://www.w3.org/2000/svg" xmlns:xlink="http://www.w3.org/1999/xlink" width="16" height="16">
  <defs>
    <linearGradient id="g">
      <stop offset="0" stop-color="#359b58"/>
      <stop offset=".394" stop-color="#72b649"/>
      <stop offset=".5" stop-color="#72b649"/>
      <stop offset="1" stop-color="#359b58"/>
    </linearGradient>
    <linearGradient id="f">
      <stop offset="0"/>
      <stop offset="1" stop-opacity="0"/>
    </linearGradient>
    <linearGradient id="d">
      <stop offset="0" stop-color="#4476aa"/>
      <stop offset=".5" stop-color="#5a9ccc"/>
      <stop offset="1" stop-color="#4476aa"/>
    </linearGradient>
    <linearGradient id="c">
      <stop offset="0" stop-color="#bfb688"/>
      <stop offset="1" stop-color="#8694ae"/>
    </linearGradient>
    <linearGradient xlink:href="#a" id="i" x1="-13" x2="-15" y1="1047.362" y2="1047.362" gradientTransform="translate(18 -4)" gradientUnits="userSpaceOnUse"/>
    <linearGradient id="a">
      <stop offset="0" stop-color="#fff" stop-opacity="0"/>
      <stop offset="1" stop-color="#c5dff4"/>
    </linearGradient>
    <linearGradient xlink:href="#b" id="j" x1="-11" x2="-11" y1="1042.362" y2="1044.362" gradientTransform="translate(18 2)" gradientUnits="userSpaceOnUse"/>
    <linearGradient id="b">
      <stop offset="0" stop-color="#c5dff4"/>
      <stop offset="1" stop-color="#fff" stop-opacity="0"/>
    </linearGradient>
    <linearGradient xlink:href="#c" id="h" x1="8.014" x2="8.014" y1="1042.362" y2="1050.071" gradientTransform="translate(0 2)" gradientUnits="userSpaceOnUse"/>
    <linearGradient xlink:href="#d" id="k" x1="8.014" x2="8.014" y1="1039.876" y2="1041.877" gradientTransform="translate(0 2)" gradientUnits="userSpaceOnUse"/>
    <linearGradient id="e">
      <stop offset="0"/>
      <stop offset="1" stop-opacity="0"/>
    </linearGradient>
    <linearGradient xlink:href="#e" id="n" x1="21.05" x2="21.074" y1="1044.965" y2="1039.053" gradientTransform="matrix(0 .63848 -.63848 0 689.622 1034.1)" gradientUnits="userSpaceOnUse"/>
    <linearGradient xlink:href="#f" id="o" x1="21.123" x2="21.123" y1="1045.577" y2="1046.688" gradientUnits="userSpaceOnUse"/>
    <linearGradient xlink:href="#g" id="p" x1="18.909" x2="22.095" y1="7.609" y2="8.297" gradientUnits="userSpaceOnUse"/>
    <linearGradient xlink:href="#g" id="q" x1="19.625" x2="22" y1="1041.644" y2="1041.644" gradientUnits="userSpaceOnUse"/>
    <filter id="m" width="1.48" height="1.48" x="-.24" y="-.24">
      <feGaussianBlur stdDeviation=".806"/>
    </filter>
    <mask id="l" maskUnits="userSpaceOnUse"/>
  </defs>
  <path fill="#f4fcff" stroke="url(#h)" d="m 2.500702,1041.8621 11.999628,0 0,9.033 -11.999628,0 z" transform="translate(0 -1036.362)"/>
  <path fill="url(#i)" d="m 4,1045.3622 0,5.0312 -1,0 0,-6.0312 z" transform="translate(0 -1036.362)"/>
  <path fill="url(#j)" d="m 4,1045.3622 10,0 0,-1 -11,0 z" transform="translate(0 -1036.362)"/>
  <path fill="#58b6e8" stroke="url(#k)" d="m 2.500702,1041.8621 11.999628,0 0,2.0053 -11.999628,0 z" transform="translate(0 -1036.362)"/>
  <g mask="url(#l)" transform="translate(0 -1036.362)">
    <g fill="#fff" stroke="#fff" stroke-width="3" filter="url(#m)" opacity=".85" transform="rotate(45 16.689 1031.714)">
      <path stroke="none" d="m 20.40625,1044.9062 a 0.250025,0.250025 0 0 0 -0.125,0.125 0.250025,0.250025 0 0 0 -0.03125,0.125 l 0,2.4063 a 0.250025,0.250025 0 0 0 0,0.062 0.250025,0.250025 0 0 0 0.125,0.1562 c 0.159025,0.096 0.31691,0.1983 0.53125,0.2188 0.21434,0.021 0.436009,-0.076 0.65625,-0.25 a 0.250025,0.250025 0 0 0 0.09375,-0.125 0.250025,0.250025 0 0 0 0,-0.062 l 0,-2.4063 a 0.250025,0.250025 0 0 0 0,-0.031 0.250025,0.250025 0 0 0 -0.03125,-0.094 0.250025,0.250025 0 0 0 -0.15625,-0.125 0.250025,0.250025 0 0 0 -0.0625,0 l -0.90625,0 a 0.250025,0.250025 0 0 0 -0.09375,0 z" color="#000" enable-background="accumulate" font-family="Sans" font-weight="400" opacity="1" overflow="visible" style="text-indent:0;text-align:start;line-height:normal;text-transform:none;block-progression:tb;marker:none"/>
      <path stroke-linecap="round" stroke-linejoin="round" d="M 20.9375,6.125 C 19.686416,6.1463072 18.732332,7.2495515 18.53125,8 c 0,0.595432 1.068685,1.09375 2.40625,1.09375 C 22.275065,9.09375 23.375,8.595432 23.375,8 23.179528,7.2704899 22.188584,6.1036928 20.9375,6.125 z" opacity="1" transform="translate(0 1036.362)"/>
      <path stroke-linecap="round" stroke-linejoin="round" d="m 20.929746,1040.0249 c -0.533598,0 -0.994941,0.084 -1.356203,0.2348 l 0,2.7676 c 0.361262,0.1504 0.822605,0.2348 1.356203,0.2348 0.487606,0 0.928812,-0.081 1.277961,-0.2087 l 0,-2.8198 c -0.349149,-0.128 -0.790355,-0.2087 -1.277961,-0.2087 z" opacity="1"/>
      <path stroke-linecap="round" stroke-linejoin="round" stroke-width="3.299" d="m 23.125,3.1406245 c 0,0.595432 -1.08431,1.078125 -2.421875,1.078125 -1.337565,0 -2.421875,-0.482693 -2.421875,-1.078125 0,-0.595432 1.08431,-1.078125 2.421875,-1.078125 1.337565,0 2.421875,0.482693 2.421875,1.078125 z" opacity="1" transform="matrix(.90925 0 0 .90925 2.129 1036.522)"/>
    </g>
  </g>
  <path fill="url(#n)" d="m 26.750924,1047.1294 c -0.01596,-0.035 -0.04489,-0.064 -0.07981,-0.08 -0.02425,-0.013 -0.05202,-0.02 -0.07968,-0.02 l -5.820754,-10e-5 c -0.01325,0 -0.0267,0 -0.03966,10e-5 -0.04253,0.011 -0.07932,0.041 -0.09971,0.08 -0.06128,0.1015 -0.126608,0.2023 -0.139716,0.3392 -0.0134,0.1368 0.04856,0.2783 0.159649,0.419 0.01903,0.028 0.0484,0.049 0.07977,0.06 0.01326,0 0.0267,0 0.03966,-10e-5 l 5.820754,0 c 0.008,0 0.01313,5e-4 0.01983,0 0.02101,0 0.04186,-0.01 0.06021,-0.02 0.03899,-0.02 0.06846,-0.058 0.07982,-0.1 0.0014,-0.013 0.0015,-0.027 -8.6e-5,-0.04 l -8e-6,-0.5787 c 0.0038,-0.02 0.0039,-0.04 -1.31e-4,-0.06 z" color="#000" enable-background="accumulate" font-family="Sans" font-weight="400" opacity=".25" overflow="visible" style="text-indent:0;text-align:start;line-height:normal;text-transform:none;block-progression:tb;marker:none;-inkscape-font-specification:Sans" transform="rotate(45 1267.689 513.533)"/>
  <path fill="#a5adba" stroke="#17325d" stroke-linecap="round" stroke-linejoin="round" stroke-width=".5" d="m 20.492187,1045.1591 0.921876,0 0,2.4062 c -0.376231,0.2965 -0.615362,0.1856 -0.921876,0 z" transform="rotate(45 1267.689 513.533)"/>
  <path fill="url(#o)" d="m 20.40625,1044.9062 a 0.250025,0.250025 0 0 0 -0.125,0.125 0.250025,0.250025 0 0 0 -0.03125,0.125 l 0,2.4063 a 0.250025,0.250025 0 0 0 0,0.062 0.250025,0.250025 0 0 0 0.125,0.1562 c 0.159025,0.096 0.31691,0.1983 0.53125,0.2188 0.21434,0.021 0.436009,-0.076 0.65625,-0.25 a 0.250025,0.250025 0 0 0 0.09375,-0.125 0.250025,0.250025 0 0 0 0,-0.062 l 0,-2.4063 a 0.250025,0.250025 0 0 0 0,-0.031 0.250025,0.250025 0 0 0 -0.03125,-0.094 0.250025,0.250025 0 0 0 -0.15625,-0.125 0.250025,0.250025 0 0 0 -0.0625,0 l -0.90625,0 a 0.250025,0.250025 0 0 0 -0.09375,0 z" color="#000" enable-background="accumulate" font-family="Sans" font-weight="400" opacity=".5" overflow="visible" style="text-indent:0;text-align:start;line-height:normal;text-transform:none;block-progression:tb;marker:none;-inkscape-font-specification:Sans" transform="rotate(45 1267.689 513.533)"/>
  <path fill="url(#p)" stroke="#00953e" stroke-linecap="round" stroke-linejoin="round" d="M 20.9375,6.125 C 19.686416,6.1463072 18.732332,7.2495515 18.53125,8 c 0,0.595432 1.068685,1.09375 2.40625,1.09375 C 22.275065,9.09375 23.375,8.595432 23.375,8 23.179528,7.2704899 22.188584,6.1036928 20.9375,6.125 z" transform="rotate(45 16.689 -4.648)"/>
  <path fill="url(#q)" stroke="#00953e" stroke-linecap="round" stroke-linejoin="round" stroke-width=".835" d="m 20.929746,1040.0249 c -0.533598,0 -0.994941,0.084 -1.356203,0.2348 l 0,2.7676 c 0.361262,0.1504 0.822605,0.2348 1.356203,0.2348 0.487606,0 0.928812,-0.081 1.277961,-0.2087 l 0,-2.8198 c -0.349149,-0.128 -0.790355,-0.2087 -1.277961,-0.2087 z" transform="rotate(45 1267.689 513.533)"/>
  <path fill="#7db551" stroke="#00953e" stroke-linecap="round" stroke-linejoin="round" d="m 23.125,3.1406245 c 0,0.595432 -1.08431,1.078125 -2.421875,1.078125 -1.337565,0 -2.421875,-0.482693 -2.421875,-1.078125 0,-0.595432 1.08431,-1.078125 2.421875,-1.078125 1.337565,0 2.421875,0.482693 2.421875,1.078125 z" transform="rotate(45 15.431 -2.158) scale(.90925)"/>
</svg>
