<svg xmlns="http://www.w3.org/2000/svg" xmlns:xlink="http://www.w3.org/1999/xlink" width="16" height="16">
  <defs>
    <radialGradient xlink:href="#a" id="b" cx="19.032" cy="8.273" r="4.097" fx="19.032" fy="8.273" gradientTransform="matrix(1.10248 -.00578 .00898 1.71446 -13.025 1030.674)" gradientUnits="userSpaceOnUse"/>
    <linearGradient id="a">
      <stop offset="0" stop-color="#496e95"/>
      <stop offset=".677" stop-color="#497098"/>
      <stop offset="1" stop-color="#3a5877"/>
    </linearGradient>
  </defs>
  <g fill-rule="evenodd">
    <path fill="url(#b)" d="m 7.0410165,1038.3661 0,2.0117 -3.027344,0 0,0.9844 3.027344,0 0,6.3476 c 0,0 -1.2091643,-0.7226 -1.5892893,-1.1288 -0.380125,-0.4063 -0.632812,-1.9375 -0.632812,-1.9375 l -0.828125,-0.3125 c 0,0 0.033267,2.4687 0.318359,3.25 0.285094,0.7812 2.9525703,2.8437 2.9525703,2.8437 l 0.740234,0.5235 0.800781,-0.5235 c 0,0 2.6031365,-2.0625 2.8882315,-2.8437 0.285094,-0.7813 0.316406,-3.25 0.316406,-3.25 l -0.794922,0.3125 c 0,0 -0.252686,1.5976 -0.632812,2.0039 -0.380127,0.4062 -1.5542465,1.0624 -1.5542465,1.0624 l 0,-6.3476 2.9882805,0 0,-0.9844 -2.9882805,0 0,-2.0117 -0.75586,0 -0.472656,0 z" transform="translate(0 -1036.362)"/>
    <path fill="#01467a" d="m 7.0410165,1049.3664 c 0,0 -1.2091643,-1.0976 -1.5892893,-1.5038 -0.380125,-0.4063 -0.976562,-1.8437 -0.976562,-1.8437 l -0.484375,-1.6879 c 0,0 0.033267,2.4687 0.318359,3.25 0.285094,0.7812 2.9525703,2.8437 2.9525703,2.8437 l 0.740234,0.5235 0.800781,-0.5235 c 0,0 2.6031365,-2.0625 2.8882315,-2.8437 0.285094,-0.7813 0.316406,-3.25 0.316406,-3.25 l -0.513672,1.7035 c 0,0 -0.533936,1.4882 -0.914062,1.8945 -0.380127,0.4062 -1.5542465,1.4374 -1.5542465,1.4374 z" transform="translate(0 -1036.362)"/>
  </g>
</svg>
