<svg xmlns="http://www.w3.org/2000/svg" xmlns:xlink="http://www.w3.org/1999/xlink" width="16" height="16">
  <defs>
    <linearGradient id="e">
      <stop offset="0" stop-color="#d1d6dd"/>
      <stop offset="1" stop-color="#bfc9d6"/>
    </linearGradient>
    <linearGradient id="c">
      <stop offset="0" stop-color="#bfc9d6"/>
      <stop offset="1" stop-color="#cbd2db"/>
    </linearGradient>
    <linearGradient id="b">
      <stop offset="0" stop-color="#eef6ff"/>
      <stop offset="1" stop-color="#fdfeff"/>
    </linearGradient>
    <linearGradient id="a">
      <stop offset="0" stop-color="#717883"/>
      <stop offset="1" stop-color="#81733e"/>
    </linearGradient>
    <linearGradient id="d">
      <stop offset="0" stop-color="#d6e0e6"/>
      <stop offset="1" stop-color="#d6e0e6" stop-opacity="0"/>
    </linearGradient>
    <linearGradient xlink:href="#a" id="g" x1="21.948" x2="21.948" y1="1035.72" y2="1028.428" gradientTransform="translate(-14.203 22.03)" gradientUnits="userSpaceOnUse"/>
    <linearGradient xlink:href="#b" id="f" x1="20.932" x2="20.932" y1="1036.206" y2="1030.549" gradientTransform="translate(-14.203 22.03)" gradientUnits="userSpaceOnUse"/>
    <linearGradient xlink:href="#c" id="i" x1="23.191" x2="26.213" y1="1022.839" y2="1022.839" gradientUnits="userSpaceOnUse"/>
    <linearGradient xlink:href="#c" id="j" x1="23.191" x2="26.213" y1="1022.839" y2="1022.839" gradientTransform="translate(0 -2)" gradientUnits="userSpaceOnUse"/>
    <linearGradient xlink:href="#c" id="k" x1="23.191" x2="26.213" y1="1022.839" y2="1022.839" gradientTransform="translate(0 -3.984)" gradientUnits="userSpaceOnUse"/>
    <linearGradient xlink:href="#d" id="h" x1="15.156" x2="28.135" y1="1043.8" y2="1043.8" gradientUnits="userSpaceOnUse"/>
    <linearGradient xlink:href="#e" id="l" x1="17.206" x2="21.227" y1="1020.343" y2="1020.343" gradientTransform="translate(-14.203 34.03)" gradientUnits="userSpaceOnUse"/>
    <linearGradient xlink:href="#e" id="m" x1="17.206" x2="21.227" y1="1020.343" y2="1020.343" gradientTransform="translate(-14.203 36.037)" gradientUnits="userSpaceOnUse"/>
  </defs>
  <path fill="#3d4b65" stroke="#3d4b65" d="M8.264 1051.324H14.513V1059.917H8.264z" transform="translate(0 -1048.355)"/>
  <path fill="#3d4b65" fill-rule="evenodd" stroke="#3d4b65" d="m 7.535109,1056.0246 -2.209709,0 c -0.369764,0 -0.359452,-1.0385 -0.795495,-1.0385 l -3.071495,0 0,4.9497 2.452777,0 c 0.637939,0 0.201444,1.0469 0.60439,1.0469 l 3.019532,0 z m -0.0221,0.044 c 0,-0.4897 1.06066,-1.0164 1.06066,-1.0164 l -0.132583,4.9939 -0.883883,0.8839 c 0,0 -0.04419,-2.1102 -0.04419,-4.8614 z" transform="translate(0 -1048.355)"/>
  <path fill="url(#f)" fill-rule="evenodd" stroke="url(#g)" d="m 7.57662,1051.91 -2.209709,0 c -0.369764,0 -0.359452,-1.0385 -0.795495,-1.0385 l -3.071495,0 0,8.0433 2.452777,0 c 0.637939,0 0.201444,1.0469 0.60439,1.0469 l 3.019532,0 z m -0.0221,0.044 c 0,-0.4897 0.570981,-1.0164 1.06066,-1.0164 l 4.905553,0 0,8.0875 c 0,0 -3.574259,0 -5.038136,0 -0.350397,0 -0.883883,0.8839 -0.883883,0.8839 0,0 -0.04419,-5.2038 -0.04419,-7.955 z" transform="translate(0 -1048.355)"/>
  <g stroke="none">
    <path fill="url(#i)" d="M23.191 1022.333H26.213V1023.344H23.191z" transform="translate(-14.172 -1014.325)"/>
    <path fill="url(#j)" d="M23.191 1020.333H26.213V1021.344H23.191z" transform="translate(-14.172 -1014.325)"/>
    <path fill="url(#k)" d="M23.191 1018.349H26.213V1019.36H23.191z" transform="translate(-14.172 -1014.325)"/>
  </g>
  <path fill="none" stroke="url(#l)" d="m 7.024208,1054.8923 -1.325826,0 c -0.369764,0 -0.359452,-1.0385 -0.795495,-1.0385 l -1.900349,0" transform="translate(0 -1048.355)"/>
  <path fill="none" stroke="url(#m)" d="m 7.024208,1056.8993 -1.325826,0 c -0.369764,0 -0.359452,-1.0385 -0.795495,-1.0385 l -1.900349,0" transform="translate(0 -1048.355)"/>
</svg>
