<svg xmlns="http://www.w3.org/2000/svg" xmlns:xlink="http://www.w3.org/1999/xlink" width="16" height="16">
  <defs>
    <linearGradient id="c">
      <stop offset="0" stop-color="#b9cad4"/>
      <stop offset="1" stop-color="#fff" stop-opacity="0"/>
    </linearGradient>
    <linearGradient id="b">
      <stop offset="0" stop-color="#998f6a"/>
      <stop offset="1" stop-color="#7d827c"/>
    </linearGradient>
    <linearGradient id="a">
      <stop offset="0" stop-color="#267fe3"/>
      <stop offset="1" stop-color="#80b4ef"/>
    </linearGradient>
    <linearGradient xlink:href="#a" id="e" x1="16.798" x2="17.847" y1="1047.219" y2="1045.608" gradientUnits="userSpaceOnUse"/>
    <linearGradient xlink:href="#b" id="d" x1="18.834" x2="25.201" y1="1038.91" y2="1045.91" gradientUnits="userSpaceOnUse"/>
    <linearGradient xlink:href="#c" id="f" x1="25.594" x2="26.562" y1="1046.628" y2="1048.503" gradientUnits="userSpaceOnUse"/>
  </defs>
  <path fill="#80b4ef" fill-rule="evenodd" stroke="url(#d)" d="m 22.718749,1037.8623 6.169845,6.5927 -6.84375,3.965 -6.232345,-6.6827 z" transform="translate(-14.156 -1036.331)"/>
  <path fill="url(#e)" fill-rule="evenodd" stroke="#8f8b70" d="m 15.829234,1041.7098 c 0,0 -0.511908,0.2976 -0.734834,0.5205 -0.440434,0.4405 -0.281901,2.757 -0.281901,2.757 l 5.875,5.875 0.972075,0.2604 0,-3.2292 z" transform="translate(-14.156 -1036.331)"/>
  <path fill="none" stroke="#727b84" d="m 21.874999,1051.0498 c 0.25,-0.094 7.729397,-4.4626 7.729397,-4.4626 m -0.220971,-2.3156 -0.607442,0.334 -5.325044,3.0112 -1.66969,0.8033" transform="translate(-14.156 -1036.331)"/>
  <path fill="#fff" fill-rule="evenodd" stroke="#8f8b70" stroke-width="1.112" d="m 23.984508,1042.9939 0,-1.147 -1.077488,-1.0427 -1.216519,0 -0.973215,1.1817 -1.112246,0.034 -0.263635,0.9839 1.375881,1.0669 1.112246,0 1.216519,-1.1472 z" transform="translate(-14.156 -1036.331)"/>
  <path fill="url(#f)" fill-rule="evenodd" d="m 22.156249,1048.1123 7.0625,-3.7188 0,2.375 -7.28125,4.0938 z" transform="translate(-14.156 -1036.331)"/>
</svg>
