<svg xmlns="http://www.w3.org/2000/svg" xmlns:xlink="http://www.w3.org/1999/xlink" width="16" height="16">
  <defs>
    <linearGradient xlink:href="#a" id="f" x1="5.994" x2="15.923" y1="1038.405" y2="1052.364" gradientTransform="matrix(1.0071 0 0 1.003 -4.036 -3.152)" gradientUnits="userSpaceOnUse"/>
    <linearGradient id="a">
      <stop offset="0" stop-color="#c7b571"/>
      <stop offset="1" stop-color="#989891"/>
    </linearGradient>
    <linearGradient xlink:href="#b" id="e" x1="9.895" x2="9.895" y1="1039.153" y2="1051.838" gradientTransform="matrix(.95438 0 0 .92584 -3.247 77.503)" gradientUnits="userSpaceOnUse"/>
    <linearGradient id="b">
      <stop offset="0" stop-color="#f9fafc"/>
      <stop offset="1" stop-color="#dce7f7"/>
    </linearGradient>
    <linearGradient id="c">
      <stop offset="0" stop-color="#e0c576"/>
      <stop offset="1" stop-color="#9e7916"/>
    </linearGradient>
    <linearGradient xlink:href="#d" id="j" x1=".938" x2=".938" y1="4.844" y2="7.549" gradientTransform="matrix(2.31999 0 0 2.31735 9.74 1026.251)" gradientUnits="userSpaceOnUse"/>
    <linearGradient id="d">
      <stop offset="0" stop-color="#f7f9fb"/>
      <stop offset="1" stop-color="#ffd680"/>
    </linearGradient>
    <radialGradient xlink:href="#c" id="i" cx="-757.205" cy="-738.838" r="3.48" fx="-757.205" fy="-738.838" gradientTransform="matrix(1.85082 0 0 1.77506 656.64 584.374)" gradientUnits="userSpaceOnUse"/>
    <filter id="h" width="1.48" height="1.48" x="-.24" y="-.24">
      <feGaussianBlur stdDeviation="1.465"/>
    </filter>
    <mask id="g" maskUnits="userSpaceOnUse"/>
  </defs>
  <path fill="url(#e)" d="m 2,1039.3622 6.6899073,0 3.3100927,0.093 0,11.907 -10,0 z" transform="translate(0 -1036.362)"/>
  <path fill="none" stroke="url(#f)" d="m 1.500001,1038.8622 10.999996,0 c 0,0 0,8.6667 0,13 l -10.999997,0 z" transform="translate(0 -1036.362)"/>
  <path fill="none" stroke="#49a068" d="m3.511 1043.88 5.508 0M3.448 1046.873l5.571 0M10 1043.862l1.012 0M9.988 1046.862l1.012 0M9.988 1049.862l1.012 0" transform="translate(0 -1036.362)"/>
  <path fill="none" stroke="#49a068" stroke-opacity=".215" d="m4.5 1040.358 0 2.504 4.518 0M4 1045.862l4.985 0M4 1048.862l4.985 0M10 1048.862l1.024 0M10 1045.862l1.024 0M10 1042.862l1.024 0" transform="translate(0 -1036.362)"/>
  <path fill="none" stroke="#49a068" d="m 3.5,1040.3774 0,9.4848 5.5000002,0" transform="translate(0 -1036.362)"/>
  <g mask="url(#g)" transform="matrix(.62584 0 0 .98853 3.117 -1027.394)">
    <path fill="#fff" stroke="#fff" stroke-linecap="round" stroke-linejoin="round" stroke-width="7.444" d="m -16.30668,1023.0143 c 0,0 0.754772,2.7548 2.663409,4.6634 1.908637,1.9086 4.663405,2.6634 4.663405,2.6634 0,0 -2.739141,0.7391 -4.663398,2.6634 -1.924257,1.9243 -2.663409,4.6634 -2.663409,4.6634 0,0 -0.676645,-2.6766 -2.66341,-4.6634 -1.986765,-1.9868 -4.663405,-2.6634 -4.663405,-2.6634 0,0 2.801649,-0.8017 4.663405,-2.6634 1.861756,-1.8618 2.663403,-4.6634 2.663403,-4.6634 z" filter="url(#h)" opacity=".85" transform="matrix(.51238 0 0 .51238 21.788 514.893)"/>
  </g>
  <path fill="url(#i)" stroke="#a27d18" stroke-width="1.032" d="M-746.433-728.673H-741.85V-724.219H-746.433z" transform="rotate(-135 -214.638 -518.181)"/>
  <path fill="url(#j)" d="m 12.012228,1037.3622 1.001133,0 0,2 1.986639,0 0,0.9593 -1.986639,0 0,2.0407 -1.001133,0 0,-2.0407 -1.98664,0 0,-0.9593 1.98664,0 z" transform="translate(0 -1036.362)"/>
</svg>
