<svg xmlns="http://www.w3.org/2000/svg" xmlns:xlink="http://www.w3.org/1999/xlink" width="16" height="16">
  <defs>
    <linearGradient id="c">
      <stop offset="0" stop-color="#17325d"/>
      <stop offset=".25" stop-color="#b4d0e2"/>
      <stop offset=".5" stop-color="#b7d2e4"/>
      <stop offset=".75" stop-color="#acc9de"/>
      <stop offset="1" stop-color="#3e72a7"/>
    </linearGradient>
    <linearGradient id="b">
      <stop offset="0" stop-color="#5aa771"/>
      <stop offset="1" stop-color="#76be7e"/>
    </linearGradient>
    <linearGradient xlink:href="#a" id="h" x1="8.014" x2="8.014" y1="1042.362" y2="1052.696" gradientTransform="translate(1.911 .97)" gradientUnits="userSpaceOnUse"/>
    <linearGradient id="a">
      <stop offset="0" stop-color="#af8931"/>
      <stop offset="1" stop-color="#7e703d"/>
    </linearGradient>
    <linearGradient xlink:href="#b" id="i" x1="15.806" x2="13.928" y1="1052.426" y2="1050.415" gradientTransform="translate(-3.017 -.074)" gradientUnits="userSpaceOnUse"/>
    <linearGradient xlink:href="#c" id="l" x1="4.778" x2="4.778" y1="1039.812" y2="1041.911" gradientTransform="translate(-20)" gradientUnits="userSpaceOnUse"/>
    <linearGradient id="d">
      <stop offset="0" stop-color="#17325d"/>
      <stop offset=".25" stop-color="#b4d0e2"/>
      <stop offset=".5" stop-color="#b7d2e4"/>
      <stop offset=".75" stop-color="#acc9de"/>
      <stop offset="1" stop-color="#3e72a7"/>
    </linearGradient>
    <linearGradient xlink:href="#d" id="m" x1="4.778" x2="4.778" y1="1039.812" y2="1041.911" gradientTransform="translate(-18)" gradientUnits="userSpaceOnUse"/>
    <linearGradient id="e">
      <stop offset="0" stop-color="#17325d"/>
      <stop offset=".25" stop-color="#b4d0e2"/>
      <stop offset=".5" stop-color="#b7d2e4"/>
      <stop offset=".75" stop-color="#acc9de"/>
      <stop offset="1" stop-color="#3e72a7"/>
    </linearGradient>
    <linearGradient xlink:href="#e" id="n" x1="4.778" x2="4.778" y1="1039.812" y2="1041.911" gradientTransform="translate(-16)" gradientUnits="userSpaceOnUse"/>
    <linearGradient id="f">
      <stop offset="0" stop-color="#17325d"/>
      <stop offset=".25" stop-color="#b4d0e2"/>
      <stop offset=".5" stop-color="#b7d2e4"/>
      <stop offset=".75" stop-color="#acc9de"/>
      <stop offset="1" stop-color="#3e72a7"/>
    </linearGradient>
    <linearGradient xlink:href="#f" id="o" x1="4.778" x2="4.778" y1="1039.812" y2="1041.911" gradientTransform="translate(-14)" gradientUnits="userSpaceOnUse"/>
    <linearGradient id="g">
      <stop offset="0" stop-color="#17325d"/>
      <stop offset=".25" stop-color="#b4d0e2"/>
      <stop offset=".5" stop-color="#b7d2e4"/>
      <stop offset=".75" stop-color="#acc9de"/>
      <stop offset="1" stop-color="#3e72a7"/>
    </linearGradient>
    <linearGradient xlink:href="#g" id="p" x1="4.778" x2="4.778" y1="1039.812" y2="1041.911" gradientTransform="translate(-12)" gradientUnits="userSpaceOnUse"/>
    <filter id="k" width="1.225" height="1.895" x="-.113" y="-.448">
      <feGaussianBlur stdDeviation=".375"/>
    </filter>
    <mask id="j" maskUnits="userSpaceOnUse"/>
  </defs>
  <path fill="#f4fcff" stroke="url(#h)" d="m 4.412058,1040.8321 9.990206,0 0,10.0018 -2.983353,3.0385 -5.966213,0 c -0.53033,-0.022 -1.04064,-0.5519 -1.04064,-1.0385 z" transform="translate(-.912 -1038.372)"/>
  <path fill="#366c9a" d="m 7.5000473,1050.9398 c -0.2124831,-0.018 -0.4620726,-0.059 -0.6624895,-0.1108 -0.311003,-0.079 -0.2800149,0.015 -0.2800149,-0.8593 0,-0.4579 0.00884,-0.7598 0.022403,-0.7646 0.01231,0 0.036401,0 0.053568,0.013 0.055658,0.037 0.3382661,0.1623 0.4318333,0.1926 0.2141379,0.069 0.5354424,0.1032 0.7617764,0.083 0.5017351,-0.047 0.8417363,-0.2945 1.0127474,-0.7389 0.1379054,-0.3583 0.1309663,-0.2194 0.145157,-2.9086 l 0.013056,-2.4738 0.9523944,0 0.9523966,0 0.0071,2.3061 c 0.0073,2.384 -6.3e-4,2.6629 -0.08922,3.0973 -0.179442,0.8809 -0.687253,1.5436 -1.4401119,1.8796 -0.5060928,0.2258 -1.2408566,0.337 -1.8805511,0.2843 z" transform="translate(-.912 -1038.372)"/>
  <path fill="url(#i)" d="m 10.890993,1050.2926 3.997407,0 -3.99982,4.0737 z" transform="translate(-.912 -1038.372)"/>
  <path fill="#317357" d="m 11.609148,1054.3699 3.274053,-3.3145 0.0052,-0.7628 -3.99982,4.0737 z" transform="translate(-.912 -1038.372)"/>
  <g mask="url(#j)" transform="matrix(.90522 0 0 1 18.963 -1038.402)">
    <g fill="none" stroke="#fff" stroke-linecap="round" stroke-width="2.102" filter="url(#k)" opacity=".75">
      <path d="m-15.584 1041.879 0-2.013M-13.584 1041.879l0-2.013M-11.584 1041.879l0-2.013M-9.584 1041.879l0-2.013M-7.584 1041.879l0-2.013"/>
    </g>
  </g>
  <g fill="none" stroke-linecap="round">
    <path stroke="url(#l)" d="m -15.584151,1041.8789 0,-2.013" transform="translate(20.093 -1038.402)"/>
    <path stroke="url(#m)" d="m -13.584151,1041.8789 0,-2.013" transform="translate(20.093 -1038.402)"/>
    <path stroke="url(#n)" d="m -11.584151,1041.8789 0,-2.013" transform="translate(20.093 -1038.402)"/>
    <path stroke="url(#o)" d="m -9.584151,1041.8789 0,-2.013" transform="translate(20.093 -1038.402)"/>
    <path stroke="url(#p)" d="m -7.584151,1041.8789 0,-2.013" transform="translate(20.093 -1038.402)"/>
  </g>
</svg>
