<svg xmlns="http://www.w3.org/2000/svg" xmlns:xlink="http://www.w3.org/1999/xlink" width="16" height="16">
  <defs>
    <linearGradient xlink:href="#a" id="m" x1="388.637" x2="388.637" y1="478.188" y2="457.955" gradientTransform="translate(-170.123 832.979) scale(.47367)" gradientUnits="userSpaceOnUse"/>
    <linearGradient id="a">
      <stop offset="0" stop-color="#4f9e55"/>
      <stop offset=".5" stop-color="#3c8d49"/>
      <stop offset="1" stop-color="#a4e173"/>
    </linearGradient>
    <linearGradient id="d">
      <stop offset="0" stop-color="#17325d"/>
      <stop offset=".25" stop-color="#b4d0e2"/>
      <stop offset=".5" stop-color="#b7d2e4"/>
      <stop offset=".75" stop-color="#acc9de"/>
      <stop offset="1" stop-color="#3e72a7"/>
    </linearGradient>
    <linearGradient id="c">
      <stop offset="0" stop-color="#5aa771"/>
      <stop offset="1" stop-color="#76be7e"/>
    </linearGradient>
    <linearGradient xlink:href="#b" id="e" x1="8.014" x2="8.014" y1="1042.362" y2="1052.696" gradientTransform="matrix(.80337 0 0 .84202 13.698 178.182)" gradientUnits="userSpaceOnUse"/>
    <linearGradient id="b">
      <stop offset="0" stop-color="#af8931"/>
      <stop offset="1" stop-color="#7e703d"/>
    </linearGradient>
    <linearGradient xlink:href="#c" id="f" x1="15.806" x2="13.928" y1="1052.426" y2="1050.415" gradientTransform="matrix(.75003 0 0 .73644 10.79 288.731)" gradientUnits="userSpaceOnUse"/>
    <linearGradient xlink:href="#d" id="i" x1="4.778" x2="4.778" y1="1039.812" y2="1041.911" gradientTransform="matrix(.80337 0 0 .84202 12.97 177.34)" gradientUnits="userSpaceOnUse"/>
    <linearGradient xlink:href="#d" id="j" x1="4.778" x2="4.778" y1="1039.812" y2="1041.911" gradientTransform="matrix(.80337 0 0 .84202 14.577 177.34)" gradientUnits="userSpaceOnUse"/>
    <linearGradient xlink:href="#d" id="k" x1="4.778" x2="4.778" y1="1039.812" y2="1041.911" gradientTransform="matrix(.80337 0 0 .84202 17.173 177.181)" gradientUnits="userSpaceOnUse"/>
    <linearGradient xlink:href="#d" id="l" x1="4.778" x2="4.778" y1="1039.812" y2="1041.911" gradientTransform="matrix(.80337 0 0 .84202 19.173 177.181)" gradientUnits="userSpaceOnUse"/>
    <filter id="h" width="1.225" height="1.895" x="-.113" y="-.448">
      <feGaussianBlur stdDeviation=".375"/>
    </filter>
    <mask id="g" maskUnits="userSpaceOnUse"/>
  </defs>
  <g transform="translate(-8.22 -1049.267)">
    <path fill="#f4fcff" stroke="url(#e)" d="m 15.707183,1053.7717 8.025867,0 -0.01293,8.7902 -2.10733,2.205 -5.069581,-0.015 c -0.426053,-0.018 -0.836022,-0.4647 -0.836022,-0.8744 z"/>
    <path fill="#366c9a" d="m 18.869905,1062.2563 c -0.146359,-0.014 -0.318276,-0.047 -0.456324,-0.087 -0.21422,-0.062 -0.192875,0.012 -0.192875,-0.6802 0,-0.3624 0.0061,-0.6014 0.01543,-0.6052 0.0085,0 0.02507,0 0.0369,0.01 0.03833,0.029 0.232998,0.1285 0.297447,0.1525 0.147498,0.054 0.368813,0.082 0.524712,0.066 0.345597,-0.038 0.57979,-0.2332 0.697583,-0.5849 0.09499,-0.2836 0.09021,-0.1737 0.09998,-2.3023 l 0.009,-1.9581 0.65601,0 0.656013,0 0.0049,1.8254 c 0.0051,1.887 -4.33e-4,2.1077 -0.06146,2.4516 -0.1236,0.6972 -0.473381,1.2218 -0.991952,1.4878 -0.348597,0.1787 -0.854704,0.2667 -1.295326,0.225 z"/>
    <path fill="url(#f)" d="m 21.221926,1062.2669 2.99819,0 -3,3 z"/>
    <path fill="#317357" d="m 21.760546,1065.2669 2.455649,-2.4387 0.0039,-0.5613 -3,2.9974 z"/>
    <g mask="url(#g)" transform="matrix(.747 0 0 .84202 28.16 177.248)">
      <g fill="none" stroke="#fff" stroke-linecap="round" stroke-width="2.522" filter="url(#h)" opacity=".75">
        <path d="m-15.584 1041.879 0-2.013M-13.584 1041.879l0-2.013M-11.584 1041.879l0-2.013M-9.584 1041.879l0-2.013M-7.584 1041.879l0-2.013"/>
      </g>
    </g>
    <path fill="none" stroke="url(#i)" stroke-linecap="round" d="m 16.517704,1054.6279 0,-1.695"/>
    <path fill="none" stroke="url(#j)" stroke-linecap="round" d="m 18.124451,1054.6279 0,-1.695"/>
    <path fill="none" stroke="url(#k)" stroke-linecap="round" d="m 20.720166,1054.469 0,-1.695"/>
    <path fill="none" stroke="url(#l)" stroke-linecap="round" d="m 22.720166,1054.469 0,-1.695"/>
    <circle cx="13.72" cy="1054.767" r="5.033" fill="url(#m)" stroke="#14733c" stroke-linecap="round" stroke-linejoin="round" stroke-width=".935"/>
    <path fill="#fff" d="m 12.220116,1051.2669 4,3.5427 -3.958763,3.4573 z"/>
  </g>
</svg>
