<svg xmlns="http://www.w3.org/2000/svg" xmlns:xlink="http://www.w3.org/1999/xlink" width="16" height="16">
  <defs>
    <linearGradient id="c">
      <stop offset="0" stop-color="#afb8cd"/>
      <stop offset="1" stop-color="#8192b5"/>
    </linearGradient>
    <linearGradient id="d">
      <stop offset="0" stop-color="#acbfd5"/>
      <stop offset="1" stop-color="#627297"/>
    </linearGradient>
    <linearGradient id="b">
      <stop offset="0" stop-color="#b68e69"/>
      <stop offset=".942" stop-color="#d5ae7d"/>
      <stop offset="1" stop-color="#c69863"/>
    </linearGradient>
    <linearGradient id="a">
      <stop offset="0" stop-color="#f1c373"/>
      <stop offset="1" stop-color="#f6e3c9"/>
    </linearGradient>
    <linearGradient id="j">
      <stop offset="0" stop-color="#91a5c7"/>
      <stop offset="1" stop-color="#637aa7"/>
    </linearGradient>
    <linearGradient id="i">
      <stop offset="0" stop-color="#91a5c7"/>
      <stop offset="1" stop-color="#5e76a3"/>
    </linearGradient>
    <linearGradient id="f">
      <stop offset="0" stop-color="#c7b571"/>
      <stop offset="1" stop-color="#9a9a8f"/>
    </linearGradient>
    <linearGradient id="e">
      <stop offset="0" stop-color="#f9fafc"/>
      <stop offset="1" stop-color="#dce7f7"/>
    </linearGradient>
    <linearGradient id="k">
      <stop offset="0" stop-color="#91a5c7"/>
      <stop offset="1" stop-color="#637aa7"/>
    </linearGradient>
    <linearGradient xlink:href="#a" id="l" x1="-12" x2="-12" y1="1050.995" y2="1038.866" gradientTransform="translate(21.969)" gradientUnits="userSpaceOnUse"/>
    <linearGradient xlink:href="#b" id="m" x1="-17.313" x2="-17.344" y1="1050.945" y2="1039.084" gradientTransform="translate(21.969)" gradientUnits="userSpaceOnUse"/>
    <linearGradient xlink:href="#c" id="n" x1="-12.922" x2="-12.922" y1="1037.323" y2="1040.391" gradientTransform="translate(21.969)" gradientUnits="userSpaceOnUse"/>
    <linearGradient xlink:href="#d" id="o" x1="-11.376" x2="-11.376" y1="1036.296" y2="1040.278" gradientTransform="translate(21.969)" gradientUnits="userSpaceOnUse"/>
    <linearGradient xlink:href="#e" id="p" x1="9.895" x2="9.895" y1="1039.153" y2="1051.838" gradientTransform="translate(-4 -2)" gradientUnits="userSpaceOnUse"/>
    <linearGradient xlink:href="#f" id="q" x1="10.545" x2="10.545" y1="1038.578" y2="1052.323" gradientTransform="translate(-4 -2)" gradientUnits="userSpaceOnUse"/>
    <linearGradient id="g">
      <stop offset="0" stop-color="#e0c576"/>
      <stop offset="1" stop-color="#9e7916"/>
    </linearGradient>
    <linearGradient xlink:href="#h" id="v" x1=".938" x2=".938" y1="4.844" y2="7.549" gradientTransform="matrix(2.31999 0 0 2.31999 10.2 1043.185)" gradientUnits="userSpaceOnUse"/>
    <linearGradient id="h">
      <stop offset="0" stop-color="#f7f9fb"/>
      <stop offset="1" stop-color="#ffd680"/>
    </linearGradient>
    <linearGradient xlink:href="#i" id="r" x1="7.007" x2="11" y1="1043.857" y2="1043.857" gradientTransform="matrix(.82572 0 0 1 -14.692 -4.156)" gradientUnits="userSpaceOnUse"/>
    <linearGradient xlink:href="#j" id="s" x1="7.007" x2="14" y1="1045.857" y2="1045.857" gradientTransform="matrix(.57547 0 0 1 -12.939 -4.156)" gradientUnits="userSpaceOnUse"/>
    <linearGradient xlink:href="#k" id="t" x1="7.007" x2="14" y1="1047.857" y2="1047.857" gradientTransform="matrix(.72294 0 0 1 -13.972 -4.156)" gradientUnits="userSpaceOnUse"/>
    <radialGradient xlink:href="#g" id="u" cx="-757.205" cy="-738.838" r="3.48" fx="-757.205" fy="-738.838" gradientTransform="matrix(1.85082 0 0 1.77506 644.25 572.636)" gradientUnits="userSpaceOnUse"/>
  </defs>
  <g transform="matrix(.51238 0 0 .51238 14.396 -520.047)">
    <rect width="11.054" height="11.993" x="3.446" y="1038.869" fill="url(#l)" stroke="url(#m)" rx="1.219" ry="1.219" transform="matrix(1.95168 0 0 1.95168 -26.127 -1007.681)"/>
    <path fill="url(#n)" d="m4.984 1040.347 1.532-1.368.937-2.117h3l.953 2.117 1.547 1.368" transform="matrix(1.95168 0 0 1.95168 -26.127 -1007.681)"/>
    <path fill="url(#o)" d="M7.313 1036.375a.508.508 0 0 0-.313.281l-.875 2-.966.864c-.22.219-.162.325-.191.838h.747l1.129-1.014a.507.507 0 0 0 .125-.156l.812-1.813h2.344l.813 1.813a.5.5 0 0 0 .124.156l1.174 1.032c.113 0 .472-.02.716-.03 0-.214.082-.576-.124-.782l-1.015-.908-.907-2a.51.51 0 0 0-.437-.281h-3a.41.41 0 0 0-.156 0z" color="#000" font-family="Sans" font-weight="400" overflow="visible" style="text-indent:0;text-align:start;line-height:normal;text-transform:none;block-progression:tb;marker:none;-inkscape-font-specification:Sans" transform="matrix(1.95168 0 0 1.95168 -26.127 -1007.681)"/>
    <path fill="url(#p)" d="M1.497 1036.904h8.157l.759 3.006v6.267H1.497z" transform="matrix(1.95168 0 0 1.95168 -19.962 -999.547)"/>
    <path fill="none" stroke="url(#q)" d="M1.32 1036.904h8.668l.04 3.006v5.767H1.322z" transform="matrix(1.95168 0 0 1.95168 -19.962 -999.547)"/>
    <path fill="url(#r)" d="M-8.906 1039.196h4.047v1.01h-4.047z" transform="matrix(-1.93961 0 0 1.95168 -19.915 -999.547)"/>
    <path fill="url(#s)" d="M-8.906 1041.196h4.024v1.01h-4.024z" transform="matrix(-1.93961 0 0 1.95168 -19.915 -999.547)"/>
    <path fill="url(#t)" d="M-8.906 1043.196h5.055v1.01h-5.055z" transform="matrix(-1.93961 0 0 1.95168 -19.915 -999.547)"/>
  </g>
  <path fill="url(#u)" stroke="#a27d18" stroke-width="1.032" d="M-760.169-741.719h5.928v5.762h-5.928z" transform="rotate(-135 -221.56 -522.902)"/>
  <path fill="url(#v)" d="M12.471 1054.309h1.001v3.009h3.05v1.016h-3.05v2.98h-1v-2.98H9.484v-1.017h2.986z" transform="translate(-8.48 -1049.316)"/>
</svg>
