<svg xmlns="http://www.w3.org/2000/svg" xmlns:xlink="http://www.w3.org/1999/xlink" width="16" height="16">
  <defs>
    <linearGradient id="f">
      <stop offset="0" stop-color="#717188"/>
      <stop offset="1" stop-color="#6b6b6b"/>
    </linearGradient>
    <linearGradient id="b">
      <stop offset="0" stop-color="#424242"/>
      <stop offset="1" stop-color="#6b6b6b"/>
    </linearGradient>
    <linearGradient id="e">
      <stop offset="0" stop-color="#fff"/>
      <stop offset=".666" stop-color="#ddd"/>
      <stop offset="1" stop-color="#464646"/>
    </linearGradient>
    <linearGradient id="a">
      <stop offset="0" stop-color="#fff"/>
      <stop offset=".612" stop-color="#ddd"/>
      <stop offset="1" stop-color="#464646"/>
    </linearGradient>
    <linearGradient id="c">
      <stop offset="0" stop-color="#fff"/>
      <stop offset=".5" stop-color="#ddd"/>
      <stop offset="1" stop-color="#464646"/>
    </linearGradient>
    <linearGradient xlink:href="#b" id="h" x1="7.83" x2="7.802" y1="5.575" y2="1.931" gradientUnits="userSpaceOnUse"/>
    <linearGradient id="d">
      <stop offset="0" stop-color="#4c4c4c"/>
      <stop offset="1" stop-color="#6b6b6b"/>
    </linearGradient>
    <linearGradient xlink:href="#d" id="j" x1="7.83" x2="7.889" y1="5.968" y2="3.584" gradientUnits="userSpaceOnUse"/>
    <linearGradient xlink:href="#f" id="l" x1="7.845" x2="7.845" y1="5.653" y2="1.018" gradientUnits="userSpaceOnUse"/>
    <radialGradient xlink:href="#a" id="g" cx="7.738" cy="2.433" r="2.35" fx="7.738" fy="2.433" gradientTransform="matrix(.30891 .02433 -.02707 .33137 5.463 1.717)" gradientUnits="userSpaceOnUse"/>
    <radialGradient xlink:href="#c" id="i" cx="7.938" cy="3.452" r="2.35" fx="7.938" fy="3.452" gradientTransform="matrix(.37553 0 0 .40298 4.908 2.193)" gradientUnits="userSpaceOnUse"/>
    <radialGradient xlink:href="#e" id="k" cx="7.93" cy="1.786" r="2.35" fx="7.93" fy="1.786" gradientTransform="matrix(.35883 -.01459 .01251 .40537 4.984 2.107)" gradientUnits="userSpaceOnUse"/>
  </defs>
  <path fill="#424242" d="M3.94 3.995h1.101s-.016.97 0 1.312c.032.68 1.129.911 2.213.988l-.382 1.092c-.27-.033-1.353-.191-2.033-.551-.71-.376-.898-.808-.898-1.226V3.995zM2.98 7.989h3.729v1.004h-3.73z"/>
  <path fill="none" stroke="#424242" stroke-linejoin="round" stroke-width=".982" d="M21.758 1046.93s2.444 1.434 2.444 1.875c0 .441.03 1.844.03 1.844" transform="matrix(1.03603 0 0 1 -12.636 -1036.68)"/>
  <path fill="#424242" d="M10.366 7.989h3.71v1.004h-3.71zM13.043 3.963h-1.101s.016.971 0 1.313c-.032.68-1.191.91-2.275.988l.382 1.091c.269-.033 1.415-.19 2.095-.55.71-.376.899-.808.899-1.227V3.963z"/>
  <path fill="none" stroke="#424242" stroke-linejoin="round" stroke-width=".982" d="M19.028 1046.93s-2.444 1.434-2.444 1.875c0 .441-.03 1.844-.03 1.844" transform="matrix(1.03603 0 0 1 -12.636 -1036.68)"/>
  <path fill="#717188" d="M7.063 5.031h2.875v1.5H7.063z"/>
  <path fill="url(#g)" stroke="url(#h)" stroke-width=".735" d="M9.723 3.758c0 1.196-.851 2.166-1.9 2.166-1.05 0-1.901-.97-1.901-2.166s.85-2.165 1.9-2.165c1.05 0 1.9.97 1.9 2.165z" transform="matrix(1.11103 0 0 .95795 -.16 -.066)"/>
  <path fill="url(#i)" stroke="url(#j)" stroke-width=".749" d="M9.723 3.758c0 1.196-.851 2.166-1.9 2.166-1.05 0-1.901-.97-1.901-2.166s.85-2.165 1.9-2.165c1.05 0 1.9.97 1.9 2.165z" transform="matrix(1.06584 0 0 .96223 .098 7.95)"/>
  <path fill="none" stroke="#b9b9bc" stroke-width=".749" d="M6.496 5.309c-.672-.746-.765-1.939-.22-2.808" transform="matrix(-1.06584 0 0 .96223 16.766 7.95)"/>
  <path fill="none" stroke="#b9b9bc" stroke-width=".735" d="M6.884 5.642c-.912-.59-1.232-1.912-.714-2.953.081-.163.18-.314.296-.448M8.989 2.049c.828.734.978 2.094.334 3.038-.05.074-.104.143-.162.209" transform="matrix(1.11103 0 0 .95795 -.16 -.066)"/>
  <path fill="#717188" stroke="#717188" stroke-width=".735" d="M9.208 5.24c-.676.82-1.79.915-2.564.217" transform="matrix(1.11103 0 0 .95795 -.16 -.066)"/>
  <path fill="none" stroke="#717188" stroke-width=".735" d="M7.46 1.632a1.729 1.729 0 0 1 1.536.423" transform="matrix(1.11103 0 0 .95795 -.16 -.066)"/>
  <path fill="none" stroke="#b9b9bc" stroke-width=".749" d="M6.542 5.358c-.776-.806-.83-2.176-.124-3.06a2.08 2.08 0 0 1 .041-.049" transform="matrix(1.06584 0 0 .96223 .098 7.95)"/>
  <path fill="none" stroke="#717188" stroke-width=".749" d="M9.222 5.223c-.71.88-1.911.94-2.685.13-.051-.053-.1-.11-.146-.17" transform="matrix(1.06584 0 0 .96223 .098 7.95)"/>
  <g stroke-width=".768">
    <path fill="url(#k)" stroke="url(#l)" d="M9.723 3.758c0 1.196-.851 2.166-1.9 2.166-1.05 0-1.901-.97-1.901-2.166s.85-2.165 1.9-2.165c1.05 0 1.9.97 1.9 2.165z" transform="matrix(1.05501 0 0 .99611 .262 4.785)"/>
    <path fill="none" stroke="#717188" d="M6.173 2.683c.521-1.038 1.682-1.398 2.593-.804.25.162.462.386.624.656" transform="matrix(1.05501 0 0 .99611 .262 4.785)"/>
    <path fill="none" stroke="#b8b8b8" d="M6.276 5.017c-.522-.833-.461-1.968.146-2.723" transform="matrix(1.05501 0 0 .99611 .262 4.785)"/>
    <path fill="none" stroke="#b8b8b8" d="M6.17 4.828c-.433-.868-.289-1.962.35-2.647" transform="matrix(-1.05501 0 0 .99611 16.752 4.785)"/>
    <path fill="none" stroke="#888" d="M8.017 5.912c-.733.086-1.443-.318-1.823-1.037" transform="matrix(1.05501 0 0 .99611 .262 4.785)"/>
  </g>
</svg>
