<svg xmlns="http://www.w3.org/2000/svg" width="312" height="312" viewBox="0 0 82.55 82.55">
  <g transform="translate(0 -214.45)">
    <rect width="78.846" height="79.375" x=".265" y="214.715" fill="#e6e6e6" stroke="#919191" stroke-linejoin="round" stroke-width=".529" rx="3" ry="3"/>
    <text xml:space="preserve" x="2.301" y="220.322" stroke-width=".265" font-family="sans-serif" font-size="10.583" font-weight="400" letter-spacing="0" style="line-height:1.25" word-spacing="0"><tspan x="2.301" y="220.322" font-size="3.528">Eclipse Platform</tspan></text>
    <rect width="15.346" height="23.283" x="58.473" y="223.181" fill="#e6e6e6" stroke="#919191" stroke-linejoin="round" stroke-width=".529" rx="3" ry="3"/>
    <rect width="15.346" height="23.283" x="58.473" y="254.931" fill="#e6e6e6" stroke="#919191" stroke-linejoin="round" stroke-width=".529" rx="3" ry="3"/>
    <rect width="47.096" height="15.346" x="5.556" y="262.869" fill="#e6e6e6" stroke="#919191" stroke-linejoin="round" stroke-width=".529" rx="3" ry="3"/>
    <rect width="47.096" height="31.221" x="5.556" y="223.181" fill="#e6e6e6" stroke="#919191" stroke-linejoin="round" stroke-width=".529" rx="3" ry="3"/>
    <rect width="32.544" height="21.96" x="20.108" y="232.442" fill="#e6e6e6" stroke="#919191" stroke-linejoin="round" stroke-width=".529" rx="3" ry="3"/>
    <rect width="78.846" height="7.408" x=".265" y="286.681" fill="#b9b9b9" stroke="#919191" stroke-linejoin="round" stroke-width=".529" opacity=".746" rx="3" ry="3"/>
    <text xml:space="preserve" x="2.257" y="297.393" stroke-width=".265" font-family="sans-serif" font-size="10.379" font-weight="400" letter-spacing="0" style="line-height:1.25" transform="scale(1.01967 .98071)" word-spacing="0"><tspan x="2.257" y="297.393" font-size="3.46">Platform Runtime</tspan></text>
    <text xml:space="preserve" x="7.629" y="273.095" stroke-width=".265" font-family="sans-serif" font-size="10.379" font-weight="400" letter-spacing="0" style="line-height:1.25" transform="scale(1.01967 .98071)" word-spacing="0"><tspan x="7.629" y="273.095" font-size="3.46">Workspace</tspan></text>
    <rect width="39.158" height="12.7" x="5.556" y="241.702" fill="#e6e6e6" stroke="#919191" stroke-linejoin="round" stroke-width=".529" rx="3" ry="3"/>
    <text xml:space="preserve" x="7.558" y="251.444" stroke-width=".265" font-family="sans-serif" font-size="10.379" font-weight="400" letter-spacing="0" style="line-height:1.25" transform="scale(1.01967 .98071)" word-spacing="0"><tspan x="7.558" y="251.444" font-size="3.46">SWT</tspan></text>
    <text xml:space="preserve" x="21.982" y="241.956" stroke-width=".265" font-family="sans-serif" font-size="10.379" font-weight="400" letter-spacing="0" style="line-height:1.25" transform="scale(1.01967 .98071)" word-spacing="0"><tspan x="21.982" y="241.956" font-size="3.46">JFace</tspan></text>
    <text xml:space="preserve" x="7.629" y="232.627" stroke-width=".265" font-family="sans-serif" font-size="10.379" font-weight="400" letter-spacing="0" style="line-height:1.25" transform="scale(1.01967 .98071)" word-spacing="0"><tspan x="7.629" y="232.627" font-size="3.46">Workbench</tspan></text>
    <text xml:space="preserve" x="59.343" y="232.627" stroke-width=".265" font-family="sans-serif" font-size="10.379" font-weight="400" letter-spacing="0" style="line-height:1.25" transform="scale(1.01967 .98071)" word-spacing="0"><tspan x="59.343" y="232.627" font-size="3.46">Help</tspan></text>
    <text xml:space="preserve" x="61.174" y="258.547" stroke-width=".265" font-family="sans-serif" font-size="10.639" font-weight="400" letter-spacing="0" style="line-height:1.25" transform="scale(.99478 1.00525)" word-spacing="0"><tspan x="61.174" y="258.547" font-size="3.546">Team</tspan></text>
  </g>
</svg>
