<?xml version="1.0" encoding="UTF-8" standalone="no"?>
<svg
   width="16"
   height="16"
   version="1.1"
   id="svg18"
   xmlns:xlink="http://www.w3.org/1999/xlink"
   xmlns="http://www.w3.org/2000/svg"
   xmlns:svg="http://www.w3.org/2000/svg">
  <defs
     id="defs8">
    <linearGradient
       id="d">
      <stop
         offset="0"
         stop-color="#677da9"
         id="stop1" />
      <stop
         offset="1"
         stop-color="#fff"
         id="stop2" />
    </linearGradient>
    <linearGradient
       id="a">
      <stop
         offset="0"
         stop-color="#f9fafc"
         id="stop3" />
      <stop
         offset="1"
         stop-color="#dce7f7"
         id="stop4" />
    </linearGradient>
    <linearGradient
       id="b">
      <stop
         offset="0"
         stop-color="#e0c88f"
         id="stop5" />
      <stop
         offset="1"
         stop-color="#d5b269"
         id="stop6" />
    </linearGradient>
    <linearGradient
       id="c">
      <stop
         offset="0"
         stop-color="#b28a30"
         id="stop7" />
      <stop
         offset="1"
         stop-color="#7f703d"
         id="stop8" />
    </linearGradient>
    <linearGradient
       xlink:href="#a"
       id="e"
       x1="9.895"
       x2="9.895"
       y1="1039.153"
       y2="1051.838"
       gradientTransform="translate(-2.01 -1.03)"
       gradientUnits="userSpaceOnUse" />
    <linearGradient
       xlink:href="#b"
       id="f"
       x1="7.999"
       x2="9.987"
       y1="1042.231"
       y2="1040.33"
       gradientTransform="translate(3.018 -1.03)"
       gradientUnits="userSpaceOnUse" />
    <linearGradient
       xlink:href="#c"
       id="g"
       x1="10.545"
       x2="10.545"
       y1="1038.578"
       y2="1052.323"
       gradientTransform="translate(-2.01 -1.03)"
       gradientUnits="userSpaceOnUse" />
    <linearGradient
       xlink:href="#d"
       id="j"
       x1="8.718"
       x2="1.657"
       y1="3.522"
       y2="3.522"
       gradientTransform="translate(0 1037.344)"
       gradientUnits="userSpaceOnUse" />
    <linearGradient
       xlink:href="#d"
       id="k"
       x1="12.02"
       x2="-.734"
       y1="1041.871"
       y2="1041.871"
       gradientTransform="translate(0 .982)"
       gradientUnits="userSpaceOnUse" />
    <filter
       id="i"
       width="1.4981031"
       height="2.1886752"
       x="-0.24905157"
       y="-0.6359356">
      <feGaussianBlur
         stdDeviation=".672"
         id="feGaussianBlur8" />
    </filter>
    <mask
       id="h"
       maskUnits="userSpaceOnUse">
      <g
         fill="#fff"
         stroke="#fff"
         id="g8" />
    </mask>
  </defs>
  <path
     fill="url(#e)"
     d="M3.488 1037.873h7.01l3.946 3.006v10.65H3.488z"
     transform="translate(-1.027 -1036.36)"
     id="path8" />
  <path
     fill="url(#f)"
     d="M10.994 1037.41v3.911h3.978z"
     transform="translate(-1.027 -1036.36)"
     id="path9" />
  <path
     fill="none"
     stroke="url(#g)"
     d="M3.488 1037.873h8.019l3.062 3.006v10.942H3.489z"
     transform="translate(-1.027 -1036.36)"
     id="path10" />
  <g
     mask="url(#h)"
     opacity=".75"
     transform="translate(-1.027 -1037.389)"
     id="g13">
    <g
       stroke="#fff"
       stroke-width="2"
       filter="url(#i)"
       opacity=".75"
       id="g12">
      <g
         fill="#fff"
         font-family="Gautami"
         font-size="10"
         font-weight="400"
         letter-spacing="0"
         word-spacing="0"
         id="g11">
        <path
           d="M7.81 1047.877c0 .638-.095 1.161-.286 1.569-.22.473-.539.71-.956.71-.418 0-.737-.237-.959-.71-.193-.408-.289-.931-.289-1.569 0-.638.096-1.16.29-1.568.22-.473.54-.71.958-.71.417 0 .736.237.956.71.191.407.287.93.287 1.568zm-.403 0c0-.46-.07-.854-.209-1.181-.157-.369-.367-.553-.63-.553-.265 0-.476.184-.633.553-.14.327-.211.721-.211 1.181 0 .46.07.854.21 1.181.158.37.37.554.634.554.263 0 .473-.185.63-.554.14-.327.21-.72.21-1.18zM10.907 1045.478v4.727h-.697v-3.857l-.448.408-.41-.408.947-.87zM15.81 1047.877c0 .638-.095 1.161-.286 1.569-.22.473-.539.71-.956.71-.418 0-.737-.237-.959-.71-.193-.408-.289-.931-.289-1.569 0-.638.096-1.16.29-1.568.22-.473.54-.71.958-.71.417 0 .736.237.956.71.191.407.287.93.287 1.568zm-.403 0c0-.46-.07-.854-.209-1.181-.157-.369-.367-.553-.63-.553-.265 0-.476.184-.633.553-.14.327-.211.721-.211 1.181 0 .46.07.854.21 1.181.158.37.37.554.634.554.263 0 .473-.185.63-.554.14-.327.21-.72.21-1.18z"
           style="text-align:start;line-height:125%;-inkscape-font-specification:Gautami"
           id="path11" />
      </g>
    </g>
  </g>
  <path
     fill="#17325d"
     stroke="#17325d"
     stroke-width=".48"
     d="M7.81 1047.877c0 .638-.095 1.161-.286 1.569-.22.473-.539.71-.956.71-.418 0-.737-.237-.959-.71-.193-.408-.289-.931-.289-1.569 0-.638.096-1.16.29-1.568.22-.473.54-.71.958-.71.417 0 .736.237.956.71.191.407.287.93.287 1.568zm-.403 0c0-.46-.07-.854-.209-1.181-.157-.369-.367-.553-.63-.553-.265 0-.476.184-.633.553-.14.327-.211.721-.211 1.181 0 .46.07.854.21 1.181.158.37.37.554.634.554.263 0 .473-.185.63-.554.14-.327.21-.72.21-1.18z"
     font-family="Gautami"
     font-size="10"
     font-weight="400"
     letter-spacing="0"
     style="text-align:start;line-height:125%;-inkscape-font-specification:Gautami"
     transform="translate(-1.027 -1036.273)"
     word-spacing="0"
     id="path13" />
  <path
     fill="#17325d"
     stroke="#17325d"
     stroke-width=".297"
     d="M10.907 1045.478v4.727h-.697v-3.857l-.448.408-.41-.408.947-.87z"
     font-family="Gautami"
     font-size="10"
     font-weight="400"
     letter-spacing="0"
     style="text-align:start;line-height:125%;-inkscape-font-specification:Gautami"
     transform="translate(-1.027 -1036.273)"
     word-spacing="0"
     id="path14" />
  <path
     fill="#fff"
     d="M13.75 9.795s-.536-.134-.714.223c-.179.357-.402 1.384-.402 1.384s0 1.16.134 1.384c.134.223.625.848.803.848.179 0 .938-.402.938-.714 0-.313.134-.893.134-1.206 0-.312-.179-.893-.313-1.116-.134-.223-.58-.803-.58-.803z"
     id="path15" />
  <path
     fill="#17325d"
     stroke="#17325d"
     stroke-width=".48"
     d="M15.81 1047.877c0 .638-.095 1.161-.286 1.569-.22.473-.539.71-.956.71-.418 0-.737-.237-.959-.71-.193-.408-.289-.931-.289-1.569 0-.638.096-1.16.29-1.568.22-.473.54-.71.958-.71.417 0 .736.237.956.71.191.407.287.93.287 1.568zm-.403 0c0-.46-.07-.854-.209-1.181-.157-.369-.367-.553-.63-.553-.265 0-.476.184-.633.553-.14.327-.211.721-.211 1.181 0 .46.07.854.21 1.181.158.37.37.554.634.554.263 0 .473-.185.63-.554.14-.327.21-.72.21-1.18z"
     font-family="Gautami"
     font-size="10"
     font-weight="400"
     letter-spacing="0"
     style="text-align:start;line-height:125%;-inkscape-font-specification:Gautami"
     transform="translate(-1.027 -1036.273)"
     word-spacing="0"
     id="path16" />
  <path
     fill="url(#j)"
     d="M3.984 1040.342h4.955v1.049H3.984z"
     transform="translate(0 -1036.362)"
     id="path17" />
  <path
     fill="url(#k)"
     d="M3.984 1042.329h8.008v1.049H3.984z"
     transform="translate(0 -1036.362)"
     id="path18" />
</svg>
