<svg xmlns="http://www.w3.org/2000/svg" xmlns:xlink="http://www.w3.org/1999/xlink" width="16" height="16">
  <defs>
    <linearGradient id="c">
      <stop offset="0" stop-color="#daedef"/>
      <stop offset="1" stop-color="#fff"/>
    </linearGradient>
    <linearGradient id="d">
      <stop offset="0" stop-color="#c89840"/>
      <stop offset="1" stop-color="#798da2"/>
    </linearGradient>
    <linearGradient id="a">
      <stop offset="0" stop-color="#daedef"/>
      <stop offset="1" stop-color="#fff"/>
    </linearGradient>
    <linearGradient id="b">
      <stop offset="0" stop-color="#c89840"/>
      <stop offset="1" stop-color="#798da2"/>
    </linearGradient>
    <linearGradient xlink:href="#a" id="e" x1="5.115" x2="12.52" y1="1044.737" y2="1044.737" gradientTransform="matrix(1.70894 0 0 1.66302 -8.02 -693.272)" gradientUnits="userSpaceOnUse"/>
    <linearGradient xlink:href="#b" id="f" x1="11.978" x2="5.926" y1="1042.128" y2="1051.254" gradientTransform="matrix(1.70894 0 0 1.66302 -8.02 -698.417)" gradientUnits="userSpaceOnUse"/>
    <linearGradient xlink:href="#c" id="g" x1="5.115" x2="12.52" y1="1044.737" y2="1044.737" gradientTransform="matrix(1.69608 0 0 1.70096 -4.921 -731.735)" gradientUnits="userSpaceOnUse"/>
    <linearGradient xlink:href="#d" id="h" x1="11.978" x2="5.926" y1="1042.128" y2="1051.254" gradientTransform="matrix(1.69608 0 0 1.70096 -4.921 -736.997)" gradientUnits="userSpaceOnUse"/>
  </defs>
  <path fill="url(#e)" stroke="url(#f)" d="M1.496 1037.855v12.013h8.94v-8.593l-1.887-.031c-.045 0-.031-3.388-.031-3.388z" color="#000" overflow="visible" style="marker:none" transform="translate(0 -1036.362)"/>
  <path fill="#7795b6" d="M2.999 1049.383h5.99v-1.015H3zm0-1.999h5.99v-1.015H3zm0-1.997h5.99v-1.015H3zm0-1.999h5.99v-1.015H3zm0-2.005h3.648v-1.016H2.999z" color="#000" overflow="visible" style="marker:none" transform="translate(0 -1036.362)"/>
  <path fill="url(#g)" stroke="url(#h)" d="M4.524 1038.842v13.014h9.956l.015-9.973-2.95-.023.024-3.018z" color="#000" overflow="visible" style="marker:none" transform="translate(0 -1036.362)"/>
  <path fill="#7795b6" d="M6.007 1050.376h5.99v-1.016h-5.99zm0-2h5.99v-1.015h-5.99zm0-1.996h5.99v-1.016h-5.99zm0-2h5.99v-1.015h-5.99zm0-2.005h3.648v-1.016H6.007z" color="#000" overflow="visible" style="marker:none" transform="translate(0 -1036.362)"/>
  <path fill="#d8bc68" d="m12.033 2.026 2.942 3.004h-2.966z"/>
</svg>
