<svg xmlns="http://www.w3.org/2000/svg" xmlns:xlink="http://www.w3.org/1999/xlink" width="16" height="16">
  <defs>
    <linearGradient id="e">
      <stop offset="0" stop-color="#a3c060"/>
      <stop offset=".509" stop-color="#93aa3c"/>
      <stop offset="1" stop-color="#a3c060"/>
    </linearGradient>
    <linearGradient id="d">
      <stop offset="0" stop-color="#f9fafc"/>
      <stop offset="1" stop-color="#e0eaf7"/>
    </linearGradient>
    <linearGradient id="c">
      <stop offset="0" stop-color="#8a97ac"/>
      <stop offset="1" stop-color="#bfb688"/>
    </linearGradient>
    <linearGradient id="b">
      <stop offset="0" stop-color="#fbdd83"/>
      <stop offset="1" stop-color="#fefdef"/>
    </linearGradient>
    <linearGradient id="a">
      <stop offset="0" stop-color="#a66b10"/>
      <stop offset="1" stop-color="#bd8416"/>
    </linearGradient>
    <linearGradient xlink:href="#a" id="i" x1="1.063" x2="15.566" y1="1050.081" y2="1050.081" gradientTransform="matrix(.74074 0 0 .72727 4.382 285.362)" gradientUnits="userSpaceOnUse"/>
    <linearGradient xlink:href="#b" id="h" x1="1.686" x2="14.375" y1="1040.74" y2="1040.74" gradientTransform="matrix(.74074 0 0 .72727 4.382 285.362)" gradientUnits="userSpaceOnUse"/>
    <linearGradient xlink:href="#c" id="g" x1="2" x2="2" y1="1052.362" y2="1037.362" gradientTransform="matrix(.46667 0 0 1 1.267 0)" gradientUnits="userSpaceOnUse"/>
    <linearGradient xlink:href="#d" id="f" x1="15.143" x2="15" y1="1038.362" y2="1051.362" gradientTransform="matrix(1.4 0 0 1 -13.2 0)" gradientUnits="userSpaceOnUse"/>
    <linearGradient xlink:href="#e" id="j" x1="11" x2="11" y1="1043.362" y2="1046.362" gradientTransform="matrix(.75 0 0 1 -4.5 0)" gradientUnits="userSpaceOnUse"/>
  </defs>
  <path fill="url(#f)" stroke="url(#g)" d="M1.5 1037.862h7v14h-7z" transform="translate(0 -1036.362)"/>
  <path fill="none" stroke="#c1c6d9" d="M3 3.5h4"/>
  <path fill="none" stroke="#bcc2d7" d="M3 5.5h4"/>
  <path fill="none" stroke="#a1b0cc" d="M3 13.5h4"/>
  <path fill="none" stroke="#a7b3ce" d="M3 11.5h4"/>
  <path fill="url(#h)" stroke="url(#i)" stroke-linecap="square" stroke-linejoin="round" d="M5.993 1046.88h4.489v2.018h.937l4.074-4-4.074-4h-.937v1.986H5.993" transform="translate(0 -1036.362)"/>
  <path fill="none" stroke="#f7f3d4" d="M3 6.5h3"/>
  <path fill="none" stroke="#f3f1d3" d="M3 10.5h3"/>
  <path fill="none" stroke="url(#j)" stroke-width="3" d="M3 1044.862h3" transform="translate(0 -1036.362)"/>
</svg>
