<?xml version="1.0" encoding="UTF-8" standalone="no"?>
<svg
   width="16"
   height="16"
   version="1.1"
   id="svg10"
   xmlns:xlink="http://www.w3.org/1999/xlink"
   xmlns="http://www.w3.org/2000/svg"
   xmlns:svg="http://www.w3.org/2000/svg">
  <defs
     id="defs8">
    <linearGradient
       id="d">
      <stop
         offset="0"
         stop-color="#c6e26e"
         id="stop1" />
      <stop
         offset="1"
         stop-color="#f8fbf0"
         id="stop2" />
    </linearGradient>
    <linearGradient
       id="c">
      <stop
         offset="0"
         stop-color="#8a97ac"
         id="stop3" />
      <stop
         offset="1"
         stop-color="#bfb688"
         id="stop4" />
    </linearGradient>
    <linearGradient
       id="b">
      <stop
         offset="0"
         stop-color="#fbdd83"
         id="stop5" />
      <stop
         offset="1"
         stop-color="#fefdef"
         id="stop6" />
    </linearGradient>
    <linearGradient
       id="a">
      <stop
         offset="0"
         stop-color="#a66b10"
         id="stop7" />
      <stop
         offset="1"
         stop-color="#bd8416"
         id="stop8" />
    </linearGradient>
    <linearGradient
       xlink:href="#a"
       id="i"
       x1="1.063"
       x2="15.566"
       y1="1050.081"
       y2="1050.081"
       gradientTransform="matrix(.74074 0 0 -.72727 2.389 1804.399)"
       gradientUnits="userSpaceOnUse" />
    <linearGradient
       xlink:href="#b"
       id="h"
       x1="1.686"
       x2="14.375"
       y1="1040.74"
       y2="1040.74"
       gradientTransform="matrix(.74074 0 0 -.72727 2.389 1804.399)"
       gradientUnits="userSpaceOnUse" />
    <linearGradient
       xlink:href="#c"
       id="e"
       x1="2"
       x2="2"
       y1="1052.362"
       y2="1037.362"
       gradientUnits="userSpaceOnUse" />
    <linearGradient
       xlink:href="#c"
       id="g"
       x1="2"
       x2="2"
       y1="1052.362"
       y2="1037.362"
       gradientTransform="matrix(.33333 0 0 1 10.333 0)"
       gradientUnits="userSpaceOnUse" />
    <linearGradient
       xlink:href="#d"
       id="f"
       x1="11"
       x2="15"
       y1="1038.362"
       y2="1051.362"
       gradientUnits="userSpaceOnUse" />
  </defs>
  <path
     fill="#d5f3ff"
     stroke="url(#e)"
     d="M.5 1037.862h15v14H.5z"
     transform="matrix(-1 0 0 1 16 -1036.362)"
     id="path8" />
  <path
     fill="url(#f)"
     stroke="url(#g)"
     d="M10.5 1037.862h5v14h-5z"
     transform="matrix(-1 0 0 1 16 -1036.362)"
     id="path9" />
  <path
     fill="url(#h)"
     stroke="url(#i)"
     stroke-linecap="round"
     stroke-linejoin="round"
     d="M8.489 1048.862v-1.985H4.403a.9.9 0 0 1-.903-.886v-2.224a.9.9 0 0 1 .903-.887h4.086v-2.018h.937l4.074 4-4.074 4z"
     transform="translate(0 -1036.362)"
     id="path10" />
</svg>
