<svg xmlns="http://www.w3.org/2000/svg" xmlns:xlink="http://www.w3.org/1999/xlink" width="16" height="16">
  <defs>
    <linearGradient id="a">
      <stop offset="0" stop-color="#7395b8"/>
      <stop offset="1" stop-color="#125f9c"/>
    </linearGradient>
    <linearGradient id="b">
      <stop offset="0" stop-color="#7395b8"/>
      <stop offset="1" stop-color="#125f9c"/>
    </linearGradient>
    <linearGradient xlink:href="#a" id="c" x1="-17.094" x2="-13.313" y1="9.625" y2="12.438" gradientUnits="userSpaceOnUse"/>
    <linearGradient xlink:href="#b" id="d" x1="-17.094" x2="-13.313" y1="9.625" y2="12.438" gradientTransform="translate(27.726 1036.564)" gradientUnits="userSpaceOnUse"/>
  </defs>
  <g transform="matrix(.75134 .65048 -.62287 .78464 652.417 -816.707)">
    <path fill="#79879d" stroke="#4d607b" stroke-width=".5" d="m6.312 1045.956 2.125-3 2.5-5.875s.72 1.406.5 2.031c-.218.625-2.53 6.031-2.53 6.031l-2 1.97z"/>
    <path fill="#79879d" stroke="#4d607b" stroke-width=".5" d="m11.318 1045.625-1.964-2.67-2.5-5.874s-.719 1.406-.5 2.031c.219.625 2.531 6.031 2.531 6.031l1.839 1.639z"/>
    <path fill="#4d607b" d="M9.258 1043.487a.36.36 0 0 1-.36.36.36.36 0 0 1-.359-.36.36.36 0 0 1 .36-.36.36.36 0 0 1 .359.36z"/>
    <path fill="none" stroke="url(#c)" stroke-linecap="round" stroke-linejoin="round" d="M-13.188 10.875a2.031 2.188 0 0 1-2.03 2.188 2.031 2.188 0 0 1-2.032-2.188 2.031 2.188 0 0 1 2.031-2.188 2.031 2.188 0 0 1 2.031 2.188z" transform="translate(20 1036.706)"/>
    <ellipse cx="12.508" cy="1047.439" fill="none" stroke="url(#d)" stroke-linecap="round" stroke-linejoin="round" rx="2.031" ry="2.188"/>
  </g>
</svg>
