<svg xmlns="http://www.w3.org/2000/svg" xmlns:xlink="http://www.w3.org/1999/xlink" width="16" height="16">
  <defs>
    <linearGradient id="b">
      <stop offset="0" stop-color="#df2c33"/>
      <stop offset="1" stop-color="#f5817d"/>
    </linearGradient>
    <linearGradient id="a">
      <stop offset="0" stop-color="#c51325"/>
      <stop offset="1" stop-color="#ca5d49"/>
    </linearGradient>
    <linearGradient xlink:href="#a" id="d" x1="8.657" x2="8.657" y1="1050.739" y2="1037.7" gradientUnits="userSpaceOnUse"/>
    <linearGradient xlink:href="#b" id="c" x1="4.753" x2="4.753" y1="1051.047" y2="1038.581" gradientUnits="userSpaceOnUse"/>
  </defs>
  <path fill="url(#c)" stroke="url(#d)" stroke-linecap="round" stroke-width=".981" d="M13.42 1038.655a1.193 1.193 0 0 0-1.69 0l-3.114 3.113-3.112-3.113a1.192 1.192 0 0 0-1.69 0l-.86.86a1.192 1.192 0 0 0 0 1.69l3.112 3.113-3.113 3.113a1.193 1.193 0 0 0 0 1.69l.86.86a1.193 1.193 0 0 0 1.69 0l3.113-3.112 3.135 3.134a1.192 1.192 0 0 0 1.69 0l.86-.86a1.197 1.197 0 0 0 0-1.69l-3.134-3.135 3.112-3.112a1.193 1.193 0 0 0 0-1.69z" transform="translate(0 -1036.362)"/>
</svg>
