<svg xmlns="http://www.w3.org/2000/svg" xmlns:xlink="http://www.w3.org/1999/xlink" width="409" height="295" viewBox="0 0 108.215 78.052">
  <defs>
    <path id="reuse-0" fill="#919191" fill-rule="evenodd" stroke="#919191" stroke-linejoin="round" stroke-width=".375" d="M-5.231-2.42 1.324-.01-5.23 2.401c1.047-1.423 1.041-3.37 0-4.821z"/>
  </defs>
  <defs>
    <marker id="a" orient="auto" overflow="visible" refX="0" refY="0">
      <use xlink:href="#reuse-0" fill-rule="evenodd" stroke-linejoin="round" stroke-width=".375"/>
    </marker>
    <marker id="b" orient="auto" overflow="visible" refX="0" refY="0">
      <use xlink:href="#reuse-0" fill-rule="evenodd" stroke-linejoin="round" stroke-width=".375"/>
    </marker>
    <marker id="c" orient="auto" overflow="visible" refX="0" refY="0">
      <use xlink:href="#reuse-0" fill-rule="evenodd" stroke-linejoin="round" stroke-width=".375"/>
    </marker>
    <marker id="d" orient="auto" overflow="visible" refX="0" refY="0">
      <use xlink:href="#reuse-0" fill-rule="evenodd" stroke-linejoin="round" stroke-width=".375"/>
    </marker>
  </defs>
  <path fill="#e6e6e6" stroke="#919191" stroke-width=".529" d="M77.92 8.467v29.897l.005.665c.195 2.495 5.744 4.495 12.562 4.495s12.368-2 12.563-4.495l.005-5.136V13.467l-.005-4.865a1.53 1.53 0 0 0 .005-.136c0-2.557-5.627-4.63-12.568-4.63-6.94 0-12.567 2.073-12.567 4.63 0 .046.002.09.005.136"/>
  <path fill="#e6e6e6" stroke="#919191" stroke-linejoin="round" stroke-width=".529" d="M41.992 30.52H65.54v12.964H41.992z"/>
  <path fill="none" stroke="#919191" stroke-width=".265" marker-end="url(#a)" d="m18.52 285.094 19.845-10.584" transform="translate(0 -218.948)"/>
  <path fill="none" stroke="#919191" stroke-width=".265" marker-end="url(#b)" d="M85.99 285.094 67.469 274.51" transform="translate(0 -218.948)"/>
  <text xml:space="preserve" x="11.919" y="244.278" stroke-width=".265" font-family="sans-serif" font-size="3.175" font-weight="400" letter-spacing="0" style="line-height:1.25" transform="translate(0 -218.948)" word-spacing="0"><tspan x="11.919" y="244.278" font-size="3.881">My</tspan><tspan x="11.919" y="249.128" font-size="3.881">Password</tspan></text>
  <text xml:space="preserve" x="44.661" y="254.969" stroke-width=".265" font-family="sans-serif" font-size="3.175" font-weight="400" letter-spacing="0" style="line-height:1.25" transform="translate(0 -218.948)" word-spacing="0"><tspan x="44.661" y="254.969" font-size="3.881">&quot;Master&quot;</tspan><tspan x="44.661" y="259.82" font-size="3.881">Password</tspan></text>
  <text xml:space="preserve" x="80.319" y="243.063" stroke-width=".265" font-family="sans-serif" font-size="3.175" font-weight="400" letter-spacing="0" style="line-height:1.25" transform="translate(0 -218.948)" word-spacing="0"><tspan x="80.319" y="243.063" font-size="3.881">Encryped</tspan><tspan x="80.319" y="247.914" font-size="3.881">File</tspan></text>
  <path fill="none" stroke="#919191" stroke-width=".265" marker-end="url(#c)" d="M33.073 246.73h43.656" transform="translate(0 -218.948)"/>
  <path fill="#e6e6e6" stroke="#919191" stroke-linejoin="round" stroke-width=".529" d="M3.969 21.167h28.84v12.965H3.969z"/>
  <text xml:space="preserve" x="36.663" y="271.806" fill="#919191" stroke-width=".265" font-family="sans-serif" font-size="3.175" font-weight="400" letter-spacing="0" style="line-height:1.25" transform="translate(0 -218.948)" word-spacing="0"><tspan x="36.663" y="271.806" font-size="3.881">Password Providers</tspan></text>
  <path fill="#e6e6e6" stroke="#919191" stroke-linejoin="round" stroke-width=".529" d="M5.556 66.146h28.84v7.673H5.556zM39.347 66.146h28.84v7.673h-28.84zM73.025 66.146h28.84v7.673h-28.84z"/>
  <path fill="none" stroke="#919191" stroke-width=".265" marker-end="url(#d)" d="M53.554 285.094V274.51" transform="translate(0 -218.948)"/>
  <text xml:space="preserve" x="9.253" y="245.578" stroke-width=".265" font-family="sans-serif" font-size="3.175" font-weight="400" letter-spacing="0" style="line-height:1.25" transform="translate(0 -218.948)" word-spacing="0"><tspan x="9.253" y="245.578" font-size="3.881">    My</tspan><tspan x="9.253" y="250.429" font-size="3.881">Password</tspan></text>
  <text xml:space="preserve" x="11.303" y="290.375" stroke-width=".265" font-family="sans-serif" font-size="3.175" font-weight="400" letter-spacing="0" style="line-height:1.25" transform="translate(0 -218.948)" word-spacing="0"><tspan x="11.303" y="290.375" font-size="3.881">Windows</tspan></text>
  <text xml:space="preserve" x="46.037" y="290.341" stroke-width=".265" font-family="sans-serif" font-size="3.175" font-weight="400" letter-spacing="0" style="line-height:1.25" transform="translate(0 -218.948)" word-spacing="0"><tspan x="46.037" y="290.341" font-size="3.881">MacOS</tspan></text>
  <text xml:space="preserve" x="75.767" y="289.951" stroke-width=".265" font-family="sans-serif" font-size="3.175" font-weight="400" letter-spacing="0" style="line-height:1.25" transform="translate(0 -218.948)" word-spacing="0"><tspan x="75.767" y="289.951" font-size="3.881">UI Prompt</tspan></text>
  <path fill="none" stroke="#919191" stroke-width=".529" d="M103.044 8.477c-.195 2.494-5.745 4.495-12.563 4.495-6.818 0-12.367-2-12.562-4.495"/>
  <path fill="none" stroke="#919191" stroke-width=".265" d="M23.538 53.022c-.043-1.965 1.09-3.217 2.485-4.31l23.92-.036c2.434-.412 3.428-2.122 3.74-4.448.307 1.957.922 3.727 3.231 4.466h24.149c2.075.617 2.73 2.523 2.933 4.245"/>
</svg>
