<?xml version="1.0" encoding="UTF-8" standalone="no"?>
<svg
   width="16"
   height="16"
   version="1.1"
   id="svg22"
   xmlns:xlink="http://www.w3.org/1999/xlink"
   xmlns="http://www.w3.org/2000/svg"
   xmlns:svg="http://www.w3.org/2000/svg">
  <defs
     id="defs1" />
  <defs
     id="defs9">
    <linearGradient
       id="d">
      <stop
         offset="0"
         stop-color="#b71717"
         id="stop1" />
      <stop
         offset="1"
         stop-color="#d80000"
         id="stop2" />
    </linearGradient>
    <linearGradient
       id="a">
      <stop
         offset="0"
         stop-color="#4f9e55"
         id="stop3" />
      <stop
         offset=".5"
         stop-color="#3c8d49"
         id="stop4" />
      <stop
         offset="1"
         stop-color="#a4e173"
         id="stop5" />
    </linearGradient>
    <linearGradient
       id="b">
      <stop
         offset="0"
         stop-color="#9dd560"
         id="stop6" />
      <stop
         offset="1"
         stop-color="#499851"
         id="stop7" />
    </linearGradient>
    <linearGradient
       xlink:href="#a"
       id="g"
       x1="388.637"
       x2="388.637"
       y1="478.188"
       y2="457.955"
       gradientUnits="userSpaceOnUse" />
    <linearGradient
       xlink:href="#b"
       id="h"
       x1="16.966"
       x2="15.634"
       y1="1054.691"
       y2="1056.289"
       gradientUnits="userSpaceOnUse" />
    <linearGradient
       xlink:href="#c"
       id="j"
       x1="11.469"
       x2="11.469"
       y1="8.454"
       y2="9.266"
       gradientUnits="userSpaceOnUse" />
    <linearGradient
       id="c">
      <stop
         offset="0"
         stop-color="#ff2727"
         id="stop8" />
      <stop
         offset="1"
         stop-color="#bc0000"
         id="stop9" />
    </linearGradient>
    <linearGradient
       xlink:href="#d"
       id="i"
       x1="20.044"
       x2="20.044"
       y1="1061.286"
       y2="1064.603"
       gradientUnits="userSpaceOnUse" />
    <filter
       id="f"
       width="2.3313679"
       height="2.0101074"
       x="-0.60908685"
       y="-0.50768251">
      <feGaussianBlur
         stdDeviation=".993"
         id="feGaussianBlur9" />
    </filter>
    <mask
       id="e"
       maskUnits="userSpaceOnUse">
      <g
         fill="#fff"
         stroke="#fff"
         stroke-linecap="round"
         stroke-linejoin="round"
         id="g9" />
    </mask>
  </defs>
  <g
     mask="url(#e)"
     transform="translate(-8.22 -1049.267)"
     id="g11">
    <g
       fill="#fff"
       stroke="#fff"
       stroke-width="2.584"
       filter="url(#f)"
       transform="matrix(.77394 0 0 .77394 7.411 246.446)"
       id="g10">
      <use
         xlink:href="#reuse-0"
         stroke-width="2.5842454799999994"
         id="use9" />
      <path
         d="m5.82 1039.345 6.062 5.187-6 5.063z"
         id="path9" />
      <use
         xlink:href="#reuse-0"
         stroke-linecap="round"
         stroke-linejoin="round"
         stroke-width="2.5842454799999994"
         id="use10" />
    </g>
  </g>
  <path
     fill="url(#g)"
     d="M398.75 468.237c0 5.868-4.757 10.625-10.625 10.625s-10.625-4.757-10.625-10.625 4.757-10.625 10.625-10.625 10.625 4.757 10.625 10.625z"
     transform="matrix(.48217 0 0 .48217 -181.657 -220.284)"
     id="path11" />
  <path
     fill="#fff"
     stroke="url(#h)"
     stroke-width=".646"
     d="m14.04 1052.25 6.062 5.187-6 5.062z"
     transform="matrix(.77394 0 0 .77394 -7.17 -812.809)"
     id="path12" />
  <path
     fill="none"
     stroke="#14733c"
     stroke-linecap="round"
     stroke-linejoin="round"
     stroke-width=".723255"
     d="M10.608 5.485a5.123 5.123 0 1 1-10.246 0 5.123 5.123 0 0 1 10.246 0z"
     id="path13" />
  <path
     fill="#ff3c3c"
     d="M7.004 10.006h9v5h-9z"
     id="path14" />
  <path
     fill="url(#i)"
     d="M15.22 1060.298h9v3.969h-9z"
     transform="translate(-8.216 -1049.26)"
     id="path15" />
  <path
     fill="none"
     stroke="url(#j)"
     d="M9.469 10.031V8.5h3.996v1.531"
     transform="translate(.004 .006)"
     id="path16" />
  <path
     fill="none"
     stroke="#f09088"
     d="M7.962 11.52h6.963"
     id="path17" />
  <path
     fill="none"
     stroke="#f09088"
     stroke-opacity=".505"
     d="M7.962 13.48h.979M9.975 13.48h3.01M13.984 13.48h.98"
     id="path18" />
  <path
     fill="none"
     stroke="#f09088"
     d="M6.967 14.497h.98M14.989 14.475h.979"
     id="path19" />
  <path
     fill="none"
     stroke="#881818"
     d="M7.962 12.493H9.05"
     id="path20" />
  <path
     fill="#881818"
     stroke="#881818"
     d="M9.045 11.505h.979M12.982 11.505h.98"
     id="path21" />
  <path
     fill="none"
     stroke="#881818"
     d="M9.993 12.493h3.042M13.915 12.493h1.088"
     id="path22" />
</svg>
