<svg xmlns="http://www.w3.org/2000/svg" width="16" height="16">
  <g color="#000">
    <path fill="none" stroke="#3d9465" stroke-width="1.396" d="m 14.363107,7.912466 c 0,3.758796 -3.047107,6.805903 -6.8059032,6.805903 -3.7587964,0 -6.80590299,-3.047107 -6.80590299,-6.805903 0,-3.7587964 3.04710659,-6.8059029 6.80590299,-6.8059029 3.7587962,0 6.8059032,3.0471065 6.8059032,6.8059029 z" overflow="visible" style="marker:none" transform="matrix(.9309 0 0 .9309 .102 .48)"/>
    <path fill="none" stroke="#3d9465" stroke-width="2.578" d="m 14.363107,7.912466 c 0,3.758796 -3.047107,6.805903 -6.8059032,6.805903 -3.7587964,0 -6.80590299,-3.047107 -6.80590299,-6.805903 0,-3.7587964 3.04710659,-6.8059029 6.80590299,-6.8059029 3.7587962,0 6.8059032,3.0471065 6.8059032,6.8059029 z" overflow="visible" style="marker:none" transform="translate(3.414 3.944) scale(.50434)"/>
    <path fill="#20680c" stroke="#20680c" stroke-width="2.03" d="m 14.363107,7.912466 c 0,3.758796 -3.047107,6.805903 -6.8059032,6.805903 -3.7587964,0 -6.80590299,-3.047107 -6.80590299,-6.805903 0,-3.7587964 3.04710659,-6.8059029 6.80590299,-6.8059029 3.7587962,0 6.8059032,3.0471065 6.8059032,6.8059029 z" overflow="visible" style="marker:none" transform="matrix(.23264 0 0 .23264 5.655 5.906)"/>
  </g>
  <path fill="#6b8fa5" stroke="#000f6f" d="m 0.90625,1037.9248 13.953125,13.953" transform="translate(0 -1036.362)"/>
  <path fill="#6b8fa5" stroke="#6b7ae2" d="m 1.5,1037.331 13.953125,13.9531" transform="translate(0 -1036.362)"/>
</svg>
