<svg xmlns="http://www.w3.org/2000/svg" xmlns:xlink="http://www.w3.org/1999/xlink" width="16" height="16">
  <defs>
    <linearGradient id="a">
      <stop offset="0" stop-color="#f7fdff"/>
      <stop offset="1" stop-color="#e8f0f5"/>
    </linearGradient>
    <linearGradient xlink:href="#a" id="b" x1="12.108" x2="12.108" y1="2.792" y2="17.833" gradientUnits="userSpaceOnUse"/>
  </defs>
  <path fill="url(#b)" stroke="#546782" stroke-width="1.515" d="M21.813 11.688a9.875 9.875 0 1 1-19.75 0 9.875 9.875 0 1 1 19.75 0z" transform="translate(.154 .288) scale(.65985)"/>
  <path fill="#475b78" d="M16.199 1052.209c-.99 0-1.78.275-2.382.828-.603.554-.917 1.32-.953 2.279l1.636.207c.054-1.185.596-1.76 1.595-1.76.423 0 .766.108 1.036.352s.393.557.393.932c0 .348-.12.65-.373.91-.134.14-.403.349-.807.602-.37.226-.608.485-.725.807-.109.27-.166.686-.166 1.243v.746h1.512v-.477c0-.549.236-.97.704-1.284.612-.418 1.03-.79 1.264-1.077.323-.418.497-.923.497-1.533 0-.836-.335-1.527-.974-2.05-.612-.488-1.367-.725-2.257-.725z" font-family="Reznor" font-size="20.037" font-weight="700" letter-spacing="0" style="text-align:start;line-height:125%;-inkscape-font-specification:Reznor Bold" transform="translate(-8.22 -1049.267)" word-spacing="0"/>
  <path fill="#475b78" d="M9.035 11.837a1.144.975 0 1 1-2.288 0 1.144.975 0 1 1 2.288 0z"/>
</svg>
