<?xml version="1.0" encoding="UTF-8" standalone="no"?>
<svg
   width="16"
   height="16"
   version="1.1"
   id="svg23"
   xmlns:xlink="http://www.w3.org/1999/xlink"
   xmlns="http://www.w3.org/2000/svg"
   xmlns:svg="http://www.w3.org/2000/svg">
  <defs
     id="defs18">
    <linearGradient
       id="i">
      <stop
         offset="0"
         stop-color="#fffbce"
         id="stop1" />
      <stop
         offset="1"
         stop-color="#ffcf73"
         id="stop2" />
    </linearGradient>
    <linearGradient
       id="h">
      <stop
         offset="0"
         id="stop3" />
      <stop
         offset="1"
         stop-opacity="0"
         id="stop4" />
    </linearGradient>
    <linearGradient
       id="g">
      <stop
         offset="0"
         id="stop5" />
      <stop
         offset="1"
         stop-opacity="0"
         id="stop6" />
    </linearGradient>
    <linearGradient
       id="f">
      <stop
         offset="0"
         stop-color="#5b7aac"
         id="stop7" />
      <stop
         offset="1"
         stop-color="#13347c"
         id="stop8" />
    </linearGradient>
    <linearGradient
       id="e">
      <stop
         offset="0"
         stop-color="#dff2fe"
         id="stop9" />
      <stop
         offset="1"
         stop-color="#fff"
         id="stop10" />
    </linearGradient>
    <linearGradient
       id="d">
      <stop
         offset="0"
         stop-color="#edeb02"
         id="stop11" />
      <stop
         offset="1"
         stop-color="#6cc13a"
         id="stop12" />
    </linearGradient>
    <linearGradient
       id="c">
      <stop
         offset="0"
         stop-color="#296166"
         id="stop13" />
      <stop
         offset="1"
         stop-color="#274184"
         id="stop14" />
    </linearGradient>
    <linearGradient
       id="b">
      <stop
         offset="0"
         stop-color="#39845b"
         id="stop15" />
      <stop
         offset="1"
         stop-color="#367a5d"
         id="stop16" />
    </linearGradient>
    <linearGradient
       id="a">
      <stop
         offset="0"
         stop-color="#6f736b"
         id="stop17" />
      <stop
         offset="1"
         stop-color="#a6967b"
         id="stop18" />
    </linearGradient>
    <linearGradient
       xlink:href="#a"
       id="s"
       x1="8.409"
       x2="8.409"
       y1="8.789"
       y2="1.125"
       gradientUnits="userSpaceOnUse" />
    <linearGradient
       xlink:href="#b"
       id="m"
       x1="10.583"
       x2="10.583"
       y1="1043.602"
       y2="1046"
       gradientTransform="translate(-2)"
       gradientUnits="userSpaceOnUse" />
    <linearGradient
       xlink:href="#c"
       id="o"
       x1="10.583"
       x2="10.583"
       y1="1043.602"
       y2="1047.691"
       gradientTransform="translate(-2 4)"
       gradientUnits="userSpaceOnUse" />
    <linearGradient
       xlink:href="#d"
       id="n"
       x1="11.953"
       x2="11.953"
       y1="1048.067"
       y2="1051.556"
       gradientTransform="translate(-4)"
       gradientUnits="userSpaceOnUse" />
    <linearGradient
       xlink:href="#e"
       id="j"
       x1="10.672"
       x2="10.672"
       y1="1051.712"
       y2="1039.911"
       gradientTransform="translate(-2)"
       gradientUnits="userSpaceOnUse" />
    <linearGradient
       xlink:href="#f"
       id="k"
       x1="27.048"
       x2="27.048"
       y1="1051.956"
       y2="1043.369"
       gradientTransform="translate(-22)"
       gradientUnits="userSpaceOnUse" />
    <linearGradient
       xlink:href="#g"
       id="l"
       x1="5.817"
       x2="4.771"
       y1="1041.091"
       y2="1040.086"
       gradientUnits="userSpaceOnUse" />
    <linearGradient
       xlink:href="#h"
       id="q"
       x1="10"
       x2="9"
       y1="1041.362"
       y2="1042.362"
       gradientUnits="userSpaceOnUse" />
    <linearGradient
       xlink:href="#h"
       id="p"
       x1="7"
       x2="8"
       y1="1041.362"
       y2="1042.362"
       gradientUnits="userSpaceOnUse" />
    <linearGradient
       xlink:href="#i"
       id="r"
       x1="11"
       x2="11"
       y1="1"
       y2="9"
       gradientUnits="userSpaceOnUse" />
  </defs>
  <g
     transform="translate(0 -1036.362)"
     id="g23">
    <path
       fill="url(#j)"
       stroke="url(#k)"
       stroke-linecap="round"
       stroke-linejoin="round"
       d="m3.64 1044.01 4.871-4.994 4.872 4.994c.048.049.124.055.124.124v7.644a.124.124 0 0 1-.124.124H3.639a.124.124 0 0 1-.124-.124v-7.644c0-.069.056-.124.124-.124z"
       id="path18" />
    <rect
       width="1.352"
       height="4.555"
       x="4.32"
       y="1.336"
       fill="#9f453a"
       stroke="#aeaa73"
       stroke-linecap="round"
       stroke-linejoin="round"
       stroke-width=".65"
       rx=".16"
       ry=".16"
       transform="translate(0 1036.362)"
       id="rect18" />
    <rect
       width="2.003"
       height="3.494"
       x="3.994"
       y="1038.759"
       fill="url(#l)"
       opacity=".5"
       rx=".237"
       ry=".123"
       id="rect19" />
    <rect
       width="2.324"
       height="2.324"
       x="7.338"
       y="1043.7"
       fill="#edeb02"
       stroke="url(#m)"
       stroke-linecap="round"
       stroke-linejoin="round"
       stroke-width=".67"
       rx=".124"
       ry=".124"
       id="rect20" />
    <rect
       width="2.324"
       height="4.18"
       x="7.338"
       y="1047.7"
       fill="url(#n)"
       stroke="url(#o)"
       stroke-linecap="round"
       stroke-linejoin="round"
       stroke-width=".67"
       rx=".124"
       ry=".124"
       id="rect21" />
    <path
       fill="url(#p)"
       d="m3.153 1043.865 5.358-5.492v8.172H3.153l-.136-.136v-2.407z"
       opacity=".5"
       id="path21" />
    <path
       fill="url(#q)"
       d="m8.511 1038.373 5.358 5.492.136.137v2.407l-.136.136H8.51z"
       opacity=".5"
       id="path22" />
    <path
       fill="url(#r)"
       stroke="url(#s)"
       stroke-linecap="round"
       stroke-linejoin="round"
       stroke-width=".65"
       d="M8.469 1.688c-.041 0-.063 0-.094.03l-.688.688-5.53 5.531a.15.15 0 0 0 0 .22l.687.687a.15.15 0 0 0 .219 0L8.5 3.438l5.406 5.406a.15.15 0 0 0 .219 0l.688-.688a.15.15 0 0 0 0-.219L9.28 2.407l-.687-.688c-.032-.032-.084-.032-.125-.032z"
       transform="translate(0 1036.362)"
       id="path23" />
  </g>
</svg>
