<?xml version="1.0" encoding="UTF-8" standalone="no"?>
<svg
   width="16"
   height="16"
   version="1.1"
   id="svg11"
   xmlns:xlink="http://www.w3.org/1999/xlink"
   xmlns="http://www.w3.org/2000/svg"
   xmlns:svg="http://www.w3.org/2000/svg">
  <defs
     id="defs10">
    <linearGradient
       xlink:href="#a"
       id="g"
       x1="11.04"
       x2="10.746"
       y1="13.403"
       y2="14.498"
       gradientTransform="matrix(.92543 0 0 .92543 -2.167 1035.422)"
       gradientUnits="userSpaceOnUse" />
    <linearGradient
       id="a">
      <stop
         offset="0"
         stop-color="#f68886"
         id="stop1" />
      <stop
         offset="1"
         stop-color="#f4787b"
         id="stop2" />
    </linearGradient>
    <linearGradient
       xlink:href="#b"
       id="h"
       x1="10.98"
       x2="10.98"
       y1="12.075"
       y2="15.959"
       gradientTransform="matrix(.92543 0 0 .92543 -2.167 1035.422)"
       gradientUnits="userSpaceOnUse" />
    <linearGradient
       id="b">
      <stop
         offset="0"
         stop-color="#c9473e"
         id="stop3" />
      <stop
         offset="1"
         stop-color="#c8192a"
         id="stop4" />
    </linearGradient>
    <linearGradient
       xlink:href="#c"
       id="i"
       x1="11.063"
       x2="11.063"
       y1="9.891"
       y2="4.234"
       gradientTransform="translate(-3.002 1034.378)"
       gradientUnits="userSpaceOnUse" />
    <linearGradient
       id="c">
      <stop
         offset="0"
         stop-color="#c9473e"
         id="stop5" />
      <stop
         offset=".254"
         stop-color="#f35863"
         id="stop6" />
      <stop
         offset="1"
         stop-color="#f6928e"
         id="stop7" />
    </linearGradient>
    <linearGradient
       xlink:href="#d"
       id="j"
       x1="10.938"
       x2="10.938"
       y1="3.266"
       y2="10.891"
       gradientTransform="translate(-3.002 1034.378)"
       gradientUnits="userSpaceOnUse" />
    <linearGradient
       id="d">
      <stop
         offset="0"
         stop-color="#c9473e"
         id="stop8" />
      <stop
         offset="1"
         stop-color="#c8192a"
         id="stop9" />
    </linearGradient>
    <filter
       id="f"
       width="1.3118294"
       height="1.1838216"
       x="-0.15591472"
       y="-0.091910806"
       color-interpolation-filters="sRGB">
      <feGaussianBlur
         stdDeviation=".383"
         id="feGaussianBlur9" />
    </filter>
    <filter
       id="e"
       width="1.305992"
       height="1.4031579"
       x="-0.152996"
       y="-0.20157894"
       color-interpolation-filters="sRGB">
      <feGaussianBlur
         stdDeviation=".383"
         id="feGaussianBlur10" />
    </filter>
  </defs>
  <g
     transform="translate(0 -1036.362)"
     id="g11">
    <ellipse
       cx="7.996"
       cy="1049.082"
       fill="#fff"
       filter="url(#e)"
       opacity=".768"
       rx="3.004"
       ry="2.28"
       id="ellipse10" />
    <path
       fill="#fff"
       d="M7.947 1036.362c1.631 0 3.03.96 2.944 2.146l-.43 5.865c-.086 1.187-.883 1.99-2.514 1.99-1.63 0-2.427-.803-2.514-1.99l-.43-5.865c-.086-1.187 1.314-2.146 2.944-2.146z"
       filter="url(#f)"
       id="path10" />
    <circle
       cx="7.998"
       cy="1048.378"
       r="1.504"
       fill="url(#g)"
       stroke="url(#h)"
       id="circle10" />
    <path
       fill="url(#i)"
       stroke="url(#j)"
       stroke-linecap="round"
       stroke-linejoin="round"
       d="M7.982 1037.862c.84 0 1.56.677 1.516 1.516l-.221 4.142c-.045.838-.455 1.405-1.295 1.405-.84 0-1.25-.567-1.294-1.405l-.221-4.142c-.045-.839.676-1.516 1.515-1.516z"
       id="path11" />
  </g>
</svg>
