<svg xmlns="http://www.w3.org/2000/svg" xmlns:xlink="http://www.w3.org/1999/xlink" width="16" height="16">
  <defs>
    <linearGradient xlink:href="#a" id="g" x1="11.04" x2="10.746" y1="13.403" y2="14.498" gradientTransform="matrix(.92543 0 0 .92543 -2.167 1035.422)" gradientUnits="userSpaceOnUse"/>
    <linearGradient id="a">
      <stop offset="0" stop-color="#f68886"/>
      <stop offset="1" stop-color="#f4787b"/>
    </linearGradient>
    <linearGradient xlink:href="#b" id="h" x1="10.98" x2="10.98" y1="12.075" y2="15.959" gradientTransform="matrix(.92543 0 0 .92543 -2.167 1035.422)" gradientUnits="userSpaceOnUse"/>
    <linearGradient id="b">
      <stop offset="0" stop-color="#c9473e"/>
      <stop offset="1" stop-color="#c8192a"/>
    </linearGradient>
    <linearGradient xlink:href="#c" id="i" x1="11.063" x2="11.063" y1="9.891" y2="4.234" gradientTransform="translate(-3.002 1034.378)" gradientUnits="userSpaceOnUse"/>
    <linearGradient id="c">
      <stop offset="0" stop-color="#c9473e"/>
      <stop offset=".254" stop-color="#f35863"/>
      <stop offset="1" stop-color="#f6928e"/>
    </linearGradient>
    <linearGradient xlink:href="#d" id="j" x1="10.938" x2="10.938" y1="3.266" y2="10.891" gradientTransform="translate(-3.002 1034.378)" gradientUnits="userSpaceOnUse"/>
    <linearGradient id="d">
      <stop offset="0" stop-color="#c9473e"/>
      <stop offset="1" stop-color="#c8192a"/>
    </linearGradient>
    <filter id="f" width="1.312" height="1.184" x="-.156" y="-.092" color-interpolation-filters="sRGB">
      <feGaussianBlur stdDeviation=".383"/>
    </filter>
    <filter id="e" width="1.306" height="1.404" x="-.153" y="-.202" color-interpolation-filters="sRGB">
      <feGaussianBlur stdDeviation=".383"/>
    </filter>
  </defs>
  <g transform="translate(0 -1036.362)">
    <ellipse cx="7.996" cy="1049.082" fill="#fff" filter="url(#e)" opacity=".768" rx="3.004" ry="2.28"/>
    <path fill="#fff" d="M7.947 1036.362c1.631 0 3.03.96 2.944 2.146l-.43 5.865c-.086 1.187-.883 1.99-2.514 1.99-1.63 0-2.427-.803-2.514-1.99l-.43-5.865c-.086-1.187 1.314-2.146 2.944-2.146z" filter="url(#f)"/>
    <circle cx="7.998" cy="1048.378" r="1.504" fill="url(#g)" stroke="url(#h)"/>
    <path fill="url(#i)" stroke="url(#j)" stroke-linecap="round" stroke-linejoin="round" d="M7.982 1037.862c.84 0 1.56.677 1.516 1.516l-.221 4.142c-.045.838-.455 1.405-1.295 1.405-.84 0-1.25-.567-1.294-1.405l-.221-4.142c-.045-.839.676-1.516 1.515-1.516z"/>
  </g>
</svg>
