<?xml version="1.0" encoding="UTF-8" standalone="no"?>
<svg
   width="16"
   height="16"
   version="1.1"
   id="svg24"
   xmlns:xlink="http://www.w3.org/1999/xlink"
   xmlns="http://www.w3.org/2000/svg"
   xmlns:svg="http://www.w3.org/2000/svg">
  <defs
     id="defs16">
    <linearGradient
       id="a">
      <stop
         offset="0"
         stop-color="#c6e7f9"
         id="stop1" />
      <stop
         offset="1"
         stop-color="#f9fcff"
         id="stop2" />
    </linearGradient>
    <linearGradient
       id="e">
      <stop
         offset="0"
         stop-color="#676656"
         id="stop3" />
      <stop
         offset="1"
         stop-color="#9e884e"
         id="stop4" />
    </linearGradient>
    <linearGradient
       id="d">
      <stop
         offset="0"
         stop-color="#4e86ca"
         id="stop5" />
      <stop
         offset="1"
         stop-color="#4e86ca"
         stop-opacity="0"
         id="stop6" />
    </linearGradient>
    <linearGradient
       id="b">
      <stop
         offset="0"
         stop-color="#326097"
         id="stop7" />
      <stop
         offset="1"
         stop-color="#2e73c5"
         id="stop8" />
    </linearGradient>
    <linearGradient
       id="c">
      <stop
         offset="0"
         stop-color="#75b1e3"
         id="stop9" />
      <stop
         offset="1"
         stop-color="#c1def7"
         id="stop10" />
    </linearGradient>
    <linearGradient
       id="h">
      <stop
         offset="0"
         stop-color="#4e86ca"
         id="stop11" />
      <stop
         offset="1"
         stop-color="#4e86ca"
         stop-opacity="0"
         id="stop12" />
    </linearGradient>
    <linearGradient
       id="g">
      <stop
         offset="0"
         stop-color="#75b1e3"
         id="stop13" />
      <stop
         offset="1"
         stop-color="#c1def7"
         id="stop14" />
    </linearGradient>
    <linearGradient
       id="f">
      <stop
         offset="0"
         stop-color="#326097"
         id="stop15" />
      <stop
         offset="1"
         stop-color="#2e73c5"
         id="stop16" />
    </linearGradient>
    <linearGradient
       xlink:href="#a"
       id="i"
       x1="636.995"
       x2="636.995"
       y1="277.455"
       y2="308.575"
       gradientUnits="userSpaceOnUse" />
    <linearGradient
       xlink:href="#b"
       id="j"
       x1="617.063"
       x2="657.717"
       y1="283.283"
       y2="283.283"
       gradientUnits="userSpaceOnUse" />
    <linearGradient
       xlink:href="#c"
       id="k"
       x1="616.342"
       x2="658.342"
       y1="272.222"
       y2="272.222"
       gradientUnits="userSpaceOnUse" />
    <linearGradient
       xlink:href="#d"
       id="l"
       x1="636.094"
       x2="636.094"
       y1="275.531"
       y2="269.336"
       gradientTransform="translate(0 .344)"
       gradientUnits="userSpaceOnUse" />
    <linearGradient
       xlink:href="#e"
       id="n"
       x1="641.076"
       x2="641.076"
       y1="308.689"
       y2="276.306"
       gradientUnits="userSpaceOnUse" />
    <linearGradient
       xlink:href="#e"
       id="o"
       x1="641.076"
       x2="641.076"
       y1="308.689"
       y2="276.306"
       gradientUnits="userSpaceOnUse" />
    <linearGradient
       xlink:href="#e"
       id="p"
       x1="641.076"
       x2="641.076"
       y1="308.689"
       y2="276.306"
       gradientUnits="userSpaceOnUse" />
    <linearGradient
       xlink:href="#e"
       id="q"
       x1="641.076"
       x2="641.076"
       y1="308.689"
       y2="276.306"
       gradientUnits="userSpaceOnUse" />
    <linearGradient
       xlink:href="#e"
       id="m"
       x1="641.076"
       x2="641.076"
       y1="308.689"
       y2="276.306"
       gradientUnits="userSpaceOnUse" />
    <linearGradient
       xlink:href="#f"
       id="r"
       x1="617.063"
       x2="657.717"
       y1="283.283"
       y2="283.283"
       gradientUnits="userSpaceOnUse" />
    <linearGradient
       xlink:href="#g"
       id="s"
       x1="616.342"
       x2="658.342"
       y1="272.222"
       y2="272.222"
       gradientUnits="userSpaceOnUse" />
    <linearGradient
       xlink:href="#h"
       id="t"
       x1="636.094"
       x2="636.094"
       y1="275.531"
       y2="269.336"
       gradientTransform="translate(0 .344)"
       gradientUnits="userSpaceOnUse" />
  </defs>
  <g
     transform="matrix(.27903 0 0 .27903 -169.064 -72.502)"
     id="g24">
    <rect
       width="40.88"
       height="41"
       x="613.837"
       y="268.004"
       fill="url(#i)"
       rx="2.563"
       ry="2.563"
       id="rect16" />
    <path
       fill="#4e86ca"
       stroke="url(#j)"
       stroke-linecap="round"
       stroke-linejoin="round"
       d="M619.405 268.004h33.145a2.558 2.558 0 0 1 2.563 2.563v5.874h-38.27v-5.874a2.558 2.558 0 0 1 2.562-2.563z"
       id="path16" />
    <path
       fill="url(#k)"
       d="M619.406 269c-.883 0-1.562.68-1.562 1.563v4.875h37v-4.875c0-.884-.68-1.563-1.563-1.563z"
       id="path17" />
    <path
       fill="url(#l)"
       d="M619.406 269.344c-.883 0-1.562.679-1.562 1.562v4.875h37v-4.875c0-.883-.68-1.562-1.563-1.562z"
       id="path18" />
    <g
       fill="none"
       stroke="url(#m)"
       stroke-width="2"
       id="g21">
      <rect
         width="41.395"
         height="41"
         x="613.572"
         y="268.004"
         stroke="url(#n)"
         stroke-linecap="round"
         stroke-linejoin="round"
         rx="2.563"
         ry="2.563"
         id="rect18" />
      <path
         stroke="url(#o)"
         d="M613.5 294.55h15.688"
         id="path19" />
      <path
         stroke="url(#p)"
         d="M629.313 291.237h26.312"
         id="path20" />
      <path
         stroke="url(#q)"
         d="M629.188 275.987v32.844"
         id="path21" />
    </g>
    <path
       fill="#4e86ca"
       stroke="url(#r)"
       stroke-linecap="round"
       stroke-linejoin="round"
       stroke-width="2"
       d="M616.157 268.004h36.223a2.558 2.558 0 0 1 2.564 2.563v5.874h-41.35v-5.874a2.558 2.558 0 0 1 2.563-2.563z"
       id="path22" />
    <path
       fill="url(#s)"
       d="M616.334 269c-.883 0-1.562.68-1.562 1.563v4.875h39.188v-4.875c0-.884-.68-1.563-1.563-1.563z"
       id="path23" />
    <path
       fill="url(#t)"
       d="M615.937 269.344c-.884 0-1.57.679-1.563 1.562v4.875h39.608v-4.875c0-.883-.68-1.562-1.563-1.562z"
       id="path24" />
  </g>
</svg>
