<svg xmlns="http://www.w3.org/2000/svg" xmlns:xlink="http://www.w3.org/1999/xlink" width="16" height="16">
  <defs>
    <linearGradient id="c">
      <stop offset="0" stop-color="#fffab5"/>
      <stop offset="1" stop-color="#f0e660"/>
    </linearGradient>
    <linearGradient id="b">
      <stop offset="0" stop-color="#fffab9"/>
      <stop offset="1" stop-color="#adaa7d"/>
    </linearGradient>
    <linearGradient xlink:href="#a" id="d" x1="5.115" x2="12.52" y1="1044.737" y2="1044.737" gradientUnits="userSpaceOnUse"/>
    <linearGradient id="a">
      <stop offset="0" stop-color="#c7e3e7"/>
      <stop offset="1" stop-color="#fff"/>
    </linearGradient>
    <linearGradient xlink:href="#a" id="e" x1="5.115" x2="12.52" y1="1044.737" y2="1044.737" gradientUnits="userSpaceOnUse"/>
    <linearGradient xlink:href="#b" id="g" x1="13.3" x2="14.662" y1="-16.292" y2="-14.604" gradientTransform="translate(12.394 1052.085) scale(.61266)" gradientUnits="userSpaceOnUse"/>
    <linearGradient xlink:href="#c" id="f" x1="12.205" x2="14.104" y1="-12.091" y2="-9.716" gradientTransform="translate(12.394 1052.085) scale(.61266)" gradientUnits="userSpaceOnUse"/>
  </defs>
  <g fill="url(#d)" transform="matrix(1.63223 0 0 1.63223 -11.542 -1697.115)">
    <g fill="url(#e)" stroke-width=".245" transform="translate(-8.577)">
      <path fill="url(#f)" stroke="#243253" d="M17.41 1043.967s-.191.421.613 1.034 1.8 1.187 1.838 1.57c.038.383-.575 1.072-.804 1.378-.23.307-.115 1.11.306 1.226.421.115 3.484-2.757 3.484-2.757s.345-1.225-.076-1.915c-.421-.689-2.298-2.106-2.298-2.106z"/>
      <path fill="url(#g)" stroke="#5e562f" d="m19.516 1044.618 2.144-2.068s.23-1.531-.038-1.8c-.268-.267-.919-.306-1.149-.153-.23.154-3.101 3.332-3.101 3.332s.46-.345.957-.268c.498.077 1.034.612 1.11.766.077.153.077.191.077.191z"/>
    </g>
    <path fill="none" stroke="#243253" stroke-width=".245064" d="M11.24 1046.622c.327.425.374.503.435.913.055.365.045 1.061.045 1.061"/>
  </g>
</svg>
