<svg xmlns="http://www.w3.org/2000/svg" xmlns:xlink="http://www.w3.org/1999/xlink" width="16" height="16">
  <defs>
    <linearGradient xlink:href="#a" id="h" x1="8.014" x2="8.014" y1="1042.362" y2="1050.071" gradientTransform="translate(0 2)" gradientUnits="userSpaceOnUse"/>
    <linearGradient id="a">
      <stop offset="0" stop-color="#be9a4b"/>
      <stop offset="1" stop-color="#877e60"/>
    </linearGradient>
    <linearGradient xlink:href="#b" id="i" x1="-13" x2="-15" y1="1047.362" y2="1047.362" gradientTransform="translate(18 -4)" gradientUnits="userSpaceOnUse"/>
    <linearGradient id="b">
      <stop offset="0" stop-color="#fff" stop-opacity="0"/>
      <stop offset="1" stop-color="#c5dff4"/>
    </linearGradient>
    <linearGradient xlink:href="#c" id="j" x1="-11" x2="-11" y1="1042.362" y2="1044.362" gradientTransform="translate(18 2)" gradientUnits="userSpaceOnUse"/>
    <linearGradient id="c">
      <stop offset="0" stop-color="#c5dff4"/>
      <stop offset="1" stop-color="#fff" stop-opacity="0"/>
    </linearGradient>
    <linearGradient xlink:href="#d" id="k" x1="8.014" x2="8.014" y1="1039.876" y2="1041.877" gradientTransform="translate(0 2)" gradientUnits="userSpaceOnUse"/>
    <linearGradient id="d">
      <stop offset="0" stop-color="#4476aa"/>
      <stop offset=".5" stop-color="#5a9ccc"/>
      <stop offset="1" stop-color="#4476aa"/>
    </linearGradient>
    <linearGradient xlink:href="#e" id="o" x1="10" x2="10.008" y1="5" y2="6.984" gradientTransform="translate(-15.016 1046.636)" gradientUnits="userSpaceOnUse"/>
    <linearGradient id="e">
      <stop offset="0" stop-color="#fff"/>
      <stop offset="1" stop-color="#fff" stop-opacity="0"/>
    </linearGradient>
    <linearGradient xlink:href="#e" id="p" x1="12" x2="12" y1="1043.362" y2="1045.347" gradientTransform="translate(-15.016 10.273)" gradientUnits="userSpaceOnUse"/>
    <linearGradient xlink:href="#e" id="q" x1="13" x2="15.008" y1="1043.362" y2="1043.347" gradientTransform="translate(-15.016 10.273)" gradientUnits="userSpaceOnUse"/>
    <linearGradient xlink:href="#e" id="r" x1="12" x2="10.008" y1="1042.362" y2="1042.362" gradientTransform="translate(-15.016 10.273)" gradientUnits="userSpaceOnUse"/>
    <linearGradient xlink:href="#e" id="s" x1="10" x2="8.008" y1="1041.362" y2="1041.347" gradientTransform="translate(-15.016 10.273)" gradientUnits="userSpaceOnUse"/>
    <linearGradient xlink:href="#e" id="t" x1="10" x2="10.008" y1="1040.362" y2="1038.347" gradientTransform="translate(-15.016 10.273)" gradientUnits="userSpaceOnUse"/>
    <linearGradient xlink:href="#e" id="u" x1="12" x2="10.008" y1="1038.362" y2="1038.347" gradientTransform="translate(-15.016 10.273)" gradientUnits="userSpaceOnUse"/>
    <linearGradient xlink:href="#e" id="v" x1="14" x2="14" y1="1041.362" y2="1043.347" gradientTransform="translate(-15.016 10.273)" gradientUnits="userSpaceOnUse"/>
    <linearGradient id="f">
      <stop offset="0" stop-color="#e0c576"/>
      <stop offset="1" stop-color="#9e7916"/>
    </linearGradient>
    <linearGradient xlink:href="#g" id="x" x1=".938" x2=".938" y1="4.844" y2="7.549" gradientTransform="matrix(2.31999 0 0 2.31999 10.2 1043.185)" gradientUnits="userSpaceOnUse"/>
    <linearGradient id="g">
      <stop offset="0" stop-color="#f7f9fb"/>
      <stop offset="1" stop-color="#ffd680"/>
    </linearGradient>
    <filter id="n" width="1.17" height="1.221" x="-.085" y="-.11" color-interpolation-filters="sRGB">
      <feGaussianBlur stdDeviation="1.619"/>
    </filter>
    <filter id="m" width="1.48" height="1.48" x="-.24" y="-.24">
      <feGaussianBlur stdDeviation="1.465"/>
    </filter>
    <radialGradient xlink:href="#f" id="w" cx="-757.205" cy="-738.838" r="3.48" fx="-757.205" fy="-738.838" gradientTransform="matrix(1.85082 0 0 1.77506 644.25 572.636)" gradientUnits="userSpaceOnUse"/>
    <mask id="l" maskUnits="userSpaceOnUse"/>
  </defs>
  <path fill="#f4fcff" stroke="url(#h)" d="M2.5 1041.862h12.928v11.033H2.501z" transform="translate(-.912 -1038.372)"/>
  <path fill="url(#i)" d="M4 1045.362v7.031H3v-8.03z" transform="translate(-.912 -1038.372)"/>
  <path fill="url(#j)" d="M4 1045.362h10.928v-1H3z" transform="translate(-.912 -1038.372)"/>
  <path fill="#58b6e8" stroke="url(#k)" d="M2.5 1041.862h12.884v2.005H2.501z" transform="translate(-.912 -1038.372)"/>
  <g mask="url(#l)" transform="translate(-.912 -1038.372)">
    <path fill="#fff" stroke="#fff" stroke-linecap="round" stroke-linejoin="round" stroke-width="5.855" d="M-16.307 1023.014s.755 2.755 2.664 4.664c1.908 1.908 4.663 2.663 4.663 2.663s-2.739.74-4.663 2.663c-1.925 1.925-2.664 4.664-2.664 4.664s-.676-2.677-2.663-4.664c-1.987-1.986-4.663-2.663-4.663-2.663s2.801-.802 4.663-2.663c1.862-1.862 2.663-4.664 2.663-4.664z" filter="url(#m)" opacity=".85" transform="matrix(.51238 0 0 .51238 21.788 514.893)"/>
  </g>
  <path fill="none" stroke="#ffe99f" stroke-width="3" d="M-106.133 1054.848c15.378 0 21.18-6.823 21.18-24.226" filter="url(#n)" transform="matrix(.40514 0 0 .40514 47.105 -412.803)"/>
  <path fill="#fee9ac" fill-opacity=".969" d="M11.51 10.683s.079.344.304.59c.225.246.56.354.56.354s-.341.076-.59.303c-.247.227-.353.561-.353.561s-.07-.334-.303-.59a1.397 1.397 0 0 0-.561-.354s.35-.084.59-.303c.24-.22.354-.56.354-.56zM10.475 12.45s-.132.318-.09.642c.04.323.247.6.247.6s-.316-.133-.642-.09c-.326.04-.6.248-.6.248s.134-.306.091-.643c-.043-.337-.248-.6-.248-.6s.327.131.642.09c.316-.04.6-.248.6-.248zM8.201 13.319s-.036.276.064.52c.1.245.32.417.32.417s-.275-.037-.521.064c-.246.1-.416.32-.416.32s.04-.268-.064-.522a1.106 1.106 0 0 0-.32-.416s.283.034.521-.064c.238-.097.416-.32.416-.32zM6.097 14.08s-.03.177.03.337a.75.75 0 0 0 .196.274s-.176-.03-.337.03c-.16.058-.275.196-.275.196s.032-.17-.03-.337c-.06-.165-.196-.274-.196-.274s.181.028.337-.03a.767.767 0 0 0 .275-.197zM12.861 7.945s-.051.475.13.89c.18.415.562.702.562.702s-.472-.053-.89.128c-.418.182-.702.564-.702.564s.06-.459-.128-.89c-.188-.432-.564-.702-.564-.702s.486.047.89-.129c.405-.176.702-.563.702-.563z" opacity=".85"/>
  <path fill="url(#o)" d="M-7.008 1053.62h2l1.492-1.484h-2.03z" transform="translate(15.052 -1046.653)"/>
  <path fill="url(#p)" d="M-5.008 1055.62h4v-1l-.476-.484h-2.032z" transform="translate(15.052 -1046.653)"/>
  <path fill="url(#q)" d="M-1.484 1052.136v2l.476.484v-2z" transform="translate(15.052 -1046.653)"/>
  <path fill="url(#r)" d="M-5.008 1053.62v2l1.492-1.484v-2z" transform="translate(15.052 -1046.653)"/>
  <path fill="url(#s)" d="M-7.008 1048.62v5l1.461-1.484v-2z" transform="translate(15.052 -1046.653)"/>
  <path fill="url(#t)" d="M-5.008 1048.62h-2l1.461 1.516h2.031z" transform="translate(15.052 -1046.653)"/>
  <path fill="url(#u)" d="m-5.008 1048.62 1.504 1.527v-1.515z" transform="translate(15.052 -1046.653)"/>
  <path fill="url(#v)" d="M-1.012 1052.136h-.472l.476.484h-.004z" transform="translate(15.052 -1046.653)"/>
  <path fill="url(#w)" stroke="#a27d18" stroke-width="1.032" d="M-758.823-740.411h4.583v4.454h-4.583z" transform="rotate(-135 -218.145 -526.05)"/>
  <path fill="url(#x)" d="M12.471 1054.309h1.001v1.946h1.987v1.017h-1.987v2.043h-1v-2.043h-1.987v-1.017h1.986z" transform="translate(-.422 -1052.277)"/>
</svg>
