<svg xmlns="http://www.w3.org/2000/svg" xmlns:xlink="http://www.w3.org/1999/xlink" width="16" height="16">
  <defs>
    <linearGradient id="c">
      <stop offset="0" stop-color="#fff"/>
      <stop offset="1" stop-color="#fff" stop-opacity="0"/>
    </linearGradient>
    <linearGradient id="b">
      <stop offset="0" stop-color="#c7b571"/>
      <stop offset="1" stop-color="#989891"/>
    </linearGradient>
    <linearGradient id="a">
      <stop offset="0" stop-color="#f9fafc"/>
      <stop offset="1" stop-color="#dce7f7"/>
    </linearGradient>
    <linearGradient xlink:href="#a" id="g" x1="7.464" x2="7.464" y1="3" y2="15" gradientTransform="translate(0 1036.362)" gradientUnits="userSpaceOnUse"/>
    <linearGradient xlink:href="#b" id="f" x1="8" x2="8" y1="1038.362" y2="1052.362" gradientTransform="translate(-2)" gradientUnits="userSpaceOnUse"/>
    <linearGradient xlink:href="#c" id="h" x1="10" x2="10.008" y1="5" y2="6.984" gradientTransform="translate(-.008 1036.378)" gradientUnits="userSpaceOnUse"/>
    <linearGradient xlink:href="#c" id="i" x1="12" x2="12" y1="1043.362" y2="1045.347" gradientTransform="translate(-.008 .016)" gradientUnits="userSpaceOnUse"/>
    <linearGradient xlink:href="#c" id="j" x1="13" x2="15.008" y1="1043.362" y2="1043.347" gradientTransform="translate(-.008 .016)" gradientUnits="userSpaceOnUse"/>
    <linearGradient xlink:href="#c" id="k" x1="12" x2="10.008" y1="1042.362" y2="1042.362" gradientTransform="translate(-.008 .016)" gradientUnits="userSpaceOnUse"/>
    <linearGradient xlink:href="#c" id="l" x1="10" x2="8.008" y1="1041.362" y2="1041.347" gradientTransform="translate(-.008 .016)" gradientUnits="userSpaceOnUse"/>
    <linearGradient xlink:href="#c" id="m" x1="10" x2="10.008" y1="1040.362" y2="1038.347" gradientTransform="translate(-.008 .016)" gradientUnits="userSpaceOnUse"/>
    <linearGradient xlink:href="#c" id="n" x1="12" x2="10.008" y1="1038.362" y2="1038.347" gradientTransform="translate(-.008 .016)" gradientUnits="userSpaceOnUse"/>
    <linearGradient xlink:href="#c" id="o" x1="14" x2="14" y1="1041.362" y2="1043.347" gradientTransform="translate(-.008 .016)" gradientUnits="userSpaceOnUse"/>
    <linearGradient id="d">
      <stop offset="0" stop-color="#e0c576"/>
      <stop offset="1" stop-color="#9e7916"/>
    </linearGradient>
    <linearGradient xlink:href="#e" id="q" x1=".938" x2=".938" y1="4.844" y2="7.549" gradientTransform="matrix(2.31999 0 0 2.31999 10.2 1043.185)" gradientUnits="userSpaceOnUse"/>
    <linearGradient id="e">
      <stop offset="0" stop-color="#f7f9fb"/>
      <stop offset="1" stop-color="#ffd680"/>
    </linearGradient>
    <radialGradient xlink:href="#d" id="p" cx="-757.205" cy="-738.838" r="3.48" fx="-757.205" fy="-738.838" gradientTransform="matrix(1.85082 0 0 1.77506 644.25 572.636)" gradientUnits="userSpaceOnUse"/>
  </defs>
  <path fill="url(#f)" d="M3 1038.362v14h11v-14H3zm1 1h9v12H4v-12z" transform="translate(0 -1036.362)"/>
  <path fill="url(#g)" d="M4 1039.362h9v12H4z" transform="translate(0 -1036.362)"/>
  <path fill="url(#h)" d="M8 1043.362h2l1.492-1.484H9.461z" transform="matrix(1.19543 0 0 1.19543 -2.407 -1240.654)"/>
  <path fill="url(#i)" d="M10 1045.362h4v-1l-.477-.484h-2.03z" transform="matrix(1.19543 0 0 1.19543 -2.407 -1240.654)"/>
  <path fill="url(#j)" d="M13.523 1041.878v2l.477.484v-2z" transform="matrix(1.19543 0 0 1.19543 -2.407 -1240.654)"/>
  <path fill="url(#k)" d="M10 1043.362v2l1.492-1.484v-2z" transform="matrix(1.19543 0 0 1.19543 -2.407 -1240.654)"/>
  <path fill="url(#l)" d="M8 1038.362v5l1.46-1.484 1.755-2z" transform="matrix(1.19543 0 0 1.19543 -2.407 -1240.654)"/>
  <path fill="url(#m)" d="M10 1038.362H8l1.46 1.516h2.032z" transform="matrix(1.19543 0 0 1.19543 -2.407 -1240.654)"/>
  <path fill="url(#n)" d="m10 1038.362 1.504 1.527v-1.515z" transform="matrix(1.19543 0 0 1.19543 -2.407 -1240.654)"/>
  <path fill="url(#o)" d="M13.996 1041.878h-.473l.477.484h-.004z" transform="matrix(1.19543 0 0 1.19543 -2.407 -1240.654)"/>
  <path fill="url(#p)" stroke="#a27d18" stroke-width="1.032" d="M-758.823-740.411h4.583v4.454h-4.583z" transform="rotate(-135 -218.376 -526.517)"/>
  <path fill="url(#q)" d="M12.471 1054.309h1.001v1.946h1.987v1.017h-1.987v2.043h-1v-2.043h-1.987v-1.017h1.986z" transform="translate(-.488 -1053.237)"/>
</svg>
