<svg xmlns="http://www.w3.org/2000/svg" xmlns:xlink="http://www.w3.org/1999/xlink" width="16" height="16">
  <defs>
    <linearGradient id="d">
      <stop offset="0" stop-color="#c48a4e"/>
      <stop offset="1" stop-color="#ad6c24"/>
    </linearGradient>
    <linearGradient id="b">
      <stop offset="0" stop-color="#f8d078"/>
      <stop offset="1" stop-color="#f8f0c8"/>
    </linearGradient>
    <linearGradient id="c">
      <stop offset="0" stop-color="#9e6627"/>
      <stop offset="1" stop-color="#c38536"/>
    </linearGradient>
    <linearGradient id="a">
      <stop offset="0" stop-color="#c38536"/>
      <stop offset=".154" stop-color="#f2dc91"/>
      <stop offset=".5" stop-color="#fbdc8b"/>
      <stop offset=".75" stop-color="#e6bd7a"/>
      <stop offset="1" stop-color="#ba772f"/>
    </linearGradient>
    <linearGradient xlink:href="#a" id="k" x1="523.008" x2="543.914" y1="373.229" y2="373.229" gradientTransform="matrix(.33026 0 0 .33026 -170.671 917.629)" gradientUnits="userSpaceOnUse"/>
    <linearGradient xlink:href="#b" id="i" x1="538.006" x2="538.006" y1="396.223" y2="374.212" gradientTransform="matrix(.33026 0 0 .33026 -170.671 917.16)" gradientUnits="userSpaceOnUse"/>
    <linearGradient xlink:href="#c" id="j" x1="548.459" x2="548.459" y1="398.988" y2="373.771" gradientTransform="matrix(.33026 0 0 .33026 -170.671 917.16)" gradientUnits="userSpaceOnUse"/>
    <linearGradient xlink:href="#d" id="h" x1="531.093" x2="531.093" y1="366.789" y2="371.179" gradientTransform="matrix(.33026 0 0 .33026 -170.938 917.638)" gradientUnits="userSpaceOnUse"/>
    <linearGradient xlink:href="#e" id="s" x1="14" x2="14" y1="1041.362" y2="1043.347" gradientTransform="translate(-15.016 10.273)" gradientUnits="userSpaceOnUse"/>
    <linearGradient id="e">
      <stop offset="0" stop-color="#fff"/>
      <stop offset="1" stop-color="#fff" stop-opacity="0"/>
    </linearGradient>
    <linearGradient xlink:href="#e" id="r" x1="12" x2="10.008" y1="1038.362" y2="1038.347" gradientTransform="translate(-15.016 10.273)" gradientUnits="userSpaceOnUse"/>
    <linearGradient xlink:href="#e" id="q" x1="10" x2="10.008" y1="1040.362" y2="1038.347" gradientTransform="translate(-15.016 10.273)" gradientUnits="userSpaceOnUse"/>
    <linearGradient xlink:href="#e" id="p" x1="10" x2="8.008" y1="1041.362" y2="1041.347" gradientTransform="translate(-15.016 10.273)" gradientUnits="userSpaceOnUse"/>
    <linearGradient xlink:href="#e" id="o" x1="12" x2="10.008" y1="1042.362" y2="1042.362" gradientTransform="translate(-15.016 10.273)" gradientUnits="userSpaceOnUse"/>
    <linearGradient xlink:href="#e" id="n" x1="13" x2="15.008" y1="1043.362" y2="1043.347" gradientTransform="translate(-15.016 10.273)" gradientUnits="userSpaceOnUse"/>
    <linearGradient xlink:href="#e" id="m" x1="12" x2="12" y1="1043.362" y2="1045.347" gradientTransform="translate(-15.016 10.273)" gradientUnits="userSpaceOnUse"/>
    <linearGradient xlink:href="#e" id="l" x1="10" x2="10.008" y1="5" y2="6.984" gradientTransform="translate(-15.016 1046.636)" gradientUnits="userSpaceOnUse"/>
    <linearGradient id="f">
      <stop offset="0" stop-color="#e0c576"/>
      <stop offset="1" stop-color="#9e7916"/>
    </linearGradient>
    <linearGradient xlink:href="#g" id="u" x1=".938" x2=".938" y1="4.844" y2="7.549" gradientTransform="matrix(2.31999 0 0 2.31999 10.2 1043.185)" gradientUnits="userSpaceOnUse"/>
    <linearGradient id="g">
      <stop offset="0" stop-color="#f7f9fb"/>
      <stop offset="1" stop-color="#ffd680"/>
    </linearGradient>
    <radialGradient xlink:href="#f" id="t" cx="-757.205" cy="-738.838" r="3.48" fx="-757.205" fy="-738.838" gradientTransform="matrix(1.85082 0 0 1.77506 644.25 572.636)" gradientUnits="userSpaceOnUse"/>
  </defs>
  <g transform="translate(0 -1036.362)">
    <rect width="4.954" height="5.491" x="2.484" y="1038.859" fill="#fdf7eb" stroke="url(#h)" stroke-linecap="round" stroke-linejoin="round" font-family="AustralianFlyingCorpsStencil" font-size="11.052" font-weight="400" letter-spacing="0" rx=".867" ry=".867" style="text-align:start;line-height:125%;-inkscape-font-specification:AustralianFlyingCorpsStencil" word-spacing="0"/>
    <path fill="url(#i)" stroke="url(#j)" stroke-linecap="round" stroke-linejoin="round" d="M2.32 1040.891h10.283c.48 0 .867.387.867.867v6.28c0 .481-.387.87-.867.868l-10.282-.051a.865.865 0 0 1-.867-.867v-6.23c0-.48.386-.867.867-.867z" font-family="AustralianFlyingCorpsStencil" font-size="11.052" font-weight="400" letter-spacing="0" style="text-align:start;line-height:125%;-inkscape-font-specification:AustralianFlyingCorpsStencil" word-spacing="0"/>
    <path fill="none" stroke="url(#k)" d="M1.995 1040.891H8.63" font-family="AustralianFlyingCorpsStencil" font-size="11.052" font-weight="400" letter-spacing="0" style="text-align:start;line-height:125%;-inkscape-font-specification:AustralianFlyingCorpsStencil" word-spacing="0"/>
    <path fill="url(#l)" d="M-7.008 1053.62h2l1.492-1.484h-2.03z" transform="translate(14 -11.188)"/>
    <path fill="url(#m)" d="M-5.008 1055.62h4v-1l-.476-.484h-2.032z" transform="translate(14 -11.188)"/>
    <path fill="url(#n)" d="M-1.484 1052.136v2l.476.484v-2z" transform="translate(14 -11.188)"/>
    <path fill="url(#o)" d="M-5.008 1053.62v2l1.492-1.484v-2z" transform="translate(14 -11.188)"/>
    <path fill="url(#p)" d="M-7.008 1048.62v5l1.461-1.484v-2z" transform="translate(14 -11.188)"/>
    <path fill="url(#q)" d="M-5.008 1048.62h-2l1.461 1.516h2.031z" transform="translate(14 -11.188)"/>
    <path fill="url(#r)" d="m-5.008 1048.62 1.504 1.527v-1.515z" transform="translate(14 -11.188)"/>
    <path fill="url(#s)" d="M-1.012 1052.136h-.472l.476.484h-.004z" transform="translate(14 -11.188)"/>
    <path fill="url(#t)" stroke="#a27d18" stroke-width="1.032" d="M-758.823-740.411h4.583v4.454h-4.583z" transform="rotate(-135 -4.219 -8.1)"/>
    <path fill="url(#u)" d="M12.471 1054.309h1.001v1.946h1.987v1.017h-1.987v2.043h-1v-2.043h-1.987v-1.017h1.986z" transform="translate(-1.474 -16.812)"/>
  </g>
</svg>
