<svg xmlns="http://www.w3.org/2000/svg" xmlns:xlink="http://www.w3.org/1999/xlink" width="16" height="16">
  <defs/>
  <defs>
    <linearGradient id="m">
      <stop offset="0" stop-color="#ffd175"/>
      <stop offset="1" stop-color="#fff1c2"/>
    </linearGradient>
    <linearGradient id="f">
      <stop offset="0" stop-color="#92b5eb"/>
      <stop offset="1" stop-color="#b1e1fd"/>
    </linearGradient>
    <linearGradient id="b">
      <stop offset="0" stop-color="#c38536" stop-opacity="0"/>
      <stop offset=".154" stop-color="#f2dc91"/>
      <stop offset=".5" stop-color="#fbdc8b"/>
      <stop offset=".75" stop-color="#e6bd7a"/>
      <stop offset="1" stop-color="#ba772f" stop-opacity="0"/>
    </linearGradient>
    <linearGradient id="l">
      <stop offset="0" stop-color="#fff"/>
      <stop offset="1" stop-color="#fff" stop-opacity="0"/>
    </linearGradient>
    <linearGradient id="n">
      <stop offset="0" stop-color="#f7f9fb"/>
      <stop offset="1" stop-color="#ffd680"/>
    </linearGradient>
    <linearGradient xlink:href="#a" id="q" x1="14" x2="14" y1="4" y2="6" gradientTransform="matrix(3.5838 0 0 3.5838 464.144 348.895)" gradientUnits="userSpaceOnUse"/>
    <linearGradient xlink:href="#b" id="v" x1="523.008" x2="543.914" y1="373.229" y2="373.229" gradientTransform="translate(-60.559 -1.703)" gradientUnits="userSpaceOnUse"/>
    <linearGradient xlink:href="#c" id="u" x1="548.459" x2="548.459" y1="398.988" y2="373.771" gradientTransform="translate(-60.559)" gradientUnits="userSpaceOnUse"/>
    <linearGradient xlink:href="#d" id="t" x1="548.459" x2="548.459" y1="398.988" y2="373.771" gradientTransform="translate(-60.559)" gradientUnits="userSpaceOnUse"/>
    <linearGradient xlink:href="#e" id="z" x1="546.633" x2="546.583" y1="397.264" y2="382.124" gradientTransform="matrix(1 0 0 1.41657 344.324 0)" gradientUnits="userSpaceOnUse"/>
    <linearGradient xlink:href="#f" id="y" x1="537.943" x2="537.902" y1="397.561" y2="385.152" gradientTransform="matrix(1 0 0 1.41657 344.324 0)" gradientUnits="userSpaceOnUse"/>
    <linearGradient xlink:href="#g" id="r" x1="531.093" x2="531.093" y1="366.789" y2="371.179" gradientTransform="translate(-61.177 -1.583)" gradientUnits="userSpaceOnUse"/>
    <linearGradient id="g">
      <stop offset="0" stop-color="#d1ad79"/>
      <stop offset="1" stop-color="#ce9650"/>
    </linearGradient>
    <linearGradient id="e">
      <stop offset="0" stop-color="#5a6eb9"/>
      <stop offset="1" stop-color="#7a82ab"/>
    </linearGradient>
    <linearGradient id="a">
      <stop offset="0" stop-color="#958189"/>
      <stop offset="1" stop-color="#897b8d"/>
    </linearGradient>
    <linearGradient id="d">
      <stop offset="0" stop-color="#9e6627"/>
      <stop offset="1" stop-color="#cf9852"/>
    </linearGradient>
    <linearGradient id="c">
      <stop offset="0" stop-color="#5d70b8"/>
      <stop offset=".5" stop-color="#757eab"/>
      <stop offset="1" stop-color="#567ebc" stop-opacity="0"/>
    </linearGradient>
    <linearGradient xlink:href="#l" id="E" x1="10" x2="10.008" y1="5" y2="6.984" gradientTransform="translate(-15.016 1046.636)" gradientUnits="userSpaceOnUse"/>
    <linearGradient xlink:href="#l" id="F" x1="12" x2="12" y1="1043.362" y2="1045.347" gradientTransform="translate(-15.016 10.273)" gradientUnits="userSpaceOnUse"/>
    <linearGradient xlink:href="#l" id="G" x1="13" x2="15.008" y1="1043.362" y2="1043.347" gradientTransform="translate(-15.016 10.273)" gradientUnits="userSpaceOnUse"/>
    <linearGradient xlink:href="#l" id="H" x1="12" x2="10.008" y1="1042.362" y2="1042.362" gradientTransform="translate(-15.016 10.273)" gradientUnits="userSpaceOnUse"/>
    <linearGradient xlink:href="#l" id="I" x1="10" x2="8.008" y1="1041.362" y2="1041.347" gradientTransform="translate(-15.016 10.273)" gradientUnits="userSpaceOnUse"/>
    <linearGradient xlink:href="#l" id="J" x1="10" x2="10.008" y1="1040.362" y2="1038.347" gradientTransform="translate(-15.016 10.273)" gradientUnits="userSpaceOnUse"/>
    <linearGradient xlink:href="#l" id="K" x1="12" x2="10.008" y1="1038.362" y2="1038.347" gradientTransform="translate(-15.016 10.273)" gradientUnits="userSpaceOnUse"/>
    <linearGradient xlink:href="#l" id="L" x1="14" x2="14" y1="1041.362" y2="1043.347" gradientTransform="translate(-15.016 10.273)" gradientUnits="userSpaceOnUse"/>
    <linearGradient xlink:href="#m" id="s" x1="538.006" x2="538.006" y1="396.223" y2="374.212" gradientTransform="translate(-60.559)" gradientUnits="userSpaceOnUse"/>
    <linearGradient xlink:href="#n" id="M" x1=".938" x2=".938" y1="4.844" y2="7.549" gradientTransform="matrix(2.31999 0 0 2.31999 10.2 1043.185)" gradientUnits="userSpaceOnUse"/>
    <mask id="w" maskUnits="userSpaceOnUse">
      <use xlink:href="#reuse-0" stroke-linecap="round" stroke-linejoin="round" stroke-width="2"/>
    </mask>
    <mask id="h" maskUnits="userSpaceOnUse">
      <use xlink:href="#reuse-0" stroke-linecap="round" stroke-linejoin="round" stroke-width="2"/>
    </mask>
    <mask id="C" maskUnits="userSpaceOnUse">
      <g fill="#fff">
        <g stroke="#fff">
          <g transform="matrix(.33026 0 0 .33026 -149.73 922.092)">
            <rect width="15" height="16.625" x="463.933" y="365.467" stroke-linecap="round" stroke-linejoin="round" stroke-width="3.028" rx="2.625" ry="2.625"/>
            <use xlink:href="#reuse-1" stroke-linecap="round" stroke-linejoin="round" stroke-width="3.028"/>
            <use xlink:href="#reuse-2" stroke-linecap="round" stroke-linejoin="round" stroke-width="3.028"/>
            <use xlink:href="#reuse-3" stroke-width="3.028"/>
            <g mask="url(#h)">
              <rect width="30.9" height="22.649" x="860.685" y="542.897" stroke-linecap="round" stroke-linejoin="round" stroke-width="2.38" filter="url(#i)" opacity=".5" rx="2.625" ry="3.718" transform="skewX(-45.095) scale(1 .70593)"/>
            </g>
            <rect width="30.237" height="21.543" x="860.685" y="543.433" stroke-linecap="round" stroke-linejoin="round" stroke-width="3.604" rx="2.625" ry="3.718" transform="skewX(-45.095) scale(1 .70593)"/>
          </g>
        </g>
      </g>
    </mask>
    <mask id="p" maskUnits="userSpaceOnUse">
      <g fill="#fff">
        <g stroke="#fff">
          <g transform="translate(-523.09 714.8) scale(.81516)">
            <rect width="15" height="16.625" x="463.933" y="365.467" stroke-linecap="round" stroke-linejoin="round" stroke-width="3.028" rx="2.625" ry="2.625"/>
            <use xlink:href="#reuse-1" stroke-linecap="round" stroke-linejoin="round" stroke-width="3.028"/>
            <use xlink:href="#reuse-2" stroke-linecap="round" stroke-linejoin="round" stroke-width="3.028"/>
            <use xlink:href="#reuse-3" stroke-width="3.028"/>
            <g mask="url(#h)">
              <rect width="30.9" height="22.649" x="860.685" y="542.897" stroke-linecap="round" stroke-linejoin="round" stroke-width="2.38" filter="url(#i)" opacity=".5" rx="2.625" ry="3.718" transform="skewX(-45.095) scale(1 .70593)"/>
            </g>
            <rect width="30.237" height="21.543" x="860.685" y="543.433" stroke-linecap="round" stroke-linejoin="round" stroke-width="3.604" rx="2.625" ry="3.718" transform="skewX(-45.095) scale(1 .70593)"/>
          </g>
        </g>
      </g>
    </mask>
    <mask id="o" maskUnits="userSpaceOnUse">
      <g fill="#fff">
        <g stroke="#fff">
          <g transform="matrix(.33026 0 0 .33026 -151.316 894.635)">
            <rect width="15" height="16.625" x="463.933" y="365.467" stroke-linecap="round" stroke-linejoin="round" stroke-width="3.028" rx="2.625" ry="2.625"/>
            <use xlink:href="#reuse-1" stroke-linecap="round" stroke-linejoin="round" stroke-width="3.028"/>
            <use xlink:href="#reuse-2" stroke-linecap="round" stroke-linejoin="round" stroke-width="3.028"/>
            <use xlink:href="#reuse-3" stroke-width="3.028"/>
            <g mask="url(#h)">
              <rect width="30.9" height="22.649" x="860.685" y="542.897" stroke-linecap="round" stroke-linejoin="round" stroke-width="2.38" filter="url(#i)" opacity=".5" rx="2.625" ry="3.718" transform="skewX(-45.095) scale(1 .70593)"/>
            </g>
            <rect width="30.237" height="21.543" x="860.685" y="543.433" stroke-linecap="round" stroke-linejoin="round" stroke-width="3.604" rx="2.625" ry="3.718" transform="skewX(-45.095) scale(1 .70593)"/>
          </g>
        </g>
      </g>
    </mask>
    <mask id="j" maskUnits="userSpaceOnUse">
      <use xlink:href="#reuse-0" stroke-linecap="round" stroke-linejoin="round" stroke-width="2"/>
    </mask>
    <mask id="A" maskUnits="userSpaceOnUse">
      <g fill="#fff" stroke="#fff">
        <g transform="matrix(.33026 0 0 .33026 -150.62 920.15)">
          <rect width="15" height="16.625" x="463.933" y="365.467" stroke-linecap="round" stroke-linejoin="round" stroke-width="3.028" rx="2.625" ry="2.625"/>
          <use xlink:href="#reuse-1" stroke-linecap="round" stroke-linejoin="round" stroke-width="3.028"/>
          <use xlink:href="#reuse-2" stroke-linecap="round" stroke-linejoin="round" stroke-width="3.028"/>
          <use xlink:href="#reuse-3" stroke-width="3.028"/>
          <g mask="url(#j)">
            <rect width="30.9" height="22.649" x="860.685" y="542.897" stroke-linecap="round" stroke-linejoin="round" stroke-width="2.38" filter="url(#k)" opacity=".5" rx="2.625" ry="3.718" transform="skewX(-45.095) scale(1 .70593)"/>
          </g>
          <rect width="30.237" height="21.543" x="860.685" y="543.433" stroke-linecap="round" stroke-linejoin="round" stroke-width="3.604" rx="2.625" ry="3.718" transform="skewX(-45.095) scale(1 .70593)"/>
        </g>
      </g>
    </mask>
    <filter id="D" width="1.48" height="1.48" x="-.24" y="-.24">
      <feGaussianBlur stdDeviation="1.465"/>
    </filter>
    <filter id="x" width="1.275" height="1.755" x="-.138" y="-.377">
      <feGaussianBlur stdDeviation="3.562"/>
    </filter>
    <filter id="i" width="1.275" height="1.755" x="-.138" y="-.377" color-interpolation-filters="sRGB">
      <feGaussianBlur stdDeviation="3.562"/>
    </filter>
    <filter id="k" width="1.275" height="1.755" x="-.138" y="-.377" color-interpolation-filters="sRGB">
      <feGaussianBlur stdDeviation="3.562"/>
    </filter>
    <filter id="B" width="1.54" height="1.27" x="-.27" y="-.135">
      <feGaussianBlur stdDeviation=".426"/>
    </filter>
  </defs>
  <path fill="url(#q)" d="M464.144 363.231h54.015v7.168h-54.015z" transform="matrix(.27903 0 0 .27903 -128.549 -96.286)"/>
  <g transform="matrix(.33026 0 0 .33026 -149.647 -117.133)">
    <rect width="15" height="16.625" x="463.933" y="365.467" fill="#fdf7eb" stroke="url(#r)" stroke-linecap="round" stroke-linejoin="round" stroke-width="3.028" rx="2.625" ry="2.625"/>
    <path fill="url(#s)" stroke="url(#t)" stroke-linecap="round" stroke-linejoin="round" stroke-width="3.028" d="M463.249 371.543h31.103a2.62 2.62 0 0 1 2.625 2.625v14.399c0 1.454-1.212 2.281-2.625 2.625l-31.103 7.57c-1.413.344-2.625-1.171-2.625-2.625v-21.97a2.62 2.62 0 0 1 2.625-2.624z"/>
    <path fill="none" stroke="url(#u)" stroke-linecap="round" stroke-linejoin="round" stroke-width="3.028" d="M463.249 371.61h31.103a2.62 2.62 0 0 1 2.625 2.625v14.332c0 1.454-1.212 2.281-2.625 2.625l-31.103 7.57c-1.413.344-2.625-1.171-2.625-2.625v-21.902a2.62 2.62 0 0 1 2.625-2.625z"/>
    <path fill="none" stroke="url(#v)" stroke-width="3.028" d="M462.262 371.526h20.093"/>
    <g mask="url(#w)">
      <rect width="30.9" height="22.649" x="860.685" y="542.897" stroke="#000" stroke-linecap="round" stroke-linejoin="round" stroke-width="2.38" filter="url(#x)" opacity=".5" rx="2.625" ry="3.718" transform="skewX(-45.095) scale(1 .70593)"/>
    </g>
    <rect width="30.237" height="21.543" x="860.685" y="543.433" fill="url(#y)" stroke="url(#z)" stroke-linecap="round" stroke-linejoin="round" stroke-width="3.604" rx="2.625" ry="3.718" transform="skewX(-45.095) scale(1 .70593)"/>
  </g>
  <path fill="#767fad" d="M8.963 9.067h-4v1h.565v-.411h3.31z"/>
  <g mask="url(#A)" transform="translate(.972 -1037.284)">
    <path fill="#fff" stroke="#fff" stroke-width="2" d="M5.703 1044.937a3.277 3.277 0 0 1-.577-.11c-.271-.08-.244.015-.244-.86 0-.458.008-.76.02-.764.01 0 .031 0 .046.013.049.037.295.162.376.192.187.07.466.103.664.083.436-.047.733-.294.881-.739.12-.358.115-.22.127-2.908l.011-2.474H8.666l.006 2.306c.007 2.384 0 2.663-.077 3.097-.157.881-.599 1.544-1.255 1.88-.44.226-1.08.337-1.637.284z" filter="url(#B)" opacity=".75"/>
  </g>
  <g mask="url(#C)" transform="translate(.083 -1039.224)">
    <path fill="#fff" stroke="#fff" stroke-linecap="round" stroke-linejoin="round" stroke-width="5.855" d="M-16.307 1023.014s.755 2.755 2.664 4.664c1.908 1.908 4.663 2.663 4.663 2.663s-2.739.74-4.663 2.663c-1.925 1.925-2.664 4.664-2.664 4.664s-.676-2.677-2.663-4.664c-1.987-1.986-4.663-2.663-4.663-2.663s2.801-.802 4.663-2.663c1.862-1.862 2.663-4.664 2.663-4.664z" filter="url(#D)" opacity=".85" transform="matrix(.51238 0 0 .51238 21.788 514.893)"/>
  </g>
  <path fill="url(#E)" d="M-7.008 1053.62h2l1.492-1.484h-2.03z" transform="translate(15.033 -1046.673)"/>
  <path fill="url(#F)" d="M-5.008 1055.62h4v-1l-.476-.484h-2.032z" transform="translate(15.033 -1046.673)"/>
  <path fill="url(#G)" d="M-1.484 1052.136v2l.476.484v-2z" transform="translate(15.033 -1046.673)"/>
  <path fill="url(#H)" d="M-5.008 1053.62v2l1.492-1.484v-2z" transform="translate(15.033 -1046.673)"/>
  <path fill="url(#I)" d="M-7.008 1048.62v5l1.461-1.484v-2z" transform="translate(15.033 -1046.673)"/>
  <path fill="url(#J)" d="M-5.008 1048.62h-2l1.461 1.516h2.031z" transform="translate(15.033 -1046.673)"/>
  <path fill="url(#K)" d="m-5.008 1048.62 1.504 1.527v-1.515z" transform="translate(15.033 -1046.673)"/>
  <path fill="url(#L)" d="M-1.012 1052.136h-.472l.476.484h-.004z" transform="translate(15.033 -1046.673)"/>
  <path fill="#a27d18" stroke="#a27d18" stroke-width="1.032" d="M12.578 7.822 9.338 4.58l3.15-3.15 3.24 3.241z"/>
  <path fill="url(#M)" d="M12.471 1054.309h1.001v1.946h1.987v1.017h-1.987v2.043h-1v-2.043h-1.987v-1.017h1.986z" transform="translate(-.44 -1052.297)"/>
</svg>
