<svg xmlns="http://www.w3.org/2000/svg" xmlns:xlink="http://www.w3.org/1999/xlink" width="16" height="16">
  <defs>
    <linearGradient id="d">
      <stop offset="0" stop-color="#f9fafc"/>
      <stop offset="1" stop-color="#e0eaf7"/>
    </linearGradient>
    <linearGradient id="c">
      <stop offset="0" stop-color="#8a97ac"/>
      <stop offset="1" stop-color="#bfb688"/>
    </linearGradient>
    <linearGradient id="b">
      <stop offset="0" stop-color="#fbdd83"/>
      <stop offset="1" stop-color="#fefdef"/>
    </linearGradient>
    <linearGradient id="a">
      <stop offset="0" stop-color="#a66b10"/>
      <stop offset="1" stop-color="#bd8416"/>
    </linearGradient>
    <linearGradient xlink:href="#a" id="i" x1="1.063" x2="15.566" y1="1050.081" y2="1050.081" gradientTransform="matrix(0 .70176 -.72727 0 771.037 1038.336)" gradientUnits="userSpaceOnUse"/>
    <linearGradient xlink:href="#b" id="h" x1="1.686" x2="14.375" y1="1040.74" y2="1040.74" gradientTransform="matrix(0 .70176 -.72727 0 771.037 1038.336)" gradientUnits="userSpaceOnUse"/>
    <linearGradient xlink:href="#c" id="g" x1="2" x2="2" y1="1052.362" y2="1037.362" gradientTransform="matrix(.53333 0 0 1 7.233 0)" gradientUnits="userSpaceOnUse"/>
    <linearGradient xlink:href="#d" id="f" x1="15.143" x2="15" y1="1038.362" y2="1051.362" gradientTransform="matrix(1.6 0 0 1 -9.3 0)" gradientUnits="userSpaceOnUse"/>
    <linearGradient xlink:href="#e" id="j" x1="11.437" x2="14.526" y1="9.631" y2="15.131" gradientTransform="matrix(1.31009 0 0 1.18854 -8.537 -8.02)" gradientUnits="userSpaceOnUse"/>
    <linearGradient id="e">
      <stop offset="0" stop-color="#7695b8"/>
      <stop offset="1" stop-color="#8daac8"/>
    </linearGradient>
  </defs>
  <path fill="#095799" d="M6 10h6.01v1H6z"/>
  <path fill="url(#f)" stroke="url(#g)" d="M7.5 1037.862h8v14h-8z" transform="translate(0 -1036.362)"/>
  <path fill="none" stroke="#c1c6d9" d="M9 3.5h5"/>
  <path fill="none" stroke="#286296" d="M9 13.5h5"/>
  <path fill="none" stroke="#a7b3ce" d="M9 11.5h5"/>
  <path fill="url(#h)" stroke="url(#i)" stroke-linecap="square" stroke-linejoin="round" d="M9.518 1039.862v4.012H7.5v1.128l4 3.86 4-3.86v-1.128h-1.985v-4.012z" transform="translate(0 -1036.362)"/>
  <path fill="#095799" d="M.996 10H8v1H.996z"/>
  <path fill="url(#j)" stroke="#095799" d="M7.615 3.878 6.518 2.066l-4.575 8.366 3.5-6.375L7.58 6.902"/>
</svg>
