<svg xmlns="http://www.w3.org/2000/svg" xmlns:xlink="http://www.w3.org/1999/xlink" width="16" height="16">
  <defs>
    <linearGradient id="f">
      <stop offset="0" stop-color="#679fb0"/>
      <stop offset="1" stop-color="#fff" stop-opacity="0"/>
    </linearGradient>
    <linearGradient id="e">
      <stop offset="0" stop-color="#3c7a16"/>
      <stop offset="1" stop-color="#72b649"/>
    </linearGradient>
    <linearGradient id="d">
      <stop offset="0" stop-color="#d5f3ff"/>
      <stop offset="1" stop-color="#fff"/>
    </linearGradient>
    <linearGradient id="a">
      <stop offset="0" stop-color="#877e60"/>
      <stop offset="1" stop-color="#c0a753"/>
    </linearGradient>
    <linearGradient id="c">
      <stop offset="0" stop-color="#68b3e1"/>
      <stop offset="1" stop-color="#fff"/>
    </linearGradient>
    <linearGradient id="b">
      <stop offset="0" stop-color="#4476aa"/>
      <stop offset="1" stop-color="#fff"/>
    </linearGradient>
    <linearGradient xlink:href="#a" id="h" x1="24.022" x2="24.022" y1="1048.758" y2="1039.441" gradientTransform="translate(-33.875)" gradientUnits="userSpaceOnUse"/>
    <linearGradient xlink:href="#b" id="i" x1="16.794" x2="30.715" y1="1040.54" y2="1040.54" gradientTransform="translate(-9.325)" gradientUnits="userSpaceOnUse"/>
    <linearGradient xlink:href="#c" id="j" x1="7.469" x2="21.39" y1="1040.562" y2="1040.562" gradientUnits="userSpaceOnUse"/>
    <linearGradient xlink:href="#d" id="g" x1="3.04" x2="10.022" y1="1043.254" y2="1048.379" gradientTransform="translate(-17.125)" gradientUnits="userSpaceOnUse"/>
    <linearGradient xlink:href="#e" id="l" x1="18.139" x2="18.139" y1="1059.418" y2="1057.157" gradientUnits="userSpaceOnUse"/>
    <radialGradient xlink:href="#f" id="k" cx="9.525" cy="9.638" r="1.813" fx="9.525" fy="9.638" gradientTransform="matrix(.9132 -.76247 1.76397 2.11266 -17.14 1033.03)" gradientUnits="userSpaceOnUse"/>
  </defs>
  <g color="#000">
    <path fill="url(#g)" stroke="url(#h)" stroke-width=".9" d="M-16.197 1039.457h13.081v11.093h-13.081z" overflow="visible" style="marker:none" transform="translate(16.804 -1035.213)"/>
    <path fill="url(#i)" d="M7.425 1039.015h14.01v3.027H7.425z" overflow="visible" style="marker:none" transform="translate(-7.26 -1035.213)"/>
    <path fill="url(#j)" d="M7.425 1040.076H21.39v.972H7.425z" overflow="visible" style="marker:none" transform="translate(-7.26 -1035.213)"/>
  </g>
  <path fill="url(#k)" d="m8.931 1049.812-.743-4.387 4.312 2.23z" transform="translate(0 -1036.362)"/>
  <g color="#000" transform="rotate(45 1105.467 454.013) scale(.86037)">
    <rect width=".972" height="3.226" x="17.457" y="1060.627" overflow="visible" ry="0" style="marker:none"/>
    <g stroke="#007236" stroke-width=".9">
      <path fill="url(#l)" d="M17.545 1054.97h.538c.734 0 1.228.598 1.325 1.326l.391 2.916c.12.898-.73 1.635-1.635 1.635H17.5c-.906 0-1.744-.735-1.635-1.635l.353-2.916c.089-.73.592-1.326 1.326-1.326z" overflow="visible" style="marker:none"/>
      <path fill="#72b649" d="M26.65 17.591c0 .952-1.445 1.724-3.227 1.724-1.782 0-3.226-.772-3.226-1.724s1.444-1.724 3.226-1.724 3.226.772 3.226 1.724z" overflow="visible" style="marker:none" transform="matrix(.84973 0 0 .84973 -2.027 1040.314)"/>
    </g>
  </g>
</svg>
