<svg xmlns="http://www.w3.org/2000/svg" xmlns:xlink="http://www.w3.org/1999/xlink" width="16" height="16">
  <defs>
    <linearGradient id="d">
      <stop offset="0" stop-color="#f9fafc"/>
      <stop offset="1" stop-color="#e0eaf7"/>
    </linearGradient>
    <linearGradient id="c">
      <stop offset="0" stop-color="#8a97ac"/>
      <stop offset="1" stop-color="#bfb688"/>
    </linearGradient>
    <linearGradient id="b">
      <stop offset="0" stop-color="#fbdd83"/>
      <stop offset="1" stop-color="#fefdef"/>
    </linearGradient>
    <linearGradient id="a">
      <stop offset="0" stop-color="#a66b10"/>
      <stop offset="1" stop-color="#bd8416"/>
    </linearGradient>
    <linearGradient xlink:href="#a" id="j" x1="1.063" x2="15.566" y1="1050.081" y2="1050.081" gradientTransform="matrix(0 -.70176 -.72727 0 765.037 1051.389)" gradientUnits="userSpaceOnUse"/>
    <linearGradient xlink:href="#b" id="i" x1="1.686" x2="14.375" y1="1040.74" y2="1040.74" gradientTransform="matrix(0 -.70176 -.72727 0 765.037 1051.389)" gradientUnits="userSpaceOnUse"/>
    <linearGradient xlink:href="#c" id="g" x1="2" x2="2" y1="1052.362" y2="1037.362" gradientTransform="matrix(.53333 0 0 1 1.233 0)" gradientUnits="userSpaceOnUse"/>
    <linearGradient xlink:href="#d" id="f" x1="15.143" x2="15" y1="1038.362" y2="1051.362" gradientTransform="matrix(1.6 0 0 1 -15.3 0)" gradientUnits="userSpaceOnUse"/>
    <linearGradient xlink:href="#e" id="h" x1="11.437" x2="14.526" y1="9.631" y2="15.131" gradientTransform="matrix(1.31009 0 0 1.18854 -4.604 -4.05)" gradientUnits="userSpaceOnUse"/>
    <linearGradient id="e">
      <stop offset="0" stop-color="#7695b8"/>
      <stop offset="1" stop-color="#8daac8"/>
    </linearGradient>
  </defs>
  <path fill="url(#f)" stroke="url(#g)" d="M1.5 1037.862h8v14h-8z" transform="translate(0 -1036.362)"/>
  <path fill="none" stroke="#c1c6d9" d="M3 13.5h5"/>
  <path fill="none" stroke="#286296" d="M3 3.5h5"/>
  <path fill="none" stroke="#a7b3ce" d="M3 11.5h5"/>
  <path fill="#095799" d="M9.99 14H16v1H9.99z"/>
  <path fill="#095799" d="M6.996 14H14v1H6.996z"/>
  <path fill="url(#h)" stroke="#095799" d="M10.45 6.037c-.837 1.473.106-.394-.858 1.614l3.287 6.842 1.812.017z"/>
  <path fill="url(#i)" stroke="url(#j)" stroke-linecap="square" stroke-linejoin="round" d="M3.518 1049.862v-4.012H1.5v-1.128l4-3.86 4 3.86v1.128H7.515v4.012z" transform="translate(0 -1036.362)"/>
</svg>
