<svg xmlns="http://www.w3.org/2000/svg" xmlns:xlink="http://www.w3.org/1999/xlink" width="16" height="16">
  <defs>
    <linearGradient id="g">
      <stop offset="0" stop-color="#2846b3"/>
      <stop offset=".5" stop-color="#555f9e"/>
      <stop offset="1" stop-color="#567ebc" stop-opacity="0"/>
    </linearGradient>
    <linearGradient id="e">
      <stop offset="0" stop-color="#9e6627"/>
      <stop offset="1" stop-color="#cf9852"/>
    </linearGradient>
    <linearGradient id="d">
      <stop offset="0" stop-color="#ffd175"/>
      <stop offset="1" stop-color="#fff1c2"/>
    </linearGradient>
    <linearGradient id="b">
      <stop offset="0" stop-color="#92b5eb"/>
      <stop offset="1" stop-color="#b1e1fd"/>
    </linearGradient>
    <linearGradient id="f">
      <stop offset="0" stop-color="#958189"/>
      <stop offset="1" stop-color="#897b8d"/>
    </linearGradient>
    <linearGradient id="c">
      <stop offset="0" stop-color="#2846b3"/>
      <stop offset="1" stop-color="#60649d"/>
    </linearGradient>
    <linearGradient id="a">
      <stop offset="0" stop-color="#d1ad79"/>
      <stop offset="1" stop-color="#ce9650"/>
    </linearGradient>
    <linearGradient id="h">
      <stop offset="0" stop-color="#c38536" stop-opacity="0"/>
      <stop offset=".154" stop-color="#f2dc91"/>
      <stop offset=".5" stop-color="#fbdc8b"/>
      <stop offset=".75" stop-color="#e6bd7a"/>
      <stop offset="1" stop-color="#ba772f" stop-opacity="0"/>
    </linearGradient>
    <linearGradient xlink:href="#a" id="j" x1="531.093" x2="531.093" y1="366.789" y2="371.179" gradientTransform="translate(-61.177 -1.583)" gradientUnits="userSpaceOnUse"/>
    <linearGradient xlink:href="#b" id="q" x1="537.943" x2="537.902" y1="397.561" y2="385.152" gradientTransform="matrix(1 0 0 1.41657 344.324 0)" gradientUnits="userSpaceOnUse"/>
    <linearGradient xlink:href="#c" id="r" x1="546.633" x2="546.583" y1="397.264" y2="382.124" gradientTransform="matrix(1 0 0 1.41657 344.324 0)" gradientUnits="userSpaceOnUse"/>
    <linearGradient xlink:href="#d" id="k" x1="538.006" x2="538.006" y1="396.223" y2="374.212" gradientTransform="translate(-60.559)" gradientUnits="userSpaceOnUse"/>
    <linearGradient xlink:href="#e" id="l" x1="548.459" x2="548.459" y1="398.988" y2="373.771" gradientTransform="translate(-60.559)" gradientUnits="userSpaceOnUse"/>
    <linearGradient xlink:href="#f" id="i" x1="14" x2="14" y1="4" y2="6" gradientTransform="matrix(3.5838 0 0 3.5838 464.144 345.535)" gradientUnits="userSpaceOnUse"/>
    <linearGradient xlink:href="#g" id="m" x1="548.459" x2="548.459" y1="398.988" y2="373.771" gradientTransform="translate(-60.559)" gradientUnits="userSpaceOnUse"/>
    <linearGradient xlink:href="#h" id="n" x1="523.008" x2="543.914" y1="373.229" y2="373.229" gradientTransform="translate(-60.559 -1.703)" gradientUnits="userSpaceOnUse"/>
    <filter id="p" width="1.275" height="1.755" x="-.138" y="-.377">
      <feGaussianBlur stdDeviation="3.562"/>
    </filter>
    <mask id="o" maskUnits="userSpaceOnUse"/>
  </defs>
  <path fill="url(#i)" d="M464.144 359.871h57.341v7.168h-57.341z" transform="matrix(.27903 0 0 .27903 -129.512 -96.416)"/>
  <g transform="matrix(.33026 0 0 .33026 -150.61 -118.2)">
    <rect width="15" height="16.625" x="463.933" y="365.467" fill="#fdf7eb" stroke="url(#j)" stroke-linecap="round" stroke-linejoin="round" stroke-width="3.028" rx="2.625" ry="2.625"/>
    <path fill="url(#k)" stroke="url(#l)" stroke-linecap="round" stroke-linejoin="round" stroke-width="3.028" d="M463.249 371.543h31.103a2.62 2.62 0 0 1 2.625 2.625v14.399c0 1.454-1.212 2.281-2.625 2.625l-31.103 7.57c-1.413.344-2.625-1.171-2.625-2.625v-21.97a2.62 2.62 0 0 1 2.625-2.624z"/>
    <path fill="none" stroke="url(#m)" stroke-linecap="round" stroke-linejoin="round" stroke-width="3.028" d="M463.249 371.61h31.103a2.62 2.62 0 0 1 2.625 2.625v14.332c0 1.454-1.212 2.281-2.625 2.625l-31.103 7.57c-1.413.344-2.625-1.171-2.625-2.625v-21.902a2.62 2.62 0 0 1 2.625-2.625z"/>
    <path fill="none" stroke="url(#n)" stroke-width="3.028" d="M462.262 371.526h20.093"/>
    <g mask="url(#o)">
      <rect width="30.9" height="22.649" x="860.685" y="542.897" stroke="#000" stroke-linecap="round" stroke-linejoin="round" stroke-width="2.38" filter="url(#p)" opacity=".5" rx="2.625" ry="3.718" transform="skewX(-45.095) scale(1 .70593)"/>
    </g>
    <rect width="30.237" height="21.543" x="860.685" y="543.433" fill="url(#q)" stroke="url(#r)" stroke-linecap="round" stroke-linejoin="round" stroke-width="3.604" rx="2.625" ry="3.718" transform="skewX(-45.095) scale(1 .70593)"/>
  </g>
  <path fill="#60649d" d="M8 8H4v1h.565v-.411h3.31z"/>
</svg>
