<svg xmlns="http://www.w3.org/2000/svg" xmlns:xlink="http://www.w3.org/1999/xlink" width="16" height="16">
  <defs>
    <linearGradient id="b">
      <stop offset="0" stop-color="#5b6c89"/>
      <stop offset="1" stop-color="#8392a8"/>
    </linearGradient>
    <linearGradient id="a">
      <stop offset="0" stop-color="#a4b0c0"/>
      <stop offset="1" stop-color="#b7c2d0"/>
    </linearGradient>
    <linearGradient xlink:href="#a" id="c" x1="10.499" x2="13.625" y1="1041.862" y2="1041.862" gradientTransform="translate(-4)" gradientUnits="userSpaceOnUse"/>
    <linearGradient xlink:href="#b" id="d" x1="8.204" x2="10.336" y1="1046.328" y2="1040.693" gradientUnits="userSpaceOnUse"/>
  </defs>
  <path fill="#fff" stroke="#47698f" stroke-linecap="round" stroke-linejoin="round" d="M5.5 4.499h4.999v6.999H5.5z"/>
  <path fill="#b7c2d0" stroke="#b7c2d0" d="M5.563 7.5h4.843M5.563 9.5h4.843M7.51 4.792v6.844"/>
  <path fill="none" stroke="url(#c)" d="M5.563 1041.862h4.843" transform="translate(0 -1036.362)"/>
  <path fill="none" stroke="url(#d)" stroke-linecap="round" stroke-linejoin="round" d="M5.5 1040.861h4.999v6.999H5.5z" transform="translate(0 -1036.362)"/>
  <path fill="none" stroke="#81a3c9" stroke-linecap="round" stroke-linejoin="round" d="m12.5 5.5 2.031 2.016-2 1.984"/>
  <path fill="none" stroke="#47698f" stroke-linecap="round" stroke-linejoin="round" d="m12.5 4.5 3.063 3.016L12.53 10.5"/>
  <path fill="none" stroke="#81a3c9" stroke-linecap="round" stroke-linejoin="round" d="M3.594 5.5 1.516 7.516 3.546 9.5"/>
  <path fill="none" stroke="#47698f" stroke-linecap="round" stroke-linejoin="round" d="M3.594 4.5.484 7.516 3.547 10.5"/>
</svg>
