<svg xmlns="http://www.w3.org/2000/svg" xmlns:xlink="http://www.w3.org/1999/xlink" width="16" height="16">
  <defs>
    <linearGradient id="e">
      <stop offset="0" stop-color="#5b6c89"/>
      <stop offset="1" stop-color="#a0b0cc"/>
    </linearGradient>
    <linearGradient id="a">
      <stop offset="0" stop-color="#5b6c89"/>
      <stop offset="1" stop-color="#95a3ba"/>
    </linearGradient>
    <linearGradient xlink:href="#a" id="i" x1="15.001" x2="-8" y1="2" y2="1.375" gradientTransform="translate(-.031 1035.8)" gradientUnits="userSpaceOnUse"/>
    <linearGradient id="b">
      <stop offset="0" stop-color="#5b6c89"/>
      <stop offset="1" stop-color="#95a3ba"/>
    </linearGradient>
    <linearGradient xlink:href="#b" id="g" x1="15.001" x2="-3.264" y1="2" y2="2" gradientTransform="matrix(.93722 0 0 1 1036.398 -3.562)" gradientUnits="userSpaceOnUse"/>
    <linearGradient id="c">
      <stop offset="0" stop-color="#5b6c89"/>
      <stop offset="1" stop-color="#95a3ba"/>
    </linearGradient>
    <linearGradient xlink:href="#c" id="j" x1="15.001" x2="-17.188" y1="2" y2="2" gradientTransform="translate(-16.031 1037.8)" gradientUnits="userSpaceOnUse"/>
    <linearGradient id="d">
      <stop offset="0" stop-color="#5b6c89"/>
      <stop offset="1" stop-color="#95a3ba"/>
    </linearGradient>
    <linearGradient xlink:href="#d" id="f" x1="15.001" x2="-28.335" y1="2" y2="2" gradientTransform="matrix(.93722 0 0 1 1036.398 -16.625)" gradientUnits="userSpaceOnUse"/>
    <linearGradient xlink:href="#e" id="h" x1="1.945" x2="14.142" y1="3.073" y2="3.073" gradientTransform="matrix(.99638 0 0 1 .02 1035.8)" gradientUnits="userSpaceOnUse"/>
  </defs>
  <g color="#000">
    <path fill="#fff" d="M.941 1037.348h14.142v13.17H.941z" overflow="visible" style="marker:none" transform="translate(0 -1036.362)"/>
    <path fill="#5b6c89" d="M-1042.518 1.969h1.125v12.094h-1.125z" opacity=".349" overflow="visible" style="marker:none" transform="matrix(0 -1 1 0 0 -1036.362)"/>
    <path fill="#5b6c89" d="M5.094 1037.425h1.125v12.938H5.094z" opacity=".349" overflow="visible" style="marker:none" transform="translate(0 -1036.362)"/>
    <path fill="url(#f)" d="M1037.393-15.063h13.063v1h-13.063z" overflow="visible" style="marker:none" transform="rotate(90 518.181 -518.181)"/>
    <path fill="url(#g)" d="M1037.393-2h13.063v1h-13.063z" overflow="visible" style="marker:none" transform="rotate(90 518.181 -518.181)"/>
    <path fill="url(#h)" d="M1.957 1038.276H14.11v1.193H1.957z" opacity=".676" overflow="visible" style="marker:none" transform="translate(0 -1036.362)"/>
    <path fill="url(#i)" d="M1.031 1037.362h13.938v1H1.031z" overflow="visible" style="marker:none" transform="translate(0 -1036.362)"/>
    <path fill="url(#j)" d="M-14.969 1039.362h13.938v1h-13.938z" overflow="visible" style="marker:none" transform="matrix(-1 0 0 1 0 -1036.362)"/>
    <path fill="#5b6c89" d="M1.031 1049.425h14.063v1H1.031z" overflow="visible" style="marker:none" transform="translate(0 -1036.362)"/>
    <path fill="#5b6c89" d="M-1044.728 1.938h1.125v12.125h-1.125zM-1047.026 1.969h1.125v12.094h-1.125zM-1049.369 2h1.125v12.063h-1.125z" opacity=".349" overflow="visible" style="marker:none" transform="matrix(0 -1 1 0 0 -1036.362)"/>
  </g>
</svg>
