<svg xmlns="http://www.w3.org/2000/svg" width="7" height="8">
  <path fill="#fff" fill-rule="evenodd" d="M0 .014V1.97l2.02 2.02V8h3.978V4.985L7.024 3.96V-.018z"/>
  <g fill="#00018d">
    <path fill-rule="evenodd" d="m2.262 1044.348-.15.162-1.128 1.217v1.626h.5c.447 0 .548.025 1.068.025.357 0 .332-.871.466-1.122.248-.467.572-.78.689-.883h.158l.131.73.008.764c.001.17-.06.896-.06.896l-.984.622-.024 1.06H4.61l1.717-1.387v-2.345l-.026-.027-1.523-1.313-2.517-.025z" color="#000" font-family="sans-serif" font-weight="400" overflow="visible" style="line-height:normal;text-indent:0;text-align:start;text-decoration-line:none;text-decoration-style:solid;text-decoration-color:#000;text-transform:none;block-progression:tb;white-space:normal;isolation:auto;mix-blend-mode:normal;solid-color:#000;solid-opacity:1" transform="translate(0 -1044.362)"/>
    <path d="M2.999 6.01H4.98v1.982H2.999z"/>
  </g>
</svg>
