<?xml version="1.0" encoding="UTF-8" standalone="no"?>
<svg
   width="16"
   height="16"
   version="1.1"
   id="svg20"
   xmlns:xlink="http://www.w3.org/1999/xlink"
   xmlns="http://www.w3.org/2000/svg"
   xmlns:svg="http://www.w3.org/2000/svg">
  <defs
     id="defs15">
    <linearGradient
       xlink:href="#a"
       id="m"
       x1="6.389"
       x2="6.389"
       y1="7.237"
       y2=".393"
       gradientUnits="userSpaceOnUse" />
    <linearGradient
       xlink:href="#b"
       id="l"
       x1="3.383"
       x2="3.383"
       y1="7.016"
       y2=".982"
       gradientUnits="userSpaceOnUse" />
    <linearGradient
       id="b">
      <stop
         offset="0"
         stop-color="#ffe296"
         id="stop1" />
      <stop
         offset=".5"
         stop-color="#f8d880"
         id="stop2" />
      <stop
         offset="1"
         stop-color="#fffcd3"
         id="stop3" />
    </linearGradient>
    <linearGradient
       id="a">
      <stop
         offset="0"
         stop-color="#c6852e"
         id="stop4" />
      <stop
         offset="1"
         stop-color="#e1a555"
         id="stop5" />
    </linearGradient>
    <linearGradient
       xlink:href="#c"
       id="k"
       x1="26.385"
       x2="28.899"
       y1="1047.351"
       y2="1051.042"
       gradientTransform="translate(-21.875)"
       gradientUnits="userSpaceOnUse" />
    <linearGradient
       xlink:href="#d"
       id="j"
       x1="27.74"
       x2="28.339"
       y1="1048.96"
       y2="1050.113"
       gradientTransform="translate(-21.875)"
       gradientUnits="userSpaceOnUse" />
    <linearGradient
       xlink:href="#e"
       id="i"
       x1="3.29"
       x2="3.29"
       y1="1038.393"
       y2="1046.9"
       gradientTransform="translate(-1.875)"
       gradientUnits="userSpaceOnUse" />
    <linearGradient
       id="c">
      <stop
         offset="0"
         stop-color="#9eacbc"
         id="stop6" />
      <stop
         offset="1"
         stop-color="#667480"
         id="stop7" />
    </linearGradient>
    <linearGradient
       id="d">
      <stop
         offset="0"
         stop-color="#fff"
         id="stop8" />
      <stop
         offset="1"
         stop-color="#abb6c2"
         id="stop9" />
    </linearGradient>
    <linearGradient
       id="f">
      <stop
         offset="0"
         stop-color="#fff"
         id="stop10" />
      <stop
         offset=".383"
         stop-color="#fdfbeb"
         id="stop11" />
      <stop
         offset=".595"
         stop-color="#f8eb99"
         id="stop12" />
      <stop
         offset="1"
         stop-color="#ffe4b1"
         id="stop13" />
    </linearGradient>
    <linearGradient
       id="e">
      <stop
         offset="0"
         stop-color="#e9a328"
         id="stop14" />
      <stop
         offset="1"
         stop-color="#f9c537"
         id="stop15" />
    </linearGradient>
    <radialGradient
       xlink:href="#f"
       id="h"
       cx="28.688"
       cy="1046.294"
       r="4.5"
       fx="28.688"
       fy="1046.294"
       gradientTransform="matrix(1.43122 0 0 1.90646 -34.246 -947.65)"
       gradientUnits="userSpaceOnUse" />
    <filter
       id="g"
       width="1.6055051"
       height="1.6032243"
       x="-0.30275257"
       y="-0.30161217">
      <feGaussianBlur
         stdDeviation=".662"
         id="feGaussianBlur15" />
    </filter>
  </defs>
  <g
     stroke-linecap="round"
     stroke-linejoin="round"
     id="g18">
    <path
       fill="none"
       stroke="#edaa2b"
       stroke-width=".826"
       d="M5.502 1038.528a3.307 3.307 0 0 0-3.305 3.306c0 2.106 1.66 1.141 1.678 3.331H7.13c0-2.089 1.679-1.177 1.679-3.331a3.307 3.307 0 0 0-3.306-3.306z"
       filter="url(#g)"
       transform="translate(-.026 -1036.323)"
       id="path15" />
    <path
       fill="url(#h)"
       stroke="url(#i)"
       d="M6.625 1037.862c-2.207 0-4 1.793-4 4 0 2.55 2.008 3.382 2.031 6.031h3.938c0-2.527 2.031-3.424 2.031-6.03 0-2.208-1.793-4-4-4z"
       transform="matrix(.77997 0 0 .73483 .309 -760.267)"
       id="path16" />
    <path
       fill="#4a607a"
       stroke="#4a607a"
       d="M5.594 1048.425h2.031v3.438H5.594z"
       transform="matrix(.77997 0 0 .73483 .309 -760.267)"
       id="path17" />
    <path
       fill="url(#j)"
       stroke="url(#k)"
       d="M4.656 1047.862h3.938v3H4.656z"
       transform="matrix(.77997 0 0 .73483 .309 -760.267)"
       id="path18" />
  </g>
  <path
     fill="url(#l)"
     stroke="url(#m)"
     d="M2.813.906.78 5C.175 6.025.588 7.482 1.72 7.5H5.28c1.13-.018 1.544-1.475.938-2.5L4.187.906C3.893.35 3.07.44 2.813.906z"
     transform="matrix(.99947 0 0 .99947 7.02 5.993)"
     id="path19" />
  <path
     fill="#502800"
     d="M11.176 11.663a.657.657 0 1 1-1.315 0 .657.657 0 0 1 1.315 0zM10.533 7.883c-.354 0-.655.315-.655.723l.086 1.391c0 .363.254.658.569.658.314 0 .569-.295.569-.658l.057-1.39c0-.41-.273-.724-.626-.724z"
     id="path20" />
</svg>
