<svg xmlns="http://www.w3.org/2000/svg" xmlns:xlink="http://www.w3.org/1999/xlink" width="16" height="16">
  <defs>
    <linearGradient id="b">
      <stop offset="0" stop-color="#e9a328"/>
      <stop offset="1" stop-color="#f9c537"/>
    </linearGradient>
    <linearGradient id="a">
      <stop offset="0" stop-color="#fff"/>
      <stop offset=".383" stop-color="#fdfbeb"/>
      <stop offset=".595" stop-color="#f8eb99"/>
      <stop offset="1" stop-color="#ffe4b1"/>
    </linearGradient>
    <linearGradient id="c">
      <stop offset="0" stop-color="#fff"/>
      <stop offset="1" stop-color="#abb6c2"/>
    </linearGradient>
    <linearGradient id="d">
      <stop offset="0" stop-color="#9eacbc"/>
      <stop offset="1" stop-color="#667480"/>
    </linearGradient>
    <linearGradient xlink:href="#b" id="g" x1="3.29" x2="3.29" y1="1038.393" y2="1046.9" gradientTransform="translate(-1.875)" gradientUnits="userSpaceOnUse"/>
    <linearGradient xlink:href="#c" id="h" x1="27.74" x2="28.339" y1="1048.96" y2="1050.113" gradientTransform="translate(-21.875)" gradientUnits="userSpaceOnUse"/>
    <linearGradient xlink:href="#d" id="i" x1="26.385" x2="28.899" y1="1047.351" y2="1051.042" gradientTransform="translate(-21.875)" gradientUnits="userSpaceOnUse"/>
    <radialGradient xlink:href="#a" id="f" cx="28.688" cy="1046.294" r="4.5" fx="28.688" fy="1046.294" gradientTransform="matrix(1.43122 0 0 1.90646 -34.246 -947.65)" gradientUnits="userSpaceOnUse"/>
    <filter id="e" width="1.481" height="1.479" x="-.24" y="-.24">
      <feGaussianBlur stdDeviation=".662"/>
    </filter>
  </defs>
  <path fill="none" stroke="#edaa2b" stroke-linecap="round" stroke-linejoin="round" stroke-width=".826" d="M5.502 1038.528a3.307 3.307 0 0 0-3.305 3.306c0 2.106 1.66 1.141 1.678 3.331H7.13c0-2.089 1.679-1.177 1.679-3.331a3.307 3.307 0 0 0-3.306-3.306z" filter="url(#e)" transform="translate(0 -1036.362)"/>
  <g stroke-linecap="round" stroke-linejoin="round">
    <path fill="url(#f)" stroke="url(#g)" d="M6.625 1037.862c-2.207 0-4 1.793-4 4 0 2.55 2.008 3.382 2.031 6.031h3.938c0-2.527 2.031-3.424 2.031-6.03 0-2.208-1.793-4-4-4z" transform="matrix(.77997 0 0 .73483 .335 -760.306)"/>
    <path fill="#4a607a" stroke="#4a607a" d="M5.594 1048.425h2.031v3.438H5.594z" transform="matrix(.77997 0 0 .73483 .335 -760.306)"/>
    <path fill="url(#h)" stroke="url(#i)" d="M4.656 1047.862h3.938v3H4.656z" transform="matrix(.77997 0 0 .73483 .335 -760.306)"/>
  </g>
  <path fill="#d8424f" d="M7.001 5.993h7v8h-7z"/>
  <path fill="#fff" d="M8.001 1044.371v.998h.554l1.315 1.044-1.35.943h-.519v1.008h2.005v-1.008h-.139l.626-.291.648.29h-.138v1.009H12.985v-1.008h-.484l-1.385-.972 1.28-1.015H12.987v-.998h-1.983v.998h.069l-.579.393-.568-.393h.07v-.998H8.139z" color="#000" enable-background="accumulate" font-family="Sans" font-size="7.69" font-weight="400" letter-spacing="0" overflow="visible" style="line-height:125%;text-indent:0;text-align:start;text-decoration-line:none;text-transform:none;block-progression:tb;marker:none" transform="translate(0 -1036.362)" word-spacing="0"/>
</svg>
