<svg xmlns="http://www.w3.org/2000/svg" xmlns:xlink="http://www.w3.org/1999/xlink" width="16" height="16">
  <defs>
    <linearGradient id="d">
      <stop offset="0" stop-color="#a66b10"/>
      <stop offset="1" stop-color="#bd8416"/>
    </linearGradient>
    <linearGradient id="a">
      <stop offset="0" stop-color="#f9cd5f"/>
      <stop offset="1" stop-color="#fbf0b4"/>
    </linearGradient>
    <linearGradient id="b">
      <stop offset="0" stop-color="#bd8416"/>
      <stop offset="1" stop-color="#a66b10"/>
    </linearGradient>
    <linearGradient id="c">
      <stop offset="0" stop-color="#f9cd5f"/>
      <stop offset="1" stop-color="#fbf0b4"/>
    </linearGradient>
    <linearGradient xlink:href="#a" id="m" x1="22.519" x2="22.519" y1="1042.028" y2="1040.735" gradientTransform="matrix(.728 0 0 .728 20.937 283.974)" gradientUnits="userSpaceOnUse"/>
    <linearGradient xlink:href="#b" id="n" x1="24.929" x2="24.929" y1="1038.366" y2="1044.562" gradientTransform="matrix(.728 0 0 .728 20.937 283.974)" gradientUnits="userSpaceOnUse"/>
    <linearGradient xlink:href="#c" id="o" x1="22.931" x2="22.931" y1="1039.698" y2="1041.736" gradientUnits="userSpaceOnUse"/>
    <linearGradient xlink:href="#d" id="p" x1="26.159" x2="26.159" y1="1037.832" y2="1045.118" gradientUnits="userSpaceOnUse"/>
    <linearGradient xlink:href="#e" id="h" x1="9.895" x2="9.895" y1="1039.153" y2="1051.838" gradientTransform="translate(-21.978 -1.044)" gradientUnits="userSpaceOnUse"/>
    <linearGradient id="e">
      <stop offset="0" stop-color="#f9fafc"/>
      <stop offset="1" stop-color="#dce7f7"/>
    </linearGradient>
    <linearGradient xlink:href="#f" id="i" x1="7.999" x2="9.987" y1="1042.231" y2="1040.33" gradientTransform="translate(-17.978 -1.044)" gradientUnits="userSpaceOnUse"/>
    <linearGradient id="f">
      <stop offset="0" stop-color="#e0c88f"/>
      <stop offset="1" stop-color="#d5b269"/>
    </linearGradient>
    <linearGradient xlink:href="#g" id="j" x1="10.545" x2="10.545" y1="1038.578" y2="1052.323" gradientTransform="translate(-21.978 -1.044)" gradientUnits="userSpaceOnUse"/>
    <linearGradient id="g">
      <stop offset="0" stop-color="#c7b571"/>
      <stop offset="1" stop-color="#989891"/>
    </linearGradient>
    <filter id="l" width="1.482" height="1.287" x="-.241" y="-.144">
      <feGaussianBlur stdDeviation=".683"/>
    </filter>
    <mask id="k" maskUnits="userSpaceOnUse"/>
  </defs>
  <path fill="url(#h)" d="M-16.48 1037.86h7.009l3.062 3.006v9.955H-16.48z" transform="translate(20.923 -1036.295)"/>
  <path fill="url(#i)" d="M-10.001 1037.397v3.911h3.977z" transform="translate(20.923 -1036.295)"/>
  <path fill="none" stroke="url(#j)" d="M-16.48 1037.86h7.009l3.062 3.006v9.955H-16.48z" transform="translate(20.923 -1036.295)"/>
  <g mask="url(#k)" transform="translate(0 -1036.362)">
    <g fill="#fff" stroke="#fff" stroke-width="2" filter="url(#l)" transform="translate(-20)">
      <path d="M25.555 1040.598v-1.158s-.257-.611-.997-.032c-.74.58-1.609 1.512-1.737 1.77-.129.257-.676.707.064 1.415.74.708 1.544 1.448 1.544 1.448s1.126 1.062 1.126.064v-1.32c.995-.045 1.234.26 1.485.502.252.243.592 1.433.888 1.524.295.091.455-1.592.455-1.91 0-.32-.128-.907-.524-1.434-.213-.285-.732-.696-1.114-.8-.382-.106-1.19-.069-1.19-.069z"/>
      <path d="M25.095 1040.385v-.434s.08-.274-.161-.177c-.241.097-.708.482-.756.563-.048.08-.547.434-.435.595.113.16 1.062.048 1.062.048z" opacity=".857"/>
      <g stroke-width="2.747">
        <path stroke-width="1.9998159999999998" d="M24.403 1049.13v1.157s.257.612.997.032c.74-.579 1.609-1.512 1.738-1.77.128-.257.675-.707-.065-1.415-.74-.708-1.544-1.448-1.544-1.448s-.294-.277-.582-.415c-.275-.132-.544-.136-.544.351v1.32c-.995.045-1.258-.251-1.485-.502-.228-.25-.592-1.433-.887-1.524-.296-.09-.455 1.593-.455 1.911 0 .319.068.956.523 1.433.455.478.733.696 1.115.8.382.106 1.189.07 1.189.07z"/>
        <path stroke-width="1.9998159999999998" d="M24.778 1046.473v-.434s-.08-.274.161-.177c.242.096.708.482.756.563.049.08.547.434.435.595-.113.161-1.062.048-1.062.048z" opacity=".857"/>
      </g>
    </g>
  </g>
  <path fill="url(#m)" stroke="url(#n)" stroke-width=".582" d="M38.107 1040.598v-1.158s-.258-.611-.998-.032c-.74.58-1.608 1.512-1.737 1.77-.129.257-.676.707.064 1.415.74.708 1.544 1.448 1.544 1.448s1.127 1.062 1.127.064v-1.32c.994-.045 1.233.26 1.485.502.251.243.591 1.433.887 1.524.296.091.455-1.592.455-1.91 0-.32-.127-.907-.523-1.434-.214-.285-.733-.696-1.115-.8-.382-.106-1.19-.069-1.19-.069z" transform="translate(-32.551 -1036.362)"/>
  <path fill="#fff" d="M5.095 4.023v-.435s.08-.273-.161-.177c-.241.097-.708.483-.756.563-.048.08-.547.435-.435.596.113.16 1.062.048 1.062.048z" opacity=".857"/>
  <g stroke="#a66b10">
    <path fill="url(#o)" stroke="url(#p)" stroke-width=".8" d="M23.585 1039.325v-1.591s-.353-.84-1.37-.044c-1.016.795-2.21 2.077-2.386 2.43-.177.354-.928.973.088 1.945 1.017.972 2.121 1.989 2.121 1.989s.405.381.8.57c.378.182.747.188.747-.482v-1.812c1.367-.063 1.728.345 2.04.688.313.344.813 1.969 1.219 2.094.406.125.625-2.188.625-2.625 0-.438-.094-1.313-.719-1.969-.625-.656-1.007-.955-1.531-1.1-.525-.144-1.634-.093-1.634-.093z" transform="matrix(-.728 0 0 -.728 21.573 769.391)"/>
    <path fill="#fff" stroke="none" d="M4.778 10.111v-.434s-.08-.274.161-.177c.242.096.708.482.756.563.049.08.547.434.435.595-.113.16-1.062.048-1.062.048z" opacity=".857"/>
  </g>
</svg>
