<svg xmlns="http://www.w3.org/2000/svg" xmlns:xlink="http://www.w3.org/1999/xlink" width="16" height="16">
  <defs>
    <linearGradient id="a">
      <stop offset="0" stop-color="#707070"/>
      <stop offset="1" stop-color="#a0a0a0"/>
    </linearGradient>
    <linearGradient id="b">
      <stop offset="0" stop-color="#414141"/>
      <stop offset="1" stop-color="#535353"/>
    </linearGradient>
    <linearGradient xlink:href="#a" id="c" x1="4.753" x2="4.753" y1="1051.047" y2="1038.581" gradientTransform="matrix(.99105 0 0 1.03773 -.032 -39.636)" gradientUnits="userSpaceOnUse"/>
    <linearGradient xlink:href="#b" id="d" x1="8.657" x2="8.657" y1="1050.739" y2="1037.7" gradientTransform="matrix(.99105 0 0 1.03773 -.032 -39.636)" gradientUnits="userSpaceOnUse"/>
  </defs>
  <path fill="url(#c)" stroke="url(#d)" stroke-linecap="round" d="M13.267 1038.207a1.145 1.145 0 0 0-1.675 0l-3.085 3.23-3.085-3.23a1.145 1.145 0 0 0-1.675 0l-.852.892a1.279 1.279 0 0 0 0 1.754l3.085 3.23-3.085 3.23a1.279 1.279 0 0 0 0 1.754l.852.893a1.145 1.145 0 0 0 1.675 0l3.085-3.23 3.106 3.253a1.145 1.145 0 0 0 1.675 0l.853-.893a1.284 1.284 0 0 0 0-1.754l-3.107-3.252 3.085-3.23a1.279 1.279 0 0 0 0-1.754z" transform="translate(0 -1036.362)"/>
</svg>
