<?xml version="1.0" encoding="UTF-8" standalone="no"?>
<svg
   width="16"
   height="16"
   version="1.1"
   id="svg12"
   xmlns:xlink="http://www.w3.org/1999/xlink"
   xmlns="http://www.w3.org/2000/svg"
   xmlns:svg="http://www.w3.org/2000/svg">
  <defs
     id="defs11">
    <linearGradient
       id="c">
      <stop
         offset="0"
         stop-color="#efbf59"
         id="stop1" />
      <stop
         offset=".174"
         stop-color="#f0c83b"
         id="stop2" />
      <stop
         offset=".347"
         stop-color="#fdfabf"
         id="stop3" />
      <stop
         offset=".5"
         stop-color="#fbf0a1"
         id="stop4" />
      <stop
         offset=".638"
         stop-color="#f6e057"
         id="stop5" />
      <stop
         offset=".819"
         stop-color="#f2b11f"
         id="stop6" />
      <stop
         offset="1"
         stop-color="#f6a81d"
         id="stop7" />
    </linearGradient>
    <linearGradient
       id="b">
      <stop
         offset="0"
         stop-color="#a6661f"
         id="stop8" />
      <stop
         offset="1"
         stop-color="#d2a40f"
         id="stop9" />
    </linearGradient>
    <linearGradient
       id="a">
      <stop
         offset="0"
         stop-color="#e6970d"
         id="stop10" />
      <stop
         offset="1"
         stop-color="#c4870c"
         id="stop11" />
    </linearGradient>
    <linearGradient
       xlink:href="#a"
       id="f"
       x1="-8.145"
       x2="-8.052"
       y1="1055.597"
       y2="1052.564"
       gradientTransform="matrix(1.15785 0 0 1.25567 17.73 -284.165)"
       gradientUnits="userSpaceOnUse" />
    <linearGradient
       xlink:href="#b"
       id="e"
       x1="3.581"
       x2="3.493"
       y1="1063.338"
       y2="1052.597"
       gradientTransform="matrix(1.14317 0 0 1.3002 3.927 -331.062)"
       gradientUnits="userSpaceOnUse" />
    <linearGradient
       xlink:href="#c"
       id="d"
       x1="673.61"
       x2="696.684"
       y1="460.616"
       y2="460.616"
       gradientTransform="matrix(.31514 0 0 .28028 -207.401 915.233)"
       gradientUnits="userSpaceOnUse" />
  </defs>
  <g
     transform="translate(0 -1036.362)"
     id="g12">
    <path
       fill="url(#d)"
       d="M8.482 1037.807c-2.49 0-4.482.67-4.482 1.507v10.044c0 .837 1.992 1.507 4.482 1.507s4.518-.67 4.518-1.507v-10.044c0-.837-2.027-1.507-4.518-1.507z"
       id="path11" />
    <path
       fill="none"
       stroke="url(#e)"
       stroke-width=".998"
       d="M8.484 1037.861c-2.214 0-3.985.667-3.985 1.5v10.002c0 .833 1.771 1.5 3.985 1.5s4.017-.667 4.017-1.5v-10.002c0-.833-1.803-1.5-4.017-1.5z"
       id="path12" />
    <ellipse
       cx="8.5"
       cy="1039.362"
       fill="none"
       stroke="url(#f)"
       stroke-width="1.115"
       rx="3.942"
       ry="1.442"
       id="ellipse12" />
  </g>
</svg>
