<svg xmlns="http://www.w3.org/2000/svg" xmlns:xlink="http://www.w3.org/1999/xlink" width="16" height="16">
  <defs>
    <linearGradient id="h">
      <stop offset="0" stop-color="#ad8e5f"/>
      <stop offset="1" stop-color="#8f6e4d"/>
    </linearGradient>
    <linearGradient id="g">
      <stop offset="0" stop-color="#ad8e5f"/>
      <stop offset="1" stop-color="#8f6e4d"/>
    </linearGradient>
    <linearGradient id="f">
      <stop offset="0" stop-color="#f0a53b"/>
      <stop offset=".269" stop-color="#f2d58f"/>
      <stop offset=".604" stop-color="#efb965"/>
      <stop offset="1" stop-color="#df9833"/>
    </linearGradient>
    <linearGradient id="b">
      <stop offset="0" stop-color="#f4d684"/>
      <stop offset=".25" stop-color="#fcf4c6"/>
      <stop offset=".5" stop-color="#fbeebc"/>
      <stop offset="1" stop-color="#eeb960"/>
    </linearGradient>
    <linearGradient id="d">
      <stop offset="0" stop-color="#e4a239"/>
      <stop offset="1" stop-color="#fada7d"/>
    </linearGradient>
    <linearGradient id="c">
      <stop offset="0" stop-color="#fef48d"/>
      <stop offset=".325" stop-color="#fffffe"/>
      <stop offset=".664" stop-color="#fffffe"/>
      <stop offset="1" stop-color="#fef48d"/>
    </linearGradient>
    <linearGradient id="e">
      <stop offset="0" stop-color="#bbb8bb"/>
      <stop offset=".25" stop-color="#ccc8cb"/>
      <stop offset=".5" stop-color="#bdb6bc"/>
      <stop offset="1" stop-color="#9b8c98"/>
    </linearGradient>
    <linearGradient id="a">
      <stop offset="0" stop-color="#906f4e"/>
      <stop offset="1" stop-color="#dfbd7f"/>
    </linearGradient>
    <linearGradient xlink:href="#a" id="i" x1="29.715" x2="29.715" y1="1041.326" y2="1039.139" gradientTransform="translate(0 -.012)" gradientUnits="userSpaceOnUse"/>
    <linearGradient xlink:href="#b" id="j" x1="27.01" x2="32.177" y1="1046.132" y2="1046.132" gradientUnits="userSpaceOnUse"/>
    <linearGradient xlink:href="#c" id="m" x1="26.881" x2="32.472" y1="1056.969" y2="1056.969" gradientUnits="userSpaceOnUse"/>
    <linearGradient xlink:href="#d" id="n" x1="25.982" x2="33.276" y1="1056.969" y2="1056.969" gradientUnits="userSpaceOnUse"/>
    <linearGradient xlink:href="#e" id="o" x1="26.452" x2="32.842" y1="1052.004" y2="1052.004" gradientUnits="userSpaceOnUse"/>
    <linearGradient xlink:href="#f" id="k" x1="26.107" x2="33.163" y1="1045.95" y2="1045.95" gradientUnits="userSpaceOnUse"/>
    <linearGradient xlink:href="#g" id="p" x1="25.367" x2="33.89" y1="1051.407" y2="1051.407" gradientUnits="userSpaceOnUse"/>
    <linearGradient xlink:href="#h" id="l" x1="25.368" x2="33.89" y1="1054.82" y2="1054.82" gradientUnits="userSpaceOnUse"/>
  </defs>
  <path fill="none" stroke="url(#i)" stroke-width="1.07" d="m28.565 1040.07-1.07 2.14h4.28l-1.07-2.14c-.473-.948-1.844-.763-2.14 0z" transform="rotate(45 1192.16 471.599) scale(.93468)"/>
  <path fill="url(#j)" stroke="url(#k)" d="M26.607 1042.243c1.26-1.638 4.859-1.505 6.056 0v8.592h-6.056z" transform="rotate(45 1192.16 471.599) scale(.93468)"/>
  <path fill="#496da1" d="M29.412 1042.908c-.369.01-.728.043-1.07.1v2.407a7.88 7.88 0 0 1 1.07-.1z" color="#000" font-family="Sans" font-weight="400" overflow="visible" style="text-indent:0;text-align:start;line-height:normal;text-transform:none;block-progression:tb;marker:none;-inkscape-font-specification:Sans" transform="rotate(45 1192.16 471.599) scale(.93468)"/>
  <path fill="#ffffc9" stroke="url(#l)" d="M29.646 1053.51c-1.547 0-3.097.355-3.778 1.036v.569c1.362 1.362 6.179 1.344 7.522 0v-.569c-.672-.671-2.197-1.034-3.744-1.036z" transform="rotate(45 1192.16 471.599) scale(.93468)"/>
  <path fill="url(#m)" stroke="url(#n)" stroke-width=".88" d="M26.422 1052.42v12.125h6.414v-12.125z" transform="rotate(45 1192.16 471.599) scale(.93468)"/>
  <path fill="url(#o)" stroke="url(#p)" stroke-linejoin="round" stroke-miterlimit="3" d="M25.868 1050.167v4.38c1.778-1.92 5.896-1.867 7.522 0v-4.38c-1.258-2.537-6.05-2.528-7.522 0z" transform="rotate(45 1192.16 471.599) scale(.93468)"/>
</svg>
