<svg xmlns="http://www.w3.org/2000/svg" xmlns:xlink="http://www.w3.org/1999/xlink" width="16" height="16">
  <defs>
    <linearGradient xlink:href="#a" id="t" x1="25.368" x2="33.89" y1="1054.82" y2="1054.82" gradientTransform="rotate(45 -60.27 990.31) scale(.93468)" gradientUnits="userSpaceOnUse"/>
    <linearGradient xlink:href="#b" id="x" x1="25.367" x2="33.89" y1="1051.407" y2="1051.407" gradientTransform="rotate(45 -60.27 990.31) scale(.93468)" gradientUnits="userSpaceOnUse"/>
    <linearGradient xlink:href="#c" id="s" x1="26.107" x2="33.163" y1="1045.95" y2="1045.95" gradientTransform="rotate(45 -60.27 990.31) scale(.93468)" gradientUnits="userSpaceOnUse"/>
    <linearGradient xlink:href="#d" id="w" x1="26.452" x2="32.842" y1="1052.004" y2="1052.004" gradientTransform="rotate(45 -60.27 990.31) scale(.93468)" gradientUnits="userSpaceOnUse"/>
    <linearGradient xlink:href="#e" id="v" x1="25.982" x2="33.276" y1="1056.969" y2="1056.969" gradientTransform="rotate(45 -60.27 990.31) scale(.93468)" gradientUnits="userSpaceOnUse"/>
    <linearGradient xlink:href="#f" id="u" x1="26.881" x2="32.472" y1="1056.969" y2="1056.969" gradientTransform="rotate(45 -60.27 990.31) scale(.93468)" gradientUnits="userSpaceOnUse"/>
    <linearGradient xlink:href="#g" id="r" x1="27.01" x2="32.177" y1="1046.132" y2="1046.132" gradientTransform="rotate(45 -60.27 990.31) scale(.93468)" gradientUnits="userSpaceOnUse"/>
    <linearGradient xlink:href="#h" id="q" x1="29.715" x2="29.715" y1="1041.326" y2="1039.139" gradientTransform="rotate(45 -60.257 990.316) scale(.93468)" gradientUnits="userSpaceOnUse"/>
    <linearGradient id="h">
      <stop offset="0" stop-color="#906f4e"/>
      <stop offset="1" stop-color="#dfbd7f"/>
    </linearGradient>
    <linearGradient id="d">
      <stop offset="0" stop-color="#bbb8bb"/>
      <stop offset=".25" stop-color="#ccc8cb"/>
      <stop offset=".5" stop-color="#bdb6bc"/>
      <stop offset="1" stop-color="#9b8c98"/>
    </linearGradient>
    <linearGradient id="f">
      <stop offset="0" stop-color="#fef48d"/>
      <stop offset=".325" stop-color="#fffffe"/>
      <stop offset=".664" stop-color="#fffffe"/>
      <stop offset="1" stop-color="#fef48d"/>
    </linearGradient>
    <linearGradient id="e">
      <stop offset="0" stop-color="#e4a239"/>
      <stop offset="1" stop-color="#fada7d"/>
    </linearGradient>
    <linearGradient id="g">
      <stop offset="0" stop-color="#f4d684"/>
      <stop offset=".25" stop-color="#fcf4c6"/>
      <stop offset=".5" stop-color="#fbeebc"/>
      <stop offset="1" stop-color="#eeb960"/>
    </linearGradient>
    <linearGradient id="c">
      <stop offset="0" stop-color="#f0a53b"/>
      <stop offset=".269" stop-color="#f2d58f"/>
      <stop offset=".604" stop-color="#efb965"/>
      <stop offset="1" stop-color="#df9833"/>
    </linearGradient>
    <linearGradient id="b">
      <stop offset="0" stop-color="#ad8e5f"/>
      <stop offset="1" stop-color="#8f6e4d"/>
    </linearGradient>
    <linearGradient id="a">
      <stop offset="0" stop-color="#ad8e5f"/>
      <stop offset="1" stop-color="#8f6e4d"/>
    </linearGradient>
    <linearGradient id="i">
      <stop offset="0" stop-color="#fff"/>
      <stop offset="1" stop-color="#778eb6"/>
    </linearGradient>
    <linearGradient xlink:href="#j" id="n" x1="-10.735" x2="-6.693" y1="1056.659" y2="1053.848" gradientTransform="translate(29.975 .014)" gradientUnits="userSpaceOnUse"/>
    <linearGradient id="j">
      <stop offset="0" stop-color="#7890b8"/>
      <stop offset="1" stop-color="#3f6fa1"/>
    </linearGradient>
    <linearGradient id="k">
      <stop offset="0" stop-color="#f7f9fc"/>
      <stop offset="1" stop-color="#7890b8"/>
    </linearGradient>
    <linearGradient id="l">
      <stop offset="0" stop-color="#6c96c1"/>
      <stop offset="1" stop-color="#2f5786"/>
    </linearGradient>
    <linearGradient xlink:href="#l" id="p" x1="2.201" x2="4.168" y1="2.543" y2="3.204" gradientTransform="matrix(1.34872 0 0 1.36385 16.992 1048.584)" gradientUnits="userSpaceOnUse"/>
    <radialGradient xlink:href="#i" id="m" cx="-9.429" cy="1056.065" r="2.457" fx="-9.429" fy="1056.065" gradientTransform="matrix(.54373 0 0 1.42596 25.658 -450.081)" gradientUnits="userSpaceOnUse"/>
    <radialGradient xlink:href="#k" id="o" cx="2.74" cy="2.405" r="1.29" fx="2.74" fy="2.405" gradientTransform="matrix(.98783 .0083 -.01514 1.79122 18.375 1047.474)" gradientUnits="userSpaceOnUse"/>
  </defs>
  <g stroke-linejoin="round" stroke-width=".698" transform="matrix(1.42956 0 0 1.43414 -27.507 -1506.275)">
    <path fill="url(#m)" stroke="url(#n)" d="M23.79 1057.28v-1.78c0-1.028-.739-1.876-1.766-1.876h-.635c-1.027 0-1.787.543-1.787 1.57v2.087"/>
    <circle cx="21.701" cy="1052.052" r="1.402" fill="url(#o)" stroke="url(#p)" stroke-linecap="round"/>
  </g>
  <path fill="#e09a36" stroke="url(#q)" d="m14.08 1038.953-2.121.708 2.828 2.828.707-2.121c.314-.94-.715-1.723-1.414-1.415z" transform="translate(-.054 -1037.377)"/>
  <path fill="url(#r)" stroke="url(#s)" stroke-width=".935" d="M11.35 1039.096c1.914-.25 4.205 2.216 4.002 4.002l-5.679 5.679-4.002-4.002z" transform="translate(-.054 -1037.377)"/>
  <path fill="#496da1" d="M12.764 1041.388a7.284 7.284 0 0 0-.774-.64l-1.59 1.59c.263.19.522.405.773.642z" color="#000" font-family="Sans" font-weight="400" overflow="visible" style="line-height:normal;-inkscape-font-specification:Sans;text-indent:0;text-align:start;text-decoration-line:none;text-transform:none;marker:none" transform="translate(-.054 -1037.377)"/>
  <path fill="#ffffc9" stroke="url(#t)" stroke-width=".935" d="M5.911 1048.55c-1.022-1.022-2.282-1.811-3.182-1.811l-.376.375c0 1.8 3.196 4.972 4.972 4.972l.376-.376c0-.888-.77-2.136-1.79-3.16z" transform="translate(-.054 -1037.377)"/>
  <path fill="url(#u)" stroke="url(#v)" stroke-width=".822" d="m4.501 1045.7-8.014 8.013 4.239 4.24 8.014-8.015z" transform="translate(-.054 -1037.377)"/>
  <path fill="url(#w)" stroke="url(#x)" stroke-linejoin="round" stroke-miterlimit="3" stroke-width=".935" d="m5.624 1043.844-2.895 2.895c2.443-.093 5.13 2.663 4.972 4.971l2.895-2.894c.845-2.509-2.329-5.67-4.972-4.972z" transform="translate(-.054 -1037.377)"/>
</svg>
