<svg xmlns="http://www.w3.org/2000/svg" xmlns:xlink="http://www.w3.org/1999/xlink" width="16" height="16">
  <defs>
    <linearGradient xlink:href="#a" id="r" x1="25.368" x2="33.89" y1="1054.82" y2="1054.82" gradientTransform="rotate(45 -60.27 990.31) scale(.93468)" gradientUnits="userSpaceOnUse"/>
    <linearGradient xlink:href="#b" id="v" x1="25.367" x2="33.89" y1="1051.407" y2="1051.407" gradientTransform="rotate(45 -60.27 990.31) scale(.93468)" gradientUnits="userSpaceOnUse"/>
    <linearGradient xlink:href="#c" id="q" x1="26.107" x2="33.163" y1="1045.95" y2="1045.95" gradientTransform="rotate(45 -60.27 990.31) scale(.93468)" gradientUnits="userSpaceOnUse"/>
    <linearGradient xlink:href="#d" id="u" x1="26.452" x2="32.842" y1="1052.004" y2="1052.004" gradientTransform="rotate(45 -60.27 990.31) scale(.93468)" gradientUnits="userSpaceOnUse"/>
    <linearGradient xlink:href="#e" id="t" x1="25.982" x2="33.276" y1="1056.969" y2="1056.969" gradientTransform="rotate(45 -60.27 990.31) scale(.93468)" gradientUnits="userSpaceOnUse"/>
    <linearGradient xlink:href="#f" id="s" x1="26.881" x2="32.472" y1="1056.969" y2="1056.969" gradientTransform="rotate(45 -60.27 990.31) scale(.93468)" gradientUnits="userSpaceOnUse"/>
    <linearGradient xlink:href="#g" id="p" x1="27.01" x2="32.177" y1="1046.132" y2="1046.132" gradientTransform="rotate(45 -60.27 990.31) scale(.93468)" gradientUnits="userSpaceOnUse"/>
    <linearGradient xlink:href="#h" id="o" x1="29.715" x2="29.715" y1="1041.326" y2="1039.139" gradientTransform="rotate(45 -60.257 990.316) scale(.93468)" gradientUnits="userSpaceOnUse"/>
    <linearGradient id="h">
      <stop offset="0" stop-color="#906f4e"/>
      <stop offset="1" stop-color="#dfbd7f"/>
    </linearGradient>
    <linearGradient id="d">
      <stop offset="0" stop-color="#bbb8bb"/>
      <stop offset=".25" stop-color="#ccc8cb"/>
      <stop offset=".5" stop-color="#bdb6bc"/>
      <stop offset="1" stop-color="#9b8c98"/>
    </linearGradient>
    <linearGradient id="f">
      <stop offset="0" stop-color="#fef48d"/>
      <stop offset=".325" stop-color="#fffffe"/>
      <stop offset=".664" stop-color="#fffffe"/>
      <stop offset="1" stop-color="#fef48d"/>
    </linearGradient>
    <linearGradient id="e">
      <stop offset="0" stop-color="#e4a239"/>
      <stop offset="1" stop-color="#fada7d"/>
    </linearGradient>
    <linearGradient id="g">
      <stop offset="0" stop-color="#f4d684"/>
      <stop offset=".25" stop-color="#fcf4c6"/>
      <stop offset=".5" stop-color="#fbeebc"/>
      <stop offset="1" stop-color="#eeb960"/>
    </linearGradient>
    <linearGradient id="c">
      <stop offset="0" stop-color="#f0a53b"/>
      <stop offset=".269" stop-color="#f2d58f"/>
      <stop offset=".604" stop-color="#efb965"/>
      <stop offset="1" stop-color="#df9833"/>
    </linearGradient>
    <linearGradient id="b">
      <stop offset="0" stop-color="#ad8e5f"/>
      <stop offset="1" stop-color="#8f6e4d"/>
    </linearGradient>
    <linearGradient id="a">
      <stop offset="0" stop-color="#ad8e5f"/>
      <stop offset="1" stop-color="#8f6e4d"/>
    </linearGradient>
    <linearGradient id="k">
      <stop offset="0" stop-color="#fffcf2"/>
      <stop offset=".351" stop-color="#adc977"/>
      <stop offset=".712" stop-color="#7f9f3f"/>
      <stop offset="1" stop-color="#77775c"/>
    </linearGradient>
    <linearGradient id="j">
      <stop offset="0" stop-color="#6fd9ff"/>
      <stop offset="1" stop-color="#4364a7"/>
    </linearGradient>
    <linearGradient id="i">
      <stop offset="0" stop-color="#777"/>
      <stop offset="1" stop-color="#bfbf9f"/>
    </linearGradient>
    <linearGradient xlink:href="#i" id="n" x1="-686.462" x2="-1030.487" y1="672.22" y2="328.196" gradientUnits="userSpaceOnUse"/>
    <linearGradient xlink:href="#k" id="m" x1="9.379" x2="14.06" y1="7.274" y2="12.666" gradientUnits="userSpaceOnUse"/>
    <radialGradient xlink:href="#j" id="l" cx="-1022.437" cy="440.143" r="232.857" fx="-1022.437" fy="440.143" gradientTransform="matrix(1.38242 0 0 1.38242 391 -168.32)" gradientUnits="userSpaceOnUse"/>
  </defs>
  <path fill="url(#l)" d="M-670 526.648a232.857 232.857 0 0 1-232.857 232.857 232.857 232.857 0 0 1-232.857-232.857A232.857 232.857 0 0 1-902.857 293.79 232.857 232.857 0 0 1-670 526.648Z" transform="translate(20.19 -4.642) scale(.01737)"/>
  <path fill="url(#m)" d="M11.938 6.5c-.058 0-.102.017 0 .031.07.01-.04.042.062.032.052-.045-.011-.063-.063-.063Zm-1.25.031c-.056.012-.102.049-.157.063.116-.03.225-.044.344-.063-.061.01-.127-.012-.188 0zm.5 0c-.07.014-.087.026 0 .032.059-.028.062-.034.093-.032-.035.005-.064-.005-.094 0zm1.124 0c-.006 0-.025.032-.03.032-.012.02-.09.033.03.03.004.014.01.046.032.032.008-.013.013-.053.031-.063-.022-.004-.04-.026-.063-.03Zm-.78.032c-.017 0-.024.035-.032.062-.067-.046-.206-.038-.25-.031-.038.018-.035.038.094.031.072-.002-.01.022-.063.031.016.002.013.001.063 0 .068 0 .43-.038.219-.062.016-.028-.019-.03-.032-.032Zm.5 0c-.009.01.014.033.093.03.022-.028.025-.03 0-.03-.026 0-.086-.01-.094 0zm-.313.03c-.01.001 0 .028 0 .032h.031l-.031-.031zm.031.032c-.032.006-.03.023.063.031-.023.004-.086.043.03.032.092-.029.123-.095.032-.094-.01 0-.02.03-.031.031.011.012-.062-.006-.094 0Zm.781-.031c-.01.012-.027.019-.031.031-.006.018.007.053 0 .063-.005.003-.022.002-.031 0-.038 0-.112.008-.125 0-.107-.008-.052.016-.031.03a.724.724 0 0 1 .218.063c.095.007.026-.11.188-.062-.004-.017 0-.028.031-.032-.073-.023-.144-.074-.219-.093Zm-.5.031c.011.006.002.023.031.031.046-.026.005-.03-.03-.031Zm-1.125.031c-.175.08-.295.126-.281.188.125-.014.257-.119.406-.125.155-.052-.036-.06-.125-.063zm1 .032c-.028.01-.012.05.063.062.02-.037-.007-.063-.031-.063-.01 0-.022-.003-.032 0zm-.469.03c-.03 0-.039.026 0 .063.12-.022.046-.062 0-.062zm.22.032c-.096.026.033.017-.063.063-.144-.048-.022.114 0 .125.03-.002.09-.061.125-.094-.025-.018.01-.049.031-.063a.037.037 0 0 0-.031-.031h-.063zm1.187 0c-.003.004-.014.02 0 .031.054.023.017.024.031.032.025.049.217.114.125.093.094.02.288.234.25.157.029.047.077.224.063.156.007.004.064.043.062.062.05.012.064.046.063.063.01.004.027.041 0 .031h-.032c.005.002-.004.03 0 .031.086.031.004.089.031.094-.03 0-.031.025-.03.031.005.004-.005.029 0 .032.013.004-.022.032.062.03-.016 0-.071.007-.094 0 .008.005.005.02.031.032-.04.006-.06.048-.062.063.108-.037.065.014.031.03.034.004.062.013.063.032.01-.002.026.023 0 .031-.002.005.002.028 0 .032.004.003-.004.027 0 .03-.061.022-.024.073 0 .095-.002 0 .029.005.03 0-.005.062.032.152.032.125.061.057.122.08.125.062.02-.003.098.05.094.063.031.01.051.005.031-.032.003-.013-.007-.037 0-.062.009-.033.011-.046 0-.031-.03-.026.06-.052.031-.063.028-.027.016-.213.031-.125.087-.031.116.029.126-.031 0 .048.044.007.062 0a.076.076 0 0 0 .031 0c.024-.02-.01-.128.031-.094.052.08.231.083.282.031-.046-.023-.07-.05-.094-.062-.039-.014-.052-.054-.063-.063.01 0 .024.02.063.032.016.014.021-.008.031 0-.03-.041-.058-.1-.062-.094-.034-.03-.04-.037-.031-.032-.052-.035-.005-.049.062 0a4.024 4.024 0 0 0-1.188-.78c-.026 0-.163-.028-.218-.032Zm-1.813.031c-.04.024-.071.046-.125.063.057.005-.301.082.031.062-.043.025-.374.04-.124.125-.09.141.406-.047.28 0 .044-.012.069.063.157.063.112-.022.09-.085.063-.094.022-.014.047-.033.062-.031-.036-.04-.058-.06 0-.125-.041.027-.134.06-.125 0 .006-.041.012-.12-.031-.063a.302.302 0 0 1-.156 0c-.008.003-.03-.003-.032 0zm1.063.063c-.075.023-.239.153-.063.187-.03-.006-.05 0-.062 0a.33.33 0 0 1 .062.063c.033.005.102.022.156.031.073.013.134.022.094.031.09.04.04-.13.094.032.089.014.19.078.094.093-.005 0-.011.056 0 .032.028.042.104.109.094.062.057.045-.077.109-.126.125.013.04-.026.077-.062.094.043-.01.17.17.125.125-.02.006-.016.015 0 .031-.007.001.015.042.031.031.068.046.17.087.188.094.007-.025-.03-.087-.063-.125.008.004.017-.008.031 0 .033.008.102.02.094.063.03-.026-.003-.125 0-.125-.08-.112-.075-.069-.094-.157-.018-.016.116-.007.094 0 .014.023.028.044.031.063-.01-.005.097-.047.094.031.025-.016.024-.042.031-.063.117-.002-.037-.035 0-.03.01-.071-.081-.038-.062-.095-.031-.035-.09-.08-.063-.03-.012 0-.048-.041-.062-.063.005-.014-.001-.04.094-.032-.039-.011-.058-.022-.063-.03.013-.012.022-.038-.062-.032-.02-.02.012-.026.031-.031 0-.008-.008-.014-.031-.032-.076.034-.007-.012-.031-.03-.015.005-.033.005-.032 0 .065-.031.012-.074-.031-.063.014-.013-.02-.046-.063-.032-.073-.016.011-.002-.062-.062-.012-.026-.01-.063-.031-.063-.038 0-.055.03-.063.032-.011-.032-.024-.044-.031-.032.003-.038-.025-.073-.125-.03-.052.013-.035.108-.063.062-.027-.023-.047-.019-.062 0-.015.018-.018.048 0 .062-.058.012-.032-.024 0-.062.048-.058.1-.127.031-.125-.014 0-.034-.008-.062 0zm-1.75.062c-.03.012-.096.042-.156.063-.059.014-.123.01-.094 0-.024-.006-.156.072-.219-.032-.107.01-.16-.002-.219 0-.008.005-.023-.004-.031 0-.359.19-.684.435-.969.72-.035.033-.064.084-.094.124-.041.058-.05.1 0 .063-.055.061-.073.18.032.093-.089.135-.225.25-.313.344.144-.117.27-.248.406-.375.011-.058.093-.092.157-.125-.063.058-.125.155-.063.094.061-.024.147-.115.188-.156-.001-.001.03.002.031 0 .01 0 .015-.003 0 .031.03.007.128.053.156.063.032-.016.103.059.094.093.009-.005.022-.015.031-.062.007-.027-.021.142 0 .125-.009.02-.024.042-.031.062l-.031.031c-.006.013-.005.028 0 .032l.031-.031a.095.095 0 0 0 0 .03c-.003.001-.017.042 0 .032.003.002.026 0 .031 0-.018.019-.011.025 0 .031.01.009 0 .028-.031.063-.01.01.016.017 0 .031-.02.066.01.094.031.094-.012.054-.013.11 0 .125-.028.04-.053.098-.031.062.051-.005 0 .087-.031.125.02-.008.053-.018.125-.062-.006.017.085.057.031.094.023.034.02.089 0 .124-.013.024-.03.027-.031.032-.035-.156-.126.249-.125.156-.064.15-.128.278-.156.438-.057.12-.015.326.03.28.028.107.013.257.126.282.107.105.075.298.187.406.014.083-.089.134.031.156.079.174.093.285.188.25-.063-.072-.177-.358-.156-.343-.055-.09-.12-.334 0-.25.05.105.092.251.187.344.003.108.156.213.188.374-.026.11.017.187.125.25.15.043.302.202.469.126.108-.02.2.211.343.187.159.016.153.057.25.188-.008.126.078-.034.094.124.05-.01.213.043.25.063.005-.13.186-.09.156.031.052.11.043.257-.062.344-.07.028-.14.162-.156.219.157-.017.09.227.03.25.143.08.192.257.282.375.06.128.269.128.344.25.02.138-.01.242 0 .375-.06.104.012.222-.031.312-.052.083-.08.243.03.25-.005.028-.05.064-.062.094-.004.01 0 .026 0 .031-.078.003-.059.016-.031.031l.031.032c.01 0 .02.005.031 0 .01.006-.006.025 0 .031.095-.01.19-.015.282-.031-.126-.018.164-.098 0-.125.068-.019.053-.063.125-.094.006-.029.135-.154.25-.156.284-.049-.141-.232.125-.156.08.045.203-.096.25-.157-.041.11.195-.24.187-.25.106-.079.422-.187.313-.187.143-.1.195-.295.219-.469.12-.1.204-.296.218-.344-.024-.086-.349-.164-.25-.156-.067-.032-.161-.047-.187 0-.007-.063-.211-.083-.156-.063-.035.026-.047.014-.063.032-.056.063-.026.096-.094.031.053-.01.08-.015.094-.031.02-.024 0-.058-.031-.063-.006 0-.029-.004-.031 0-.004.003-.03-.002-.032 0a.195.195 0 0 0-.062.063c-.059-.018-.042-.28.062-.219-.029-.114-.125-.17-.25-.188-.157.038-.185-.06-.281-.156-.086.02-.157-.12-.156-.125-.119.084-.417-.005-.469-.031-.049.003-.078.035-.063.125-.142.056.076-.235-.062-.156-.09.112-.194.014-.219.156-.092.138-.067.057-.219 0-.174.095-.313-.016-.28-.125.037-.093-.008-.239 0-.25-.043-.01-.136-.06-.25-.031-.171.055.046-.105 0-.156-.012-.053-.084-.217.03-.22-.17-.027-.182.122-.25.22-.06-.051-.21.051-.28-.063-.125-.116-.114-.295-.063-.438.047-.054-.003-.24.125-.25.12-.066.082-.088.25-.062.038.006.087-.07.156 0 .006-.1.304-.059.219-.063.06.077.17.01.187.157-.01.052.099.168.125.219.118-.146-.13-.377.063-.5.11-.074.296-.207.281-.22.009-.002.018-.028.031-.03-.01-.007-.007-.022-.031-.032.059-.044.01-.163 0-.187.004.003.07-.135.063.031.023.17.046-.07.062-.125.031-.021.057-.051.094-.094.005-.006.022.004.031 0 .031-.03.07-.075.125-.062.116-.01.051-.008.063-.125a.355.355 0 0 1 .218-.125c-.032-.05.108-.01.156-.031-.052.026-.154.12-.03.156.023-.099.237-.097.218-.156-.003-.009-.017.012-.031 0-.146.063-.229-.146-.188-.157-.147-.031.266-.09 0-.125-.22.063-.413.244-.156 0 .123-.038.136-.153.281-.094.094.015.24.08.313-.03.072.02.161-.057.125-.095.04-.055-.02-.114-.031-.093-.008-.05-.08-.024-.126 0 .004-.006-.012-.017 0-.031.035-.022.172-.031.032-.094-.046.017-.109-.036-.063-.031-.092-.058-.05-.201-.062-.157.033-.047.056-.13 0-.094-.08.012.003-.048-.063-.124-.002-.021-.027-.025-.031-.032-.018.032-.063.083-.063.063-.002.049-.12.076-.124.062-.05.021.023-.049-.094-.062-.01-.018-.012-.073-.031-.094.108.045.142-.105.03-.094-.037-.029-.247-.097-.155-.125-.14-.074-.172-.007-.22.094.044.003-.047.085 0 .094-.065.09-.015.276 0 .312-.003.072-.165.25-.218.156-.028.073-.072.25-.031.188.022.082-.06.021-.094.031-.083-.069-.076-.15-.031-.281-.024-.118-.155-.02-.219-.156a.404.404 0 0 0-.25-.125c.033-.194-.13-.02-.063-.156a.482.482 0 0 1 .188-.25c.053-.038.095-.01.063-.094.126.122.059-.016.062-.032.117.068.09-.062.188 0 .047-.006.08-.018.093-.03.025-.023-.002-.069-.031-.095.123.065.136-.15.219-.062.003.004.018-.029.031 0 .12.02.098-.195.125-.125.01.002-.004-.03 0-.031a.564.564 0 0 1-.063-.063c-.044.035-.117.09-.156.125-.024.013-.037.04-.031.032-.057-.01.054-.249-.063-.157-.027.022-.047.031-.062.032-.007-.024-.006-.078.031-.094-.083-.042.071-.042 0-.157-.046-.047-.146.113-.125.063-.141.05.15.104-.031.125.129.024-.078.2-.094.125-.066.064.056-.15 0-.094-.018-.001-.069.005-.094 0 0 .005-.02.015 0 .032.004.026-.228-.026-.28-.032-.038-.036-.047-.064-.095-.062-.085.004-.104.103-.124.125-.078.083-.096-.067-.032-.063a.51.51 0 0 1-.187-.062c-.003-.012-.016-.052-.031-.063-.08-.104-.16-.168-.22-.093-.11.112-.06-.034-.093-.032-.006 0-.017-.013-.031 0zm1.187.25h.031c.062.015.012-.124-.03-.125-.008 0-.025.025-.032.032-.079.034-.111.016 0 .062zm.25.375c-.005.007-.008.05 0 .032.004.024.056.077.063.062.106-.135.114.032.219 0-.024-.028-.158-.18-.157-.188-.04 0-.108.073-.125.094zm.969 1.657c.001.008.009-.004.031 0 .02-.033.072.01.031-.094-.002.009-.065.067-.062.094Zm-3.531-.532c.015.032.008.08 0 .063.044.023.06.087.125.062.02-.056-.078-.087-.125-.125zm3.219-1.344c-.043 0-.16.066-.032.063.046-.045.052-.062.031-.063Zm.906.063c-.037 0-.048.097.062.094-.028-.062-.044-.094-.062-.094Zm1.062.656c.014.011.02.051.031.063-.02-.028-.017-.063-.03-.063zm.031.063c.056.047-.025.082.094.125l.031.031c.073.008.035-.126.032-.156-.062-.01-.123.048-.125 0-.008-.013-.025.01-.031 0zm-2.5.125c-.02.001-.076.082 0 .062.025-.027.01-.063 0-.062zm-.218.281c-.032 0-.03.045.062.031-.01-.023-.049-.031-.062-.031Zm3.406.219c.016.045.026.081.063.156.01-.004.017.018.03.031-.027-.064-.062-.125-.093-.187ZM15 8.75a.69.69 0 0 0 .063.25c.005.012-.006.021 0 .031-.004 0-.01.034 0 .031.002.004.029-.002.03 0-.03.102.04.119 0 .157.14.029.06-.163.032-.219-.035-.115-.116-.215-.125-.25Zm-2.344.094c-.038 0-.023.055.125.094-.038-.057-.097-.094-.125-.094Zm.375 0c-.032.055-.068.116-.125.125-.039.05.072.125.188.094-.001.029-.044.08.062.03.011-.025-.004-.032 0-.03l.031.03c.004.029.009.068.032.063.084-.082-.029-.065-.031-.094-.001-.01 0-.037.03-.062-.1.057-.145-.041-.062-.063-.131-.01-.016-.02-.062-.062-.072.043-.08.009-.063-.031Zm1.938.062c-.01 0-.024.01-.031.031-.009.04.016.198.03.157.011.009.01.043.032.031.098-.015.018-.222-.031-.219ZM15.25 9c.012.098-.001.222 0 .25a.312.312 0 0 1-.125.094c.05.055-.011.226.031.281-.085-.011-.097.16-.094.219-.01.162.104.222.126.219.114.002.134-.34.124-.25.016-.157.123-.198.157 0A3.88 3.88 0 0 0 15.25 9Zm0 1.063c-.051.012-.075.039-.031.062-.108-.015-.187.473-.188.375a.782.782 0 0 0-.219.438c.064.133.035.528 0 .468.029.082.1.284.094.188.037.11.153.216.25.094.136-.111.256-.137.156.093.14-.408.25-.825.25-1.281 0-.044-.03-.082-.03-.125-.088-.1-.245-.305-.126-.313a.308.308 0 0 0-.156 0zm-3.969.78c-.05 0-.075.031-.125.063-.028.034.015.038.063.031h.031c.033-.007.061-.025.063-.03.006.007.424.177.25.124.019.014.034.023.03.031.004.006.026.034.126.032.144-.046-.132-.13-.125-.125-.014-.007-.018-.024-.031-.031-.018-.026-.022-.032-.032-.032a.604.604 0 0 0-.25-.062zm-3.562.063c-.014.001-.036.04 0 .063.013-.044.01-.063 0-.063zm4.156.156c-.022 0-.038.024-.031.032.016.011-.007.023 0 .031-.007 0-.013.04 0 .031-.015.002-.02.03-.031.031.084-.045.076.054.124.032.02-.067.26-.022.188-.094-.015-.035-.183-.064-.25-.063zm.406.094c-.04.001-.13.082 0 .063.013-.028.017-.063 0-.063zm-.75.031c.007.007.013.022.031.032h.032c.12-.01-.01-.032-.063-.031zm-.844 1.126c-.01 0 0 .082.032.062-.006-.042-.027-.062-.031-.063z" transform="translate(-7.002 -5.995)"/>
  <path fill="none" stroke="url(#n)" stroke-width="28.785" d="M-670 526.648a232.857 232.857 0 0 1-232.857 232.857 232.857 232.857 0 0 1-232.857-232.857A232.857 232.857 0 0 1-902.857 293.79 232.857 232.857 0 0 1-670 526.648Z" transform="matrix(.01817 0 0 .01817 20.915 -5.065)"/>
  <path fill="#e09a36" stroke="url(#o)" d="m14.08 1038.953-2.121.708 2.828 2.828.707-2.121c.314-.94-.715-1.723-1.414-1.415z" transform="translate(-.054 -1037.377)"/>
  <path fill="url(#p)" stroke="url(#q)" stroke-width=".935" d="M11.35 1039.096c1.914-.25 4.205 2.216 4.002 4.002l-5.679 5.679-4.002-4.002z" transform="translate(-.054 -1037.377)"/>
  <path fill="#496da1" d="M12.764 1041.388a7.284 7.284 0 0 0-.774-.64l-1.59 1.59c.263.19.522.405.773.642z" color="#000" font-family="Sans" font-weight="400" overflow="visible" style="line-height:normal;-inkscape-font-specification:Sans;text-indent:0;text-align:start;text-decoration-line:none;text-transform:none;marker:none" transform="translate(-.054 -1037.377)"/>
  <path fill="#ffffc9" stroke="url(#r)" stroke-width=".935" d="M5.911 1048.55c-1.022-1.022-2.282-1.811-3.182-1.811l-.376.375c0 1.8 3.196 4.972 4.972 4.972l.376-.376c0-.888-.77-2.136-1.79-3.16z" transform="translate(-.054 -1037.377)"/>
  <path fill="url(#s)" stroke="url(#t)" stroke-width=".822" d="m4.501 1045.7-8.014 8.013 4.239 4.24 8.014-8.015z" transform="translate(-.054 -1037.377)"/>
  <path fill="url(#u)" stroke="url(#v)" stroke-linejoin="round" stroke-miterlimit="3" stroke-width=".935" d="m5.624 1043.844-2.895 2.895c2.443-.093 5.13 2.663 4.972 4.971l2.895-2.894c.845-2.509-2.329-5.67-4.972-4.972z" transform="translate(-.054 -1037.377)"/>
</svg>
