<svg xmlns="http://www.w3.org/2000/svg" xmlns:xlink="http://www.w3.org/1999/xlink" width="16" height="16" shape-rendering="crispEdges">
  <defs>
    <linearGradient id="a">
      <stop offset="0" stop-color="#d0f1ff"/>
      <stop offset="1" stop-color="#f1f9fe"/>
    </linearGradient>
    <linearGradient id="d">
      <stop offset="0" stop-color="#475b82"/>
      <stop offset="1" stop-color="#596f9b"/>
    </linearGradient>
    <linearGradient id="c">
      <stop offset="0" stop-color="#6da8e5"/>
      <stop offset="1" stop-color="#c5e9f2"/>
    </linearGradient>
    <linearGradient id="b">
      <stop offset="0" stop-color="#717c8d"/>
      <stop offset="1" stop-color="#9d7c2f"/>
    </linearGradient>
    <linearGradient xlink:href="#a" id="i" x1="10" x2="15" y1="1040.362" y2="1043.362" gradientTransform="matrix(1.16667 0 0 .66666 -9.583 355.956)" gradientUnits="userSpaceOnUse"/>
    <linearGradient xlink:href="#b" id="j" x1="13" x2="13" y1="1044.362" y2="1041.362" gradientTransform="matrix(1.16667 0 0 .66666 -9.583 355.956)" gradientUnits="userSpaceOnUse"/>
    <linearGradient xlink:href="#c" id="k" x1="10" x2="15" y1="1038.362" y2="1038.362" gradientTransform="matrix(1.16667 0 0 1 -9.583 8)" gradientUnits="userSpaceOnUse"/>
    <linearGradient xlink:href="#d" id="l" x1="9" x2="16" y1="1039.362" y2="1039.362" gradientTransform="matrix(1.16667 0 0 1 -9.583 8)" gradientUnits="userSpaceOnUse"/>
    <linearGradient xlink:href="#e" id="m" x1="673.61" x2="696.684" y1="460.616" y2="460.616" gradientTransform="matrix(.182 0 0 .17838 -101.09 965.354)" gradientUnits="userSpaceOnUse"/>
    <linearGradient id="e">
      <stop offset="0" stop-color="#f7e26b"/>
      <stop offset=".174" stop-color="#f7e26b"/>
      <stop offset=".347" stop-color="#fcf89d"/>
      <stop offset=".5" stop-color="#fcf89d"/>
      <stop offset=".638" stop-color="#f6e567"/>
      <stop offset=".819" stop-color="#f1c32f"/>
      <stop offset="1" stop-color="#f1c32f"/>
    </linearGradient>
    <linearGradient xlink:href="#f" id="n" x1="5.015" x2="11.813" y1="2.633" y2="2.633" gradientTransform="matrix(.62622 0 0 .66323 18.379 1042.69)" gradientUnits="userSpaceOnUse"/>
    <linearGradient id="f">
      <stop offset="0" stop-color="#c99d19"/>
      <stop offset=".389" stop-color="#fcdf98"/>
      <stop offset="1" stop-color="#c99d19"/>
    </linearGradient>
    <linearGradient xlink:href="#g" id="o" x1="690.186" x2="690.186" y1="484.134" y2="438.441" gradientTransform="matrix(.17508 0 0 .17171 -96.317 968.343)" gradientUnits="userSpaceOnUse"/>
    <linearGradient id="g">
      <stop offset="0" stop-color="#b5803b"/>
      <stop offset="1" stop-color="#c99d19"/>
    </linearGradient>
    <linearGradient id="h">
      <stop offset="0" stop-color="#446cbe"/>
      <stop offset="1" stop-color="#446193"/>
    </linearGradient>
    <radialGradient xlink:href="#h" id="p" cx="2" cy="1039.013" r="3.51" fx="2" fy="1039.013" gradientTransform="matrix(0 1.4246 -1.70948 0 1779.149 1036.511)" gradientUnits="userSpaceOnUse"/>
  </defs>
  <path fill="url(#i)" stroke="url(#j)" d="M1.5 1047.862h7v4h-7z" transform="translate(0 -1036.362)"/>
  <path fill="url(#k)" stroke="url(#l)" d="M1.5 1045.862h7v2h-7z" transform="translate(0 -1036.362)"/>
  <g transform="matrix(.99403 0 0 1 -10.47 -1041.935)">
    <path fill="url(#m)" d="M23.589 1043.362c-1.438 0-2.589.427-2.589.96v6.392c0 .532 1.15.959 2.589.959 1.438 0 2.609-.427 2.609-.96v-6.392c0-.532-1.171-.959-2.61-.959z"/>
    <ellipse cx="23.628" cy="1044.436" fill="none" stroke="url(#n)" stroke-width="1.003" rx="2.5" ry="1"/>
    <path fill="none" stroke="url(#o)" stroke-width="1.003" d="M23.618 1043.436c-1.383 0-2.49.41-2.49.923v6.154c0 .513 1.107.923 2.49.923 1.384 0 2.51-.41 2.51-.923v-6.154c0-.512-1.126-.923-2.51-.923z"/>
  </g>
  <path fill="url(#p)" d="M1.98 1043.387v-1.007h3.026v1.007zm1.057-3.008v-1.007H9v1.007zm3.946-2.017h1.008v3.026H6.983zm-4 1.031h1.008v4.938H2.983z" transform="translate(0 -1036.362)"/>
</svg>
