<svg xmlns="http://www.w3.org/2000/svg" xmlns:xlink="http://www.w3.org/1999/xlink" width="16" height="16">
  <defs>
    <linearGradient id="a">
      <stop offset="0" stop-color="#fbe597"/>
      <stop offset="1" stop-color="#fffcf0"/>
    </linearGradient>
    <linearGradient id="b">
      <stop offset="0" stop-color="#bd8416"/>
      <stop offset="1" stop-color="#806229"/>
    </linearGradient>
    <linearGradient xlink:href="#a" id="e" x1="4.964" x2="4.964" y1="6.698" y2="2.933" gradientTransform="matrix(-.89057 0 0 .88223 32.05 1036.3)" gradientUnits="userSpaceOnUse"/>
    <linearGradient xlink:href="#b" id="f" x1="5.759" x2="5.759" y1="2.395" y2="8.2" gradientTransform="matrix(-.89057 0 0 .88223 32.05 1036.3)" gradientUnits="userSpaceOnUse"/>
    <linearGradient id="c">
      <stop offset="0" stop-color="#fbe597"/>
      <stop offset="1" stop-color="#fffcf0"/>
    </linearGradient>
    <linearGradient id="d">
      <stop offset="0" stop-color="#bd8416"/>
      <stop offset="1" stop-color="#806229"/>
    </linearGradient>
    <linearGradient xlink:href="#c" id="g" x1="4.964" x2="4.964" y1="6.698" y2="2.933" gradientTransform="matrix(.89057 0 0 .88223 16.855 1043.464)" gradientUnits="userSpaceOnUse"/>
    <linearGradient xlink:href="#d" id="h" x1="5.759" x2="5.759" y1="2.395" y2="8.2" gradientTransform="matrix(.89057 0 0 .88223 16.855 1043.464)" gradientUnits="userSpaceOnUse"/>
  </defs>
  <g stroke-width=".992">
    <path fill="url(#e)" stroke="url(#f)" d="M26.996 1038.567v-1.993h1.237l3.424 3.587-3.581 3.548h-1.04v-2.09H21.79l-1.023-1.471.984-1.503z" transform="matrix(-.98581 0 0 .98581 32.092 -1020.394)"/>
    <path fill="url(#g)" stroke="url(#h)" d="M21.909 1045.731v-1.993h-1.237l-3.424 3.587 3.582 3.548h1.04v-2.09h5.245l1.023-1.471-.984-1.503z" transform="matrix(-.98581 0 0 .98581 32.092 -1020.394)"/>
  </g>
</svg>
