<?xml version="1.0" encoding="UTF-8" standalone="no"?>
<svg
   width="16"
   height="16"
   version="1.1"
   id="svg3"
   xmlns="http://www.w3.org/2000/svg"
   xmlns:svg="http://www.w3.org/2000/svg">
  <defs
     id="defs3" />
  <g
     color="#000"
     id="g3">
    <path
       fill="#5fcf92"
       stroke="#3d9465"
       stroke-width="1.396"
       d="M14.363 7.912a6.806 6.806 0 1 1-13.612 0 6.806 6.806 0 0 1 13.612 0z"
       overflow="visible"
       style="marker:none"
       transform="matrix(.9309 0 0 .9309 1.102 .543)"
       id="path1" />
    <path
       fill="none"
       stroke="#3d9465"
       stroke-width="2.578"
       d="M14.363 7.912a6.806 6.806 0 1 1-13.612 0 6.806 6.806 0 0 1 13.612 0z"
       overflow="visible"
       style="marker:none"
       transform="translate(4.414 4.006) scale(.50434)"
       id="path2" />
    <path
       fill="#20680c"
       stroke="#20680c"
       stroke-width="2.03"
       d="M14.363 7.912a6.806 6.806 0 1 1-13.612 0 6.806 6.806 0 0 1 13.612 0z"
       overflow="visible"
       style="marker:none"
       transform="matrix(.23264 0 0 .23264 6.53 6.094)"
       id="path3" />
  </g>
</svg>
