<svg xmlns="http://www.w3.org/2000/svg" xmlns:xlink="http://www.w3.org/1999/xlink" width="16" height="16">
  <defs>
    <linearGradient id="d">
      <stop offset="0" stop-color="#afb8cd"/>
      <stop offset="1" stop-color="#8192b5"/>
    </linearGradient>
    <linearGradient id="c">
      <stop offset="0" stop-color="#acbfd5"/>
      <stop offset="1" stop-color="#627297"/>
    </linearGradient>
    <linearGradient id="b">
      <stop offset="0" stop-color="#b68e69"/>
      <stop offset=".942" stop-color="#d5ae7d"/>
      <stop offset="1" stop-color="#c69863"/>
    </linearGradient>
    <linearGradient id="a">
      <stop offset="0" stop-color="#f1c373"/>
      <stop offset="1" stop-color="#f6e3c9"/>
    </linearGradient>
    <linearGradient xlink:href="#a" id="j" x1="-12" x2="-12" y1="1050.995" y2="1038.866" gradientTransform="translate(21.969)" gradientUnits="userSpaceOnUse"/>
    <linearGradient xlink:href="#b" id="k" x1="-17.313" x2="-17.344" y1="1050.945" y2="1039.084" gradientTransform="translate(21.969)" gradientUnits="userSpaceOnUse"/>
    <linearGradient xlink:href="#c" id="m" x1="-11.376" x2="-11.376" y1="1036.296" y2="1040.278" gradientTransform="translate(21.969)" gradientUnits="userSpaceOnUse"/>
    <linearGradient xlink:href="#d" id="l" x1="-12.922" x2="-12.922" y1="1037.323" y2="1040.391" gradientTransform="translate(21.969)" gradientUnits="userSpaceOnUse"/>
    <linearGradient xlink:href="#e" id="n" x1="9.895" x2="9.895" y1="1039.153" y2="1051.838" gradientTransform="translate(-4 -2)" gradientUnits="userSpaceOnUse"/>
    <linearGradient xlink:href="#f" id="o" x1="10.545" x2="10.545" y1="1038.578" y2="1052.323" gradientTransform="translate(-4 -2)" gradientUnits="userSpaceOnUse"/>
    <linearGradient xlink:href="#g" id="r" x1="7.007" x2="14" y1="1047.857" y2="1047.857" gradientTransform="matrix(.72294 0 0 1 -14.128 -4.875)" gradientUnits="userSpaceOnUse"/>
    <linearGradient xlink:href="#h" id="q" x1="7.007" x2="14" y1="1045.857" y2="1045.857" gradientTransform="matrix(.57547 0 0 1 -13.095 -4.875)" gradientUnits="userSpaceOnUse"/>
    <linearGradient xlink:href="#i" id="p" x1="7.007" x2="11" y1="1043.857" y2="1043.857" gradientTransform="matrix(.82572 0 0 1 -14.848 -4.875)" gradientUnits="userSpaceOnUse"/>
    <linearGradient id="h">
      <stop offset="0" stop-color="#91a5c7"/>
      <stop offset="1" stop-color="#637aa7"/>
    </linearGradient>
    <linearGradient id="i">
      <stop offset="0" stop-color="#91a5c7"/>
      <stop offset="1" stop-color="#5e76a3"/>
    </linearGradient>
    <linearGradient id="f">
      <stop offset="0" stop-color="#c7b571"/>
      <stop offset="1" stop-color="#9a9a8f"/>
    </linearGradient>
    <linearGradient id="e">
      <stop offset="0" stop-color="#f9fafc"/>
      <stop offset="1" stop-color="#dce7f7"/>
    </linearGradient>
    <linearGradient id="g">
      <stop offset="0" stop-color="#91a5c7"/>
      <stop offset="1" stop-color="#637aa7"/>
    </linearGradient>
    <filter id="s" width="1.204" height="1.3" x="-.102" y="-.15">
      <feGaussianBlur stdDeviation=".34"/>
    </filter>
  </defs>
  <g transform="translate(0 -1036.362)">
    <rect width="11.054" height="11.993" x="3.446" y="1038.869" fill="url(#j)" stroke="url(#k)" rx="1.219" ry="1.219"/>
    <path fill="url(#l)" d="m4.984 1040.347 1.532-1.368.937-2.117h3l.953 2.117 1.547 1.368"/>
    <path fill="url(#m)" d="M7.313 1036.375a.508.508 0 0 0-.313.281l-.875 2-.966.864c-.22.219-.162.325-.191.838h.747l1.129-1.014a.507.507 0 0 0 .125-.156l.812-1.813h2.344l.813 1.813a.5.5 0 0 0 .124.156l1.174 1.032c.113 0 .472-.02.716-.03 0-.214.082-.576-.124-.782l-1.015-.908-.907-2a.51.51 0 0 0-.437-.281h-3a.41.41 0 0 0-.156 0z" color="#000" enable-background="accumulate" font-family="Sans" font-weight="400" overflow="visible" style="text-indent:0;text-align:start;line-height:normal;text-transform:none;block-progression:tb;marker:none;-inkscape-font-specification:Sans"/>
    <path fill="url(#n)" d="M1.497 1036.904h8.813l.103 3.006v6.549H1.497z" transform="translate(2.971 3.918)"/>
    <path fill="none" stroke="url(#o)" d="M1.497 1036.904h9.022l.04 3.006v6.049H1.498z" transform="translate(2.971 3.918)"/>
    <path fill="url(#p)" d="M-9.063 1038.477h3.297v1.01h-3.297z" transform="matrix(-1 0 0 1 2.971 3.918)"/>
    <path fill="url(#q)" d="M-9.063 1040.477h4.024v1.01h-4.024z" transform="matrix(-1 0 0 1 2.971 3.918)"/>
    <path fill="url(#r)" d="M-9.063 1042.477h5.055v1.01h-5.055z" transform="matrix(-1 0 0 1 2.971 3.918)"/>
    <path fill="none" stroke="#fff" stroke-width="1.8" d="m1.781 1045.175 2.5 2.531 5.5-5.437" filter="url(#s)"/>
    <path fill="none" stroke="#00b4ff" stroke-width="1.8" d="m.5 1045.425 2.5 2.53 5.5-5.437"/>
    <path fill="#1a549a" d="m7.906 1043.094-4.875 4.812L1.156 1046l-1.281.125 2.5 2.531.625.625.625-.625 5.5-5.437z" color="#000" enable-background="accumulate" font-family="Sans" font-weight="400" overflow="visible" style="text-indent:0;text-align:start;line-height:normal;text-transform:none;block-progression:tb;marker:none;-inkscape-font-specification:Sans"/>
  </g>
</svg>
