<?xml version="1.0" encoding="UTF-8" standalone="no"?>
<svg
   width="16"
   height="16"
   version="1.1"
   id="svg28"
   xmlns:xlink="http://www.w3.org/1999/xlink"
   xmlns="http://www.w3.org/2000/svg"
   xmlns:svg="http://www.w3.org/2000/svg">
  <defs
     id="defs12">
    <linearGradient
       id="e">
      <stop
         offset="0"
         stop-color="#6c8ab7"
         id="stop1" />
      <stop
         offset="1"
         stop-color="#607ead"
         id="stop2" />
    </linearGradient>
    <linearGradient
       id="f">
      <stop
         offset="0"
         stop-color="#7694be"
         id="stop3" />
      <stop
         offset="1"
         stop-color="#607ead"
         id="stop4" />
    </linearGradient>
    <linearGradient
       id="d">
      <stop
         offset="0"
         stop-color="#6c8ab7"
         id="stop5" />
      <stop
         offset="1"
         stop-color="#607ead"
         id="stop6" />
    </linearGradient>
    <linearGradient
       id="a">
      <stop
         offset="0"
         stop-color="#fff"
         id="stop7" />
      <stop
         offset="1"
         stop-color="#fff"
         stop-opacity="0"
         id="stop8" />
    </linearGradient>
    <linearGradient
       xlink:href="#a"
       id="i"
       x1="3"
       x2="4"
       y1="1045.862"
       y2="1045.862"
       gradientUnits="userSpaceOnUse" />
    <linearGradient
       xlink:href="#a"
       id="j"
       x1="4.5"
       x2="4.5"
       y1="1044.347"
       y2="1045.343"
       gradientUnits="userSpaceOnUse" />
    <linearGradient
       xlink:href="#b"
       id="k"
       x1="3"
       x2="4"
       y1="1045.862"
       y2="1045.862"
       gradientUnits="userSpaceOnUse" />
    <linearGradient
       id="b">
      <stop
         offset="0"
         stop-color="#fff"
         id="stop9" />
      <stop
         offset="1"
         stop-color="#fff"
         stop-opacity="0"
         id="stop10" />
    </linearGradient>
    <linearGradient
       xlink:href="#b"
       id="l"
       x1="4.5"
       x2="4.5"
       y1="1044.347"
       y2="1045.343"
       gradientUnits="userSpaceOnUse" />
    <linearGradient
       xlink:href="#c"
       id="m"
       x1="3"
       x2="4"
       y1="1045.862"
       y2="1045.862"
       gradientUnits="userSpaceOnUse" />
    <linearGradient
       id="c">
      <stop
         offset="0"
         stop-color="#fff"
         id="stop11" />
      <stop
         offset="1"
         stop-color="#fff"
         stop-opacity="0"
         id="stop12" />
    </linearGradient>
    <linearGradient
       xlink:href="#c"
       id="n"
       x1="4.5"
       x2="4.5"
       y1="1044.347"
       y2="1045.343"
       gradientUnits="userSpaceOnUse" />
    <linearGradient
       xlink:href="#d"
       id="h"
       x1="11"
       x2="14"
       y1="1048.862"
       y2="1048.862"
       gradientUnits="userSpaceOnUse" />
    <linearGradient
       xlink:href="#e"
       id="g"
       x1="11"
       x2="14"
       y1="1044.862"
       y2="1044.862"
       gradientUnits="userSpaceOnUse" />
    <linearGradient
       xlink:href="#f"
       id="o"
       x1="7"
       x2="14"
       y1="1040.862"
       y2="1040.862"
       gradientUnits="userSpaceOnUse" />
  </defs>
  <path
     fill="url(#g)"
     d="M11 1044.362h3v1h-3z"
     transform="translate(0 -1036.362)"
     id="path12" />
  <path
     fill="url(#h)"
     d="M11 1048.362h3v1h-3z"
     transform="translate(0 -1036.362)"
     id="path13" />
  <path
     fill="#5c7aaa"
     d="M3 3v3h3V3zm1 1h1v1H4z"
     id="path14" />
  <path
     fill="#91a5c7"
     d="M4 4h1v1H4z"
     id="path15" />
  <path
     fill="url(#i)"
     d="m3 1044.362 1 1v2H3z"
     opacity=".5"
     transform="matrix(.33334 0 0 .33333 3 -344.12)"
     id="path16" />
  <path
     fill="url(#j)"
     d="m3 1044.362 1 1h2v-1z"
     opacity=".5"
     transform="matrix(.33334 0 0 .33333 3 -344.12)"
     id="path17" />
  <path
     fill="#5c7aaa"
     d="M7 7v3h3V7zm1 1h1v1H8z"
     id="path18" />
  <path
     fill="#91a5c7"
     d="M8 8h1v1H8z"
     id="path19" />
  <path
     fill="url(#k)"
     d="m3 1044.362 1 1v2H3z"
     opacity=".5"
     transform="matrix(.33334 0 0 .33333 7 -340.12)"
     id="path20" />
  <path
     fill="url(#l)"
     d="m3 1044.362 1 1h2v-1z"
     opacity=".5"
     transform="matrix(.33334 0 0 .33333 7 -340.12)"
     id="path21" />
  <path
     fill="#5c7aaa"
     d="M7 11v3h3v-3zm1 1.007h1v1.008H8z"
     id="path22" />
  <path
     fill="#91a5c7"
     d="M8 12h1v1H8z"
     id="path23" />
  <path
     fill="url(#m)"
     d="m3 1044.362 1 1v2H3z"
     opacity=".5"
     transform="matrix(.33334 0 0 .33333 7 -336.12)"
     id="path24" />
  <path
     fill="url(#n)"
     d="m3 1044.362 1 1h2v-1z"
     opacity=".5"
     transform="matrix(.33334 0 0 .33333 7 -336.12)"
     id="path25" />
  <path
     fill="#5c7aaa"
     d="M4 6h1v7H4z"
     id="path26" />
  <path
     fill="#5c7aaa"
     d="M4 8h3v1H4zM4 12h3v1H4z"
     id="path27" />
  <path
     fill="url(#o)"
     d="M7 1040.362h7v1H7z"
     transform="translate(0 -1036.362)"
     id="path28" />
</svg>
