<svg xmlns="http://www.w3.org/2000/svg" xmlns:xlink="http://www.w3.org/1999/xlink" width="16" height="16">
  <defs>
    <linearGradient id="b">
      <stop offset="0" stop-color="#d5f3ff"/>
      <stop offset="1" stop-color="#fafcf4"/>
    </linearGradient>
    <linearGradient id="a">
      <stop offset="0" stop-color="#8a97ac"/>
      <stop offset="1" stop-color="#bfb688"/>
    </linearGradient>
    <linearGradient xlink:href="#a" id="h" x1="688.319" x2="688.319" y1="317.174" y2="274.169" gradientTransform="matrix(.5 0 0 .5 303.842 157.691)" gradientUnits="userSpaceOnUse"/>
    <linearGradient xlink:href="#b" id="g" x1="668.608" x2="711.614" y1="281.336" y2="313.591" gradientTransform="matrix(.5 0 0 .5 303.842 157.691)" gradientUnits="userSpaceOnUse"/>
    <linearGradient xlink:href="#b" id="e" x1="668.608" x2="711.614" y1="281.336" y2="313.591" gradientTransform="matrix(.5 0 0 .5 278.755 157.691)" gradientUnits="userSpaceOnUse"/>
    <linearGradient xlink:href="#a" id="f" x1="688.319" x2="688.319" y1="317.174" y2="274.169" gradientTransform="matrix(.5 0 0 .5 278.755 157.691)" gradientUnits="userSpaceOnUse"/>
    <linearGradient xlink:href="#c" id="i" x1="1.686" x2="14.375" y1="1040.74" y2="1040.74" gradientTransform="matrix(-2.12374 0 0 -1.9548 643.123 2313.902)" gradientUnits="userSpaceOnUse"/>
    <linearGradient id="c">
      <stop offset="0" stop-color="#fbdd83"/>
      <stop offset="1" stop-color="#fefdef"/>
    </linearGradient>
    <linearGradient xlink:href="#d" id="j" x1="1.063" x2="15.566" y1="1050.081" y2="1050.081" gradientTransform="matrix(-2.12374 0 0 -1.9548 643.123 2313.902)" gradientUnits="userSpaceOnUse"/>
    <linearGradient id="d">
      <stop offset="0" stop-color="#a66b10"/>
      <stop offset="1" stop-color="#bd8416"/>
    </linearGradient>
    <linearGradient xlink:href="#c" id="k" x1="1.686" x2="14.375" y1="1040.74" y2="1040.74" gradientTransform="matrix(2.12374 0 0 -1.9548 629.585 2313.902)" gradientUnits="userSpaceOnUse"/>
    <linearGradient xlink:href="#d" id="l" x1="1.063" x2="15.566" y1="1050.081" y2="1050.081" gradientTransform="matrix(2.12374 0 0 -1.9548 629.585 2313.902)" gradientUnits="userSpaceOnUse"/>
  </defs>
  <g stroke-width="3.584">
    <path fill="url(#e)" stroke="url(#f)" d="M611.267 290.296h25.087v25.087h-25.087z" transform="matrix(.27903 0 0 .27903 -169.064 -72.502)"/>
    <path fill="url(#g)" stroke="url(#h)" d="M636.354 290.296h25.087v25.087h-25.087z" transform="matrix(.27903 0 0 .27903 -169.064 -72.502)"/>
    <path fill="url(#i)" stroke="url(#j)" stroke-linecap="round" stroke-linejoin="round" d="M625.635 283.128v-7.021h11.714c1.419 0 2.589-1.077 2.589-2.383v-2.606c0-1.306-1.17-2.383-2.589-2.383h-11.714v-7.11h-2.687l-11.68 10.752 11.68 10.751z" transform="matrix(.27903 0 0 .27903 -169.064 -72.502)"/>
    <path fill="url(#k)" stroke="url(#l)" stroke-linecap="round" stroke-linejoin="round" d="M635.359 268.735h11.714v-7.11h2.687l11.68 10.752-11.68 10.751h-2.687v-7.021h-11.714" transform="matrix(.27903 0 0 .27903 -169.064 -72.502)"/>
  </g>
</svg>
