<svg xmlns="http://www.w3.org/2000/svg" xmlns:xlink="http://www.w3.org/1999/xlink" width="16" height="16">
  <defs>
    <linearGradient id="b">
      <stop offset="0" stop-color="#ad7212"/>
      <stop offset="1" stop-color="#996c22"/>
    </linearGradient>
    <linearGradient id="a">
      <stop offset="0" stop-color="#fff"/>
      <stop offset="1" stop-color="#ffd25d"/>
    </linearGradient>
    <linearGradient xlink:href="#b" id="d" x1="22.669" x2="22.669" y1="1043.58" y2="1039.239" gradientTransform="matrix(1.61263 0 0 -1.61263 -29.557 2724.273)" gradientUnits="userSpaceOnUse"/>
    <radialGradient xlink:href="#a" id="c" cx="23.617" cy="1043.666" r="4.673" fx="23.617" fy="1043.666" gradientTransform="matrix(3.7884 0 0 -1.55702 -80.47 2666.37)" gradientUnits="userSpaceOnUse"/>
  </defs>
  <path fill="url(#c)" stroke="url(#d)" stroke-linejoin="round" d="m1.449 1044.992 7.063-6.199s-.034 2.188-.034 3.524c2.336.145 3.016.077 4.159-1.022 1.438-1.382 1.222-3.838 1.877-4.04.655-.2 1.008 3.528 1.008 4.234s-.282 3.067-1.16 4.235c-.473.631-1.623 1.541-2.469 1.774-.846.233-3.415.691-3.415.691l.02 2.68c-1.27-1.075-7.05-5.877-7.05-5.877z" transform="translate(0 -1036.362)"/>
</svg>
