<svg xmlns="http://www.w3.org/2000/svg" xmlns:xlink="http://www.w3.org/1999/xlink" width="7" height="8" shape-rendering="crispEdges">
  <defs>
    <linearGradient xlink:href="#a" id="d" x1="679.378" x2="696.684" y1="460.495" y2="460.616" gradientTransform="matrix(.14412 0 0 .13419 -95.247 987.116)" gradientUnits="userSpaceOnUse"/>
    <linearGradient id="a">
      <stop offset="0" stop-color="#faecd5"/>
      <stop offset=".277" stop-color="#ffc624"/>
      <stop offset="1" stop-color="#ffa815"/>
    </linearGradient>
    <linearGradient id="c">
      <stop offset="0" stop-color="#c37815"/>
      <stop offset=".216" stop-color="#eca84f"/>
      <stop offset=".435" stop-color="#d08726"/>
      <stop offset="1" stop-color="#c47915"/>
    </linearGradient>
    <linearGradient xlink:href="#b" id="f" x1="690.186" x2="690.186" y1="484.134" y2="438.441" gradientTransform="matrix(.13864 0 0 .12917 -91.468 989.365)" gradientUnits="userSpaceOnUse"/>
    <linearGradient id="b">
      <stop offset="0" stop-color="#b96d15"/>
      <stop offset="1" stop-color="#d48b15"/>
    </linearGradient>
    <linearGradient xlink:href="#c" id="e" x1="4.57" x2="11.813" y1="2.633" y2="2.633" gradientTransform="matrix(.50098 0 0 .50787 -.7 1045.52)" gradientUnits="userSpaceOnUse"/>
  </defs>
  <g transform="translate(0 -1044.362)">
    <path fill="#fff" d="M0 1045.362h3v7H0z" opacity=".867"/>
    <path fill="url(#d)" d="M3.48 1045.798c-1.14 0-2.05.321-2.05.722v4.809c0 .4.91.72 2.05.72 1.138 0 2.065-.32 2.065-.72v-4.81c0-.4-.927-.72-2.066-.72z"/>
    <ellipse cx="3.5" cy="1046.858" fill="none" stroke="url(#e)" rx="1.936" ry=".973"/>
    <path fill="none" stroke="url(#f)" d="M3.503 1045.854c-1.117 0-1.972.623-1.972 1.008v4c0 .386.876 1.01 1.972 1.01 1.095 0 1.987-.624 1.987-1.01l.021-4c0-.385-.892-1.008-2.008-1.008z"/>
  </g>
</svg>
