<svg xmlns="http://www.w3.org/2000/svg" xmlns:xlink="http://www.w3.org/1999/xlink" width="16" height="16">
  <defs>
    <linearGradient id="a">
      <stop offset="0" stop-color="#c6852e"/>
      <stop offset="1" stop-color="#e1a555"/>
    </linearGradient>
    <linearGradient id="b">
      <stop offset="0" stop-color="#ffe69e"/>
      <stop offset=".38" stop-color="#ffc85a"/>
      <stop offset="1" stop-color="#fffcd3"/>
    </linearGradient>
    <linearGradient xlink:href="#a" id="d" x1="6.389" x2="6.389" y1="7.237" y2=".393" gradientTransform="matrix(1.06989 0 0 1.06989 15.59 1043.527)" gradientUnits="userSpaceOnUse"/>
    <radialGradient xlink:href="#b" id="c" cx="19.365" cy="1051.11" r="3.773" fx="19.365" fy="1051.11" gradientTransform="matrix(2.82496 0 0 1.79306 -35.371 -833.43)" gradientUnits="userSpaceOnUse"/>
  </defs>
  <path fill="url(#c)" stroke="url(#d)" stroke-width=".755" d="m18.6 1044.497-2.363 4.38c-.648 1.096-.206 2.773 1.003 2.792H21.43c1.209-.019 1.65-1.696 1.002-2.793l-2.362-4.38c-.315-.595-1.197-.5-1.47 0z" transform="translate(-17.601 -1379.985) scale(1.3241)"/>
  <path fill="#7b5113" d="M8.932 10.005a.932.932 0 1 1-1.864 0 .932.932 0 0 1 1.864 0zM8.02 4.648c-.501 0-.927.446-.927 1.025l.12 1.971c0 .515.362.932.807.932.446 0 .807-.417.807-.932l.08-1.971c0-.579-.386-1.025-.887-1.025z"/>
</svg>
