<svg xmlns="http://www.w3.org/2000/svg" xmlns:xlink="http://www.w3.org/1999/xlink" width="16" height="16">
  <defs>
    <linearGradient xlink:href="#a" id="b" x1="0" x2="8" y1="13.5" y2="13.5" gradientTransform="translate(9.588 1023.742)" gradientUnits="userSpaceOnUse"/>
    <linearGradient id="a">
      <stop offset="0" stop-color="#4d607b"/>
      <stop offset="1" stop-color="#2c4a6c"/>
    </linearGradient>
  </defs>
  <g fill="#387838" stroke="#266923" stroke-width=".278" font-family="Serif" font-size="8.992" font-weight="400" letter-spacing="0" style="line-height:125%;text-align:start" transform="matrix(.99875 0 0 1.12866 -10.527 -1117.466)" word-spacing="0">
    <circle cx="20.544" cy="1044.742" r="4.489" fill="#fff" stroke-linecap="round" stroke-linejoin="round" stroke-width="1" font-family="Sans" font-size="13.589" style="line-height:125%" transform="matrix(1.00125 0 0 .886 .972 73.295)"/>
    <path fill="none" stroke="#fff" stroke-linecap="round" stroke-width="1" d="m 24.43155,1046.9864 a 4.4886336,4.4886336 0 0 1 -1.642954,1.6429" font-family="Sans" font-size="13.589" style="line-height:125%" transform="matrix(1.00125 0 0 .886 .972 73.295)"/>
    <path fill="#266923" stroke-width=".277" d="m 22.620507,999.74158 0,-0.98021 -1.040788,0 c -0.401091,0 -0.699714,0.0857 -0.895868,0.25704 -0.196155,0.17135 -0.294232,0.43419 -0.294232,0.78852 0,0.32237 0.09954,0.57797 0.298623,0.76677 0.199082,0.1887 0.468428,0.2831 0.808038,0.2831 0.336682,0 0.607492,-0.1031 0.812429,-0.3093 0.207865,-0.2062 0.311798,-0.4748 0.311798,-0.80592 z m 0.808037,-1.43764 -0.01946,1.97066 1.6957,1.5699 -0.444853,0.3635 -1.601857,-1.6986 -0.459711,0.2744 c -0.244962,0.1855 -0.362864,0.285 -0.597079,0.3867 -0.234214,0.1017 -0.507951,0.1525 -0.821211,0.1525 -0.518199,0 -0.929537,-0.1365 -1.234015,-0.4095 -0.304478,-0.2731 -0.456717,-0.6419 -0.456717,-1.10657 0,-0.47921 0.174196,-0.85097 0.522589,-1.11526 0.348394,-0.26429 0.840243,-0.39644 1.475548,-0.39644 l 1.13301,0 0,-0.31802 c 0,-0.35143 -0.108324,-0.62298 -0.324973,-0.81467 -0.213719,-0.19459 -0.51527,-0.29188 -0.904651,-0.29188 -0.322044,0 -0.578215,0.0726 -0.768514,0.21782 -0.190299,0.14521 -0.308869,0.36013 -0.355712,0.64476 l -0.417193,0 0,-0.93664 c 0.281057,-0.11908 0.55333,-0.20766 0.816821,-0.26575 0.266418,-0.061 0.525517,-0.0915 0.777297,-0.0915 0.647015,0 1.138864,0.15974 1.475547,0.47921 0.33961,0.31657 0.509415,0.77836 0.509415,1.38537 z"/>
  </g>
  <path fill="url(#b)" d="m 9.5876528,1036.7417 0,1 5.0000012,0 0,2 2.999893,-2.5 -2.999893,-2.5 0,2 z" transform="translate(-9.556 -1034.742)"/>
</svg>
