<svg xmlns="http://www.w3.org/2000/svg" xmlns:xlink="http://www.w3.org/1999/xlink" width="16" height="16">
  <defs>
    <linearGradient id="c">
      <stop offset="0" stop-color="#5c7aaa"/>
      <stop offset="1" stop-color="#aebdd5"/>
    </linearGradient>
    <linearGradient id="a">
      <stop offset="0" stop-color="#81737c"/>
      <stop offset="1" stop-color="#a79aa4"/>
    </linearGradient>
    <linearGradient xlink:href="#a" id="g" x1="18.494" x2="18.494" y1="1044.57" y2="1042.195" gradientTransform="translate(10.334 6.724)" gradientUnits="userSpaceOnUse"/>
    <linearGradient id="b">
      <stop offset="0" stop-color="#346692"/>
      <stop offset="1" stop-color="#4395c1"/>
    </linearGradient>
    <linearGradient xlink:href="#b" id="h" x1="18.494" x2="18.494" y1="1044.57" y2="1042.195" gradientTransform="translate(12.294 11.675)" gradientUnits="userSpaceOnUse"/>
    <linearGradient xlink:href="#a" id="i" x1="18.494" x2="18.494" y1="1044.57" y2="1042.195" gradientTransform="translate(10.326 16.703)" gradientUnits="userSpaceOnUse"/>
    <linearGradient xlink:href="#c" id="d" x1="10.529" x2="25.577" y1="1043.21" y2="1043.21" gradientUnits="userSpaceOnUse"/>
    <linearGradient xlink:href="#c" id="e" x1="10.529" x2="25.577" y1="1043.21" y2="1043.21" gradientUnits="userSpaceOnUse"/>
    <linearGradient xlink:href="#c" id="f" x1="10.529" x2="25.577" y1="1043.21" y2="1043.21" gradientUnits="userSpaceOnUse"/>
  </defs>
  <g fill="none" stroke="url(#d)" transform="translate(-9.575 -1034.742)">
    <path stroke="url(#e)" stroke-width="1.016" d="m 10.528622,1043.2507 15.048117,0"/>
    <path stroke="url(#f)" d="m 22.993851,1041.7103 0,-3.5 -9.937501,0 0,10.0001 10.062501,0 0,-3.5626"/>
  </g>
  <g transform="translate(-20.207 -1046.497)">
    <rect width="2" height="1.969" x="27.718" y="1049.013" fill="#e7e1c4" stroke="url(#g)" rx="0" ry="0"/>
    <rect width="2" height="1.969" x="29.679" y="1053.964" fill="#89bedb" stroke="url(#h)" rx="0" ry="0"/>
    <rect width="2" height="1.969" x="27.711" y="1058.991" fill="#e7e1c4" stroke="url(#i)" rx="0" ry="0"/>
  </g>
</svg>
