<svg xmlns="http://www.w3.org/2000/svg" xmlns:xlink="http://www.w3.org/1999/xlink" width="16" height="16">
  <defs>
    <linearGradient xlink:href="#a" id="d" x1="9.895" x2="9.895" y1="1039.153" y2="1051.838" gradientTransform="translate(-2.01 -1.03)" gradientUnits="userSpaceOnUse"/>
    <linearGradient id="a">
      <stop offset="0" stop-color="#f9fafc"/>
      <stop offset="1" stop-color="#dce7f7"/>
    </linearGradient>
    <linearGradient xlink:href="#b" id="e" x1="7.999" x2="9.987" y1="1042.231" y2="1040.33" gradientTransform="translate(1.99 -1.03)" gradientUnits="userSpaceOnUse"/>
    <linearGradient id="b">
      <stop offset="0" stop-color="#e0c88f"/>
      <stop offset="1" stop-color="#d5b269"/>
    </linearGradient>
    <linearGradient id="c">
      <stop offset="0" stop-color="#b28a30"/>
      <stop offset="1" stop-color="#7f703d"/>
    </linearGradient>
    <linearGradient xlink:href="#c" id="f" x1="10.545" x2="10.545" y1="1038.578" y2="1052.323" gradientTransform="translate(-2.01 -1.03)" gradientUnits="userSpaceOnUse"/>
    <filter id="h" width="1.23" height="1.251" x="-.115" y="-.126">
      <feGaussianBlur stdDeviation=".672"/>
    </filter>
    <mask id="g" maskUnits="userSpaceOnUse">
      <g fill="#fff" stroke="#fff">
        <path d="m 3.488129,1037.8727 7.00967,0 3.062057,3.0066 0,9.9546 -10.071727,0 z" transform="translate(0 1.028)"/>
        <path d="m 9.967468,1037.41 0,3.9112 3.977478,0 z" transform="translate(0 1.028)"/>
        <path d="m 3.488129,1037.8727 6.94717,0 3.062057,3.0066 0,9.9546 -10.009227,0 z" transform="translate(0 1.028)"/>
      </g>
    </mask>
  </defs>
  <path fill="url(#d)" d="m 3.488129,1037.8727 7.00967,0 3.062057,3.0066 0,9.9546 -10.071727,0 z" transform="translate(0 -1035.334)"/>
  <path fill="url(#e)" d="m 9.967468,1037.41 0,3.9112 3.977478,0 z" transform="translate(0 -1035.334)"/>
  <path fill="none" stroke="url(#f)" d="m 3.488129,1037.8727 6.94717,0 3.062057,3.0066 0,9.9546 -10.009227,0 z" transform="translate(0 -1035.334)"/>
  <g mask="url(#g)" opacity=".75" transform="translate(0 -1036.362)">
    <g stroke="#fff" stroke-width="2" filter="url(#h)" opacity=".75">
      <g fill="#fff">
        <path d="M7.811 1047.877c0 .638-.096 1.161-.287 1.568-.22.473-.539.71-.956.71-.417 0-.737-.236-.959-.709-.193-.408-.289-.931-.289-1.568 0-.638.096-1.161.289-1.568.222-.473.541-.709.959-.709.417 0 .736.237.956.71.191.408.287.931.287 1.569zm-.404 0c0-.46-.07-.854-.209-1.181-.157-.369-.368-.553-.631-.553-.265 0-.475.184-.633.553-.141.328-.211.721-.211 1.181 0 .46.07.854.211 1.181.157.369.368.553.633.553.263 0 .473-.184.631-.553.139-.328.209-.721.209-1.181zM10.907 1045.478l0 4.727-.697 0 0-3.857-.448.408-.409-.408.946-.87zM15.811 1047.877c0 .638-.096 1.161-.287 1.568-.22.473-.539.71-.956.71-.417 0-.737-.236-.959-.709-.193-.408-.289-.931-.289-1.568 0-.638.096-1.161.289-1.568.222-.473.541-.709.959-.709.417 0 .736.237.956.71.191.408.287.931.287 1.569zm-.404 0c0-.46-.07-.854-.209-1.181-.157-.369-.368-.553-.631-.553-.265 0-.475.184-.633.553-.141.328-.211.721-.211 1.181 0 .46.07.854.211 1.181.157.369.368.553.633.553.263 0 .473-.184.631-.553.139-.328.209-.721.209-1.181z" font-family="Gautami" font-size="10" font-weight="400" letter-spacing="0" style="text-align:start;line-height:125%;-inkscape-font-specification:Gautami" word-spacing="0"/>
        <path d="m 2.6172788,1044.3027 c -0.1933415,-0.019 -0.420446,-0.062 -0.6028077,-0.1155 -0.2829848,-0.083 -0.2547891,0.017 -0.2547891,-0.8978 0,-0.4784 0.00804,-0.794 0.020385,-0.7988 0.011198,0 0.033126,0 0.048745,0.013 0.050649,0.038 0.3077924,0.1696 0.3929307,0.2011 0.1948459,0.072 0.4872053,0.1088 0.6931487,0.087 0.4565347,-0.048 0.7659062,-0.3076 0.9215107,-0.772 0.1254823,-0.3746 0.1191685,-0.2293 0.1320805,-3.0391 l 0.011887,-1.6191 0.8665952,0 0.8665981,0 0.00643,1.444 c 0.011091,2.4908 -5.741e-4,2.7823 -0.081182,3.2361 -0.163276,0.9202 -0.6253407,1.6128 -1.3103752,1.9638 -0.4604999,0.236 -1.1290707,0.3521 -1.7111364,0.2972 z"/>
      </g>
    </g>
  </g>
  <g transform="translate(0 -1036.362)">
    <path fill="#17325d" stroke="#17325d" stroke-width=".48" d="m 7.8107346,1047.8772 c -3e-6,0.6378 -0.09556,1.1608 -0.286676,1.5684 -0.220169,0.473 -0.538952,0.7095 -0.956351,0.7095 -0.417401,0 -0.736948,-0.2365 -0.958643,-0.7095 -0.192647,-0.4076 -0.288969,-0.9306 -0.288969,-1.5684 0,-0.6379 0.09632,-1.1608 0.288969,-1.5685 0.221695,-0.473 0.541242,-0.7094 0.958643,-0.7095 0.417399,10e-5 0.736182,0.2365 0.956351,0.7095 0.191115,0.4077 0.286673,0.9306 0.286676,1.5685 z m -0.403639,0 c -4e-6,-0.4599 -0.06956,-0.8538 -0.208701,-1.1813 -0.157482,-0.3688 -0.367711,-0.5531 -0.630687,-0.5531 -0.264507,0 -0.4755,0.1843 -0.63298,0.5531 -0.140663,0.3275 -0.210993,0.7214 -0.210993,1.1813 0,0.4599 0.07033,0.8536 0.210993,1.1813 0.15748,0.3687 0.368473,0.5532 0.63298,0.5532 0.262976,0 0.473205,-0.1845 0.630687,-0.5532 0.139132,-0.3277 0.208697,-0.7214 0.208701,-1.1813 z" font-family="Gautami" font-size="10" font-weight="400" letter-spacing="0" style="text-align:start;line-height:125%;-inkscape-font-specification:Gautami" word-spacing="0"/>
    <path fill="#17325d" stroke="#17325d" stroke-width=".297" d="m 10.906779,1045.4778 0,4.727 -0.697184,0 0,-3.8568 -0.4479104,0.4082 -0.408964,-0.4082 0.9464584,-0.8702 z" font-family="Gautami" font-size="10" font-weight="400" letter-spacing="0" style="text-align:start;line-height:125%;-inkscape-font-specification:Gautami" word-spacing="0"/>
    <path fill="#17325d" stroke="#17325d" stroke-width=".48" d="m 15.810731,1047.8772 c -3e-6,0.6378 -0.09556,1.1608 -0.286676,1.5684 -0.220169,0.473 -0.538952,0.7095 -0.956351,0.7095 -0.417401,0 -0.736948,-0.2365 -0.958643,-0.7095 -0.192647,-0.4076 -0.288969,-0.9306 -0.288969,-1.5684 0,-0.6379 0.09632,-1.1608 0.288969,-1.5685 0.221695,-0.473 0.541242,-0.7094 0.958643,-0.7095 0.417399,10e-5 0.736182,0.2365 0.956351,0.7095 0.191115,0.4077 0.286673,0.9306 0.286676,1.5685 z m -0.403639,0 c -4e-6,-0.4599 -0.06956,-0.8538 -0.208701,-1.1813 -0.157482,-0.3688 -0.367711,-0.5531 -0.630687,-0.5531 -0.264507,0 -0.4755,0.1843 -0.63298,0.5531 -0.140663,0.3275 -0.210993,0.7214 -0.210993,1.1813 0,0.4599 0.07033,0.8536 0.210993,1.1813 0.15748,0.3687 0.368473,0.5532 0.63298,0.5532 0.262976,0 0.473205,-0.1845 0.630687,-0.5532 0.139132,-0.3277 0.208697,-0.7214 0.208701,-1.1813 z" font-family="Gautami" font-size="10" font-weight="400" letter-spacing="0" style="text-align:start;line-height:125%;-inkscape-font-specification:Gautami" word-spacing="0"/>
    <rect width="2.196" height="4.821" x="2.978" y="1038.362" fill="#fff" rx="0" ry="0"/>
    <path fill="#366c9a" d="m 2.0811779,1044.3027 c -0.2496818,-0.019 -0.5429655,-0.062 -0.7784681,-0.1155 -0.36544746,-0.083 -0.32903543,0.017 -0.32903543,-0.8978 0,-0.4784 0.0103847,-0.794 0.0263256,-0.7988 0.014461,0 0.042779,0 0.06295,0.013 0.065408,0.038 0.3974843,0.1696 0.5074322,0.2011 0.2516246,0.072 0.6291786,0.1088 0.8951347,0.087 0.5895706,-0.048 0.9890939,-0.3076 1.1900422,-0.772 0.1620483,-0.3746 0.1538947,-0.2293 0.1705693,-3.0391 l 0.015351,-1.6191 1.119124,0 1.1191279,0 0.00831,1.444 c 0.014324,2.4908 -7.413e-4,2.7823 -0.1048382,3.2361 -0.2108552,0.9202 -0.8075672,1.6128 -1.6922233,1.9638 -0.5946912,0.236 -1.4580859,0.3521 -2.2097677,0.2972 z"/>
  </g>
</svg>
