<svg xmlns="http://www.w3.org/2000/svg" xmlns:xlink="http://www.w3.org/1999/xlink" width="16" height="16">
  <defs>
    <linearGradient xlink:href="#a" id="f" x1="9" x2="9" y1="1044.362" y2="1051.362" gradientUnits="userSpaceOnUse"/>
    <linearGradient id="b">
      <stop offset="0" stop-color="#e1eaf8"/>
      <stop offset="1" stop-color="#e8edf4"/>
    </linearGradient>
    <linearGradient xlink:href="#b" id="e" x1="28" x2="28" y1="1047.362" y2="1051.362" gradientTransform="translate(-20 -1)" gradientUnits="userSpaceOnUse"/>
    <linearGradient id="c">
      <stop offset="0" stop-color="#fff" stop-opacity="0"/>
      <stop offset="1" stop-color="#b7e4f9"/>
    </linearGradient>
    <linearGradient xlink:href="#c" id="g" x1="-12" x2="-15" y1="1047.362" y2="1047.362" gradientTransform="translate(18 -4)" gradientUnits="userSpaceOnUse"/>
    <linearGradient id="d">
      <stop offset="0" stop-color="#b7e4f9"/>
      <stop offset="1" stop-color="#fff" stop-opacity="0"/>
    </linearGradient>
    <linearGradient xlink:href="#d" id="h" x1="-11" x2="-11" y1="1049.362" y2="1052.362" gradientTransform="translate(18 -4)" gradientUnits="userSpaceOnUse"/>
    <linearGradient id="a">
      <stop offset="0" stop-color="#c6bc7d"/>
      <stop offset="1" stop-color="#778b9c"/>
    </linearGradient>
  </defs>
  <path fill="url(#e)" d="m 3.03125,1045.3622 10.000769,0 0,4 -10.0000002,0 z" color="#000" font-family="Sans" font-weight="400" overflow="visible" style="text-indent:0;text-align:start;line-height:normal;text-transform:none;block-progression:tb;marker:none;-inkscape-font-specification:Sans" transform="translate(-.032 -1038.364)"/>
  <path fill="url(#f)" d="m 2.03125,1044.3622 7.688e-4,6.0014 12.0000002,0 -0.0043,-5.9351 z m 1,1 9.996478,0.066 0.0043,3.9351 -10.0000002,0 z" color="#000" font-family="Sans" font-weight="400" overflow="visible" style="text-indent:0;text-align:start;line-height:normal;text-transform:none;block-progression:tb;marker:none;-inkscape-font-specification:Sans" transform="translate(-.032 -1038.364)"/>
  <path fill="url(#g)" d="m 5,1047.3622 0.032019,2.0014 -2,0 L 3,1045.3622 z" transform="translate(-.032 -1038.364)"/>
  <path fill="url(#h)" d="m 5,1047.3622 8.032019,0 0,-2 -10.032019,-0 z" transform="translate(-.032 -1038.364)"/>
  <g fill="#4b6ea2">
    <path d="M1.008 1037.37H3.008V1038.37H1.008zM4.008 1037.37H6.008V1038.37H4.008zM1 1048.362H3V1049.362H1zM4 1048.362H6V1049.362H4z" transform="translate(2 -1034.362)"/>
    <path d="M3 1038.362H4V1048.362H3z" transform="translate(2 -1034.362)"/>
  </g>
</svg>
