<svg xmlns="http://www.w3.org/2000/svg" xmlns:xlink="http://www.w3.org/1999/xlink" width="16" height="16">
  <defs>
    <linearGradient id="a">
      <stop offset="0" stop-color="#146d39"/>
      <stop offset="1" stop-color="#359b58"/>
    </linearGradient>
    <linearGradient id="b">
      <stop offset="0" stop-color="#96b956"/>
      <stop offset=".267" stop-color="#c6d560"/>
      <stop offset=".517" stop-color="#cfdc63"/>
      <stop offset="1" stop-color="#abca52"/>
    </linearGradient>
    <linearGradient xlink:href="#a" id="d" x1="11.339" x2="11.339" y1="1064.051" y2="1067.051" gradientTransform="matrix(1 0 0 -1 -2.266 2109.64)" gradientUnits="userSpaceOnUse"/>
    <linearGradient xlink:href="#b" id="c" x1="12.339" x2="12.339" y1="1043.051" y2="1048.051" gradientTransform="matrix(1 0 0 -1 -2.266 2089.64)" gradientUnits="userSpaceOnUse"/>
  </defs>
  <path fill="url(#c)" d="m 5.519236,1047.6671 -0.816057,-1.9944 0.88243,-2.3985 3.398198,0.051 0,-1.5313 3.781143,2.432 -3.781143,3.0027 0,-1.5156 -2.544844,0 z" transform="translate(0 -1036.362)"/>
  <path fill="url(#d)" d="m 7.983807,1047.8309 0,-1.5156 -0.07965,0 c -1.711191,0 -1.9036885,1.2987 -1.9036885,2.075 l -1,0 c -1.937334,-3.08 -0.6777005,-6.0631 1.8476505,-6.0884 l 1.135685,0.023 0,-1.5313 c 0,-0.6519 0.740915,-0.6375 1.5,0 l 3.923255,3.4983 -3.923255,3.5386 c -0.760225,0.7602 -1.5,0.5203 -1.5,0 z m 1,-1 2.985755,-2.5386 -2.985755,-2.4983 0,1.5313 -2.12809,0.07 c -1.65655,0 -2.276462,2.3386 -1.391431,3.4245 0.477391,-0.9138 0.93524,-1.5048 2.407536,-1.5048 l 1.111985,0 z" transform="translate(0 -1036.362)"/>
</svg>
