<svg xmlns="http://www.w3.org/2000/svg" xmlns:xlink="http://www.w3.org/1999/xlink" width="16" height="16">
  <defs>
    <linearGradient id="b">
      <stop offset="0" stop-color="#005020"/>
      <stop offset="1" stop-color="#309858"/>
    </linearGradient>
    <linearGradient id="a">
      <stop offset="0" stop-color="#e0e566"/>
      <stop offset="1" stop-color="#80b050"/>
    </linearGradient>
    <linearGradient xlink:href="#a" id="c" x1="2.031" x2="2.031" y1="5.564" y2="9.144" gradientTransform="matrix(1.93752 0 0 2.0246 5.812 1033.124)" gradientUnits="userSpaceOnUse"/>
    <linearGradient xlink:href="#b" id="d" x1="27" x2="27" y1="1050.362" y2="1039.362" gradientTransform="translate(-17.91 3.031)" gradientUnits="userSpaceOnUse"/>
  </defs>
  <path fill="#286296" stroke="#286296" d="M3.88 1038.362c-2.969 2-2.969 7 0 9l.031 0c-2-2-2-7 0-9zM8.26 1038.362c2.969 2 2.969 7 0 9l-.031 0c2-2 2-7 0-9z" font-family="Sans" font-size="10.298" font-weight="400" letter-spacing="0" style="line-height:125%" transform="translate(0 -1036.362)" word-spacing="0"/>
  <path fill="url(#c)" stroke="url(#d)" d="m 11.504818,1044.8682 2.02933,0 0,2.017 1.965852,0 0,2.0189 -1.965852,0 0,1.9877 -2.02933,0 0,-1.9877 -2.028352,0 0,-2.0189 2.028352,0 z" transform="translate(0 -1036.362)"/>
</svg>
