<svg xmlns="http://www.w3.org/2000/svg" xmlns:xlink="http://www.w3.org/1999/xlink" width="16" height="16">
  <defs>
    <linearGradient id="a">
      <stop offset="0" stop-color="#fbe597"/>
      <stop offset="1" stop-color="#fffcf0"/>
    </linearGradient>
    <linearGradient id="b">
      <stop offset="0" stop-color="#bd8416"/>
      <stop offset="1" stop-color="#806229"/>
    </linearGradient>
    <linearGradient xlink:href="#a" id="e" x1="4.964" x2="4.964" y1="6.698" y2="2.933" gradientTransform="matrix(.83407 0 0 .87773 22.324 1035.368)" gradientUnits="userSpaceOnUse"/>
    <linearGradient xlink:href="#b" id="f" x1="5.759" x2="5.974" y1="2.395" y2="12.337" gradientTransform="matrix(.83407 0 0 .87773 22.324 1035.368)" gradientUnits="userSpaceOnUse"/>
    <linearGradient id="c">
      <stop offset="0" stop-color="#fbe597"/>
      <stop offset="1" stop-color="#fffcf0"/>
    </linearGradient>
    <linearGradient id="d">
      <stop offset="0" stop-color="#bd8416"/>
      <stop offset="1" stop-color="#806229"/>
    </linearGradient>
    <linearGradient xlink:href="#c" id="g" x1="4.964" x2="4.964" y1="6.698" y2="2.933" gradientTransform="matrix(-.83407 0 0 -.87773 26.498 1050.119)" gradientUnits="userSpaceOnUse"/>
    <linearGradient xlink:href="#d" id="h" x1="5.759" x2="5.705" y1="2.395" y2="12.184" gradientTransform="matrix(-.83407 0 0 -.87773 26.498 1050.119)" gradientUnits="userSpaceOnUse"/>
  </defs>
  <g stroke-width="1.038">
    <path fill="url(#e)" stroke="url(#f)" d="m 26.96861,1037.624 0,-1.9827 -1.068972,0 -3.206913,3.5687 3.354357,3.53 0.884667,0 0,-2.0805 3.641253,0 0.958387,-1.463 -0.921526,-1.5599 z" transform="rotate(90 526.243 510.195) scale(.98581)"/>
    <path fill="url(#g)" stroke="url(#h)" d="m 21.853453,1047.8628 0,1.9827 1.068972,0 3.206913,-3.5687 -3.354357,-3.53 -0.884667,0 0,2.0805 -3.641253,0 -0.958387,1.463 0.921526,1.5599 z" transform="rotate(90 526.243 510.195) scale(.98581)"/>
  </g>
</svg>
