<svg xmlns="http://www.w3.org/2000/svg" xmlns:xlink="http://www.w3.org/1999/xlink" width="16" height="16">
  <defs>
    <linearGradient id="c">
      <stop offset="0" stop-color="#696969"/>
      <stop offset="1" stop-color="#4f504f"/>
    </linearGradient>
    <linearGradient id="a">
      <stop offset="0" stop-color="#494949"/>
      <stop offset=".154" stop-color="#666665"/>
      <stop offset=".385" stop-color="#666665"/>
      <stop offset=".5" stop-color="#494949"/>
      <stop offset=".615" stop-color="#686867"/>
      <stop offset=".846" stop-color="#696969"/>
      <stop offset="1" stop-color="#494949"/>
    </linearGradient>
    <linearGradient xlink:href="#a" id="e" x1="-2.78" x2="-2.78" y1="1064.267" y2="1051.267" gradientTransform="translate(20)" gradientUnits="userSpaceOnUse"/>
    <linearGradient id="b">
      <stop offset="0" stop-color="#494949"/>
      <stop offset=".154" stop-color="#666665"/>
      <stop offset=".385" stop-color="#666665"/>
      <stop offset=".5" stop-color="#494949"/>
      <stop offset=".615" stop-color="#686867"/>
      <stop offset=".846" stop-color="#696969"/>
      <stop offset="1" stop-color="#494949"/>
    </linearGradient>
    <linearGradient xlink:href="#b" id="f" x1="-2.78" x2="-2.78" y1="1064.267" y2="1051.267" gradientTransform="translate(1061.047 -1074.487)" gradientUnits="userSpaceOnUse"/>
    <linearGradient xlink:href="#c" id="d" x1="-1.78" x2="-1.78" y1="1052.267" y2="1063.267" gradientTransform="translate(20)" gradientUnits="userSpaceOnUse"/>
  </defs>
  <path fill="url(#d)" d="m 11.220116,1052.2669 0,11 11,0 0,-11 -11,0 z m 1,1 9,0 0,9 -9,0 0,-9 z" transform="translate(-8.22 -1049.267)"/>
  <path fill="url(#e)" d="M16.22 1051.267H17.22V1064.267H16.22z" transform="translate(-8.22 -1049.267)"/>
  <path fill="url(#f)" d="M1057.267-23.22H1058.267V-10.22H1057.267z" transform="rotate(90 520.523 -528.744)"/>
  <path fill="#e3ebf8" d="M4 9H8V13H4z"/>
  <path fill="#fff" d="M13.22 1059.267H15.22V1061.267H13.22z" transform="translate(-8.22 -1049.267)"/>
  <path fill="#e3ebf8" d="M17.22 1058.267H21.22V1062.267H17.22z" transform="translate(-8.22 -1049.267)"/>
  <path fill="#fff" d="M18.22 1059.267H20.22V1061.267H18.22z" transform="translate(-8.22 -1049.267)"/>
  <path fill="#e3ebf8" d="M12.22 1053.267H16.22V1057.267H12.22z" transform="translate(-8.22 -1049.267)"/>
  <path fill="#fff" d="M13.22 1054.267H15.22V1056.267H13.22z" transform="translate(-8.22 -1049.267)"/>
  <path fill="#e3ebf8" d="M17.22 1053.267H21.22V1057.267H17.22z" transform="translate(-8.22 -1049.267)"/>
  <path fill="#fff" d="M18.22 1054.267H20.22V1056.267H18.22z" transform="translate(-8.22 -1049.267)"/>
</svg>
