<svg xmlns="http://www.w3.org/2000/svg" xmlns:xlink="http://www.w3.org/1999/xlink" width="16" height="16">
  <defs>
    <linearGradient id="a">
      <stop offset="0" stop-color="#696969"/>
      <stop offset="1" stop-color="#4f504f"/>
    </linearGradient>
    <linearGradient id="b">
      <stop offset="0" stop-color="#494949"/>
      <stop offset=".154" stop-color="#666665"/>
      <stop offset=".385" stop-color="#666665"/>
      <stop offset=".5" stop-color="#494949"/>
      <stop offset=".615" stop-color="#686867"/>
      <stop offset=".846" stop-color="#696969"/>
      <stop offset="1" stop-color="#494949"/>
    </linearGradient>
    <linearGradient id="c">
      <stop offset="0" stop-color="#494949"/>
      <stop offset=".154" stop-color="#666665"/>
      <stop offset=".385" stop-color="#666665"/>
      <stop offset=".5" stop-color="#494949"/>
      <stop offset=".615" stop-color="#686867"/>
      <stop offset=".846" stop-color="#696969"/>
      <stop offset="1" stop-color="#494949"/>
    </linearGradient>
    <linearGradient xlink:href="#a" id="g" x1="-1.78" x2="-1.78" y1="1052.267" y2="1063.267" gradientTransform="translate(20)" gradientUnits="userSpaceOnUse"/>
    <linearGradient xlink:href="#b" id="h" x1="-2.78" x2="-2.811" y1="1061.267" y2="1050.267" gradientTransform="translate(20)" gradientUnits="userSpaceOnUse"/>
    <linearGradient xlink:href="#c" id="i" x1="-5.78" x2="-5.78" y1="1061.298" y2="1050.298" gradientTransform="translate(1061.047 -1074.487)" gradientUnits="userSpaceOnUse"/>
    <linearGradient id="d">
      <stop offset="0" stop-color="#696969"/>
      <stop offset="1" stop-color="#4f504f"/>
    </linearGradient>
    <linearGradient id="e">
      <stop offset="0" stop-color="#494949"/>
      <stop offset=".154" stop-color="#666665"/>
      <stop offset=".385" stop-color="#666665"/>
      <stop offset=".5" stop-color="#494949"/>
      <stop offset=".615" stop-color="#686867"/>
      <stop offset=".846" stop-color="#696969"/>
      <stop offset="1" stop-color="#494949"/>
    </linearGradient>
    <linearGradient id="f">
      <stop offset="0" stop-color="#494949"/>
      <stop offset=".154" stop-color="#666665"/>
      <stop offset=".385" stop-color="#666665"/>
      <stop offset=".5" stop-color="#494949"/>
      <stop offset=".615" stop-color="#686867"/>
      <stop offset=".846" stop-color="#696969"/>
      <stop offset="1" stop-color="#494949"/>
    </linearGradient>
    <linearGradient xlink:href="#d" id="l" x1="-1.78" x2="-1.78" y1="1052.267" y2="1063.267" gradientTransform="translate(20)" gradientUnits="userSpaceOnUse"/>
    <linearGradient xlink:href="#e" id="m" x1="-2.78" x2="-2.811" y1="1061.267" y2="1050.267" gradientTransform="translate(20)" gradientUnits="userSpaceOnUse"/>
    <linearGradient xlink:href="#f" id="n" x1="-5.78" x2="-5.78" y1="1061.298" y2="1050.298" gradientTransform="translate(1061.047 -1074.487)" gradientUnits="userSpaceOnUse"/>
    <filter id="k" width="1.36" height="1.36" x="-.18" y="-.18">
      <feGaussianBlur stdDeviation=".825"/>
    </filter>
    <mask id="j" maskUnits="userSpaceOnUse">
      <g fill="#f9f9f9">
        <path d="m 7,3 0,6.999999 7,0 0,-7 z" transform="translate(8.22 1049.267)"/>
        <path d="m 14.188866,1051.2669 0,9 9,0 0,-9 z m 1,1 7,0 0,7 -7,0 z" transform="translate(.031)"/>
        <path d="M18.189 1050.267H19.189V1061.267H18.189z" transform="translate(.031)"/>
        <path d="M1055.267-24.189H1056.267V-13.189H1055.267z" transform="rotate(90 .016 .016)"/>
      </g>
    </mask>
  </defs>
  <path fill="#fff" d="m 7,3 0,6.999999 7,0 0,-7 z"/>
  <path fill="url(#g)" d="m 14.188866,1051.2669 0,9 9,0 0,-9 z m 1,1 7,0 0,7 -7,0 z" transform="translate(-8.189 -1049.267)"/>
  <path fill="url(#h)" d="M18.189 1050.267H19.189V1061.267H18.189z" transform="translate(-8.189 -1049.267)"/>
  <path fill="url(#i)" d="M1055.267-24.189H1056.267V-13.189H1055.267z" transform="rotate(90 520.539 -528.728)"/>
  <path fill="#e3ebf8" d="m15.22 1056.267 0 1 0 2 1 0 0-2 2 0 0-1-2 0-1 0zM15.22 1052.267l0 1 0 2 1 0 0-2 2 0 0-1-2 0-1 0zM19.22 1052.267l0 1 0 2 1 0 0-2 2 0 0-1-2 0-1 0zM19.22 1056.267l0 1 0 2 1 0 0-2 2 0 0-1-2 0-1 0z" transform="translate(-8.22 -1049.267)"/>
  <g mask="url(#j)" transform="translate(-8.22 -1049.267)">
    <g fill="#fff" stroke="#fff" filter="url(#k)" transform="translate(0 -20)">
      <path d="m 11.220116,1076.2669 0,7 7,0 0,-7 z"/>
      <path d="m 14.188866,1051.2669 0,9 9,0 0,-9 z m 1,1 7,0 0,7 -7,0 z" transform="translate(-3.969 24)"/>
      <path d="M18.189 1050.267H19.189V1061.267H18.189z" transform="translate(-3.969 24)"/>
      <path d="M1055.267-24.189H1056.267V-13.189H1055.267z" transform="rotate(90 -13.984 10.016)"/>
      <path d="m11.22 1076.267 0 1 0 2 1 0 0-2 2 0 0-1-2 0-1 0zM11.22 1080.267l0 1 0 2 1 0 0-2 2 0 0-1-2 0-1 0zM15.22 1080.267l0 1 0 2 1 0 0-2 2 0 0-1-2 0-1 0zM15.22 1076.267l0 1 0 2 1 0 0-2 2 0 0-1-2 0-1 0z"/>
    </g>
  </g>
  <path fill="#fff" d="m 11.220116,1076.2669 0,7 7,0 0,-7 z" transform="translate(-8.22 -1069.267)"/>
  <path fill="url(#l)" d="m 14.188866,1051.2669 0,9 9,0 0,-9 z m 1,1 7,0 0,7 -7,0 z" transform="translate(-12.189 -1045.267)"/>
  <path fill="url(#m)" d="M18.189 1050.267H19.189V1061.267H18.189z" transform="translate(-12.189 -1045.267)"/>
  <path fill="url(#n)" d="M1055.267-24.189H1056.267V-13.189H1055.267z" transform="rotate(90 516.539 -528.728)"/>
  <path fill="#e3ebf8" d="m11.22 1076.267 0 1 0 2 1 0 0-2 2 0 0-1-2 0-1 0zM11.22 1080.267l0 1 0 2 1 0 0-2 2 0 0-1-2 0-1 0zM15.22 1080.267l0 1 0 2 1 0 0-2 2 0 0-1-2 0-1 0zM15.22 1076.267l0 1 0 2 1 0 0-2 2 0 0-1-2 0-1 0z" transform="translate(-8.22 -1069.267)"/>
</svg>
