<svg xmlns="http://www.w3.org/2000/svg" xmlns:xlink="http://www.w3.org/1999/xlink" width="16" height="16">
  <defs>
    <linearGradient id="a">
      <stop offset="0" stop-color="#a17748"/>
      <stop offset=".5" stop-color="#8e5c24"/>
      <stop offset="1" stop-color="#c7af93"/>
    </linearGradient>
    <linearGradient xlink:href="#a" id="b" x1="388.637" x2="388.637" y1="478.188" y2="459.248" gradientUnits="userSpaceOnUse"/>
    <filter id="c" color-interpolation-filters="sRGB">
      <feGaussianBlur stdDeviation=".156"/>
    </filter>
  </defs>
  <g font-family="Sans" font-size="13.589" font-weight="400" letter-spacing="0" word-spacing="0">
    <path fill="url(#b)" stroke="#905e27" stroke-linecap="round" stroke-linejoin="round" stroke-width="2.166" d="m 398.75,468.23718 a 10.625,10.625 0 1 1 -21.25,0 10.625,10.625 0 1 1 21.25,0 z" style="line-height:125%" transform="matrix(.55483 0 0 .55483 -207.83 -253.305)"/>
    <g fill="#fff" style="line-height:125%">
      <path d="M9.87 1031.348H11.87V1038.348H9.87z" transform="translate(-4.87 -1028.348)"/>
      <path d="M9.87 1031.348H15.339V1032.379H9.87zM9.87 1037.348H15.339V1038.379H9.87zM9.87 1034.348H14.839V1035.379H9.87z" style="line-height:125%" transform="translate(-4.87 -1028.348)"/>
    </g>
    <g fill="#fff" filter="url(#c)" opacity=".5" style="line-height:125%" transform="translate(-4.745 -1028.223)">
      <path d="M9.87 1031.348H11.87V1038.348H9.87z"/>
      <path d="M9.87 1031.348H15.339V1032.379H9.87zM9.87 1037.348H15.339V1038.379H9.87zM9.87 1034.348H14.839V1035.379H9.87z" style="line-height:125%"/>
    </g>
  </g>
</svg>
