<svg xmlns="http://www.w3.org/2000/svg" xmlns:xlink="http://www.w3.org/1999/xlink" width="16" height="16">
  <defs>
    <linearGradient id="a">
      <stop offset="0" stop-color="#75ba7a"/>
      <stop offset=".5" stop-color="#418a4d"/>
      <stop offset="1" stop-color="#a4c589"/>
    </linearGradient>
    <linearGradient xlink:href="#a" id="b" x1="388.637" x2="388.637" y1="478.188" y2="462.115" gradientUnits="userSpaceOnUse"/>
  </defs>
  <path fill="url(#b)" stroke="#058149" stroke-linecap="round" stroke-linejoin="round" stroke-width="4.288" d="m 398.75,468.23718 a 10.625,10.625 0 1 1 -21.25,0 10.625,10.625 0 1 1 21.25,0 z" font-family="Sans" font-size="13.589" font-weight="400" letter-spacing="0" style="line-height:125%" transform="matrix(.23321 0 0 .23321 -82.514 -101.2)" word-spacing="0"/>
  <path fill="#fff" d="m 7.9973152,1042.521 c 0,0 0.1917576,0.6999 0.6766707,1.1849 0.4849113,0.4848 1.1847983,0.6765 1.1847983,0.6765 0,0 -0.6959167,0.1879 -1.1847967,0.6767 -0.4888799,0.4889 -0.6766706,1.1847 -0.6766706,1.1847 0,0 -0.1719097,-0.6798 -0.6766707,-1.1847 -0.504761,-0.5048 -1.1847934,-0.6767 -1.1847934,-0.6767 0,0 0.7117911,-0.2037 1.1847934,-0.6765 0.4730006,-0.4732 0.676669,-1.1849 0.676669,-1.1849 z" transform="translate(0 -1036.362)"/>
</svg>
