<svg xmlns="http://www.w3.org/2000/svg" xmlns:xlink="http://www.w3.org/1999/xlink" width="16" height="16">
  <defs>
    <linearGradient id="a">
      <stop offset="0" stop-color="#f57c7c"/>
      <stop offset=".629" stop-color="#f14d5c"/>
      <stop offset="1" stop-color="#e76061"/>
    </linearGradient>
    <linearGradient xlink:href="#a" id="b" x1="-16.115" x2="-16.115" y1="1031.035" y2="1033.667" gradientTransform="matrix(.80204 0 0 .80204 21.437 216.879)" gradientUnits="userSpaceOnUse"/>
    <filter id="c" width="1.24" height="1.24" x="-.12" y="-.12" color-interpolation-filters="sRGB">
      <feGaussianBlur stdDeviation=".2"/>
    </filter>
  </defs>
  <path fill="url(#b)" stroke="#cb2e39" stroke-linecap="round" stroke-linejoin="round" stroke-width=".981" d="M6.497 1042.859H10.502V1046.864H6.497z" font-family="Sans" font-size="13.589" font-weight="400" letter-spacing="0" style="line-height:125%" transform="translate(0 -1036.362)" word-spacing="0"/>
  <path fill="none" stroke="#fff" stroke-linecap="round" stroke-linejoin="round" stroke-width=".683" d="M7.554 1043.883H11.551V1047.88H7.554z" filter="url(#c)" font-family="Sans" font-size="13.589" font-weight="400" letter-spacing="0" opacity=".25" style="line-height:125%" transform="matrix(.6848 0 0 .6848 1.99 -707.73)" word-spacing="0"/>
  <path fill="#fff" d="m 8.5107074,1043.0116 c 0,0 0.1917576,0.6999 0.6766707,1.1849 0.4849113,0.4848 1.1847919,0.6765 1.1847919,0.6765 0,0 -0.6959103,0.1879 -1.1847903,0.6767 -0.4888799,0.4889 -0.6766706,1.1847 -0.6766706,1.1847 0,0 -0.1719097,-0.6798 -0.6766707,-1.1847 -0.504761,-0.5048 -1.1847934,-0.6767 -1.1847934,-0.6767 0,0 0.7117911,-0.2037 1.1847934,-0.6765 0.4730006,-0.4732 0.676669,-1.1849 0.676669,-1.1849 z" transform="translate(0 -1036.362)"/>
</svg>
