<svg xmlns="http://www.w3.org/2000/svg" xmlns:xlink="http://www.w3.org/1999/xlink" width="16" height="16">
  <defs>
    <linearGradient xlink:href="#a" id="p" x1="7.007" x2="12.016" y1="1051.857" y2="1051.857" gradientTransform="translate(-1.978 -3.044)" gradientUnits="userSpaceOnUse"/>
    <linearGradient id="a">
      <stop offset="0" stop-color="#91a5c7"/>
      <stop offset="1" stop-color="#637aa7"/>
    </linearGradient>
    <linearGradient xlink:href="#b" id="o" x1="7.007" x2="14" y1="1049.857" y2="1049.857" gradientTransform="translate(-1.978 -3.044)" gradientUnits="userSpaceOnUse"/>
    <linearGradient id="b">
      <stop offset="0" stop-color="#91a5c7"/>
      <stop offset="1" stop-color="#637aa7"/>
    </linearGradient>
    <linearGradient xlink:href="#c" id="n" x1="7.007" x2="14" y1="1047.857" y2="1047.857" gradientTransform="translate(-1.978 -3.044)" gradientUnits="userSpaceOnUse"/>
    <linearGradient id="c">
      <stop offset="0" stop-color="#91a5c7"/>
      <stop offset="1" stop-color="#637aa7"/>
    </linearGradient>
    <linearGradient xlink:href="#d" id="m" x1="7.007" x2="14" y1="1045.857" y2="1045.857" gradientTransform="translate(-1.978 -3.044)" gradientUnits="userSpaceOnUse"/>
    <linearGradient id="d">
      <stop offset="0" stop-color="#91a5c7"/>
      <stop offset="1" stop-color="#637aa7"/>
    </linearGradient>
    <linearGradient xlink:href="#e" id="l" x1="7.007" x2="11" y1="1043.857" y2="1043.857" gradientTransform="translate(-1.978 -3.044)" gradientUnits="userSpaceOnUse"/>
    <linearGradient id="e">
      <stop offset="0" stop-color="#91a5c7"/>
      <stop offset="1" stop-color="#5e76a3"/>
    </linearGradient>
    <linearGradient xlink:href="#f" id="k" x1="10.545" x2="10.545" y1="1038.578" y2="1052.323" gradientTransform="translate(-1.978 -1.044)" gradientUnits="userSpaceOnUse"/>
    <linearGradient id="f">
      <stop offset="0" stop-color="#bfb688"/>
      <stop offset="1" stop-color="#8392b0"/>
    </linearGradient>
    <linearGradient xlink:href="#g" id="j" x1="7.999" x2="9.987" y1="1042.231" y2="1040.33" gradientTransform="translate(2.022 -1.044)" gradientUnits="userSpaceOnUse"/>
    <linearGradient id="g">
      <stop offset="0" stop-color="#e0c88f"/>
      <stop offset="1" stop-color="#d5b269"/>
    </linearGradient>
    <linearGradient id="h">
      <stop offset="0" stop-color="#f9fafc"/>
      <stop offset="1" stop-color="#dce7f7"/>
    </linearGradient>
    <linearGradient xlink:href="#h" id="i" x1="9.895" x2="9.895" y1="1039.153" y2="1051.838" gradientTransform="translate(-1.978 -1.044)" gradientUnits="userSpaceOnUse"/>
  </defs>
  <path fill="url(#i)" d="m 3.5193795,1037.8597 7.0096695,0 3.062057,3.0066 0,9.9546 -10.0717265,0 z" transform="translate(0 -1036.362)"/>
  <path fill="url(#j)" d="m 9.998718,1037.397 0,3.9112 3.977478,0 z" transform="translate(0 -1036.362)"/>
  <path fill="none" stroke="url(#k)" d="m 3.5193795,1037.8597 7.0096695,0 3.062057,3.0066 0,9.9546 -10.0717265,0 z" transform="translate(0 -1036.362)"/>
  <path fill="url(#l)" d="M5.029 1040.307H9.022V1041.317H5.029z" transform="translate(0 -1036.362)"/>
  <path fill="url(#m)" d="M5.029 1042.307H12.022V1043.317H5.029z" transform="translate(0 -1036.362)"/>
  <path fill="url(#n)" d="M5.029 1044.307H12.022V1045.317H5.029z" transform="translate(0 -1036.362)"/>
  <path fill="url(#o)" d="M5.029 1046.307H12.022V1047.317H5.029z" transform="translate(0 -1036.362)"/>
  <path fill="url(#p)" d="M5.029 1048.307H10.038V1049.317H5.029z" transform="translate(0 -1036.362)"/>
</svg>
