<svg xmlns="http://www.w3.org/2000/svg" xmlns:xlink="http://www.w3.org/1999/xlink" width="16" height="16">
  <defs>
    <linearGradient id="b">
      <stop offset="0" stop-color="#01467a"/>
      <stop offset="1" stop-color="#6b8fa5"/>
    </linearGradient>
    <linearGradient id="a">
      <stop offset="0" stop-color="#b4bbd1"/>
      <stop offset="1" stop-color="#6d83ac"/>
    </linearGradient>
    <linearGradient xlink:href="#a" id="g" x1="7" x2="15" y1="1049.862" y2="1049.862" gradientTransform="translate(0 -4)" gradientUnits="userSpaceOnUse"/>
    <linearGradient xlink:href="#b" id="h" x1="4" x2="2" y1="1047.362" y2="1045.362" gradientTransform="translate(2 -6)" gradientUnits="userSpaceOnUse"/>
    <linearGradient id="c">
      <stop offset="0" stop-color="#b4bbd1"/>
      <stop offset="1" stop-color="#6d83ac"/>
    </linearGradient>
    <linearGradient xlink:href="#c" id="i" x1="7" x2="15" y1="1049.862" y2="1049.862" gradientTransform="translate(0 -6)" gradientUnits="userSpaceOnUse"/>
    <linearGradient id="d">
      <stop offset="0" stop-color="#b4bbd1"/>
      <stop offset="1" stop-color="#6d83ac"/>
    </linearGradient>
    <linearGradient xlink:href="#d" id="j" x1="7" x2="15" y1="1049.862" y2="1049.862" gradientTransform="translate(0 -8)" gradientUnits="userSpaceOnUse"/>
    <linearGradient id="e">
      <stop offset="0" stop-color="#b4bbd1"/>
      <stop offset="1" stop-color="#6d83ac"/>
    </linearGradient>
    <linearGradient xlink:href="#e" id="k" x1="7" x2="15" y1="1049.862" y2="1049.862" gradientTransform="translate(0 -2)" gradientUnits="userSpaceOnUse"/>
    <linearGradient id="f">
      <stop offset="0" stop-color="#b4bbd1"/>
      <stop offset="1" stop-color="#6d83ac"/>
    </linearGradient>
    <linearGradient xlink:href="#f" id="l" x1="7" x2="15" y1="1049.862" y2="1049.862" gradientUnits="userSpaceOnUse"/>
  </defs>
  <path fill="url(#g)" d="M7 1045.362H15V1046.362H7z" transform="translate(0 -1036.362)"/>
  <path fill="url(#h)" d="m 1.4949237,1041.3622 4.5050763,0 0,-4.5366 z" transform="translate(0 -1036.362)"/>
  <path fill="url(#i)" d="M7 1043.362H15V1044.362H7z" transform="translate(0 -1036.362)"/>
  <path fill="url(#j)" d="M7 1041.362H14V1042.362H7z" transform="translate(0 -1036.362)"/>
  <path fill="url(#k)" d="M7 1047.362H14V1048.362H7z" transform="translate(0 -1036.362)"/>
  <path fill="url(#l)" d="M7 1049.362H15V1050.362H7z" transform="translate(0 -1036.362)"/>
</svg>
