<svg xmlns="http://www.w3.org/2000/svg" xmlns:xlink="http://www.w3.org/1999/xlink" width="16" height="16">
  <defs>
    <linearGradient id="c">
      <stop offset="0" stop-color="#4f9e55"/>
      <stop offset=".5" stop-color="#418a4d"/>
      <stop offset="1" stop-color="#91c168"/>
    </linearGradient>
    <linearGradient xlink:href="#a" id="f" x1="-17.448" x2="-14.571" y1="1030.813" y2="1033.69" gradientTransform="matrix(1.19343 0 0 1.19343 11.623 -194.188)" gradientUnits="userSpaceOnUse"/>
    <linearGradient id="a">
      <stop offset="0" stop-color="#fff2b0"/>
      <stop offset=".629" stop-color="#fecf6c"/>
      <stop offset="1" stop-color="#fede96"/>
    </linearGradient>
    <linearGradient xlink:href="#b" id="g" x1="-10.453" x2="-4.312" y1="1034.62" y2="1040.76" gradientUnits="userSpaceOnUse"/>
    <linearGradient id="b">
      <stop offset="0" stop-color="#be9c28"/>
      <stop offset="1" stop-color="#a77e1c"/>
    </linearGradient>
    <linearGradient xlink:href="#c" id="d" x1="388.637" x2="388.637" y1="478.188" y2="462.115" gradientUnits="userSpaceOnUse"/>
    <filter id="h" width="1.24" height="1.24" x="-.12" y="-.12" color-interpolation-filters="sRGB">
      <feGaussianBlur stdDeviation=".2"/>
    </filter>
    <filter id="e" width="1.24" height="1.24" x="-.12" y="-.12" color-interpolation-filters="sRGB">
      <feGaussianBlur stdDeviation=".2"/>
    </filter>
  </defs>
  <g transform="translate(0 -1036.362)">
    <g fill="#fff" letter-spacing="0" word-spacing="0">
      <g font-family="Sans" font-size="13.589" font-weight="400">
        <g style="line-height:125%" transform="translate(15.084 6.044)">
          <circle cx="388.125" cy="468.237" r="8.959" fill="url(#d)" stroke="#14733c" stroke-linecap="round" stroke-linejoin="round" stroke-width="1.492" transform="matrix(.66884 0 0 .6714 -267.183 722.47)"/>
        </g>
      </g>
      <path d="m 9.9582435,1043.4532 c -0.2897069,-0.3986 -0.2258257,-0.3177 -0.4712765,-0.5307 -0.2405524,-0.2129 -0.5547364,-0.3192 -0.9425527,-0.3192 -0.5154625,0 -0.927829,0.185 -1.2371006,0.5551 -0.3043689,0.3648 -0.4565517,0.6031 -0.4565489,1.4648 -2.8e-6,0.958 0.1546346,1.3845 0.4639127,1.7799 0.3141807,0.3954 0.8001884,0.593 1.2591915,0.593 0.4590031,0 0.7078193,-0.1439 0.9646439,-0.3422 0.2568246,-0.1983 0.2834574,-0.2 0.5301861,-0.7297 l 2.032379,-0.017 c -0.211101,0.9629 -0.616102,1.6013 -1.215009,2.093 -0.598921,0.4917 -1.401562,0.7374 -2.407928,0.7374 -1.1438303,0 -2.0569271,-0.3724 -2.7392935,-1.1176 -0.6774613,-0.7449 -1.0161905,-1.5264 -1.0161905,-2.8443 0,-1.333 0.3411837,-1.9946 1.0235539,-2.7344 0.6823664,-0.7452 1.6052818,-1.1177 2.7687486,-1.1177 0.9523657,0 1.7083715,0.2129 2.2680175,0.6387 0.564543,0.4205 1.032045,0.9883 1.277509,1.8547 z" font-family="Arial" font-size="15.569" font-weight="700" style="line-height:125%" transform="translate(-1.045 -1.97)"/>
    </g>
    <rect width="3.367" height="8.412" x="744.833" y="727.852" fill="#fff" font-family="Sans" font-size="13.589" font-weight="400" letter-spacing="0" rx=".824" ry=".824" style="line-height:125%" transform="rotate(45)" word-spacing="0"/>
    <path fill="#fff" d="M-9.625 1035.847H-5.628V1039.844H-9.625z" filter="url(#e)" font-family="Sans" font-size="13.589" font-weight="400" letter-spacing="0" opacity=".25" style="line-height:125%" transform="scale(1.19795) rotate(45 199.593 976.973)" word-spacing="0"/>
    <g fill="#fff" font-family="Sans" font-size="13.589" font-weight="400" letter-spacing="0" word-spacing="0">
      <g style="line-height:125%">
        <g stroke-linecap="round" stroke-linejoin="round" style="line-height:125%" transform="rotate(45 -9.37 1066.281)">
          <rect width="5.96" height="5.96" x="-10.606" y="1034.866" fill="url(#f)" stroke="url(#g)" stroke-width="1.018" rx=".688" ry=".688"/>
          <path fill="none" stroke="#fff" stroke-width=".683" d="M-9.625 1035.847H-5.628V1039.844H-9.625z" filter="url(#h)" opacity=".25" style="line-height:125%"/>
        </g>
      </g>
    </g>
  </g>
</svg>
