<svg xmlns="http://www.w3.org/2000/svg" xmlns:xlink="http://www.w3.org/1999/xlink" width="16" height="16">
  <defs>
    <linearGradient id="c">
      <stop offset="0" stop-color="#7792b2"/>
      <stop offset=".159" stop-color="#a1b3cb"/>
      <stop offset=".466" stop-color="#6180a9"/>
      <stop offset=".744" stop-color="#a1b3cb"/>
      <stop offset="1" stop-color="#7995b8"/>
    </linearGradient>
    <linearGradient id="b">
      <stop offset="0" stop-color="#fdfcfa"/>
      <stop offset=".674" stop-color="#fff" stop-opacity=".251"/>
      <stop offset="1" stop-color="#d2e0f1" stop-opacity="0"/>
    </linearGradient>
    <linearGradient id="a">
      <stop offset="0" stop-color="#d2e0f1"/>
      <stop offset=".841" stop-color="#d2e0f1"/>
      <stop offset="1" stop-color="#fcf2cf"/>
    </linearGradient>
    <linearGradient id="e">
      <stop offset="0" stop-color="#c7a229"/>
      <stop offset="1" stop-color="#a07e1e"/>
    </linearGradient>
    <linearGradient id="d">
      <stop offset="0" stop-color="#fefdef"/>
      <stop offset="1" stop-color="#fbdd83"/>
    </linearGradient>
    <linearGradient xlink:href="#c" id="m" x1="33.923" x2="33.923" y1="1051.258" y2="1040.46" gradientTransform="translate(-19.965 -.555)" gradientUnits="userSpaceOnUse"/>
    <linearGradient xlink:href="#d" id="n" x1="25.083" x2="31.932" y1="1038.872" y2="1038.872" gradientTransform="translate(-20 -.147)" gradientUnits="userSpaceOnUse"/>
    <linearGradient xlink:href="#e" id="o" x1="27.425" x2="27.425" y1="1037.767" y2="1039.846" gradientTransform="translate(-20 -.147)" gradientUnits="userSpaceOnUse"/>
    <linearGradient xlink:href="#f" id="p" x1="9.895" x2="9.895" y1="1039.153" y2="1048.147" gradientTransform="translate(-20.011 118.203) scale(.88708)" gradientUnits="userSpaceOnUse"/>
    <linearGradient id="f">
      <stop offset="0" stop-color="#f9fafc"/>
      <stop offset="1" stop-color="#dce7f7"/>
    </linearGradient>
    <linearGradient xlink:href="#g" id="q" x1="7.999" x2="8.882" y1="1042.231" y2="1041.347" gradientTransform="matrix(1.20811 0 0 1.20811 -18.104 -216.206)" gradientUnits="userSpaceOnUse"/>
    <linearGradient id="g">
      <stop offset="0" stop-color="#e0c88f"/>
      <stop offset="1" stop-color="#d5b269"/>
    </linearGradient>
    <linearGradient xlink:href="#h" id="r" x1="11.053" x2="11.053" y1="1040.287" y2="1046.287" gradientTransform="translate(-20.53 .707)" gradientUnits="userSpaceOnUse"/>
    <linearGradient id="h">
      <stop offset="0" stop-color="#b4903d"/>
      <stop offset="1" stop-color="#7f764e"/>
    </linearGradient>
    <linearGradient xlink:href="#i" id="s" x1="-30.478" x2="-27.478" y1="1045.495" y2="1045.495" gradientTransform="translate(37.955)" gradientUnits="userSpaceOnUse"/>
    <linearGradient id="i">
      <stop offset="0" stop-color="#5f88b5"/>
      <stop offset="1" stop-color="#acbcd5"/>
    </linearGradient>
    <linearGradient xlink:href="#j" id="t" x1="-30.478" x2="-27.478" y1="1045.495" y2="1045.495" gradientTransform="translate(37.955 -2)" gradientUnits="userSpaceOnUse"/>
    <linearGradient id="j">
      <stop offset="0" stop-color="#5f88b5"/>
      <stop offset="1" stop-color="#acbcd5"/>
    </linearGradient>
    <radialGradient xlink:href="#a" id="k" cx="29.622" cy="1043.239" r="5.391" fx="29.622" fy="1043.239" gradientTransform="matrix(0 1.43464 -1.60774 0 1685.738 1001.41)" gradientUnits="userSpaceOnUse"/>
    <radialGradient xlink:href="#b" id="l" cx="28.466" cy="1044.412" r="5.016" fx="28.466" fy="1044.412" gradientTransform="matrix(.88536 .01424 -.02078 1.29183 4.983 -305.706)" gradientUnits="userSpaceOnUse"/>
  </defs>
  <g transform="matrix(.90163 0 0 .90163 1.279 -934.045)">
    <path fill="url(#k)" d="m 5.2136895,1038.7143 6.6566975,0 c 0.453044,1.6907 2.762136,2.5911 2.762136,5.1157 l 0,5.4202 c 0,1.5302 -1.231912,2.7621 -2.762136,2.7621 l -6.6566975,0 c -1.530224,0 -2.762136,-1.2319 -2.762136,-2.7621 l 0,-5.4202 c 0,-2.5909 2.334749,-3.5207 2.762136,-5.1157 z"/>
    <path fill="url(#l)" d="m 5.2136895,1038.7143 6.6566975,0 c 0.453044,1.6907 2.762136,2.5911 2.762136,5.1157 l 0,5.4202 c 0,1.5302 -1.231912,2.7621 -2.762136,2.7621 l -6.6566975,0 c -1.530224,0 -2.762136,-1.2319 -2.762136,-2.7621 l 0,-5.4202 c 0,-2.5909 2.334749,-3.5207 2.762136,-5.1157 z"/>
    <path fill="none" stroke="url(#m)" stroke-linejoin="round" stroke-width="1.109" d="m 5.2136895,1038.7143 6.6566975,0 c 0.453044,1.6907 2.762136,2.5911 2.762136,5.1157 l 0,5.4202 c 0,1.5302 -1.231912,2.7621 -2.762136,2.7621 l -6.6566975,0 c -1.530224,0 -2.762136,-1.2319 -2.762136,-2.7621 l 0,-5.4202 c 0,-2.5909 2.334749,-3.5207 2.762136,-5.1157 z"/>
    <rect width="10.057" height="2.222" x="3.531" y="1036.522" fill="url(#n)" stroke="url(#o)" stroke-linejoin="round" stroke-width="1.109" rx=".762" ry=".762"/>
  </g>
  <g fill="#10305a" stroke="#17325d" font-family="Gautami" font-size="10" font-weight="400" letter-spacing="0" word-spacing="0">
    <path stroke-width=".431" d="m 6.738238,1045.3769 c -4e-6,0.5057 -0.09722,0.9203 -0.291688,1.2435 -0.22402,0.3749 -0.548377,0.5624 -0.973072,0.5624 -0.424698,0 -0.749834,-0.1875 -0.975405,-0.5624 -0.196014,-0.3232 -0.294022,-0.7378 -0.294022,-1.2435 0,-0.5058 0.09801,-0.9202 0.294022,-1.2435 0.225571,-0.375 0.550707,-0.5624 0.975405,-0.5625 0.424695,10e-5 0.749052,0.1875 0.973072,0.5625 0.194455,0.3233 0.291684,0.7377 0.291688,1.2435 z m -0.410697,0 c -4e-6,-0.3646 -0.07079,-0.6769 -0.21235,-0.9365 -0.160236,-0.2924 -0.37414,-0.4385 -0.641713,-0.4385 -0.269131,0 -0.483814,0.1461 -0.644047,0.4385 -0.143123,0.2596 -0.214683,0.5719 -0.214683,0.9365 0,0.3647 0.07157,0.6767 0.214683,0.9366 0.160233,0.2922 0.374916,0.4385 0.644047,0.4385 0.267573,0 0.481477,-0.1463 0.641713,-0.4385 0.141565,-0.2599 0.212346,-0.5719 0.21235,-0.9366 z" style="line-height:125%;text-align:start" transform="translate(.996 -1036.362)"/>
    <path stroke-width=".264" d="m 8.8747035,1043.4881 0,3.7435 -0.7456623,0 0.00726,-3.7513 z" style="line-height:125%;-inkscape-font-specification:Gautami;text-align:start" transform="translate(.996 -1036.362)"/>
    <path stroke-width=".433" d="m 12.77305,1045.3769 c -3e-6,0.5053 -0.09834,0.9197 -0.295019,1.2427 -0.226576,0.3747 -0.554637,0.562 -0.984182,0.562 -0.429549,0 -0.758395,-0.1873 -0.986541,-0.562 -0.198254,-0.323 -0.297379,-0.7374 -0.297379,-1.2427 0,-0.5054 0.09912,-0.9196 0.297379,-1.2427 0.228146,-0.3748 0.556992,-0.562 0.986541,-0.5621 0.429545,10e-5 0.757606,0.1873 0.984182,0.5621 0.196677,0.3231 0.295016,0.7373 0.295019,1.2427 z m -0.415386,0 c -4e-6,-0.3644 -0.07158,-0.6765 -0.214775,-0.9359 -0.162064,-0.2922 -0.378411,-0.4383 -0.64904,-0.4383 -0.272205,0 -0.489338,0.1461 -0.651401,0.4383 -0.144757,0.2594 -0.217133,0.5715 -0.217133,0.9359 0,0.3645 0.07238,0.6763 0.217133,0.936 0.162063,0.292 0.379196,0.4383 0.651401,0.4383 0.270629,0 0.486976,-0.1463 0.649041,-0.4383 0.143181,-0.2597 0.21477,-0.5715 0.214774,-0.936 z" style="line-height:125%;-inkscape-font-specification:Gautami;text-align:start" transform="translate(.996 -1036.362)"/>
  </g>
  <path fill="url(#p)" d="m -12.290193,1040.9745 4.2968686,-0.2146 1.7932055,2.1724 -0.106343,4.7811 -5.9935941,-0.075 z" transform="matrix(1 0 0 1 13.506 -1032.995)"/>
  <path fill="url(#q)" d="m -8.4678309,1040.7654 0,2.3089 2.3890165,0 z" transform="matrix(1 0 0 1 13.506 -1032.995)"/>
  <path fill="url(#r)" d="m -12.477693,1040.0594 0,0.5 -0.0099,6.9249 0,0.5 0.5,0 6.0098631,0.01 0.5,0 0,-0.5 0.0099,-4.6765 0,-0.2187 -0.15625,-0.125 -2.0625,-2.2682 -0.125,-0.1563 -0.21875,0 -3.9473631,0.01 z m 1,1 3.2598631,-0.01 1.75,1.987 -0.0099,3.9577 -5.0098631,-0.01 z" color="#000" font-family="Sans" font-weight="400" overflow="visible" style="text-indent:0;text-align:start;line-height:normal;text-transform:none;block-progression:tb;marker:none;-inkscape-font-specification:Sans" transform="matrix(1 0 0 1 13.506 -1032.995)"/>
  <path fill="url(#s)" d="M7.478 1044.995H10.478V1045.995H7.478z" transform="matrix(-1 0 0 1 13.506 -1032.995)"/>
  <path fill="url(#t)" d="M8.478 1042.995H10.478V1043.995H8.478z" transform="matrix(-1 0 0 1 13.506 -1032.995)"/>
</svg>
