<svg xmlns="http://www.w3.org/2000/svg" xmlns:xlink="http://www.w3.org/1999/xlink" width="16" height="16">
  <defs>
    <linearGradient id="d">
      <stop offset="0" stop-color="#5c7aaa"/>
      <stop offset="1" stop-color="#286296"/>
    </linearGradient>
    <linearGradient id="c">
      <stop offset="0" stop-color="#c1cde0"/>
      <stop offset="1" stop-color="#a5b5d0"/>
    </linearGradient>
    <linearGradient id="b">
      <stop offset="0" stop-color="#fff2b0"/>
      <stop offset="1" stop-color="#fecf6c"/>
    </linearGradient>
    <linearGradient id="a">
      <stop offset="0" stop-color="#be9c28"/>
      <stop offset="1" stop-color="#a77e1c"/>
    </linearGradient>
    <linearGradient xlink:href="#a" id="e" x1="-11" x2="-6" y1="1048.862" y2="1048.862" gradientTransform="translate(1057.362 -1060.362)" gradientUnits="userSpaceOnUse"/>
    <linearGradient xlink:href="#b" id="h" x1="-10" x2="-7" y1="1048.862" y2="1048.862" gradientTransform="translate(1057.362 -1060.362)" gradientUnits="userSpaceOnUse"/>
    <linearGradient xlink:href="#c" id="g" x1="-17" x2="-14" y1="1042.862" y2="1042.862" gradientTransform="translate(1058.362 -1047.362)" gradientUnits="userSpaceOnUse"/>
    <linearGradient xlink:href="#d" id="f" x1="-18" x2="-13" y1="1042.862" y2="1042.862" gradientTransform="translate(1058.362 -1047.362)" gradientUnits="userSpaceOnUse"/>
  </defs>
  <path fill="#286296" d="M4 1044.362H5V1049.362H4z" transform="translate(0 -1036.362)"/>
  <path fill="#286296" d="M4 1048.362H10V1049.362H4z" transform="translate(0 -1036.362)"/>
  <path fill="url(#e)" d="M1046.362-14H1051.362V-9H1046.362z" transform="rotate(90 518.181 -518.181)"/>
  <path fill="url(#f)" d="M1040.362-7H1045.362V-2H1040.362z" transform="rotate(90 518.181 -518.181)"/>
  <path fill="#366c9a" d="m 10.672835,1044.3774 c -0.171562,-0.017 -0.373083,-0.055 -0.534902,-0.1025 -0.251107,-0.074 -0.226087,0.015 -0.226087,-0.7967 0,-0.4245 0.0071,-0.7045 0.01809,-0.7088 0.0099,0 0.02939,0 0.04325,0.012 0.04494,0.034 0.27312,0.1505 0.348667,0.1784 0.172897,0.064 0.432322,0.097 0.615066,0.077 0.405106,-0.043 0.679627,-0.2729 0.817703,-0.685 0.111346,-0.3324 0.105744,-0.2035 0.117201,-2.6968 l 0.01055,-2.2935 0.768974,0 0.768976,0 0.0057,2.1382 c 0.0059,2.2102 -5.1e-4,2.4688 -0.07203,2.8715 -0.144883,0.8166 -0.554897,1.4311 -1.162763,1.7426 -0.408624,0.2094 -1.00188,0.3124 -1.518377,0.2637 z" transform="translate(0 -1036.362)"/>
  <path fill="url(#g)" d="M1041.362-6H1044.362V-3H1041.362z" transform="rotate(90 518.181 -518.181)"/>
  <path fill="url(#h)" d="M1047.362-13H1050.362V-10H1047.362z" transform="rotate(90 518.181 -518.181)"/>
</svg>
