<svg xmlns="http://www.w3.org/2000/svg" xmlns:xlink="http://www.w3.org/1999/xlink" width="16" height="16">
  <defs>
    <linearGradient xlink:href="#a" id="e" x1="11.04" x2="10.746" y1="13.403" y2="14.498" gradientUnits="userSpaceOnUse"/>
    <linearGradient id="a">
      <stop offset="0" stop-color="#ffdf7f"/>
      <stop offset="1" stop-color="#ffdf5f"/>
    </linearGradient>
    <linearGradient xlink:href="#b" id="f" x1="10.98" x2="10.98" y1="12.075" y2="15.959" gradientUnits="userSpaceOnUse"/>
    <linearGradient id="b">
      <stop offset="0" stop-color="#be9c28"/>
      <stop offset="1" stop-color="#aa821e"/>
    </linearGradient>
    <linearGradient xlink:href="#c" id="g" x1="11.063" x2="11.063" y1="9.891" y2="4.234" gradientTransform="translate(1.025 1035.379)" gradientUnits="userSpaceOnUse"/>
    <linearGradient id="c">
      <stop offset="0" stop-color="#cfa73e"/>
      <stop offset=".254" stop-color="#fecf6c"/>
      <stop offset="1" stop-color="#ffea91"/>
    </linearGradient>
    <linearGradient xlink:href="#d" id="h" x1="10.938" x2="10.938" y1="3.266" y2="10.891" gradientTransform="translate(1.025 1035.379)" gradientUnits="userSpaceOnUse"/>
    <linearGradient id="d">
      <stop offset="0" stop-color="#be9c28"/>
      <stop offset="1" stop-color="#aa821e"/>
    </linearGradient>
  </defs>
  <path fill="url(#e)" stroke="url(#f)" stroke-width="1.081" d="m 12.609375,14 c 0,0.897463 -0.727537,1.625 -1.625,1.625 -0.897463,0 -1.625,-0.727537 -1.625,-1.625 0,-0.897463 0.727537,-1.625 1.625,-1.625 0.897463,0 1.625,0.727537 1.625,1.625 z" transform="matrix(.92543 0 0 .92543 1.86 .06)"/>
  <path fill="url(#g)" stroke="url(#h)" stroke-linecap="round" stroke-linejoin="round" d="m 12.008915,1038.8633 c 0.839655,0 1.560358,0.6772 1.515624,1.5156 l -0.220969,4.1418 c -0.04473,0.8384 -0.455,1.4051 -1.294655,1.4051 -0.839655,0 -1.24992,-0.5667 -1.294655,-1.4051 l -0.220972,-4.1418 c -0.04473,-0.8384 0.675972,-1.5156 1.515627,-1.5156 z" transform="translate(0 -1036.362)"/>
  <path fill="#366c9a" d="m 4.6725611,1044.3396 c -0.1933415,-0.019 -0.420446,-0.062 -0.6028077,-0.1155 -0.2829848,-0.083 -0.2547891,0.017 -0.2547891,-0.8978 0,-0.4784 0.00804,-0.794 0.020385,-0.7988 0.011198,0 0.033126,0 0.048745,0.013 0.050649,0.038 0.3077924,0.1696 0.3929307,0.2011 0.1948459,0.072 0.4872053,0.1088 0.6931487,0.087 0.4565347,-0.048 0.7659062,-0.3076 0.9215107,-0.772 0.1254823,-0.3746 0.1191685,-0.2293 0.1320805,-3.0391 l 0.011887,-2.5847 0.8665952,0 0.8665981,0 0.00643,2.4096 c 0.00666,2.4908 -5.741e-4,2.7823 -0.081182,3.2361 -0.163276,0.9202 -0.6253407,1.6128 -1.3103752,1.9638 -0.4604999,0.236 -1.1290707,0.3521 -1.7111364,0.2972 z" transform="translate(0 -1036.362)"/>
</svg>
