<svg xmlns="http://www.w3.org/2000/svg" xmlns:xlink="http://www.w3.org/1999/xlink" width="16" height="16">
  <defs>
    <linearGradient id="e">
      <stop offset="0" stop-color="#713e1e"/>
      <stop offset=".182" stop-color="#925321"/>
      <stop offset=".364" stop-color="#945829"/>
      <stop offset=".5" stop-color="#703b18"/>
      <stop offset=".636" stop-color="#945829"/>
      <stop offset=".818" stop-color="#925321"/>
      <stop offset="1" stop-color="#713e1e"/>
    </linearGradient>
    <linearGradient id="a">
      <stop offset="0" stop-color="#faefba"/>
      <stop offset="1" stop-color="#9e6542"/>
    </linearGradient>
    <linearGradient id="b">
      <stop offset="0" stop-color="#faefba"/>
      <stop offset="1" stop-color="#9e6542"/>
    </linearGradient>
    <linearGradient id="c">
      <stop offset="0" stop-color="#faefba"/>
      <stop offset="1" stop-color="#9e6542"/>
    </linearGradient>
    <linearGradient id="d">
      <stop offset="0" stop-color="#faefba"/>
      <stop offset="1" stop-color="#9e6542"/>
    </linearGradient>
    <linearGradient xlink:href="#e" id="w" x1="355.295" x2="394.717" y1="449.881" y2="449.881" gradientUnits="userSpaceOnUse"/>
    <linearGradient id="f">
      <stop offset="0" stop-color="#713e1e"/>
      <stop offset=".182" stop-color="#925321"/>
      <stop offset=".364" stop-color="#945829"/>
      <stop offset=".5" stop-color="#703b18"/>
      <stop offset=".636" stop-color="#945829"/>
      <stop offset=".818" stop-color="#925321"/>
      <stop offset="1" stop-color="#713e1e"/>
    </linearGradient>
    <linearGradient xlink:href="#f" id="x" x1="355.295" x2="394.717" y1="449.881" y2="449.881" gradientTransform="rotate(90 375.006 449.881)" gradientUnits="userSpaceOnUse"/>
    <linearGradient id="g">
      <stop offset="0" stop-color="#faefba"/>
      <stop offset="1" stop-color="#9e6542"/>
    </linearGradient>
    <linearGradient id="h">
      <stop offset="0" stop-color="#faefba"/>
      <stop offset="1" stop-color="#9e6542"/>
    </linearGradient>
    <linearGradient id="i">
      <stop offset="0" stop-color="#faefba"/>
      <stop offset="1" stop-color="#9e6542"/>
    </linearGradient>
    <linearGradient id="j">
      <stop offset="0" stop-color="#faefba"/>
      <stop offset="1" stop-color="#9e6542"/>
    </linearGradient>
    <linearGradient xlink:href="#k" id="q" x1="355.295" x2="394.717" y1="449.881" y2="449.881" gradientUnits="userSpaceOnUse"/>
    <linearGradient id="k">
      <stop offset="0" stop-color="#713e1e"/>
      <stop offset=".182" stop-color="#925321"/>
      <stop offset=".364" stop-color="#945829"/>
      <stop offset=".5" stop-color="#703b18"/>
      <stop offset=".636" stop-color="#945829"/>
      <stop offset=".818" stop-color="#925321"/>
      <stop offset="1" stop-color="#713e1e"/>
    </linearGradient>
    <linearGradient id="l">
      <stop offset="0" stop-color="#713e1e"/>
      <stop offset=".182" stop-color="#925321"/>
      <stop offset=".364" stop-color="#945829"/>
      <stop offset=".5" stop-color="#703b18"/>
      <stop offset=".636" stop-color="#945829"/>
      <stop offset=".818" stop-color="#925321"/>
      <stop offset="1" stop-color="#713e1e"/>
    </linearGradient>
    <linearGradient xlink:href="#l" id="r" x1="355.295" x2="394.717" y1="449.881" y2="449.881" gradientTransform="rotate(90 375.006 449.881)" gradientUnits="userSpaceOnUse"/>
    <radialGradient xlink:href="#a" id="s" cx="387.597" cy="442.578" r="6.188" fx="387.597" fy="442.578" gradientTransform="matrix(2.06065 0 0 1.80835 -433.447 -360.186)" gradientUnits="userSpaceOnUse"/>
    <radialGradient xlink:href="#b" id="t" cx="387.597" cy="442.578" r="6.188" fx="387.597" fy="442.578" gradientTransform="matrix(2.06065 0 0 1.80835 -419.135 -360.186)" gradientUnits="userSpaceOnUse"/>
    <radialGradient xlink:href="#c" id="u" cx="387.597" cy="442.578" r="6.188" fx="387.597" fy="442.578" gradientTransform="matrix(2.06065 0 0 1.80835 -433.447 -345.882)" gradientUnits="userSpaceOnUse"/>
    <radialGradient xlink:href="#d" id="v" cx="387.597" cy="442.578" r="6.188" fx="387.597" fy="442.578" gradientTransform="matrix(2.06065 0 0 1.80835 -419.135 -345.882)" gradientUnits="userSpaceOnUse"/>
    <radialGradient xlink:href="#g" id="m" cx="387.597" cy="442.578" r="6.188" fx="387.597" fy="442.578" gradientTransform="matrix(2.06065 0 0 1.80835 -433.447 -360.186)" gradientUnits="userSpaceOnUse"/>
    <radialGradient xlink:href="#h" id="n" cx="387.597" cy="442.578" r="6.188" fx="387.597" fy="442.578" gradientTransform="matrix(2.06065 0 0 1.80835 -419.135 -360.186)" gradientUnits="userSpaceOnUse"/>
    <radialGradient xlink:href="#i" id="o" cx="387.597" cy="442.578" r="6.188" fx="387.597" fy="442.578" gradientTransform="matrix(2.06065 0 0 1.80835 -433.447 -345.882)" gradientUnits="userSpaceOnUse"/>
    <radialGradient xlink:href="#j" id="p" cx="387.597" cy="442.578" r="6.188" fx="387.597" fy="442.578" gradientTransform="matrix(2.06065 0 0 1.80835 -419.135 -345.882)" gradientUnits="userSpaceOnUse"/>
  </defs>
  <g stroke-width="3.584">
    <path fill="url(#m)" stroke="#c37e3b" stroke-linecap="round" stroke-linejoin="round" d="M360.734 435.623H375.046V449.935H360.734z" transform="matrix(-.27903 0 0 .27903 115.14 -120.007)"/>
    <path fill="url(#n)" stroke="#c37e3b" stroke-linecap="round" stroke-linejoin="round" d="M375.046 435.623H389.358V449.935H375.046z" transform="matrix(-.27903 0 0 .27903 115.14 -120.007)"/>
    <path fill="url(#o)" stroke="#a45d2b" stroke-linecap="round" stroke-linejoin="round" d="m 360.73376,449.79347 14.31204,0 0,14.44539 -14.31204,0 z" transform="matrix(-.27903 0 0 .27903 115.14 -120.007)"/>
    <path fill="url(#p)" stroke="#a45d2b" stroke-linecap="round" stroke-linejoin="round" d="m 375.0458,449.79347 14.31204,0 0,14.44539 -14.31204,0 z" transform="matrix(-.27903 0 0 .27903 115.14 -120.007)"/>
    <path fill="none" stroke="url(#q)" d="m 355.29543,449.88141 39.42185,0" transform="matrix(-.27903 0 0 .27903 115.14 -120.007)"/>
    <path fill="none" stroke="url(#r)" d="m 375.00635,430.17048 0,39.42185" transform="matrix(-.27903 0 0 .27903 115.14 -120.007)"/>
  </g>
  <g stroke-width="3.584">
    <path fill="url(#s)" stroke="#c37e3b" stroke-linecap="round" stroke-linejoin="round" d="M360.734 435.623H375.046V449.935H360.734z" transform="matrix(-.27903 0 0 .27903 110.128 -115.038)"/>
    <path fill="url(#t)" stroke="#c37e3b" stroke-linecap="round" stroke-linejoin="round" d="M375.046 435.623H389.358V449.935H375.046z" transform="matrix(-.27903 0 0 .27903 110.128 -115.038)"/>
    <path fill="url(#u)" stroke="#a45d2b" stroke-linecap="round" stroke-linejoin="round" d="m 360.73376,449.79347 14.31204,0 0,14.44539 -14.31204,0 z" transform="matrix(-.27903 0 0 .27903 110.128 -115.038)"/>
    <path fill="url(#v)" stroke="#a45d2b" stroke-linecap="round" stroke-linejoin="round" d="m 375.0458,449.79347 14.31204,0 0,14.44539 -14.31204,0 z" transform="matrix(-.27903 0 0 .27903 110.128 -115.038)"/>
    <path fill="none" stroke="url(#w)" d="m 355.29543,449.88141 39.42185,0" transform="matrix(-.27903 0 0 .27903 110.128 -115.038)"/>
    <path fill="none" stroke="url(#x)" d="m 375.00635,430.17048 0,39.42185" transform="matrix(-.27903 0 0 .27903 110.128 -115.038)"/>
  </g>
</svg>
