<svg xmlns="http://www.w3.org/2000/svg" xmlns:xlink="http://www.w3.org/1999/xlink" width="16" height="16">
  <defs>
    <linearGradient id="d">
      <stop offset="0" stop-color="#e0a010"/>
      <stop offset="1" stop-color="#c87810"/>
    </linearGradient>
    <linearGradient id="c">
      <stop offset="0" stop-color="#17477c"/>
      <stop offset="1" stop-color="#40a5da"/>
    </linearGradient>
    <linearGradient id="b">
      <stop offset="0" stop-color="#1b844b"/>
      <stop offset="1" stop-color="#299962"/>
    </linearGradient>
    <linearGradient id="a">
      <stop offset="0" stop-color="#c1723f"/>
      <stop offset="1" stop-color="#b04814"/>
    </linearGradient>
    <linearGradient id="e">
      <stop offset="0" stop-color="#e5b165"/>
      <stop offset=".5" stop-color="#f2d98c"/>
      <stop offset="1" stop-color="#ffffb2"/>
    </linearGradient>
    <linearGradient id="f">
      <stop offset="0" stop-color="#766059"/>
      <stop offset="1" stop-color="#766059"/>
    </linearGradient>
    <linearGradient xlink:href="#a" id="k" x1="6.664" x2="6.664" y1="1051.277" y2="1052.943" gradientTransform="matrix(.76203 0 0 .7127 -19.368 299.997)" gradientUnits="userSpaceOnUse"/>
    <linearGradient xlink:href="#b" id="l" x1="3.188" x2="3.188" y1="1048.362" y2="1046.362" gradientTransform="translate(-18)" gradientUnits="userSpaceOnUse"/>
    <linearGradient xlink:href="#c" id="m" x1="3.188" x2="3.188" y1="1048.362" y2="1046.362" gradientTransform="translate(-19 -2)" gradientUnits="userSpaceOnUse"/>
    <linearGradient xlink:href="#d" id="n" x1="929.286" x2="938.378" y1="473.219" y2="473.219" gradientTransform="translate(-8.253 15.996)" gradientUnits="userSpaceOnUse"/>
    <linearGradient xlink:href="#e" id="g" x1="31.544" x2="31.544" y1="11.384" y2="3.946" gradientTransform="matrix(1.2351 0 0 1.27346 -48.367 1033.567)" gradientUnits="userSpaceOnUse"/>
    <linearGradient xlink:href="#f" id="h" x1="35.169" x2="35.169" y1="11.447" y2="3.579" gradientTransform="matrix(1.2351 0 0 1.27346 -48.367 1033.567)" gradientUnits="userSpaceOnUse"/>
    <filter id="j" width="1.415" height="1.569" x="-.208" y="-.285">
      <feGaussianBlur stdDeviation=".961"/>
    </filter>
    <mask id="i" maskUnits="userSpaceOnUse">
      <path fill="#fff" stroke="#fff" stroke-width=".618" d="m -9.5,1037.7777 c -0.231547,2e-4 -0.4746,0.05 -0.811628,0.1163 l 0,1.0822 c -0.26404,0.052 -0.522056,0.089 -0.772979,0.1931 -0.240416,0.1027 -0.48042,0.2814 -0.695681,0.4252 l -0.772979,-0.7732 c -0.571592,0.3814 -0.738735,0.5498 -1.120819,1.1208 l 0.772979,0.773 c -0.149732,0.2236 -0.321189,0.4834 -0.425139,0.7344 -0.103702,0.2509 -0.14053,0.5089 -0.193244,0.7729 l -1.12082,0 c -0.134414,0.6739 -0.133709,0.9105 0,1.5846 l 1.12082,0 c 0.104692,0.5281 0.319548,1.0594 0.618383,1.5073 l -0.772979,0.7343 c 0.382078,0.5713 0.549225,0.7392 1.120819,1.1209 l 0.772979,-0.7344 c 0.447467,0.2994 0.940661,0.513 1.46866,0.6184 l 0,1.0822 c 0.674055,0.1337 0.949317,0.1344 1.623256,0 l 0,-1.0822 c 0.528085,-0.1051 1.02095,-0.3193 1.46866,-0.6184 l 0.772979,0.7344 c 0.571176,-0.3822 0.739316,-0.5493 1.120819,-1.1209 l -0.772979,-0.7343 c 0.299437,-0.4474 0.513063,-0.9795 0.618383,-1.5073 l 1.12082,0 c 0.133709,-0.6741 0.134414,-0.9107 0,-1.5846 l -1.12082,0 c -0.104741,-0.5282 -0.319294,-1.0596 -0.618383,-1.5073 l 0.772979,-0.773 c -0.190545,-0.2861 -0.300058,-0.4932 -0.463787,-0.657 -0.16381,-0.1636 -0.370988,-0.2732 -0.657032,-0.4638 l -0.772979,0.773 c -0.447473,-0.2994 -0.940593,-0.5133 -1.46866,-0.6184 l 0,-1.0822 c -0.336969,-0.067 -0.580081,-0.1162 -0.811628,-0.1162 z m 0,4.0968 c 0.619011,0 1.120819,0.5018 1.120819,1.1209 0,0.619 -0.501808,1.1208 -1.120819,1.1208 -0.619011,0 -1.120819,-0.5018 -1.120819,-1.1208 0,-0.6191 0.501808,-1.1209 1.120819,-1.1209 z" transform="translate(.217 -1.063)"/>
    </mask>
  </defs>
  <path fill="url(#g)" stroke="url(#h)" stroke-width="1.034" d="m -9.5,1037.785 c -0.2312367,2e-4 -0.473964,0.051 -0.81054,0.1198 l 0,1.1143 c -0.263687,0.053 -0.521357,0.092 -0.771944,0.1988 -0.240093,0.1057 -0.479776,0.2897 -0.694748,0.4378 l -0.771943,-0.7961 c -0.570827,0.3927 -0.737746,0.5661 -1.119318,1.154 l 0.771944,0.796 c -0.149532,0.2302 -0.320759,0.4977 -0.42457,0.7561 -0.103563,0.2584 -0.140341,0.1341 -0.192985,0.406 l -1.119318,0 c -0.134234,0.6939 -0.13353,1.3274 0,2.0215 l 1.119318,0 c 0.104552,0.5438 0.31912,1.0908 0.617555,1.552 l -0.771944,0.7561 c 0.381566,0.5882 0.548489,0.7611 1.119318,1.1542 l 0.771943,-0.7562 c 0.446867,0.3082 0.9394,0.5282 1.466692,0.6367 l 0,1.1143 c 0.6731514,0.1377 0.9480445,0.1384 1.6210804,0 l 0,-1.1143 c 0.5273773,-0.1082 1.0195819,-0.3288 1.4666919,-0.6367 l 0.7719432,0.7562 c 0.5704106,-0.3936 0.7383253,-0.5656 1.119317,-1.1542 l -0.7719431,-0.7561 c 0.2990357,-0.4607 0.5123754,-1.0085 0.6175543,-1.552 l 1.119318,0 c 0.1335299,-0.6941 0.1342339,-1.2951 0,-1.989 l -1.119318,0 c -0.1046007,-0.5439 -0.3188661,-0.7337 -0.6175543,-1.1946 l 0.7719431,-0.796 c -0.1902896,-0.2946 -0.2996559,-0.5078 -0.4631655,-0.6765 -0.1635905,-0.1684 -0.3704908,-0.2813 -0.6561515,-0.4775 l -0.7719432,0.7959 c -0.4468734,-0.3083 -0.9393326,-0.5285 -1.4666919,-0.6367 l 0,-1.1144 c -0.3365175,-0.069 -0.5793037,-0.1196 -0.8105404,-0.1196 z m 0,4.2184 c 0.6181815,0 1.119317,0.5166 1.119317,1.1541 0,0.6374 -0.5011355,1.1541 -1.119317,1.1541 -0.618181,0 -1.119317,-0.5167 -1.119317,-1.1541 0,-0.6375 0.501136,-1.1541 1.119317,-1.1541 z" transform="matrix(1 0 0 .96182 19.786 -997.667)"/>
  <g mask="url(#i)" transform="translate(19.312 -1036.05)">
    <g fill="#fff" stroke="#fff" stroke-width="2" filter="url(#j)">
      <path d="M-18.29 1048.853H-11.285V1050.869H-18.29zM-17.813 1046.362H-11.813V1048.362H-17.813zM-18.813 1044.362H-12.813V1046.362H-18.813z"/>
      <path d="M921.477 488.327H929.681V490.103H921.477z" transform="rotate(62.709)"/>
    </g>
  </g>
  <path fill="#d38a4b" stroke="url(#k)" d="M-18.29 1048.853H-11.285V1050.869H-18.29z" transform="translate(19.812 -1036.362)"/>
  <path fill="url(#l)" d="M-17.813 1046.362H-11.813V1048.362H-17.813z" transform="translate(19.812 -1036.362)"/>
  <path fill="url(#m)" d="M-18.813 1044.362H-12.813V1046.362H-18.813z" transform="translate(19.812 -1036.362)"/>
  <path fill="#e89b16" stroke="url(#n)" stroke-width=".888" d="M921.477 488.327H929.681V490.103H921.477z" transform="rotate(62.709 860.345 -501.923)"/>
</svg>
