<svg xmlns="http://www.w3.org/2000/svg" xmlns:xlink="http://www.w3.org/1999/xlink" width="16" height="16">
  <defs>
    <linearGradient id="b">
      <stop offset="0" stop-color="#6994ad"/>
      <stop offset="1" stop-color="#095a98"/>
    </linearGradient>
    <linearGradient xlink:href="#a" id="c" x1="11.718" x2="11.718" y1="1047.274" y2="1043.119" gradientTransform="translate(19.912)" gradientUnits="userSpaceOnUse"/>
    <linearGradient id="a">
      <stop offset="0" stop-color="#c1ebca"/>
      <stop offset=".267" stop-color="#b3dac7"/>
      <stop offset=".517" stop-color="#9ec2c3"/>
      <stop offset="1" stop-color="#7a99bb"/>
    </linearGradient>
    <linearGradient xlink:href="#b" id="d" x1="11.418" x2="11.418" y1="1067.173" y2="1063.019" gradientTransform="translate(19.912 -20)" gradientUnits="userSpaceOnUse"/>
  </defs>
  <path fill="#fff" fill-opacity=".939" d="m 29.161612,1039.4348 0,1.7031 -3.354854,0.031 -1,0 c -0.99185,0.9918 -0.986324,5.0037 0,5.99 l 1,0 3.354854,0 0,1.5313 c 0,0.6519 1.772165,0.7 2.53125,0.062 l 5.423255,-4.6233 -4.923255,-4.4135 c -0.760225,-0.7602 -3.03125,-0.8016 -3.03125,-0.281 z m 1.03125,1.4062 5.485755,3.2886 -5.298255,3.7796 -0.21875,-1.7501 -3.636104,0 c -0.276214,-0.2099 -0.388381,-3.9867 0,-3.99 l 3.636104,-0.031 z" transform="matrix(1 0 0 -1 -22.12 1052.206)"/>
  <path fill="url(#c)" d="m 26.071923,1043.9275 0,2.3878 5.089689,0 0,1.5313 3.781143,-2.432 -3.781143,-3.0027 0,1.5156 z" transform="matrix(1 0 0 -1 -22.12 1053.362)"/>
  <path fill="url(#d)" d="m 30.161612,1041.8097 0,1.5156 -3.354854,0 -1,0 c -0.99185,0.9918 -0.986324,3.0037 0,3.99 l 1,0 3.354854,0 0,1.5313 c 0,0.6519 0.740915,0.6375 1.5,0 l 3.923255,-3.4983 -3.923255,-3.5386 c -0.760225,-0.7602 -1.5,-0.5203 -1.5,0 z m 1,1 2.985755,2.5386 -2.985755,2.4983 0,-1.5313 -4.792354,0 c -0.276214,-0.2099 -0.277444,-1.7182 0,-1.99 l 4.792354,0 z" transform="matrix(1 0 0 -1 -22.12 1053.362)"/>
</svg>
