<svg xmlns="http://www.w3.org/2000/svg" xmlns:xlink="http://www.w3.org/1999/xlink" width="16" height="16">
  <defs>
    <linearGradient xlink:href="#a" id="m" x1="6.389" x2="6.389" y1="7.237" y2=".393" gradientUnits="userSpaceOnUse"/>
    <linearGradient xlink:href="#b" id="l" x1="3.383" x2="3.383" y1="7.016" y2=".982" gradientUnits="userSpaceOnUse"/>
    <linearGradient id="b">
      <stop offset="0" stop-color="#ffe296"/>
      <stop offset=".5" stop-color="#f8d880"/>
      <stop offset="1" stop-color="#fffcd3"/>
    </linearGradient>
    <linearGradient id="a">
      <stop offset="0" stop-color="#c6852e"/>
      <stop offset="1" stop-color="#e1a555"/>
    </linearGradient>
    <linearGradient xlink:href="#c" id="k" x1="26.385" x2="28.899" y1="1047.351" y2="1051.042" gradientTransform="translate(-21.875)" gradientUnits="userSpaceOnUse"/>
    <linearGradient xlink:href="#d" id="j" x1="27.74" x2="28.339" y1="1048.96" y2="1050.113" gradientTransform="translate(-21.875)" gradientUnits="userSpaceOnUse"/>
    <linearGradient xlink:href="#e" id="i" x1="3.29" x2="3.29" y1="1038.393" y2="1046.9" gradientTransform="translate(-1.875)" gradientUnits="userSpaceOnUse"/>
    <linearGradient id="c">
      <stop offset="0" stop-color="#9eacbc"/>
      <stop offset="1" stop-color="#667480"/>
    </linearGradient>
    <linearGradient id="d">
      <stop offset="0" stop-color="#fff"/>
      <stop offset="1" stop-color="#abb6c2"/>
    </linearGradient>
    <linearGradient id="f">
      <stop offset="0" stop-color="#fff"/>
      <stop offset=".383" stop-color="#fdfbeb"/>
      <stop offset=".595" stop-color="#f8eb99"/>
      <stop offset="1" stop-color="#ffe4b1"/>
    </linearGradient>
    <linearGradient id="e">
      <stop offset="0" stop-color="#e9a328"/>
      <stop offset="1" stop-color="#f9c537"/>
    </linearGradient>
    <radialGradient xlink:href="#f" id="h" cx="28.688" cy="1046.294" r="4.5" fx="28.688" fy="1046.294" gradientTransform="matrix(1.43122 0 0 1.90646 -34.246 -947.65)" gradientUnits="userSpaceOnUse"/>
    <filter id="g" width="1.481" height="1.479" x="-.24" y="-.24">
      <feGaussianBlur stdDeviation=".662"/>
    </filter>
  </defs>
  <path fill="#fff" fill-rule="evenodd" d="m 0.8396893,1040.9159 c 0,-0.221 0.751301,-2.0329 1.3258252,-2.4307 0.5745243,-0.3977 2.1655145,-0.9722 2.5632621,-1.0164 0.3977476,-0.044 2.2097087,-0.3094 2.6958446,0.088 0.4861359,0.3977 1.767767,1.5909 2.032932,2.3422 0.265165,0.7513 0.4861359,1.5468 0.4861359,1.5468 0,0 1.0606599,-0.3535 1.5467959,0.088 0.486136,0.442 3.447146,5.3033 3.49134,6.0104 0.04419,0.7071 -0.08839,2.8727 -0.574524,3.1378 -0.486136,0.2652 -1.37002,0.7955 -1.767767,0.7955 -0.397748,0 -4.5520002,0.1768 -4.9497478,-0.044 -0.3977475,-0.2209 -1.1048543,-0.9722 -1.1048543,-0.9722 0,0 -2.298097,0.3977 -2.6958446,0 -0.3977476,-0.3978 -1.5026019,-1.2817 -1.5467961,-1.6352 -0.044194,-0.3536 -0.044194,-2.3865 -0.044194,-2.3865 0,0 0.044194,-0.7513 0,-1.1049 -0.044194,-0.3535 -1.1048543,-1.6352 -1.2374368,-2.3865 -0.13258255,-0.7513 -0.2209709,-2.0329 -0.2209709,-2.0329 z" transform="translate(0 -1036.362)"/>
  <g stroke-linecap="round" stroke-linejoin="round">
    <path fill="none" stroke="#edaa2b" stroke-width=".826" d="m 5.5022998,1038.5281 c -1.8240601,0 -3.3055556,1.4814 -3.3055556,3.3055 0,2.1067 1.6593104,1.1418 1.6786025,3.3314 l 3.2539062,0 c 0,-2.089 1.6786025,-1.1771 1.6786025,-3.3314 0,-1.8241 -1.4814955,-3.3055 -3.3055556,-3.3055 z" filter="url(#g)" transform="translate(-.512 -1036.323)"/>
    <path fill="url(#h)" stroke="url(#i)" stroke-width="1.321" d="m 6.625,1037.8622 c -2.207266,0 -4,1.7927 -4,4 0,2.5493 2.007905,3.3816 2.03125,6.0313 l 3.9375,0 c 0,-2.5279 2.03125,-3.4244 2.03125,-6.0313 0,-2.2073 -1.792734,-4 -4,-4 z" transform="matrix(.77997 0 0 .73483 .416 -760.267)"/>
    <path fill="#4a607a" stroke="#4a607a" d="M5.594 1048.425H7.625V1051.863H5.594z" transform="matrix(.77997 0 0 .73483 .416 -760.267)"/>
    <path fill="url(#j)" stroke="url(#k)" stroke-width="1.321" d="M4.656 1047.862H8.594V1050.862H4.656z" transform="matrix(.77997 0 0 .73483 .416 -760.267)"/>
  </g>
  <path fill="url(#l)" stroke="url(#m)" d="M 2.8125,0.90625 0.78125,5 C 0.17522066,6.0251238 0.58843406,7.4816983 1.71875,7.5 L 3,7.5 l 1,0 1.28125,0 C 6.4115665,7.4817738 6.8247794,6.0250615 6.21875,5 L 4.1875,0.90625 c -0.2942923,-0.55673837 -1.1188077,-0.46727236 -1.375,0 z" transform="matrix(.99947 0 0 .99947 7.02 5.993)"/>
  <path fill="#502800" d="m 4.109375,5.484375 a 0.625,0.625 0 0 1 -0.625,0.625 0.625,0.625 0 0 1 -0.625,-0.625 0.625,0.625 0 0 1 0.625,-0.625 0.625,0.625 0 0 1 0.625,0.625 z" transform="translate(6.853 5.894) scale(1.05182)"/>
  <path fill="#502800" d="m 19.350026,1045.5028 c -0.378471,0 -0.700512,0.3368 -0.700512,0.774 l 0.09137,1.4889 c 0,0.3887 0.272722,0.7037 0.609141,0.7037 0.336419,0 0.609139,-0.315 0.609139,-0.7037 l 0.06091,-1.4889 c 0,-0.4372 -0.291583,-0.774 -0.670056,-0.774 z" transform="translate(-7.544 -968.805) scale(.93418)"/>
</svg>
