<svg xmlns="http://www.w3.org/2000/svg" xmlns:xlink="http://www.w3.org/1999/xlink" width="16" height="16">
  <defs>
    <linearGradient xlink:href="#a" id="f" x1="10.545" x2="10.545" y1="1038.578" y2="1052.323" gradientTransform="translate(-1.978 -1.044)" gradientUnits="userSpaceOnUse"/>
    <linearGradient id="a">
      <stop offset="0" stop-color="#b28a30"/>
      <stop offset="1" stop-color="#7c703e"/>
    </linearGradient>
    <linearGradient xlink:href="#b" id="e" x1="7.999" x2="9.987" y1="1042.231" y2="1040.33" gradientTransform="translate(2.022 -1.044)" gradientUnits="userSpaceOnUse"/>
    <linearGradient id="b">
      <stop offset="0" stop-color="#e0c88f"/>
      <stop offset="1" stop-color="#d5b269"/>
    </linearGradient>
    <linearGradient id="c">
      <stop offset="0" stop-color="#f9fafc"/>
      <stop offset="1" stop-color="#dce7f7"/>
    </linearGradient>
    <linearGradient xlink:href="#c" id="d" x1="9.895" x2="9.895" y1="1039.153" y2="1051.838" gradientTransform="translate(-1.978 -1.044)" gradientUnits="userSpaceOnUse"/>
  </defs>
  <path fill="url(#d)" d="m 3.5193795,1037.8597 7.0096695,0 3.062057,3.0066 0,9.9546 -10.0717265,0 z" transform="translate(0 -1036.362)"/>
  <path fill="url(#e)" d="m 9.998718,1037.397 0,3.9112 3.977478,0 z" transform="translate(0 -1036.362)"/>
  <path fill="none" stroke="url(#f)" d="m 3.5193795,1037.8597 7.0096695,0 3.062057,3.0066 0,9.9546 -10.0717265,0 z" transform="translate(0 -1036.362)"/>
  <path fill="#607ead" d="M9 1042.362H12V1043.362H9z" transform="translate(0 -1036.362)"/>
  <path fill="#5c7aaa" d="M6 1044.362H7V1047.362H6z" transform="translate(0 -1036.362)"/>
  <path fill="#5c7aaa" d="M6 1046.362H9V1047.362H6zM9 1045.362H12V1048.362H9zM5 1041.362H8V1044.362H5z" transform="translate(0 -1036.362)"/>
  <path fill="#91a5c7" d="M10 1046.362H11V1047.362H10zM6 1042.362H7V1043.362H6z" transform="translate(0 -1036.362)"/>
</svg>
