<svg xmlns="http://www.w3.org/2000/svg" xmlns:xlink="http://www.w3.org/1999/xlink" width="16" height="16">
  <defs>
    <linearGradient id="b">
      <stop offset="0" stop-color="#c7e3e7"/>
      <stop offset="1" stop-color="#fff"/>
    </linearGradient>
    <linearGradient id="a">
      <stop offset="0" stop-color="#7e707a"/>
      <stop offset="1" stop-color="#8a5e8d"/>
    </linearGradient>
    <linearGradient xlink:href="#a" id="h" x1="7.38" x2=".044" y1="2.742" y2="2.786" gradientTransform="matrix(1.05 0 0 1 2.32 1037.264)" gradientUnits="userSpaceOnUse"/>
    <linearGradient xlink:href="#b" id="e" x1="5.115" x2="12.52" y1="1044.737" y2="1044.737" gradientUnits="userSpaceOnUse"/>
    <linearGradient id="c">
      <stop offset="0" stop-color="#daedef"/>
      <stop offset="1" stop-color="#fff"/>
    </linearGradient>
    <linearGradient id="d">
      <stop offset="0" stop-color="#a6bacf"/>
      <stop offset="1" stop-color="#798da2"/>
    </linearGradient>
    <linearGradient xlink:href="#c" id="f" x1="5.115" x2="12.52" y1="1044.737" y2="1044.737" gradientTransform="matrix(1.047 0 0 1.01887 1.914 -19.252)" gradientUnits="userSpaceOnUse"/>
    <linearGradient xlink:href="#d" id="g" x1="5.115" x2="6" y1="1047.612" y2="1047.612" gradientTransform="matrix(1.047 0 0 1.01887 1.914 -22.404)" gradientUnits="userSpaceOnUse"/>
  </defs>
  <rect width="6.785" height="7.675" x="7.753" y="1041.36" fill="url(#f)" stroke="url(#g)" stroke-width=".639" color="#000" overflow="visible" ry="0" style="marker:none" transform="matrix(1.6291 0 0 1.68377 -11.137 -1751.828)"/>
  <path fill="#fef17a" stroke="#c89840" stroke-width="1.421" d="M1.709 1038.089H12.318V1040.944H1.709z" color="#000" opacity=".773" overflow="visible" style="marker:none" transform="translate(0 -1036.362)"/>
  <path fill="url(#h)" d="M2.831 1039.653H10.256V1040.448H2.831z" color="#000" overflow="visible" style="marker:none" transform="translate(0 -1036.362)"/>
  <g stroke="#fff" stroke-width="2.06" font-family="Liberation Mono" font-size="7.902" font-weight="400" letter-spacing="0" style="line-height:125%" word-spacing="0">
    <path d="M8.511 1049.341c0 .219-.04.421-.12.606-.08.183-.202.341-.367.475-.162.134-.369.238-.621.313-.25.075-.547.112-.891.112-.602 0-1.071-.118-1.408-.355-.334-.237-.548-.579-.641-1.026l.714-.143c.031.142.077.27.139.386.062.116.147.216.255.301.108.082.241.147.397.193.157.046.345.07.563.07.185 0 .354-.017.505-.05.154-.036.286-.091.394-.166.111-.075.197-.17.259-.285.062-.116.093-.255.093-.417 0-.18-.042-.327-.127-.44-.082-.113-.192-.206-.328-.278-.136-.072-.291-.13-.463-.174-.17-.046-.342-.091-.517-.135-.129-.034-.259-.068-.39-.104-.131-.039-.257-.082-.378-.131-.121-.052-.234-.111-.34-.177-.103-.07-.194-.152-.274-.247-.077-.098-.138-.211-.181-.339-.044-.131-.066-.283-.066-.455 0-.247.046-.458.139-.633.093-.177.22-.322.382-.432.162-.113.354-.195.575-.247.221-.051.46-.077.718-.077.298 0 .552.027.76.081.211.051.388.13.532.235.147.106.264.237.351.394.087.154.157.334.208.54l-.725.127c-.028-.131-.071-.248-.127-.351-.054-.103-.127-.189-.22-.259-.09-.069-.199-.122-.328-.158-.129-.036-.28-.054-.455-.054-.206 0-.378.022-.517.066-.139.041-.251.099-.336.174-.085.072-.147.158-.185.259-.036.1-.054.208-.054.324 0 .154.033.28.1.378.069.095.162.175.278.239.118.062.255.113.409.154.157.041.324.085.502.131.141.036.284.075.428.116.144.039.282.085.413.139.134.054.257.118.37.193.116.072.216.161.301.266.085.105.152.229.201.37.049.142.073.306.073.494M12.825 1050.768l-.803 0-.401-1.493c-.013-.049-.028-.107-.046-.174-.018-.067-.037-.138-.058-.212-.018-.077-.037-.156-.058-.235-.018-.082-.036-.162-.054-.239-.044-.18-.087-.368-.131-.563-.046.198-.091.387-.135.567-.018.077-.037.157-.058.239-.018.08-.037.158-.058.235-.018.075-.036.145-.054.212-.018.064-.033.121-.046.17l-.409 1.493-.803 0-.814-5.205.729 0 .421 3.222c.021.167.037.331.05.49.015.16.03.302.042.428.013.147.024.286.035.417.041-.177.082-.352.123-.525.018-.075.036-.15.054-.228.018-.08.036-.158.054-.235.021-.077.04-.15.058-.22.018-.072.035-.138.05-.197l.421-1.54.675 0 .421 1.54c.015.057.032.121.05.193.018.072.036.147.054.224.021.075.04.152.058.232.018.077.036.153.054.228.041.172.082.349.123.529.003 0 .008-.044.015-.131.008-.087.018-.197.031-.328.013-.131.027-.275.042-.432.015-.157.031-.305.046-.444l.401-3.222.729 0-.81 5.205M16.371 1046.165l0 4.603-.733 0 0-4.603-1.709 0 0-.602 4.152 0 0 .602-1.709 0" style="-inkscape-font-specification:Liberation Mono" transform="matrix(.97157 0 0 .96985 -1.314 -1006.022)"/>
  </g>
  <path fill="#fff" d="M5 8H14V14.031H5z"/>
  <g font-family="Liberation Mono" font-size="7.902" font-weight="400" letter-spacing="0" style="line-height:125%" word-spacing="0">
    <path d="M8.511 1049.341c0 .219-.04.421-.12.606-.08.183-.202.341-.367.475-.162.134-.369.238-.621.313-.25.075-.547.112-.891.112-.602 0-1.071-.118-1.408-.355-.334-.237-.548-.579-.641-1.026l.714-.143c.031.142.077.27.139.386.062.116.147.216.255.301.108.082.241.147.397.193.157.046.345.07.563.07.185 0 .354-.017.505-.05.154-.036.286-.091.394-.166.111-.075.197-.17.259-.285.062-.116.093-.255.093-.417 0-.18-.042-.327-.127-.44-.082-.113-.192-.206-.328-.278-.136-.072-.291-.13-.463-.174-.17-.046-.342-.091-.517-.135-.129-.034-.259-.068-.39-.104-.131-.039-.257-.082-.378-.131-.121-.052-.234-.111-.34-.177-.103-.07-.194-.152-.274-.247-.077-.098-.138-.211-.181-.339-.044-.131-.066-.283-.066-.455 0-.247.046-.458.139-.633.093-.177.22-.322.382-.432.162-.113.354-.195.575-.247.221-.051.46-.077.718-.077.298 0 .552.027.76.081.211.051.388.13.532.235.147.106.264.237.351.394.087.154.157.334.208.54l-.725.127c-.028-.131-.071-.248-.127-.351-.054-.103-.127-.189-.22-.259-.09-.069-.199-.122-.328-.158-.129-.036-.28-.054-.455-.054-.206 0-.378.022-.517.066-.139.041-.251.099-.336.174-.085.072-.147.158-.185.259-.036.1-.054.208-.054.324 0 .154.033.28.1.378.069.095.162.175.278.239.118.062.255.113.409.154.157.041.324.085.502.131.141.036.284.075.428.116.144.039.282.085.413.139.134.054.257.118.37.193.116.072.216.161.301.266.085.105.152.229.201.37.049.142.073.306.073.494M12.825 1050.768l-.803 0-.401-1.493c-.013-.049-.028-.107-.046-.174-.018-.067-.037-.138-.058-.212-.018-.077-.037-.156-.058-.235-.018-.082-.036-.162-.054-.239-.044-.18-.087-.368-.131-.563-.046.198-.091.387-.135.567-.018.077-.037.157-.058.239-.018.08-.037.158-.058.235-.018.075-.036.145-.054.212-.018.064-.033.121-.046.17l-.409 1.493-.803 0-.814-5.205.729 0 .421 3.222c.021.167.037.331.05.49.015.16.03.302.042.428.013.147.024.286.035.417.041-.177.082-.352.123-.525.018-.075.036-.15.054-.228.018-.08.036-.158.054-.235.021-.077.04-.15.058-.22.018-.072.035-.138.05-.197l.421-1.54.675 0 .421 1.54c.015.057.032.121.05.193.018.072.036.147.054.224.021.075.04.152.058.232.018.077.036.153.054.228.041.172.082.349.123.529.003 0 .008-.044.015-.131.008-.087.018-.197.031-.328.013-.131.027-.275.042-.432.015-.157.031-.305.046-.444l.401-3.222.729 0-.81 5.205M16.371 1046.165l0 4.603-.733 0 0-4.603-1.709 0 0-.602 4.152 0 0 .602-1.709 0" style="-inkscape-font-specification:Liberation Mono" transform="matrix(.97157 0 0 .96985 -1.314 -1006.022)"/>
  </g>
</svg>
