<svg xmlns="http://www.w3.org/2000/svg" xmlns:xlink="http://www.w3.org/1999/xlink" width="16" height="16">
  <defs>
    <linearGradient id="b">
      <stop offset="0" stop-color="#6f7684"/>
      <stop offset="1" stop-color="#9a9b9c"/>
    </linearGradient>
    <linearGradient id="a">
      <stop offset="0" stop-color="#909192"/>
      <stop offset=".802" stop-color="#cbcbcb"/>
      <stop offset="1" stop-color="#90bdd6"/>
    </linearGradient>
    <linearGradient xlink:href="#a" id="c" x1="4.689" x2="5.539" y1="7.073" y2="1.078" gradientTransform="matrix(.925 0 0 .925 -10.616 1043.67)" gradientUnits="userSpaceOnUse"/>
    <linearGradient xlink:href="#b" id="d" x1="5.389" x2="5.539" y1="7.94" y2="1.078" gradientTransform="matrix(.925 0 0 .925 -10.616 1043.67)" gradientUnits="userSpaceOnUse"/>
  </defs>
  <g transform="translate(0 -1036.362)">
    <circle cx="-5.5" cy="1047.862" r="2.92" fill="url(#c)" stroke="url(#d)" stroke-width="1.161" transform="scale(-1 1)"/>
    <text xml:space="preserve" x="-11" y="1052.362" font-family="sans-serif" font-weight="400" letter-spacing="0" style="line-height:0%" word-spacing="0"><tspan x="-11" y="1052.362" font-size="11.25" style="line-height:1.25"> </tspan></text>
    <path fill="none" stroke="#c7022d" d="m 10.500044,1042.3622 0.0022,0.555 c 0.0028,0.6989 0.508808,0.945 0.990403,0.945 l 0.962316,0 c 0.493043,0 1.045037,-0.5071 1.045037,-1 l 0,-1 c 0,-0.4295 -0.453458,-1 -0.948529,-1 l -1.047794,0 c -0.473132,0 -1.003677,-0.5401 -1.003677,-1 l 0,-1 c 0,-0.4333 0.524705,-1 0.992647,-1 l 0.992647,0 c 0.737349,0 1.014706,0.8878 1.014706,1.0603 l 0,0.4397"/>
  </g>
</svg>
