<svg xmlns="http://www.w3.org/2000/svg" xmlns:xlink="http://www.w3.org/1999/xlink" width="16" height="16">
  <defs>
    <linearGradient id="a">
      <stop offset="0" stop-color="#fa9091"/>
      <stop offset="1" stop-color="#bd1926"/>
    </linearGradient>
    <linearGradient xlink:href="#a" id="b" x1="11.826" x2="15.933" y1="1050.147" y2="1054.27" gradientUnits="userSpaceOnUse"/>
    <linearGradient xlink:href="#a" id="c" x1="11.826" x2="15.933" y1="1050.147" y2="1054.27" gradientTransform="translate(-6.844)" gradientUnits="userSpaceOnUse"/>
    <linearGradient xlink:href="#a" id="d" x1="11.826" x2="15.933" y1="1050.147" y2="1054.27" gradientTransform="translate(-13.688)" gradientUnits="userSpaceOnUse"/>
    <linearGradient xlink:href="#a" id="e" x1="11.826" x2="15.933" y1="1050.147" y2="1054.27" gradientTransform="translate(-13.688 -6.873)" gradientUnits="userSpaceOnUse"/>
  </defs>
  <path fill="#21844f" d="m 5.7116068,1103.4245 c -0.1425329,0.013 -0.2511294,0.069 -0.3257895,0.1647 -0.07466,0.096 -0.1123775,0.1957 -0.1119901,0.2986 l 0.021072,5.5974 c 0.013954,3.7067 -1.4512517,5.6713 -5.43113168,5.6713 -1.80177982,-0.1182 -2.48028302,-0.9148 -3.02345352,-2.0718 l -0.017128,-3.1277 1.4002613,0 c 0.3486131,1.6875 -0.1943701,3.9201 1.72678076,3.9215 2.28718454,0 2.48512424,-2.6479 2.47924504,-4.2498 l -0.021072,-5.7416 c -3.777e-4,-0.1029 -0.03733,-0.2024 -0.1119902,-0.2986 -0.067873,-0.096 -0.1764693,-0.1509 -0.3257894,-0.1647 l -2.26158131,-0.023 0.0210721,-1.24 8.33836871,-0.039 -0.021072,1.24 -2.3358024,0.062 z" font-family="Abyssinica SIL" font-size="20.851" font-weight="400" letter-spacing="0" style="line-height:125%" transform="matrix(.7122 0 0 .76604 4.263 -841.255)" word-spacing="0"/>
  <g fill="#d8424f" font-family="sans-serif" font-size="13.307" font-weight="400" letter-spacing="0" style="line-height:125%" word-spacing="0">
    <path d="m 14.493918,1045.3113 c -0.0953,0.01 -0.166775,0.043 -0.214425,0.104 -0.04332,0.061 -0.06498,0.1235 -0.06498,0.1884 l 0,4.3866 c 0,2.119 -1.076061,3.1454 -3.002754,3.1906 -2.6733245,0.063 -3.5791128,-1.1761 -3.9394497,-3.1906 l 0,-4.3079 c 0,-0.065 -0.023825,-0.1275 -0.071475,-0.1884 -0.043318,-0.061 -0.112627,-0.095 -0.2079271,-0.104 l -1.0817934,-0.032 0,-1.3192 4.6249862,0 0,1.3192 -0.760234,0.052 c -0.0953,0.01 -0.1667748,0.043 -0.2144248,0.104 -0.043318,0.061 -0.064977,0.1235 -0.064977,0.1884 l 0,3.9635 c 4.416e-4,1.5084 0.2961724,2.3273 1.7821368,2.2317 1.348299,-0.087 1.595847,-1.1413 1.595847,-2.2317 l 0,-4.0422 c 0,-0.065 -0.02599,-0.1275 -0.07797,-0.1884 -0.04765,-0.061 -0.119128,-0.095 -0.214425,-0.104 l -1.154527,-0.013 0,-1.2405 4.130158,-0.039 0,1.2405 z" font-family="Abyssinica SIL" style="-inkscape-font-specification:&quot;Abyssinica SIL&quot;" transform="matrix(.72565 0 0 .76566 4.71 -793.382)"/>
  </g>
  <path fill="url(#b)" d="M10.458 1048.772H17.302V1055.645H10.458z" transform="matrix(.73056 0 0 .7275 3.36 -752.985)"/>
  <path fill="url(#c)" d="M3.614 1048.772H10.458V1055.645H3.614z" transform="matrix(.73056 0 0 .7275 3.36 -752.985)"/>
  <path fill="url(#d)" d="M-3.23 1048.772H3.614V1055.645H-3.23z" transform="matrix(.73056 0 0 .7275 3.36 -752.985)"/>
  <path fill="url(#e)" d="M-3.23 1041.899H3.614V1048.772H-3.23z" transform="matrix(.73056 0 0 .7275 3.36 -752.985)"/>
</svg>
