<svg xmlns="http://www.w3.org/2000/svg" xmlns:xlink="http://www.w3.org/1999/xlink" width="16" height="16">
  <defs>
    <linearGradient id="c">
      <stop offset="0" stop-color="#f5f7e9"/>
      <stop offset="1" stop-color="#e2eaef"/>
    </linearGradient>
    <linearGradient id="b">
      <stop offset="0" stop-color="#788cab"/>
      <stop offset="1" stop-color="#8092b2"/>
    </linearGradient>
    <linearGradient id="a">
      <stop offset="0" stop-color="#224367"/>
      <stop offset="1" stop-color="#c0c7d3"/>
    </linearGradient>
    <linearGradient xlink:href="#a" id="g" x1="18.22" x2="12.22" y1="1058.267" y2="1064.267" gradientUnits="userSpaceOnUse"/>
    <linearGradient xlink:href="#b" id="i" x1="18.22" x2="12.22" y1="1058.267" y2="1064.267" gradientTransform="matrix(.8 0 0 .8 3.544 211.752)" gradientUnits="userSpaceOnUse"/>
    <linearGradient xlink:href="#c" id="h" x1="20.22" x2="20.22" y1="1055.267" y2="1062.267" gradientUnits="userSpaceOnUse"/>
    <linearGradient xlink:href="#a" id="d" x1="18.22" x2="12.22" y1="1058.267" y2="1064.267" gradientTransform="translate(-3 -3)" gradientUnits="userSpaceOnUse"/>
    <linearGradient xlink:href="#c" id="e" x1="20.22" x2="20.22" y1="1055.267" y2="1062.267" gradientTransform="translate(-3 -3)" gradientUnits="userSpaceOnUse"/>
    <linearGradient xlink:href="#b" id="f" x1="18.22" x2="12.22" y1="1058.267" y2="1064.267" gradientTransform="matrix(.8 0 0 .8 .544 208.753)" gradientUnits="userSpaceOnUse"/>
  </defs>
  <path fill="none" stroke="url(#d)" stroke-linecap="square" d="M9.72 1050.767H19.72V1060.767H9.72z" transform="translate(-8.22 -1049.267)"/>
  <path fill="url(#e)" stroke="url(#f)" stroke-linecap="square" d="M10.72 1051.767H18.72V1059.767H10.72z" transform="translate(-8.22 -1049.267)"/>
  <path fill="none" stroke="url(#g)" stroke-linecap="square" d="M12.72 1053.767H22.72V1063.767H12.72z" transform="translate(-8.22 -1049.267)"/>
  <path fill="url(#h)" stroke="url(#i)" stroke-linecap="square" d="M13.72 1054.767H21.72V1062.767H13.72z" transform="translate(-8.22 -1049.267)"/>
  <path fill="none" stroke="#103058" d="m 13.573672,1062.9133 6.292894,-6.2928" transform="translate(-8.22 -1049.267)"/>
  <path fill="#103058" fill-rule="evenodd" stroke="#103058" d="m 19.720116,1056.767 0,3.3062 -3.362675,-3.3053 z" transform="translate(-8.22 -1049.267)"/>
</svg>
