<svg xmlns="http://www.w3.org/2000/svg" xmlns:xlink="http://www.w3.org/1999/xlink" width="16" height="16">
  <defs>
    <linearGradient id="b">
      <stop offset="0" stop-color="#4ba7be"/>
      <stop offset="1" stop-color="#1b73a2"/>
    </linearGradient>
    <linearGradient id="c">
      <stop offset="0" stop-color="#fafdff"/>
      <stop offset="1" stop-color="#d1e1ea"/>
    </linearGradient>
    <linearGradient id="a">
      <stop offset="0" stop-color="#6a9ac2"/>
      <stop offset="1" stop-color="#1c65a2"/>
    </linearGradient>
    <linearGradient xlink:href="#a" id="i" x1="742.069" x2="749.087" y1="746.239" y2="753.257" gradientTransform="matrix(.9717 0 0 .9717 36.662 15.806)" gradientUnits="userSpaceOnUse"/>
    <linearGradient xlink:href="#b" id="g" x1="744.959" x2="747.756" y1="750.275" y2="750.273" gradientTransform="matrix(-1.31608 0 0 -1.33533 996.14 2066.317)" gradientUnits="userSpaceOnUse"/>
    <linearGradient xlink:href="#c" id="h" x1="744.959" x2="747.756" y1="750.275" y2="750.273" gradientTransform="matrix(1.31608 0 0 -1.33533 -973.95 2066.566)" gradientUnits="userSpaceOnUse"/>
    <linearGradient xlink:href="#b" id="d" x1="744.959" x2="747.756" y1="750.275" y2="750.273" gradientTransform="matrix(-1.31608 0 0 -1.33533 996.14 2066.317)" gradientUnits="userSpaceOnUse"/>
    <linearGradient xlink:href="#c" id="e" x1="744.959" x2="747.756" y1="750.275" y2="750.273" gradientTransform="matrix(1.31608 0 0 -1.33533 -973.95 2066.566)" gradientUnits="userSpaceOnUse"/>
    <linearGradient xlink:href="#a" id="f" x1="742.069" x2="749.087" y1="746.239" y2="753.257" gradientTransform="matrix(.9717 0 0 .9717 36.662 15.806)" gradientUnits="userSpaceOnUse"/>
  </defs>
  <g transform="translate(-5.108 -1057.476)">
    <path fill="url(#d)" d="m 11.094921,1069.1394 0,-9.3799 4.622319,4.69 z"/>
    <path fill="url(#e)" d="m 11.094921,1069.3887 0,-9.3799 -4.6223184,4.69 z"/>
    <rect width="7.083" height="7.083" x="756.992" y="741.302" fill="none" stroke="url(#f)" stroke-width=".911" rx="1.147" ry="1.147" transform="rotate(45)"/>
  </g>
  <g transform="translate(-1.081 -1055.45)">
    <path fill="url(#g)" d="m 11.094921,1069.1394 0,-9.3799 4.622319,4.69 z"/>
    <path fill="url(#h)" d="m 11.094921,1069.3887 0,-9.3799 -4.6223184,4.69 z"/>
    <rect width="7.083" height="7.083" x="756.992" y="741.302" fill="none" stroke="url(#i)" stroke-width=".911" rx="1.147" ry="1.147" transform="rotate(45)"/>
  </g>
</svg>
