<svg xmlns="http://www.w3.org/2000/svg" xmlns:xlink="http://www.w3.org/1999/xlink" width="16" height="16">
  <defs>
    <linearGradient id="b">
      <stop offset="0" stop-color="#6f7684"/>
      <stop offset="1" stop-color="#9a9b9c"/>
    </linearGradient>
    <linearGradient id="a">
      <stop offset="0" stop-color="#909192"/>
      <stop offset=".802" stop-color="#cbcbcb"/>
      <stop offset="1" stop-color="#90bdd6"/>
    </linearGradient>
    <linearGradient xlink:href="#a" id="c" x1="4.689" x2="5.539" y1="7.073" y2="1.078" gradientTransform="matrix(.925 0 0 .925 -10.616 1043.67)" gradientUnits="userSpaceOnUse"/>
    <linearGradient xlink:href="#b" id="d" x1="5.389" x2="5.539" y1="7.94" y2="1.078" gradientTransform="matrix(.925 0 0 .925 -10.616 1043.67)" gradientUnits="userSpaceOnUse"/>
  </defs>
  <g transform="translate(0 -1036.362)">
    <circle cx="-5.5" cy="1047.862" r="2.92" fill="url(#c)" stroke="url(#d)" stroke-width="1.161" transform="scale(-1 1)"/>
    <text xml:space="preserve" x="-11" y="1052.362" font-family="sans-serif" font-weight="400" letter-spacing="0" style="line-height:0%" word-spacing="0"><tspan x="-11" y="1052.362" font-size="11.25" style="line-height:1.25"> </tspan></text>
    <g fill="#286296" font-family="sans-serif" font-size="9.86" font-weight="400" letter-spacing="0" style="line-height:125%" word-spacing="0">
      <path d="m 9.9177933,1053.0187 0,-7.058 3.9671177,0 -3.75e-4,1.0083 -2.975151,0 3.75e-4,2.0165 1.983371,4e-4 0,1.0338 -1.983371,-4e-4 0,2.9994 z" font-family="Arial Narrow" font-stretch="condensed" font-weight="700" style="-inkscape-font-specification:&quot;Arial Narrow Bold Condensed&quot;" transform="scale(1.00829 .99178)"/>
    </g>
    <path fill="none" stroke="#c7022d" d="m 5.5,1042.3622 0.00224,0.555 c 0.00283,0.6989 0.5088078,0.945 0.9904033,0.945 l 0.9623162,0 c 0.4930429,0 1.0450367,-0.5071 1.0450367,-1 l 0,-1 c 0,-0.4295 -0.4534576,-1 -0.9485294,-1 l -1.0477941,0 c -0.4731318,0 -1.0036765,-0.5401 -1.0036765,-1 l 0,-1 c 0,-0.4333 0.5247047,-1 0.9926471,-1 l 0.992647,0 c 0.7373493,0 1.0147059,0.8878 1.0147059,1.0603 l 0,0.4397"/>
  </g>
</svg>
