<svg xmlns="http://www.w3.org/2000/svg" xmlns:xlink="http://www.w3.org/1999/xlink" width="16" height="16">
  <defs>
    <linearGradient xlink:href="#a" id="e" x1="11.04" x2="10.746" y1="13.403" y2="14.498" gradientUnits="userSpaceOnUse"/>
    <linearGradient id="a">
      <stop offset="0" stop-color="#ffdf7f"/>
      <stop offset="1" stop-color="#ffdf5f"/>
    </linearGradient>
    <linearGradient xlink:href="#b" id="f" x1="10.98" x2="10.98" y1="12.075" y2="15.959" gradientUnits="userSpaceOnUse"/>
    <linearGradient id="b">
      <stop offset="0" stop-color="#be9c28"/>
      <stop offset="1" stop-color="#aa821e"/>
    </linearGradient>
    <linearGradient xlink:href="#c" id="g" x1="11.063" x2="11.063" y1="9.891" y2="4.234" gradientTransform="translate(-.023 1036.452)" gradientUnits="userSpaceOnUse"/>
    <linearGradient id="c">
      <stop offset="0" stop-color="#cfa73e"/>
      <stop offset=".254" stop-color="#fecf6c"/>
      <stop offset="1" stop-color="#ffea91"/>
    </linearGradient>
    <linearGradient xlink:href="#d" id="h" x1="10.938" x2="10.938" y1="3.266" y2="10.891" gradientTransform="translate(-.023 1036.452)" gradientUnits="userSpaceOnUse"/>
    <linearGradient id="d">
      <stop offset="0" stop-color="#be9c28"/>
      <stop offset="1" stop-color="#aa821e"/>
    </linearGradient>
  </defs>
  <path fill="url(#e)" stroke="url(#f)" stroke-width="1.081" d="m 12.609375,14 a 1.625,1.625 0 1 1 -3.25,0 1.625,1.625 0 1 1 3.25,0 z" transform="matrix(.92543 0 0 .92543 .812 1.134)"/>
  <path fill="url(#g)" stroke="url(#h)" stroke-linecap="round" stroke-linejoin="round" d="m 10.961779,1039.9366 c 0.839655,0 1.560358,0.6772 1.515624,1.5156 l -0.220969,4.1418 c -0.04473,0.8384 -0.455,1.4051 -1.294655,1.4051 -0.839655,0 -1.2499198,-0.5667 -1.2946548,-1.4051 l -0.220972,-4.1418 c -0.04473,-0.8384 0.6759718,-1.5156 1.5156268,-1.5156 z" transform="translate(0 -1036.362)"/>
  <path fill="#366c9a" d="m 3.1326081,1045.3121 c -0.2403299,-0.019 -0.5226285,-0.062 -0.7493102,-0.1159 -0.3517596,-0.084 -0.3167114,0.017 -0.3167114,-0.9015 0,-0.4804 0.00999,-0.7973 0.02534,-0.802 0.013918,0 0.041177,0 0.060591,0.013 0.062958,0.038 0.3825962,0.1703 0.488426,0.2018 0.2422,0.072 0.6056127,0.1093 0.8616072,0.087 0.567488,-0.049 0.9520473,-0.3089 1.1454688,-0.7752 0.1559788,-0.3762 0.1481305,-0.2303 0.1641805,-3.0514 l 0.014775,-2.5953 1.0772071,0 1.0772106,0 0.00798,2.4194 c 0.00829,2.5009 -7.136e-4,2.7936 -0.1009119,3.2493 -0.2029576,0.9239 -0.7773196,1.6193 -1.6288406,1.9717 -0.5724168,0.237 -1.4034728,0.3535 -2.1270001,0.2985 z" transform="translate(0 -1036.362)"/>
</svg>
