<?xml version="1.0" encoding="UTF-8" standalone="no"?>
<svg
   width="16"
   height="16"
   version="1.1"
   id="svg10"
   xmlns:xlink="http://www.w3.org/1999/xlink"
   xmlns="http://www.w3.org/2000/svg"
   xmlns:svg="http://www.w3.org/2000/svg">
  <defs
     id="defs9">
    <linearGradient
       id="b">
      <stop
         offset="0"
         stop-color="#13436c"
         id="stop1" />
      <stop
         offset="1"
         stop-color="#4479a6"
         id="stop2" />
    </linearGradient>
    <linearGradient
       id="a">
      <stop
         offset="0"
         stop-color="#7fa8cb"
         id="stop3" />
      <stop
         offset=".378"
         stop-color="#1c65a2"
         id="stop4" />
      <stop
         offset=".517"
         stop-color="#1c65a2"
         id="stop5" />
      <stop
         offset=".899"
         stop-color="#7fa8cb"
         id="stop6" />
      <stop
         offset="1"
         stop-color="#98b9d5"
         id="stop7" />
    </linearGradient>
    <linearGradient
       xlink:href="#a"
       id="d"
       x1="-8.085"
       x2="-8.085"
       y1="1040.032"
       y2="1033.034"
       gradientTransform="matrix(.68893 0 0 .67557 -2.003 332.689)"
       gradientUnits="userSpaceOnUse" />
    <linearGradient
       xlink:href="#b"
       id="e"
       x1="-9.367"
       x2="-9.367"
       y1="1040.547"
       y2="1031.797"
       gradientTransform="matrix(.68893 0 0 .67557 -2.003 332.689)"
       gradientUnits="userSpaceOnUse" />
  </defs>
  <g
     fill="#fff"
     font-family="Sans"
     font-size="13.589"
     font-weight="400"
     letter-spacing="0"
     word-spacing="0"
     id="g10">
    <g
       style="line-height:125%"
       transform="translate(16.13 -1028.348)"
       id="g9">
      <ellipse
         cx="-7.63"
         cy="1032.845"
         fill="url(#d)"
         stroke="url(#e)"
         stroke-linecap="round"
         stroke-linejoin="round"
         rx="3"
         ry="2.997"
         id="ellipse9" />
      <path
         fill="#17325d"
         d="M-11.069 1040.84q0-.904-.129-1.272-.127-.371-.43-.371-.303 0-.432.371-.129.368-.129 1.272 0 .914.129 1.288.129.374.432.374.3 0 .43-.374.129-.374.129-1.288zm.94.01q0 1.198-.391 1.85-.391.649-1.108.649-.72 0-1.111-.649-.391-.652-.391-1.85 0-1.201.391-1.85.391-.652 1.111-.652.718 0 1.108.652.391.649.391 1.85zM-7.069 1040.84q0-.904-.129-1.272-.127-.371-.43-.371-.303 0-.432.371-.129.368-.129 1.272 0 .914.129 1.288.129.374.432.374.3 0 .43-.374.129-.374.129-1.288zm.94.01q0 1.198-.391 1.85-.391.649-1.108.649-.72 0-1.111-.649-.391-.652-.391-1.85 0-1.201.391-1.85.391-.652 1.111-.652.718 0 1.108.652.391.649.391 1.85zM-5.104 1042.348l.969 0 0-3.123-.994.241 0-.878.989-.241 1.043 0 0 4 .969 0 0 1-2.974 0z"
         font-size="medium"
         font-weight="700"
         style="line-height:125%;-inkscape-font-specification:&quot;Sans Bold&quot;;text-align:start"
         id="path9" />
    </g>
  </g>
</svg>
