<svg xmlns="http://www.w3.org/2000/svg" xmlns:xlink="http://www.w3.org/1999/xlink" width="16" height="16">
  <defs>
    <linearGradient id="e">
      <stop offset="0" stop-color="#a19a7c"/>
      <stop offset=".131" stop-color="#a29d80"/>
      <stop offset=".263" stop-color="#c5c3b5"/>
      <stop offset=".631" stop-color="#a29d80"/>
      <stop offset="1" stop-color="#9e9070"/>
    </linearGradient>
    <linearGradient id="d">
      <stop offset="0" stop-color="#a8a38c"/>
      <stop offset=".263" stop-color="#c5c3b5"/>
      <stop offset="1" stop-color="#a19a7c"/>
    </linearGradient>
    <linearGradient id="c">
      <stop offset="0" stop-color="#eac826"/>
      <stop offset="1" stop-color="#c5a334"/>
    </linearGradient>
    <linearGradient id="b">
      <stop offset="0" stop-color="#fbdd83"/>
      <stop offset=".25" stop-color="#fdf39f"/>
      <stop offset=".628" stop-color="#fee745"/>
      <stop offset="1" stop-color="#eac826"/>
    </linearGradient>
    <linearGradient id="a">
      <stop offset="0" stop-color="#f5d71e"/>
      <stop offset="1" stop-color="#fdf39f"/>
    </linearGradient>
    <linearGradient xlink:href="#a" id="f" x1="17.663" x2="19.885" y1="1052.572" y2="1052.572" gradientTransform="translate(0 -2.14)" gradientUnits="userSpaceOnUse"/>
    <linearGradient xlink:href="#b" id="g" x1="26.461" x2="29.826" y1="1045.005" y2="1048.598" gradientTransform="translate(-2.14)" gradientUnits="userSpaceOnUse"/>
    <linearGradient xlink:href="#c" id="h" x1="28.022" x2="32.686" y1="1042.971" y2="1046.849" gradientTransform="translate(-2.14)" gradientUnits="userSpaceOnUse"/>
    <linearGradient xlink:href="#d" id="i" x1="26.545" x2="30.346" y1="1057.673" y2="1061.172" gradientTransform="translate(0 -14.978)" gradientUnits="userSpaceOnUse"/>
    <linearGradient xlink:href="#e" id="j" x1="29.595" x2="35.038" y1="1053.513" y2="1058.714" gradientTransform="translate(0 -14.978)" gradientUnits="userSpaceOnUse"/>
  </defs>
  <path fill="url(#f)" d="M15.59 1049.899H20.938V1050.966H15.59z" transform="matrix(.93468 0 0 .93468 -14.572 -967.318)"/>
  <path fill="url(#g)" stroke="url(#h)" stroke-width="1.07" d="m 25.874196,1042.866 -5.532085,5.3903 c 0,0 -0.425545,1.3948 0.33098,1.9858 0.756524,0.5911 5.933987,0.2601 5.933987,0.2601 l 3.90083,-3.8299 z" transform="matrix(.93468 0 0 .93468 -14.572 -967.318)"/>
  <path fill="url(#i)" stroke="#999072" stroke-width="1.07" d="m 30.106004,1047.3342 -4.633711,-4.3499 3.889236,-3.8893 4.468222,4.3027 z" transform="matrix(.93468 0 0 .93468 -14.572 -967.318)"/>
  <path fill="url(#j)" stroke="#9c9170" stroke-width="1.07" d="m 30.36606,1044.5919 c -0.532814,-0.6954 -1.460212,-1.6094 -2.245932,-2.1042 -0.785721,-0.4947 -1.820388,-0.6616 -1.820388,-0.6616 0,0 0.09457,-0.993 1.205712,-1.9859 l 8.700031,-8.854 0,12.542 -2.742401,2.3641 c -0.898374,0.5438 -2.316857,0.662 -2.316857,0.662 0.127896,-0.6188 -0.247352,-1.267 -0.780165,-1.9624 z" transform="matrix(.93468 0 0 .93468 -14.572 -967.318)"/>
</svg>
