<svg xmlns="http://www.w3.org/2000/svg" xmlns:xlink="http://www.w3.org/1999/xlink" width="16" height="16">
  <defs>
    <linearGradient xlink:href="#a" id="f" x1="10" x2="10.008" y1="5" y2="6.984" gradientTransform="translate(-15.016 1046.636)" gradientUnits="userSpaceOnUse"/>
    <linearGradient id="a">
      <stop offset="0" stop-color="#fff"/>
      <stop offset="1" stop-color="#fff" stop-opacity="0"/>
    </linearGradient>
    <linearGradient xlink:href="#a" id="g" x1="12" x2="12" y1="1043.362" y2="1045.347" gradientTransform="translate(-15.016 10.273)" gradientUnits="userSpaceOnUse"/>
    <linearGradient xlink:href="#a" id="h" x1="13" x2="15.008" y1="1043.362" y2="1043.347" gradientTransform="translate(-15.016 10.273)" gradientUnits="userSpaceOnUse"/>
    <linearGradient xlink:href="#a" id="i" x1="12" x2="10.008" y1="1042.362" y2="1042.362" gradientTransform="translate(-15.016 10.273)" gradientUnits="userSpaceOnUse"/>
    <linearGradient xlink:href="#a" id="j" x1="10" x2="8.008" y1="1041.362" y2="1041.347" gradientTransform="translate(-15.016 10.273)" gradientUnits="userSpaceOnUse"/>
    <linearGradient xlink:href="#a" id="k" x1="10" x2="10.008" y1="1040.362" y2="1038.347" gradientTransform="translate(-15.016 10.273)" gradientUnits="userSpaceOnUse"/>
    <linearGradient xlink:href="#a" id="l" x1="12" x2="10.008" y1="1038.362" y2="1038.347" gradientTransform="translate(-15.016 10.273)" gradientUnits="userSpaceOnUse"/>
    <linearGradient xlink:href="#a" id="m" x1="14" x2="14" y1="1041.362" y2="1043.347" gradientTransform="translate(-15.016 10.273)" gradientUnits="userSpaceOnUse"/>
    <linearGradient id="b">
      <stop offset="0" stop-color="#e0c576"/>
      <stop offset="1" stop-color="#9e7916"/>
    </linearGradient>
    <linearGradient xlink:href="#c" id="o" x1=".938" x2=".938" y1="4.844" y2="7.549" gradientTransform="matrix(2.31999 0 0 2.31999 10.2 1043.185)" gradientUnits="userSpaceOnUse"/>
    <linearGradient id="c">
      <stop offset="0" stop-color="#f7f9fb"/>
      <stop offset="1" stop-color="#ffd680"/>
    </linearGradient>
    <radialGradient xlink:href="#b" id="n" cx="-757.205" cy="-738.838" r="3.48" fx="-757.205" fy="-738.838" gradientTransform="matrix(1.85082 0 0 1.77506 644.25 572.636)" gradientUnits="userSpaceOnUse"/>
    <filter id="e" width="1.48" height="1.48" x="-.24" y="-.24" color-interpolation-filters="sRGB">
      <feGaussianBlur stdDeviation="1.465"/>
    </filter>
    <mask id="d" maskUnits="userSpaceOnUse">
      <path fill="#fff" stroke="#fff" stroke-linecap="round" stroke-linejoin="round" stroke-width="2.166" d="m 398.75,468.23718 a 10.625,10.625 0 1 1 -21.25,0 10.625,10.625 0 1 1 21.25,0 z" font-family="Sans" font-size="13.589" font-weight="400" letter-spacing="0" style="line-height:125%" transform="matrix(.55483 0 0 .55483 -206.96 787.087)" word-spacing="0"/>
    </mask>
  </defs>
  <path fill="#fff" d="m 12.020815,12.862214 0,-2.784233 0.574525,-0.8838838 c 0,0 0.08839,-1.9003494 0.04419,-2.1213203 C 12.59534,6.851806 11.75565,4.4211265 11.75565,4.4211265 L 9.9878833,3.3162721 8.7946406,2.8743304 7.6455921,2.8301362 5.6126601,3.4046605 3.7565048,3.9791847 2.3864854,5.83534 1.5909903,8.2218254 l 0.088388,1.8119616 0.7071068,1.635184 1.016466,1.546796 c 0,0 1.4584077,0.883884 1.7235728,0.839689 0.265165,-0.04419 2.0771261,0.574525 2.0771261,0.574525 l 1.767767,-0.30936 2.474874,-0.883883 z"/>
  <path fill="#236298" stroke="#236298" stroke-width=".283" d="m 4.1680169,1046.1162 c -0.1578852,-0.7083 -0.027496,-2.597 0.4319364,-3.4644 0.410999,-0.776 0.7953842,-1.1006 1.3477365,-1.1314 0.4702803,-0.026 1.1983928,-0.032 1.662602,0.399 0.4642092,0.4298 0.6488564,1.475 0.6185986,2.1377 -9.342e-4,0.8109 -0.1432755,1.4479 -0.1432755,1.4479 0,0 1.2657831,-0.026 1.7341517,-0.4287 0.4683684,-0.4024 1.2418114,-1.1484 1.1981324,-1.9297 -0.04368,-0.7813 0.701644,-0.238 0.37737,0.5194 -0.324273,0.7574 -0.431178,1.3616 -1.246551,1.8842 -0.7947743,0.553 -2.1368565,0.8029 -2.1368565,0.8029 -0.6219403,0.034 -0.3995581,0.6131 -1.2222308,1.1198 -0.5453862,0.3253 -1.5806633,0.3373 -1.9911781,-0.073 -0.4105148,-0.4105 -0.4725505,-0.5752 -0.6304357,-1.2835 z m 2.3027539,-3.7844 c -0.5654041,-0.1018 -0.959374,0.011 -1.27689,0.5443 -0.3794368,0.6349 -0.5022132,2.7214 -0.065616,3.4303 0.4365962,0.709 1.3310551,0.5316 1.671452,0.2632 0.3403969,-0.2684 0.3140642,-0.6024 0.3581777,-1.5103 0.044113,-0.9076 -0.034588,-1.5929 -0.034588,-1.5929 0,0 -0.087132,-1.0328 -0.6525357,-1.1346 z" font-family="AustralianFlyingCorpsStencil" font-size="11.052" font-weight="400" letter-spacing="0" style="text-align:start;line-height:125%;-inkscape-font-specification:AustralianFlyingCorpsStencil" transform="translate(0 -1036.362)" word-spacing="0"/>
  <g fill="#236298" stroke="#236298" stroke-width=".249" font-family="Sans" font-size="13.589" font-weight="400" letter-spacing="0" style="line-height:125%" word-spacing="0">
    <path d="m -9.7295357,1040.7288 c -0.7925073,-0.372 -2.1308683,-0.8428 -3.1422163,-0.5739 -1.269577,0.3375 -1.866693,1.2474 -2.347947,2.038 -0.481254,0.7906 -0.88097,2.3054 -0.527138,3.5468 0.353832,1.2414 0.935789,1.9688 1.819576,2.4225 0.883788,0.4538 2.14235,0.6522 3.325854,0.3371 1.0615583,-0.2822 1.1249302,-0.3119 2.36878,-1.2648 l 0.3283232,0.276 c -0.9646988,0.8272 -1.2327121,1.0876 -2.5524882,1.4385 -1.43455,0.3814 -2.436321,0.2944 -3.527137,-0.1574 -1.188784,-0.5013 -1.969257,-1.4403 -2.341448,-2.8173 -0.375974,-1.3909 -0.166888,-2.9841 0.64465,-4.1913 0.783312,-1.1694 1.452825,-1.8227 2.880202,-2.2022 1.169149,-0.3108 2.593608,0.2772 3.4984519,0.6949" font-family="AustralianFlyingCorpsStencil" font-size="11.052" style="text-align:start;line-height:125%;-inkscape-font-specification:AustralianFlyingCorpsStencil" transform="matrix(1.2779 0 .03748 1.2779 -16.877 -1326.143)"/>
  </g>
  <g fill="#fff" font-family="Sans" font-size="13.589" font-weight="400" letter-spacing="0" mask="url(#d)" style="line-height:125%" transform="translate(-.87 -1038.391)" word-spacing="0">
    <path stroke="#fff" stroke-linecap="round" stroke-linejoin="round" stroke-width="5.855" d="m -16.30668,1023.0143 c 0,0 0.754772,2.7548 2.663409,4.6634 1.908637,1.9086 4.663405,2.6634 4.663405,2.6634 0,0 -2.739141,0.7391 -4.663398,2.6634 -1.924257,1.9243 -2.663409,4.6634 -2.663409,4.6634 0,0 -0.676645,-2.6766 -2.66341,-4.6634 -1.986765,-1.9868 3517894290.96875,229334007 -4.663405,-2.6634 0,0 2.801649,-0.8017 4.663405,-2.6634 1.861756,-1.8618 2.663403,-4.6634 2.663403,-4.6634 z" filter="url(#e)" opacity=".85" transform="matrix(.51238 0 0 .51238 21.788 514.893)"/>
  </g>
  <path fill="url(#f)" d="m -7.007813,1053.62 2,0 1.492188,-1.4844 -2.0312504,0 z" transform="translate(15.023 -1046.604)"/>
  <path fill="url(#g)" d="m -5.007813,1055.62 4,0 0,-1 -0.476562,-0.4844 -2.03125,0 z" transform="translate(15.023 -1046.604)"/>
  <path fill="url(#h)" d="m -1.484375,1052.1356 0,2 0.476562,0.4844 0,-2 z" transform="translate(15.023 -1046.604)"/>
  <path fill="url(#i)" d="m -5.007813,1053.62 0,2 1.492188,-1.4844 0,-2 z" transform="translate(15.023 -1046.604)"/>
  <path fill="url(#j)" d="m -7.007813,1048.62 0,5 1.4609376,-1.4844 0,-2 z" transform="translate(15.023 -1046.604)"/>
  <path fill="url(#k)" d="m -5.007813,1048.62 -2,0 1.4609375,1.5156 2.0312505,0 z" transform="translate(15.023 -1046.604)"/>
  <path fill="url(#l)" d="m -5.007813,1048.62 0,0 1.503907,1.5273 0,-1.5156 z" transform="translate(15.023 -1046.604)"/>
  <path fill="url(#m)" d="m -1.011718,1052.1356 -0.472657,0 0.476563,0.4844 -0.0039,0 z" transform="translate(15.023 -1046.604)"/>
  <path fill="url(#n)" stroke="#a27d18" stroke-width="1.032" d="M-758.823-740.411H-754.24V-735.957H-758.823z" transform="rotate(-135 -218.15 -526.02)"/>
  <path fill="url(#o)" d="m 12.471186,1054.309 1.001133,0 0,1.946 1.986639,0 0,1.0167 -1.986639,0 0,2.043 -1.001133,0 0,-2.043 -1.98664,0 0,-1.0167 1.98664,0 z" transform="translate(-.45 -1052.228)"/>
</svg>
