<?xml version="1.0" encoding="UTF-8" standalone="no"?>
<svg
   width="16"
   height="16"
   version="1.1"
   id="svg27"
   xmlns:xlink="http://www.w3.org/1999/xlink"
   xmlns="http://www.w3.org/2000/svg"
   xmlns:svg="http://www.w3.org/2000/svg">
  <defs
     id="defs10">
    <linearGradient
       xlink:href="#a"
       id="e"
       x1="388.637"
       x2="388.637"
       y1="478.188"
       y2="459.248"
       gradientUnits="userSpaceOnUse" />
    <linearGradient
       id="a">
      <stop
         offset="0"
         stop-color="#a17748"
         id="stop1" />
      <stop
         offset=".5"
         stop-color="#8e5c24"
         id="stop2" />
      <stop
         offset="1"
         stop-color="#c7af93"
         id="stop3" />
    </linearGradient>
    <linearGradient
       xlink:href="#b"
       id="i"
       x1="10"
       x2="10.008"
       y1="5"
       y2="6.984"
       gradientTransform="translate(-15.016 1046.636)"
       gradientUnits="userSpaceOnUse" />
    <linearGradient
       id="b">
      <stop
         offset="0"
         stop-color="#fff"
         id="stop4" />
      <stop
         offset="1"
         stop-color="#fff"
         stop-opacity="0"
         id="stop5" />
    </linearGradient>
    <linearGradient
       xlink:href="#b"
       id="j"
       x1="12"
       x2="12"
       y1="1043.362"
       y2="1045.347"
       gradientTransform="translate(-15.016 10.273)"
       gradientUnits="userSpaceOnUse" />
    <linearGradient
       xlink:href="#b"
       id="k"
       x1="13"
       x2="15.008"
       y1="1043.362"
       y2="1043.347"
       gradientTransform="translate(-15.016 10.273)"
       gradientUnits="userSpaceOnUse" />
    <linearGradient
       xlink:href="#b"
       id="l"
       x1="12"
       x2="10.008"
       y1="1042.362"
       y2="1042.362"
       gradientTransform="translate(-15.016 10.273)"
       gradientUnits="userSpaceOnUse" />
    <linearGradient
       xlink:href="#b"
       id="m"
       x1="10"
       x2="8.008"
       y1="1041.362"
       y2="1041.347"
       gradientTransform="translate(-15.016 10.273)"
       gradientUnits="userSpaceOnUse" />
    <linearGradient
       xlink:href="#b"
       id="n"
       x1="10"
       x2="10.008"
       y1="1040.362"
       y2="1038.347"
       gradientTransform="translate(-15.016 10.273)"
       gradientUnits="userSpaceOnUse" />
    <linearGradient
       xlink:href="#b"
       id="o"
       x1="12"
       x2="10.008"
       y1="1038.362"
       y2="1038.347"
       gradientTransform="translate(-15.016 10.273)"
       gradientUnits="userSpaceOnUse" />
    <linearGradient
       xlink:href="#b"
       id="p"
       x1="14"
       x2="14"
       y1="1041.362"
       y2="1043.347"
       gradientTransform="translate(-15.016 10.273)"
       gradientUnits="userSpaceOnUse" />
    <linearGradient
       id="c">
      <stop
         offset="0"
         stop-color="#e0c576"
         id="stop6" />
      <stop
         offset="1"
         stop-color="#9e7916"
         id="stop7" />
    </linearGradient>
    <linearGradient
       xlink:href="#d"
       id="r"
       x1=".938"
       x2=".938"
       y1="4.844"
       y2="7.549"
       gradientTransform="matrix(2.31999 0 0 2.31999 10.2 1043.185)"
       gradientUnits="userSpaceOnUse" />
    <linearGradient
       id="d">
      <stop
         offset="0"
         stop-color="#f7f9fb"
         id="stop8" />
      <stop
         offset="1"
         stop-color="#ffd680"
         id="stop9" />
    </linearGradient>
    <filter
       id="g"
       width="1.8793284"
       height="1.8793296"
       x="-0.43966388"
       y="-0.43966725"
       color-interpolation-filters="sRGB">
      <feGaussianBlur
         stdDeviation="1.465"
         id="feGaussianBlur9" />
    </filter>
    <filter
       id="h"
       x="-0.068458586"
       y="-0.053249894"
       width="1.1369172"
       height="1.1064998">
      <feGaussianBlur
         stdDeviation=".156"
         id="feGaussianBlur10" />
    </filter>
    <radialGradient
       xlink:href="#c"
       id="q"
       cx="-757.205"
       cy="-738.838"
       r="3.48"
       fx="-757.205"
       fy="-738.838"
       gradientTransform="matrix(1.85082 0 0 1.77506 644.25 572.636)"
       gradientUnits="userSpaceOnUse" />
    <mask
       id="f"
       maskUnits="userSpaceOnUse">
      <path
         fill="#fff"
         stroke="#fff"
         stroke-linecap="round"
         stroke-linejoin="round"
         stroke-width="2.166"
         d="m 398.75,468.23718 a 10.625,10.625 0 1 1 -21.25,0 10.625,10.625 0 1 1 21.25,0 z"
         font-family="Sans"
         font-size="13.589"
         font-weight="400"
         letter-spacing="0"
         style="line-height:125%"
         transform="matrix(.55483 0 0 .55483 -206.96 787.087)"
         word-spacing="0"
         id="path10" />
    </mask>
  </defs>
  <g
     fill="#fff"
     font-family="Sans"
     font-size="13.589"
     font-weight="400"
     letter-spacing="0"
     word-spacing="0"
     id="g27">
    <g
       style="line-height:125%"
       id="g26">
      <path
         fill="url(#e)"
         stroke="#905e27"
         stroke-linecap="round"
         stroke-linejoin="round"
         stroke-width="2.166"
         d="m 398.75,468.23718 c 0,5.86803 -4.75697,10.625 -10.625,10.625 -5.86803,0 -10.625,-4.75697 -10.625,-10.625 0,-5.86802 4.75697,-10.625 10.625,-10.625 5.86803,0 10.625,4.75698 10.625,10.625 z"
         transform="matrix(.55483 0 0 .55483 -207.83 -251.305)"
         id="path11" />
      <g
         mask="url(#f)"
         style="line-height:125%"
         transform="translate(-.87 -1038.391)"
         id="g12">
        <path
           stroke="#fff"
           stroke-linecap="round"
           stroke-linejoin="round"
           stroke-width="5.855"
           d="m -16.30668,1023.0143 c 0,0 0.754772,2.7548 2.663409,4.6634 1.908637,1.9086 4.663405,2.6634 4.663405,2.6634 0,0 -2.739141,0.7391 -4.663398,2.6634 -1.924257,1.9243 -2.663409,4.6634 -2.663409,4.6634 0,0 -0.676645,-2.6766 -2.66341,-4.6634 -1.986765,-1.9868 -4.663405,-2.6634 -4.663405,-2.6634 0,0 2.801649,-0.8017 4.663405,-2.6634 1.861756,-1.8618 2.663403,-4.6634 2.663403,-4.6634 z"
           filter="url(#g)"
           opacity=".85"
           transform="matrix(.51238 0 0 .51238 21.788 514.893)"
           id="path12" />
      </g>
      <path
         d="M9.87 1031.348H11.87V1038.348H9.87z"
         transform="translate(-4.87 -1026.348)"
         id="path13" />
      <path
         d="M9.87 1031.348H15.339V1032.379H9.87zM9.87 1037.348H15.339V1038.379H9.87zM9.87 1034.348H14.839V1035.379H9.87z"
         style="line-height:125%"
         transform="translate(-4.87 -1026.348)"
         id="path14" />
      <g
         filter="url(#h)"
         opacity=".5"
         style="line-height:125%"
         transform="translate(-4.745 -1026.223)"
         id="g16">
        <path
           d="M9.87 1031.348H11.87V1038.348H9.87z"
           id="path15" />
        <path
           d="M9.87 1031.348H15.339V1032.379H9.87zM9.87 1037.348H15.339V1038.379H9.87zM9.87 1034.348H14.839V1035.379H9.87z"
           style="line-height:125%"
           id="path16" />
      </g>
      <path
         fill="url(#i)"
         d="m -7.007813,1053.62 2,0 1.492188,-1.4844 -2.0312504,0 z"
         transform="translate(15.023 -1046.604)"
         id="path17" />
      <path
         fill="url(#j)"
         d="m -5.007813,1055.62 4,0 0,-1 -0.476562,-0.4844 -2.03125,0 z"
         transform="translate(15.023 -1046.604)"
         id="path18" />
      <path
         fill="url(#k)"
         d="m -1.484375,1052.1356 0,2 0.476562,0.4844 0,-2 z"
         transform="translate(15.023 -1046.604)"
         id="path19" />
      <path
         fill="url(#l)"
         d="m -5.007813,1053.62 0,2 1.492188,-1.4844 0,-2 z"
         transform="translate(15.023 -1046.604)"
         id="path20" />
      <path
         fill="url(#m)"
         d="m -7.007813,1048.62 0,5 1.4609376,-1.4844 0,-2 z"
         transform="translate(15.023 -1046.604)"
         id="path21" />
      <path
         fill="url(#n)"
         d="m -5.007813,1048.62 -2,0 1.4609375,1.5156 2.0312505,0 z"
         transform="translate(15.023 -1046.604)"
         id="path22" />
      <path
         fill="url(#o)"
         d="m -5.007813,1048.62 0,0 1.503907,1.5273 0,-1.5156 z"
         transform="translate(15.023 -1046.604)"
         id="path23" />
      <path
         fill="url(#p)"
         d="m -1.011718,1052.1356 -0.472657,0 0.476563,0.4844 -0.0039,0 z"
         transform="translate(15.023 -1046.604)"
         id="path24" />
      <path
         fill="url(#q)"
         stroke="#a27d18"
         stroke-width="1.032"
         d="M-758.823-740.411H-754.24V-735.957H-758.823z"
         transform="rotate(-135 -218.15 -526.02)"
         id="path25" />
      <path
         fill="url(#r)"
         d="m 12.471186,1054.309 1.001133,0 0,1.946 1.986639,0 0,1.0167 -1.986639,0 0,2.043 -1.001133,0 0,-2.043 -1.98664,0 0,-1.0167 1.98664,0 z"
         transform="translate(-.45 -1052.228)"
         id="path26" />
    </g>
  </g>
</svg>
