<svg xmlns="http://www.w3.org/2000/svg" xmlns:xlink="http://www.w3.org/1999/xlink" width="16" height="16">
  <defs>
    <linearGradient xlink:href="#a" id="f" x1="10" x2="10.008" y1="5" y2="6.984" gradientTransform="translate(-15.016 1046.636)" gradientUnits="userSpaceOnUse"/>
    <linearGradient id="a">
      <stop offset="0" stop-color="#fff"/>
      <stop offset="1" stop-color="#fff" stop-opacity="0"/>
    </linearGradient>
    <linearGradient xlink:href="#a" id="g" x1="12" x2="12" y1="1043.362" y2="1045.347" gradientTransform="translate(-15.016 10.273)" gradientUnits="userSpaceOnUse"/>
    <linearGradient xlink:href="#a" id="h" x1="13" x2="15.008" y1="1043.362" y2="1043.347" gradientTransform="translate(-15.016 10.273)" gradientUnits="userSpaceOnUse"/>
    <linearGradient xlink:href="#a" id="i" x1="12" x2="10.008" y1="1042.362" y2="1042.362" gradientTransform="translate(-15.016 10.273)" gradientUnits="userSpaceOnUse"/>
    <linearGradient xlink:href="#a" id="j" x1="10" x2="8.008" y1="1041.362" y2="1041.347" gradientTransform="translate(-15.016 10.273)" gradientUnits="userSpaceOnUse"/>
    <linearGradient xlink:href="#a" id="k" x1="10" x2="10.008" y1="1040.362" y2="1038.347" gradientTransform="translate(-15.016 10.273)" gradientUnits="userSpaceOnUse"/>
    <linearGradient xlink:href="#a" id="l" x1="12" x2="10.008" y1="1038.362" y2="1038.347" gradientTransform="translate(-15.016 10.273)" gradientUnits="userSpaceOnUse"/>
    <linearGradient xlink:href="#a" id="m" x1="14" x2="14" y1="1041.362" y2="1043.347" gradientTransform="translate(-15.016 10.273)" gradientUnits="userSpaceOnUse"/>
    <linearGradient id="b">
      <stop offset="0" stop-color="#e0c576"/>
      <stop offset="1" stop-color="#9e7916"/>
    </linearGradient>
    <linearGradient xlink:href="#c" id="o" x1=".938" x2=".938" y1="4.844" y2="7.549" gradientTransform="matrix(2.31999 0 0 2.31999 10.2 1043.185)" gradientUnits="userSpaceOnUse"/>
    <linearGradient id="c">
      <stop offset="0" stop-color="#f7f9fb"/>
      <stop offset="1" stop-color="#ffd680"/>
    </linearGradient>
    <linearGradient id="d">
      <stop offset="0" stop-color="#7564b1"/>
      <stop offset=".5" stop-color="#5d4aa1"/>
      <stop offset="1" stop-color="#9283c3"/>
    </linearGradient>
    <linearGradient xlink:href="#d" id="e" x1="388.637" x2="388.637" y1="478.188" y2="462.115" gradientUnits="userSpaceOnUse"/>
    <radialGradient xlink:href="#b" id="n" cx="-757.205" cy="-738.838" r="3.48" fx="-757.205" fy="-738.838" gradientTransform="matrix(1.85082 0 0 1.77506 644.25 572.636)" gradientUnits="userSpaceOnUse"/>
  </defs>
  <g font-family="Sans" font-size="13.589" font-weight="400" letter-spacing="0" word-spacing="0">
    <path fill="url(#e)" stroke="#55429f" stroke-linecap="round" stroke-linejoin="round" stroke-width="2.166" d="m 398.75,468.23718 c 0,5.86803 -4.75697,10.625 -10.625,10.625 -5.86803,0 -10.625,-4.75697 -10.625,-10.625 0,-5.86802 4.75697,-10.625 10.625,-10.625 5.86803,0 10.625,4.75698 10.625,10.625 z" style="line-height:125%" transform="matrix(.55483 0 0 .55483 -207.786 -251.172)"/>
    <path fill="#fff" d="m 21.535823,1031.9047 0,1.0313 0.888066,0 0,4.9687 -0.93226,0 0,1.0313 4.789695,0 0,-1.0313 -1.285812,0 0,-4.9687 1.285812,0 0,-1.0313 z" style="line-height:125%" transform="translate(-16.44 -1026.86)"/>
  </g>
  <path fill="url(#f)" d="m -7.007813,1053.62 2,0 1.492188,-1.4844 -2.0312504,0 z" transform="translate(15.023 -1046.604)"/>
  <path fill="url(#g)" d="m -5.007813,1055.62 4,0 0,-1 -0.476562,-0.4844 -2.03125,0 z" transform="translate(15.023 -1046.604)"/>
  <path fill="url(#h)" d="m -1.484375,1052.1356 0,2 0.476562,0.4844 0,-2 z" transform="translate(15.023 -1046.604)"/>
  <path fill="url(#i)" d="m -5.007813,1053.62 0,2 1.492188,-1.4844 0,-2 z" transform="translate(15.023 -1046.604)"/>
  <path fill="url(#j)" d="m -7.007813,1048.62 0,5 1.4609376,-1.4844 0,-2 z" transform="translate(15.023 -1046.604)"/>
  <path fill="url(#k)" d="m -5.007813,1048.62 -2,0 1.4609375,1.5156 2.0312505,0 z" transform="translate(15.023 -1046.604)"/>
  <path fill="url(#l)" d="m -5.007813,1048.62 0,0 1.503907,1.5273 0,-1.5156 z" transform="translate(15.023 -1046.604)"/>
  <path fill="url(#m)" d="m -1.011718,1052.1356 -0.472657,0 0.476563,0.4844 -0.0039,0 z" transform="translate(15.023 -1046.604)"/>
  <path fill="url(#n)" stroke="#a27d18" stroke-width="1.032" d="M-758.823-740.411H-754.24V-735.957H-758.823z" transform="rotate(-135 -218.15 -526.02)"/>
  <path fill="url(#o)" d="m 12.471186,1054.309 1.001133,0 0,1.946 1.986639,0 0,1.0167 -1.986639,0 0,2.043 -1.001133,0 0,-2.043 -1.98664,0 0,-1.0167 1.98664,0 z" transform="translate(-.45 -1052.228)"/>
</svg>
