<svg xmlns="http://www.w3.org/2000/svg" xmlns:xlink="http://www.w3.org/1999/xlink" width="16" height="16">
  <defs>
    <linearGradient xlink:href="#a" id="o" x1="14" x2="14" y1="4" y2="6" gradientTransform="matrix(3.5838 0 0 3.5838 464.144 348.895)" gradientUnits="userSpaceOnUse"/>
    <linearGradient xlink:href="#b" id="t" x1="523.008" x2="543.914" y1="373.229" y2="373.229" gradientTransform="translate(-60.559 -1.703)" gradientUnits="userSpaceOnUse"/>
    <linearGradient xlink:href="#c" id="s" x1="548.459" x2="548.459" y1="398.988" y2="373.771" gradientTransform="translate(-60.559)" gradientUnits="userSpaceOnUse"/>
    <linearGradient xlink:href="#d" id="r" x1="548.459" x2="548.459" y1="398.988" y2="373.771" gradientTransform="translate(-60.559)" gradientUnits="userSpaceOnUse"/>
    <linearGradient xlink:href="#e" id="q" x1="538.006" x2="538.006" y1="396.223" y2="374.212" gradientTransform="translate(-60.559)" gradientUnits="userSpaceOnUse"/>
    <linearGradient xlink:href="#f" id="x" x1="546.633" x2="546.583" y1="397.264" y2="382.124" gradientTransform="matrix(1 0 0 1.41657 344.324 0)" gradientUnits="userSpaceOnUse"/>
    <linearGradient xlink:href="#g" id="w" x1="537.943" x2="537.902" y1="397.561" y2="385.152" gradientTransform="matrix(1 0 0 1.41657 344.324 0)" gradientUnits="userSpaceOnUse"/>
    <linearGradient xlink:href="#h" id="p" x1="531.093" x2="531.093" y1="366.789" y2="371.179" gradientTransform="translate(-61.177 -1.583)" gradientUnits="userSpaceOnUse"/>
    <linearGradient id="b">
      <stop offset="0" stop-color="#c38536" stop-opacity="0"/>
      <stop offset=".154" stop-color="#f2dc91"/>
      <stop offset=".5" stop-color="#fbdc8b"/>
      <stop offset=".75" stop-color="#e6bd7a"/>
      <stop offset="1" stop-color="#ba772f" stop-opacity="0"/>
    </linearGradient>
    <linearGradient id="h">
      <stop offset="0" stop-color="#d1ad79"/>
      <stop offset="1" stop-color="#ce9650"/>
    </linearGradient>
    <linearGradient id="f">
      <stop offset="0" stop-color="#5a6eb9"/>
      <stop offset="1" stop-color="#7a82ab"/>
    </linearGradient>
    <linearGradient id="a">
      <stop offset="0" stop-color="#958189"/>
      <stop offset="1" stop-color="#897b8d"/>
    </linearGradient>
    <linearGradient id="g">
      <stop offset="0" stop-color="#92b5eb"/>
      <stop offset="1" stop-color="#b1e1fd"/>
    </linearGradient>
    <linearGradient id="e">
      <stop offset="0" stop-color="#ffd175"/>
      <stop offset="1" stop-color="#fff1c2"/>
    </linearGradient>
    <linearGradient id="d">
      <stop offset="0" stop-color="#9e6627"/>
      <stop offset="1" stop-color="#cf9852"/>
    </linearGradient>
    <linearGradient id="c">
      <stop offset="0" stop-color="#5d70b8"/>
      <stop offset=".5" stop-color="#757eab"/>
      <stop offset="1" stop-color="#567ebc" stop-opacity="0"/>
    </linearGradient>
    <linearGradient xlink:href="#m" id="E" x1="10" x2="10.008" y1="5" y2="6.984" gradientTransform="translate(-15.016 1046.636)" gradientUnits="userSpaceOnUse"/>
    <linearGradient id="m">
      <stop offset="0" stop-color="#fff"/>
      <stop offset="1" stop-color="#fff" stop-opacity="0"/>
    </linearGradient>
    <linearGradient xlink:href="#m" id="F" x1="12" x2="12" y1="1043.362" y2="1045.347" gradientTransform="translate(-15.016 10.273)" gradientUnits="userSpaceOnUse"/>
    <linearGradient xlink:href="#m" id="G" x1="13" x2="15.008" y1="1043.362" y2="1043.347" gradientTransform="translate(-15.016 10.273)" gradientUnits="userSpaceOnUse"/>
    <linearGradient xlink:href="#m" id="H" x1="12" x2="10.008" y1="1042.362" y2="1042.362" gradientTransform="translate(-15.016 10.273)" gradientUnits="userSpaceOnUse"/>
    <linearGradient xlink:href="#m" id="I" x1="10" x2="8.008" y1="1041.362" y2="1041.347" gradientTransform="translate(-15.016 10.273)" gradientUnits="userSpaceOnUse"/>
    <linearGradient xlink:href="#m" id="J" x1="10" x2="10.008" y1="1040.362" y2="1038.347" gradientTransform="translate(-15.016 10.273)" gradientUnits="userSpaceOnUse"/>
    <linearGradient xlink:href="#m" id="K" x1="12" x2="10.008" y1="1038.362" y2="1038.347" gradientTransform="translate(-15.016 10.273)" gradientUnits="userSpaceOnUse"/>
    <linearGradient xlink:href="#m" id="L" x1="14" x2="14" y1="1041.362" y2="1043.347" gradientTransform="translate(-15.016 10.273)" gradientUnits="userSpaceOnUse"/>
    <linearGradient xlink:href="#n" id="M" x1=".938" x2=".938" y1="4.844" y2="7.549" gradientTransform="matrix(2.31999 0 0 2.31999 10.2 1043.185)" gradientUnits="userSpaceOnUse"/>
    <linearGradient id="n">
      <stop offset="0" stop-color="#f7f9fb"/>
      <stop offset="1" stop-color="#ffd680"/>
    </linearGradient>
    <mask id="u" maskUnits="userSpaceOnUse"/>
    <mask id="i" maskUnits="userSpaceOnUse"/>
    <mask id="C" maskUnits="userSpaceOnUse">
      <g fill="#fff">
        <g stroke="#fff">
          <path d="M464.144 363.231H518.159V370.399H464.144z" transform="matrix(.27903 0 0 .27903 -128.632 942.938)"/>
          <g transform="matrix(.33026 0 0 .33026 -149.73 922.092)">
            <rect width="15" height="16.625" x="463.933" y="365.467" stroke-linecap="round" stroke-linejoin="round" stroke-width="3.028" rx="2.625" ry="2.625"/>
            <path stroke-linecap="round" stroke-linejoin="round" stroke-width="3.028" d="m 463.24874,371.54269 31.10344,0 c 1.45425,0 2.625,1.17075 2.625,2.625 l 0,14.39926 c 0,1.45425 -1.21199,2.28111 -2.625,2.625 l -31.10344,7.56983 c -1.413,0.34389 -2.625,-1.17075 -2.625,-2.625 l 0,-21.96909 c 0,-1.45425 1.17075,-2.625 2.625,-2.625 z"/>
            <path stroke-linecap="round" stroke-linejoin="round" stroke-width="3.028" d="m 463.24874,371.6096 31.10344,0 c 1.45425,0 2.625,1.17075 2.625,2.625 l 0,14.33235 c 0,1.45425 -1.21199,2.28111 -2.625,2.625 l -31.10344,7.56983 c -1.413,0.34389 -2.625,-1.17075 -2.625,-2.625 l 0,-21.90218 c 0,-1.45425 1.17075,-2.625 2.625,-2.625 z"/>
            <path stroke-width="3.028" d="m 462.26171,371.52622 20.09375,0"/>
            <g mask="url(#i)">
              <rect width="30.9" height="22.649" x="860.685" y="542.897" stroke-linecap="round" stroke-linejoin="round" stroke-width="2.38" filter="url(#j)" opacity=".5" rx="2.625" ry="3.718" transform="skewX(-45.095) scale(1 .70593)"/>
            </g>
            <rect width="30.237" height="21.543" x="860.685" y="543.433" stroke-linecap="round" stroke-linejoin="round" stroke-width="3.604" rx="2.625" ry="3.718" transform="skewX(-45.095) scale(1 .70593)"/>
          </g>
          <path d="m 492.81474,377.56576 -14.33522,0 0,3.5838 2.02645,0 0,-1.47461 11.8608,0 z" transform="matrix(.27903 0 0 .27903 -128.632 942.938)"/>
        </g>
        <path d="m 5.7026894,1044.9373 c -0.185041,-0.018 -0.402396,-0.059 -0.576929,-0.1108 -0.270837,-0.079 -0.243851,0.015 -0.243851,-0.8593 0,-0.4579 0.0077,-0.7598 0.01951,-0.7646 0.01072,0 0.0317,0 0.04665,0.013 0.04847,0.037 0.294579,0.1623 0.376062,0.1926 0.186482,0.069 0.46629,0.1032 0.663393,0.083 0.436936,-0.047 0.733026,-0.2945 0.881951,-0.7389 0.120095,-0.3583 0.114052,-0.2194 0.12641,-2.9086 l 0.01137,-2.4738 0.829393,0 0.829395,0 0.0062,2.3061 c 0.0064,2.384 -5.49e-4,2.6629 -0.0777,3.0973 -0.156267,0.8809 -0.598495,1.5436 -1.254122,1.8796 -0.440731,0.2258 -1.0806,0.337 -1.637678,0.2843 z" transform="translate(.889 1.94)"/>
      </g>
    </mask>
    <mask id="B" maskUnits="userSpaceOnUse">
      <g fill="#fff">
        <g stroke="#fff">
          <path d="M464.144 363.231H518.159V370.399H464.144z" transform="matrix(.68872 0 0 .68872 -471.013 766.255)"/>
          <g transform="translate(-523.09 714.8) scale(.81516)">
            <rect width="15" height="16.625" x="463.933" y="365.467" stroke-linecap="round" stroke-linejoin="round" stroke-width="3.028" rx="2.625" ry="2.625"/>
            <path stroke-linecap="round" stroke-linejoin="round" stroke-width="3.028" d="m 463.24874,371.54269 31.10344,0 c 1.45425,0 2.625,1.17075 2.625,2.625 l 0,14.39926 c 0,1.45425 -1.21199,2.28111 -2.625,2.625 l -31.10344,7.56983 c -1.413,0.34389 -2.625,-1.17075 -2.625,-2.625 l 0,-21.96909 c 0,-1.45425 1.17075,-2.625 2.625,-2.625 z"/>
            <path stroke-linecap="round" stroke-linejoin="round" stroke-width="3.028" d="m 463.24874,371.6096 31.10344,0 c 1.45425,0 2.625,1.17075 2.625,2.625 l 0,14.33235 c 0,1.45425 -1.21199,2.28111 -2.625,2.625 l -31.10344,7.56983 c -1.413,0.34389 -2.625,-1.17075 -2.625,-2.625 l 0,-21.90218 c 0,-1.45425 1.17075,-2.625 2.625,-2.625 z"/>
            <path stroke-width="3.028" d="m 462.26171,371.52622 20.09375,0"/>
            <g mask="url(#i)">
              <rect width="30.9" height="22.649" x="860.685" y="542.897" stroke-linecap="round" stroke-linejoin="round" stroke-width="2.38" filter="url(#j)" opacity=".5" rx="2.625" ry="3.718" transform="skewX(-45.095) scale(1 .70593)"/>
            </g>
            <rect width="30.237" height="21.543" x="860.685" y="543.433" stroke-linecap="round" stroke-linejoin="round" stroke-width="3.604" rx="2.625" ry="3.718" transform="skewX(-45.095) scale(1 .70593)"/>
          </g>
          <path d="m 492.81474,377.56576 -14.33522,0 0,3.5838 2.02645,0 0,-1.47461 11.8608,0 z" transform="matrix(.68872 0 0 .68872 -471.013 766.255)"/>
        </g>
        <path d="m 5.7026894,1044.9373 c -0.185041,-0.018 -0.402396,-0.059 -0.576929,-0.1108 -0.270837,-0.079 -0.243851,0.015 -0.243851,-0.8593 0,-0.4579 0.0077,-0.7598 0.01951,-0.7646 0.01072,0 0.0317,0 0.04665,0.013 0.04847,0.037 0.294579,0.1623 0.376062,0.1926 0.186482,0.069 0.46629,0.1032 0.663393,0.083 0.436936,-0.047 0.733026,-0.2945 0.881951,-0.7389 0.120095,-0.3583 0.114052,-0.2194 0.12641,-2.9086 l 0.01137,-2.4738 0.829393,0 0.829395,0 0.0062,2.3061 c 0.0064,2.384 -5.49e-4,2.6629 -0.0777,3.0973 -0.156267,0.8809 -0.598495,1.5436 -1.254122,1.8796 -0.440731,0.2258 -1.0806,0.337 -1.637678,0.2843 z" transform="matrix(2.46825 0 0 2.46825 -151.322 -1556.366)"/>
      </g>
    </mask>
    <mask id="A" maskUnits="userSpaceOnUse">
      <g fill="#fff">
        <g stroke="#fff">
          <path d="M464.144 363.231H518.159V370.399H464.144z" transform="matrix(.27903 0 0 .27903 -130.217 915.482)"/>
          <g transform="matrix(.33026 0 0 .33026 -151.316 894.635)">
            <rect width="15" height="16.625" x="463.933" y="365.467" stroke-linecap="round" stroke-linejoin="round" stroke-width="3.028" rx="2.625" ry="2.625"/>
            <path stroke-linecap="round" stroke-linejoin="round" stroke-width="3.028" d="m 463.24874,371.54269 31.10344,0 c 1.45425,0 2.625,1.17075 2.625,2.625 l 0,14.39926 c 0,1.45425 -1.21199,2.28111 -2.625,2.625 l -31.10344,7.56983 c -1.413,0.34389 -2.625,-1.17075 -2.625,-2.625 l 0,-21.96909 c 0,-1.45425 1.17075,-2.625 2.625,-2.625 z"/>
            <path stroke-linecap="round" stroke-linejoin="round" stroke-width="3.028" d="m 463.24874,371.6096 31.10344,0 c 1.45425,0 2.625,1.17075 2.625,2.625 l 0,14.33235 c 0,1.45425 -1.21199,2.28111 -2.625,2.625 l -31.10344,7.56983 c -1.413,0.34389 -2.625,-1.17075 -2.625,-2.625 l 0,-21.90218 c 0,-1.45425 1.17075,-2.625 2.625,-2.625 z"/>
            <path stroke-width="3.028" d="m 462.26171,371.52622 20.09375,0"/>
            <g mask="url(#i)">
              <rect width="30.9" height="22.649" x="860.685" y="542.897" stroke-linecap="round" stroke-linejoin="round" stroke-width="2.38" filter="url(#j)" opacity=".5" rx="2.625" ry="3.718" transform="skewX(-45.095) scale(1 .70593)"/>
            </g>
            <rect width="30.237" height="21.543" x="860.685" y="543.433" stroke-linecap="round" stroke-linejoin="round" stroke-width="3.604" rx="2.625" ry="3.718" transform="skewX(-45.095) scale(1 .70593)"/>
          </g>
          <path d="m 492.81474,377.56576 -14.33522,0 0,3.5838 2.02645,0 0,-1.47461 11.8608,0 z" transform="matrix(.27903 0 0 .27903 -130.217 915.482)"/>
        </g>
        <path d="m 5.7026894,1044.9373 c -0.185041,-0.018 -0.402396,-0.059 -0.576929,-0.1108 -0.270837,-0.079 -0.243851,0.015 -0.243851,-0.8593 0,-0.4579 0.0077,-0.7598 0.01951,-0.7646 0.01072,0 0.0317,0 0.04665,0.013 0.04847,0.037 0.294579,0.1623 0.376062,0.1926 0.186482,0.069 0.46629,0.1032 0.663393,0.083 0.436936,-0.047 0.733026,-0.2945 0.881951,-0.7389 0.120095,-0.3583 0.114052,-0.2194 0.12641,-2.9086 l 0.01137,-2.4738 0.829393,0 0.829395,0 0.0062,2.3061 c 0.0064,2.384 -5.49e-4,2.6629 -0.0777,3.0973 -0.156267,0.8809 -0.598495,1.5436 -1.254122,1.8796 -0.440731,0.2258 -1.0806,0.337 -1.637678,0.2843 z" transform="translate(-.696 -25.516)"/>
      </g>
    </mask>
    <mask id="k" maskUnits="userSpaceOnUse"/>
    <mask id="y" maskUnits="userSpaceOnUse">
      <g fill="#fff" stroke="#fff">
        <path d="M464.144 363.231H518.159V370.399H464.144z" transform="matrix(.27903 0 0 .27903 -129.521 940.997)"/>
        <g transform="matrix(.33026 0 0 .33026 -150.62 920.15)">
          <rect width="15" height="16.625" x="463.933" y="365.467" stroke-linecap="round" stroke-linejoin="round" stroke-width="3.028" rx="2.625" ry="2.625"/>
          <path stroke-linecap="round" stroke-linejoin="round" stroke-width="3.028" d="m 463.24874,371.54269 31.10344,0 c 1.45425,0 2.625,1.17075 2.625,2.625 l 0,14.39926 c 0,1.45425 -1.21199,2.28111 -2.625,2.625 l -31.10344,7.56983 c -1.413,0.34389 -2.625,-1.17075 -2.625,-2.625 l 0,-21.96909 c 0,-1.45425 1.17075,-2.625 2.625,-2.625 z"/>
          <path stroke-linecap="round" stroke-linejoin="round" stroke-width="3.028" d="m 463.24874,371.6096 31.10344,0 c 1.45425,0 2.625,1.17075 2.625,2.625 l 0,14.33235 c 0,1.45425 -1.21199,2.28111 -2.625,2.625 l -31.10344,7.56983 c -1.413,0.34389 -2.625,-1.17075 -2.625,-2.625 l 0,-21.90218 c 0,-1.45425 1.17075,-2.625 2.625,-2.625 z"/>
          <path stroke-width="3.028" d="m 462.26171,371.52622 20.09375,0"/>
          <g mask="url(#k)">
            <rect width="30.9" height="22.649" x="860.685" y="542.897" stroke-linecap="round" stroke-linejoin="round" stroke-width="2.38" filter="url(#l)" opacity=".5" rx="2.625" ry="3.718" transform="skewX(-45.095) scale(1 .70593)"/>
          </g>
          <rect width="30.237" height="21.543" x="860.685" y="543.433" stroke-linecap="round" stroke-linejoin="round" stroke-width="3.604" rx="2.625" ry="3.718" transform="skewX(-45.095) scale(1 .70593)"/>
        </g>
        <path d="m 492.81474,377.56576 -14.33522,0 0,3.5838 2.02645,0 0,-1.47461 11.8608,0 z" transform="matrix(.27903 0 0 .27903 -129.521 940.997)"/>
      </g>
    </mask>
    <filter id="D" width="1.48" height="1.48" x="-.24" y="-.24">
      <feGaussianBlur stdDeviation="1.465"/>
    </filter>
    <filter id="v" width="1.275" height="1.755" x="-.138" y="-.377">
      <feGaussianBlur stdDeviation="3.562"/>
    </filter>
    <filter id="j" width="1.275" height="1.755" x="-.138" y="-.377" color-interpolation-filters="sRGB">
      <feGaussianBlur stdDeviation="3.562"/>
    </filter>
    <filter id="l" width="1.275" height="1.755" x="-.138" y="-.377" color-interpolation-filters="sRGB">
      <feGaussianBlur stdDeviation="3.562"/>
    </filter>
    <filter id="z" width="1.54" height="1.27" x="-.27" y="-.135">
      <feGaussianBlur stdDeviation=".426"/>
    </filter>
  </defs>
  <path fill="url(#o)" d="M464.144 363.231H518.159V370.399H464.144z" transform="matrix(.27903 0 0 .27903 -129.521 -95.365)"/>
  <g transform="matrix(.33026 0 0 .33026 -150.62 -116.211)">
    <rect width="15" height="16.625" x="463.933" y="365.467" fill="#fdf7eb" stroke="url(#p)" stroke-linecap="round" stroke-linejoin="round" stroke-width="3.028" rx="2.625" ry="2.625"/>
    <path fill="url(#q)" stroke="url(#r)" stroke-linecap="round" stroke-linejoin="round" stroke-width="3.028" d="m 463.24874,371.54269 31.10344,0 c 1.45425,0 2.625,1.17075 2.625,2.625 l 0,14.39926 c 0,1.45425 -1.21199,2.28111 -2.625,2.625 l -31.10344,7.56983 c -1.413,0.34389 -2.625,-1.17075 -2.625,-2.625 l 0,-21.96909 c 0,-1.45425 1.17075,-2.625 2.625,-2.625 z"/>
    <path fill="none" stroke="url(#s)" stroke-linecap="round" stroke-linejoin="round" stroke-width="3.028" d="m 463.24874,371.6096 31.10344,0 c 1.45425,0 2.625,1.17075 2.625,2.625 l 0,14.33235 c 0,1.45425 -1.21199,2.28111 -2.625,2.625 l -31.10344,7.56983 c -1.413,0.34389 -2.625,-1.17075 -2.625,-2.625 l 0,-21.90218 c 0,-1.45425 1.17075,-2.625 2.625,-2.625 z"/>
    <path fill="none" stroke="url(#t)" stroke-width="3.028" d="m 462.26171,371.52622 20.09375,0"/>
    <g mask="url(#u)">
      <rect width="30.9" height="22.649" x="860.685" y="542.897" stroke="#000" stroke-linecap="round" stroke-linejoin="round" stroke-width="2.38" filter="url(#v)" opacity=".5" rx="2.625" ry="3.718" transform="skewX(-45.095) scale(1 .70593)"/>
    </g>
    <rect width="30.237" height="21.543" x="860.685" y="543.433" fill="url(#w)" stroke="url(#x)" stroke-linecap="round" stroke-linejoin="round" stroke-width="3.604" rx="2.625" ry="3.718" transform="skewX(-45.095) scale(1 .70593)"/>
  </g>
  <path fill="#767fad" d="m 492.81474,377.56576 -14.33522,0 0,3.5838 2.02645,0 0,-1.47461 11.8608,0 z" transform="matrix(.27903 0 0 .27903 -129.521 -95.365)"/>
  <g mask="url(#y)" transform="translate(0 -1036.362)">
    <path fill="#fff" stroke="#fff" stroke-width="2" d="m 5.70269,1044.9373 c -0.185041,-0.018 -0.402396,-0.059 -0.576929,-0.1108 -0.270837,-0.079 -0.243851,0.015 -0.243851,-0.8593 0,-0.4579 0.0077,-0.7598 0.01951,-0.7646 0.01072,0 0.0317,0 0.04665,0.013 0.04847,0.037 0.294579,0.1623 0.376062,0.1926 0.186482,0.069 0.46629,0.1032 0.663393,0.083 0.436936,-0.047 0.733026,-0.2945 0.881951,-0.7389 0.120095,-0.3583 0.114052,-0.2194 0.12641,-2.9086 l 0.01137,-2.4738 0.829393,0 0.829395,0 0.0062,2.3061 c 0.0064,2.384 -5.49e-4,2.6629 -0.0777,3.0973 -0.156267,0.8809 -0.598495,1.5436 -1.254122,1.8796 -0.440731,0.2258 -1.0806,0.337 -1.637678,0.2843 z" filter="url(#z)" opacity=".75"/>
  </g>
  <path fill="#366c9a" d="m 5.70269,1044.9373 c -0.185041,-0.018 -0.402396,-0.059 -0.576929,-0.1108 -0.270837,-0.079 -0.243851,0.015 -0.243851,-0.8593 0,-0.4579 0.0077,-0.7598 0.01951,-0.7646 0.01072,0 0.0317,0 0.04665,0.013 0.04847,0.037 0.294579,0.1623 0.376062,0.1926 0.186482,0.069 0.46629,0.1032 0.663393,0.083 0.436936,-0.047 0.733026,-0.2945 0.881951,-0.7389 0.120095,-0.3583 0.114052,-0.2194 0.12641,-2.9086 l 0.01137,-2.4738 0.829393,0 0.829395,0 0.0062,2.3061 c 0.0064,2.384 -5.49e-4,2.6629 -0.0777,3.0973 -0.156267,0.8809 -0.598495,1.5436 -1.254122,1.8796 -0.440731,0.2258 -1.0806,0.337 -1.637678,0.2843 z" transform="translate(0 -1036.362)"/>
  <g mask="url(#C)" transform="translate(-.889 -1038.303)">
    <path fill="#fff" stroke="#fff" stroke-linecap="round" stroke-linejoin="round" stroke-width="5.855" d="m -16.30668,1023.0143 c 0,0 0.754772,2.7548 2.663409,4.6634 1.908637,1.9086 4.663405,2.6634 4.663405,2.6634 0,0 -2.739141,0.7391 -4.663398,2.6634 -1.924257,1.9243 -2.663409,4.6634 -2.663409,4.6634 0,0 -0.676645,-2.6766 -2.66341,-4.6634 -1.986765,-1.9868 -4.663405,-2.6634 -4.663405,-2.6634 0,0 2.801649,-0.8017 4.663405,-2.6634 1.861756,-1.8618 2.663403,-4.6634 2.663403,-4.6634 z" filter="url(#D)" opacity=".85" transform="matrix(.51238 0 0 .51238 21.788 514.893)"/>
  </g>
  <path fill="url(#E)" d="m -7.007813,1053.62 2,0 1.492188,-1.4844 -2.0312504,0 z" transform="translate(14.958 -1046.604)"/>
  <path fill="url(#F)" d="m -5.007813,1055.62 4,0 0,-1 -0.476562,-0.4844 -2.03125,0 z" transform="translate(14.958 -1046.604)"/>
  <path fill="url(#G)" d="m -1.484375,1052.1356 0,2 0.476562,0.4844 0,-2 z" transform="translate(14.958 -1046.604)"/>
  <path fill="url(#H)" d="m -5.007813,1053.62 0,2 1.492188,-1.4844 0,-2 z" transform="translate(14.958 -1046.604)"/>
  <path fill="url(#I)" d="m -7.007813,1048.62 0,5 1.4609376,-1.4844 0,-2 z" transform="translate(14.958 -1046.604)"/>
  <path fill="url(#J)" d="m -5.007813,1048.62 -2,0 1.4609375,1.5156 2.0312505,0 z" transform="translate(14.958 -1046.604)"/>
  <path fill="url(#K)" d="m -5.007813,1048.62 0,0 1.503907,1.5273 0,-1.5156 z" transform="translate(14.958 -1046.604)"/>
  <path fill="url(#L)" d="m -1.011718,1052.1356 -0.472657,0 0.476563,0.4844 -0.0039,0 z" transform="translate(14.958 -1046.604)"/>
  <path fill="#a27d18" stroke="#a27d18" stroke-width="1.032" d="M-758.823-740.411H-754.24V-735.957H-758.823z" transform="rotate(-135 -218.182 -526.007)"/>
  <path fill="url(#M)" d="m 12.471186,1054.309 1.001133,0 0,1.946 1.986639,0 0,1.0167 -1.986639,0 0,2.043 -1.001133,0 0,-2.043 -1.98664,0 0,-1.0167 1.98664,0 z" transform="translate(-.516 -1052.228)"/>
</svg>
