<svg xmlns="http://www.w3.org/2000/svg" xmlns:xlink="http://www.w3.org/1999/xlink" width="16" height="16">
  <defs>
    <linearGradient id="g">
      <stop offset="0" stop-color="#c18965"/>
      <stop offset="1" stop-color="#975c45"/>
    </linearGradient>
    <linearGradient id="a">
      <stop offset="0" stop-color="#5f392d"/>
      <stop offset=".182" stop-color="#9e7058"/>
      <stop offset=".364" stop-color="#794f40"/>
      <stop offset=".5" stop-color="#794f40"/>
      <stop offset=".636" stop-color="#794f40"/>
      <stop offset=".818" stop-color="#9e7058"/>
      <stop offset="1" stop-color="#5f392d"/>
    </linearGradient>
    <linearGradient id="e">
      <stop offset="0" stop-color="#faefba"/>
      <stop offset="1" stop-color="#9e6542"/>
    </linearGradient>
    <linearGradient id="d">
      <stop offset="0" stop-color="#faefba"/>
      <stop offset="1" stop-color="#9e6542"/>
    </linearGradient>
    <linearGradient id="b">
      <stop offset="0" stop-color="#faefba"/>
      <stop offset="1" stop-color="#9e6542"/>
    </linearGradient>
    <linearGradient id="c">
      <stop offset="0" stop-color="#faefba"/>
      <stop offset="1" stop-color="#9e6542"/>
    </linearGradient>
    <linearGradient xlink:href="#a" id="p" x1="355.297" x2="394.719" y1="449.881" y2="449.881" gradientTransform="rotate(90 375.006 449.881)" gradientUnits="userSpaceOnUse"/>
    <linearGradient id="f">
      <stop offset="0" stop-color="#5f392d"/>
      <stop offset=".182" stop-color="#9e7058"/>
      <stop offset=".364" stop-color="#794f40"/>
      <stop offset=".5" stop-color="#794f40"/>
      <stop offset=".636" stop-color="#794f40"/>
      <stop offset=".818" stop-color="#9e7058"/>
      <stop offset="1" stop-color="#5f392d"/>
    </linearGradient>
    <linearGradient xlink:href="#f" id="q" x1="355.297" x2="394.719" y1="449.881" y2="449.881" gradientTransform="rotate(180 375.007 449.882)" gradientUnits="userSpaceOnUse"/>
    <linearGradient xlink:href="#g" id="o" x1="366.048" x2="366.048" y1="430.172" y2="466.01" gradientUnits="userSpaceOnUse"/>
    <linearGradient xlink:href="#h" id="t" x1="10" x2="10.008" y1="5" y2="6.984" gradientTransform="translate(-15.016 1046.636)" gradientUnits="userSpaceOnUse"/>
    <linearGradient id="h">
      <stop offset="0" stop-color="#fff"/>
      <stop offset="1" stop-color="#fff" stop-opacity="0"/>
    </linearGradient>
    <linearGradient xlink:href="#h" id="u" x1="12" x2="12" y1="1043.362" y2="1045.347" gradientTransform="translate(-15.016 10.273)" gradientUnits="userSpaceOnUse"/>
    <linearGradient xlink:href="#h" id="v" x1="13" x2="15.008" y1="1043.362" y2="1043.347" gradientTransform="translate(-15.016 10.273)" gradientUnits="userSpaceOnUse"/>
    <linearGradient xlink:href="#h" id="w" x1="12" x2="10.008" y1="1042.362" y2="1042.362" gradientTransform="translate(-15.016 10.273)" gradientUnits="userSpaceOnUse"/>
    <linearGradient xlink:href="#h" id="x" x1="10" x2="8.008" y1="1041.362" y2="1041.347" gradientTransform="translate(-15.016 10.273)" gradientUnits="userSpaceOnUse"/>
    <linearGradient xlink:href="#h" id="y" x1="10" x2="10.008" y1="1040.362" y2="1038.347" gradientTransform="translate(-15.016 10.273)" gradientUnits="userSpaceOnUse"/>
    <linearGradient xlink:href="#h" id="z" x1="12" x2="10.008" y1="1038.362" y2="1038.347" gradientTransform="translate(-15.016 10.273)" gradientUnits="userSpaceOnUse"/>
    <linearGradient xlink:href="#h" id="A" x1="14" x2="14" y1="1041.362" y2="1043.347" gradientTransform="translate(-15.016 10.273)" gradientUnits="userSpaceOnUse"/>
    <linearGradient id="i">
      <stop offset="0" stop-color="#e0c576"/>
      <stop offset="1" stop-color="#9e7916"/>
    </linearGradient>
    <linearGradient xlink:href="#j" id="C" x1=".938" x2=".938" y1="4.844" y2="7.549" gradientTransform="matrix(2.31999 0 0 2.31999 10.2 1043.185)" gradientUnits="userSpaceOnUse"/>
    <linearGradient id="j">
      <stop offset="0" stop-color="#f7f9fb"/>
      <stop offset="1" stop-color="#ffd680"/>
    </linearGradient>
    <radialGradient xlink:href="#b" id="m" cx="387.597" cy="442.578" r="6.188" fx="387.597" fy="442.578" gradientTransform="matrix(2.58664 0 0 2.26993 -639.817 -549.016)" gradientUnits="userSpaceOnUse"/>
    <radialGradient xlink:href="#c" id="n" cx="387.597" cy="442.578" r="6.188" fx="387.597" fy="442.578" gradientTransform="matrix(2.58664 0 0 2.26993 -621.852 -549.016)" gradientUnits="userSpaceOnUse"/>
    <radialGradient xlink:href="#d" id="l" cx="387.597" cy="442.578" r="6.188" fx="387.597" fy="442.578" gradientTransform="matrix(2.58664 0 0 2.26993 -621.852 -566.97)" gradientUnits="userSpaceOnUse"/>
    <radialGradient xlink:href="#e" id="k" cx="387.597" cy="442.578" r="6.188" fx="387.597" fy="442.578" gradientTransform="matrix(2.58664 0 0 2.26993 -639.817 -566.97)" gradientUnits="userSpaceOnUse"/>
    <radialGradient xlink:href="#i" id="B" cx="-757.205" cy="-738.838" r="3.48" fx="-757.205" fy="-738.838" gradientTransform="matrix(1.85082 0 0 1.77506 644.25 572.636)" gradientUnits="userSpaceOnUse"/>
    <filter id="s" width="1.48" height="1.48" x="-.24" y="-.24" color-interpolation-filters="sRGB">
      <feGaussianBlur stdDeviation="1.465"/>
    </filter>
    <mask id="r" maskUnits="userSpaceOnUse">
      <g fill="#fff" stroke="#fff" font-family="Sans" font-size="13.589" font-weight="400" letter-spacing="0" style="line-height:125%" word-spacing="0">
        <g stroke-width="3.584">
          <path stroke-linecap="round" stroke-linejoin="round" d="M357.081 431.971H375.046V449.936H357.081zM375.046 431.971H393.011V449.936H375.046z" transform="matrix(1 0 0 1 116.015 -73.885)"/>
          <path stroke-linecap="round" stroke-linejoin="round" d="m 357.08057,449.75837 17.96523,0 0,18.13262 -17.96523,0 z" transform="matrix(1 0 0 1 116.015 -73.885)"/>
          <path stroke-linecap="round" stroke-linejoin="round" d="m 375.0458,449.75837 17.96522,0 0,18.13262 -17.96522,0 z" transform="matrix(1 0 0 1 116.015 -73.885)"/>
          <path stroke-linecap="round" stroke-linejoin="round" d="m 357.27589,432.15148 0,17.71804 0,17.85756 17.71805,0 17.85755,0 0,-17.85756 0,-0.13951 0,-17.57853 -17.85755,0 -17.71805,0 z" style="line-height:125%" transform="matrix(1 0 0 1 116.015 -73.885)"/>
          <path d="m 375.00635,426.58855 0,46.58947" transform="matrix(1 0 0 1 116.015 -73.885)"/>
          <path d="m 398.30108,449.88328 -46.58947,0" style="line-height:125%" transform="matrix(1 0 0 1 116.015 -73.885)"/>
        </g>
      </g>
    </mask>
  </defs>
  <g fill="#fff" font-family="Sans" font-size="13.589" font-weight="400" letter-spacing="0" style="line-height:125%" word-spacing="0">
    <g stroke-width="3.584">
      <path fill="url(#k)" stroke="#c37e3b" stroke-linecap="round" stroke-linejoin="round" d="M357.081 431.971H375.046V449.936H357.081z" transform="matrix(.27903 0 0 .27903 -97.14 -117.032)"/>
      <path fill="url(#l)" stroke="#c37e3b" stroke-linecap="round" stroke-linejoin="round" d="M375.046 431.971H393.011V449.936H375.046z" transform="matrix(.27903 0 0 .27903 -97.14 -117.032)"/>
      <path fill="url(#m)" stroke="#a45d2b" stroke-linecap="round" stroke-linejoin="round" d="m 357.08057,449.75837 17.96523,0 0,18.13262 -17.96523,0 z" transform="matrix(.27903 0 0 .27903 -97.14 -117.032)"/>
      <path fill="url(#n)" stroke="#a45d2b" stroke-linecap="round" stroke-linejoin="round" d="m 375.0458,449.75837 17.96522,0 0,18.13262 -17.96522,0 z" transform="matrix(.27903 0 0 .27903 -97.14 -117.032)"/>
      <path fill="none" stroke="url(#o)" stroke-linecap="round" stroke-linejoin="round" d="m 357.27589,432.15148 0,17.71804 0,17.85756 17.71805,0 17.85755,0 0,-17.85756 0,-0.13951 0,-17.57853 -17.85755,0 -17.71805,0 z" style="line-height:125%" transform="matrix(.27903 0 0 .27903 -97.14 -117.032)"/>
      <path fill="#915323" stroke="url(#p)" d="m 375.00635,426.58855 0,46.58947" transform="matrix(.27903 0 0 .27903 -97.14 -117.032)"/>
      <path fill="#915323" stroke="url(#q)" d="m 398.30108,449.88328 -46.58947,0" style="line-height:125%" transform="matrix(.27903 0 0 .27903 -97.14 -117.032)"/>
    </g>
  </g>
  <g mask="url(#r)" opacity=".75" transform="matrix(.27903 0 0 .27903 -129.512 -96.416)">
    <g mask="none">
      <path fill="#fff" stroke="#fff" stroke-linecap="round" stroke-linejoin="round" stroke-width="5.855" d="m -16.30668,1023.0143 c 0,0 0.754772,2.7548 2.663409,4.6634 1.908637,1.9086 4.663405,2.6634 4.663405,2.6634 0,0 -2.739141,0.7391 -4.663398,2.6634 -1.924257,1.9243 -2.663409,4.6634 -2.663409,4.6634 0,0 -0.676645,-2.6766 -2.66341,-4.6634 -1.986765,-1.9868 -4.663405,-2.6634 -4.663405,-2.6634 0,0 2.801649,-0.8017 4.663405,-2.6634 1.861756,-1.8618 2.663403,-4.6634 2.663403,-4.6634 z" filter="url(#s)" transform="matrix(1.83627 0 0 1.83627 539.137 -1530.304)"/>
    </g>
  </g>
  <path fill="url(#t)" d="m -7.007813,1053.62 2,0 1.492188,-1.4844 -2.0312504,0 z" transform="matrix(1 0 0 1 15.023 -1046.604)"/>
  <path fill="url(#u)" d="m -5.007813,1055.62 4,0 0,-1 -0.476562,-0.4844 -2.03125,0 z" transform="matrix(1 0 0 1 15.023 -1046.604)"/>
  <path fill="url(#v)" d="m -1.484375,1052.1356 0,2 0.476562,0.4844 0,-2 z" transform="matrix(1 0 0 1 15.023 -1046.604)"/>
  <path fill="url(#w)" d="m -5.007813,1053.62 0,2 1.492188,-1.4844 0,-2 z" transform="matrix(1 0 0 1 15.023 -1046.604)"/>
  <path fill="url(#x)" d="m -7.007813,1048.62 0,5 1.4609376,-1.4844 0,-2 z" transform="matrix(1 0 0 1 15.023 -1046.604)"/>
  <path fill="url(#y)" d="m -5.007813,1048.62 -2,0 1.4609375,1.5156 2.0312505,0 z" transform="matrix(1 0 0 1 15.023 -1046.604)"/>
  <path fill="url(#z)" d="m -5.007813,1048.62 0,0 1.503907,1.5273 0,-1.5156 z" transform="matrix(1 0 0 1 15.023 -1046.604)"/>
  <path fill="url(#A)" d="m -1.011718,1052.1356 -0.472657,0 0.476563,0.4844 -0.0039,0 z" transform="matrix(1 0 0 1 15.023 -1046.604)"/>
  <path fill="url(#B)" stroke="#a27d18" stroke-width="1.032" d="M-758.823-740.411H-754.24V-735.957H-758.823z" transform="rotate(-135 -218.15 -526.02)"/>
  <path fill="url(#C)" d="m 12.471186,1054.309 1.001133,0 0,1.946 1.986639,0 0,1.0167 -1.986639,0 0,2.043 -1.001133,0 0,-2.043 -1.98664,0 0,-1.0167 1.98664,0 z" transform="matrix(1 0 0 1 -.45 -1052.228)"/>
</svg>
