<?xml version="1.0" encoding="UTF-8" standalone="no"?>
<svg
   width="16"
   height="16"
   version="1.1"
   id="svg36"
   xmlns:xlink="http://www.w3.org/1999/xlink"
   xmlns="http://www.w3.org/2000/svg"
   xmlns:svg="http://www.w3.org/2000/svg">
  <defs
     id="defs29">
    <linearGradient
       id="f">
      <stop
         offset="0"
         stop-color="#b9d3a2"
         id="stop1" />
      <stop
         offset=".403"
         stop-color="#41894d"
         id="stop2" />
      <stop
         offset="1"
         stop-color="#4f9e55"
         id="stop3" />
    </linearGradient>
    <linearGradient
       id="e">
      <stop
         offset="0"
         stop-color="#b7b2d6"
         id="stop4" />
      <stop
         offset=".5"
         stop-color="#564895"
         id="stop5" />
      <stop
         offset="1"
         stop-color="#7e76ac"
         id="stop6" />
    </linearGradient>
    <linearGradient
       id="c">
      <stop
         offset="0"
         stop-color="#f8d078"
         id="stop7" />
      <stop
         offset="1"
         stop-color="#f8f0c8"
         id="stop8" />
    </linearGradient>
    <linearGradient
       id="a">
      <stop
         offset="0"
         stop-color="#c48a4e"
         id="stop9" />
      <stop
         offset="1"
         stop-color="#ad6c24"
         id="stop10" />
    </linearGradient>
    <linearGradient
       id="b">
      <stop
         offset="0"
         stop-color="#c38536"
         id="stop11" />
      <stop
         offset=".154"
         stop-color="#f2dc91"
         id="stop12" />
      <stop
         offset=".5"
         stop-color="#fbdc8b"
         id="stop13" />
      <stop
         offset=".75"
         stop-color="#e6bd7a"
         id="stop14" />
      <stop
         offset="1"
         stop-color="#ba772f"
         id="stop15" />
    </linearGradient>
    <linearGradient
       id="d">
      <stop
         offset="0"
         stop-color="#9e6627"
         id="stop16" />
      <stop
         offset="1"
         stop-color="#c38536"
         id="stop17" />
    </linearGradient>
    <linearGradient
       xlink:href="#a"
       id="i"
       x1="531.093"
       x2="531.093"
       y1="366.789"
       y2="371.179"
       gradientTransform="translate(-61.367 1.445)"
       gradientUnits="userSpaceOnUse" />
    <linearGradient
       xlink:href="#b"
       id="l"
       x1="523.008"
       x2="543.914"
       y1="373.229"
       y2="373.229"
       gradientTransform="translate(-60.559 1.419)"
       gradientUnits="userSpaceOnUse" />
    <linearGradient
       xlink:href="#c"
       id="j"
       x1="538.006"
       x2="538.006"
       y1="396.223"
       y2="374.212"
       gradientTransform="translate(-60.559)"
       gradientUnits="userSpaceOnUse" />
    <linearGradient
       xlink:href="#d"
       id="k"
       x1="548.459"
       x2="548.459"
       y1="398.988"
       y2="373.771"
       gradientTransform="translate(-60.559)"
       gradientUnits="userSpaceOnUse" />
    <linearGradient
       xlink:href="#e"
       id="o"
       x1="8.738"
       x2="8.738"
       y1="3.016"
       y2="5.8"
       gradientUnits="userSpaceOnUse" />
    <linearGradient
       xlink:href="#f"
       id="r"
       x1="8.738"
       x2="8.738"
       y1="3.102"
       y2="6.872"
       gradientUnits="userSpaceOnUse" />
    <linearGradient
       id="g">
      <stop
         offset="0"
         stop-color="#f8d078"
         id="stop18" />
      <stop
         offset="1"
         stop-color="#f8f0c8"
         id="stop19" />
    </linearGradient>
    <linearGradient
       id="h">
      <stop
         offset="0"
         stop-color="#9e6627"
         id="stop20" />
      <stop
         offset="1"
         stop-color="#bc8532"
         id="stop21" />
    </linearGradient>
    <linearGradient
       xlink:href="#g"
       id="u"
       x1="537.943"
       x2="538.833"
       y1="397.561"
       y2="381.572"
       gradientTransform="matrix(1 0 0 1.41657 344.324 0)"
       gradientUnits="userSpaceOnUse" />
    <linearGradient
       xlink:href="#h"
       id="v"
       x1="548.459"
       x2="548.016"
       y1="398.988"
       y2="381.198"
       gradientTransform="matrix(1 0 0 1.41657 344.324 0)"
       gradientUnits="userSpaceOnUse" />
    <filter
       id="t"
       width="1.6685063"
       height="1.8599762"
       x="-0.33425317"
       y="-0.42998808"
       color-interpolation-filters="sRGB">
      <feGaussianBlur
         stdDeviation="3.562"
         id="feGaussianBlur21" />
    </filter>
    <filter
       id="q"
       width="1.6936177"
       height="1.6936177"
       x="-0.34680887"
       y="-0.34680886">
      <feGaussianBlur
         stdDeviation=".422"
         id="feGaussianBlur22" />
    </filter>
    <filter
       id="n"
       width="1.6936177"
       height="1.6936177"
       x="-0.34680887"
       y="-0.34680886">
      <feGaussianBlur
         stdDeviation=".422"
         id="feGaussianBlur23" />
    </filter>
    <mask
       id="s"
       maskUnits="userSpaceOnUse">
      <g
         fill="#fff"
         stroke="#fff"
         id="g24">
        <path
           stroke-width=".938"
           d="m 11.343751,4.499999 c 0,1.553301 -1.259199,2.8125003 -2.8125,2.8125003 -1.553301,0 -2.8125003,-1.2591993 -2.8125003,-2.8125003 0,-1.5533009 1.2591993,-2.8125002 2.8125003,-2.8125002 1.553301,0 2.8125,1.2591993 2.8125,2.8125002 z"
           transform="translate(454.108 354.096) scale(3.22812)"
           id="path23" />
        <path
           stroke-width=".938"
           d="m 11.343751,4.499999 c 0,1.553301 -1.259199,2.8125003 -2.8125,2.8125003 -1.553301,0 -2.8125003,-1.2591993 -2.8125003,-2.8125003 0,-1.5533009 1.2591993,-2.8125002 2.8125003,-2.8125002 1.553301,0 2.8125,1.2591993 2.8125,2.8125002 z"
           transform="translate(469.466 360.152) scale(3.22812)"
           id="path24" />
      </g>
    </mask>
    <mask
       id="p"
       maskUnits="userSpaceOnUse">
      <g
         fill="#fff"
         stroke="#fff"
         id="g27">
        <g
           stroke-width="3.028"
           transform="matrix(1.18358 0 0 1.18358 -79.255 -74.545)"
           id="g26">
          <rect
             width="15"
             height="16.625"
             x="463.743"
             y="368.495"
             stroke-linecap="round"
             stroke-linejoin="round"
             rx="2.625"
             ry="2.625"
             id="rect24" />
          <path
             stroke-linecap="round"
             stroke-linejoin="round"
             d="m 463.24874,374.64819 28.07551,0 c 1.45425,0 2.625,1.17075 2.625,2.625 l 0,11.29376 c 0,1.45425 -1.22088,2.24642 -2.625,2.625 l -28.07551,7.56983 c -1.40411,0.37858 -2.625,-1.17075 -2.625,-2.625 l 0,-18.86359 c 0,-1.45425 1.17075,-2.625 2.625,-2.625 z"
             id="path25" />
          <path
             d="m 462.26171,374.64819 20.09375,0"
             id="path26" />
        </g>
        <path
           stroke-width=".938"
           d="m 11.343751,4.499999 a 2.8125002,2.8125002 0 1 1 -5.6250003,0 2.8125002,2.8125002 0 1 1 5.6250003,0 z"
           transform="matrix(3.82075 0 0 3.82075 458.22 344.557)"
           id="path27" />
      </g>
    </mask>
    <mask
       id="m"
       maskUnits="userSpaceOnUse">
      <g
         fill="#fff"
         stroke="#fff"
         stroke-width="3.028"
         transform="matrix(1.18358 0 0 1.18358 -79.255 -74.545)"
         id="g29">
        <rect
           width="15"
           height="16.625"
           x="463.743"
           y="368.495"
           stroke-linecap="round"
           stroke-linejoin="round"
           rx="2.625"
           ry="2.625"
           id="rect27" />
        <path
           stroke-linecap="round"
           stroke-linejoin="round"
           d="m 463.24874,374.64819 28.07551,0 c 1.45425,0 2.625,1.17075 2.625,2.625 l 0,11.29376 c 0,1.45425 -1.22088,2.24642 -2.625,2.625 l -28.07551,7.56983 c -1.40411,0.37858 -2.625,-1.17075 -2.625,-2.625 l 0,-18.86359 c 0,-1.45425 1.17075,-2.625 2.625,-2.625 z"
           id="path28" />
        <path
           d="m 462.26171,374.64819 20.09375,0"
           id="path29" />
      </g>
    </mask>
  </defs>
  <g
     stroke-width="3.028"
     transform="matrix(.33026 0 0 .33026 -151.626 -117.216)"
     id="g31">
    <rect
       width="15"
       height="16.625"
       x="463.743"
       y="368.495"
       fill="#fdf7eb"
       stroke="url(#i)"
       stroke-linecap="round"
       stroke-linejoin="round"
       rx="2.625"
       ry="2.625"
       id="rect29" />
    <path
       fill="url(#j)"
       stroke="url(#k)"
       stroke-linecap="round"
       stroke-linejoin="round"
       d="m 463.24874,374.64819 28.07551,0 c 1.45425,0 2.625,1.17075 2.625,2.625 l 0,11.29376 c 0,1.45425 -1.22088,2.24642 -2.625,2.625 l -28.07551,7.56983 c -1.40411,0.37858 -2.625,-1.17075 -2.625,-2.625 l 0,-18.86359 c 0,-1.45425 1.17075,-2.625 2.625,-2.625 z"
       id="path30" />
    <path
       fill="none"
       stroke="url(#l)"
       d="m 462.26171,374.64819 20.09375,0"
       id="path31" />
  </g>
  <g
     mask="url(#m)"
     transform="matrix(.27903 0 0 .27903 -129.512 -96.416)"
     id="g32">
    <path
       fill="#fff"
       stroke="#fff"
       stroke-width="1.876"
       d="m 11.343751,4.499999 c 0,1.553301 -1.259199,2.8125003 -2.8125,2.8125003 -1.553301,0 -2.8125003,-1.2591993 -2.8125003,-2.8125003 0,-1.5533009 1.2591993,-2.8125002 2.8125003,-2.8125002 1.553301,0 2.8125,1.2591993 2.8125,2.8125002 z"
       filter="url(#n)"
       opacity=".5"
       transform="matrix(3.82075 0 0 3.82075 458.22 344.557)"
       id="path32" />
  </g>
  <path
     fill="url(#o)"
     stroke="#564895"
     stroke-width=".938"
     d="m 11.343751,4.499999 c 0,1.553301 -1.259199,2.8125003 -2.8125,2.8125003 -1.553301,0 -2.8125003,-1.2591993 -2.8125003,-2.8125003 0,-1.5533009 1.2591993,-2.8125002 2.8125003,-2.8125002 1.553301,0 2.8125,1.2591993 2.8125,2.8125002 z"
     transform="matrix(1.06611 0 0 1.06611 -1.653 -.273)"
     id="path33" />
  <g
     mask="url(#p)"
     transform="matrix(.27903 0 0 .27903 -129.512 -96.416)"
     id="g34">
    <path
       fill="#fff"
       stroke="#fff"
       stroke-width="1.876"
       d="m 11.343751,4.499999 c 0,1.553301 -1.259199,2.8125003 -2.8125,2.8125003 -1.553301,0 -2.8125003,-1.2591993 -2.8125003,-2.8125003 0,-1.5533009 1.2591993,-2.8125002 2.8125003,-2.8125002 1.553301,0 2.8125,1.2591993 2.8125,2.8125002 z"
       filter="url(#q)"
       opacity=".5"
       transform="matrix(3.82075 0 0 3.82075 476.396 351.724)"
       id="path34" />
  </g>
  <path
     fill="url(#r)"
     stroke="#2d8745"
     stroke-width=".938"
     d="m 11.343751,4.499999 c 0,1.553301 -1.259199,2.8125003 -2.8125,2.8125003 -1.553301,0 -2.8125003,-1.2591993 -2.8125003,-2.8125003 0,-1.5533009 1.2591993,-2.8125002 2.8125003,-2.8125002 1.553301,0 2.8125,1.2591993 2.8125,2.8125002 z"
     transform="matrix(1.06611 0 0 1.06611 3.419 1.727)"
     id="path35" />
  <g
     transform="matrix(.33026 0 0 .33026 -151.626 -117.216)"
     id="g36">
    <g
       mask="url(#s)"
       id="g35">
      <rect
         width="29.136"
         height="22.649"
         x="860.685"
         y="542.897"
         stroke="#000"
         stroke-linecap="round"
         stroke-linejoin="round"
         stroke-width="2.38"
         filter="url(#t)"
         opacity=".5"
         rx="2.625"
         ry="3.718"
         transform="matrix(1 0 -.70828 .70593 0 0)"
         id="rect35" />
    </g>
    <rect
       width="30.475"
       height="21.378"
       x="860.685"
       y="543.567"
       fill="url(#u)"
       stroke="url(#v)"
       stroke-linecap="round"
       stroke-linejoin="round"
       stroke-width="3.604"
       rx="2.625"
       ry="3.718"
       transform="skewX(-45.095) scale(1 .70593)"
       id="rect36" />
  </g>
</svg>
