<svg xmlns="http://www.w3.org/2000/svg" xmlns:xlink="http://www.w3.org/1999/xlink" width="16" height="16">
  <defs>
    <linearGradient id="c">
      <stop offset="0" stop-color="#4f9e55"/>
      <stop offset=".5" stop-color="#418a4d"/>
      <stop offset="1" stop-color="#a4c589"/>
    </linearGradient>
    <linearGradient xlink:href="#a" id="d" x1="538.006" x2="538.006" y1="396.223" y2="374.212" gradientTransform="translate(-4.901)" gradientUnits="userSpaceOnUse"/>
    <linearGradient id="a">
      <stop offset="0" stop-color="#b1c8e5"/>
      <stop offset="1" stop-color="#c6e4f0"/>
    </linearGradient>
    <linearGradient xlink:href="#b" id="e" x1="523.008" x2="543.914" y1="373.229" y2="373.229" gradientTransform="translate(-4.901 2.086)" gradientUnits="userSpaceOnUse"/>
    <linearGradient id="b">
      <stop offset="0" stop-color="#3870da"/>
      <stop offset=".154" stop-color="#78b8f0"/>
      <stop offset=".657" stop-color="#78b8f0"/>
      <stop offset=".923" stop-color="#3068d8"/>
      <stop offset="1" stop-color="#3068d8"/>
    </linearGradient>
    <linearGradient xlink:href="#c" id="h" x1="388.637" x2="388.637" y1="478.188" y2="462.115" gradientUnits="userSpaceOnUse"/>
    <filter id="j" width="1.534" height="1.271" x="-.267" y="-.136" color-interpolation-filters="sRGB">
      <feGaussianBlur stdDeviation=".52"/>
    </filter>
    <filter id="g" width="1.36" height="1.36" x="-.18" y="-.18">
      <feGaussianBlur stdDeviation=".884"/>
    </filter>
    <mask id="i" maskUnits="userSpaceOnUse">
      <g fill="#fff" stroke="#fff" font-family="Sans" font-size="13.589" font-weight="400" letter-spacing="0" word-spacing="0">
        <g style="line-height:125%">
          <path d="M527.154 311.823H559.434V317.62H527.154z" transform="translate(-197.482 904.525) scale(.34584)"/>
          <g stroke-width="4.491" transform="matrix(.22269 0 0 .22269 -128.607 929.312)">
            <rect width="16.932" height="16.625" x="519.59" y="366.309" stroke-linecap="round" stroke-linejoin="round" rx="2.625" ry="2.625"/>
            <path stroke-linecap="round" stroke-linejoin="round" d="m 518.90604,375.19128 31.10344,0 c 1.45425,0 2.625,1.17075 2.625,2.625 l 0,18.24441 c 0,1.45425 -1.17075,2.62145 -2.625,2.625 l -31.10344,0.0761 c -1.45424,0.004 -2.625,-1.17075 -2.625,-2.625 l 0,-18.3205 c 0,-1.45425 1.17075,-2.62501 2.625,-2.62501 z"/>
            <path d="m 517.91901,375.31514 20.09375,0"/>
          </g>
        </g>
        <g style="line-height:125%">
          <path stroke-linecap="round" stroke-linejoin="round" stroke-width="2.65" d="m 398.75,468.23718 c 0,5.86803 -4.75697,10.625 -10.625,10.625 -5.86803,0 -10.625,-4.75697 -10.625,-10.625 0,-5.86802 4.75697,-10.625 10.625,-10.625 5.86803,0 10.625,4.75698 10.625,10.625 z" transform="translate(-151.08 837.15) scale(.37742)"/>
          <path d="m -6.1011961,1039.79 c -0.3370751,0.1654 -0.6884533,0.2901 -1.0541354,0.3744 -0.3656932,0.084 -0.7472802,0.1263 -1.1447625,0.1263 -1.1861039,0 -2.125764,-0.3128 -2.818977,-0.9385 -0.693218,-0.6286 -1.039827,-1.4797 -1.039826,-2.5534 -1e-6,-1.0768 0.346608,-1.9279 1.039826,-2.5536 0.693213,-0.6286 1.6328731,-0.9428 2.818977,-0.9428 0.3974823,0 0.7790693,0.042 1.1447625,0.1262 0.3656821,0.084 0.7170603,0.2091 1.0541354,0.3745 l 0,1.3941 c -0.3402551,-0.2195 -0.6757337,-0.3806 -1.0064371,-0.4828 -0.3307143,-0.1022 -0.6789124,-0.1534 -1.0445956,-0.1534 -0.6550623,0 -1.1702049,0.1986 -1.5454296,0.5956 -0.3752296,0.3971 -0.5628426,0.9443 -0.5628406,1.6422 -2e-6,0.6948 0.187611,1.2406 0.5628406,1.6376 0.3752247,0.397 0.8903673,0.5956 1.5454296,0.5956 0.3656832,0 0.7138813,-0.051 1.0445956,-0.1534 0.3307034,-0.1023 0.666182,-0.2632 1.0064371,-0.4828 l 0,1.3942" font-weight="700" style="-inkscape-font-specification:Sans Bold" transform="matrix(.68025 0 0 .68025 1.268 308.57)"/>
        </g>
      </g>
    </mask>
    <mask id="f" maskUnits="userSpaceOnUse">
      <g fill="#fff" stroke="#fff" font-family="Sans" font-size="13.589" font-weight="400" letter-spacing="0" style="line-height:125%" word-spacing="0">
        <path d="M527.154 311.823H559.434V317.62H527.154z" transform="translate(-197.482 924.525) scale(.34584)"/>
        <g stroke-width="4.491" transform="matrix(.22269 0 0 .22269 -128.607 949.312)">
          <rect width="16.932" height="16.625" x="519.59" y="366.309" stroke-linecap="round" stroke-linejoin="round" rx="2.625" ry="2.625"/>
          <path stroke-linecap="round" stroke-linejoin="round" d="m 518.90604,375.19128 31.10344,0 c 1.45425,0 2.625,1.17075 2.625,2.625 l 0,18.24441 c 0,1.45425 -1.17075,2.62145 -2.625,2.625 l -31.10344,0.0761 c -1.45424,0.004 -2.625,-1.17075 -2.625,-2.625 l 0,-18.3205 c 0,-1.45425 1.17075,-2.62501 2.625,-2.62501 z"/>
          <path d="m 517.91901,375.31514 20.09375,0"/>
        </g>
      </g>
    </mask>
  </defs>
  <g fill="#fff" font-family="Sans" font-size="13.589" font-weight="400" letter-spacing="0" word-spacing="0">
    <g style="line-height:125%">
      <path fill="#7b88ba" d="M527.154 314.624H559.434V317.62H527.154z" style="line-height:125%" transform="translate(-181.353 -103.823) scale(.34584)"/>
      <g stroke-width="4.491" transform="matrix(.22269 0 0 .22269 -112.477 -79.036)">
        <rect width="32.412" height="16.625" x="521.178" y="366.309" fill="#f8e0d0" stroke="#9a9296" stroke-linecap="round" stroke-linejoin="round" rx="5.8" ry="5.8"/>
        <path fill="url(#d)" stroke="#7c81a2" stroke-linecap="round" stroke-linejoin="round" d="m 518.90604,375.19128 31.10344,0 c 1.45425,0 2.625,1.17075 2.625,2.625 l 0,16.98144 c 0,1.45425 -1.17075,2.62144 -2.625,2.625 l -31.10344,0.0761 c -1.45424,0.004 -2.625,-1.17075 -2.625,-2.625 l 0,-17.05753 c 0,-1.45425 1.17075,-2.62501 2.625,-2.62501 z"/>
        <path fill="none" stroke="url(#e)" d="m 517.91901,375.31514 20.09375,0"/>
      </g>
      <path fill="#73667b" d="M527.154 311.823H559.434V314.819H527.154z" style="line-height:125%" transform="translate(-181.353 -103.823) scale(.34584)"/>
      <g mask="url(#f)" transform="translate(16.13 -1028.348)">
        <g stroke="#fff" filter="url(#g)" opacity=".75" style="line-height:125%" transform="matrix(.68025 0 0 .68025 1.268 328.57)">
          <path stroke-linecap="round" stroke-linejoin="round" stroke-width="2.65" d="m 398.75,468.23718 c 0,5.86803 -4.75697,10.625 -10.625,10.625 -5.86803,0 -10.625,-4.75697 -10.625,-10.625 0,-5.86802 4.75697,-10.625 10.625,-10.625 5.86803,0 10.625,4.75698 10.625,10.625 z" transform="matrix(.55483 0 0 .55483 -223.96 777.043)"/>
          <path d="m -6.1011961,1039.79 c -0.3370751,0.1654 -0.6884533,0.2901 -1.0541354,0.3744 -0.3656932,0.084 -0.7472802,0.1263 -1.1447625,0.1263 -1.1861039,0 -2.125764,-0.3128 -2.818977,-0.9385 -0.693218,-0.6286 -1.039827,-1.4797 -1.039826,-2.5534 -1e-6,-1.0768 0.346608,-1.9279 1.039826,-2.5536 0.693213,-0.6286 1.6328731,-0.9428 2.818977,-0.9428 0.3974823,0 0.7790693,0.042 1.1447625,0.1262 0.3656821,0.084 0.7170603,0.2091 1.0541354,0.3745 l 0,1.3941 c -0.3402551,-0.2195 -0.6757337,-0.3806 -1.0064371,-0.4828 -0.3307143,-0.1022 -0.6789124,-0.1534 -1.0445956,-0.1534 -0.6550623,0 -1.1702049,0.1986 -1.5454296,0.5956 -0.3752296,0.3971 -0.5628426,0.9443 -0.5628406,1.6422 -2e-6,0.6948 0.187611,1.2406 0.5628406,1.6376 0.3752247,0.397 0.8903673,0.5956 1.5454296,0.5956 0.3656832,0 0.7138813,-0.051 1.0445956,-0.1534 0.3307034,-0.1023 0.666182,-0.2632 1.0064371,-0.4828 l 0,1.3942" font-weight="700"/>
        </g>
      </g>
      <path fill="url(#h)" stroke="#14733c" stroke-linecap="round" stroke-linejoin="round" stroke-width="2.65" d="m 398.75,468.23718 c 0,5.86803 -4.75697,10.625 -10.625,10.625 -5.86803,0 -10.625,-4.75697 -10.625,-10.625 0,-5.86802 4.75697,-10.625 10.625,-10.625 5.86803,0 10.625,4.75698 10.625,10.625 z" transform="translate(-134.95 -171.198) scale(.37742)"/>
      <path d="m -6.4700252,1036.0376 c 0,-0.2989 -0.2208992,-0.7951 -0.68851,-1.0651 -0.4676108,-0.27 -0.5314136,-0.3768 -1.3804755,-0.3768 -0.8490619,0 -1.4968173,0.274 -1.7981793,0.5887 -0.301362,0.3147 -0.529039,0.7512 -0.529039,1.6098 0,0.8586 0.148097,1.281 0.53626,1.6797 0.388163,0.3987 1.4183419,0.6898 1.8685761,0.6898 0.4502342,0 1.2203718,-0.2844 1.4659582,-0.5019 0.2455864,-0.2175 0.5295722,-0.4137 0.5295722,-1.1236 l 1.4825083,0 c 0,1.2665 -0.6712692,1.848 -1.2587359,2.3121 -0.5874807,0.4639 -1.3747897,0.6957 -2.3619291,0.6957 -1.1219786,0 -2.0176338,-0.3514 -2.6869638,-1.0546 -0.66452,-0.703 -0.996778,-1.4404 -0.996778,-2.6843 0,-1.258 0.334666,-1.8821 1.004001,-2.5804 0.669332,-0.7033 1.5746155,-1.0548 2.7158564,-1.0548 0.9341727,0 1.2460212,0.093 1.8112379,0.419 0.5652167,0.3263 1.7802518,1.0172 1.7802518,2.4602 z" font-family="Arial" font-size="15.569" font-weight="700" style="line-height:125%;-inkscape-font-specification:Arial Bold" transform="matrix(.68025 0 0 .68025 17.397 -699.778)"/>
      <g mask="url(#i)" style="line-height:125%" transform="translate(16.13 -1008.348)">
        <path stroke="#fff" stroke-linecap="round" stroke-linejoin="round" stroke-width="2" d="m -9.959076,1015.2691 4.669456,4.5679 -4.669456,4.6187 z" filter="url(#j)" opacity=".75" style="line-height:125%"/>
      </g>
      <path fill="#323232" stroke="#323232" stroke-linecap="round" stroke-linejoin="round" stroke-width=".5" d="m -9.959076,1035.2691 4.669456,4.5679 -4.669456,4.6187 z" transform="translate(16.13 -1028.348)"/>
    </g>
  </g>
</svg>
