<svg xmlns="http://www.w3.org/2000/svg" xmlns:xlink="http://www.w3.org/1999/xlink" width="16" height="16">
  <defs>
    <linearGradient id="k">
      <stop offset="0" stop-color="#fff"/>
      <stop offset="1" stop-color="#8ebc7b"/>
    </linearGradient>
    <linearGradient id="f">
      <stop offset="0" stop-color="#2d493b"/>
      <stop offset="1" stop-color="#31564a"/>
    </linearGradient>
    <linearGradient id="e">
      <stop offset="0" stop-color="#2d493b"/>
      <stop offset="1" stop-color="#31564a"/>
    </linearGradient>
    <linearGradient id="b">
      <stop offset="0" stop-color="#2d493b"/>
      <stop offset="1" stop-color="#31564a"/>
    </linearGradient>
    <linearGradient id="h">
      <stop offset="0" stop-color="#2d493b"/>
      <stop offset="1" stop-color="#31564a"/>
    </linearGradient>
    <linearGradient id="i">
      <stop offset="0" stop-color="#387a31"/>
      <stop offset="1" stop-color="#397b3b" stop-opacity="0"/>
    </linearGradient>
    <linearGradient id="j">
      <stop offset="0" stop-color="#0d5269"/>
      <stop offset="1" stop-color="#2d707c"/>
    </linearGradient>
    <linearGradient id="m">
      <stop offset="0" stop-color="#2d493b"/>
      <stop offset="1" stop-color="#2d707c"/>
    </linearGradient>
    <linearGradient id="l">
      <stop offset="0" stop-color="#fff"/>
      <stop offset="1" stop-color="#8ebc7b"/>
    </linearGradient>
    <linearGradient xlink:href="#a" id="t" x1="420.524" x2="432.865" y1="378.799" y2="381.804" gradientTransform="matrix(0 .27903 .27903 0 -96.393 -104.738)" gradientUnits="userSpaceOnUse"/>
    <linearGradient id="a">
      <stop offset="0" stop-color="#203932"/>
      <stop offset="1" stop-color="#31564a"/>
    </linearGradient>
    <linearGradient xlink:href="#b" id="o" x1="413.011" x2="429.949" y1="366.601" y2="364.922" gradientTransform="matrix(.27903 0 0 .27903 -104.761 -96.355)" gradientUnits="userSpaceOnUse"/>
    <linearGradient xlink:href="#c" id="s" x1="413.011" x2="429.949" y1="366.601" y2="364.922" gradientTransform="matrix(0 .27903 .27903 0 -96.353 -104.7)" gradientUnits="userSpaceOnUse"/>
    <linearGradient id="c">
      <stop offset="0" stop-color="#2d493b"/>
      <stop offset="1" stop-color="#31564a"/>
    </linearGradient>
    <linearGradient xlink:href="#d" id="r" x1="674.847" x2="675.203" y1="180.64" y2="166.792" gradientTransform="matrix(0 .27903 .24757 0 -39.521 -178.6)" gradientUnits="userSpaceOnUse"/>
    <linearGradient id="d">
      <stop offset="0" stop-color="#2d493b"/>
      <stop offset="1" stop-color="#31564a"/>
    </linearGradient>
    <linearGradient xlink:href="#e" id="p" x1="674.847" x2="675.203" y1="180.64" y2="166.792" gradientTransform="matrix(.27903 0 0 .24757 -178.604 -39.534)" gradientUnits="userSpaceOnUse"/>
    <linearGradient xlink:href="#f" id="q" x1="396.01" x2="396.211" y1="359.49" y2="350.946" gradientTransform="matrix(.27903 0 0 .27903 -104.605 -96.34)" gradientUnits="userSpaceOnUse"/>
    <linearGradient xlink:href="#g" id="u" x1="396.01" x2="396.211" y1="359.49" y2="350.946" gradientTransform="matrix(0 -.27903 .27903 0 -96.328 115.616)" gradientUnits="userSpaceOnUse"/>
    <linearGradient id="g">
      <stop offset="0" stop-color="#2d493b"/>
      <stop offset="1" stop-color="#31564a"/>
    </linearGradient>
    <linearGradient xlink:href="#h" id="n" x1="420.524" x2="432.865" y1="378.799" y2="381.804" gradientTransform="matrix(.27903 0 0 .27903 -104.761 -96.355)" gradientUnits="userSpaceOnUse"/>
    <linearGradient xlink:href="#i" id="y" x1="684.116" x2="666.197" y1="204.12" y2="183.924" gradientTransform="matrix(.27903 0 0 .24757 -178.89 996.828)" gradientUnits="userSpaceOnUse"/>
    <linearGradient xlink:href="#j" id="z" x1="427.929" x2="440.353" y1="447.021" y2="417.261" gradientUnits="userSpaceOnUse"/>
    <linearGradient xlink:href="#m" id="w" x1="427.53" x2="425.452" y1="432.766" y2="415.109" gradientUnits="userSpaceOnUse"/>
    <radialGradient xlink:href="#k" id="x" cx="433.368" cy="424.341" r="12.028" fx="433.368" fy="424.341" gradientTransform="matrix(1.2232 -.08344 .10168 1.4905 -139.873 -174.007)" gradientUnits="userSpaceOnUse"/>
    <radialGradient xlink:href="#l" id="v" cx="433.545" cy="420.75" r="12.952" fx="433.545" fy="420.75" gradientTransform="matrix(1 0 0 1.27979 0 -120.612)" gradientUnits="userSpaceOnUse"/>
  </defs>
  <g fill="none">
    <path stroke="url(#n)" d="m 12.82579,9.4971188 1.661134,0 1.422561,1.4112212"/>
    <path stroke="url(#o)" d="m 10,6.9999994 1.508233,-1.4917651 0.983535,-2.4e-6 0.977902,0.9889529 1.541382,0"/>
    <path stroke="url(#p)" d="m 8.497184,5.9999999 0,-1.4696695 1.0021304,-1.0554648 0,-1.4697487"/>
    <path stroke="url(#q)" d="M 5.516768,6.0186776 5.4903436,0.99696"/>
    <path stroke="url(#r)" d="m 6.0125902,8.501281 -1.4696698,0 -1.0554648,1.0021285 -1.4697478,0"/>
    <path stroke="url(#s)" d="m 7.0014107,10.06109 -1.4917664,1.508234 -2.8e-6,0.983533 0.9889544,0.977904 0,1.541381"/>
    <path stroke="url(#t)" d="m 9.4588992,12.848383 0,1.661134 1.4112208,1.422562"/>
    <path stroke="url(#u)" d="M 6.0300382,5.4946057 1.0083225,5.5210287"/>
  </g>
  <path fill="url(#v)" stroke="url(#w)" stroke-linecap="round" stroke-linejoin="round" stroke-width="7.195" d="m 444.77016,431.08047 a 11.313708,14.937631 0 1 1 -22.62742,0 11.313708,14.937631 0 1 1 22.62742,0 z" transform="scale(.13898) rotate(-45 -225.88 706.499)"/>
  <path fill="url(#x)" d="m 444.77016,431.08047 a 11.313708,14.937631 0 1 1 -22.62742,0 11.313708,14.937631 0 1 1 22.62742,0 z" transform="rotate(-45 -69.385 199.164) scale(.27841)"/>
  <path fill="none" stroke="url(#y)" d="m 5.88715,1042.2397 5.808198,5.8082" transform="translate(0 -1036.362)"/>
  <path fill="none" stroke="url(#z)" stroke-linecap="round" stroke-linejoin="round" stroke-width="3.766" d="m 444.77016,431.08047 a 11.313708,14.937631 0 1 1 -22.62742,0 11.313708,14.937631 0 1 1 22.62742,0 z" transform="matrix(.18984 -.18572 .18984 .18572 -155.105 9.454)"/>
  <path fill="#2e6a22" stroke="#2e6a22" stroke-width="3.766" d="m 431.37184,416.3986 a 11.313708,14.937631 0 0 1 4.54485,0.1017" transform="matrix(.18984 -.18572 .18984 .18572 -155.105 9.454)"/>
</svg>
