<svg xmlns="http://www.w3.org/2000/svg" xmlns:xlink="http://www.w3.org/1999/xlink" width="16" height="16">
  <defs>
    <linearGradient id="d">
      <stop offset="0" stop-color="#fff"/>
      <stop offset=".5" stop-color="#fff" stop-opacity=".496"/>
      <stop offset="1" stop-color="#fff"/>
    </linearGradient>
    <linearGradient id="c">
      <stop offset="0" stop-color="#e83038"/>
      <stop offset="1" stop-color="#af131a"/>
    </linearGradient>
    <linearGradient xlink:href="#a" id="i" x1="-13.937" x2="-13.937" y1="1049.958" y2="1040.053" gradientTransform="translate(20)" gradientUnits="userSpaceOnUse"/>
    <linearGradient xlink:href="#b" id="j" x1="11.063" x2="11.063" y1="1038.55" y2="1049.912" gradientTransform="translate(-1.315)" gradientUnits="userSpaceOnUse"/>
    <linearGradient id="b">
      <stop offset="0" stop-color="#30825a"/>
      <stop offset="1" stop-color="#106643"/>
    </linearGradient>
    <linearGradient id="a">
      <stop offset="0" stop-color="#8cc861"/>
      <stop offset=".438" stop-color="#4aa766"/>
      <stop offset="1" stop-color="#c2dd97"/>
    </linearGradient>
    <linearGradient xlink:href="#c" id="e" x1="8.22" x2="8.22" y1="1043.381" y2="1049.088" gradientUnits="userSpaceOnUse"/>
    <linearGradient xlink:href="#d" id="f" x1="7.501" x2="7.501" y1="1040.394" y2="1048.31" gradientUnits="userSpaceOnUse"/>
    <filter id="h" width="1.459" height="1.503" x="-.229" y="-.252">
      <feGaussianBlur stdDeviation="1.051"/>
    </filter>
    <mask id="g" maskUnits="userSpaceOnUse">
      <g fill="#fff" stroke="#fff" color="#000" font-family="Sans" font-size="13.589" font-weight="400" letter-spacing="0" transform="matrix(.8518 0 0 .8518 -.24 151.126)" word-spacing="0">
        <rect width="9.944" height="9.988" x="2.903" y="1039.493" stroke-width=".6" enable-background="accumulate" overflow="visible" rx="1.149" ry="1.149" style="line-height:125%;marker:none"/>
        <rect width="7.689" height="7.653" x="4.017" y="1040.633" stroke-opacity=".692" stroke-width=".9" enable-background="accumulate" overflow="visible" rx=".309" ry=".309" style="line-height:125%;marker:none"/>
      </g>
    </mask>
  </defs>
  <g color="#000" font-family="Sans" font-size="13.589" font-weight="400" letter-spacing="0" transform="matrix(.8518 0 0 .8518 -.24 -885.236)" word-spacing="0">
    <rect width="9.944" height="9.988" x="2.903" y="1039.493" fill="url(#e)" stroke="#a81d24" stroke-width=".6" enable-background="accumulate" overflow="visible" rx="1.149" ry="1.149" style="line-height:125%;marker:none"/>
    <rect width="7.689" height="7.653" x="4.017" y="1040.633" fill="none" stroke="url(#f)" stroke-opacity=".692" stroke-width=".9" enable-background="accumulate" overflow="visible" rx=".309" ry=".309" style="line-height:125%;marker:none"/>
  </g>
  <g mask="url(#g)" transform="translate(0 -1036.362)">
    <g fill="#fff" stroke="#fff" stroke-width="3.198" filter="url(#h)" transform="matrix(.61981 0 0 .63115 7.797 387.4)">
      <path stroke-linecap="round" stroke-linejoin="round" d="m 2.497507,1039.8618 0,2.0277 0,5 0,3 1,0 9.546687,-4.5273 c 0.59227,-0.3746 0.618127,-0.6299 0,-1 l -9.126842,-4.5004 z"/>
    </g>
  </g>
  <path fill="url(#i)" stroke="url(#j)" stroke-linecap="round" stroke-linejoin="round" d="m 2.497507,1039.8618 0,2.0277 0,5 0,3 1,0 9.546687,-4.5273 c 0.59227,-0.3746 0.618127,-0.6299 0,-1 l -9.126842,-4.5004 z" transform="matrix(.61981 0 0 .63115 7.797 -648.962)"/>
</svg>
