<?xml version="1.0" encoding="UTF-8" standalone="no"?>
<svg
   width="16"
   height="16"
   version="1.1"
   id="svg9"
   xmlns:xlink="http://www.w3.org/1999/xlink"
   xmlns="http://www.w3.org/2000/svg"
   xmlns:svg="http://www.w3.org/2000/svg">
  <defs
     id="defs7">
    <linearGradient
       id="c">
      <stop
         offset="0"
         stop-color="#7695b8"
         id="stop1" />
      <stop
         offset="1"
         stop-color="#8daac8"
         id="stop2" />
    </linearGradient>
    <linearGradient
       id="b">
      <stop
         offset="0"
         stop-color="#4b82b6"
         id="stop3" />
      <stop
         offset=".794"
         stop-color="#9ab7d5"
         id="stop4" />
      <stop
         offset="1"
         stop-color="#a2bcd8"
         id="stop5" />
    </linearGradient>
    <linearGradient
       id="a">
      <stop
         offset="0"
         stop-color="#6187b3"
         id="stop6" />
      <stop
         offset="1"
         stop-color="#35679d"
         id="stop7" />
    </linearGradient>
    <linearGradient
       xlink:href="#a"
       id="e"
       x1="1.034"
       x2="1.034"
       y1="-.057"
       y2="9.816"
       gradientUnits="userSpaceOnUse" />
    <linearGradient
       xlink:href="#c"
       id="f"
       x1="11.437"
       x2="14.526"
       y1="9.631"
       y2="15.131"
       gradientUnits="userSpaceOnUse" />
    <radialGradient
       xlink:href="#b"
       id="d"
       cx="4.953"
       cy="5.031"
       r="4.906"
       fx="4.953"
       fy="5.031"
       gradientTransform="matrix(2.26188 0 0 .76475 -6.293 1.184)"
       gradientUnits="userSpaceOnUse" />
  </defs>
  <path
     fill="url(#d)"
     stroke="url(#e)"
     d="M 9.4375,5.03125 C 9.4375,7.4647547 7.4647547,9.4375 5.03125,9.4375 2.5977453,9.4375 0.625,7.4647547 0.625,5.03125 0.625,2.5977453 2.5977453,0.625 5.03125,0.625 c 2.4335047,0 4.40625,1.9727453 4.40625,4.40625 z"
     transform="matrix(1.03185 0 0 1.03185 -.16 -.16)"
     id="path7" />
  <path
     fill="url(#f)"
     stroke="#095799"
     d="m 7.9991455,15.524912 3.4913395,-7.0379216 3.535534,7.0379216 -2.010835,0 -2.496971,-5.027087"
     id="path8" />
  <path
     fill="#095799"
     d="M6.994 1051.379H10.021V1052.373H6.994zM10.994 1051.379H16.01V1052.373H10.994z"
     transform="translate(0 -1036.362)"
     id="path9" />
</svg>
