<svg xmlns="http://www.w3.org/2000/svg" xmlns:xlink="http://www.w3.org/1999/xlink" width="16" height="16">
  <defs>
    <linearGradient xlink:href="#a" id="h" x1="28" x2="28" y1="1039.362" y2="1049.362" gradientTransform="matrix(.9 0 0 .9 -17.7 103.936)" gradientUnits="userSpaceOnUse"/>
    <linearGradient id="a">
      <stop offset="0" stop-color="#ebf9ff"/>
      <stop offset="1" stop-color="#fcffff"/>
    </linearGradient>
    <linearGradient xlink:href="#b" id="i" x1="-12" x2="-15" y1="1047.362" y2="1047.362" gradientTransform="translate(18 -3)" gradientUnits="userSpaceOnUse"/>
    <linearGradient id="b">
      <stop offset="0" stop-color="#fff" stop-opacity="0"/>
      <stop offset="1" stop-color="#c3e9ff"/>
    </linearGradient>
    <linearGradient xlink:href="#c" id="j" x1="-11" x2="-11" y1="1042.362" y2="1045.362" gradientTransform="translate(18 -3)" gradientUnits="userSpaceOnUse"/>
    <linearGradient id="c">
      <stop offset="0" stop-color="#c3e9ff"/>
      <stop offset="1" stop-color="#fff" stop-opacity="0"/>
    </linearGradient>
    <linearGradient xlink:href="#d" id="k" x1="28" x2="28" y1="1039.362" y2="1049.362" gradientTransform="matrix(.9 0 0 .9 -15.7 105.936)" gradientUnits="userSpaceOnUse"/>
    <linearGradient id="d">
      <stop offset="0" stop-color="#ebf9ff"/>
      <stop offset="1" stop-color="#fcffff"/>
    </linearGradient>
    <linearGradient xlink:href="#e" id="l" x1="-11" x2="-11" y1="1042.362" y2="1043.362" gradientTransform="translate(22 4)" gradientUnits="userSpaceOnUse"/>
    <linearGradient id="e">
      <stop offset="0" stop-color="#c3e9ff" stop-opacity=".49"/>
      <stop offset=".5" stop-color="#c3e9ff"/>
      <stop offset="1" stop-color="#c3e9ff" stop-opacity=".49"/>
    </linearGradient>
    <linearGradient xlink:href="#f" id="m" x1="-12" x2="-15" y1="1047.362" y2="1047.362" gradientTransform="translate(20 -1)" gradientUnits="userSpaceOnUse"/>
    <linearGradient id="f">
      <stop offset="0" stop-color="#fff" stop-opacity="0"/>
      <stop offset="1" stop-color="#c3e9ff"/>
    </linearGradient>
    <linearGradient xlink:href="#g" id="n" x1="-11" x2="-11" y1="1042.362" y2="1045.362" gradientTransform="translate(20 -1)" gradientUnits="userSpaceOnUse"/>
    <linearGradient id="g">
      <stop offset="0" stop-color="#c3e9ff"/>
      <stop offset="1" stop-color="#fff" stop-opacity="0"/>
    </linearGradient>
  </defs>
  <path fill="#a6afc4" d="m 2,1038.3622 0,11 11,0 0,-11 z m 1,1 9,0 0,9 -9,0 z" color="#000" font-family="Sans" font-weight="400" overflow="visible" style="text-indent:0;text-align:start;line-height:normal;text-transform:none;block-progression:tb;marker:none;-inkscape-font-specification:Sans" transform="translate(0 -1036.362)"/>
  <path fill="url(#h)" d="m 3,1039.3622 8.971875,0 0.02812,9 -8.971875,0 z" color="#000" font-family="Sans" font-weight="400" overflow="visible" style="text-indent:0;text-align:start;line-height:normal;text-transform:none;block-progression:tb;marker:none;-inkscape-font-specification:Sans" transform="translate(0 -1036.362)"/>
  <path fill="url(#i)" d="m 5,1041.3622 0,7 -2,0 0,-9 z" transform="translate(0 -1036.362)"/>
  <path fill="url(#j)" d="m 5,1041.3622 7,0 0,-2 -9,0 z" transform="translate(0 -1036.362)"/>
  <path fill="#8b96ab" d="m 4,1040.3622 0,11 11,0 0,-11 z m 1,1 9,0 0,9 -9,0 z" color="#000" font-family="Sans" font-weight="400" overflow="visible" style="text-indent:0;text-align:start;line-height:normal;text-transform:none;block-progression:tb;marker:none;-inkscape-font-specification:Sans" transform="translate(0 -1036.362)"/>
  <path fill="url(#k)" d="m 5,1041.3622 8.971875,0 0.02812,9 -8.971875,0 z" color="#000" font-family="Sans" font-weight="400" overflow="visible" style="text-indent:0;text-align:start;line-height:normal;text-transform:none;block-progression:tb;marker:none;-inkscape-font-specification:Sans" transform="translate(0 -1036.362)"/>
  <path fill="url(#l)" d="m 8,1047.3622 5,0 c 1,0 1,-1 0,-1 l -5,0 c -1,0 -1,1 0,1 z" transform="translate(0 -1036.362)"/>
  <path fill="url(#m)" d="m 7,1043.3622 0,7 -2,0 0,-9 z" transform="translate(0 -1036.362)"/>
  <path fill="url(#n)" d="m 7,1043.3622 7,0 0,-2 -9,0 z" transform="translate(0 -1036.362)"/>
  <path fill="#01467a" d="M1045.362-13H1046.362V-6H1045.362z" transform="rotate(90 518.181 -518.181)"/>
</svg>
