<svg xmlns="http://www.w3.org/2000/svg" xmlns:xlink="http://www.w3.org/1999/xlink" width="16" height="16">
  <defs>
    <linearGradient id="c">
      <stop offset="0" stop-color="#91a5c7"/>
      <stop offset="1" stop-color="#637aa7"/>
    </linearGradient>
    <linearGradient id="e">
      <stop offset="0" stop-color="#91a5c7"/>
      <stop offset="1" stop-color="#637aa7"/>
    </linearGradient>
    <linearGradient id="d">
      <stop offset="0" stop-color="#91a5c7"/>
      <stop offset="1" stop-color="#637aa7"/>
    </linearGradient>
    <linearGradient id="h">
      <stop offset="0" stop-color="#f9fafc"/>
      <stop offset="1" stop-color="#dce7f7"/>
    </linearGradient>
    <linearGradient id="g">
      <stop offset="0" stop-color="#c7b571"/>
      <stop offset="1" stop-color="#9a9a8f"/>
    </linearGradient>
    <linearGradient id="f">
      <stop offset="0" stop-color="#e0c88f"/>
      <stop offset="1" stop-color="#d5b269"/>
    </linearGradient>
    <linearGradient id="a">
      <stop offset="0" stop-color="#91a5c7"/>
      <stop offset="1" stop-color="#5e76a3"/>
    </linearGradient>
    <linearGradient id="b">
      <stop offset="0" stop-color="#91a5c7"/>
      <stop offset="1" stop-color="#637aa7"/>
    </linearGradient>
    <linearGradient xlink:href="#a" id="w" x1="7.007" x2="11" y1="1043.857" y2="1043.857" gradientTransform="translate(0 -2)" gradientUnits="userSpaceOnUse"/>
    <linearGradient xlink:href="#b" id="x" x1="7.007" x2="14" y1="1045.857" y2="1045.857" gradientTransform="translate(0 -2)" gradientUnits="userSpaceOnUse"/>
    <linearGradient xlink:href="#c" id="y" x1="7.007" x2="14" y1="1047.857" y2="1047.857" gradientTransform="translate(0 -2)" gradientUnits="userSpaceOnUse"/>
    <linearGradient xlink:href="#d" id="A" x1="7.007" x2="12.016" y1="1051.857" y2="1051.857" gradientTransform="translate(0 -2)" gradientUnits="userSpaceOnUse"/>
    <linearGradient xlink:href="#e" id="z" x1="7.007" x2="14" y1="1049.857" y2="1049.857" gradientTransform="translate(0 -2)" gradientUnits="userSpaceOnUse"/>
    <linearGradient xlink:href="#f" id="u" x1="7.999" x2="9.987" y1="1042.231" y2="1040.33" gradientTransform="translate(4)" gradientUnits="userSpaceOnUse"/>
    <linearGradient xlink:href="#g" id="v" x1="10.545" x2="10.545" y1="1038.578" y2="1052.323" gradientUnits="userSpaceOnUse"/>
    <linearGradient xlink:href="#h" id="t" x1="9.895" x2="9.895" y1="1039.153" y2="1051.838" gradientUnits="userSpaceOnUse"/>
    <linearGradient xlink:href="#i" id="s" x1="7.007" x2="12.016" y1="1051.857" y2="1051.857" gradientTransform="translate(-4 -2.998)" gradientUnits="userSpaceOnUse"/>
    <linearGradient id="i">
      <stop offset="0" stop-color="#91a5c7"/>
      <stop offset="1" stop-color="#91a5c7" stop-opacity="0"/>
    </linearGradient>
    <linearGradient xlink:href="#i" id="r" x1="7.007" x2="14" y1="1049.857" y2="1049.857" gradientTransform="translate(-4 -2.998)" gradientUnits="userSpaceOnUse"/>
    <linearGradient xlink:href="#i" id="q" x1="7.007" x2="14" y1="1047.857" y2="1047.857" gradientTransform="translate(-4 -2.998)" gradientUnits="userSpaceOnUse"/>
    <linearGradient xlink:href="#i" id="p" x1="7.007" x2="14" y1="1045.857" y2="1045.857" gradientTransform="translate(-4 -2.998)" gradientUnits="userSpaceOnUse"/>
    <linearGradient xlink:href="#j" id="o" x1="7.007" x2="11" y1="1043.857" y2="1043.857" gradientTransform="translate(-4 -2.998)" gradientUnits="userSpaceOnUse"/>
    <linearGradient id="j">
      <stop offset="0" stop-color="#91a5c7"/>
      <stop offset="1" stop-color="#5e76a3"/>
    </linearGradient>
    <linearGradient xlink:href="#k" id="n" x1="10.545" x2="10.545" y1="1038.578" y2="1052.323" gradientTransform="translate(-4 -.998)" gradientUnits="userSpaceOnUse"/>
    <linearGradient id="k">
      <stop offset="0" stop-color="#c7b571"/>
      <stop offset="1" stop-color="#9a9a8f"/>
    </linearGradient>
    <linearGradient id="l">
      <stop offset="0" stop-color="#f9fafc"/>
      <stop offset="1" stop-color="#dce7f7"/>
    </linearGradient>
    <linearGradient xlink:href="#l" id="m" x1="9.895" x2="9.895" y1="1039.153" y2="1051.838" gradientTransform="translate(-4 -.998)" gradientUnits="userSpaceOnUse"/>
  </defs>
  <path fill="url(#m)" d="m 1.4972825,1037.906 7.0096685,0 3.062057,3.0066 0,9.9546 -10.0717255,0 z" transform="translate(0 -1036.362)"/>
  <path fill="none" stroke="url(#n)" d="m 1.4972825,1037.906 7.0096685,0 3.062057,3.0066 0,9.9546 -10.0717255,0 z" transform="translate(0 -1036.362)"/>
  <path fill="url(#o)" d="M3.007 1040.354H7V1041.364H3.007z" transform="translate(0 -1036.362)"/>
  <path fill="url(#p)" d="M3.007 1042.354H10V1043.364H3.007z" transform="translate(0 -1036.362)"/>
  <path fill="url(#q)" d="M3.007 1044.354H10V1045.364H3.007z" transform="translate(0 -1036.362)"/>
  <path fill="url(#r)" d="M3.007 1046.354H10V1047.364H3.007z" transform="translate(0 -1036.362)"/>
  <path fill="url(#s)" d="M3.007 1048.354H8.016V1049.364H3.007z" transform="translate(0 -1036.362)"/>
  <path fill="url(#t)" d="m 5.4972825,1038.9037 7.0096685,0 3.062057,3.0066 0,9.9546 -10.0717255,0 z" transform="translate(0 -1036.362)"/>
  <path fill="url(#u)" d="m 11.976621,1038.441 0,3.9112 3.977476,0 z" transform="translate(0 -1036.362)"/>
  <path fill="none" stroke="url(#v)" d="m 5.4972825,1038.9037 7.0096685,0 3.062057,3.0066 0,9.9546 -10.0717255,0 z" transform="translate(0 -1036.362)"/>
  <path fill="url(#w)" d="M7.007 1041.352H11V1042.362H7.007z" transform="translate(0 -1036.362)"/>
  <path fill="url(#x)" d="M7.007 1043.352H14V1044.362H7.007z" transform="translate(0 -1036.362)"/>
  <path fill="url(#y)" d="M7.007 1045.352H14V1046.362H7.007z" transform="translate(0 -1036.362)"/>
  <path fill="url(#z)" d="M7.007 1047.352H14V1048.362H7.007z" transform="translate(0 -1036.362)"/>
  <path fill="url(#A)" d="M7.007 1049.352H12.016V1050.362H7.007z" transform="translate(0 -1036.362)"/>
</svg>
