<svg xmlns="http://www.w3.org/2000/svg" xmlns:xlink="http://www.w3.org/1999/xlink" width="16" height="16">
  <defs>
    <linearGradient id="f">
      <stop offset="0" stop-color="#bfb688"/>
      <stop offset="1" stop-color="#8694ae"/>
    </linearGradient>
    <linearGradient xlink:href="#a" id="z" x1="6" x2="11" y1="1050.862" y2="1050.862" gradientTransform="translate(2 -2)" gradientUnits="userSpaceOnUse"/>
    <linearGradient id="a">
      <stop offset="0" stop-color="#677da9"/>
      <stop offset="1" stop-color="#b4bbd1"/>
    </linearGradient>
    <linearGradient xlink:href="#b" id="A" x1="8" x2="11" y1="1046.862" y2="1046.862" gradientTransform="translate(2 -2)" gradientUnits="userSpaceOnUse"/>
    <linearGradient id="b">
      <stop offset="0" stop-color="#677da9"/>
      <stop offset="1" stop-color="#8998bb"/>
    </linearGradient>
    <linearGradient id="c">
      <stop offset="0" stop-color="#7cb87d"/>
      <stop offset="1" stop-color="#a8ceb7"/>
    </linearGradient>
    <linearGradient xlink:href="#d" id="C" x1="-13" x2="-15" y1="1047.362" y2="1047.362" gradientTransform="translate(18 -4)" gradientUnits="userSpaceOnUse"/>
    <linearGradient id="d">
      <stop offset="0" stop-color="#fff" stop-opacity="0"/>
      <stop offset="1" stop-color="#d1eeff"/>
    </linearGradient>
    <linearGradient xlink:href="#e" id="D" x1="-11" x2="-11" y1="1042.362" y2="1044.362" gradientTransform="translate(18 -4)" gradientUnits="userSpaceOnUse"/>
    <linearGradient id="e">
      <stop offset="0" stop-color="#d1eeff"/>
      <stop offset="1" stop-color="#fff" stop-opacity="0"/>
    </linearGradient>
    <linearGradient xlink:href="#f" id="y" x1="8.014" x2="8.014" y1="1036.662" y2="1050.071" gradientTransform="translate(0 2)" gradientUnits="userSpaceOnUse"/>
    <linearGradient id="h">
      <stop offset="0" stop-color="#677da9"/>
      <stop offset="1" stop-color="#b4bbd1"/>
    </linearGradient>
    <linearGradient id="g">
      <stop offset="0" stop-color="#7cb87d"/>
      <stop offset="1" stop-color="#a8ceb7"/>
    </linearGradient>
    <linearGradient xlink:href="#h" id="E" x1="6" x2="11" y1="1050.862" y2="1050.862" gradientTransform="translate(2 -10)" gradientUnits="userSpaceOnUse"/>
    <linearGradient xlink:href="#i" id="N" x1="6" x2="11" y1="1050.862" y2="1050.862" gradientTransform="translate(2 -6)" gradientUnits="userSpaceOnUse"/>
    <linearGradient id="i">
      <stop offset="0" stop-color="#677da9"/>
      <stop offset="1" stop-color="#b4bbd1"/>
    </linearGradient>
    <linearGradient id="j">
      <stop offset="0" stop-color="#7cb87d"/>
      <stop offset="1" stop-color="#a8ceb7"/>
    </linearGradient>
    <linearGradient xlink:href="#k" id="L" x1="6" x2="11" y1="1050.862" y2="1050.862" gradientTransform="translate(2 -10)" gradientUnits="userSpaceOnUse"/>
    <linearGradient id="k">
      <stop offset="0" stop-color="#677da9"/>
      <stop offset="1" stop-color="#b4bbd1"/>
    </linearGradient>
    <linearGradient xlink:href="#l" id="K" x1="-11" x2="-11" y1="1042.362" y2="1044.362" gradientTransform="translate(18 -4)" gradientUnits="userSpaceOnUse"/>
    <linearGradient id="l">
      <stop offset="0" stop-color="#d1eeff"/>
      <stop offset="1" stop-color="#fff" stop-opacity="0"/>
    </linearGradient>
    <linearGradient xlink:href="#m" id="J" x1="-13" x2="-15" y1="1047.362" y2="1047.362" gradientTransform="translate(18 -4)" gradientUnits="userSpaceOnUse"/>
    <linearGradient id="m">
      <stop offset="0" stop-color="#fff" stop-opacity="0"/>
      <stop offset="1" stop-color="#d1eeff"/>
    </linearGradient>
    <linearGradient id="n">
      <stop offset="0" stop-color="#7cb87d"/>
      <stop offset="1" stop-color="#a8ceb7"/>
    </linearGradient>
    <linearGradient xlink:href="#o" id="H" x1="6" x2="11" y1="1050.862" y2="1050.862" gradientTransform="translate(2 -2)" gradientUnits="userSpaceOnUse"/>
    <linearGradient id="o">
      <stop offset="0" stop-color="#677da9"/>
      <stop offset="1" stop-color="#b4bbd1"/>
    </linearGradient>
    <linearGradient id="p">
      <stop offset="0" stop-color="#7cb87d"/>
      <stop offset="1" stop-color="#a8ceb7"/>
    </linearGradient>
    <linearGradient id="q">
      <stop offset="0" stop-color="#bfb688"/>
      <stop offset="1" stop-color="#8694ae"/>
    </linearGradient>
    <linearGradient xlink:href="#q" id="x" x1="8.014" x2="8.014" y1="1036.662" y2="1050.071" gradientTransform="translate(0 2)" gradientUnits="userSpaceOnUse"/>
    <linearGradient xlink:href="#r" id="T" x1="4.788" x2="6.617" y1="4.487" y2="2.694" gradientUnits="userSpaceOnUse"/>
    <linearGradient id="r">
      <stop offset="0" stop-color="#3979bd"/>
      <stop offset="1" stop-color="#9abbdf"/>
    </linearGradient>
    <linearGradient xlink:href="#s" id="S" x1="4.788" x2="6.617" y1="4.487" y2="2.694" gradientUnits="userSpaceOnUse"/>
    <linearGradient id="s">
      <stop offset="0" stop-color="#3979bd"/>
      <stop offset="1" stop-color="#9abbdf"/>
    </linearGradient>
    <linearGradient xlink:href="#t" id="R" x1="12.032" x2="14.872" y1="1038.347" y2="1041.308" gradientTransform="translate(-2.004 4.993)" gradientUnits="userSpaceOnUse"/>
    <linearGradient id="t">
      <stop offset="0" stop-color="#eb9186"/>
      <stop offset="1" stop-color="#e06b5e"/>
    </linearGradient>
    <linearGradient xlink:href="#u" id="Q" x1="-11" x2="-11" y1="1042.362" y2="1044.362" gradientTransform="translate(24 -4)" gradientUnits="userSpaceOnUse"/>
    <linearGradient id="u">
      <stop offset="0" stop-color="#d1eeff"/>
      <stop offset="1" stop-color="#fff" stop-opacity="0"/>
    </linearGradient>
    <linearGradient xlink:href="#v" id="P" x1="-13" x2="-15" y1="1047.362" y2="1047.362" gradientTransform="translate(24 -4)" gradientUnits="userSpaceOnUse"/>
    <linearGradient id="v">
      <stop offset="0" stop-color="#fff" stop-opacity="0"/>
      <stop offset="1" stop-color="#d1eeff"/>
    </linearGradient>
    <linearGradient id="w">
      <stop offset="0" stop-color="#bfb688"/>
      <stop offset="1" stop-color="#8694ae"/>
    </linearGradient>
    <linearGradient xlink:href="#w" id="O" x1="8.014" x2="8.014" y1="1036.662" y2="1050.071" gradientTransform="translate(-1 2)" gradientUnits="userSpaceOnUse"/>
    <radialGradient xlink:href="#c" id="B" cx="3.513" cy="12.464" r="2.173" fx="3.513" fy="12.464" gradientTransform="matrix(.4381 0 0 .4769 1.974 6.52)" gradientUnits="userSpaceOnUse"/>
    <radialGradient xlink:href="#g" id="F" cx="3.513" cy="12.464" r="2.173" fx="3.513" fy="12.464" gradientTransform="matrix(.4381 0 0 .4769 1.974 6.52)" gradientUnits="userSpaceOnUse"/>
    <radialGradient xlink:href="#j" id="M" cx="3.513" cy="12.464" r="2.173" fx="3.513" fy="12.464" gradientTransform="matrix(.4381 0 0 .4769 1.974 6.52)" gradientUnits="userSpaceOnUse"/>
    <radialGradient xlink:href="#n" id="I" cx="3.513" cy="12.464" r="2.173" fx="3.513" fy="12.464" gradientTransform="matrix(.4381 0 0 .4769 1.974 6.52)" gradientUnits="userSpaceOnUse"/>
    <radialGradient xlink:href="#p" id="G" cx="3.513" cy="12.464" r="2.173" fx="3.513" fy="12.464" gradientTransform="matrix(.4381 0 0 .4769 1.974 6.52)" gradientUnits="userSpaceOnUse"/>
  </defs>
  <path fill="#f4fcff" stroke="url(#x)" d="M2.501 1037.862H14.501V1051.864H2.501z" transform="translate(0 -1036.362)"/>
  <path fill="#f4fcff" stroke="url(#y)" d="M2.501 1037.862H14.501V1051.864H2.501z" transform="translate(0 -1036.362)"/>
  <path fill="url(#z)" d="m 8,1048.3622 0,0.091 0,0.9091 5,0 0,-0.9091 0,-0.091 z" transform="translate(0 -1036.362)"/>
  <path fill="url(#A)" d="m 10,1044.3622 0,0.091 0,0.9091 3,0 0,-0.9091 0,-0.091 z" transform="translate(0 -1036.362)"/>
  <path fill="url(#B)" stroke="#379860" stroke-width="1.34" d="m 5.0160387,12.464466 c 0,0.829864 -0.6727378,1.502602 -1.5026019,1.502602 -0.8298641,0 -1.5026019,-0.672738 -1.5026019,-1.502602 0,-0.829864 0.6727378,-1.502602 1.5026019,-1.502602 0.8298641,0 1.5026019,0.672738 1.5026019,1.502602 z" transform="matrix(.68773 0 0 .68773 3.08 3.92)"/>
  <path fill="url(#C)" d="m 4,1039.3622 0,12 -1,0 0,-13 z" transform="translate(0 -1036.362)"/>
  <path fill="url(#D)" d="m 4,1039.3622 10,0 0,-1 -11,0 z" transform="translate(0 -1036.362)"/>
  <path fill="url(#E)" d="m 8,1040.3622 0,0.091 0,0.9091 5,0 0,-0.9091 0,-0.091 z" transform="translate(0 -1036.362)"/>
  <path fill="url(#F)" stroke="#379860" stroke-width="1.34" d="m 5.0160387,12.464466 c 0,0.829864 -0.6727378,1.502602 -1.5026019,1.502602 -0.8298641,0 -1.5026019,-0.672738 -1.5026019,-1.502602 0,-0.829864 0.6727378,-1.502602 1.5026019,-1.502602 0.8298641,0 1.5026019,0.672738 1.5026019,1.502602 z" transform="matrix(.68773 0 0 .68773 3.08 -4.08)"/>
  <path fill="url(#G)" stroke="#379860" stroke-width="1.34" d="m 5.0160387,12.464466 c 0,0.829864 -0.6727378,1.502602 -1.5026019,1.502602 -0.8298641,0 -1.5026019,-0.672738 -1.5026019,-1.502602 0,-0.829864 0.6727378,-1.502602 1.5026019,-1.502602 0.8298641,0 1.5026019,0.672738 1.5026019,1.502602 z" transform="matrix(.68773 0 0 .68773 3.08 -.08)"/>
  <path fill="url(#H)" d="m 8,1048.3622 0,0.091 0,0.9091 5,0 0,-0.9091 0,-0.091 z" transform="translate(0 -1036.362)"/>
  <path fill="url(#I)" stroke="#379860" stroke-width="1.34" d="m 5.0160387,12.464466 c 0,0.829864 -0.6727378,1.502602 -1.5026019,1.502602 -0.8298641,0 -1.5026019,-0.672738 -1.5026019,-1.502602 0,-0.829864 0.6727378,-1.502602 1.5026019,-1.502602 0.8298641,0 1.5026019,0.672738 1.5026019,1.502602 z" transform="matrix(.68773 0 0 .68773 3.08 3.92)"/>
  <path fill="url(#J)" d="m 4,1039.3622 0,12 -1,0 0,-13 z" transform="translate(0 -1036.362)"/>
  <path fill="url(#K)" d="m 4,1039.3622 10,0 0,-1 -11,0 z" transform="translate(0 -1036.362)"/>
  <path fill="url(#L)" d="m 8,1040.3622 0,0.091 0,0.9091 5,0 0,-0.9091 0,-0.091 z" transform="translate(0 -1036.362)"/>
  <path fill="url(#M)" stroke="#379860" stroke-width="1.34" d="m 5.0160387,12.464466 c 0,0.829864 -0.6727378,1.502602 -1.5026019,1.502602 -0.8298641,0 -1.5026019,-0.672738 -1.5026019,-1.502602 0,-0.829864 0.6727378,-1.502602 1.5026019,-1.502602 0.8298641,0 1.5026019,0.672738 1.5026019,1.502602 z" transform="matrix(.68773 0 0 .68773 3.08 -4.08)"/>
  <path fill="url(#N)" d="m 8,1044.3622 0,0.091 0,0.9091 5,0 0,-0.9091 0,-0.091 z" transform="translate(0 -1036.362)"/>
  <path fill="#f4fcff" stroke="url(#O)" d="M8.483 1037.862H14.516V1051.864H8.483z" transform="translate(0 -1036.362)"/>
  <path fill="url(#P)" d="m 10.000001,1039.3622 0,12 -0.9999993,0 0,-13 z" transform="translate(0 -1036.362)"/>
  <path fill="url(#Q)" d="m 10.000001,1039.3622 4,0 0,-1 -4.9999993,0 z" transform="translate(0 -1036.362)"/>
  <path fill="url(#R)" d="M9.984 1043.368H13V1046.362H9.984z" transform="translate(0 -1036.362)"/>
  <path fill="url(#S)" d="M 6.6634934,2.7073805 6.2673522,4.1857998 5.8712109,5.664219 4.7889329,4.581941 3.7066549,3.499663 5.1850742,3.1035218 z" transform="matrix(.69344 -.80124 .69017 .80042 5.02 14.17)"/>
  <path fill="url(#T)" d="M 6.6634934,2.7073805 6.2673522,4.1857998 5.8712109,5.664219 4.7889329,4.581941 3.7066549,3.499663 5.1850742,3.1035218 z" transform="matrix(.69997 -.8148 .71418 .79858 4.91 6.223)"/>
</svg>
