<svg xmlns="http://www.w3.org/2000/svg" xmlns:xlink="http://www.w3.org/1999/xlink" width="16" height="16">
  <defs>
    <linearGradient id="f">
      <stop offset="0" stop-color="#bfb688"/>
      <stop offset="1" stop-color="#8694ae"/>
    </linearGradient>
    <linearGradient xlink:href="#a" id="m" x1="6" x2="11" y1="1050.862" y2="1050.862" gradientTransform="matrix(.8 0 0 1 3.2 -10)" gradientUnits="userSpaceOnUse"/>
    <linearGradient id="a">
      <stop offset="0" stop-color="#677da9"/>
      <stop offset="1" stop-color="#b4bbd1"/>
    </linearGradient>
    <linearGradient id="b">
      <stop offset="0" stop-color="#7cb87d"/>
      <stop offset="1" stop-color="#a8ceb7"/>
    </linearGradient>
    <linearGradient id="e">
      <stop offset="0" stop-color="#fff" stop-opacity="0"/>
      <stop offset="1" stop-color="#d1eeff"/>
    </linearGradient>
    <linearGradient id="d">
      <stop offset="0" stop-color="#d1eeff"/>
      <stop offset="1" stop-color="#fff" stop-opacity="0"/>
    </linearGradient>
    <linearGradient id="c">
      <stop offset="0" stop-color="#eb9186"/>
      <stop offset="1" stop-color="#e06b5e"/>
    </linearGradient>
    <linearGradient xlink:href="#c" id="p" x1="12.032" x2="14.872" y1="1038.347" y2="1041.308" gradientTransform="translate(-8.004 8.993)" gradientUnits="userSpaceOnUse"/>
    <linearGradient xlink:href="#d" id="l" x1="-11" x2="-11" y1="1042.362" y2="1044.362" gradientTransform="translate(18.017 -4)" gradientUnits="userSpaceOnUse"/>
    <linearGradient xlink:href="#e" id="k" x1="-13" x2="-15" y1="1047.362" y2="1047.362" gradientTransform="translate(18.017 -4)" gradientUnits="userSpaceOnUse"/>
    <linearGradient xlink:href="#f" id="j" x1="8.014" x2="8.014" y1="1036.662" y2="1050.071" gradientTransform="translate(-6.984 2)" gradientUnits="userSpaceOnUse"/>
    <linearGradient id="g">
      <stop offset="0" stop-color="#677da9"/>
      <stop offset="1" stop-color="#b4bbd1"/>
    </linearGradient>
    <linearGradient xlink:href="#g" id="o" x1="6" x2="11" y1="1050.862" y2="1050.862" gradientTransform="matrix(.8 0 0 1 3.2 -2)" gradientUnits="userSpaceOnUse"/>
    <linearGradient id="i">
      <stop offset="0" stop-color="#fff" stop-opacity="0"/>
      <stop offset="1" stop-color="#d1eeff"/>
    </linearGradient>
    <linearGradient xlink:href="#h" id="r" x1="-11" x2="-11" y1="1042.362" y2="1044.362" gradientTransform="translate(18 3)" gradientUnits="userSpaceOnUse"/>
    <linearGradient id="h">
      <stop offset="0" stop-color="#d1eeff"/>
      <stop offset="1" stop-color="#fff" stop-opacity="0"/>
    </linearGradient>
    <linearGradient xlink:href="#i" id="q" x1="-13" x2="-15" y1="1047.362" y2="1047.362" gradientTransform="translate(18 3)" gradientUnits="userSpaceOnUse"/>
    <radialGradient xlink:href="#b" id="n" cx="3.513" cy="12.464" r="2.173" fx="3.513" fy="12.464" gradientTransform="matrix(.4381 0 0 .4769 1.974 6.52)" gradientUnits="userSpaceOnUse"/>
  </defs>
  <path fill="#f4fcff" stroke="url(#j)" d="M2.5 1037.862H14.508V1051.864H2.5z" transform="translate(0 -1036.362)"/>
  <path fill="url(#k)" d="m 4.0164621,1039.3622 -0.016462,5 -1,0 0.016462,-6 z" transform="translate(0 -1036.362)"/>
  <path fill="url(#l)" d="m 4.0164621,1039.3622 9.9835379,0 0,-1 -10.9835379,0 z" transform="translate(0 -1036.362)"/>
  <path fill="url(#m)" d="m 8,1040.3621 0,1.0001 5,0 0,-1.0001 z" transform="translate(0 -1036.362)"/>
  <path fill="url(#n)" stroke="#379860" stroke-width="1.34" d="m 5.0160387,12.464466 c 0,0.829864 -0.6727378,1.502602 -1.5026019,1.502602 -0.8298641,0 -1.5026019,-0.672738 -1.5026019,-1.502602 0,-0.829864 0.6727378,-1.502602 1.5026019,-1.502602 0.8298641,0 1.5026019,0.672738 1.5026019,1.502602 z" transform="matrix(.68773 0 0 .68773 3.08 -4.08)"/>
  <path fill="url(#o)" d="m 8,1048.3621 0,1.0001 5,0 0,-1.0001 z" transform="translate(0 -1036.362)"/>
  <path fill="url(#p)" d="M3.984 1047.368H7V1050.362H3.984z" transform="translate(0 -1036.362)"/>
  <path fill="#a5a699" d="m 3,1044.3622 0,1 11,0 0,-1 z" color="#000" font-family="Sans" font-weight="400" overflow="visible" style="text-indent:0;text-align:start;line-height:normal;text-transform:none;block-progression:tb;marker:none;-inkscape-font-specification:Sans" transform="translate(0 -1036.362)"/>
  <path fill="url(#q)" d="m 4,1046.3622 0,5 -1,0 0,-6 z" transform="translate(0 -1036.362)"/>
  <path fill="url(#r)" d="m 4,1046.3622 9.983538,0 0,-1 -10.983538,0 z" transform="translate(0 -1036.362)"/>
</svg>
