<svg xmlns="http://www.w3.org/2000/svg" xmlns:xlink="http://www.w3.org/1999/xlink" width="16" height="16">
  <defs>
    <linearGradient id="a">
      <stop offset="0" stop-color="#f6928e"/>
      <stop offset="1" stop-color="#f13f53"/>
    </linearGradient>
    <linearGradient xlink:href="#a" id="c" x1="3.563" x2="3.563" y1="11.336" y2="13.619" gradientUnits="userSpaceOnUse"/>
    <linearGradient id="b">
      <stop offset="0" stop-color="#f6928e"/>
      <stop offset="1" stop-color="#f13f53"/>
    </linearGradient>
    <linearGradient xlink:href="#b" id="d" x1="3.563" x2="3.563" y1="11.336" y2="13.619" gradientUnits="userSpaceOnUse"/>
  </defs>
  <path fill="url(#c)" stroke="#c82930" stroke-width=".752" d="m 5.0160387,12.464466 c 0,0.829864 -0.6727378,1.502602 -1.5026019,1.502602 -0.8298641,0 -1.5026019,-0.672738 -1.5026019,-1.502602 0,-0.829864 0.6727378,-1.502602 1.5026019,-1.502602 0.8298641,0 1.5026019,0.672738 1.5026019,1.502602 z" transform="matrix(1.32893 0 0 1.32893 -1.166 -5.072)"/>
  <path fill="url(#d)" stroke="#c82930" stroke-width=".752" d="m 5.0160387,12.464466 c 0,0.829864 -0.6727378,1.502602 -1.5026019,1.502602 -0.8298641,0 -1.5026019,-0.672738 -1.5026019,-1.502602 0,-0.829864 0.6727378,-1.502602 1.5026019,-1.502602 0.8298641,0 1.5026019,0.672738 1.5026019,1.502602 z" transform="matrix(1.32893 0 0 1.32893 7.834 -12.056)"/>
  <path fill="none" stroke="#c82930" d="m 3.4913399,9.459262 0,-5.9441167 4.0106214,4.0106215"/>
  <path fill="none" stroke="#c82930" d="m 12.495903,1042.9267 0,5.9441 -3.0604464,-3.0383" transform="translate(0 -1036.362)"/>
  <path fill="#801f23" stroke="#801f23" d="m5.977 1043.888 3.027 0M7.977 1045.888l3.027 0" transform="translate(0 -1036.362)"/>
</svg>
