<svg xmlns="http://www.w3.org/2000/svg" xmlns:xlink="http://www.w3.org/1999/xlink" width="16" height="16">
  <defs>
    <linearGradient id="c">
      <stop offset="0" stop-color="#105c9c"/>
      <stop offset=".613" stop-color="#568cb9"/>
      <stop offset="1" stop-color="#cedeea"/>
    </linearGradient>
    <linearGradient id="d">
      <stop offset="0" stop-color="#fff"/>
      <stop offset="1" stop-color="#fff" stop-opacity="0"/>
    </linearGradient>
    <linearGradient id="a">
      <stop offset="0" stop-color="#ad7212"/>
      <stop offset="1" stop-color="#875f1e"/>
    </linearGradient>
    <linearGradient xlink:href="#a" id="m" x1="22.931" x2="22.931" y1="1039.698" y2="1041.736" gradientUnits="userSpaceOnUse"/>
    <linearGradient id="b">
      <stop offset="0" stop-color="#f9cd5f"/>
      <stop offset="1" stop-color="#ffebb7"/>
    </linearGradient>
    <linearGradient xlink:href="#b" id="l" x1="22.931" x2="22.931" y1="1039.698" y2="1041.736" gradientUnits="userSpaceOnUse"/>
    <linearGradient xlink:href="#c" id="i" x1="6" x2="6" y1="1" y2="3.438" gradientTransform="translate(14.308 1036.015)" gradientUnits="userSpaceOnUse"/>
    <linearGradient xlink:href="#d" id="j" x1="23.308" x2="25.308" y1="1046.515" y2="1046.515" gradientTransform="translate(-48.616)" gradientUnits="userSpaceOnUse"/>
    <linearGradient xlink:href="#d" id="k" x1="20.308" x2="22.308" y1="1046.515" y2="1046.515" gradientTransform="translate(-42.13)" gradientUnits="userSpaceOnUse"/>
    <linearGradient id="e">
      <stop offset="0" stop-color="#105c9c"/>
      <stop offset=".613" stop-color="#568cb9"/>
      <stop offset="1" stop-color="#cedeea"/>
    </linearGradient>
    <linearGradient xlink:href="#e" id="g" x1="6" x2="6" y1="1" y2="3.438" gradientTransform="translate(14.308 1040.015)" gradientUnits="userSpaceOnUse"/>
    <linearGradient id="f">
      <stop offset="0" stop-color="#105c9c"/>
      <stop offset=".613" stop-color="#568cb9"/>
      <stop offset="1" stop-color="#cedeea"/>
    </linearGradient>
    <linearGradient xlink:href="#f" id="h" x1="6" x2="6" y1="1" y2="3.438" gradientTransform="translate(14.308 1044.015)" gradientUnits="userSpaceOnUse"/>
  </defs>
  <path fill="url(#g)" d="M15.308 1041.015H27.308V1044.015H15.308z" transform="translate(-14.308 -1036.015)"/>
  <path fill="url(#h)" d="M15.308 1045.015H27.308V1048.015H15.308z" transform="translate(-14.308 -1036.015)"/>
  <path fill="url(#i)" d="M15.308 1037.015H27.308V1040.015H15.308z" transform="translate(-14.308 -1036.015)"/>
  <path fill="url(#j)" d="M-25.308 1045.015H-23.308V1048.015H-25.308z" transform="matrix(-1 0 0 1 -14.308 -1036.015)"/>
  <path fill="url(#k)" d="M-21.822 1045.015H-19.822V1048.015H-21.822z" transform="matrix(-1 0 0 1 -14.308 -1036.015)"/>
  <path fill="url(#l)" stroke="url(#m)" stroke-width=".8" d="m 23.585155,1039.3249 0,-1.591 c 0,0 -0.353553,-0.8397 -1.370019,-0.044 -1.016466,0.7955 -2.209709,2.0772 -2.386486,2.4307 -0.176776,0.3536 -0.928077,0.9723 0.08839,1.9446 1.016466,0.9722 2.121321,1.9887 2.121321,1.9887 0,0 0.404271,0.3812 0.799458,0.5707 0.37782,0.1811 0.747338,0.1871 0.747338,-0.4827 0,-1.37 0,-1.812 0,-1.812 1.366404,-0.063 1.727345,0.3446 2.039845,0.6884 0.3125,0.3437 0.8125,1.4384 1.21875,1.5634 0.40625,0.125 0.625,-1.6572 0.625,-2.0947 0,-0.4375 -0.09375,-1.3125 -0.71875,-1.9687 -0.625,-0.6563 -1.006571,-0.9555 -1.53125,-1.0998 -0.524679,-0.1444 -1.633595,-0.094 -1.633595,-0.094 z" transform="rotate(180 17.498 526.474)"/>
  <path fill="#fff" d="m 23.069359,1042.9731 0,0.5966 c 0,0 0.110485,0.3757 -0.220971,0.2431 -0.331456,-0.1326 -0.972272,-0.6629 -1.038563,-0.7734 -0.06629,-0.1105 -0.751301,-0.5966 -0.596622,-0.8176 0.15468,-0.221 1.458408,-0.066 1.458408,-0.066 z" opacity=".857" transform="rotate(180 17.498 526.474)"/>
</svg>
