<?xml version="1.0" encoding="UTF-8" standalone="no"?>
<svg
   width="16"
   height="16"
   version="1.1"
   id="svg37"
   xmlns:xlink="http://www.w3.org/1999/xlink"
   xmlns="http://www.w3.org/2000/svg"
   xmlns:svg="http://www.w3.org/2000/svg">
  <defs
     id="defs17">
    <linearGradient
       id="d">
      <stop
         offset="0"
         stop-color="#5c7aaa"
         id="stop1" />
      <stop
         offset="1"
         stop-color="#5c7aaa"
         stop-opacity="0"
         id="stop2" />
    </linearGradient>
    <linearGradient
       id="a">
      <stop
         offset="0"
         stop-color="#fff"
         id="stop3" />
      <stop
         offset="1"
         stop-color="#fff"
         stop-opacity="0"
         id="stop4" />
    </linearGradient>
    <linearGradient
       xlink:href="#a"
       id="h"
       x1="3"
       x2="4"
       y1="1045.862"
       y2="1045.862"
       gradientUnits="userSpaceOnUse" />
    <linearGradient
       xlink:href="#a"
       id="i"
       x1="4.5"
       x2="4.5"
       y1="1044.347"
       y2="1045.343"
       gradientUnits="userSpaceOnUse" />
    <linearGradient
       xlink:href="#b"
       id="j"
       x1="3"
       x2="4"
       y1="1045.862"
       y2="1045.862"
       gradientUnits="userSpaceOnUse" />
    <linearGradient
       id="b">
      <stop
         offset="0"
         stop-color="#fff"
         id="stop5" />
      <stop
         offset="1"
         stop-color="#fff"
         stop-opacity="0"
         id="stop6" />
    </linearGradient>
    <linearGradient
       xlink:href="#b"
       id="k"
       x1="4.5"
       x2="4.5"
       y1="1044.347"
       y2="1045.343"
       gradientUnits="userSpaceOnUse" />
    <linearGradient
       xlink:href="#c"
       id="m"
       x1="3"
       x2="4"
       y1="1045.862"
       y2="1045.862"
       gradientUnits="userSpaceOnUse" />
    <linearGradient
       id="c">
      <stop
         offset="0"
         stop-color="#fff"
         id="stop7" />
      <stop
         offset="1"
         stop-color="#fff"
         stop-opacity="0"
         id="stop8" />
    </linearGradient>
    <linearGradient
       xlink:href="#c"
       id="n"
       x1="4.5"
       x2="4.5"
       y1="1044.347"
       y2="1045.343"
       gradientUnits="userSpaceOnUse" />
    <linearGradient
       xlink:href="#d"
       id="l"
       x1="6"
       x2="7.679"
       y1="1046.041"
       y2="1047.72"
       gradientUnits="userSpaceOnUse" />
    <linearGradient
       xlink:href="#e"
       id="r"
       x1="2.656"
       x2="4.082"
       y1="1049.398"
       y2="1050.53"
       gradientUnits="userSpaceOnUse" />
    <linearGradient
       xlink:href="#f"
       id="q"
       x1="-.981"
       x2="1.984"
       y1="1047.424"
       y2="1050.319"
       gradientTransform="translate(4 -1036.362)"
       gradientUnits="userSpaceOnUse" />
    <linearGradient
       xlink:href="#g"
       id="o"
       x1="-11.211"
       x2="-8.701"
       y1="1042.16"
       y2="1044.67"
       gradientTransform="translate(20)"
       gradientUnits="userSpaceOnUse" />
    <linearGradient
       id="g">
      <stop
         offset="0"
         stop-color="#986443"
         id="stop9" />
      <stop
         offset="1"
         stop-color="#994f1b"
         id="stop10" />
    </linearGradient>
    <linearGradient
       id="f">
      <stop
         offset="0"
         stop-color="#e4cf94"
         id="stop11" />
      <stop
         offset=".322"
         stop-color="#ede0ba"
         id="stop12" />
      <stop
         offset=".648"
         stop-color="#c1aa7e"
         id="stop13" />
      <stop
         offset="1"
         stop-color="#ad8865"
         id="stop14" />
    </linearGradient>
    <linearGradient
       id="e">
      <stop
         offset="0"
         stop-color="#4d4d4d"
         id="stop15" />
      <stop
         offset=".294"
         stop-color="#727272"
         id="stop16" />
      <stop
         offset="1"
         stop-color="#4d4d4d"
         id="stop17" />
    </linearGradient>
    <filter
       id="p"
       x="-0.09892805"
       y="-0.10064723"
       width="1.1978561"
       height="1.2012945">
      <feGaussianBlur
         stdDeviation=".222"
         id="feGaussianBlur17" />
    </filter>
  </defs>
  <path
     fill="#5c7aaa"
     d="m 2.6421734,1042.6833 0,5.0367 5.0367406,0 0,-5.0367 z m 1.6789131,1.6789 1.6789135,0 0,1.6789 -1.6789135,0 z"
     transform="matrix(.59562 0 0 .59562 -.574 -620.046)"
     id="path17" />
  <path
     fill="#91a5c7"
     d="M3 1044.362H6V1047.362H3z"
     transform="matrix(.33334 0 0 .33333 1 -346.12)"
     id="path18" />
  <path
     fill="url(#h)"
     d="m 3,1044.3622 1,1 0,2 -1,0 z"
     opacity=".5"
     transform="matrix(.33334 0 0 .33333 1 -346.12)"
     id="path19" />
  <path
     fill="url(#i)"
     d="m 3,1044.3622 1,1 2,0 0,-1 z"
     opacity=".5"
     transform="matrix(.33334 0 0 .33333 1 -346.12)"
     id="path20" />
  <path
     fill="#5c7aaa"
     d="m 2.6421734,1042.6833 0,5.0367 5.0367406,0 0,-5.0367 z m 1.6789131,1.6789 1.6789135,0 0,1.6789 -1.6789135,0 z"
     transform="matrix(.59562 0 0 .59562 3.426 -616.046)"
     id="path21" />
  <path
     fill="#91a5c7"
     d="M3 1044.362H6V1047.362H3z"
     transform="matrix(.33334 0 0 .33333 5 -342.12)"
     id="path22" />
  <path
     fill="url(#j)"
     d="m 3,1044.3622 1,1 0,2 -1,0 z"
     opacity=".5"
     transform="matrix(.33334 0 0 .33333 5 -342.12)"
     id="path23" />
  <path
     fill="url(#k)"
     d="m 3,1044.3622 1,1 2,0 0,-1 z"
     opacity=".5"
     transform="matrix(.33334 0 0 .33333 5 -342.12)"
     id="path24" />
  <path
     fill="url(#l)"
     d="m 2.6421734,1042.6833 0,5.0367 5.0367406,0 0,-5.0367 z m 1.6789135,1.6912 1.6789135,0 0,1.6913 -1.6789135,0 z"
     transform="matrix(.59562 0 0 .59562 3.426 -612.046)"
     id="path25" />
  <path
     fill="#91a5c7"
     d="M3 1044.362H6V1047.362H3z"
     transform="matrix(.33334 0 0 .33333 5 -338.12)"
     id="path26" />
  <path
     fill="url(#m)"
     d="m 3,1044.3622 1,1 0,2 -1,0 z"
     opacity=".5"
     transform="matrix(.33334 0 0 .33333 5 -338.12)"
     id="path27" />
  <path
     fill="url(#n)"
     d="m 3,1044.3622 1,1 2,0 0,-1 z"
     opacity=".5"
     transform="matrix(.33334 0 0 .33333 5 -338.12)"
     id="path28" />
  <path
     fill="#5c7aaa"
     d="m 1.9999997,1040.3622 1.0000146,0 0,7 -1.0000146,0 z"
     transform="translate(0 -1036.362)"
     id="path29" />
  <path
     fill="#5c7aaa"
     d="m2 1042.362 3 0 0 1-3 0zM2 1046.362l3 0 0 1-3 0zM5 1038.362l3 0 0 1-3 0z"
     transform="translate(0 -1036.362)"
     id="path30" />
  <path
     fill="none"
     stroke="url(#o)"
     stroke-linejoin="round"
     d="m 15.685953,1040.5523 -8.747594,8.7054 -5.461084,2.5938 2.59375,-5.4564 8.663811,-8.7231 c 1.269887,0.6025 2.210467,1.6169 2.951117,2.8807 z"
     color="#000"
     enable-background="accumulate"
     font-family="Sans"
     font-weight="400"
     overflow="visible"
     style="text-indent:0;text-align:start;line-height:normal;text-transform:none;block-progression:tb;marker:none;-inkscape-font-specification:Sans"
     transform="matrix(.70941 0 0 .70941 4.908 -730.219)"
     id="path31" />
  <path
     fill="#ffcb72"
     d="m 12.75,1037.6747 -8.6875,8.7188 0.9375,0.9062 8.9375,-8.875 c -0.362696,-0.2963 -0.752826,-0.5438 -1.1875,-0.75 z"
     color="#000"
     enable-background="accumulate"
     font-family="Sans"
     font-weight="400"
     overflow="visible"
     style="text-indent:0;text-align:start;line-height:normal;text-transform:none;block-progression:tb;marker:none;-inkscape-font-specification:Sans"
     transform="matrix(.70941 0 0 .70941 4.908 -730.219)"
     id="path32" />
  <path
     fill="#e5a856"
     d="m 15.3125,1039.956 -8.78125,8.9062 0.40625,0.4063 8.75,-8.7188 c -0.120121,-0.205 -0.24381,-0.4026 -0.375,-0.5937 z"
     color="#000"
     enable-background="accumulate"
     font-family="Sans"
     font-weight="400"
     overflow="visible"
     style="text-indent:0;text-align:start;line-height:normal;text-transform:none;block-progression:tb;marker:none;-inkscape-font-specification:Sans"
     transform="matrix(.70941 0 0 .70941 4.908 -730.219)"
     id="path33" />
  <path
     fill="#fbbc67"
     d="m 6.536718,1048.8567 -1.548139,-1.5456 8.939717,-8.8821 c 0.52506,0.4288 0.980135,0.9451 1.380966,1.5292 z"
     color="#000"
     enable-background="accumulate"
     font-family="Sans"
     font-weight="400"
     overflow="visible"
     style="text-indent:0;text-align:start;line-height:normal;text-transform:none;block-progression:tb;marker:none;-inkscape-font-specification:Sans"
     transform="matrix(.70941 0 0 .70941 4.908 -730.219)"
     id="path34" />
  <path
     fill="none"
     stroke="#fff"
     d="m 4.984376,1047.2528 8.937501,-8.8281"
     filter="url(#p)"
     opacity=".5"
     transform="matrix(.70941 0 0 .70941 4.908 -730.219)"
     id="path35" />
  <path
     fill="url(#q)"
     d="M 5.40625,8.6875 4.09375,10 2.6875,12.9375 l 1.375,1.28125 -0.03125,0.0625 2.9375,-1.40625 0.75,-0.75 0.1875,-2 L 5.1875,9.96875 c 0,0 0.127199,-0.74275 0.21875,-1.28125 z"
     transform="matrix(.70941 0 0 .70941 4.908 4.992)"
     id="path36" />
  <path
     fill="url(#r)"
     d="m 3.25,1049.1435 c -0.211528,0.024 -0.41079,0.089 -0.5625,0.1562 l -1.21875,2.5625 2.5625,-1.2187 0.03125,-0.062 c 0.121601,-0.3002 0.273127,-0.8318 -0.09375,-1.2188 -0.132606,-0.1402 -0.331591,-0.1963 -0.5,-0.2187 -0.08057,-0.011 -0.138928,-0.01 -0.21875,0 z"
     transform="matrix(.70941 0 0 .70941 4.908 -730.219)"
     id="path37" />
</svg>
