<svg xmlns="http://www.w3.org/2000/svg" xmlns:xlink="http://www.w3.org/1999/xlink" width="16" height="16">
  <defs>
    <linearGradient id="b">
      <stop offset="0" stop-color="#2f81ad"/>
      <stop offset="1" stop-color="#a7d7f1"/>
    </linearGradient>
    <linearGradient id="a">
      <stop offset="0" stop-color="#0d5c9a"/>
      <stop offset="1" stop-color="#4077a7"/>
    </linearGradient>
    <linearGradient xlink:href="#a" id="e" x1="8.5" x2="7" y1="1048.893" y2="1050.362" gradientTransform="translate(-4)" gradientUnits="userSpaceOnUse"/>
    <radialGradient xlink:href="#b" id="d" cx="5.531" cy="4.531" r="3.682" fx="5.531" fy="4.531" gradientTransform="matrix(1.75153 0 0 .57209 -4.157 1.939)" gradientUnits="userSpaceOnUse"/>
    <radialGradient xlink:href="#b" id="c" cx="5.531" cy="4.531" r="3.682" fx="5.531" fy="4.531" gradientTransform="matrix(1.75153 0 0 .57209 -4.157 1.939)" gradientUnits="userSpaceOnUse"/>
  </defs>
  <path fill="url(#c)" stroke="#214b6c" stroke-width="1.052" d="m 8.6875007,4.5312495 c 0,1.7431489 -1.4131013,3.1562503 -3.1562502,3.1562503 -1.7431489,0 -3.1562503,-1.4131014 -3.1562503,-3.1562503 0,-1.7431489 1.4131014,-3.1562502 3.1562503,-3.1562502 1.7431489,0 3.1562502,1.4131013 3.1562502,3.1562502 z" transform="matrix(.9913 0 0 .9913 .017 .008)"/>
  <path fill="url(#d)" stroke="#214b6c" stroke-width="1.052" d="m 8.6875007,4.5312495 c 0,1.7431489 -1.4131013,3.1562503 -3.1562502,3.1562503 -1.7431489,0 -3.1562503,-1.4131014 -3.1562503,-3.1562503 0,-1.7431489 1.4131014,-3.1562502 3.1562503,-3.1562502 1.7431489,0 3.1562502,1.4131013 3.1562502,3.1562502 z" transform="matrix(.9913 0 0 .9913 7.016 8.007)"/>
  <path fill="url(#e)" d="m 0.75,1048.3622 4.25,0 0,4.2813 z" transform="translate(0 -1036.362)"/>
</svg>
