<?xml version="1.0" encoding="UTF-8" standalone="no"?>
<svg
   width="16"
   height="16"
   version="1.1"
   id="svg6"
   xmlns:xlink="http://www.w3.org/1999/xlink"
   xmlns="http://www.w3.org/2000/svg"
   xmlns:svg="http://www.w3.org/2000/svg">
  <defs
     id="defs4">
    <linearGradient
       id="b">
      <stop
         offset="0"
         stop-color="#2f81ad"
         id="stop1" />
      <stop
         offset="1"
         stop-color="#a7d7f1"
         id="stop2" />
    </linearGradient>
    <linearGradient
       id="a">
      <stop
         offset="0"
         stop-color="#0d5c9a"
         id="stop3" />
      <stop
         offset="1"
         stop-color="#4077a7"
         id="stop4" />
    </linearGradient>
    <linearGradient
       xlink:href="#a"
       id="e"
       x1="8.5"
       x2="7"
       y1="1048.893"
       y2="1050.362"
       gradientTransform="matrix(1 0 0 -1 6 2099.724)"
       gradientUnits="userSpaceOnUse" />
    <radialGradient
       xlink:href="#b"
       id="d"
       cx="5.531"
       cy="4.531"
       r="3.682"
       fx="5.531"
       fy="4.531"
       gradientTransform="matrix(1.75153 0 0 .57209 -4.157 1.939)"
       gradientUnits="userSpaceOnUse" />
    <radialGradient
       xlink:href="#b"
       id="c"
       cx="5.531"
       cy="4.531"
       r="3.682"
       fx="5.531"
       fy="4.531"
       gradientTransform="matrix(1.75153 0 0 .57209 -4.157 1.939)"
       gradientUnits="userSpaceOnUse" />
  </defs>
  <path
     fill="url(#c)"
     stroke="#214b6c"
     stroke-width="1.052"
     d="m 8.6875007,4.5312495 c 0,1.7431489 -1.4131013,3.1562503 -3.1562502,3.1562503 -1.7431489,0 -3.1562503,-1.4131014 -3.1562503,-3.1562503 0,-1.7431489 1.4131014,-3.1562502 3.1562503,-3.1562502 1.7431489,0 3.1562502,1.4131013 3.1562502,3.1562502 z"
     transform="matrix(-.9913 0 0 .9913 16.882 .008)"
     id="path4" />
  <path
     fill="url(#d)"
     stroke="#214b6c"
     stroke-width="1.052"
     d="m 8.6875007,4.5312495 c 0,1.7431489 -1.4131013,3.1562503 -3.1562502,3.1562503 -1.7431489,0 -3.1562503,-1.4131014 -3.1562503,-3.1562503 0,-1.7431489 1.4131014,-3.1562502 3.1562503,-3.1562502 1.7431489,0 3.1562502,1.4131013 3.1562502,3.1562502 z"
     transform="matrix(-.9913 0 0 .9913 9.883 8.007)"
     id="path5" />
  <path
     fill="url(#e)"
     d="m 10.75,1051.3622 4.25,0 0,-4.2813 z"
     transform="translate(0 -1036.362)"
     id="path6" />
</svg>
