<?xml version="1.0" encoding="UTF-8" standalone="no"?>
<svg
   width="16"
   height="16"
   version="1.1"
   id="svg9"
   xmlns:xlink="http://www.w3.org/1999/xlink"
   xmlns="http://www.w3.org/2000/svg"
   xmlns:svg="http://www.w3.org/2000/svg">
  <defs
     id="defs8">
    <linearGradient
       id="d">
      <stop
         offset="0"
         stop-color="#2b2b2b"
         id="stop1" />
      <stop
         offset="1"
         stop-color="#686861"
         id="stop2" />
    </linearGradient>
    <linearGradient
       id="c">
      <stop
         offset="0"
         stop-color="#d8d8d8"
         id="stop3" />
      <stop
         offset="1"
         stop-color="#d8d8d8"
         id="stop4" />
    </linearGradient>
    <linearGradient
       id="a">
      <stop
         offset="0"
         stop-color="#707070"
         id="stop5" />
      <stop
         offset="1"
         stop-color="#a0a0a0"
         id="stop6" />
    </linearGradient>
    <linearGradient
       id="b">
      <stop
         offset="0"
         stop-color="#313131"
         id="stop7" />
      <stop
         offset="1"
         stop-color="#696969"
         id="stop8" />
    </linearGradient>
    <linearGradient
       xlink:href="#a"
       id="g"
       x1="4.753"
       x2="4.753"
       y1="1051.047"
       y2="1038.581"
       gradientTransform="translate(3.11 157.798) scale(.85131)"
       gradientUnits="userSpaceOnUse" />
    <linearGradient
       xlink:href="#b"
       id="h"
       x1="8.657"
       x2="8.657"
       y1="1050.739"
       y2="1037.7"
       gradientTransform="translate(3.11 157.798) scale(.85131)"
       gradientUnits="userSpaceOnUse" />
    <linearGradient
       xlink:href="#c"
       id="e"
       x1="4.753"
       x2="4.753"
       y1="1051.047"
       y2="1038.581"
       gradientTransform="translate(-.813 152.86) scale(.85131)"
       gradientUnits="userSpaceOnUse" />
    <linearGradient
       xlink:href="#d"
       id="f"
       x1="8.657"
       x2="8.657"
       y1="1050.739"
       y2="1037.7"
       gradientTransform="translate(-.813 152.86) scale(.85131)"
       gradientUnits="userSpaceOnUse" />
  </defs>
  <g
     stroke-linecap="round"
     id="g9">
    <path
       fill="url(#e)"
       stroke="url(#f)"
       d="m 10.611417,1037.0786 c -0.39857,-0.3986 -1.040279,-0.3986 -1.438829,-10e-5 l -2.649957,2.65 -2.6499362,-2.6499 c -0.3985102,-0.3986 -1.0402794,-0.3986 -1.4388289,0 l -0.7321744,0.7322 c -0.3985317,0.3984 -0.3985216,1.0401 3.12e-5,1.4388 l 2.6498934,2.65 -2.6498973,2.6498 c -0.398592,0.3986 -0.3985819,1.0403 -1.14e-5,1.4389 l 0.7322136,0.7322 c 0.3985277,0.3985 1.0402371,0.3985 1.4388286,0 l 2.6499404,-2.6499 2.668352,2.6683 c 0.398529,0.3986 1.040238,0.3986 1.43883,0 l 0.732174,-0.7321 c 0.39855,-0.3986 0.394547,-1.0363 -3.2e-5,-1.4389 l -2.668352,-2.6683 2.649939,-2.6499 c 0.398568,-0.3987 0.398558,-1.0404 2.9e-5,-1.4389 z"
       transform="translate(0 -1036.362)"
       id="path8" />
    <path
       fill="url(#g)"
       stroke="url(#h)"
       d="m 14.534563,1042.0169 c -0.39857,-0.3986 -1.040279,-0.3986 -1.438829,-10e-5 l -2.649957,2.65 -2.6499365,-2.6499 c -0.3985102,-0.3986 -1.0402794,-0.3986 -1.4388289,0 l -0.7321744,0.7322 c -0.3985317,0.3984 -0.3985216,1.0401 3.12e-5,1.4388 l 2.6498934,2.65 -2.6498973,2.6498 c -0.398592,0.3986 -0.3985819,1.0403 -1.14e-5,1.4389 l 0.7322136,0.7322 c 0.3985277,0.3985 1.0402371,0.3985 1.4388286,0 l 2.6499407,-2.6499 2.668352,2.6683 c 0.398529,0.3986 1.040238,0.3986 1.43883,0 l 0.732174,-0.7321 c 0.39855,-0.3986 0.394547,-1.0363 -3.2e-5,-1.4389 l -2.668352,-2.6683 2.649939,-2.6499 c 0.398568,-0.3987 0.398558,-1.0404 2.9e-5,-1.4389 z"
       transform="translate(0 -1036.362)"
       id="path9" />
  </g>
</svg>
