<svg xmlns="http://www.w3.org/2000/svg" xmlns:xlink="http://www.w3.org/1999/xlink" width="16" height="16">
  <defs>
    <linearGradient id="e">
      <stop offset="0" stop-color="#c28a1d"/>
      <stop offset="1" stop-color="#c28a1d" stop-opacity="0"/>
    </linearGradient>
    <linearGradient id="c">
      <stop offset="0" stop-color="#fef6e1"/>
      <stop offset="1" stop-color="#fce5a7"/>
    </linearGradient>
    <linearGradient id="d">
      <stop offset="0" stop-color="#956413"/>
      <stop offset="1" stop-color="#c38b1d"/>
    </linearGradient>
    <linearGradient id="a">
      <stop offset="0" stop-color="#3a435f"/>
      <stop offset="1" stop-color="#5689b4"/>
    </linearGradient>
    <linearGradient id="b">
      <stop offset="0" stop-color="#3a435f"/>
      <stop offset="1" stop-color="#5689b4"/>
    </linearGradient>
    <linearGradient xlink:href="#c" id="f" x1="-1.507" x2="10.473" y1="1045.208" y2="1045.208" gradientTransform="matrix(0 .58432 .58432 0 -602.737 1041.243)" gradientUnits="userSpaceOnUse"/>
    <linearGradient xlink:href="#d" id="g" x1="32" x2="32" y1="1050.362" y2="1037.362" gradientTransform="translate(-20)" gradientUnits="userSpaceOnUse"/>
    <linearGradient xlink:href="#e" id="j" x1="34.906" x2="32.115" y1="1041.017" y2="1040.267" gradientTransform="translate(-20)" gradientUnits="userSpaceOnUse"/>
    <linearGradient xlink:href="#e" id="k" x1="27.438" x2="27.438" y1="1049.035" y2="1046.44" gradientTransform="translate(-20)" gradientUnits="userSpaceOnUse"/>
    <radialGradient xlink:href="#a" id="h" cx="2" cy="16" r="2" fx="2" fy="16" gradientTransform="matrix(2 0 0 1.5 -2 -9)" gradientUnits="userSpaceOnUse"/>
    <radialGradient xlink:href="#b" id="i" cx="2" cy="16" r="2" fx="2" fy="16" gradientTransform="matrix(2 0 0 1.5 10 1027.362)" gradientUnits="userSpaceOnUse"/>
  </defs>
  <path fill="url(#f)" stroke="url(#g)" stroke-linecap="round" stroke-linejoin="round" d="m 11.40625,1037.6747 0,2.2188 -10.15625,0 c -0.39031,0 -0.71875,0.2972 -0.71875,0.6875 l 0,0.5312 c 0,0.3903 0.32845,0.7188 0.71875,0.7188 l 5.28125,0 0,3.9687 -2.25,0 0,1 3.21875,3.2188 3.21875,-3.2188 0,-1 -2.21875,0 0,-3.9687 2.90625,0 0,2.25 1,0 3.1875,-3.2188 -3.1875,-3.1875 -1,0 z" transform="translate(0 -1036.362)"/>
  <path fill="url(#h)" d="M 1 13 C 0.446 13 -6.7697584e-018 13.446 0 14 L 0 15 L 4 15 L 4 14 C 4 13.446 3.554 13 3 13 L 1 13 z"/>
  <path fill="url(#i)" d="m 13,1049.3622 c -0.554,0 -1,0.446 -1,1 l 0,1 4,0 0,-1 c 0,-0.554 -0.446,-1 -1,-1 l -2,0 z" transform="translate(0 -1036.362)"/>
  <path fill="url(#j)" d="m 11.6875,1037.956 0,1.9375 a 0.29218979,0.29218979 0 0 1 -0.03125,0.125 0.29218979,0.29218979 0 0 1 -0.0625,0.094 0.29218979,0.29218979 0 0 1 -0.0625,0.031 0.29218979,0.29218979 0 0 1 -0.125,0.031 l -1.6875,0 0,0.4688 1.6875,0 a 0.750075,0.750075 0 0 0 0.75,-0.75 l 0,-1.4063 2.375,2.375 -2.375,2.4063 0,-1.4375 a 0.750075,0.750075 0 0 0 -0.75,-0.75 l -1.6875,0 0,0.4375 1.6875,0 a 0.29218979,0.29218979 0 0 1 0.125,0.031 0.29218979,0.29218979 0 0 1 0.0625,0.062 0.29218979,0.29218979 0 0 1 0.03125,0.031 0.29218979,0.29218979 0 0 1 0.03125,0.062 0.29218979,0.29218979 0 0 1 0.03125,0.094 0.29218979,0.29218979 0 0 1 0,0.031 l 0,1.9375 0.59375,0 2.90625,-2.9063 -2.90625,-2.9062 -0.59375,0 z" color="#000" font-family="Sans" font-weight="400" opacity=".5" overflow="visible" style="text-indent:0;text-align:start;line-height:normal;text-transform:none;block-progression:tb;marker:none;-inkscape-font-specification:Sans" transform="translate(0 -1036.362)"/>
  <path fill="url(#k)" d="m 6.8125,1043.2372 0,2.5625 a 0.29218979,0.29218979 0 0 1 -0.03125,0.125 0.29218979,0.29218979 0 0 1 -0.0625,0.094 0.29218979,0.29218979 0 0 1 -0.0625,0.031 0.29218979,0.29218979 0 0 1 -0.125,0.031 l -1.96875,0 0,0.5625 2.9375,2.9375 2.9375,-2.9375 0,-0.5625 -1.9375,0 a 0.29218979,0.29218979 0 0 1 -0.0625,0 0.29218979,0.29218979 0 0 1 -0.15625,-0.094 0.29218979,0.29218979 0 0 1 -0.03125,-0.062 0.29218979,0.29218979 0 0 1 -0.03125,-0.094 0.29218979,0.29218979 0 0 1 0,-0.031 l 0,-2.5625 -0.46875,0 0,2.5625 a 0.750075,0.750075 0 0 0 0.75,0.75 l 1.40625,0 -2.40625,2.4063 -2.40625,-2.4063 1.4375,0 a 0.750075,0.750075 0 0 0 0.75,-0.75 l 0,-2.5625 -0.46875,0 z" color="#000" font-family="Sans" font-weight="400" opacity=".5" overflow="visible" style="text-indent:0;text-align:start;line-height:normal;text-transform:none;block-progression:tb;marker:none;-inkscape-font-specification:Sans" transform="translate(0 -1036.362)"/>
</svg>
