<svg xmlns="http://www.w3.org/2000/svg" xmlns:xlink="http://www.w3.org/1999/xlink" width="16" height="16">
  <defs>
    <linearGradient id="c">
      <stop offset="0" stop-color="#fefaef"/>
      <stop offset="1" stop-color="#fce5a5"/>
    </linearGradient>
    <linearGradient id="a">
      <stop offset="0" stop-color="#3a435f"/>
      <stop offset="1" stop-color="#5689b4"/>
    </linearGradient>
    <linearGradient xlink:href="#b" id="h" x1="27.438" x2="27.438" y1="1049.035" y2="1046.44" gradientTransform="translate(-14.996 -.944)" gradientUnits="userSpaceOnUse"/>
    <linearGradient id="b">
      <stop offset="0" stop-color="#c28a1d"/>
      <stop offset="1" stop-color="#c28a1d" stop-opacity="0"/>
    </linearGradient>
    <linearGradient id="d">
      <stop offset="0" stop-color="#956413"/>
      <stop offset="1" stop-color="#c38b1d"/>
    </linearGradient>
    <linearGradient xlink:href="#c" id="f" x1="1.138" x2="12.278" y1="1045.208" y2="1045.208" gradientTransform="matrix(0 .58432 .58432 0 -597.733 3.938)" gradientUnits="userSpaceOnUse"/>
    <linearGradient xlink:href="#d" id="g" x1="30.125" x2="30.125" y1="1049.143" y2="1040.669" gradientTransform="translate(-14.996 -1037.306)" gradientUnits="userSpaceOnUse"/>
    <radialGradient xlink:href="#a" id="e" cx="2" cy="16" r="2" fx="2" fy="16" gradientTransform="matrix(2 0 0 1.5 3 1026.362)" gradientUnits="userSpaceOnUse"/>
  </defs>
  <path fill="url(#e)" d="m 6,1048.3622 c -0.554,0 -1,0.446 -1,1 l 0,1 4,0 0,-1 c 0,-0.554 -0.446,-1 -1,-1 l -2,0 z" transform="translate(0 -1036.362)"/>
  <path fill="url(#f)" stroke="url(#g)" stroke-linecap="round" stroke-linejoin="round" d="m 5.03125,3.53125 c -1.7874,0 -3.46875,1.78305 -3.46875,3.53125 l 0,1.71875 C 1.5625,9.17155 1.8597,9.5 2.25,9.5 l 0.53125,0 C 3.17155,9.5 3.5,9.17165 3.5,8.78125 l 0,-0.75 c 0,-2.0179 0.50225,-2.546875 2.53125,-2.546875 0.9680124,-0.035113 1.9599802,0 2.96875,0 2.017902,0 2.53125,0.486625 2.53125,2.515625 l 0,0.5 -2.25,0 0,1 L 12.5,12.71875 15.71875,9.5 l 0,-1 L 13.5,8.5 13.5,7 C 13.5,5.2126 11.716965,3.53125 9.96875,3.53125 l -3.4375,0 -0.28125,0 z"/>
  <path fill="url(#h)" d="m 11.816249,1042.2942 0,2.5625 a 0.29218979,0.29218979 0 0 1 -0.031,0.125 0.29218979,0.29218979 0 0 1 -0.062,0.094 0.29218979,0.29218979 0 0 1 -0.062,0.031 0.29218979,0.29218979 0 0 1 -0.125,0.031 l -1.9687003,0 0,0.5625 2.9375003,2.9375 2.9375,-2.9375 0,-0.5625 -1.9375,0 a 0.29218979,0.29218979 0 0 1 -0.062,0 0.29218979,0.29218979 0 0 1 -0.1563,-0.094 0.29218979,0.29218979 0 0 1 -0.031,-0.062 0.29218979,0.29218979 0 0 1 -0.031,-0.094 0.29218979,0.29218979 0 0 1 0,-0.031 l 0,-2.5625 -0.4687,0 0,2.5625 a 0.750075,0.750075 0 0 0 0.75,0.75 l 1.4062,0 -2.4062,2.4063 -2.4063,-2.4063 1.4375,0 a 0.750075,0.750075 0 0 0 0.75,-0.75 l 0,-2.5625 -0.4687,0 z" color="#000" font-family="Sans" font-weight="400" opacity=".5" overflow="visible" style="text-indent:0;text-align:start;line-height:normal;text-transform:none;block-progression:tb;marker:none;-inkscape-font-specification:Sans" transform="translate(0 -1036.362)"/>
</svg>
