<svg xmlns="http://www.w3.org/2000/svg" xmlns:xlink="http://www.w3.org/1999/xlink" width="16" height="16">
  <defs>
    <linearGradient id="d">
      <stop offset="0" stop-color="#fef6e1"/>
      <stop offset="1" stop-color="#fce5a5"/>
    </linearGradient>
    <linearGradient id="a">
      <stop offset="0" stop-color="#3a435f"/>
      <stop offset="1" stop-color="#5689b4"/>
    </linearGradient>
    <linearGradient id="b">
      <stop offset="0" stop-color="#3a435f"/>
      <stop offset="1" stop-color="#5689b4"/>
    </linearGradient>
    <linearGradient xlink:href="#c" id="j" x1="27.438" x2="27.438" y1="1049.035" y2="1046.44" gradientTransform="rotate(-90 18.04 1052.34)" gradientUnits="userSpaceOnUse"/>
    <linearGradient id="c">
      <stop offset="0" stop-color="#c28a1d"/>
      <stop offset="1" stop-color="#c28a1d" stop-opacity="0"/>
    </linearGradient>
    <linearGradient id="e">
      <stop offset="0" stop-color="#956413"/>
      <stop offset="1" stop-color="#c38b1d"/>
    </linearGradient>
    <linearGradient xlink:href="#d" id="h" x1="1.138" x2="1.138" y1="1045.208" y2="1034.816" gradientTransform="matrix(.58432 0 0 -.58432 6.943 1653.117)" gradientUnits="userSpaceOnUse"/>
    <linearGradient xlink:href="#e" id="i" x1="20.125" x2="31.01" y1="1042.268" y2="1042.268" gradientTransform="rotate(-90 18.04 1052.34)" gradientUnits="userSpaceOnUse"/>
    <radialGradient xlink:href="#a" id="f" cx="2" cy="16" r="2" fx="2" fy="16" gradientTransform="matrix(2 0 0 1.5 -1 1026.362)" gradientUnits="userSpaceOnUse"/>
    <radialGradient xlink:href="#b" id="g" cx="2" cy="16" r="2" fx="2" fy="16" gradientTransform="matrix(2 0 0 1.5 10 1026.362)" gradientUnits="userSpaceOnUse"/>
  </defs>
  <path fill="url(#f)" d="m 2,1048.3622 c -0.554,0 -1,0.446 -1,1 l 0,1 4,0 0,-1 c 0,-0.554 -0.446,-1 -1,-1 l -2,0 z" transform="translate(0 -1036.362)"/>
  <path fill="url(#g)" d="m 13,1048.3622 c -0.554,0 -1,0.446 -1,1 l 0,1 4,0 0,-1 c 0,-0.554 -0.446,-1 -1,-1 l -2,0 z" transform="translate(0 -1036.362)"/>
  <path fill="url(#h)" stroke="url(#i)" stroke-linecap="round" stroke-linejoin="round" d="m 7.53125,1043.427 0,5.7031 c 0,0.3903 0.2972,0.7188 0.6875,0.7188 l 0.5312,0 c 0.3903,0 0.721109,-0.3285 0.7188,-0.7188 l 0,-5.2812 2.03125,0 0,2.25 1,0 3.2188,-3.2188 -3.2188,-3.2187 -1,0 0,2.2187 -2.43745,0 c -0.9367,0 -1.5313,0.4395 -1.5313,1.5469 z" transform="translate(0 -1036.362)"/>
  <path fill="url(#j)" d="m 8.9375,1043.5676 2.5625,0 a 0.29218979,0.29218979 0 0 1 0.125,0.031 0.29218979,0.29218979 0 0 1 0.094,0.062 0.29218979,0.29218979 0 0 1 0.031,0.062 0.29218979,0.29218979 0 0 1 0.031,0.125 l 0,1.9687 0.5625,0 2.9375,-2.9375 -2.9375,-2.9375 -0.5625,0 0,1.9375 a 0.29218979,0.29218979 0 0 1 0,0.062 0.29218979,0.29218979 0 0 1 -0.094,0.1563 0.29218979,0.29218979 0 0 1 -0.062,0.031 0.29218979,0.29218979 0 0 1 -0.094,0.031 0.29218979,0.29218979 0 0 1 -0.031,0 l -2.5625,0 0,0.4687 2.5625,0 a 0.750075,0.750075 0 0 0 0.75,-0.75 l 0,-1.4062 2.4063,2.4062 -2.4063,2.4063 0,-1.4375 a 0.750075,0.750075 0 0 0 -0.75,-0.75 l -2.5625,0 0,0.4687 z" color="#000" font-family="Sans" font-weight="400" opacity=".5" overflow="visible" style="text-indent:0;text-align:start;line-height:normal;text-transform:none;block-progression:tb;marker:none;-inkscape-font-specification:Sans" transform="translate(0 -1036.362)"/>
</svg>
