<svg xmlns="http://www.w3.org/2000/svg" xmlns:xlink="http://www.w3.org/1999/xlink" width="16" height="16">
  <defs>
    <linearGradient id="b">
      <stop offset="0" stop-color="#f8e088"/>
      <stop offset=".5" stop-color="#f8d880"/>
      <stop offset="1" stop-color="#f8f0d9"/>
    </linearGradient>
    <linearGradient id="a">
      <stop offset="0" stop-color="#a07818"/>
      <stop offset="1" stop-color="#b89828"/>
    </linearGradient>
    <linearGradient xlink:href="#a" id="j" x1="5.777" x2="5.777" y1="1066.644" y2="1058.631" gradientTransform="translate(10.337)" gradientUnits="userSpaceOnUse"/>
    <linearGradient xlink:href="#b" id="i" x1="7.262" x2="7.262" y1="1065.363" y2="1060.785" gradientTransform="translate(10.337)" gradientUnits="userSpaceOnUse"/>
    <linearGradient id="c">
      <stop offset="0" stop-color="#a07818"/>
      <stop offset="1" stop-color="#b89828"/>
    </linearGradient>
    <linearGradient xlink:href="#c" id="m" x1="5.777" x2="5.777" y1="1068.272" y2="1062.445" gradientTransform="translate(10.337)" gradientUnits="userSpaceOnUse"/>
    <linearGradient id="d">
      <stop offset="0" stop-color="#fff"/>
      <stop offset=".25" stop-color="#fff" stop-opacity=".25"/>
      <stop offset=".775" stop-color="#fff" stop-opacity=".251"/>
      <stop offset="1" stop-color="#fff"/>
    </linearGradient>
    <linearGradient xlink:href="#d" id="k" x1="5.949" x2="5.977" y1="1055.452" y2="1066.988" gradientTransform="translate(10.337)" gradientUnits="userSpaceOnUse"/>
    <linearGradient xlink:href="#e" id="r" x1="5.777" x2="5.777" y1="1068.272" y2="1062.445" gradientTransform="translate(18.131)" gradientUnits="userSpaceOnUse"/>
    <linearGradient id="e">
      <stop offset="0" stop-color="#a07818"/>
      <stop offset="1" stop-color="#b89828"/>
    </linearGradient>
    <linearGradient xlink:href="#f" id="p" x1="5.949" x2="5.977" y1="1055.452" y2="1066.988" gradientTransform="translate(18.131)" gradientUnits="userSpaceOnUse"/>
    <linearGradient id="f">
      <stop offset="0" stop-color="#fff"/>
      <stop offset=".25" stop-color="#fff" stop-opacity=".25"/>
      <stop offset=".775" stop-color="#fff" stop-opacity=".251"/>
      <stop offset="1" stop-color="#fff"/>
    </linearGradient>
    <linearGradient id="g">
      <stop offset="0" stop-color="#f8e088"/>
      <stop offset=".5" stop-color="#f8d880"/>
      <stop offset="1" stop-color="#f8f0d9"/>
    </linearGradient>
    <linearGradient id="h">
      <stop offset="0" stop-color="#a07818"/>
      <stop offset="1" stop-color="#b89828"/>
    </linearGradient>
    <linearGradient xlink:href="#g" id="n" x1="7.262" x2="7.262" y1="1065.363" y2="1060.785" gradientTransform="translate(18.131)" gradientUnits="userSpaceOnUse"/>
    <linearGradient xlink:href="#h" id="o" x1="5.777" x2="5.777" y1="1066.644" y2="1058.631" gradientTransform="translate(18.131)" gradientUnits="userSpaceOnUse"/>
    <filter id="l" width="1.46" height="1.162" x="-.23" y="-.081" color-interpolation-filters="sRGB">
      <feGaussianBlur stdDeviation=".322"/>
    </filter>
    <filter id="q" width="1.46" height="1.162" x="-.23" y="-.081" color-interpolation-filters="sRGB">
      <feGaussianBlur stdDeviation=".322"/>
    </filter>
  </defs>
  <g stroke-linecap="round" stroke-linejoin="round">
    <path fill="url(#i)" stroke="url(#j)" stroke-width="1.292" d="M13.762 1054.738H18.987V1067.643H13.762z" transform="matrix(.77394 0 0 .77394 -7.17 -812.809)"/>
    <path fill="none" stroke="url(#k)" stroke-width=".935" d="M14.697 1055.808H18.052V1066.718H14.697z" filter="url(#l)" transform="matrix(.77394 0 0 .77394 -7.17 -812.809)"/>
    <path fill="none" stroke="url(#m)" stroke-width="1.292" d="M13.762 1054.738H18.987V1067.672H13.762z" transform="matrix(.77394 0 0 .77394 -7.17 -812.809)"/>
    <path fill="url(#n)" stroke="url(#o)" stroke-width="1.292" d="M21.557 1054.738H26.782V1067.643H21.557z" transform="matrix(.77394 0 0 .77394 -7.17 -812.809)"/>
    <path fill="none" stroke="url(#p)" stroke-width=".935" d="M22.492 1055.808H25.847V1066.718H22.492z" filter="url(#q)" transform="matrix(.77394 0 0 .77394 -7.17 -812.809)"/>
    <path fill="none" stroke="url(#r)" stroke-width="1.292" d="M21.557 1054.738H26.782V1067.672H21.557z" transform="matrix(.77394 0 0 .77394 -7.17 -812.809)"/>
  </g>
</svg>
