<svg xmlns="http://www.w3.org/2000/svg" xmlns:xlink="http://www.w3.org/1999/xlink" width="16" height="16">
  <defs>
    <linearGradient id="b">
      <stop offset="0" stop-color="#bd8416"/>
      <stop offset="1" stop-color="#aa6f10"/>
    </linearGradient>
    <linearGradient id="a">
      <stop offset="0" stop-color="#fefdef"/>
      <stop offset="1" stop-color="#fce69e"/>
    </linearGradient>
    <linearGradient xlink:href="#a" id="e" x1="11.906" x2="11.906" y1="1042.362" y2="1047.268" gradientTransform="translate(-1 3)" gradientUnits="userSpaceOnUse"/>
    <linearGradient xlink:href="#b" id="f" x1="11" x2="11" y1="1043.362" y2="1052.362" gradientUnits="userSpaceOnUse"/>
    <linearGradient xlink:href="#c" id="h" x1="11" x2="11" y1="1043.362" y2="1052.362" gradientTransform="matrix(-1 0 0 1 15.988 -7)" gradientUnits="userSpaceOnUse"/>
    <linearGradient id="c">
      <stop offset="0" stop-color="#bd8416"/>
      <stop offset="1" stop-color="#aa6f10"/>
    </linearGradient>
    <linearGradient id="d">
      <stop offset="0" stop-color="#fefdef"/>
      <stop offset="1" stop-color="#fce69e"/>
    </linearGradient>
    <linearGradient xlink:href="#d" id="g" x1="11.906" x2="11.906" y1="1042.362" y2="1047.268" gradientTransform="matrix(-1 0 0 1 16.988 -4)" gradientUnits="userSpaceOnUse"/>
  </defs>
  <path fill="url(#e)" d="m 4,1047.3622 0,1 7,0 0,3 3.999893,-3.5 -3.999893,-3.5 0,3 z" transform="translate(0 -1036.362)"/>
  <path fill="url(#f)" d="m 10,1043.3622 0,3 -5,0 -1,0 c -0.99185,0.9918 -0.986324,2.0137 0,3 l 1,0 5,0 0,3 c 0,0.6519 0.740915,0.6375 1.5,0 l 4.9375,-4.5 -4.9375,-4.5 c -0.760225,-0.7602 -1.5,-0.5203 -1.5,0 z m 1,1 4,3.5 -4,3.5 0,-3 -6.4375,0 c -0.276214,-0.2099 -0.277444,-0.7282 0,-1 l 6.4375,0 z" transform="translate(0 -1036.362)"/>
  <path fill="url(#g)" d="m 11.987978,1040.3622 0,1 -7.0000023,0 0,3 -3.99989299,-3.5 3.99989299,-3.5 0,3 z" transform="translate(0 -1036.362)"/>
  <path fill="url(#h)" d="m 5.9879757,1036.3622 0,3 5.0000023,0 1,0 c 0.99185,0.9918 0.986324,2.0137 0,3 l -1,0 -5.0000023,0 0,3 c 0,0.6519 -0.740915,0.6375 -1.5,0 l -4.93749974,-4.5 4.93749974,-4.5 c 0.760225,-0.7602 1.5,-0.5203 1.5,0 z m -1,1 -3.99999999,3.5 3.99999999,3.5 0,-3 6.4375023,0 c 0.276214,-0.2099 0.277444,-0.7282 0,-1 l -6.4375023,0 z" transform="translate(0 -1036.362)"/>
</svg>
