<svg xmlns="http://www.w3.org/2000/svg" xmlns:xlink="http://www.w3.org/1999/xlink" width="16" height="16">
  <defs>
    <linearGradient id="c">
      <stop offset="0" stop-color="#fff"/>
      <stop offset="1" stop-color="#fff" stop-opacity="0"/>
    </linearGradient>
    <linearGradient id="b">
      <stop offset="0" stop-color="#fff"/>
      <stop offset=".5" stop-color="#fff" stop-opacity=".496"/>
      <stop offset="1" stop-color="#fff"/>
    </linearGradient>
    <linearGradient id="a">
      <stop offset="0" stop-color="#e83038"/>
      <stop offset="1" stop-color="#af131a"/>
    </linearGradient>
    <linearGradient xlink:href="#a" id="f" x1="8.22" x2="8.22" y1="1043.381" y2="1049.088" gradientUnits="userSpaceOnUse"/>
    <linearGradient xlink:href="#b" id="g" x1="7.501" x2="7.501" y1="1040.394" y2="1048.31" gradientUnits="userSpaceOnUse"/>
    <linearGradient id="d">
      <stop offset="0" stop-color="#707070"/>
      <stop offset="1" stop-color="#a0a0a0"/>
    </linearGradient>
    <linearGradient id="e">
      <stop offset="0" stop-color="#2b2b2b"/>
      <stop offset="1" stop-color="#404040"/>
    </linearGradient>
    <linearGradient xlink:href="#d" id="i" x1="4.753" x2="4.753" y1="1051.047" y2="1038.581" gradientTransform="matrix(.682 0 0 .64569 5.322 373.548)" gradientUnits="userSpaceOnUse"/>
    <linearGradient xlink:href="#e" id="j" x1="8.657" x2="8.657" y1="1050.739" y2="1037.7" gradientTransform="matrix(.682 0 0 .64569 5.322 373.548)" gradientUnits="userSpaceOnUse"/>
    <radialGradient xlink:href="#c" id="h" cx="8.239" cy="1045.268" r="4.51" fx="8.239" fy="1045.268" gradientTransform="matrix(1 0 0 .99965 0 .36)" gradientUnits="userSpaceOnUse"/>
  </defs>
  <g transform="translate(0 -1036.362)">
    <g color="#000" font-family="Sans" font-size="13.589" font-weight="400" letter-spacing="0" transform="matrix(.85381 0 0 .84974 -1.225 154.326)" word-spacing="0">
      <rect width="9.944" height="9.988" x="2.903" y="1039.493" fill="url(#f)" stroke="#a81d24" stroke-width=".6" overflow="visible" rx="1.149" ry="1.149" style="line-height:125%;marker:none"/>
      <rect width="7.689" height="7.653" x="4.017" y="1040.633" fill="none" stroke="url(#g)" stroke-opacity=".692" stroke-width=".9" overflow="visible" rx=".309" ry=".309" style="line-height:125%;marker:none"/>
    </g>
    <rect width="9.021" height="9.017" x=".989" y="1037.355" fill="url(#h)" color="#000" font-family="Sans" font-size="13.589" font-weight="400" letter-spacing="0" overflow="visible" rx="1.258" ry="1.258" style="line-height:125%;marker:none" word-spacing="0"/>
    <path fill="url(#i)" stroke="url(#j)" stroke-linecap="round" d="m 14.474439,1044.197 c -0.319304,-0.3022 -0.83339,-0.3022 -1.152678,0 l -2.122933,2.0099 -2.1229178,-2.0099 c -0.3192555,-0.3022 -0.83339,-0.3022 -1.1526765,0 l -0.5865593,0.5553 c -0.3192716,0.3023 -0.3192629,0.7889 2.61e-5,1.0913 l 2.1228823,2.01 -2.1228873,2.0097 c -0.3193188,0.3025 -0.3193114,0.7891 -7.4e-6,1.0914 l 0.5865903,0.5555 c 0.3192691,0.3022 0.8333552,0.3022 1.152674,0 l 2.1229226,-2.01 2.137671,2.0239 c 0.31927,0.3024 0.833356,0.3024 1.152677,0 l 0.586559,-0.5552 c 0.319285,-0.3024 0.316078,-0.7862 -2.6e-5,-1.0914 l -2.137671,-2.0239 2.12292,-2.0099 c 0.319301,-0.3023 0.319294,-0.7891 2.4e-5,-1.0914 z"/>
  </g>
</svg>
