<svg xmlns="http://www.w3.org/2000/svg" xmlns:xlink="http://www.w3.org/1999/xlink" width="16" height="16">
  <defs>
    <linearGradient id="d">
      <stop offset="0" stop-color="#6983b3"/>
      <stop offset="1" stop-color="#a2b1c8"/>
    </linearGradient>
    <linearGradient id="c">
      <stop offset="0" stop-color="#a97e20"/>
      <stop offset="1" stop-color="#bb9529"/>
    </linearGradient>
    <linearGradient id="b">
      <stop offset="0" stop-color="#fefaef"/>
      <stop offset="1" stop-color="#fce39f"/>
    </linearGradient>
    <linearGradient xlink:href="#a" id="i" x1="27.438" x2="27.438" y1="1049.035" y2="1046.44" gradientTransform="rotate(-90 15.509 1056.871)" gradientUnits="userSpaceOnUse"/>
    <linearGradient id="a">
      <stop offset="0" stop-color="#c28a1d"/>
      <stop offset="1" stop-color="#c28a1d" stop-opacity="0"/>
    </linearGradient>
    <linearGradient xlink:href="#b" id="g" x1="-1.697" x2="-1.697" y1="1046.706" y2="1040.056" gradientTransform="matrix(.58432 0 0 -.58432 -.12 1655.117)" gradientUnits="userSpaceOnUse"/>
    <linearGradient xlink:href="#c" id="h" x1="24.063" x2="31.01" y1="1042.268" y2="1042.268" gradientTransform="rotate(-90 15.509 1056.871)" gradientUnits="userSpaceOnUse"/>
    <linearGradient xlink:href="#d" id="j" x1="13" x2="16" y1="1038.862" y2="1038.862" gradientTransform="matrix(-1 0 0 1 29 2)" gradientUnits="userSpaceOnUse"/>
    <linearGradient xlink:href="#e" id="k" x1="3" x2="4" y1="1045.862" y2="1045.862" gradientUnits="userSpaceOnUse"/>
    <linearGradient id="e">
      <stop offset="0" stop-color="#fff"/>
      <stop offset="1" stop-color="#fff" stop-opacity="0"/>
    </linearGradient>
    <linearGradient xlink:href="#e" id="l" x1="4.5" x2="4.5" y1="1044.347" y2="1045.343" gradientUnits="userSpaceOnUse"/>
    <linearGradient xlink:href="#f" id="m" x1="3" x2="4" y1="1045.862" y2="1045.862" gradientUnits="userSpaceOnUse"/>
    <linearGradient id="f">
      <stop offset="0" stop-color="#fff"/>
      <stop offset="1" stop-color="#fff" stop-opacity="0"/>
    </linearGradient>
    <linearGradient xlink:href="#f" id="n" x1="4.5" x2="4.5" y1="1044.347" y2="1045.343" gradientUnits="userSpaceOnUse"/>
  </defs>
  <path fill="url(#g)" stroke="url(#h)" stroke-linecap="round" stroke-linejoin="round" stroke-width=".584" d="m -3.79685,1045.8488 8.23435,0 0,2.25 1,0 3.2188,-3.2188 -3.2188,-3.2187 -1,0 0,2.2187 -8.23435,0 z" transform="translate(0 -1036.362)"/>
  <path fill="url(#i)" d="m 1.875,1045.5675 2.5625,0 c 0.04327,9e-4 0.08632,0.012 0.125,0.031 0.03495,0.014 0.06707,0.035 0.094,0.062 0.01274,0.019 0.02317,0.04 0.031,0.062 0.01942,0.039 0.0301,0.082 0.031,0.125 l 0,1.9687 0.5625,0 2.9375,-2.9375 -2.9375,-2.9375 -0.5625,0 0,1.9375 c 0.0022,0.021 0.0022,0.041 0,0.062 -0.01374,0.06 -0.04719,0.1159 -0.094,0.1563 -0.01934,0.013 -0.0402,0.023 -0.062,0.031 -0.02927,0.016 -0.06121,0.026 -0.094,0.031 -0.01032,5e-4 -0.02068,5e-4 -0.031,0 l -2.5625,0 0,0.4687 2.5625,0 c 0.392689,0 0.749961,-0.3573 0.75,-0.75 l 0,-1.4062 2.4063,2.4062 -2.4063,2.4063 0,-1.4375 c -3.9e-5,-0.3927 -0.357311,-0.75 -0.75,-0.75 l -2.5625,0 0,0.4687 z" color="#000" font-family="Sans" font-weight="400" opacity=".25" overflow="visible" style="text-indent:0;text-align:start;line-height:normal;text-transform:none;block-progression:tb;marker:none;-inkscape-font-specification:Sans" transform="translate(0 -1036.362)"/>
  <path fill="#5e79ab" d="m 11,1049.3622 0,-7 2,0 -2.499669,-4.2103 L 8,1042.3622 l 2,0 0,7 z" transform="translate(0 -1036.362)"/>
  <path fill="#5e79ab" d="m13 1044.362-2 0 0 1 2 0zM13 1048.362l-2 0 0 1 2 0z" transform="translate(0 -1036.362)"/>
  <path fill="url(#j)" d="m 13,1040.3622 3,0 0,1 -3,0 z" transform="translate(0 -1036.362)"/>
  <path fill="#de5d6b" d="m 2.6421734,1042.6833 0,5.0367 5.0367406,0 0,-5.0367 z m 1.6789131,1.6789 1.6789135,0 0,1.6789 -1.6789135,0 z" transform="matrix(.59562 0 0 .59562 11.426 -610.046)"/>
  <path fill="#eb98a2" d="M3 1044.362H6V1047.362H3z" transform="matrix(.33334 0 0 .33333 13 -336.12)"/>
  <path fill="url(#k)" d="m 3,1044.3622 1,1 0,2 -1,0 z" opacity=".5" transform="matrix(.33334 0 0 .33333 13 -336.12)"/>
  <path fill="url(#l)" d="m 3,1044.3622 1,1 2,0 0,-1 z" opacity=".5" transform="matrix(.33334 0 0 .33333 13 -336.12)"/>
  <path fill="#de5d6b" d="m 2.6421734,1042.6833 0,5.0367 5.0367406,0 0,-5.0367 z m 1.6789131,1.6789 1.6789135,0 0,1.6789 -1.6789135,0 z" transform="matrix(.59562 0 0 .59562 11.426 -614.046)"/>
  <path fill="#eb98a2" d="M3 1044.362H6V1047.362H3z" transform="matrix(.33334 0 0 .33333 13 -340.12)"/>
  <path fill="url(#m)" d="m 3,1044.3622 1,1 0,2 -1,0 z" opacity=".5" transform="matrix(.33334 0 0 .33333 13 -340.12)"/>
  <path fill="url(#n)" d="m 3,1044.3622 1,1 2,0 0,-1 z" opacity=".5" transform="matrix(.33334 0 0 .33333 13 -340.12)"/>
</svg>
