<svg xmlns="http://www.w3.org/2000/svg" xmlns:xlink="http://www.w3.org/1999/xlink" width="16" height="16">
  <defs>
    <linearGradient id="j">
      <stop offset="0" stop-opacity=".502"/>
      <stop offset="1" stop-opacity=".25"/>
    </linearGradient>
    <linearGradient id="i">
      <stop offset="0"/>
      <stop offset=".5" stop-opacity=".252"/>
      <stop offset=".75" stop-opacity="0"/>
      <stop offset="1"/>
    </linearGradient>
    <linearGradient id="f">
      <stop offset="0" stop-color="#61719a"/>
      <stop offset="1" stop-color="#8599bf"/>
    </linearGradient>
    <linearGradient id="g">
      <stop offset="0" stop-color="#61719a"/>
      <stop offset="1" stop-color="#8599bf"/>
    </linearGradient>
    <linearGradient id="e">
      <stop offset="0" stop-color="#e7eef9"/>
      <stop offset="1" stop-color="#f1f5fb"/>
    </linearGradient>
    <linearGradient xlink:href="#a" id="u" x1="-13" x2="-15" y1="1047.362" y2="1047.362" gradientTransform="translate(20 -4)" gradientUnits="userSpaceOnUse"/>
    <linearGradient id="a">
      <stop offset="0" stop-color="#fff" stop-opacity="0"/>
      <stop offset="1" stop-color="#d1eeff"/>
    </linearGradient>
    <linearGradient xlink:href="#b" id="v" x1="-11" x2="-11" y1="1042.362" y2="1044.362" gradientTransform="translate(19 -4)" gradientUnits="userSpaceOnUse"/>
    <linearGradient id="b">
      <stop offset="0" stop-color="#d1eeff"/>
      <stop offset="1" stop-color="#fff" stop-opacity="0"/>
    </linearGradient>
    <linearGradient xlink:href="#c" id="q" x1="-11" x2="-11" y1="1042.362" y2="1044.362" gradientTransform="translate(16 2)" gradientUnits="userSpaceOnUse"/>
    <linearGradient id="c">
      <stop offset="0" stop-color="#d1eeff"/>
      <stop offset="1" stop-color="#fff" stop-opacity="0"/>
    </linearGradient>
    <linearGradient id="d">
      <stop offset="0" stop-color="#fff" stop-opacity="0"/>
      <stop offset="1" stop-color="#d1eeff"/>
    </linearGradient>
    <linearGradient xlink:href="#d" id="p" x1="-13" x2="-15" y1="1047.362" y2="1047.362" gradientTransform="translate(17 2)" gradientUnits="userSpaceOnUse"/>
    <linearGradient xlink:href="#e" id="t" x1="12" x2="12" y1="1045.362" y2="1039.362" gradientTransform="translate(2)" gradientUnits="userSpaceOnUse"/>
    <linearGradient xlink:href="#f" id="w" x1="6" x2="12" y1="1050.862" y2="1050.862" gradientTransform="matrix(-.33333 0 0 1 16 -10)" gradientUnits="userSpaceOnUse"/>
    <linearGradient xlink:href="#g" id="x" x1="6" x2="14" y1="1050.862" y2="1050.862" gradientTransform="matrix(-.25 0 0 1 15.5 -8)" gradientUnits="userSpaceOnUse"/>
    <linearGradient id="h">
      <stop offset="0" stop-color="#e7eef9"/>
      <stop offset="1" stop-color="#f1f5fb"/>
    </linearGradient>
    <linearGradient xlink:href="#h" id="o" x1="12" x2="12" y1="1045.362" y2="1039.362" gradientTransform="matrix(.5 0 0 .57143 .5 451.012)" gradientUnits="userSpaceOnUse"/>
    <linearGradient xlink:href="#i" id="y" x1="25" x2="25" y1="1049.362" y2="1050.362" gradientTransform="translate(-20)" gradientUnits="userSpaceOnUse"/>
    <linearGradient xlink:href="#j" id="m" x1="29" x2="24" y1="4" y2="10" gradientTransform="translate(-20 1036.362)" gradientUnits="userSpaceOnUse"/>
    <linearGradient xlink:href="#k" id="z" x1="4.753" x2="4.753" y1="1051.047" y2="1038.581" gradientUnits="userSpaceOnUse"/>
    <linearGradient xlink:href="#l" id="A" x1="8.657" x2="8.657" y1="1050.739" y2="1037.7" gradientUnits="userSpaceOnUse"/>
    <linearGradient id="l">
      <stop offset="0" stop-color="#c51325"/>
      <stop offset="1" stop-color="#ca5d49"/>
    </linearGradient>
    <linearGradient id="k">
      <stop offset="0" stop-color="#df2c33"/>
      <stop offset="1" stop-color="#f5817d"/>
    </linearGradient>
    <filter id="s" width="1.21" height="1.28" x="-.105" y="-.14">
      <feGaussianBlur stdDeviation=".525"/>
    </filter>
    <filter id="n" width="1.216" height="1.27" x="-.108" y="-.135">
      <feGaussianBlur stdDeviation=".675"/>
    </filter>
    <mask id="r" maskUnits="userSpaceOnUse"/>
  </defs>
  <path fill="url(#m)" d="m 1,1043.3622 3,-6 12,9 -8,3 z" filter="url(#n)" opacity=".75" transform="translate(0 -1036.362)"/>
  <path fill="url(#o)" d="m 2,1044.3622 5,0 0,4 -5,0 z" color="#000" enable-background="accumulate" font-family="Sans" font-weight="400" overflow="visible" style="text-indent:0;text-align:start;line-height:normal;text-transform:none;block-progression:tb;marker:none;-inkscape-font-specification:Sans" transform="translate(0 -1036.362)"/>
  <path fill="url(#p)" d="m 3,1045.3622 0,3 -1,0 0,-4 z" transform="translate(0 -1036.362)"/>
  <path fill="url(#q)" d="m 3,1045.3622 4,0 0,-1 -5,0 z" transform="translate(0 -1036.362)"/>
  <path fill="#557cac" d="m1 1043.362 0 6 7 0 0-6zm1 1 5 0 0 4-5 0zM3 1049.362l3 0 0 1-3 0zM2 1050.362l5 0 0 1-5 0z" color="#000" enable-background="accumulate" font-family="Sans" font-weight="400" overflow="visible" style="text-indent:0;text-align:start;line-height:normal;text-transform:none;block-progression:tb;marker:none;-inkscape-font-specification:Sans" transform="translate(0 -1036.362)"/>
  <g mask="url(#r)" transform="translate(-20 -1036.362)">
    <path stroke="#000" d="m 24,1 0,9 12,0 0,-9 -12,0 z" color="#000" enable-background="accumulate" filter="url(#s)" font-family="Sans" font-weight="400" opacity=".5" overflow="visible" style="text-indent:0;text-align:start;line-height:normal;text-transform:none;block-progression:tb;marker:none;-inkscape-font-specification:Sans" transform="translate(0 1036.362)"/>
  </g>
  <path fill="url(#t)" d="m 5,1038.3622 10,0 0,7 -10,0 z" color="#000" enable-background="accumulate" font-family="Sans" font-weight="400" overflow="visible" style="text-indent:0;text-align:start;line-height:normal;text-transform:none;block-progression:tb;marker:none;-inkscape-font-specification:Sans" transform="translate(0 -1036.362)"/>
  <path fill="url(#u)" d="m 6,1039.3622 0,6 -1,0 0,-7 z" transform="translate(0 -1036.362)"/>
  <path fill="url(#v)" d="m 6,1039.3622 9,0 0,-1 -10,0 z" transform="translate(0 -1036.362)"/>
  <path fill="#548cd0" d="m 4,1037.3622 0,9 12,0 0,-9 z m 1,1 10,0 0,7 -10,0 z" color="#000" enable-background="accumulate" font-family="Sans" font-weight="400" overflow="visible" style="text-indent:0;text-align:start;line-height:normal;text-transform:none;block-progression:tb;marker:none;-inkscape-font-specification:Sans" transform="translate(0 -1036.362)"/>
  <path fill="url(#w)" d="m 14,1040.3621 0,1.0001 -2,0 0,-1.0001 z" transform="translate(0 -1036.362)"/>
  <path fill="url(#x)" d="m 14,1042.3621 0,1.0001 -2,0 0,-1.0001 z" transform="translate(0 -1036.362)"/>
  <path fill="url(#y)" d="m 3,1049.3622 3,0 0,1 -3,0 z" color="#000" enable-background="accumulate" font-family="Sans" font-weight="400" opacity=".25" overflow="visible" style="text-indent:0;text-align:start;line-height:normal;text-transform:none;block-progression:tb;marker:none;-inkscape-font-specification:Sans" transform="translate(0 -1036.362)"/>
  <path fill="url(#z)" stroke="url(#A)" stroke-linecap="round" stroke-width=".981" d="m 13.419292,1038.6553 c -0.468185,-0.4682 -1.221974,-0.4682 -1.690135,-10e-5 l -3.1127968,3.1129 -3.1127723,-3.1128 c -0.4681138,-0.4682 -1.221974,-0.4682 -1.690134,0 l -0.8600555,0.8601 c -0.4681391,0.468 -0.4681272,1.2218 3.66e-5,1.6901 l 3.1127223,3.1128 -3.1127269,3.1127 c -0.4682099,0.4682 -0.468198,1.222 -1.34e-5,1.6902 l 0.8601016,0.8601 c 0.4681344,0.4681 1.2219244,0.4681 1.6901337,0 l 3.1127774,-3.1128 3.1344053,3.1344 c 0.468135,0.4682 1.221925,0.4682 1.690135,0 l 0.860055,-0.86 c 0.46816,-0.4682 0.463458,-1.2173 -3.7e-5,-1.6902 l -3.134406,-3.1344 3.112777,-3.1127 c 0.468181,-0.4683 0.468169,-1.2221 3.4e-5,-1.6902 z" transform="matrix(.40944 0 0 .40944 5 -422.089)"/>
</svg>
