<svg xmlns="http://www.w3.org/2000/svg" width="692" height="442" viewBox="0 0 183.092 116.946">
  <g transform="translate(0 -180.054)">
    <rect width="137.054" height="116.417" x=".265" y="180.319" fill="#e6e6e6" stroke="#919191" stroke-linejoin="round" stroke-width=".529" rx="3" ry="3"/>
    <rect width="78.846" height="79.375" x="50.535" y="199.369" fill="#e6e6e6" stroke="#919191" stroke-linejoin="round" stroke-width=".529" rx="3" ry="3"/>
    <text xml:space="preserve" x="52.572" y="204.977" stroke-width=".265" font-family="sans-serif" font-size="10.583" font-weight="400" letter-spacing="0" style="line-height:1.25" word-spacing="0"><tspan x="52.572" y="204.977" font-size="3.528">Eclipse Platform</tspan></text>
    <rect width="15.346" height="23.283" x="108.744" y="207.835" fill="#e6e6e6" stroke="#919191" stroke-linejoin="round" stroke-width=".529" rx="3" ry="3"/>
    <rect width="15.346" height="23.283" x="108.744" y="239.585" fill="#e6e6e6" stroke="#919191" stroke-linejoin="round" stroke-width=".529" rx="3" ry="3"/>
    <rect width="47.096" height="15.346" x="55.827" y="247.523" fill="#e6e6e6" stroke="#919191" stroke-linejoin="round" stroke-width=".529" rx="3" ry="3"/>
    <rect width="47.096" height="31.221" x="55.827" y="207.835" fill="#e6e6e6" stroke="#919191" stroke-linejoin="round" stroke-width=".529" rx="3" ry="3"/>
    <rect width="32.544" height="21.96" x="70.379" y="217.096" fill="#e6e6e6" stroke="#919191" stroke-linejoin="round" stroke-width=".529" rx="3" ry="3"/>
    <rect width="78.846" height="7.408" x="50.535" y="271.335" fill="#b9b9b9" stroke="#919191" stroke-linejoin="round" stroke-width=".529" opacity=".746" rx="3" ry="3"/>
    <text xml:space="preserve" x="51.558" y="281.745" stroke-width=".265" font-family="sans-serif" font-size="10.379" font-weight="400" letter-spacing="0" style="line-height:1.25" transform="scale(1.01967 .98071)" word-spacing="0"><tspan x="51.558" y="281.745" font-size="3.46">Platform Runtime</tspan></text>
    <text xml:space="preserve" x="56.93" y="257.447" stroke-width=".265" font-family="sans-serif" font-size="10.379" font-weight="400" letter-spacing="0" style="line-height:1.25" transform="scale(1.01967 .98071)" word-spacing="0"><tspan x="56.93" y="257.447" font-size="3.46">Workspace</tspan></text>
    <rect width="39.158" height="12.7" x="55.827" y="226.356" fill="#e6e6e6" stroke="#919191" stroke-linejoin="round" stroke-width=".529" rx="3" ry="3"/>
    <text xml:space="preserve" x="56.859" y="235.797" stroke-width=".265" font-family="sans-serif" font-size="10.379" font-weight="400" letter-spacing="0" style="line-height:1.25" transform="scale(1.01967 .98071)" word-spacing="0"><tspan x="56.859" y="235.797" font-size="3.46">SWT</tspan></text>
    <text xml:space="preserve" x="71.283" y="226.309" stroke-width=".265" font-family="sans-serif" font-size="10.379" font-weight="400" letter-spacing="0" style="line-height:1.25" transform="scale(1.01967 .98071)" word-spacing="0"><tspan x="71.283" y="226.309" font-size="3.46">JFace</tspan></text>
    <text xml:space="preserve" x="56.93" y="216.979" stroke-width=".265" font-family="sans-serif" font-size="10.379" font-weight="400" letter-spacing="0" style="line-height:1.25" transform="scale(1.01967 .98071)" word-spacing="0"><tspan x="56.93" y="216.979" font-size="3.46">Workbench</tspan></text>
    <text xml:space="preserve" x="108.644" y="216.979" stroke-width=".265" font-family="sans-serif" font-size="10.379" font-weight="400" letter-spacing="0" style="line-height:1.25" transform="scale(1.01967 .98071)" word-spacing="0"><tspan x="108.644" y="216.979" font-size="3.46">Help</tspan></text>
    <text xml:space="preserve" x="111.708" y="243.282" stroke-width=".265" font-family="sans-serif" font-size="10.639" font-weight="400" letter-spacing="0" style="line-height:1.25" transform="scale(.99478 1.00525)" word-spacing="0"><tspan x="111.708" y="243.282" font-size="3.546">Team</tspan></text>
    <rect width="36.513" height="20.638" x="2.91" y="204.66" fill="#e6e6e6" stroke="#919191" stroke-linejoin="round" stroke-width=".529" rx="3" ry="3"/>
    <rect width="36.513" height="20.638" x="2.91" y="233.765" fill="#e6e6e6" stroke="#919191" stroke-linejoin="round" stroke-width=".529" rx="3" ry="3"/>
    <rect width="36.513" height="20.638" x="143.14" y="199.369" fill="#e6e6e6" stroke="#919191" stroke-linejoin="round" stroke-width=".529" rx="3" ry="3"/>
    <rect width="36.513" height="20.638" x="143.14" y="229.796" fill="#e6e6e6" stroke="#919191" stroke-linejoin="round" stroke-width=".529" rx="3" ry="3"/>
    <rect width="36.513" height="20.638" x="143.14" y="260.223" fill="#e6e6e6" stroke="#919191" stroke-linejoin="round" stroke-width=".529" rx="3" ry="3"/>
    <text xml:space="preserve" x="3.314" y="293.1" stroke-width=".265" font-family="sans-serif" font-size="10.583" font-weight="400" letter-spacing="0" style="line-height:1.25" word-spacing="0"><tspan x="3.314" y="293.1" font-size="7.056" font-weight="700" style="-inkscape-font-specification:&quot;sans-serif Bold&quot;">Eclipse SDK</tspan></text>
    <text xml:space="preserve" x="5.292" y="209.35" stroke-width=".265" font-family="sans-serif" font-size="3.175" font-weight="400" letter-spacing="0" style="line-height:1.25" word-spacing="0"><tspan x="5.292" y="209.35">Java</tspan><tspan x="5.292" y="213.319">Development</tspan><tspan x="5.292" y="217.288">Tooling</tspan><tspan x="5.292" y="221.256">(JDT)</tspan></text>
    <text xml:space="preserve" x="5.011" y="238.558" stroke-width=".265" font-family="sans-serif" font-size="3.175" font-weight="400" letter-spacing="0" style="line-height:1.25" word-spacing="0"><tspan x="5.011" y="238.558">Plug-in</tspan><tspan x="5.011" y="242.527">Developer</tspan><tspan x="5.011" y="246.496">Environment</tspan><tspan x="5.011" y="250.464">(PDE)</tspan></text>
    <text xml:space="preserve" x="145.412" y="204.162" stroke-width=".265" font-family="sans-serif" font-size="3.175" font-weight="400" letter-spacing="0" style="line-height:1.25" word-spacing="0"><tspan x="145.412" y="204.162" font-style="italic" style="-inkscape-font-specification:&quot;sans-serif Italic&quot;">New Tool</tspan></text>
    <text xml:space="preserve" x="145.412" y="234.589" stroke-width=".265" font-family="sans-serif" font-size="3.175" font-weight="400" letter-spacing="0" style="line-height:1.25" word-spacing="0"><tspan x="145.412" y="234.589" font-style="italic" style="-inkscape-font-specification:&quot;sans-serif Italic&quot;">New Tool</tspan></text>
    <text xml:space="preserve" x="145.412" y="265.016" stroke-width=".265" font-family="sans-serif" font-size="3.175" font-weight="400" letter-spacing="0" style="line-height:1.25" word-spacing="0"><tspan x="145.412" y="265.016" font-style="italic" style="-inkscape-font-specification:&quot;sans-serif Italic&quot;">New Tool</tspan></text>
    <path fill="#6c6c6c" stroke="#6c6c6c" stroke-linejoin="round" stroke-width=".529" d="m 50.006334,227.86583 c -2.155722,-0.25149 -3.704037,-1.33511 -3.704037,-2.59236 0,-1.25707 1.547881,-2.34059 3.703214,-2.59227 z"/>
    <path fill="none" stroke="#6c6c6c" d="M 50.270833,223.73962 H 51.59375"/>
    <path fill="#6c6c6c" stroke="#6c6c6c" d="m 50.270834,226.38546 h 1.322917"/>
    <path fill="#6c6c6c" stroke="#6c6c6c" stroke-linejoin="round" stroke-width=".529" d="m 50.27062,254.82416 c -2.155722,-0.25149 -3.704037,-1.33511 -3.704037,-2.59236 0,-1.25707 1.547881,-2.34059 3.703214,-2.59227 z"/>
    <path fill="none" stroke="#6c6c6c" d="m 50.535119,250.69795 h 1.322917"/>
    <path fill="#6c6c6c" stroke="#6c6c6c" d="m 50.53512,253.34379 h 1.322917"/>
    <path fill="none" stroke="#919191" stroke-width=".529" d="M39.688 214.979c5.767-.929 1.21 9.545 6.615 10.583M39.709 241.628c5.767-.929 1.21 9.545 6.615 10.583"/>
    <path fill="#6c6c6c" stroke="#6c6c6c" stroke-linejoin="round" stroke-width=".529" d="m 129.91033,219.6054 c 2.15572,-0.25149 3.70403,-1.33511 3.70403,-2.59236 0,-1.25707 -1.54788,-2.34059 -3.70321,-2.59227 z"/>
    <path fill="none" stroke="#6c6c6c" d="m 129.64583,215.47919 h -1.32292"/>
    <path fill="#6c6c6c" stroke="#6c6c6c" d="m 129.64583,218.12503 h -1.32292"/>
    <path fill="none" stroke="#919191" stroke-width=".529" d="M142.833 206.041c-8.112-.177-1.371 10.985-9.332 11.308M142.869 236.412c-8.112-.177-1.371 10.895-9.332 11.217M142.869 278.055c-8.112.177-1.371-12.253-9.151-12.123"/>
    <path fill="#6c6c6c" stroke="#6c6c6c" stroke-linejoin="round" stroke-width=".529" d="m 129.91033,250.03249 c 2.15572,-0.25149 3.70403,-1.33511 3.70403,-2.59236 0,-1.25707 -1.54788,-2.34059 -3.70321,-2.59227 z"/>
    <path fill="none" stroke="#6c6c6c" d="m 129.64583,245.90628 h -1.32292"/>
    <path fill="#6c6c6c" stroke="#6c6c6c" d="m 129.64583,248.55212 h -1.32292"/>
    <path fill="#6c6c6c" stroke="#6c6c6c" stroke-linejoin="round" stroke-width=".529" d="m 129.91033,268.87624 c 2.15572,-0.25149 3.70403,-1.33511 3.70403,-2.59236 0,-1.25707 -1.54788,-2.34059 -3.70321,-2.59227 z"/>
    <path fill="none" stroke="#6c6c6c" d="m 129.64583,264.75003 h -1.32292"/>
    <path fill="#6c6c6c" stroke="#6c6c6c" d="m 129.64583,267.39587 h -1.32292"/>
  </g>
</svg>
