<svg xmlns="http://www.w3.org/2000/svg" width="507" height="273" viewBox="0 0 134.144 72.231">
  <defs>
    <marker id="a" orient="auto" overflow="visible" refX="0" refY="0">
      <path fill="#919191" fill-rule="evenodd" stroke="#919191" stroke-linejoin="round" stroke-width=".625" d="M 8.7185878,4.0337352 -2.2072895,0.01601326 8.7185884,-4.0017078 c -1.7454984,2.3720609 -1.7354408,5.6174519 -6e-7,8.035443 z" transform="scale(-.6)"/>
    </marker>
    <marker id="b" orient="auto" overflow="visible" refX="0" refY="0">
      <path fill="#919191" fill-rule="evenodd" stroke="#919191" stroke-linejoin="round" stroke-width=".625" d="M 8.7185878,4.0337352 -2.2072895,0.01601326 8.7185884,-4.0017078 c -1.7454984,2.3720609 -1.7354408,5.6174519 -6e-7,8.035443 z" transform="scale(-.6)"/>
    </marker>
  </defs>
  <path fill="#e6e6e6" stroke="#919191" stroke-linejoin="round" stroke-width="1.058" d="M1.323 226.092H70.908V295.677H1.323z" transform="translate(0 -224.769)"/>
  <path fill="#fff" stroke="#919191" stroke-linejoin="round" stroke-width=".794" d="M82.285 241.173H124.221V276.23H82.285z" transform="translate(0 -224.769)"/>
  <path fill="#b3b3b3" stroke="#919191" stroke-linejoin="round" stroke-width=".794" d="M5.292 241.437H65.749V278.082H5.292z" transform="translate(0 -224.769)"/>
  <path fill="#e6e6e6" stroke="#919191" stroke-linejoin="round" stroke-width=".529" d="M84.667 249.639H113.507V262.604H84.667z" transform="translate(0 -224.769)"/>
  <path fill="#e6e6e6" stroke="#919191" stroke-linejoin="round" stroke-width=".529" d="M87.313 252.021H116.153V264.986H87.313z" transform="translate(0 -224.769)"/>
  <path fill="#e6e6e6" stroke="#919191" stroke-linejoin="round" stroke-width=".529" d="M89.958 254.931H118.798V267.896H89.958z" transform="translate(0 -224.769)"/>
  <path fill="#e6e6e6" stroke="#919191" stroke-linejoin="round" stroke-width=".529" d="M92.604 257.577H121.444V270.542H92.604zM10.583 257.312H60.589V275.568H10.583z" transform="translate(0 -224.769)"/>
  <path fill="#7d7d7d" d="M6.615 281.125H19.844V286.417H6.615zM22.49 281.125H35.719V286.417H22.49zM38.365 281.125H51.594V286.417H38.365zM54.24 281.125H67.469V286.417H54.24z" transform="translate(0 -224.769)"/>
  <text xml:space="preserve" x="39.593" y="208.694" stroke-width=".265" font-family="sans-serif" font-size="2.857" font-weight="400" letter-spacing="0" style="line-height:1.25" transform="matrix(.8997 0 0 1.11149 0 -224.769)" word-spacing="0"><tspan x="39.593" y="208.694" font-size="4.444" font-weight="700" style="-inkscape-font-specification:&quot;sans-serif Bold&quot;;text-align:center" text-anchor="middle">Wizard Dialog</tspan></text>
  <text xml:space="preserve" x="35.522" y="236.448" stroke-width=".265" font-family="sans-serif" font-size="3.175" font-weight="400" letter-spacing="0" style="line-height:1.25" transform="translate(0 -224.769)" word-spacing="0"><tspan x="35.522" y="236.448" font-size="3.881" style="text-align:center" text-anchor="middle">(controls)</tspan></text>
  <text xml:space="preserve" x="39.593" y="222.977" stroke-width=".265" font-family="sans-serif" font-size="2.857" font-weight="400" letter-spacing="0" style="line-height:1.25" transform="matrix(.8997 0 0 1.11149 0 -224.769)" word-spacing="0"><tspan x="39.593" y="222.977" font-size="4.444" font-weight="700" style="-inkscape-font-specification:&quot;sans-serif Bold&quot;;text-align:center" text-anchor="middle">Wizard</tspan></text>
  <text xml:space="preserve" x="35.522" y="252.323" stroke-width=".265" font-family="sans-serif" font-size="3.175" font-weight="400" letter-spacing="0" style="line-height:1.25" transform="translate(0 -224.769)" word-spacing="0"><tspan x="35.522" y="252.323" font-size="3.881" style="text-align:center" text-anchor="middle">(page set)</tspan></text>
  <text xml:space="preserve" x="35.522" y="266.875" stroke-width=".265" font-family="sans-serif" font-size="3.175" font-weight="400" letter-spacing="0" style="line-height:1.25" transform="translate(0 -224.769)" word-spacing="0"><tspan x="35.522" y="266.875" font-size="3.881" style="text-align:center" text-anchor="middle">(content)</tspan></text>
  <text xml:space="preserve" x="35.528" y="262.907" stroke-width=".265" font-family="sans-serif" font-size="3.175" font-weight="400" letter-spacing="0" style="line-height:1.25" transform="translate(0 -224.769)" word-spacing="0"><tspan x="35.528" y="262.907" font-size="3.881" style="text-align:center" text-anchor="middle">Wizard Page</tspan></text>
  <text xml:space="preserve" x="13.042" y="284.953" stroke-width=".265" font-family="sans-serif" font-size="3.175" font-weight="400" letter-spacing="0" style="line-height:1.25" transform="translate(0 -224.769)" word-spacing="0"><tspan x="13.042" y="284.953" style="text-align:center" text-anchor="middle">&lt;Back</tspan></text>
  <text xml:space="preserve" x="29.146" y="284.905" stroke-width=".265" font-family="sans-serif" font-size="3.175" font-weight="400" letter-spacing="0" style="line-height:1.25" transform="translate(0 -224.769)" word-spacing="0"><tspan x="29.146" y="284.905" style="text-align:center" text-anchor="middle">Next&gt;</tspan></text>
  <text xml:space="preserve" x="44.961" y="284.956" stroke-width=".265" font-family="sans-serif" font-size="3.175" font-weight="400" letter-spacing="0" style="line-height:1.25" transform="translate(0 -224.769)" word-spacing="0"><tspan x="44.961" y="284.956" style="text-align:center" text-anchor="middle">Finish</tspan></text>
  <text xml:space="preserve" x="60.912" y="284.953" stroke-width=".265" font-family="sans-serif" font-size="3.175" font-weight="400" letter-spacing="0" style="line-height:1.25" transform="translate(0 -224.769)" word-spacing="0"><tspan x="60.912" y="284.953" style="text-align:center" text-anchor="middle">Cancel</tspan></text>
  <text xml:space="preserve" x="92.56" y="246.905" stroke-width=".265" font-family="sans-serif" font-size="3.175" font-weight="400" letter-spacing="0" style="line-height:1.25" transform="translate(0 -224.769)" word-spacing="0"><tspan x="92.56" y="246.905" font-size="3.881" style="text-align:center" text-anchor="middle">Page set</tspan></text>
  <text xml:space="preserve" x="107.032" y="265.133" stroke-width=".265" font-family="sans-serif" font-size="3.175" font-weight="400" letter-spacing="0" style="line-height:1.25" transform="translate(0 -224.769)" word-spacing="0"><tspan x="107.032" y="265.133" font-size="3.881" style="text-align:center" text-anchor="middle">Wizard Page</tspan></text>
  <path fill="none" stroke="#919191" stroke-width=".529" marker-end="url(#a)" d="m 66.145833,252.02081 14.552084,0" transform="translate(0 -224.769)"/>
  <path fill="none" stroke="#919191" stroke-width=".529" marker-end="url(#b)" d="M 89.958333,266.5729 H 62.177083" transform="translate(0 -224.769)"/>
</svg>
