<svg xmlns="http://www.w3.org/2000/svg" xmlns:xlink="http://www.w3.org/1999/xlink" width="16" height="16">
  <defs>
    <linearGradient id="e">
      <stop offset="0" stop-color="#f7d7c0"/>
      <stop offset="1" stop-color="#bdb68f"/>
    </linearGradient>
    <linearGradient xlink:href="#a" id="g" x1="-16.963" x2="-4.992" y1="1038.895" y2="1038.895" gradientTransform="matrix(1.17963 0 0 1 38.956 .977)" gradientUnits="userSpaceOnUse"/>
    <linearGradient xlink:href="#b" id="f" x1="7.928" x2="8.014" y1="1049.325" y2="1053.325" gradientTransform="matrix(1.1821 0 0 1 14.252 -2.956)" gradientUnits="userSpaceOnUse"/>
    <linearGradient xlink:href="#c" id="h" x1="8.014" x2="8.014" y1="1039.876" y2="1041.877" gradientTransform="matrix(1.17963 0 0 1 14.33 -.992)" gradientUnits="userSpaceOnUse"/>
    <linearGradient id="b">
      <stop offset="0" stop-color="#afad95"/>
      <stop offset="1" stop-color="#8a95ac"/>
    </linearGradient>
    <linearGradient id="c">
      <stop offset="0" stop-color="#4476aa"/>
      <stop offset=".5" stop-color="#5a9ccc"/>
      <stop offset="1" stop-color="#4476aa"/>
    </linearGradient>
    <linearGradient id="a">
      <stop offset="0" stop-color="#6eb6e2"/>
      <stop offset="1" stop-color="#d3e5f4"/>
    </linearGradient>
    <linearGradient id="d">
      <stop offset="0" stop-color="#f7fdff"/>
      <stop offset="1" stop-color="#e8f0f5"/>
    </linearGradient>
    <linearGradient xlink:href="#d" id="j" x1="12.108" x2="12.108" y1="2.792" y2="17.833" gradientTransform="translate(-20.176 1059.214) scale(.72618)" gradientUnits="userSpaceOnUse"/>
    <linearGradient xlink:href="#e" id="i" x1="23.441" x2="23.735" y1="1049.305" y2="1041.305" gradientTransform="matrix(1.12395 0 0 1.12395 -2.913 -129.072)" gradientUnits="userSpaceOnUse"/>
  </defs>
  <g transform="translate(-19.001 -1038.37)">
    <path fill="#f4fcff" stroke="url(#f)" d="m 19.501354,1038.9049 h 13 v 10.9667 h -13 z"/>
    <path fill="url(#g)" stroke="url(#h)" d="m 19.501355,1038.8694 h 12.999999 v 2.0053 H 19.501355 Z"/>
    <rect width="10.993" height="1.016" x="21.009" y="1041.365" fill="#d5f3ff" ry="0"/>
    <path fill="none" stroke="url(#i)" stroke-width="1.002" d="m 23.49964,1041.3694 v 9"/>
    <rect width="7.998" height="1.016" x="1041.369" y="-21.018" fill="#d5f3ff" ry="0" transform="rotate(90)"/>
    <path fill="url(#j)" stroke="#304b8a" stroke-width="1.458" d="m -4.3360189,1067.7015 a 7.1710367,7.1710367 0 0 1 -7.1710371,7.1709 7.1710367,7.1710367 0 0 1 -7.171036,-7.1709 7.1710367,7.1710367 0 0 1 7.171036,-7.1711 7.1710367,7.1710367 0 0 1 7.1710371,7.1711 z" transform="translate(37.526 300.485) scale(.70002)"/>
    <path fill="#2a4484" d="m -9.4357617,1068.2736 c -1.2738953,10e-5 -2.2909443,0.3542 -3.0669773,1.0668 -0.776035,0.7126 -1.180487,1.6995 -1.22679,2.9336 l 2.106879,0.2667 c 0.06927,-1.5258 0.767628,-2.2669 2.0535413,-2.2669 0.544332,0 0.986005,0.1392 1.333468,0.4534 0.347451,0.3142 0.50671,0.7177 0.506718,1.2001 -8e-6,0.4489 -0.155573,0.8368 -0.480048,1.1734 -0.173559,0.1795 -0.518749,0.4482 -1.040106,0.7735 -0.47471,0.2917 -0.7828553,0.6247 -0.9334273,1.04 -0.13927,0.348 -0.21336,0.8822 -0.213355,1.6002 v 0.9601 h 1.9468633 v -0.6134 c -6e-6,-0.7067 0.304445,-1.2494 0.906758,-1.6534 0.787868,-0.5387 1.32567,-1.0168 1.626831,-1.3868 0.416727,-0.5387 0.640055,-1.1881 0.640064,-1.9736 -9e-6,-1.0772 -0.431305,-1.9671 -1.253459,-2.6403 -0.787883,-0.6283 -1.760322,-0.9333 -2.90696,-0.9334 z" font-family="Reznor" font-size="20.037" font-weight="700" letter-spacing="0" style="line-height:125%;text-align:start" transform="matrix(.5685 0 0 .55741 34.877 448.681)" word-spacing="0"/>
    <path fill="#294384" d="m -8.0758489,1079.7271 a 1.472991,1.2557853 0 0 1 -1.4729931,1.2558 1.472991,1.2557853 0 0 1 -1.472991,-1.2558 1.472991,1.2557853 0 0 1 1.472991,-1.2558 1.472991,1.2557853 0 0 1 1.4729931,1.2558 z" transform="matrix(.5685 0 0 .55741 34.877 448.681)"/>
  </g>
</svg>
