<svg xmlns="http://www.w3.org/2000/svg" xmlns:xlink="http://www.w3.org/1999/xlink" width="16" height="16">
  <defs>
    <linearGradient id="c">
      <stop offset="0" stop-color="#e0e060"/>
      <stop offset="1" stop-color="#80b050"/>
    </linearGradient>
    <linearGradient id="a">
      <stop offset="0" stop-color="#1e6cbe"/>
      <stop offset="1" stop-color="#104276"/>
    </linearGradient>
    <linearGradient xlink:href="#a" id="d" x1="30.456" x2="30.456" y1="1028.999" y2="1033.872" gradientTransform="matrix(.69574 .13683 0 .64373 -8.513 381.026)" gradientUnits="userSpaceOnUse"/>
    <linearGradient id="b">
      <stop offset="0" stop-color="#005020"/>
      <stop offset="1" stop-color="#309858"/>
    </linearGradient>
    <linearGradient xlink:href="#b" id="f" x1="2.188" x2="2.031" y1="9.264" y2="4.672" gradientTransform="matrix(1.41057 0 0 1.46928 1.359 1033.745)" gradientUnits="userSpaceOnUse"/>
    <linearGradient xlink:href="#c" id="e" x1="-5.757" x2="-5.077" y1="1042.476" y2="1047.072" gradientTransform="translate(11)" gradientUnits="userSpaceOnUse"/>
  </defs>
  <path fill="#71baff" stroke="url(#d)" stroke-width=".978" d="m 10.490941,1038.9341 c 0,0 0.803623,-0.9469 1.776433,-1.0253 0.972807,-0.077 2.241686,-0.041 2.241686,-0.041 v 13.1768 l -2.030207,-2.0455 -0.930513,2.5152 c 0,0 -0.972807,-0.861 -1.015103,-1.6048 -0.0423,-0.7434 -0.0423,-10.9749 -0.0423,-10.9749 z" transform="translate(0 -1036.362)"/>
  <path fill="url(#e)" stroke="url(#f)" d="m 3.5,1041.8622 h 2 v 2 h 2 v 2 h -2 v 2 h -2 v -2 h -2 v -2 h 2 z" transform="translate(0 -1036.362)"/>
</svg>
