<svg xmlns="http://www.w3.org/2000/svg" xmlns:xlink="http://www.w3.org/1999/xlink" width="16" height="16">
  <defs>
    <linearGradient id="e">
      <stop offset="0" stop-color="#72828e"/>
      <stop offset="1" stop-color="#003358"/>
    </linearGradient>
    <linearGradient id="j">
      <stop offset="0" stop-color="#7795b6"/>
      <stop offset="1" stop-color="#7795b6"/>
    </linearGradient>
    <linearGradient id="a">
      <stop offset="0" stop-color="#daedef"/>
      <stop offset="1" stop-color="#fff"/>
    </linearGradient>
    <linearGradient id="b">
      <stop offset="0" stop-color="#c89840"/>
      <stop offset="1" stop-color="#798da2"/>
    </linearGradient>
    <linearGradient id="k">
      <stop offset="0" stop-color="#7795b6"/>
      <stop offset="1" stop-color="#7795b6"/>
    </linearGradient>
    <linearGradient xlink:href="#a" id="n" x1="5.115" x2="12.52" y1="1044.737" y2="1044.737" gradientTransform="matrix(1.62386 0 0 1.62854 -5.757 -657.154)" gradientUnits="userSpaceOnUse"/>
    <linearGradient xlink:href="#b" id="o" x1="11.978" x2="5.926" y1="1042.128" y2="1051.254" gradientTransform="matrix(1.62386 0 0 1.62854 -5.757 -662.192)" gradientUnits="userSpaceOnUse"/>
    <linearGradient xlink:href="#c" id="s" x1="5.115" x2="12.52" y1="1044.737" y2="1044.737" gradientTransform="matrix(-1.62386 .69032 0 1.62854 31.851 -665.087)" gradientUnits="userSpaceOnUse"/>
    <linearGradient id="c">
      <stop offset="0" stop-color="#daedef"/>
      <stop offset="1" stop-color="#fff"/>
    </linearGradient>
    <linearGradient xlink:href="#d" id="t" x1="11.978" x2="5.926" y1="1042.128" y2="1051.254" gradientTransform="matrix(-1.62386 .69032 0 1.62854 31.851 -670.125)" gradientUnits="userSpaceOnUse"/>
    <linearGradient id="d">
      <stop offset="0" stop-color="#c89840"/>
      <stop offset="1" stop-color="#798da2"/>
    </linearGradient>
    <linearGradient id="l">
      <stop offset="0" stop-color="#7795b6"/>
      <stop offset="1" stop-color="#7795b6"/>
    </linearGradient>
    <linearGradient xlink:href="#f" id="u" x1="9.266" x2="5.803" y1="5.393" y2="5.393" gradientTransform="matrix(1.28203 0 0 .26193 -2.891 1046.213)" gradientUnits="userSpaceOnUse"/>
    <linearGradient id="f">
      <stop offset="0" stop-color="#7795b6"/>
      <stop offset="1" stop-color="#7795b6"/>
    </linearGradient>
    <linearGradient xlink:href="#g" id="v" x1="9.266" x2="5.803" y1="5.393" y2="5.393" gradientTransform="matrix(1.27848 0 0 .2755 -2.837 -1046.839)" gradientUnits="userSpaceOnUse"/>
    <linearGradient id="g">
      <stop offset="0" stop-color="#7795b6"/>
      <stop offset="1" stop-color="#7795b6"/>
    </linearGradient>
    <linearGradient id="h">
      <stop offset="0" stop-color="#7795b6"/>
      <stop offset="1" stop-color="#7795b6"/>
    </linearGradient>
    <linearGradient xlink:href="#h" id="w" x1="9.266" x2="5.803" y1="5.393" y2="5.393" gradientTransform="matrix(1.27848 0 0 .2755 -2.837 -1044.468)" gradientUnits="userSpaceOnUse"/>
    <linearGradient id="i">
      <stop offset="0" stop-color="#1e6cbe"/>
      <stop offset="1" stop-color="#104276"/>
    </linearGradient>
    <linearGradient xlink:href="#i" id="x" x1="30.456" x2="30.456" y1="1028.999" y2="1033.872" gradientTransform="matrix(.71756 .14615 0 .6876 -11.22 335.309)" gradientUnits="userSpaceOnUse"/>
    <linearGradient xlink:href="#j" id="p" x1="9.266" x2="5.803" y1="5.393" y2="5.393" gradientTransform="matrix(1.28203 0 0 .26193 -2.891 1046.213)" gradientUnits="userSpaceOnUse"/>
    <linearGradient xlink:href="#k" id="q" x1="9.266" x2="5.803" y1="5.393" y2="5.393" gradientTransform="matrix(1.27848 0 0 .2755 -2.837 -1046.839)" gradientUnits="userSpaceOnUse"/>
    <linearGradient xlink:href="#l" id="r" x1="9.266" x2="5.803" y1="5.393" y2="5.393" gradientTransform="matrix(1.27848 0 0 .2755 -2.837 -1044.468)" gradientUnits="userSpaceOnUse"/>
    <radialGradient xlink:href="#e" id="m" cx="16.495" cy="1050.29" r="10.779" fx="16.495" fy="1050.29" gradientTransform="matrix(1.81214 -1.9542 .9698 .27977 -1035.186 788.69)" gradientUnits="userSpaceOnUse"/>
  </defs>
  <path fill="url(#m)" d="m 24.629424,1051.8747 c 0,0 -3.992044,0.5682 -11.390548,4.8211 0,-5.4647 0,-15.2237 0,-15.2237 0,0 0.0075,-4.3255 0.0075,-3.2598 0,1.0657 0.44242,-0.08 3.322649,-1.5295 2.880227,-1.4497 8.094855,-2.1898 8.094855,-2.1898 0,0 0.674765,13.1244 -0.03446,17.3817 z m -21.2774334,-11.0351 -0.185274,15.8319 c 0,0 3.5446198,-1.0065 10.1139074,0.015 0,-4.9305 0,-13.7353 0,-13.7353 0,0 -0.0067,-3.8997 -0.0067,-2.9382 0,0.9615 -0.392834,0.097 -2.95025,-0.1158 -2.5574137,-0.2119 -6.9716755,0.9414 -6.9716755,0.9414 z" color="#000" overflow="visible" style="marker:none" transform="matrix(.72697 .15452 0 .72697 -1.914 -755.353)"/>
  <path fill="url(#n)" stroke="url(#o)" stroke-width="1.376" d="m 3.4603246,1039.0118 -0.1746117,14.8143 c 0,0 3.5230099,-0.9857 9.7142451,-0.039 0,-4.6135 0,-12.8522 0,-12.8522 0,0 -0.0063,-3.649 -0.0063,-2.7493 0,0.8997 -0.552604,0.1298 -2.962845,-0.065 -2.410241,-0.1947 -6.5704694,0.8908 -6.5704694,0.8908 z" color="#000" overflow="visible" style="marker:none" transform="matrix(.72697 .15452 0 .72697 -1.914 -755.353)"/>
  <g fill="none" color="#000">
    <path stroke="url(#p)" stroke-width=".579" d="M5.154 1047.521H10.197V1047.729H5.154z" overflow="visible" style="marker:none" transform="matrix(.72697 .15452 0 .72697 -1.648 -755.176)"/>
    <path stroke="url(#q)" stroke-width=".593" d="M5.186-1045.462H10.215V-1045.243H5.186z" overflow="visible" style="marker:none" transform="matrix(.72697 .15452 0 -.72697 -1.648 -755.176)"/>
    <path stroke="url(#r)" stroke-width=".593" d="M5.186-1043.091H10.215V-1042.872H5.186z" overflow="visible" style="marker:none" transform="matrix(.72697 .15452 0 -.72697 -1.648 -755.176)"/>
  </g>
  <path fill="url(#s)" stroke="url(#t)" stroke-width="1.376" d="m 22.633627,1034.9971 0.174612,14.74 c 0,0 -3.583802,0.525 -9.775038,4.1039 0,-4.6135 0,-12.8522 0,-12.8522 0,0 0.0063,-3.6517 0.0063,-2.752 0,0.8997 0.370226,-0.066 2.780467,-1.2856 2.410241,-1.2194 6.813639,-1.9541 6.813639,-1.9541 z" color="#000" overflow="visible" style="marker:none" transform="matrix(.72697 .15452 0 .72697 -1.914 -755.353)"/>
  <g fill="none" color="#000">
    <path stroke="url(#u)" stroke-width=".579" d="M5.154 1047.521H10.197V1047.729H5.154z" overflow="visible" style="marker:none" transform="matrix(-.72697 .15452 0 .72697 16.859 -755.207)"/>
    <path stroke="url(#v)" stroke-width=".593" d="M5.186-1045.462H10.215V-1045.243H5.186z" overflow="visible" style="marker:none" transform="matrix(-.72697 .15452 0 -.72697 16.859 -755.207)"/>
    <path stroke="url(#w)" stroke-width=".593" d="M5.186-1043.091H10.215V-1042.872H5.186z" overflow="visible" style="marker:none" transform="matrix(-.72697 .15452 0 -.72697 16.859 -755.207)"/>
  </g>
  <path fill="#71baff" stroke="url(#x)" d="m 8.3798787,1037.8372 c 0,0 0.8288172,-0.7904 1.8321243,-0.8741 1.003304,-0.083 2.311962,-0.044 2.311962,-0.044 l 0,14.0748 -2.093853,-2.1849 -0.9596847,2.6867 c 0,0 -1.0033045,-0.9197 -1.0469266,-1.7142 -0.043622,-0.794 -0.043622,-11.9439 -0.043622,-11.9439 z" transform="translate(0 -1036.362)"/>
</svg>
