<?xml version="1.0" encoding="UTF-8" standalone="no"?>
<svg
   xmlns:dc="http://purl.org/dc/elements/1.1/"
   xmlns:cc="http://creativecommons.org/ns#"
   xmlns:rdf="http://www.w3.org/1999/02/22-rdf-syntax-ns#"
   xmlns:svg="http://www.w3.org/2000/svg"
   xmlns="http://www.w3.org/2000/svg"
   xmlns:sodipodi="http://sodipodi.sourceforge.net/DTD/sodipodi-0.dtd"
   xmlns:inkscape="http://www.inkscape.org/namespaces/inkscape"
   sodipodi:docname="constr_ovr.svg"
   inkscape:version="1.0rc1 (09960d6, 2020-04-09)"
   version="1.1"
   id="svg2"
   height="8"
   width="7">
  <defs
     id="defs4" />
  <sodipodi:namedview
     inkscape:document-rotation="0"
     inkscape:snap-global="false"
     inkscape:window-maximized="0"
     inkscape:window-y="23"
     inkscape:window-x="416"
     inkscape:window-height="1005"
     inkscape:window-width="1264"
     showgrid="true"
     inkscape:current-layer="layer1"
     inkscape:document-units="px"
     inkscape:cy="3.4902571"
     inkscape:cx="3.5161074"
     inkscape:zoom="113.58593"
     inkscape:pageshadow="2"
     inkscape:pageopacity="0.0"
     borderopacity="1.0"
     bordercolor="#666666"
     pagecolor="#ffffff"
     id="base">
    <inkscape:grid
       snapvisiblegridlinesonly="true"
       enabled="true"
       visible="true"
       empspacing="5"
       id="grid2985"
       type="xygrid" />
  </sodipodi:namedview>
  <metadata
     id="metadata7">
    <rdf:RDF>
      <cc:Work
         rdf:about="">
        <dc:format>image/svg+xml</dc:format>
        <dc:type
           rdf:resource="http://purl.org/dc/dcmitype/StillImage" />
        <dc:title />
      </cc:Work>
    </rdf:RDF>
  </metadata>
  <g
     transform="translate(0,-1044.3622)"
     id="layer1"
     inkscape:groupmode="layer"
     inkscape:label="Layer 1">
    <ellipse
       ry="1.0825893"
       rx="2.4665179"
       cy="1050.2751"
       cx="3.4709821"
       id="path3351"
       style="opacity:1;fill:#ffffff;fill-opacity:1;stroke:none;stroke-opacity:1" />
    <path
       inkscape:connector-curvature="0"
       id="path3350"
       d="m 0.99437055,1044.3441 c 0,0 0.0262225,6.1581 0,6.0609 -0.0262225,-0.097 5.00707565,0 5.00707565,0 l 0,-6.029 z"
       style="fill:#ffffff;fill-opacity:1;fill-rule:evenodd;stroke:none;stroke-width:1px;stroke-linecap:butt;stroke-linejoin:miter;stroke-opacity:1" />
    <path
       style="fill:none;fill-rule:evenodd;stroke:#ffffff;stroke-width:1.01002824;stroke-linecap:butt;stroke-linejoin:miter;stroke-miterlimit:4;stroke-dasharray:none;stroke-opacity:1"
       d="m 5.47583,1049.3058 0,0.5002 c 0,0 -0.5325989,1.0498 -1.5061289,1.0498 l -1.1885365,0 c -0.5159588,0 -1.1249627,-0.7698 -1.1249627,-0.9276 l -0.1484375,-0.6884 0,-0.8854"
       id="path4163-4-0"
       inkscape:connector-curvature="0"
       sodipodi:nodetypes="csscccc" />
    <g
       id="g4195">
      <path
         sodipodi:nodetypes="csccsssccc"
         inkscape:connector-curvature="0"
         id="path4220"
         d="m 6.0379464,1048.8912 c 0,0 -0.9375,0.904 -1.2165178,0.904 -0.2790179,0 -1.3727679,-0.011 -1.5848215,-0.1897 -0.2120535,-0.1786 -0.7589285,-1.0045 -0.7700893,-1.0603 -0.011161,-0.056 0.15625,-2.5781 0.1674108,-2.7455 0.011161,-0.1674 0.4241071,-0.8817 0.4910714,-0.8817 0.066964,0 1.4955357,0.078 1.5513393,0.089 0.055803,0.011 0.9151785,0.6809 0.9151785,0.6809 l 0.4352679,0.1898 z"
         style="fill:#ffffff;fill-opacity:1;fill-rule:evenodd;stroke:none;stroke-width:1px;stroke-linecap:butt;stroke-linejoin:miter;stroke-opacity:1" />
      <path
         style="fill:none;fill-rule:evenodd;stroke:#40b659;stroke-width:1.01002824;stroke-linecap:butt;stroke-linejoin:miter;stroke-miterlimit:4;stroke-dasharray:none;stroke-opacity:1"
         d="m 4.6250922,1048.3667 0,0.5002 c 0,0 -0.1017057,1.0498 -1.0752357,1.0498 l -0.9640044,0 c -3.338e-4,0 -1.0780877,-0.012 -1.0780877,-1.0526 l 0,-3.0409 c 0,0 0.1475314,-0.9467 0.9697085,-0.9467 l 1.1180169,0 c 1.102217,0.1841 1.0168018,0.7256 1.0049239,1.4924"
         id="path4163-4"
         inkscape:connector-curvature="0"
         sodipodi:nodetypes="csscscscc" />
      <path
         style="fill:none;fill-rule:evenodd;stroke:#227e35;stroke-width:0.94999999;stroke-linecap:butt;stroke-linejoin:miter;stroke-miterlimit:4;stroke-dasharray:none;stroke-opacity:1"
         d="m 5.5580357,1046.3466 0,-0.4799 c 0,0 0.00523,-1.0268 -1.0267857,-1.0268 l -1.09375,0 c -0.8043315,0 -0.9486607,0.9486 -0.9486607,0.9486 l 0,3.0469 c 0,1.0427 0.4853024,1.0547 1.0546875,1.0547 l 0.9430803,0 c 0.9523994,0 1.0518974,-1.0519 1.0518974,-1.0519 l 0,-0.4715"
         id="path4163"
         inkscape:connector-curvature="0"
         sodipodi:nodetypes="csscsssc" />
    </g>
  </g>
</svg>
