<svg xmlns="http://www.w3.org/2000/svg" width="7" height="8">
  <g transform="translate(0 -1044.362)">
    <ellipse cx="3.471" cy="1050.275" fill="#fff" rx="2.467" ry="1.083"/>
    <path fill="#fff" fill-rule="evenodd" d="m 0.99437055,1044.3441 c 0,0 0.0262225,6.1581 0,6.0609 -0.0262225,-0.097 5.00707565,0 5.00707565,0 l 0,-6.029 z"/>
    <path fill="none" stroke="#fff" stroke-width="1.01" d="m 5.47583,1049.3058 0,0.5002 c 0,0 -0.5325989,1.0498 -1.5061289,1.0498 l -1.1885365,0 c -0.5159588,0 -1.1249627,-0.7698 -1.1249627,-0.9276 l -0.1484375,-0.6884 0,-0.8854"/>
    <path fill="#fff" fill-rule="evenodd" d="m 6.0379464,1048.8912 c 0,0 -0.9375,0.904 -1.2165178,0.904 -0.2790179,0 -1.3727679,-0.011 -1.5848215,-0.1897 -0.2120535,-0.1786 -0.7589285,-1.0045 -0.7700893,-1.0603 -0.011161,-0.056 0.15625,-2.5781 0.1674108,-2.7455 0.011161,-0.1674 0.4241071,-0.8817 0.4910714,-0.8817 0.066964,0 1.4955357,0.078 1.5513393,0.089 0.055803,0.011 0.9151785,0.6809 0.9151785,0.6809 l 0.4352679,0.1898 z"/>
    <path fill="none" stroke="#40b659" stroke-width="1.01" d="m 4.6250922,1048.3667 0,0.5002 c 0,0 -0.1017057,1.0498 -1.0752357,1.0498 l -0.9640044,0 c -3.338e-4,0 -1.0780877,-0.012 -1.0780877,-1.0526 l 0,-3.0409 c 0,0 0.1475314,-0.9467 0.9697085,-0.9467 l 1.1180169,0 c 1.102217,0.1841 1.0168018,0.7256 1.0049239,1.4924"/>
    <path fill="none" stroke="#227e35" stroke-width=".95" d="m 5.5580357,1046.3466 0,-0.4799 c 0,0 0.00523,-1.0268 -1.0267857,-1.0268 l -1.09375,0 c -0.8043315,0 -0.9486607,0.9486 -0.9486607,0.9486 l 0,3.0469 c 0,1.0427 0.4853024,1.0547 1.0546875,1.0547 l 0.9430803,0 c 0.9523994,0 1.0518974,-1.0519 1.0518974,-1.0519 l 0,-0.4715"/>
  </g>
</svg>
