<svg xmlns="http://www.w3.org/2000/svg" xmlns:xlink="http://www.w3.org/1999/xlink" width="7" height="8">
  <defs>
    <linearGradient id="b">
      <stop offset="0" stop-color="#905e27" stop-opacity="0"/>
      <stop offset="1" stop-color="#905e27"/>
    </linearGradient>
    <linearGradient id="a">
      <stop offset="0" stop-color="#a17748"/>
      <stop offset=".5" stop-color="#8e5c24"/>
      <stop offset="1" stop-color="#c7af93"/>
    </linearGradient>
    <linearGradient xlink:href="#a" id="c" x1="388.637" x2="388.637" y1="478.188" y2="459.248" gradientUnits="userSpaceOnUse"/>
    <radialGradient xlink:href="#b" id="d" cx="388.125" cy="468.237" r="11.708" fx="388.125" fy="468.237" gradientTransform="matrix(.83522 0 0 .83522 63.955 77.156)" gradientUnits="userSpaceOnUse"/>
  </defs>
  <g font-family="Sans" font-size="13.589" font-weight="400" letter-spacing="0" word-spacing="0">
    <path fill="url(#c)" stroke="#905e27" stroke-linecap="round" stroke-linejoin="round" stroke-width="2.166" d="m 398.75,468.23718 a 10.625,10.625 0 0 1 -10.625,10.625 10.625,10.625 0 0 1 -10.625,-10.625 10.625,10.625 0 0 1 10.625,-10.625 10.625,10.625 0 0 1 10.625,10.625 z" style="line-height:125%" transform="matrix(.29745 0 0 .29745 -111.986 -135.729)"/>
    <path fill="url(#d)" stroke="#905e27" stroke-linecap="round" stroke-linejoin="round" stroke-width="2.166" d="m 398.75,468.23718 a 10.625,10.625 0 0 1 -10.625,10.625 10.625,10.625 0 0 1 -10.625,-10.625 10.625,10.625 0 0 1 10.625,-10.625 10.625,10.625 0 0 1 10.625,10.625 z" style="line-height:125%" transform="matrix(.29745 0 0 .29745 -111.986 -135.729)"/>
    <g fill="#fff" style="line-height:125%">
      <path d="M9.812 1031.398H11.681V1038.403H9.812z" transform="matrix(.53612 0 0 .7139 -3.265 -735.307)"/>
      <path d="M9.819 1031.398H15.423V1032.817H9.819zM10.406 1037H15.412V1038.401H10.406zM10.757 1034.201H13.537V1035.588H10.757z" style="line-height:125%" transform="matrix(.53612 0 0 .7139 -3.265 -735.307)"/>
    </g>
  </g>
</svg>
