<svg xmlns="http://www.w3.org/2000/svg" width="7" height="7">
  <defs>
    <filter id="a" width="1.33" height="1.189" x="-.165" y="-.094">
      <feGaussianBlur stdDeviation=".275"/>
    </filter>
  </defs>
  <path fill="#fff" d="M1 1045.362H4V1052.362H1z" transform="translate(0 -1045.362)"/>
  <path fill="#fff" stroke="#fff" stroke-width=".5" d="m 2,1045.3622 0,1 0,2 0,1 0,3 1,0 0,-3 2,0 0,-1 -2,0 0,-2 3,0 0,-1 -3,0 -1,0 z" filter="url(#a)" opacity=".75" transform="translate(0 -1045.362)"/>
  <path fill="#fff" d="M3.002 1045.368H6.002V1048.395H3.002zM2.98 1049.363H4.016V1052.39H2.98z" transform="translate(0 -1045.362)"/>
  <path fill="#fff" d="M1.98 1049.363H5.002V1050.359H1.98zM3.984 1045.35H7.006V1047.372H3.984z" transform="translate(0 -1045.362)"/>
  <path fill="#fff" d="M3.98 1046.363H7.002V1047.359H3.98zM2.948 1047.39H5.97V1048.386H2.948z" transform="translate(0 -1045.362)"/>
  <path fill="#286296" d="m 2,1045.3622 0,1 0,2 0,1 0,3 1,0 0,-3 2,0 0,-1 -2,0 0,-2 3,0 0,-1 -3,0 -1,0 z" transform="translate(0 -1045.362)"/>
</svg>
