<svg xmlns="http://www.w3.org/2000/svg" width="7" height="8">
  <defs>
    <filter id="b" width="1.24" height="1.24" x="-.12" y="-.12">
      <feGaussianBlur stdDeviation=".303"/>
    </filter>
    <mask id="a" maskUnits="userSpaceOnUse">
      <path fill="#fff" stroke="#fff" stroke-linecap="round" stroke-linejoin="round" d="m 6.5344243,4.4644661 a 3.0304577,3.0304577 0 1 1 -6.06091547,0 3.0304577,3.0304577 0 1 1 6.06091547,0 z" transform="translate(0 1044.425)"/>
    </mask>
  </defs>
  <path fill="#fff" stroke="#656a70" stroke-linecap="round" stroke-linejoin="round" d="M 6.5344243,4.4644661 A 3.0304577,3.0304577 0 0 1 3.5039666,7.4949238 3.0304577,3.0304577 0 0 1 0.47350883,4.4644661 3.0304577,3.0304577 0 0 1 3.5039666,1.4340084 3.0304577,3.0304577 0 0 1 6.5344243,4.4644661 Z" transform="translate(0 .063)"/>
  <g mask="url(#a)" transform="translate(0 -1044.362)">
    <g fill="none" stroke="#b9d6e6" stroke-width="1.5" filter="url(#b)" transform="translate(-4)">
      <path stroke-linecap="round" stroke-linejoin="round" d="M 6.5344243,4.4644661 A 3.0304577,3.0304577 0 0 1 3.5039666,7.4949238 3.0304577,3.0304577 0 0 1 0.47350883,4.4644661 3.0304577,3.0304577 0 0 1 3.5039666,1.4340084 3.0304577,3.0304577 0 0 1 6.5344243,4.4644661 Z" transform="translate(4 1044.425)"/>
      <path d="m 5.144683,1051.2175 4.710634,-4.7106"/>
    </g>
  </g>
  <g fill="none" stroke="#656a70" stroke-width=".9">
    <path stroke-linecap="round" stroke-linejoin="round" d="M 6.5344243,4.4644661 A 3.0304577,3.0304577 0 0 1 3.5039666,7.4949238 3.0304577,3.0304577 0 0 1 0.47350883,4.4644661 3.0304577,3.0304577 0 0 1 3.5039666,1.4340084 3.0304577,3.0304577 0 0 1 6.5344243,4.4644661 Z" transform="translate(0 .063)"/>
    <path d="m 5.144683,1051.2175 4.710634,-4.7106" transform="translate(-4 -1044.362)"/>
  </g>
</svg>
