<svg xmlns="http://www.w3.org/2000/svg" xmlns:xlink="http://www.w3.org/1999/xlink" width="7" height="8">
  <defs>
    <linearGradient id="a">
      <stop offset="0" stop-color="#8cc861"/>
      <stop offset=".438" stop-color="#4aa766"/>
      <stop offset="1" stop-color="#c2dd97"/>
    </linearGradient>
    <linearGradient id="b">
      <stop offset="0" stop-color="#30825a"/>
      <stop offset="1" stop-color="#106643"/>
    </linearGradient>
    <linearGradient xlink:href="#a" id="d" x1="-13.937" x2="-13.937" y1="1049.958" y2="1040.053" gradientTransform="translate(15.825)" gradientUnits="userSpaceOnUse"/>
    <linearGradient xlink:href="#b" id="e" x1="11.063" x2="11.063" y1="1038.55" y2="1049.912" gradientTransform="translate(-5.49)" gradientUnits="userSpaceOnUse"/>
    <filter id="c" width="1.345" height="1.379" x="-.173" y="-.189">
      <feGaussianBlur stdDeviation=".792"/>
    </filter>
  </defs>
  <path fill="#fff" fill-rule="evenodd" d="m 9.000617,1047.4682 -6.9803119,-2.1139 -2.05187237,0 0,7.0079 2.02030507,0 7.0118792,-1.9721" transform="translate(0 -1044.362)"/>
  <g fill="#fff" stroke="#fff" filter="url(#c)" transform="matrix(.4791 0 0 .43051 2.298 -445.35)">
    <path stroke-linecap="round" stroke-linejoin="round" stroke-width="2.202" d="m -1.6770565,1039.8618 0,2.0277 0,5 0,3 0.99999995,0 9.54668705,-4.5273 c 0.59227,-0.3746 0.618127,-0.6299 0,-1 l -9.12684205,-4.5004 z"/>
  </g>
  <path fill="url(#d)" stroke="url(#e)" stroke-linecap="round" stroke-linejoin="round" stroke-width="2.202" d="m -1.6770565,1039.8618 0,2.0277 0,5 0,3 0.99999995,0 9.54668705,-4.5273 c 0.59227,-0.3746 0.618127,-0.6299 0,-1 l -9.12684205,-4.5004 z" transform="matrix(.4791 0 0 .43051 2.298 -445.35)"/>
</svg>
