<svg xmlns="http://www.w3.org/2000/svg" width="7" height="7">
  <path fill="#fff" d="M1.002 1045.354H7.008V1052.362H1.002z" transform="translate(0 -1045.362)"/>
  <path fill="none" stroke="#c7022d" stroke-width=".9" d="m 2.4576275,1050.3644 0,0.5658 c 0,0.7062 0.514865,0.9549 1.0021938,0.9549 l 0.9737723,0 c 0.4989125,0 1.0407365,-0.5427 1.0407365,-1.0408 l 0,-1.01 c 0,-0.4341 -0.4421148,-0.9431 -0.9430803,-0.9431 l -1.0602678,0 c -0.4787643,0 -1.015625,-0.5509 -1.015625,-1.0156 l 0,-1.0491 c 0,-0.4379 0.5309512,-1.0045 1.0044643,-1.0045 l 1.0044642,0 c 0.7461273,0 1.0267857,0.8971 1.0267857,1.0715 l 0,0.4811" transform="translate(0 -1045.362)"/>
</svg>
