<svg xmlns="http://www.w3.org/2000/svg" xmlns:xlink="http://www.w3.org/1999/xlink" width="7" height="8">
  <defs>
    <linearGradient id="a">
      <stop offset="0" stop-color="#ffe296"/>
      <stop offset=".5" stop-color="#f8d880"/>
      <stop offset="1" stop-color="#fffcd3"/>
    </linearGradient>
    <linearGradient id="b">
      <stop offset="0" stop-color="#c6852e"/>
      <stop offset="1" stop-color="#e1a555"/>
    </linearGradient>
    <linearGradient xlink:href="#a" id="c" x1="3.383" x2="3.383" y1="7.016" y2=".982" gradientTransform="translate(0 1044.362)" gradientUnits="userSpaceOnUse"/>
    <linearGradient xlink:href="#b" id="d" x1="6.389" x2="6.389" y1="7.237" y2=".393" gradientTransform="translate(0 1044.362)" gradientUnits="userSpaceOnUse"/>
  </defs>
  <path fill="#fff" fill-rule="evenodd" d="m -1,1050.3622 3,-7 3,0 3,7 z" transform="translate(0 -1044.362)"/>
  <path fill="url(#c)" stroke="url(#d)" d="m 2.8125,1045.2684 -2.03124996,4.0938 c -0.60602934,1.0251 -0.19281594,2.4817 0.93749996,2.5 l 1.28125,0 1,0 1.28125,0 c 1.1303165,-0.018 1.5435294,-1.475 0.9375,-2.5 l -2.03125,-4.0938 c -0.2942923,-0.5567 -1.1188077,-0.4672 -1.375,0 z" transform="translate(0 -1044.362)"/>
  <path fill="#502800" d="m 4.109375,5.484375 a 0.625,0.625 0 0 1 -0.625,0.625 0.625,0.625 0 0 1 -0.625,-0.625 0.625,0.625 0 0 1 0.625,-0.625 0.625,0.625 0 0 1 0.625,0.625 z" transform="translate(-.167 -.1) scale(1.05238)"/>
  <path fill="#502800" d="m 3.5142345,1046.253 c -0.3537485,0 -0.6547532,0.3148 -0.6547532,0.7235 l 0.085402,1.3916 c 0,0.3633 0.2549073,0.6577 0.5693508,0.6577 0.3144435,0 0.5693489,-0.2944 0.5693489,-0.6577 l 0.056931,-1.3916 c 0,-0.4087 -0.2725362,-0.7235 -0.6262867,-0.7235 z" transform="translate(0 -1044.362)"/>
</svg>
