<?xml version="1.0" encoding="UTF-8" standalone="no"?>
<svg
   xmlns:dc="http://purl.org/dc/elements/1.1/"
   xmlns:cc="http://creativecommons.org/ns#"
   xmlns:rdf="http://www.w3.org/1999/02/22-rdf-syntax-ns#"
   xmlns:svg="http://www.w3.org/2000/svg"
   xmlns="http://www.w3.org/2000/svg"
   xmlns:xlink="http://www.w3.org/1999/xlink"
   xmlns:sodipodi="http://sodipodi.sourceforge.net/DTD/sodipodi-0.dtd"
   xmlns:inkscape="http://www.inkscape.org/namespaces/inkscape"
   sodipodi:docname="jexceptiond_obj.svg"
   inkscape:version="1.0rc1 (09960d6, 2020-04-09)"
   version="1.1"
   id="svg4223"
   height="16"
   width="16">
  <defs
     id="defs4225">
    <linearGradient
       gradientUnits="userSpaceOnUse"
       y2="14.497817"
       x2="10.746369"
       y1="13.403058"
       x1="11.039709"
       id="linearGradient23110"
       xlink:href="#linearGradient23112"
       inkscape:collect="always" />
    <linearGradient
       inkscape:collect="always"
       id="linearGradient23112">
      <stop
         style="stop-color:#cdcece;stop-opacity:1"
         offset="0"
         id="stop23114" />
      <stop
         style="stop-color:#b1b2b4;stop-opacity:1"
         offset="1"
         id="stop23116" />
    </linearGradient>
    <linearGradient
       gradientUnits="userSpaceOnUse"
       y2="15.958561"
       x2="10.980246"
       y1="12.075216"
       x1="10.980246"
       id="linearGradient23094"
       xlink:href="#linearGradient23096"
       inkscape:collect="always" />
    <linearGradient
       inkscape:collect="always"
       id="linearGradient23096">
      <stop
         style="stop-color:#8d8e8f;stop-opacity:1"
         offset="0"
         id="stop23098" />
      <stop
         style="stop-color:#77787b;stop-opacity:1"
         offset="1"
         id="stop23100" />
    </linearGradient>
    <linearGradient
       gradientTransform="translate(1.0245346,1035.3789)"
       gradientUnits="userSpaceOnUse"
       y2="5.9833002"
       x2="10.975466"
       y1="9.9833002"
       x1="11.975466"
       id="linearGradient23108"
       xlink:href="#linearGradient23102"
       inkscape:collect="always" />
    <linearGradient
       id="linearGradient23102">
      <stop
         id="stop23104"
         offset="0"
         style="stop-color:#9b9b9d;stop-opacity:1" />
      <stop
         id="stop23106"
         offset="1"
         style="stop-color:#d9d9d9;stop-opacity:1" />
    </linearGradient>
    <linearGradient
       gradientTransform="translate(1.0245346,1035.3789)"
       gradientUnits="userSpaceOnUse"
       y2="10.890689"
       x2="10.9375"
       y1="3.265625"
       x1="10.9375"
       id="linearGradient23092"
       xlink:href="#linearGradient23086"
       inkscape:collect="always" />
    <linearGradient
       id="linearGradient23086"
       inkscape:collect="always">
      <stop
         id="stop23088"
         offset="0"
         style="stop-color:#bababb;stop-opacity:1" />
      <stop
         id="stop23090"
         offset="1"
         style="stop-color:#77787b;stop-opacity:1" />
    </linearGradient>
  </defs>
  <sodipodi:namedview
     inkscape:document-rotation="0"
     inkscape:window-maximized="0"
     inkscape:window-y="23"
     inkscape:window-x="0"
     inkscape:window-height="1005"
     inkscape:window-width="1680"
     showgrid="true"
     inkscape:current-layer="layer1"
     inkscape:document-units="px"
     inkscape:cy="8"
     inkscape:cx="-1.4031795"
     inkscape:zoom="20.471799"
     inkscape:pageshadow="2"
     inkscape:pageopacity="0.0"
     borderopacity="1.0"
     bordercolor="#666666"
     pagecolor="#ffffff"
     id="base">
    <inkscape:grid
       snapvisiblegridlinesonly="true"
       enabled="true"
       visible="true"
       empspacing="5"
       id="grid4999"
       type="xygrid" />
  </sodipodi:namedview>
  <metadata
     id="metadata4228">
    <rdf:RDF>
      <cc:Work
         rdf:about="">
        <dc:format>image/svg+xml</dc:format>
        <dc:type
           rdf:resource="http://purl.org/dc/dcmitype/StillImage" />
        <dc:title />
      </cc:Work>
    </rdf:RDF>
  </metadata>
  <g
     transform="translate(0,-1036.3622)"
     id="layer1"
     inkscape:groupmode="layer"
     inkscape:label="Layer 1">
    <path
       transform="matrix(0.92542861,0,0,0.92542861,1.859282,1036.4229)"
       d="m 12.609375,14 a 1.625,1.625 0 0 1 -1.625,1.625 1.625,1.625 0 0 1 -1.625,-1.625 1.625,1.625 0 0 1 1.625,-1.625 1.625,1.625 0 0 1 1.625,1.625 z"
       sodipodi:ry="1.625"
       sodipodi:rx="1.625"
       sodipodi:cy="14"
       sodipodi:cx="10.984375"
       id="path22314"
       style="fill:url(#linearGradient23110);fill-opacity:1;stroke:url(#linearGradient23094);stroke-width:1.08058035;stroke-miterlimit:4;stroke-opacity:1;stroke-dasharray:none;display:inline"
       sodipodi:type="arc" />
    <path
       sodipodi:nodetypes="sssssss"
       inkscape:connector-curvature="0"
       id="rect22316"
       d="m 12.008915,1038.8633 c 0.839655,0 1.560358,0.6772 1.515624,1.5156 l -0.220969,4.1418 c -0.04473,0.8384 -0.455,1.4051 -1.294655,1.4051 -0.839655,0 -1.24992,-0.5667 -1.294655,-1.4051 l -0.220972,-4.1418 c -0.04473,-0.8384 0.675972,-1.5156 1.515627,-1.5156 z"
       style="fill:url(#linearGradient23108);fill-opacity:1;stroke:url(#linearGradient23092);stroke-width:1;stroke-linecap:round;stroke-linejoin:round;stroke-miterlimit:4;stroke-opacity:1;stroke-dashoffset:0;display:inline" />
    <path
       style="fill:#366c9a;fill-opacity:1;display:inline"
       d="m 4.6725611,1044.3396 c -0.1933415,-0.019 -0.420446,-0.062 -0.6028077,-0.1155 -0.2829848,-0.083 -0.2547891,0.017 -0.2547891,-0.8978 0,-0.4784 0.00804,-0.794 0.020385,-0.7988 0.011198,0 0.033126,0 0.048745,0.013 0.050649,0.038 0.3077924,0.1696 0.3929307,0.2011 0.1948459,0.072 0.4872053,0.1088 0.6931487,0.087 0.4565347,-0.048 0.7659062,-0.3076 0.9215107,-0.772 0.1254823,-0.3746 0.1191685,-0.2293 0.1320805,-3.0391 l 0.011887,-2.5847 0.8665952,0 0.8665981,0 0.00643,2.4096 c 0.00666,2.4908 -5.741e-4,2.7823 -0.081182,3.2361 -0.163276,0.9202 -0.6253407,1.6128 -1.3103752,1.9638 -0.4604999,0.236 -1.1290707,0.3521 -1.7111364,0.2972 z"
       id="path10927-5-7-4-4"
       inkscape:connector-curvature="0"
       sodipodi:nodetypes="ssscccssscccscss" />
  </g>
</svg>
