<svg xmlns="http://www.w3.org/2000/svg" xmlns:xlink="http://www.w3.org/1999/xlink" width="16" height="16">
  <defs>
    <linearGradient id="a">
      <stop offset="0" stop-color="#d5f3ff"/>
      <stop offset="1" stop-color="#fcffff"/>
    </linearGradient>
    <linearGradient xlink:href="#a" id="c" x1="1.433" x2="3.073" y1="6.461" y2="8.105" gradientUnits="userSpaceOnUse"/>
    <linearGradient id="b">
      <stop offset="0" stop-color="#d5f3ff"/>
      <stop offset="1" stop-color="#fcffff"/>
    </linearGradient>
    <linearGradient xlink:href="#b" id="d" x1="1.433" x2="3.073" y1="6.461" y2="8.105" gradientUnits="userSpaceOnUse"/>
  </defs>
  <g stroke="#324e6e">
    <path fill="none" d="m 12.535948,1057.3138 c 0,0 0.409535,-0.5625 1.699794,-0.5625 1.290259,0 1.658145,0.5 1.658145,0.5" transform="translate(-8.22 -1049.267)"/>
    <path fill="none" stroke-linecap="round" stroke-linejoin="round" d="m8.781 1057.286.523-.547 3.392-3.548c.829-.773 2.088-.873 2.088 1.701M17.623 1058.207l4.077-4.265c.829-.773 2.088-.873 2.088 1.702" transform="translate(-8.22 -1049.267)"/>
    <path fill="url(#c)" stroke-width="1.119" d="m 4.7343755,7.5624995 c 0,1.2253819 -0.9933683,2.2187503 -2.2187503,2.2187503 -1.2253819,0 -2.2187502,-0.9933684 -2.2187502,-2.2187503 0,-1.2253819 0.9933683,-2.2187502 2.2187502,-2.2187502 1.225382,0 2.2187503,0.9933683 2.2187503,2.2187502 z" transform="matrix(.89368 0 0 .89368 .252 2.734)"/>
    <path fill="url(#d)" stroke-width="1.119" d="m 4.7343755,7.5624995 c 0,1.2253819 -0.9933683,2.2187503 -2.2187503,2.2187503 -1.2253819,0 -2.2187502,-0.9933684 -2.2187502,-2.2187503 0,-1.2253819 0.9933683,-2.2187502 2.2187502,-2.2187502 1.225382,0 2.2187503,0.9933683 2.2187503,2.2187502 z" transform="matrix(.89368 0 0 .89368 7.252 2.734)"/>
  </g>
</svg>
