<?xml version="1.0" encoding="UTF-8" standalone="no"?>
<svg
   xmlns:dc="http://purl.org/dc/elements/1.1/"
   xmlns:cc="http://creativecommons.org/ns#"
   xmlns:rdf="http://www.w3.org/1999/02/22-rdf-syntax-ns#"
   xmlns:svg="http://www.w3.org/2000/svg"
   xmlns="http://www.w3.org/2000/svg"
   xmlns:xlink="http://www.w3.org/1999/xlink"
   xmlns:sodipodi="http://sodipodi.sourceforge.net/DTD/sodipodi-0.dtd"
   xmlns:inkscape="http://www.inkscape.org/namespaces/inkscape"
   sodipodi:docname="threadgroup_obj.svg"
   inkscape:version="1.0rc1 (09960d6, 2020-04-09)"
   version="1.1"
   id="svg2"
   height="16"
   width="16">
  <defs
     id="defs4">
    <linearGradient
       id="linearGradient4590"
       inkscape:collect="always">
      <stop
         id="stop4592"
         offset="0"
         style="stop-color:#ffffff;stop-opacity:1" />
      <stop
         id="stop4594"
         offset="1"
         style="stop-color:#ffffff;stop-opacity:0.91185409" />
    </linearGradient>
    <linearGradient
       id="linearGradient4484">
      <stop
         id="stop4486"
         offset="0"
         style="stop-color:#e4b367;stop-opacity:1" />
      <stop
         style="stop-color:#f0d98d;stop-opacity:1"
         offset="0.52312118"
         id="stop4488" />
      <stop
         id="stop4490"
         offset="1"
         style="stop-color:#f5f5b5;stop-opacity:1" />
    </linearGradient>
    <linearGradient
       inkscape:collect="always"
       xlink:href="#linearGradient3851-3"
       id="linearGradient3268"
       gradientUnits="userSpaceOnUse"
       x1="7.4779682"
       y1="1043.8591"
       x2="15.523204"
       y2="1043.8591" />
    <linearGradient
       id="linearGradient3851-3">
      <stop
         id="stop3853-2"
         offset="0"
         style="stop-color:#ffffff;stop-opacity:1;" />
      <stop
         style="stop-color:#ffffff;stop-opacity:0.82198954;"
         offset="0.5"
         id="stop3863-0" />
      <stop
         id="stop3855-4"
         offset="1"
         style="stop-color:#ffffff;stop-opacity:0;" />
    </linearGradient>
    <linearGradient
       gradientTransform="translate(27.397826,0.08406205)"
       gradientUnits="userSpaceOnUse"
       y2="1042.5817"
       x2="-16.949533"
       y1="1049.353"
       x1="-16.993322"
       id="linearGradient4482"
       xlink:href="#linearGradient4484"
       inkscape:collect="always" />
    <linearGradient
       gradientTransform="translate(23.397826,-3.9159)"
       gradientUnits="userSpaceOnUse"
       y2="1042.5817"
       x2="-16.949533"
       y1="1049.353"
       x1="-16.993322"
       id="linearGradient4482-1"
       xlink:href="#linearGradient4484"
       inkscape:collect="always" />
    <filter
       height="1.12"
       y="-0.06"
       width="1.12"
       x="-0.06"
       id="filter4586"
       style="color-interpolation-filters:sRGB"
       inkscape:collect="always">
      <feGaussianBlur
         id="feGaussianBlur4588"
         stdDeviation="0.2"
         inkscape:collect="always" />
    </filter>
    <radialGradient
       gradientUnits="userSpaceOnUse"
       gradientTransform="matrix(0.71027295,-0.70392637,0.69511307,0.70138018,-722.49605,317.02101)"
       r="5.0570414"
       fy="1043.9091"
       fx="7.5152135"
       cy="1043.9091"
       cx="7.5152135"
       id="radialGradient4596"
       xlink:href="#linearGradient4590"
       inkscape:collect="always" />
  </defs>
  <sodipodi:namedview
     inkscape:document-rotation="0"
     inkscape:bbox-nodes="true"
     inkscape:snap-bbox="true"
     inkscape:snap-global="false"
     inkscape:guide-bbox="true"
     showguides="true"
     inkscape:window-maximized="0"
     inkscape:window-y="23"
     inkscape:window-x="0"
     inkscape:window-height="1005"
     inkscape:window-width="1680"
     showgrid="true"
     inkscape:current-layer="layer1"
     inkscape:document-units="px"
     inkscape:cy="14.499985"
     inkscape:cx="8.0000161"
     inkscape:zoom="27.142877"
     inkscape:pageshadow="2"
     inkscape:pageopacity="0"
     borderopacity="1.0"
     bordercolor="#666666"
     pagecolor="#e1e1e1"
     id="base">
    <inkscape:grid
       id="grid3971"
       type="xygrid" />
  </sodipodi:namedview>
  <metadata
     id="metadata7">
    <rdf:RDF>
      <cc:Work
         rdf:about="">
        <dc:format>image/svg+xml</dc:format>
        <dc:type
           rdf:resource="http://purl.org/dc/dcmitype/StillImage" />
        <dc:title />
      </cc:Work>
    </rdf:RDF>
  </metadata>
  <g
     transform="translate(0,-1036.3622)"
     style="display:inline"
     id="layer1"
     inkscape:groupmode="layer"
     inkscape:label="Layer 1">
    <path
       sodipodi:nodetypes="ccccccccccccccccccccccccccccccccc"
       inkscape:connector-curvature="0"
       id="path4474-6"
       d="m 2.5,1039.1122 1.250001,-1.25 1.249999,1.25 0.5,-0.25 0,-2 2,0 0,2 0.500001,0.25 1.25,-1.25 1.25,1.25 -1.25,1.25 0.25,0.5 2,0 0,2 -2,0 -0.25,0.5 1.25,1.25 -1.25,1.25 -1.25,-1.25 -0.500001,0.25 0,2 -2,0 0,-2 -0.5,-0.25 -1.249999,1.25 -1.250001,-1.25 1.250001,-1.25 -0.250001,-0.5 -2,0 0,-2 2,0 0.250001,-0.5 z"
       style="display:inline;fill:url(#linearGradient4482-1);fill-opacity:1;fill-rule:evenodd;stroke:#75615a;stroke-width:1px;stroke-linecap:butt;stroke-linejoin:round;stroke-opacity:1" />
    <path
       sodipodi:nodetypes="ccccccccc"
       inkscape:connector-curvature="0"
       id="path4568"
       d="m 3.982449,1047.4031 -0.021029,-4.042 1,0 0,-3 3,0 0,-1 3.768679,0.021 -3e-6,7.8738 z"
       style="opacity:0.91100003;fill:url(#radialGradient4596);fill-opacity:1;fill-rule:evenodd;stroke:none;stroke-width:1px;stroke-linecap:butt;stroke-linejoin:miter;stroke-opacity:1;filter:url(#filter4586)" />
    <path
       sodipodi:nodetypes="ccccccccccccccccccccccccccccccccc"
       inkscape:connector-curvature="0"
       id="path4474"
       d="m 6.5,1043.1122 1.2500008,-1.25 1.2499992,1.25 0.5,-0.25 0,-2 2,0 0,2 0.500001,0.25 1.25,-1.25 1.25,1.25 -1.25,1.25 0.25,0.5 2,0 0,2 -2,0 -0.25,0.5 1.25,1.25 -1.25,1.25 -1.25,-1.25 -0.500001,0.25 0,2 -2,0 0,-2 -0.5,-0.25 -1.2499992,1.25 -1.2500008,-1.25 1.2500008,-1.25 -0.2500008,-0.5 -2,0 0,-2 2,0 0.2500008,-0.5 z"
       style="fill:url(#linearGradient4482);fill-opacity:1;fill-rule:evenodd;stroke:#75615a;stroke-width:1px;stroke-linecap:butt;stroke-linejoin:round;stroke-opacity:1" />
    <g
       id="g3878"
       style="fill:url(#linearGradient3268);fill-opacity:1;stroke:none;display:inline"
       transform="translate(-7.0555633,2.9406003)" />
    <ellipse
       ry="1.0000087"
       rx="1"
       cy="1045.8622"
       cx="10.5"
       id="path4416"
       style="opacity:1;fill:#fefcf0;fill-opacity:1;stroke:#77605a;stroke-width:1;stroke-linecap:round;stroke-linejoin:miter;stroke-miterlimit:4;stroke-dasharray:none;stroke-dashoffset:0;stroke-opacity:1" />
  </g>
</svg>
