<svg xmlns="http://www.w3.org/2000/svg" xmlns:xlink="http://www.w3.org/1999/xlink" width="16" height="16">
  <defs>
    <linearGradient id="b">
      <stop offset="0" stop-color="#546483"/>
      <stop offset="1" stop-color="#818b9f"/>
    </linearGradient>
    <linearGradient id="a">
      <stop offset="0" stop-color="#2b5c9c"/>
      <stop offset="1" stop-color="#3673c4"/>
    </linearGradient>
    <linearGradient xlink:href="#a" id="g" x1="22.42" x2="22.42" y1="1044.658" y2="1037.933" gradientTransform="matrix(1.00553 0 0 1 -13.164 2.01)" gradientUnits="userSpaceOnUse"/>
    <linearGradient xlink:href="#b" id="f" x1="22.995" x2="22.995" y1="1040.173" y2="1048.318" gradientTransform="matrix(1.00553 0 0 1 -13.164 2.01)" gradientUnits="userSpaceOnUse"/>
    <linearGradient xlink:href="#c" id="h" x1="7.478" x2="15.523" y1="1043.859" y2="1043.859" gradientUnits="userSpaceOnUse"/>
    <linearGradient id="c">
      <stop offset="0" stop-color="#fff"/>
      <stop offset=".5" stop-color="#fff" stop-opacity=".822"/>
      <stop offset="1" stop-color="#fff" stop-opacity="0"/>
    </linearGradient>
    <linearGradient xlink:href="#d" id="k" x1="8.828" x2="8.806" y1="1040.859" y2="1045.533" gradientTransform="rotate(180 10.097 1043.887)" gradientUnits="userSpaceOnUse"/>
    <linearGradient id="d">
      <stop offset="0" stop-color="#e0b575"/>
      <stop offset=".472" stop-color="#f5ca75"/>
      <stop offset="1" stop-color="#f5f5b5"/>
    </linearGradient>
    <linearGradient xlink:href="#e" id="m" x1="8.828" x2="8.828" y1="1041.733" y2="1046.971" gradientTransform="rotate(180 10.097 1043.887)" gradientUnits="userSpaceOnUse"/>
    <linearGradient id="e">
      <stop offset="0" stop-color="#df9f3f"/>
      <stop offset=".385" stop-color="#ffbf3f"/>
      <stop offset="1" stop-color="#f5f5b5"/>
    </linearGradient>
    <linearGradient xlink:href="#c" id="j" x1="7.478" x2="15.523" y1="1043.859" y2="1043.859" gradientUnits="userSpaceOnUse"/>
    <linearGradient xlink:href="#c" id="l" x1="7.478" x2="15.523" y1="1043.859" y2="1043.859" gradientUnits="userSpaceOnUse"/>
    <linearGradient xlink:href="#c" id="i" x1="7.478" x2="15.523" y1="1043.859" y2="1043.859" gradientUnits="userSpaceOnUse"/>
  </defs>
  <g transform="translate(0 -1036.362)">
    <rect width="11.998" height="10.01" x="3.501" y="1039.877" fill="url(#f)" stroke="url(#g)" rx=".795" ry=".795"/>
    <rect width="9" height="7" x="5" y="1041.377" fill="#fff" rx="0" ry="0"/>
    <g fill="#4673ad" transform="matrix(1.2201 0 0 1 -17.949 2.01)">
      <rect width="4.075" height="1.039" x="20.448" y="1048.352" rx="0" ry="0"/>
      <path d="M17.989 1049.367H27.005V1050.351H17.989z"/>
    </g>
    <g fill="#2a5893" transform="matrix(.99723 0 0 1 -12.94 2.01)">
      <rect width="3.049" height="1.039" x="20.97" y="1048.352" rx="0" ry="0"/>
      <path d="M17.989 1049.367H27.005V1050.351H17.989z"/>
    </g>
    <g fill="#cfedfb">
      <path d="M17.987 3.007H26.986V3.996H17.987z" transform="matrix(.99888 0 0 1 -12.956 1038.37)"/>
      <path d="M1039.369-18.981H1046.374V-17.976H1039.369z" transform="matrix(0 1 -.99888 0 -12.956 2.008)"/>
    </g>
    <g fill="url(#i)" transform="translate(-6.978 -3)">
      <g fill="url(#j)" stroke="#83706b">
        <path fill="url(#k)" d="m 12.518002,1047.8569 -0.01105,-0.988 1.999787,0 0,-1.9997 1.016465,0 0,-1.965 -1.016465,0 0,-2.0328 -2.010835,0 0.01105,-1.0101 c -1.606355,0 -0.406381,0 -2.012736,0 l 0.01105,1.0101 -2.0108349,0 0,2.0328 -1.016465,0 0,1.965 1.016465,0 0,1.9997 1.9997869,0 -0.01105,0.988 c 1.613721,0 0.421111,0 2.034832,0 z"/>
        <circle cx="11.25" cy="7.344" r="1.016" fill="#fff" stroke-linejoin="round" transform="translate(.281 1036.518)"/>
      </g>
      <g fill="url(#l)" stroke="#543830" transform="translate(.007 .023)">
        <path fill="url(#m)" d="m 12.518002,1047.8569 -0.01105,-0.988 1.999787,0 0,-1.9997 1.016465,0 0,-1.965 -1.016465,0 0,-2.0328 -2.010835,0 0.01105,-1.0101 c -1.606355,0 -0.406381,0 -2.012736,0 l 0.01105,1.0101 -2.0108349,0 0,2.0328 -1.016465,0 0,1.965 1.016465,0 0,1.9997 1.9997869,0 -0.01105,0.988 c 1.613721,0 0.421111,0 2.034832,0 z"/>
        <circle cx="11.25" cy="7.344" r="1.016" fill="#fff" stroke-linejoin="round" transform="translate(.281 1036.518)"/>
      </g>
    </g>
  </g>
</svg>
