<svg xmlns="http://www.w3.org/2000/svg" xmlns:xlink="http://www.w3.org/1999/xlink" width="15" height="12">
  <defs>
    <linearGradient id="c">
      <stop offset="0" stop-color="#c18965"/>
      <stop offset="1" stop-color="#975c45"/>
    </linearGradient>
    <linearGradient id="a">
      <stop offset="0" stop-color="#5f392d"/>
      <stop offset=".182" stop-color="#9e7058"/>
      <stop offset=".364" stop-color="#794f40"/>
      <stop offset=".5" stop-color="#794f40"/>
      <stop offset=".636" stop-color="#794f40"/>
      <stop offset=".818" stop-color="#9e7058"/>
      <stop offset="1" stop-color="#5f392d"/>
    </linearGradient>
    <linearGradient id="b">
      <stop offset="0" stop-color="#faefba"/>
      <stop offset="1" stop-color="#9e6542"/>
    </linearGradient>
    <linearGradient xlink:href="#a" id="i" x1="355.297" x2="394.719" y1="449.881" y2="449.881" gradientTransform="matrix(0 .2361 -.2361 0 112.72 952.32)" gradientUnits="userSpaceOnUse"/>
    <linearGradient xlink:href="#a" id="j" x1="355.297" x2="394.719" y1="449.881" y2="449.881" gradientTransform="matrix(-.2361 0 0 -.2361 95.041 1147.081)" gradientUnits="userSpaceOnUse"/>
    <linearGradient xlink:href="#c" id="h" x1="366.048" x2="366.048" y1="430.172" y2="466.01" gradientTransform="matrix(.22487 0 0 .22487 -77.84 939.686)" gradientUnits="userSpaceOnUse"/>
    <radialGradient xlink:href="#b" id="f" cx="387.597" cy="442.578" r="6.188" fx="387.597" fy="442.578" gradientTransform="matrix(.57063 0 0 .50074 -217.424 820.536)" gradientUnits="userSpaceOnUse"/>
    <radialGradient xlink:href="#b" id="g" cx="387.597" cy="442.578" r="6.188" fx="387.597" fy="442.578" gradientTransform="matrix(.57592 0 0 .50537 -215.462 818.46)" gradientUnits="userSpaceOnUse"/>
    <radialGradient xlink:href="#b" id="e" cx="387.597" cy="442.578" r="6.188" fx="387.597" fy="442.578" gradientTransform="matrix(.57592 0 0 .5054 -215.462 814.446)" gradientUnits="userSpaceOnUse"/>
    <radialGradient xlink:href="#b" id="d" cx="387.597" cy="442.578" r="6.188" fx="387.597" fy="442.578" gradientTransform="matrix(.57592 0 0 .5054 -219.462 814.446)" gradientUnits="userSpaceOnUse"/>
  </defs>
  <g font-family="Sans" font-size="13.589" font-weight="400" letter-spacing="0" word-spacing="0">
    <path fill="url(#d)" stroke="#c37e3b" stroke-linecap="round" stroke-linejoin="round" d="M2.5 1036.862H6.5V1040.862H2.5z" style="line-height:125%" transform="translate(-1 -1034.362)"/>
    <path fill="url(#e)" stroke="#c37e3b" stroke-linecap="round" stroke-linejoin="round" d="M6.5 1036.862H10.5V1040.862H6.5z" style="line-height:125%" transform="translate(-1 -1034.362)"/>
    <path fill="url(#f)" stroke="#a45d2b" stroke-linecap="round" stroke-linejoin="round" d="m 2.5,1040.8622 h 3.9632717 v 4 H 2.5 Z" style="line-height:125%" transform="translate(-1 -1034.362)"/>
    <path fill="url(#g)" stroke="#a45d2b" stroke-linecap="round" stroke-linejoin="round" d="M 6.4999998,1040.8252 H 10.5 v 4.037 H 6.4999998 Z" style="line-height:125%" transform="translate(-1 -1034.362)"/>
    <path fill="none" stroke="url(#h)" stroke-linecap="round" stroke-linejoin="round" d="m 2.5,1036.8628 v 3.9842 4.0157 h 3.9842192 4.0155878 v -4.0157 -0.032 -3.9528 H 6.4842192 Z" style="line-height:125%" transform="translate(-1 -1034.362)"/>
    <path fill="#915323" stroke="url(#i)" d="m 6.5,1035.3622 v 11" style="line-height:125%" transform="translate(-1 -1034.362)"/>
    <path fill="#915323" stroke="url(#j)" d="M 12,1040.8622 H 1" style="line-height:125%" transform="translate(-1 -1034.362)"/>
  </g>
  <path fill="#fff" d="M10 1040.378H15.006V1046.362H10z" transform="translate(0 -1040.362)"/>
  <path fill="none" stroke="#366c9a" d="M11.02 1040.862c.802.027 2.974.027 2.974.027M11.5 1040.362v5.841M11.02 1045.849c.802.026 2.974.026 2.974.026M11 1043.362c.54 0 2 0 2 0" transform="translate(0 -1040.362)"/>
</svg>
