<svg xmlns="http://www.w3.org/2000/svg" xmlns:xlink="http://www.w3.org/1999/xlink" width="15" height="12">
  <defs>
    <linearGradient id="a">
      <stop offset="0" stop-color="#a17748"/>
      <stop offset=".5" stop-color="#8e5c24"/>
      <stop offset="1" stop-color="#c7af93"/>
    </linearGradient>
    <linearGradient xlink:href="#a" id="d" x1="388.637" x2="388.637" y1="478.188" y2="459.248" gradientTransform="matrix(.41403 0 0 .41403 -154.695 851.498)" gradientUnits="userSpaceOnUse"/>
    <linearGradient id="b">
      <stop offset="0" stop-color="#78b5c2"/>
      <stop offset="1" stop-color="#3c82ad"/>
    </linearGradient>
    <linearGradient id="c">
      <stop offset="0" stop-color="#005388"/>
      <stop offset="1" stop-color="#000f6f"/>
    </linearGradient>
    <linearGradient xlink:href="#b" id="e" x1="5.701" x2="10.326" y1="1045.062" y2="1045.062" gradientTransform="rotate(90 -181.208 860.173) scale(.64865)" gradientUnits="userSpaceOnUse"/>
    <linearGradient xlink:href="#c" id="f" x1="-11" x2="-11" y1="1046.362" y2="1042.362" gradientTransform="rotate(90.175 -187.13 866.644) scale(.64865)" gradientUnits="userSpaceOnUse"/>
  </defs>
  <g transform="translate(0 -1040.362)">
    <circle cx="6" cy="1045.362" r="4.399" fill="url(#d)" stroke="#905e27" stroke-linecap="round" stroke-linejoin="round" stroke-width="1.202" font-family="Sans" font-size="13.589" font-weight="400" letter-spacing="0" style="line-height:125%" word-spacing="0"/>
    <path fill="#fff" d="M1043.362-8H1047.362V-7H1043.362zM1043.362-5H1047.362V-4H1043.362z" font-family="Sans" font-size="13.589" font-weight="400" letter-spacing="0" style="line-height:125%" transform="rotate(90)" word-spacing="0"/>
    <path fill="#fff" d="M732.783-743.755H735.083V-742.755H732.783z" font-family="Sans" font-size="13.589" font-weight="400" letter-spacing="0" style="line-height:125%" transform="rotate(135)" word-spacing="0"/>
    <path fill="#fff" d="M-743.751-735.237H-741.269V-734.237H-743.751z" font-family="Sans" font-size="13.589" font-weight="400" letter-spacing="0" style="line-height:125%" transform="rotate(-135)" word-spacing="0"/>
    <path fill="#fff" fill-rule="evenodd" d="m 0.00685188,1042.3622 0.97206538,-0.017 2.71794974,3.0202 -1e-7,1.9497 -2.71336356,3.0473 H 0.00685188 Z"/>
    <path fill="url(#e)" stroke="url(#f)" stroke-linejoin="round" stroke-width="1.203" d="m 0.5669122,1049.5391 2.9733,-2.9551 -2.9759,-2.994 z" transform="matrix(.77778 0 0 .84469 .049 162.34)"/>
  </g>
</svg>
