<svg xmlns="http://www.w3.org/2000/svg" xmlns:xlink="http://www.w3.org/1999/xlink" width="16" height="16">
  <defs>
    <linearGradient id="c">
      <stop offset="0" stop-color="#b4d1e5"/>
      <stop offset=".5" stop-color="#5395be"/>
      <stop offset="1" stop-color="#91bcd7"/>
    </linearGradient>
    <linearGradient id="a">
      <stop offset="0" stop-color="#fffccb"/>
      <stop offset=".5" stop-color="#ccc776"/>
      <stop offset="1" stop-color="#fffcc6"/>
    </linearGradient>
    <linearGradient xlink:href="#a" id="d" x1="8.738" x2="8.738" y1="2.155" y2="6.872" gradientUnits="userSpaceOnUse"/>
    <linearGradient id="b">
      <stop offset="0" stop-color="#ffbfbf"/>
      <stop offset=".5" stop-color="#d66262"/>
      <stop offset="1" stop-color="#ffa8a8"/>
    </linearGradient>
    <linearGradient xlink:href="#b" id="e" x1="8.738" x2="8.738" y1="2.155" y2="6.872" gradientUnits="userSpaceOnUse"/>
    <linearGradient xlink:href="#c" id="f" x1="8.738" x2="8.738" y1="2.155" y2="6.872" gradientUnits="userSpaceOnUse"/>
  </defs>
  <g stroke-width=".938">
    <path fill="url(#d)" stroke="#a5a036" d="m 11.343751,4.499999 c 0,1.553301 -1.259199,2.8125003 -2.8125,2.8125003 -1.553301,0 -2.8125003,-1.2591993 -2.8125003,-2.8125003 0,-1.5533009 1.2591993,-2.8125002 2.8125003,-2.8125002 1.553301,0 2.8125,1.2591993 2.8125,2.8125002 z" transform="matrix(1.06611 0 0 1.06611 -.595 -.297)"/>
    <path fill="url(#e)" stroke="#720000" d="m 11.343751,4.499999 c 0,1.553301 -1.259199,2.8125003 -2.8125,2.8125003 -1.553301,0 -2.8125003,-1.2591993 -2.8125003,-2.8125003 0,-1.5533009 1.2591993,-2.8125002 2.8125003,-2.8125002 1.553301,0 2.8125,1.2591993 2.8125,2.8125002 z" transform="matrix(1.06611 0 0 1.06611 3.405 6.703)"/>
    <path fill="url(#f)" stroke="#244a6e" d="m 11.343751,4.499999 c 0,1.553301 -1.259199,2.8125003 -2.8125,2.8125003 -1.553301,0 -2.8125003,-1.2591993 -2.8125003,-2.8125003 0,-1.5533009 1.2591993,-2.8125002 2.8125003,-2.8125002 1.553301,0 2.8125,1.2591993 2.8125,2.8125002 z" transform="matrix(1.06611 0 0 1.06611 -4.595 6.703)"/>
  </g>
</svg>
