<svg xmlns="http://www.w3.org/2000/svg" xmlns:xlink="http://www.w3.org/1999/xlink" width="16" height="16">
  <defs>
    <linearGradient id="a">
      <stop offset="0" stop-color="#005597"/>
      <stop offset="1" stop-color="#00467d"/>
    </linearGradient>
    <linearGradient id="b">
      <stop offset="0" stop-color="#003c6e"/>
      <stop offset="1" stop-color="#004c88"/>
    </linearGradient>
    <linearGradient xlink:href="#a" id="k" x1="13" x2="13" y1="1048.362" y2="1051.362" gradientTransform="rotate(180 8.018 1044.865)" gradientUnits="userSpaceOnUse"/>
    <linearGradient xlink:href="#b" id="j" x1="9" x2="9" y1="1052.362" y2="1049.362" gradientTransform="matrix(1 0 0 -1 -.965 2089.73)" gradientUnits="userSpaceOnUse"/>
    <linearGradient id="d">
      <stop offset="0" stop-color="#003c6e"/>
      <stop offset="1" stop-color="#004c88"/>
    </linearGradient>
    <linearGradient xlink:href="#c" id="m" x1="13" x2="13" y1="1048.362" y2="1051.362" gradientTransform="translate(.004 -.994)" gradientUnits="userSpaceOnUse"/>
    <linearGradient id="c">
      <stop offset="0" stop-color="#005597"/>
      <stop offset="1" stop-color="#00467d"/>
    </linearGradient>
    <linearGradient xlink:href="#d" id="l" x1="9" x2="11.298" y1="1052.362" y2="1047.418" gradientTransform="matrix(-1 0 0 1 17.004 -.994)" gradientUnits="userSpaceOnUse"/>
    <linearGradient xlink:href="#e" id="t" x1="7.478" x2="15.523" y1="1043.859" y2="1043.859" gradientUnits="userSpaceOnUse"/>
    <linearGradient id="e">
      <stop offset="0" stop-color="#fff"/>
      <stop offset=".5" stop-color="#fff" stop-opacity=".822"/>
      <stop offset="1" stop-color="#fff" stop-opacity="0"/>
    </linearGradient>
    <linearGradient xlink:href="#f" id="r" x1="7.478" x2="15.523" y1="1043.859" y2="1043.859" gradientUnits="userSpaceOnUse"/>
    <linearGradient id="f">
      <stop offset="0" stop-color="#fff"/>
      <stop offset=".5" stop-color="#fff" stop-opacity=".822"/>
      <stop offset="1" stop-color="#fff" stop-opacity="0"/>
    </linearGradient>
    <linearGradient xlink:href="#g" id="s" x1="8.828" x2="8.828" y1="1041.733" y2="1046.971" gradientTransform="rotate(180 10.097 1043.887)" gradientUnits="userSpaceOnUse"/>
    <linearGradient id="g">
      <stop offset="0" stop-color="#df9f3f"/>
      <stop offset=".385" stop-color="#ffbf3f"/>
      <stop offset="1" stop-color="#f5f5b5"/>
    </linearGradient>
    <linearGradient xlink:href="#h" id="p" x1="7.478" x2="15.523" y1="1043.859" y2="1043.859" gradientUnits="userSpaceOnUse"/>
    <linearGradient id="h">
      <stop offset="0" stop-color="#fff"/>
      <stop offset=".5" stop-color="#fff" stop-opacity=".822"/>
      <stop offset="1" stop-color="#fff" stop-opacity="0"/>
    </linearGradient>
    <linearGradient xlink:href="#i" id="q" x1="8.828" x2="8.828" y1="1041.733" y2="1046.971" gradientTransform="rotate(180 10.097 1043.887)" gradientUnits="userSpaceOnUse"/>
    <linearGradient id="i">
      <stop offset="0" stop-color="#df9f3f"/>
      <stop offset=".385" stop-color="#ffbf3f"/>
      <stop offset="1" stop-color="#f5f5b5"/>
    </linearGradient>
    <filter id="o" width="1.335" height="1.389" x="-.167" y="-.195">
      <feGaussianBlur stdDeviation="1.078"/>
    </filter>
    <mask id="n" maskUnits="userSpaceOnUse">
      <g fill="#fff" stroke="#fff"/>
    </mask>
  </defs>
  <path fill="none" stroke="url(#j)" d="m 3.0351066,1040.3678 c 0,0 1.557292,-2.5625 4.4999994,-2.5625 2.942708,0 4.5,2.5625 4.5,2.5625" transform="translate(0 -1036.362)"/>
  <path fill="url(#k)" d="m 2.0351066,1041.3678 3.453125,0 -3.453125,-3.4531 z" transform="translate(0 -1036.362)"/>
  <path fill="none" stroke="url(#l)" d="m 13.003856,1048.3678 c 0,0 -1.557292,2.5625 -4.4999994,2.5625 -2.942708,0 -4.5,-2.5625 -4.5,-2.5625" transform="translate(0 -1036.362)"/>
  <path fill="url(#m)" d="m 14.003856,1047.3678 -3.453125,0 3.453125,3.4531 z" transform="translate(0 -1036.362)"/>
  <g mask="url(#n)" transform="translate(0 -1036.362)">
    <g fill="#fff" stroke="#fff" stroke-width="2" filter="url(#o)">
      <path d="M11.5 1037.69c-.187 0-.384.04-.656.094l0 .875c-.213.042-.422.072-.625.156-.194.083-.388.228-.562.344l-.625-.625c-.462.308-.597.445-.906.906l.625.625c-.121.181-.26.391-.344.594-.084.203-.114.412-.156.625l-.906 0c-.109.545-.108.736 0 1.281l.906 0c.085.427.258.857.5 1.219l-.625.594c.309.462.444.598.906.906l.625-.594c.362.242.761.415 1.188.5l0 .875c.545.108.768.109 1.313 0l0-.875c.427-.085.826-.258 1.188-.5l.625.594c.462-.309.598-.444.906-.906l-.625-.594c.242-.362.415-.792.5-1.219l.906 0c.108-.545.109-.736 0-1.281l-.906 0c-.085-.427-.258-.857-.5-1.219l.625-.625c-.154-.231-.243-.399-.375-.531-.132-.132-.3-.221-.531-.375l-.625.625c-.362-.242-.761-.415-1.187-.5l0-.875c-.272-.054-.469-.094-.656-.094zm0 3.313c.501 0 .906.406.906.906 0 .5-.406.906-.906.906-.501 0-.906-.406-.906-.906 0-.501.406-.906.906-.906zM4.521 1042.535c-.187 0-.384.04-.656.094l0 .875c-.213.042-.422.072-.625.156-.194.083-.388.228-.562.344l-.625-.625c-.462.308-.597.445-.906.906l.625.625c-.121.181-.26.391-.344.594-.084.203-.114.412-.156.625l-.906 0c-.109.545-.108.736 0 1.281l.906 0c.085.427.258.857.5 1.219l-.625.594c.309.462.444.598.906.906l.625-.594c.362.242.761.415 1.188.5l0 .875c.545.108.768.109 1.313 0l0-.875c.427-.085.826-.258 1.188-.5l.625.594c.462-.309.598-.444.906-.906l-.625-.594c.242-.362.415-.792.5-1.219l.906 0c.108-.545.109-.736 0-1.281l-.906 0c-.085-.427-.258-.857-.5-1.219l.625-.625c-.154-.231-.243-.399-.375-.531-.132-.132-.3-.221-.531-.375l-.625.625c-.362-.242-.761-.415-1.187-.5l0-.875c-.272-.054-.469-.094-.656-.094zm0 3.313c.501 0 .906.406.906.906 0 .5-.406.906-.906.906-.501 0-.906-.406-.906-.906 0-.501.406-.906.906-.906z"/>
    </g>
  </g>
  <g fill="url(#p)" stroke="#543830" transform="matrix(1.00022 0 0 .9963 -6.964 -1029.49)">
    <path fill="url(#q)" d="m 12.518002,1047.8569 -0.01105,-0.988 1.999787,0 0,-1.9997 1.016465,0 0,-1.965 -1.016465,0 0,-2.0328 -2.010835,0 0.01105,-1.0101 c -1.606355,0 -0.406381,0 -2.012736,0 l 0.01105,1.0101 -2.0108349,0 0,2.0328 -1.016465,0 0,1.965 1.016465,0 0,1.9997 1.9997869,0 -0.01105,0.988 c 1.613721,0 0.421111,0 2.034832,0 z"/>
    <path fill="#fff" stroke-linejoin="round" d="m 12.265625,7.34375 c 0,0.5609142 -0.454711,1.015625 -1.015625,1.015625 -0.560914,0 -1.015625,-0.4547108 -1.015625,-1.015625 0,-0.5609142 0.454711,-1.015625 1.015625,-1.015625 0.560914,0 1.015625,0.4547108 1.015625,1.015625 z" transform="translate(.281 1036.518)"/>
  </g>
  <g fill="url(#r)" stroke="#543830" transform="translate(.007 -1038.328)">
    <path fill="url(#s)" d="m 12.518002,1047.8569 -0.01105,-0.988 1.999787,0 0,-1.9997 1.016465,0 0,-1.965 -1.016465,0 0,-2.0328 -2.010835,0 0.01105,-1.0101 c -1.606355,0 -0.406381,0 -2.012736,0 l 0.01105,1.0101 -2.0108349,0 0,2.0328 -1.016465,0 0,1.965 1.016465,0 0,1.9997 1.9997869,0 -0.01105,0.988 c 1.613721,0 0.421111,0 2.034832,0 z"/>
    <path fill="#fff" stroke-linejoin="round" d="m 12.265625,7.34375 c 0,0.5609142 -0.454711,1.015625 -1.015625,1.015625 -0.560914,0 -1.015625,-0.4547108 -1.015625,-1.015625 0,-0.5609142 0.454711,-1.015625 1.015625,-1.015625 0.560914,0 1.015625,0.4547108 1.015625,1.015625 z" transform="translate(.281 1036.518)"/>
  </g>
</svg>
