<svg xmlns="http://www.w3.org/2000/svg" xmlns:xlink="http://www.w3.org/1999/xlink" width="16" height="16">
  <defs>
    <linearGradient xlink:href="#a" id="d" x1="393.477" x2="379.656" y1="375.175" y2="371.109" gradientUnits="userSpaceOnUse"/>
    <linearGradient id="a">
      <stop offset="0" stop-color="#2d493b"/>
      <stop offset="1" stop-color="#296c79"/>
    </linearGradient>
    <linearGradient xlink:href="#a" id="e" x1="395.687" x2="385.578" y1="379.506" y2="388.698" gradientUnits="userSpaceOnUse"/>
    <linearGradient xlink:href="#a" id="f" x1="404.879" x2="397.775" y1="389.229" y2="400.1" gradientUnits="userSpaceOnUse"/>
    <linearGradient xlink:href="#a" id="g" x1="420.524" x2="432.865" y1="378.799" y2="381.804" gradientUnits="userSpaceOnUse"/>
    <linearGradient xlink:href="#a" id="h" x1="413.011" x2="429.949" y1="366.601" y2="364.922" gradientUnits="userSpaceOnUse"/>
    <linearGradient xlink:href="#a" id="i" x1="674.847" x2="675.203" y1="180.64" y2="166.792" gradientUnits="userSpaceOnUse"/>
    <linearGradient xlink:href="#a" id="j" x1="396.01" x2="396.211" y1="359.49" y2="350.946" gradientUnits="userSpaceOnUse"/>
    <linearGradient xlink:href="#a" id="k" x1="390.384" x2="381.865" y1="362.8" y2="360.856" gradientUnits="userSpaceOnUse"/>
    <linearGradient id="b">
      <stop offset="0" stop-color="#e4f1d8"/>
      <stop offset="1" stop-color="#8ebc7b"/>
    </linearGradient>
    <linearGradient xlink:href="#a" id="m" x1="427.53" x2="425.452" y1="432.766" y2="415.109" gradientUnits="userSpaceOnUse"/>
    <linearGradient xlink:href="#c" id="o" x1="683.162" x2="661.945" y1="205.726" y2="183.184" gradientUnits="userSpaceOnUse"/>
    <linearGradient id="c">
      <stop offset="0" stop-color="#397b3b"/>
      <stop offset="1" stop-color="#397b3b" stop-opacity="0"/>
    </linearGradient>
    <linearGradient xlink:href="#a" id="p" x1="420.89" x2="440.353" y1="455.885" y2="417.261" gradientUnits="userSpaceOnUse"/>
    <radialGradient xlink:href="#b" id="l" cx="433.545" cy="420.75" r="12.952" fx="433.545" fy="420.75" gradientTransform="matrix(1 0 0 1.27979 0 -120.612)" gradientUnits="userSpaceOnUse"/>
    <radialGradient xlink:href="#b" id="n" cx="433.368" cy="424.341" r="12.028" fx="433.368" fy="424.341" gradientTransform="matrix(1.16148 0 0 1.49396 -69.981 -211.638)" gradientUnits="userSpaceOnUse"/>
  </defs>
  <path fill="none" stroke="url(#d)" stroke-width="2" d="m 394.30042,373.98162 -7.1014,-2.23116 -7.74784,-1.39277" transform="matrix(.27903 0 0 .27903 -105.192 -96.852)"/>
  <path fill="none" stroke="url(#e)" stroke-width="2" d="m 395.27269,378.04748 -2.57215,6.46491 -6.35507,4.76041" transform="matrix(.27903 0 0 .27903 -105.192 -96.852)"/>
  <path fill="none" stroke="url(#f)" stroke-width="2" d="m 403.93474,388.65409 -1.14904,6.27556 -4.77297,5.48008" transform="matrix(.27903 0 0 .27903 -105.192 -96.852)"/>
  <path fill="none" stroke="url(#g)" stroke-width="2" d="m 421.17048,377.8707 6.98267,-0.44194 3.71232,4.68458" transform="matrix(.27903 0 0 .27903 -105.192 -96.852)"/>
  <path fill="none" stroke="url(#h)" stroke-width="2" d="m 412.68519,366.38022 7.07107,-3.27037 9.19239,3.62392" transform="matrix(.27903 0 0 .27903 -105.192 -96.852)"/>
  <path fill="none" stroke="url(#i)" stroke-width="2.123" d="m 673.87577,180.8389 0.61872,-7.47163 -0.26517,-6.87392" transform="matrix(.27903 0 0 .24757 -179.035 -40.031)"/>
  <path fill="none" stroke="url(#j)" stroke-width="2" d="m 394.65397,359.6627 -0.0947,-8.53337" transform="matrix(.27903 0 0 .27903 -105.192 -96.852)"/>
  <path fill="none" stroke="url(#k)" stroke-width="2" d="m 391.56038,362.04919 -9.104,-2.20971" transform="matrix(.27903 0 0 .27903 -105.192 -96.852)"/>
  <path fill="url(#l)" stroke="url(#m)" stroke-linecap="round" stroke-linejoin="round" stroke-width="5.019" d="m 444.77016,431.08047 c 0,8.24983 -5.06532,14.93764 -11.31371,14.93764 -6.24839,0 -11.31371,-6.68781 -11.31371,-14.93764 0,-8.24982 5.06532,-14.93763 11.31371,-14.93763 6.24839,0 11.31371,6.68781 11.31371,14.93763 z" transform="matrix(.09827 -.09827 .09827 .09827 -79.187 5.621)"/>
  <path fill="url(#n)" d="m 444.77016,431.08047 c 0,8.24983 -5.06532,14.93764 -11.31371,14.93764 -6.24839,0 -11.31371,-6.68781 -11.31371,-14.93764 0,-8.24982 5.06532,-14.93763 11.31371,-14.93763 6.24839,0 11.31371,6.68781 11.31371,14.93763 z" transform="matrix(.19687 -.19687 .19687 .19687 -161.584 8.773)"/>
  <path fill="none" stroke="url(#o)" stroke-width="1.592" d="m 662.20851,183.42907 20.81545,23.46096" transform="matrix(.27903 0 0 .24757 -179.035 -40.031)"/>
  <path fill="none" stroke="url(#p)" stroke-linecap="round" stroke-linejoin="round" stroke-width="2.506" d="m 444.77016,431.08047 c 0,8.24983 -5.06532,14.93764 -11.31371,14.93764 -6.24839,0 -11.31371,-6.68781 -11.31371,-14.93764 0,-8.24982 5.06532,-14.93763 11.31371,-14.93763 6.24839,0 11.31371,6.68781 11.31371,14.93763 z" transform="matrix(.19687 -.19687 .19687 .19687 -161.584 8.773)"/>
</svg>
