<svg xmlns="http://www.w3.org/2000/svg" xmlns:xlink="http://www.w3.org/1999/xlink" width="16" height="16">
  <defs>
    <linearGradient id="p">
      <stop offset="0" stop-color="#b8bfcf"/>
      <stop offset="1" stop-color="#aeb6ca"/>
    </linearGradient>
    <linearGradient id="k">
      <stop offset="0"/>
      <stop offset="1" stop-opacity="0"/>
    </linearGradient>
    <linearGradient id="c">
      <stop offset="0" stop-color="#abafa2"/>
      <stop offset="1" stop-color="#8f9480"/>
    </linearGradient>
    <linearGradient xlink:href="#a" id="K" x1="20.303" x2="20.303" y1="1056.022" y2="1065.103" gradientTransform="translate(-.404)" gradientUnits="userSpaceOnUse"/>
    <linearGradient id="a">
      <stop offset="0" stop-color="#accf8e"/>
      <stop offset=".29" stop-color="#93c586"/>
      <stop offset=".429" stop-color="#58ab71"/>
      <stop offset=".575" stop-color="#4da766"/>
      <stop offset=".708" stop-color="#61af61"/>
      <stop offset="1" stop-color="#78ba5e"/>
    </linearGradient>
    <linearGradient xlink:href="#b" id="L" x1="21.47" x2="21.47" y1="1054.852" y2="1066.104" gradientUnits="userSpaceOnUse"/>
    <linearGradient id="b">
      <stop offset="0" stop-color="#36825e"/>
      <stop offset="1" stop-color="#257550"/>
    </linearGradient>
    <linearGradient xlink:href="#c" id="H" x1="4.308" x2="4.308" y1="1037.015" y2="1050.015" gradientTransform="translate(20)" gradientUnits="userSpaceOnUse"/>
    <linearGradient id="d">
      <stop offset="0" stop-color="#fff" stop-opacity="0"/>
      <stop offset="1" stop-color="#fff"/>
    </linearGradient>
    <linearGradient xlink:href="#d" id="t" x1="-13" x2="-15" y1="1047.362" y2="1047.362" gradientTransform="translate(36.308 -1.347)" gradientUnits="userSpaceOnUse"/>
    <linearGradient id="f">
      <stop offset="0" stop-color="#fff" stop-opacity="0"/>
      <stop offset="1" stop-color="#fff"/>
    </linearGradient>
    <linearGradient xlink:href="#e" id="v" x1="-11" x2="-11" y1="1042.362" y2="1044.362" gradientTransform="translate(36.308 1.653)" gradientUnits="userSpaceOnUse"/>
    <linearGradient id="e">
      <stop offset="0" stop-color="#fff"/>
      <stop offset="1" stop-color="#fff" stop-opacity="0"/>
    </linearGradient>
    <linearGradient xlink:href="#f" id="u" x1="-13" x2="-15" y1="1047.362" y2="1047.362" gradientTransform="translate(36.308 2.653)" gradientUnits="userSpaceOnUse"/>
    <linearGradient id="g">
      <stop offset="0" stop-color="#fff"/>
      <stop offset="1" stop-color="#fff" stop-opacity="0"/>
    </linearGradient>
    <linearGradient xlink:href="#g" id="w" x1="-11" x2="-11" y1="1042.362" y2="1044.362" gradientTransform="translate(36.308 -1.347)" gradientUnits="userSpaceOnUse"/>
    <linearGradient id="h">
      <stop offset="0" stop-color="#fff"/>
      <stop offset="1" stop-color="#fff" stop-opacity="0"/>
    </linearGradient>
    <linearGradient xlink:href="#h" id="x" x1="-11" x2="-11" y1="1042.362" y2="1044.362" gradientTransform="translate(36.308 -5.347)" gradientUnits="userSpaceOnUse"/>
    <linearGradient id="i">
      <stop offset="0" stop-color="#fff" stop-opacity="0"/>
      <stop offset="1" stop-color="#fff"/>
    </linearGradient>
    <linearGradient xlink:href="#i" id="y" x1="-13" x2="-15" y1="1047.362" y2="1047.362" gradientTransform="translate(36.308 -5.347)" gradientUnits="userSpaceOnUse"/>
    <linearGradient xlink:href="#j" id="A" x1="-13" x2="-15" y1="1047.362" y2="1047.362" gradientTransform="rotate(180 6.154 1041.189)" gradientUnits="userSpaceOnUse"/>
    <linearGradient id="j">
      <stop offset="0" stop-opacity="0"/>
      <stop offset="1"/>
    </linearGradient>
    <linearGradient xlink:href="#k" id="z" x1="-11" x2="-11" y1="1042.362" y2="1044.362" gradientTransform="rotate(180 6.154 1041.189)" gradientUnits="userSpaceOnUse"/>
    <linearGradient id="m">
      <stop offset="0"/>
      <stop offset="1" stop-opacity="0"/>
    </linearGradient>
    <linearGradient xlink:href="#l" id="C" x1="-13" x2="-15" y1="1047.362" y2="1047.362" gradientTransform="rotate(180 6.154 1043.189)" gradientUnits="userSpaceOnUse"/>
    <linearGradient id="l">
      <stop offset="0" stop-opacity="0"/>
      <stop offset="1"/>
    </linearGradient>
    <linearGradient xlink:href="#m" id="B" x1="-11" x2="-11" y1="1042.362" y2="1044.362" gradientTransform="rotate(180 6.154 1042.689)" gradientUnits="userSpaceOnUse"/>
    <linearGradient id="o">
      <stop offset="0"/>
      <stop offset="1" stop-opacity="0"/>
    </linearGradient>
    <linearGradient xlink:href="#n" id="E" x1="-13" x2="-15" y1="1047.362" y2="1047.362" gradientTransform="rotate(180 6.154 1045.189)" gradientUnits="userSpaceOnUse"/>
    <linearGradient id="n">
      <stop offset="0" stop-opacity="0"/>
      <stop offset="1"/>
    </linearGradient>
    <linearGradient xlink:href="#o" id="D" x1="-11" x2="-11" y1="1042.362" y2="1044.362" gradientTransform="rotate(180 6.154 1046.189)" gradientUnits="userSpaceOnUse"/>
    <linearGradient xlink:href="#p" id="s" x1="4.308" x2="4.308" y1="1044.015" y2="1050.015" gradientTransform="translate(20)" gradientUnits="userSpaceOnUse"/>
    <linearGradient xlink:href="#q" id="F" x1="20.303" x2="20.303" y1="1056.022" y2="1065.103" gradientTransform="translate(-.404)" gradientUnits="userSpaceOnUse"/>
    <linearGradient id="q">
      <stop offset="0" stop-color="#accf8e"/>
      <stop offset=".29" stop-color="#93c586"/>
      <stop offset=".429" stop-color="#58ab71"/>
      <stop offset=".575" stop-color="#4da766"/>
      <stop offset=".708" stop-color="#61af61"/>
      <stop offset="1" stop-color="#78ba5e"/>
    </linearGradient>
    <linearGradient xlink:href="#r" id="G" x1="21.47" x2="21.47" y1="1054.852" y2="1066.104" gradientUnits="userSpaceOnUse"/>
    <linearGradient id="r">
      <stop offset="0" stop-color="#36825e"/>
      <stop offset="1" stop-color="#257550"/>
    </linearGradient>
    <filter id="J" width="1.498" height="1.462" x="-.249" y="-.231">
      <feGaussianBlur stdDeviation=".866"/>
    </filter>
    <mask id="I" maskUnits="userSpaceOnUse"/>
  </defs>
  <g transform="translate(-14.308 -1036.015)">
    <path fill="url(#s)" d="M21.308 1044.015H27.308V1050.015H21.308z"/>
    <path fill="#aeb6ca" d="M21.308 1041.015H27.308V1044.015H21.308zM21.308 1037.015H27.308V1040.015H21.308z"/>
    <path fill="#a6ab9c" d="M21.308 1040.015H27.308V1041.015H21.308z"/>
    <path fill="#9da291" d="M21.308 1043.015H27.308V1044.015H21.308z"/>
    <path fill="url(#t)" d="m 22.308131,1042.0155 0,0 -1,1 0,-2 z" opacity=".5"/>
    <path fill="url(#u)" d="m 22.308131,1045.0155 0,4 -1,1 0,-6 z" opacity=".5"/>
    <path fill="url(#v)" d="m 22.308131,1045.0155 4,0 1,-1 -6,0 z" opacity=".5"/>
    <path fill="url(#w)" d="m 22.308131,1042.0155 4,0 1,-1 -6,0 z" opacity=".75"/>
    <path fill="url(#x)" d="m 22.308131,1038.0155 4,0 1,-1 -6,0 z" opacity=".85"/>
    <path fill="url(#y)" d="m 22.308131,1038.0155 0,1 -1,1 0,-3 z" opacity=".5"/>
    <path fill="url(#z)" d="m 26.308131,1039.0155 -4,0 -1,1 6,0 z" opacity=".15"/>
    <path fill="url(#A)" d="m 26.308131,1039.0155 0,-1 1,-1 0,3 z" opacity=".15"/>
    <path fill="url(#B)" d="m 26.308131,1042.0155 -4,0 -1,1 6,0 z" opacity=".15"/>
    <path fill="url(#C)" d="m 26.308131,1042.0155 0,0 1,-1 0,2 z" opacity=".15"/>
    <path fill="url(#D)" d="m 26.308131,1049.0155 -4,0 -1,1 6,0 z" opacity=".15"/>
    <path fill="url(#E)" d="m 26.308131,1049.0155 0,-4 1,-1 0,6 z" opacity=".15"/>
    <path fill="url(#F)" stroke="url(#G)" stroke-linejoin="round" stroke-width="1.292" d="m 18.975251,1054.7517 10.78301,5.8156 -10.72051,5.8048 z" transform="matrix(.1805 0 0 .16838 19.007 859.957)"/>
    <rect width="7.005" height="14.01" x="20.805" y="1036.503" fill="none" stroke="url(#H)" rx="1.147" ry="1.147"/>
    <g mask="url(#I)">
      <g fill="#fff" stroke="#fff" stroke-width="2.692" filter="url(#J)" transform="matrix(.76927 0 0 .7176 9.938 298.09)">
        <path stroke-linejoin="round" stroke-width="3.478" d="m 18.975251,1054.7517 10.78301,5.8156 -10.72051,5.8048 z" transform="matrix(.77394 0 0 .77394 -7.17 223.554)"/>
      </g>
    </g>
    <path fill="url(#K)" stroke="url(#L)" stroke-linejoin="round" stroke-width="1.292" d="m 18.975251,1054.7517 10.78301,5.8156 -10.72051,5.8048 z" transform="matrix(.59537 0 0 .55537 4.422 458.51)"/>
  </g>
</svg>
