<svg xmlns="http://www.w3.org/2000/svg" xmlns:xlink="http://www.w3.org/1999/xlink" width="16" height="16">
  <defs>
    <linearGradient xlink:href="#a" id="f" x1="1.433" x2="3.073" y1="6.461" y2="8.105" gradientUnits="userSpaceOnUse"/>
    <linearGradient id="a">
      <stop offset="0" stop-color="#d5f3ff"/>
      <stop offset="1" stop-color="#fcffff"/>
    </linearGradient>
    <linearGradient id="b">
      <stop offset="0" stop-color="#d5f3ff"/>
      <stop offset="1" stop-color="#fcffff"/>
    </linearGradient>
    <linearGradient xlink:href="#b" id="g" x1="1.433" x2="3.073" y1="6.461" y2="8.105" gradientUnits="userSpaceOnUse"/>
    <linearGradient xlink:href="#c" id="h" x1="-11.211" x2="-8.701" y1="1042.16" y2="1044.67" gradientTransform="translate(20)" gradientUnits="userSpaceOnUse"/>
    <linearGradient id="c">
      <stop offset="0" stop-color="#986443"/>
      <stop offset="1" stop-color="#994f1b"/>
    </linearGradient>
    <linearGradient xlink:href="#d" id="j" x1="-.981" x2="1.984" y1="1047.424" y2="1050.319" gradientTransform="translate(4 -1036.362)" gradientUnits="userSpaceOnUse"/>
    <linearGradient id="d">
      <stop offset="0" stop-color="#e4cf94"/>
      <stop offset=".322" stop-color="#ede0ba"/>
      <stop offset=".648" stop-color="#c1aa7e"/>
      <stop offset="1" stop-color="#ad8865"/>
    </linearGradient>
    <linearGradient id="e">
      <stop offset="0" stop-color="#4d4d4d"/>
      <stop offset=".294" stop-color="#727272"/>
      <stop offset="1" stop-color="#4d4d4d"/>
    </linearGradient>
    <linearGradient xlink:href="#e" id="k" x1="2.656" x2="4.082" y1="1049.398" y2="1050.53" gradientUnits="userSpaceOnUse"/>
    <filter id="i" color-interpolation-filters="sRGB">
      <feGaussianBlur stdDeviation=".222"/>
    </filter>
  </defs>
  <g stroke="#324e6e">
    <path fill="none" d="m 12.535948,1057.3138 c 0,0 0.409535,-0.5625 1.699794,-0.5625 1.290259,0 1.658145,0.5 1.658145,0.5" transform="matrix(.77148 0 0 .77148 -5.454 -811.755)"/>
    <path fill="none" stroke-linecap="round" stroke-linejoin="round" d="m8.781 1057.286.523-.547 3.392-3.548c.829-.773 2.088-.873 2.088 1.701M17.623 1058.207l4.077-4.265c.829-.773 2.088-.873 2.088 1.702" transform="matrix(.77148 0 0 .77148 -5.454 -811.755)"/>
    <path fill="url(#f)" stroke-width="1.119" d="m 4.7343755,7.5624995 c 0,1.2253819 -0.9933683,2.2187503 -2.2187503,2.2187503 -1.2253819,0 -2.2187502,-0.9933684 -2.2187502,-2.2187503 0,-1.2253819 0.9933683,-2.2187502 2.2187502,-2.2187502 1.225382,0 2.2187503,0.9933683 2.2187503,2.2187502 z" transform="translate(1.082 -.162) scale(.68945)"/>
    <path fill="url(#g)" stroke-width="1.119" d="m 4.7343755,7.5624995 c 0,1.2253819 -0.9933683,2.2187503 -2.2187503,2.2187503 -1.2253819,0 -2.2187502,-0.9933684 -2.2187502,-2.2187503 0,-1.2253819 0.9933683,-2.2187502 2.2187502,-2.2187502 1.225382,0 2.2187503,0.9933683 2.2187503,2.2187502 z" transform="translate(6.482 -.162) scale(.68945)"/>
  </g>
  <path fill="none" stroke="url(#h)" stroke-linejoin="round" d="m 15.685953,1040.5523 -8.747594,8.7054 -5.461084,2.5938 2.59375,-5.4564 8.663811,-8.7231 c 1.269887,0.6025 2.210467,1.6169 2.951117,2.8807 z" color="#000" enable-background="accumulate" font-family="Sans" font-weight="400" overflow="visible" style="text-indent:0;text-align:start;line-height:normal;text-transform:none;block-progression:tb;marker:none;-inkscape-font-specification:Sans" transform="translate(3.72 -742.632) scale(.7205)"/>
  <path fill="#ffcb72" d="m 12.75,1037.6747 -8.6875,8.7188 0.9375,0.9062 8.9375,-8.875 c -0.362696,-0.2963 -0.752826,-0.5438 -1.1875,-0.75 z" color="#000" enable-background="accumulate" font-family="Sans" font-weight="400" overflow="visible" style="text-indent:0;text-align:start;line-height:normal;text-transform:none;block-progression:tb;marker:none;-inkscape-font-specification:Sans" transform="translate(3.72 -742.632) scale(.7205)"/>
  <path fill="#e5a856" d="m 15.3125,1039.956 -8.78125,8.9062 0.40625,0.4063 8.75,-8.7188 c -0.120121,-0.205 -0.24381,-0.4026 -0.375,-0.5937 z" color="#000" enable-background="accumulate" font-family="Sans" font-weight="400" overflow="visible" style="text-indent:0;text-align:start;line-height:normal;text-transform:none;block-progression:tb;marker:none;-inkscape-font-specification:Sans" transform="translate(3.72 -742.632) scale(.7205)"/>
  <path fill="#fbbc67" d="m 6.536718,1048.8567 -1.548139,-1.5456 8.939717,-8.8821 c 0.52506,0.4288 0.980135,0.9451 1.380966,1.5292 z" color="#000" enable-background="accumulate" font-family="Sans" font-weight="400" overflow="visible" style="text-indent:0;text-align:start;line-height:normal;text-transform:none;block-progression:tb;marker:none;-inkscape-font-specification:Sans" transform="translate(3.72 -742.632) scale(.7205)"/>
  <path fill="none" stroke="#fff" d="m 4.984376,1047.2528 8.937501,-8.8281" filter="url(#i)" opacity=".5" transform="translate(3.72 -742.632) scale(.7205)"/>
  <path fill="url(#j)" d="M 5.40625,8.6875 4.09375,10 2.6875,12.9375 l 1.375,1.28125 -0.03125,0.0625 2.9375,-1.40625 0.75,-0.75 0.1875,-2 L 5.1875,9.96875 c 0,0 0.127199,-0.74275 0.21875,-1.28125 z" transform="translate(3.72 4.07) scale(.7205)"/>
  <path fill="url(#k)" d="m 3.25,1049.1435 c -0.211528,0.024 -0.41079,0.089 -0.5625,0.1562 l -1.21875,2.5625 2.5625,-1.2187 0.03125,-0.062 c 0.121601,-0.3002 0.273127,-0.8318 -0.09375,-1.2188 -0.132606,-0.1402 -0.331591,-0.1963 -0.5,-0.2187 -0.08057,-0.011 -0.138928,-0.01 -0.21875,0 z" transform="translate(3.72 -742.632) scale(.7205)"/>
</svg>
