<svg xmlns="http://www.w3.org/2000/svg" xmlns:xlink="http://www.w3.org/1999/xlink" width="16" height="16">
  <defs>
    <linearGradient xlink:href="#a" id="k" x1="531.093" x2="531.093" y1="366.789" y2="371.179" gradientTransform="translate(-61.367 1.445)" gradientUnits="userSpaceOnUse"/>
    <linearGradient id="a">
      <stop offset="0" stop-color="#c48a4e"/>
      <stop offset="1" stop-color="#ad6c24"/>
    </linearGradient>
    <linearGradient xlink:href="#b" id="l" x1="538.006" x2="538.006" y1="396.223" y2="374.212" gradientTransform="translate(-60.559)" gradientUnits="userSpaceOnUse"/>
    <linearGradient id="b">
      <stop offset="0" stop-color="#f8d078"/>
      <stop offset="1" stop-color="#f8f0c8"/>
    </linearGradient>
    <linearGradient xlink:href="#c" id="m" x1="548.459" x2="548.459" y1="398.988" y2="373.771" gradientTransform="translate(-60.559)" gradientUnits="userSpaceOnUse"/>
    <linearGradient id="c">
      <stop offset="0" stop-color="#9e6627"/>
      <stop offset="1" stop-color="#c38536"/>
    </linearGradient>
    <linearGradient id="f">
      <stop offset="0" stop-color="#c38536"/>
      <stop offset=".154" stop-color="#f2dc91"/>
      <stop offset=".5" stop-color="#fbdc8b"/>
      <stop offset=".75" stop-color="#e6bd7a"/>
      <stop offset="1" stop-color="#ba772f"/>
    </linearGradient>
    <linearGradient xlink:href="#d" id="u" x1="537.943" x2="538.833" y1="397.561" y2="381.572" gradientTransform="matrix(.33026 0 0 .46783 884.337 1300.668)" gradientUnits="userSpaceOnUse"/>
    <linearGradient id="d">
      <stop offset="0" stop-color="#f8d078"/>
      <stop offset="1" stop-color="#f8f0c8"/>
    </linearGradient>
    <linearGradient xlink:href="#e" id="v" x1="548.459" x2="548.016" y1="398.988" y2="381.198" gradientTransform="matrix(.33026 0 0 .46783 884.337 1300.668)" gradientUnits="userSpaceOnUse"/>
    <linearGradient id="e">
      <stop offset="0" stop-color="#9e6627"/>
      <stop offset="1" stop-color="#bc8532"/>
    </linearGradient>
    <linearGradient xlink:href="#f" id="n" x1="523.008" x2="543.914" y1="373.229" y2="373.229" gradientTransform="translate(-60.559 1.419)" gradientUnits="userSpaceOnUse"/>
    <linearGradient id="g">
      <stop offset="0" stop-color="#faefba"/>
      <stop offset="1" stop-color="#9e6542"/>
    </linearGradient>
    <linearGradient id="h">
      <stop offset="0" stop-color="#faefba"/>
      <stop offset="1" stop-color="#9e6542"/>
    </linearGradient>
    <linearGradient id="i">
      <stop offset="0" stop-color="#faefba"/>
      <stop offset="1" stop-color="#9e6542"/>
    </linearGradient>
    <linearGradient id="j">
      <stop offset="0" stop-color="#faefba"/>
      <stop offset="1" stop-color="#9e6542"/>
    </linearGradient>
    <radialGradient xlink:href="#g" id="o" cx="387.597" cy="442.578" r="6.188" fx="387.597" fy="442.578" gradientTransform="matrix(1.56579 0 0 1.37407 -219.208 -165.52)" gradientUnits="userSpaceOnUse"/>
    <radialGradient xlink:href="#h" id="p" cx="387.597" cy="442.578" r="6.188" fx="387.597" fy="442.578" gradientTransform="matrix(1.56579 0 0 1.37407 -208.333 -165.52)" gradientUnits="userSpaceOnUse"/>
    <radialGradient xlink:href="#i" id="q" cx="387.597" cy="442.578" r="6.188" fx="387.597" fy="442.578" gradientTransform="matrix(1.56579 0 0 1.37407 -219.208 -154.646)" gradientUnits="userSpaceOnUse"/>
    <radialGradient xlink:href="#j" id="r" cx="387.597" cy="442.578" r="6.188" fx="387.597" fy="442.578" gradientTransform="matrix(1.56579 0 0 1.37407 -208.333 -154.646)" gradientUnits="userSpaceOnUse"/>
    <filter id="t" width="1.275" height="1.755" x="-.138" y="-.377" color-interpolation-filters="sRGB">
      <feGaussianBlur stdDeviation="3.562"/>
    </filter>
    <mask id="s" maskUnits="userSpaceOnUse"/>
  </defs>
  <g transform="translate(0 -1036.362)">
    <g stroke-width="3.028" transform="matrix(.33026 0 0 .33026 -150.616 918.182)">
      <rect width="15" height="16.625" x="463.743" y="368.495" fill="#fdf7eb" stroke="url(#k)" stroke-linecap="round" stroke-linejoin="round" rx="2.625" ry="2.625"/>
      <path fill="url(#l)" stroke="url(#m)" stroke-linecap="round" stroke-linejoin="round" d="m 463.24874,374.64819 28.07551,0 c 1.45425,0 2.625,1.17075 2.625,2.625 l 0,11.29376 c 0,1.45425 -1.22088,2.24642 -2.625,2.625 l -28.07551,7.56983 c -1.40411,0.37858 -2.625,-1.17075 -2.625,-2.625 l 0,-18.86359 c 0,-1.45425 1.17075,-2.625 2.625,-2.625 z"/>
      <path fill="none" stroke="url(#n)" d="m 462.26171,374.64819 20.09375,0"/>
    </g>
    <g stroke="#694337" stroke-width="3.584">
      <path fill="url(#o)" stroke-linecap="round" stroke-linejoin="round" d="M384.25 439.175H395.125V450.05H384.25z" transform="matrix(.27903 0 0 .27903 -99.722 917.274)"/>
      <path fill="url(#p)" stroke-linecap="round" stroke-linejoin="round" d="M395.125 439.175H406V450.05H395.125z" transform="matrix(.27903 0 0 .27903 -99.722 917.274)"/>
      <path fill="url(#q)" stroke-linecap="round" stroke-linejoin="round" d="M384.25 450.05H395.125V460.925H384.25z" transform="matrix(.27903 0 0 .27903 -99.722 917.274)"/>
      <path fill="url(#r)" stroke-linecap="round" stroke-linejoin="round" d="M395.125 450.05H406V460.925H395.125z" transform="matrix(.27903 0 0 .27903 -99.722 917.274)"/>
      <path fill="none" d="m359.716 450.04 30.582 0M375.008 434.749l0 30.582" transform="matrix(.27903 0 0 .27903 -94.142 917.274)"/>
    </g>
    <g mask="url(#s)" transform="matrix(.33026 0 0 .33026 -150.616 918.182)">
      <rect width="29.136" height="22.649" x="860.685" y="542.897" stroke="#000" stroke-linecap="round" stroke-linejoin="round" stroke-width="2.38" filter="url(#t)" opacity=".5" rx="2.625" ry="3.718" transform="matrix(1 0 -.70828 .70593 0 0)"/>
    </g>
    <rect width="10.065" height="7.06" x="1054.87" y="1480.185" fill="url(#u)" stroke="url(#v)" stroke-linecap="round" stroke-linejoin="round" stroke-width="1.19" rx=".867" ry="1.228" transform="skewX(-45.095) scale(1 .70593)"/>
  </g>
</svg>
