<svg xmlns="http://www.w3.org/2000/svg" xmlns:xlink="http://www.w3.org/1999/xlink" width="16" height="16">
  <defs>
    <linearGradient id="h">
      <stop offset="0" stop-color="#ad8e5f"/>
      <stop offset="1" stop-color="#8f6e4d"/>
    </linearGradient>
    <linearGradient id="g">
      <stop offset="0" stop-color="#ad8e5f"/>
      <stop offset="1" stop-color="#8f6e4d"/>
    </linearGradient>
    <linearGradient id="f">
      <stop offset="0" stop-color="#f0a53b"/>
      <stop offset=".269" stop-color="#f2d58f"/>
      <stop offset=".604" stop-color="#efb965"/>
      <stop offset="1" stop-color="#df9833"/>
    </linearGradient>
    <linearGradient id="b">
      <stop offset="0" stop-color="#f4d684"/>
      <stop offset=".25" stop-color="#fcf4c6"/>
      <stop offset=".5" stop-color="#fbeebc"/>
      <stop offset="1" stop-color="#eeb960"/>
    </linearGradient>
    <linearGradient id="d">
      <stop offset="0" stop-color="#e4a239"/>
      <stop offset="1" stop-color="#fada7d"/>
    </linearGradient>
    <linearGradient id="c">
      <stop offset="0" stop-color="#fef48d"/>
      <stop offset=".325" stop-color="#fffffe"/>
      <stop offset=".664" stop-color="#fffffe"/>
      <stop offset="1" stop-color="#fef48d"/>
    </linearGradient>
    <linearGradient id="e">
      <stop offset="0" stop-color="#bbb8bb"/>
      <stop offset=".25" stop-color="#ccc8cb"/>
      <stop offset=".5" stop-color="#bdb6bc"/>
      <stop offset="1" stop-color="#9b8c98"/>
    </linearGradient>
    <linearGradient id="a">
      <stop offset="0" stop-color="#906f4e"/>
      <stop offset="1" stop-color="#dfbd7f"/>
    </linearGradient>
    <linearGradient xlink:href="#a" id="i" x1="29.715" x2="29.715" y1="1041.326" y2="1039.139" gradientTransform="translate(0 -.012)" gradientUnits="userSpaceOnUse"/>
    <linearGradient xlink:href="#b" id="j" x1="27.01" x2="32.177" y1="1046.132" y2="1046.132" gradientUnits="userSpaceOnUse"/>
    <linearGradient xlink:href="#c" id="m" x1="26.881" x2="32.472" y1="1056.969" y2="1056.969" gradientUnits="userSpaceOnUse"/>
    <linearGradient xlink:href="#d" id="n" x1="25.982" x2="33.276" y1="1056.969" y2="1056.969" gradientUnits="userSpaceOnUse"/>
    <linearGradient xlink:href="#e" id="o" x1="26.452" x2="32.842" y1="1052.004" y2="1052.004" gradientUnits="userSpaceOnUse"/>
    <linearGradient xlink:href="#f" id="k" x1="26.107" x2="33.163" y1="1045.95" y2="1045.95" gradientUnits="userSpaceOnUse"/>
    <linearGradient xlink:href="#g" id="p" x1="25.367" x2="33.89" y1="1051.407" y2="1051.407" gradientUnits="userSpaceOnUse"/>
    <linearGradient xlink:href="#h" id="l" x1="25.368" x2="33.89" y1="1054.82" y2="1054.82" gradientUnits="userSpaceOnUse"/>
  </defs>
  <path fill="none" stroke="url(#i)" stroke-width="1.07" d="m 28.565245,1040.0695 -1.069887,2.1398 4.279549,0 -1.069887,-2.1398 c -0.472828,-0.9477 -1.844257,-0.7625 -2.139775,0 z" transform="rotate(45 1192.16 471.599) scale(.93468)"/>
  <path fill="url(#j)" stroke="url(#k)" d="m 26.607269,1042.2428 c 1.259438,-1.6377 4.858466,-1.5046 6.055728,0 l 0,8.5925 -6.055728,0 z" transform="rotate(45 1192.16 471.599) scale(.93468)"/>
  <path fill="#496da1" d="m 29.411544,1042.9075 c -0.368467,0.01 -0.72715,0.043 -1.069887,0.1003 l 0,2.4073 c 0.342737,-0.057 0.70142,-0.09 1.069887,-0.1003 z" color="#000" font-family="Sans" font-weight="400" overflow="visible" style="text-indent:0;text-align:start;line-height:normal;text-transform:none;block-progression:tb;marker:none;-inkscape-font-specification:Sans" transform="rotate(45 1192.16 471.599) scale(.93468)"/>
  <path fill="#ffffc9" stroke="url(#l)" d="m 29.645582,1053.51 c -1.546954,0 -3.096933,0.3554 -3.778039,1.0365 l 0,0.5683 c 1.362214,1.3622 6.178977,1.3438 7.522644,0 l 0,-0.5683 c -0.671834,-0.6719 -2.197651,-1.0342 -3.744605,-1.0365 z" transform="rotate(45 1192.16 471.599) scale(.93468)"/>
  <path fill="url(#m)" stroke="url(#n)" stroke-width=".88" d="m 26.422196,1052.4196 0,12.1257 6.413338,0 0,-12.1257 z" transform="rotate(45 1192.16 471.599) scale(.93468)"/>
  <path fill="url(#o)" stroke="url(#p)" stroke-linejoin="round" stroke-miterlimit="3" d="m 25.867543,1050.1666 0,4.3799 c 1.778049,-1.9187 5.89609,-1.8666 7.522644,0 l 0,-4.3799 c -1.258456,-2.537 -6.051006,-2.5281 -7.522644,0 z" transform="rotate(45 1192.16 471.599) scale(.93468)"/>
</svg>
