<svg xmlns="http://www.w3.org/2000/svg" xmlns:xlink="http://www.w3.org/1999/xlink" width="16" height="16">
  <defs>
    <linearGradient id="d">
      <stop offset="0" stop-color="#9c6a3e"/>
      <stop offset="1" stop-color="#c48d4f"/>
    </linearGradient>
    <linearGradient id="c">
      <stop offset="0" stop-color="#9c6a3e"/>
      <stop offset="1" stop-color="#c48d4f"/>
    </linearGradient>
    <linearGradient id="b">
      <stop offset="0" stop-color="#ffffc7"/>
      <stop offset=".555" stop-color="#fff1a8"/>
      <stop offset="1" stop-color="#ffd379"/>
    </linearGradient>
    <linearGradient id="a">
      <stop offset="0" stop-color="#ffffc7"/>
      <stop offset=".555" stop-color="#fff1a8"/>
      <stop offset="1" stop-color="#ffd379"/>
    </linearGradient>
    <linearGradient xlink:href="#a" id="t" x1="-17.95" x2="-17.95" y1="1064.428" y2="1056.436" gradientTransform="matrix(-.50533 0 0 -.4143 1.182 1480.179)" gradientUnits="userSpaceOnUse"/>
    <linearGradient xlink:href="#b" id="l" x1="-17.95" x2="-17.95" y1="1064.538" y2="1056.333" gradientTransform="matrix(-.50533 0 0 -.4143 -4.8 1478.205)" gradientUnits="userSpaceOnUse"/>
    <linearGradient xlink:href="#c" id="u" x1="27.119" x2="27.119" y1="1043.289" y2="1038.868" gradientTransform="translate(-19.002)" gradientUnits="userSpaceOnUse"/>
    <linearGradient xlink:href="#d" id="m" x1="22.577" x2="22.577" y1="1041.094" y2="1037.027" gradientTransform="translate(-20)" gradientUnits="userSpaceOnUse"/>
    <linearGradient xlink:href="#e" id="y" x1="4.5" x2="4.5" y1="1044.347" y2="1045.343" gradientUnits="userSpaceOnUse"/>
    <linearGradient id="e">
      <stop offset="0" stop-color="#fff"/>
      <stop offset="1" stop-color="#fff" stop-opacity="0"/>
    </linearGradient>
    <linearGradient xlink:href="#e" id="x" x1="3" x2="4" y1="1045.862" y2="1045.862" gradientUnits="userSpaceOnUse"/>
    <linearGradient xlink:href="#f" id="w" x1="4.5" x2="4.5" y1="1044.347" y2="1045.343" gradientUnits="userSpaceOnUse"/>
    <linearGradient id="f">
      <stop offset="0" stop-color="#fff"/>
      <stop offset="1" stop-color="#fff" stop-opacity="0"/>
    </linearGradient>
    <linearGradient xlink:href="#f" id="v" x1="3" x2="4" y1="1045.862" y2="1045.862" gradientUnits="userSpaceOnUse"/>
    <linearGradient xlink:href="#g" id="n" x1="3" x2="4" y1="1045.862" y2="1045.862" gradientUnits="userSpaceOnUse"/>
    <linearGradient id="g">
      <stop offset="0" stop-color="#fff"/>
      <stop offset="1" stop-color="#fff" stop-opacity="0"/>
    </linearGradient>
    <linearGradient xlink:href="#g" id="o" x1="4.5" x2="4.5" y1="1044.347" y2="1045.343" gradientUnits="userSpaceOnUse"/>
    <linearGradient xlink:href="#h" id="p" x1="3" x2="4" y1="1045.862" y2="1045.862" gradientUnits="userSpaceOnUse"/>
    <linearGradient id="h">
      <stop offset="0" stop-color="#fff"/>
      <stop offset="1" stop-color="#fff" stop-opacity="0"/>
    </linearGradient>
    <linearGradient xlink:href="#h" id="q" x1="4.5" x2="4.5" y1="1044.347" y2="1045.343" gradientUnits="userSpaceOnUse"/>
    <linearGradient id="i">
      <stop offset="0" stop-color="#937323"/>
      <stop offset="1" stop-color="#79601d"/>
    </linearGradient>
    <linearGradient xlink:href="#i" id="z" x1="30.063" x2="30.063" y1="1034.496" y2="1040.971" gradientTransform="translate(-42.735 2.5)" gradientUnits="userSpaceOnUse"/>
    <linearGradient xlink:href="#j" id="A" x1="32.326" x2="32.326" y1="1049.994" y2="1040.736" gradientTransform="translate(-43.39 1.055)" gradientUnits="userSpaceOnUse"/>
    <linearGradient id="j">
      <stop offset="0" stop-color="#dec26f"/>
      <stop offset="1" stop-color="#fce69e"/>
    </linearGradient>
    <linearGradient xlink:href="#k" id="B" x1="29.263" x2="29.263" y1="1048.656" y2="1040.78" gradientTransform="translate(-43.39 1.055)" gradientUnits="userSpaceOnUse"/>
    <linearGradient id="k">
      <stop offset="0" stop-color="#925218"/>
      <stop offset="1" stop-color="#c1aa38"/>
    </linearGradient>
    <filter id="s" width="1.349" height="1.372" x="-.174" y="-.186">
      <feGaussianBlur stdDeviation=".98"/>
    </filter>
    <mask id="r" maskUnits="userSpaceOnUse">
      <g fill="#fff">
        <path d="m 2.6421734,1042.6833 0,5.0367 5.0367406,0 0,-5.0367 z m 1.6789131,1.6789 1.6789135,0 0,1.6789 -1.6789135,0 z" transform="matrix(.59562 0 0 .59562 5.433 421.32)"/>
        <path d="M3 1044.362H6V1047.362H3z" transform="matrix(.33334 0 0 .33333 7.007 695.246)"/>
        <path d="m3 1044.362 1 1 0 2-1 0zM3 1044.362l1 1 2 0 0-1z" opacity=".5" transform="matrix(.33334 0 0 .33333 7.007 695.246)"/>
        <path d="m 2.6421734,1042.6833 0,5.0367 5.0367406,0 0,-5.0367 z m 1.6789135,1.6912 1.6789135,0 0,1.6913 -1.6789135,0 z" transform="matrix(.59562 0 0 .59562 5.433 425.32)"/>
        <path d="M3 1044.362H6V1047.362H3z" transform="matrix(.33334 0 0 .33333 7.007 699.246)"/>
        <path d="m3 1044.362 1 1 0 2-1 0zM3 1044.362l1 1 2 0 0-1z" opacity=".5" transform="matrix(.33334 0 0 .33333 7.007 699.246)"/>
        <path d="m 3.9999997,1042.3622 1.0000146,0 0,7 -1.0000146,0 z" transform="translate(.007 -.997)"/>
        <path d="m4 1044.362 3 0 0 1-3 0zM4 1048.362l3 0 0 1-3 0z" transform="translate(.007 -.997)"/>
      </g>
    </mask>
  </defs>
  <path fill="url(#l)" stroke="url(#m)" stroke-width=".726" d="m 6.659676,1037.4355 c 0,0 0.990421,-0.074 0.990421,0.6682 l 0,2.9207 -5.268117,-0.011 0,-2.1262 0,-1.0528 c 0,-0.6447 0.29721,-1.0949 1.101781,-1.0813 l 0.452249,0 c 1.074957,0 1.827519,-0.1549 1.827519,0.6733 z" transform="translate(.998 -1036.362)"/>
  <path fill="#5c7aaa" d="m 2.6421734,1042.6833 0,5.0367 5.0367406,0 0,-5.0367 z m 1.6789131,1.6789 1.6789135,0 0,1.6789 -1.6789135,0 z" transform="matrix(.59562 0 0 .59562 6.432 -615.043)"/>
  <path fill="#91a5c7" d="M3 1044.362H6V1047.362H3z" transform="matrix(.33334 0 0 .33333 8.005 -341.116)"/>
  <path fill="url(#n)" d="m 3,1044.3622 1,1 0,2 -1,0 z" opacity=".5" transform="matrix(.33334 0 0 .33333 8.005 -341.116)"/>
  <path fill="url(#o)" d="m 3,1044.3622 1,1 2,0 0,-1 z" opacity=".5" transform="matrix(.33334 0 0 .33333 8.005 -341.116)"/>
  <path fill="#5c7aaa" d="m 2.6421734,1042.6833 0,5.0367 5.0367406,0 0,-5.0367 z m 1.6789135,1.6912 1.6789135,0 0,1.6913 -1.6789135,0 z" transform="matrix(.59562 0 0 .59562 6.432 -611.043)"/>
  <path fill="#91a5c7" d="M3 1044.362H6V1047.362H3z" transform="matrix(.33334 0 0 .33333 8.005 -337.116)"/>
  <path fill="url(#p)" d="m 3,1044.3622 1,1 0,2 -1,0 z" opacity=".5" transform="matrix(.33334 0 0 .33333 8.005 -337.116)"/>
  <path fill="url(#q)" d="m 3,1044.3622 1,1 2,0 0,-1 z" opacity=".5" transform="matrix(.33334 0 0 .33333 8.005 -337.116)"/>
  <path fill="#5c7aaa" d="m 3.9999997,1042.3622 1.0000146,0 0,7 -1.0000146,0 z" transform="translate(1.005 -1037.359)"/>
  <path fill="#5c7aaa" d="m4 1044.362 3 0 0 1-3 0zM4 1048.362l3 0 0 1-3 0z" transform="translate(1.005 -1037.359)"/>
  <g stroke="#fff" stroke-width="2" mask="url(#r)" transform="translate(0 -1036.362)">
    <g fill="#fff" filter="url(#s)" opacity=".75">
      <path d="m3.493 1044.901 2.019 0 0 1.941 1.973 0 0 2.034-1.973 0 0 1.958-2.019 0 0-1.958-1.989 0 0-2.034 1.989 0zM11.643 1039.41c0 0 .99-.074.99.668l0 2.921-5.268-.011 0-2.126 0-1.053c0-.645.297-1.095 1.102-1.081l.452 0c1.075 0 1.828-.155 1.828.673z"/>
      <g stroke-width="3.358">
        <path d="m 2.6421734,1042.6833 0,5.0367 5.0367406,0 0,-5.0367 z m 1.6789131,1.6789 1.6789135,0 0,1.6789 -1.6789135,0 z" transform="matrix(.59562 0 0 .59562 10.428 423.32)"/>
        <g stroke-width="6">
          <path d="M3 1044.362H6V1047.362H3z" transform="matrix(.33334 0 0 .33333 12.001 697.246)"/>
          <path d="m3 1044.362 1 1 0 2-1 0zM3 1044.362l1 1 2 0 0-1z" opacity=".5" transform="matrix(.33334 0 0 .33333 12.001 697.246)"/>
        </g>
      </g>
      <g stroke-width="3.358">
        <path d="m 2.6421734,1042.6833 0,5.0367 5.0367406,0 0,-5.0367 z m 1.6789135,1.6912 1.6789135,0 0,1.6913 -1.6789135,0 z" transform="matrix(.59562 0 0 .59562 10.428 427.32)"/>
        <g stroke-width="6">
          <path d="M3 1044.362H6V1047.362H3z" transform="matrix(.33334 0 0 .33333 12.001 701.246)"/>
          <path d="m3 1044.362 1 1 0 2-1 0zM3 1044.362l1 1 2 0 0-1z" opacity=".5" transform="matrix(.33334 0 0 .33333 12.001 701.246)"/>
        </g>
      </g>
      <path d="m 3.9999997,1042.3622 1.0000146,0 0,7 -1.0000146,0 z" transform="translate(5.001 1.004)"/>
      <path d="m4 1044.362 3 0 0 1-3 0zM4 1048.362l3 0 0 1-3 0z" transform="translate(5.001 1.004)"/>
    </g>
  </g>
  <path fill="url(#t)" stroke="url(#u)" stroke-width=".726" d="m 12.641843,1039.4096 c 0,0 0.990421,-0.074 0.990421,0.6682 l 0,2.9207 -5.2681208,-0.011 0,-2.1262 0,-1.0528 c 0,-0.6447 0.297209,-1.0949 1.1017815,-1.0813 l 0.4522515,0 c 1.0749588,0 1.8275198,-0.1549 1.8275198,0.6733 z" transform="translate(0 -1036.362)"/>
  <path fill="#5c7aaa" d="m 2.6421734,1042.6833 0,5.0367 5.0367406,0 0,-5.0367 z m 1.6789131,1.6789 1.6789135,0 0,1.6789 -1.6789135,0 z" transform="matrix(.59562 0 0 .59562 11.426 -613.043)"/>
  <path fill="#91a5c7" d="M3 1044.362H6V1047.362H3z" transform="matrix(.33334 0 0 .33333 13 -339.116)"/>
  <path fill="url(#v)" d="m 3,1044.3622 1,1 0,2 -1,0 z" opacity=".5" transform="matrix(.33334 0 0 .33333 13 -339.116)"/>
  <path fill="url(#w)" d="m 3,1044.3622 1,1 2,0 0,-1 z" opacity=".5" transform="matrix(.33334 0 0 .33333 13 -339.116)"/>
  <path fill="#5c7aaa" d="m 2.6421734,1042.6833 0,5.0367 5.0367406,0 0,-5.0367 z m 1.6789135,1.6912 1.6789135,0 0,1.6913 -1.6789135,0 z" transform="matrix(.59562 0 0 .59562 11.426 -609.043)"/>
  <path fill="#91a5c7" d="M3 1044.362H6V1047.362H3z" transform="matrix(.33334 0 0 .33333 13 -335.116)"/>
  <path fill="url(#x)" d="m 3,1044.3622 1,1 0,2 -1,0 z" opacity=".5" transform="matrix(.33334 0 0 .33333 13 -335.116)"/>
  <path fill="url(#y)" d="m 3,1044.3622 1,1 2,0 0,-1 z" opacity=".5" transform="matrix(.33334 0 0 .33333 13 -335.116)"/>
  <path fill="#5c7aaa" d="m 3.9999997,1042.3622 1.0000146,0 0,7 -1.0000146,0 z" transform="translate(6 -1035.359)"/>
  <path fill="#5c7aaa" d="m4 1044.362 3 0 0 1-3 0zM4 1048.362l3 0 0 1-3 0z" transform="translate(6 -1035.359)"/>
  <g transform="matrix(.60715 0 0 .60715 13.623 -623.522)">
    <path fill="none" stroke="url(#z)" stroke-width="2.471" d="m -10.059546,1045.0618 0,-2.9375 c 0,-2.7586 -1.253608,-5 -4.012192,-5 -2.758584,0 -4.162918,2.2414 -4.162918,5 l 0,2.9375" color="#000" enable-background="accumulate" font-family="Sans" font-weight="400" overflow="visible" style="line-height:normal;text-indent:0;text-align:start;text-decoration-line:none;text-transform:none;block-progression:tb;marker:none"/>
    <rect width="11.999" height="7.938" x="-19.876" y="1042.982" fill="url(#A)" rx="1.105" ry="1.105"/>
    <path fill="#a77e1c" d="M-19.393 1045.12H-8.362V1046.12H-19.393zM-19.393 1047.48H-8.362V1048.48H-19.393z" opacity=".25"/>
    <circle cx="9.48" cy="12.531" r="1.016" fill="#785b13" transform="translate(-23.39 1033.418)"/>
    <path fill="#785b13" d="M-14.44 1046.59H-13.379V1049.396H-14.44z"/>
    <rect width="11.51" height="8.229" x="-19.876" y="1042.691" fill="none" stroke="url(#B)" stroke-width="1.647" rx="1.105" ry="1.105"/>
  </g>
</svg>
