<svg xmlns="http://www.w3.org/2000/svg" xmlns:xlink="http://www.w3.org/1999/xlink" width="16" height="16">
  <defs>
    <linearGradient id="h">
      <stop offset="0" stop-color="#5f88b5"/>
      <stop offset="1" stop-color="#acbcd5"/>
    </linearGradient>
    <linearGradient id="c">
      <stop offset="0" stop-color="#f8d078"/>
      <stop offset="1" stop-color="#f8f0c8"/>
    </linearGradient>
    <linearGradient id="a">
      <stop offset="0" stop-color="#c48a4e"/>
      <stop offset="1" stop-color="#ad6c24"/>
    </linearGradient>
    <linearGradient id="b">
      <stop offset="0" stop-color="#c38536"/>
      <stop offset=".154" stop-color="#f2dc91"/>
      <stop offset=".5" stop-color="#fbdc8b"/>
      <stop offset=".75" stop-color="#e6bd7a"/>
      <stop offset="1" stop-color="#ba772f"/>
    </linearGradient>
    <linearGradient id="d">
      <stop offset="0" stop-color="#9e6627"/>
      <stop offset="1" stop-color="#c38536"/>
    </linearGradient>
    <linearGradient xlink:href="#a" id="l" x1="531.093" x2="531.093" y1="366.789" y2="371.179" gradientTransform="translate(-61.367 1.445)" gradientUnits="userSpaceOnUse"/>
    <linearGradient xlink:href="#b" id="o" x1="523.008" x2="543.914" y1="373.229" y2="373.229" gradientTransform="translate(-60.559 1.419)" gradientUnits="userSpaceOnUse"/>
    <linearGradient xlink:href="#c" id="m" x1="538.006" x2="538.006" y1="396.223" y2="374.212" gradientTransform="translate(-60.559)" gradientUnits="userSpaceOnUse"/>
    <linearGradient xlink:href="#d" id="n" x1="548.459" x2="548.459" y1="398.988" y2="373.771" gradientTransform="translate(-60.559)" gradientUnits="userSpaceOnUse"/>
    <linearGradient xlink:href="#e" id="x" x1="9.895" x2="9.895" y1="1039.153" y2="1048.147" gradientTransform="translate(-20.011 118.203) scale(.88708)" gradientUnits="userSpaceOnUse"/>
    <linearGradient id="e">
      <stop offset="0" stop-color="#f9fafc"/>
      <stop offset="1" stop-color="#dce7f7"/>
    </linearGradient>
    <linearGradient xlink:href="#f" id="y" x1="7.999" x2="8.882" y1="1042.231" y2="1041.347" gradientTransform="matrix(1.20811 0 0 1.20811 -18.104 -216.206)" gradientUnits="userSpaceOnUse"/>
    <linearGradient id="f">
      <stop offset="0" stop-color="#e0c88f"/>
      <stop offset="1" stop-color="#d5b269"/>
    </linearGradient>
    <linearGradient xlink:href="#g" id="z" x1="11.053" x2="11.053" y1="1040.287" y2="1046.287" gradientTransform="translate(-20.53 .707)" gradientUnits="userSpaceOnUse"/>
    <linearGradient id="g">
      <stop offset="0" stop-color="#b4903d"/>
      <stop offset="1" stop-color="#7f764e"/>
    </linearGradient>
    <linearGradient xlink:href="#h" id="A" x1="-30.478" x2="-27.478" y1="1045.495" y2="1045.495" gradientTransform="translate(37.955)" gradientUnits="userSpaceOnUse"/>
    <linearGradient id="i">
      <stop offset="0" stop-color="#5f88b5"/>
      <stop offset="1" stop-color="#acbcd5"/>
    </linearGradient>
    <linearGradient xlink:href="#i" id="B" x1="-30.478" x2="-27.478" y1="1045.495" y2="1045.495" gradientTransform="translate(37.955 -2)" gradientUnits="userSpaceOnUse"/>
    <linearGradient id="j">
      <stop offset="0" stop-color="#f8d078"/>
      <stop offset="1" stop-color="#f8f0c8"/>
    </linearGradient>
    <linearGradient id="k">
      <stop offset="0" stop-color="#9e6627"/>
      <stop offset="1" stop-color="#bc8532"/>
    </linearGradient>
    <linearGradient xlink:href="#j" id="t" x1="537.943" x2="538.833" y1="397.561" y2="381.572" gradientTransform="matrix(1.18358 0 0 1.67663 246.45 -120.646)" gradientUnits="userSpaceOnUse"/>
    <linearGradient xlink:href="#k" id="u" x1="548.459" x2="548.016" y1="398.988" y2="381.198" gradientTransform="matrix(1.18358 0 0 1.67663 246.45 -120.646)" gradientUnits="userSpaceOnUse"/>
    <filter id="s" width="1.275" height="1.755" x="-.138" y="-.377" color-interpolation-filters="sRGB">
      <feGaussianBlur stdDeviation="3.562"/>
    </filter>
    <filter id="q" width="1.18" height="1.361" x="-.09" y="-.18">
      <feGaussianBlur stdDeviation="1.273"/>
    </filter>
    <filter id="w" width="1.256" height="1.226" x="-.128" y="-.113">
      <feGaussianBlur stdDeviation="1.341"/>
    </filter>
    <mask id="r" maskUnits="userSpaceOnUse"/>
    <mask id="p" maskUnits="userSpaceOnUse">
      <g fill="#fff" stroke="#fff" stroke-width="3.028" transform="matrix(1.18358 0 0 1.18358 -75.635 -78)">
        <rect width="15" height="16.625" x="463.743" y="368.495" stroke-linecap="round" stroke-linejoin="round" rx="2.625" ry="2.625"/>
        <path stroke-linecap="round" stroke-linejoin="round" d="m 463.24874,374.64819 28.07551,0 c 1.45425,0 2.625,1.17075 2.625,2.625 l 0,11.29376 c 0,1.45425 -1.22088,2.24642 -2.625,2.625 l -28.07551,7.56983 c -1.40411,0.37858 -2.625,-1.17075 -2.625,-2.625 l 0,-18.86359 c 0,-1.45425 1.17075,-2.625 2.625,-2.625 z"/>
        <path d="m 462.26171,374.64819 20.09375,0"/>
      </g>
    </mask>
    <mask id="v" maskUnits="userSpaceOnUse">
      <g fill="#fff" stroke="#fff">
        <g stroke-width="3.028" transform="matrix(1.18358 0 0 1.18358 -75.635 -85.168)">
          <rect width="15" height="16.625" x="463.743" y="368.495" stroke-linecap="round" stroke-linejoin="round" rx="2.625" ry="2.625"/>
          <path stroke-linecap="round" stroke-linejoin="round" d="m 463.24874,374.64819 28.07551,0 c 1.45425,0 2.625,1.17075 2.625,2.625 l 0,11.29376 c 0,1.45425 -1.22088,2.24642 -2.625,2.625 l -28.07551,7.56983 c -1.40411,0.37858 -2.625,-1.17075 -2.625,-2.625 l 0,-18.86359 c 0,-1.45425 1.17075,-2.625 2.625,-2.625 z"/>
          <path d="m 462.26171,374.64819 20.09375,0"/>
        </g>
        <rect width="36.07" height="25.302" x="857.606" y="522.711" stroke-linecap="round" stroke-linejoin="round" stroke-width="4.265" rx="3.107" ry="4.401" transform="skewX(-45.095) scale(1 .70593)"/>
      </g>
    </mask>
  </defs>
  <g transform="matrix(.27903 0 0 .27903 -129.512 -96.416)">
    <g stroke-width="3.028" transform="matrix(1.18358 0 0 1.18358 -75.635 -85.168)">
      <rect width="15" height="16.625" x="463.743" y="368.495" fill="#fdf7eb" stroke="url(#l)" stroke-linecap="round" stroke-linejoin="round" rx="2.625" ry="2.625"/>
      <path fill="url(#m)" stroke="url(#n)" stroke-linecap="round" stroke-linejoin="round" d="m 463.24874,374.64819 28.07551,0 c 1.45425,0 2.625,1.17075 2.625,2.625 l 0,11.29376 c 0,1.45425 -1.22088,2.24642 -2.625,2.625 l -28.07551,7.56983 c -1.40411,0.37858 -2.625,-1.17075 -2.625,-2.625 l 0,-18.86359 c 0,-1.45425 1.17075,-2.625 2.625,-2.625 z"/>
      <path fill="none" stroke="url(#o)" d="m 462.26171,374.64819 20.09375,0"/>
    </g>
    <g mask="url(#p)" transform="translate(0 -7.168)">
      <g stroke-width="7.168" filter="url(#q)" opacity=".75">
        <g fill="#fff" stroke="#fff" stroke-width="6.056" font-family="Gautami" font-size="10" font-weight="400" letter-spacing="0" word-spacing="0">
          <path d="M507.202 407.585c0 1.931-.289 3.515-.868 4.749-.667 1.432-1.632 2.148-2.896 2.148-1.264 0-2.231-.716-2.903-2.148-.583-1.234-.875-2.818-.875-4.749 0-1.932.292-3.515.875-4.749.671-1.432 1.639-2.148 2.903-2.148 1.264 0 2.229.716 2.896 2.148.579 1.234.868 2.818.868 4.749zm-1.222 0c0-1.393-.211-2.585-.632-3.577-.477-1.117-1.113-1.675-1.91-1.675-.801 0-1.44.558-1.917 1.675-.426.992-.639 2.184-.639 3.577 0 1.393.213 2.585.639 3.577.477 1.116 1.116 1.675 1.917 1.675.796 0 1.433-.559 1.91-1.675.421-.992.632-2.184.632-3.577zM516.577 400.32l0 14.313-2.111 0 0-11.678-1.356 1.236-1.238-1.236 2.866-2.635zM528.378 407.585c0 1.931-.289 3.515-.868 4.749-.667 1.432-1.632 2.148-2.896 2.148-1.264 0-2.231-.716-2.903-2.148-.583-1.234-.875-2.818-.875-4.749 0-1.932.292-3.515.875-4.749.671-1.432 1.639-2.148 2.903-2.148 1.264 0 2.229.716 2.896 2.148.579 1.234.868 2.818.868 4.749zm-1.222 0c0-1.393-.211-2.585-.632-3.577-.477-1.117-1.113-1.675-1.91-1.675-.801 0-1.44.558-1.917 1.675-.426.992-.639 2.184-.639 3.577 0 1.393.213 2.585.639 3.577.477 1.116 1.116 1.675 1.917 1.675.796 0 1.433-.559 1.91-1.675.421-.992.632-2.184.632-3.577z" style="text-align:start;line-height:125%;-inkscape-font-specification:Gautami" transform="matrix(1.18358 0 0 1.18358 -108.398 -120.78)"/>
        </g>
      </g>
    </g>
    <g mask="url(#r)" transform="matrix(1.18358 0 0 1.18358 -75.635 -85.168)">
      <rect width="29.136" height="22.649" x="860.685" y="542.897" stroke="#000" stroke-linecap="round" stroke-linejoin="round" stroke-width="2.38" filter="url(#s)" opacity=".5" rx="2.625" ry="3.718" transform="matrix(1 0 -.70828 .70593 0 0)"/>
    </g>
    <g fill="#17325d" stroke="#17325d" font-family="Gautami" font-size="10" font-weight="400" letter-spacing="0" word-spacing="0">
      <path stroke-width="1.453" d="m 507.20223,407.58531 c -10e-6,1.93122 -0.28935,3.51482 -0.86803,4.74901 -0.66666,1.43221 -1.63191,2.14831 -2.89577,2.14831 -1.26386,0 -2.23142,-0.7161 -2.9027,-2.14831 -0.58332,-1.23419 -0.87498,-2.81779 -0.87498,-4.74901 0,-1.93151 0.29165,-3.51482 0.87498,-4.74931 0.67128,-1.43221 1.63884,-2.14801 2.9027,-2.14831 1.26386,3e-4 2.22911,0.7161 2.89577,2.14831 0.57868,1.23449 0.86802,2.8178 0.86803,4.74931 z m -1.22219,0 c -10e-6,-1.39254 -0.21062,-2.58524 -0.63193,-3.57689 -0.47685,-1.1167 -1.1134,-1.67475 -1.90968,-1.67475 -0.80091,0 -1.43978,0.55805 -1.91662,1.67475 -0.42591,0.99165 -0.63887,2.18435 -0.63887,3.57689 0,1.39255 0.21296,2.58464 0.63887,3.5769 0.47684,1.11639 1.11571,1.67505 1.91662,1.67505 0.79628,0 1.43283,-0.55866 1.90968,-1.67505 0.42128,-0.99226 0.63192,-2.18435 0.63193,-3.5769 z" style="text-align:start;line-height:125%;-inkscape-font-specification:Gautami" transform="matrix(1.18358 0 0 1.18358 -108.398 -127.947)"/>
      <path stroke-width=".898" d="m 516.57685,400.3201 0,14.31302 -2.11103,0 0,-11.67812 -1.35625,1.236 -1.23831,-1.236 2.86581,-2.6349 z" style="text-align:start;line-height:125%;-inkscape-font-specification:Gautami" transform="matrix(1.18358 0 0 1.18358 -108.398 -127.947)"/>
      <path stroke-width="1.453" d="m 528.37837,407.58531 c -10e-6,1.93122 -0.28935,3.51482 -0.86803,4.74901 -0.66666,1.43221 -1.63191,2.14831 -2.89577,2.14831 -1.26386,0 -2.23143,-0.7161 -2.9027,-2.14831 -0.58332,-1.23419 -0.87498,-2.81779 -0.87498,-4.74901 0,-1.93151 0.29165,-3.51482 0.87498,-4.74931 0.67127,-1.43221 1.63884,-2.14801 2.9027,-2.14831 1.26386,3e-4 2.22911,0.7161 2.89577,2.14831 0.57868,1.23449 0.86802,2.8178 0.86803,4.74931 z m -1.22219,0 c -10e-6,-1.39254 -0.21062,-2.58524 -0.63193,-3.57689 -0.47685,-1.1167 -1.11341,-1.67475 -1.90968,-1.67475 -0.80091,0 -1.43978,0.55805 -1.91662,1.67475 -0.42591,0.99165 -0.63887,2.18435 -0.63887,3.57689 0,1.39255 0.21296,2.58464 0.63887,3.5769 0.47684,1.11639 1.11571,1.67505 1.91662,1.67505 0.79627,0 1.43283,-0.55866 1.90968,-1.67505 0.42128,-0.99226 0.63192,-2.18435 0.63193,-3.5769 z" style="text-align:start;line-height:125%;-inkscape-font-specification:Gautami" transform="matrix(1.18358 0 0 1.18358 -108.398 -127.947)"/>
    </g>
    <rect width="36.07" height="25.302" x="857.606" y="522.711" fill="url(#t)" stroke="url(#u)" stroke-linecap="round" stroke-linejoin="round" stroke-width="4.265" rx="3.107" ry="4.401" transform="skewX(-45.095) scale(1 .70593)"/>
    <g fill="#fff" stroke="#fff" stroke-width="5.376" filter="url(#w)" mask="url(#v)" opacity=".75">
      <g stroke-width="1.5">
        <path d="m -12.290193,1040.9745 3.4129851,-0.082 2.677089,2.0398 -0.106343,4.7811 -5.9935941,-0.075 z" transform="matrix(3.5838 0 0 3.5838 516.03 -3356.516)"/>
        <path d="m -8.4678309,1040.7654 0,2.3089 2.3890165,0 z" transform="matrix(3.5838 0 0 3.5838 516.03 -3356.516)"/>
        <path d="m -12.477693,1040.0594 0,0.5 -0.0099,6.9249 0,0.5 0.5,0 6.0098631,0.01 0.5,0 0,-0.5 0.0099,-4.6765 0,-0.2187 -0.15625,-0.125 -2.0625,-2.2682 -0.125,-0.1563 -0.21875,0 -3.9473631,0.01 z m 1,1 3.2598631,-0.01 1.75,1.987 -0.0099,3.9577 -5.0098631,-0.01 z" color="#000" enable-background="accumulate" font-family="Sans" font-weight="400" overflow="visible" style="text-indent:0;text-align:start;line-height:normal;text-transform:none;block-progression:tb;marker:none;-inkscape-font-specification:Sans" transform="matrix(3.5838 0 0 3.5838 516.03 -3356.516)"/>
        <path d="M7.478 1044.995H10.478V1045.995H7.478zM8.478 1042.995H10.478V1043.995H8.478z" transform="matrix(-3.5838 0 0 3.5838 516.03 -3356.516)"/>
      </g>
    </g>
    <path fill="url(#x)" d="m -12.290193,1040.9745 3.4129851,-0.082 2.677089,2.0398 -0.106343,4.7811 -5.9935941,-0.075 z" transform="matrix(3.5838 0 0 3.5838 516.03 -3356.516)"/>
    <path fill="url(#y)" d="m -8.4678309,1040.7654 0,2.3089 2.3890165,0 z" transform="matrix(3.5838 0 0 3.5838 516.03 -3356.516)"/>
    <path fill="url(#z)" d="m -12.477693,1040.0594 0,0.5 -0.0099,6.9249 0,0.5 0.5,0 6.0098631,0.01 0.5,0 0,-0.5 0.0099,-4.6765 0,-0.2187 -0.15625,-0.125 -2.0625,-2.2682 -0.125,-0.1563 -0.21875,0 -3.9473631,0.01 z m 1,1 3.2598631,-0.01 1.75,1.987 -0.0099,3.9577 -5.0098631,-0.01 z" color="#000" enable-background="accumulate" font-family="Sans" font-weight="400" overflow="visible" style="text-indent:0;text-align:start;line-height:normal;text-transform:none;block-progression:tb;marker:none;-inkscape-font-specification:Sans" transform="matrix(3.5838 0 0 3.5838 516.03 -3356.516)"/>
    <path fill="url(#A)" d="M7.478 1044.995H10.478V1045.995H7.478z" transform="matrix(-3.5838 0 0 3.5838 516.03 -3356.516)"/>
    <path fill="url(#B)" d="M8.478 1042.995H10.478V1043.995H8.478z" transform="matrix(-3.5838 0 0 3.5838 516.03 -3356.516)"/>
  </g>
</svg>
