<svg xmlns="http://www.w3.org/2000/svg" width="16" height="16">
  <g letter-spacing="0" word-spacing="0">
    <g fill="#fff" font-family="Sans" font-size="13.589" font-weight="400">
      <g style="line-height:125%">
        <path stroke="#797979" stroke-linecap="round" stroke-linejoin="round" stroke-width="1.492" d="m 397.08368,468.23718 c 0,4.94775 -4.01094,8.95868 -8.95868,8.95868 -4.94774,0 -8.95868,-4.01093 -8.95868,-8.95868 0,-4.94774 4.01094,-8.95868 8.95868,-8.95868 4.94774,0 8.95868,4.01094 8.95868,8.95868 z" transform="matrix(.66884 0 0 .6714 -252.07 -306.85)"/>
      </g>
    </g>
    <path fill="#959595" d="m 9.9582435,1043.873 c -0.068736,-0.4207 -0.2258257,-0.7375 -0.4712765,-0.9505 -0.2405524,-0.2129 -0.5547364,-0.3192 -0.9425527,-0.3192 -0.5154625,0 -0.927829,0.185 -1.2371006,0.5551 -0.3043689,0.3648 -0.4565517,0.6031 -0.4565489,1.4648 -2.8e-6,0.958 0.1546346,1.3845 0.4639127,1.7799 0.3141807,0.3954 0.7339108,0.593 1.2591915,0.593 0.3927255,0 0.7142731,-0.114 0.9646439,-0.3422 0.2503599,-0.2332 0.4270885,-0.6309 0.5301861,-1.1937 l 2.032379,-0.017 c -0.211101,0.9629 -0.616102,2.0653 -1.215009,2.557 -0.598921,0.4917 -1.401562,0.7374 -2.407928,0.7374 -1.1438303,0 -2.0569271,-0.3724 -2.7392935,-1.1176 -0.6774613,-0.7449 -1.0161905,-1.5264 -1.0161905,-2.8443 0,-1.333 0.3411837,-1.9946 1.0235539,-2.7344 0.6823664,-0.7452 1.6052818,-1.1177 2.7687486,-1.1177 0.9523657,0 1.7083715,0.2129 2.2680175,0.6387 0.564543,0.4205 1.032045,1.4081 1.277509,2.2745 z" font-family="Arial" font-size="15.569" font-weight="700" style="line-height:125%;-inkscape-font-specification:Arial Bold" transform="translate(-1.016 -1037.334)"/>
  </g>
</svg>
