<?xml version="1.0" encoding="UTF-8" standalone="no"?>
<svg
   width="16"
   height="16"
   version="1.1"
   id="svg29"
   xmlns:xlink="http://www.w3.org/1999/xlink"
   xmlns="http://www.w3.org/2000/svg"
   xmlns:svg="http://www.w3.org/2000/svg">
  <defs
     id="defs20">
    <linearGradient
       id="g">
      <stop
         offset="0"
         stop-color="#146d39"
         id="stop1" />
      <stop
         offset="1"
         stop-color="#359b58"
         id="stop2" />
    </linearGradient>
    <linearGradient
       id="f">
      <stop
         offset="0"
         stop-color="#96b956"
         id="stop3" />
      <stop
         offset=".267"
         stop-color="#c6d560"
         id="stop4" />
      <stop
         offset=".517"
         stop-color="#cfdc63"
         id="stop5" />
      <stop
         offset="1"
         stop-color="#abca52"
         id="stop6" />
    </linearGradient>
    <linearGradient
       xlink:href="#a"
       id="j"
       x1="9.895"
       x2="9.895"
       y1="1039.153"
       y2="1051.838"
       gradientTransform="translate(13.363 -2.49)"
       gradientUnits="userSpaceOnUse" />
    <linearGradient
       id="a">
      <stop
         offset="0"
         stop-color="#f9fafc"
         id="stop7" />
      <stop
         offset="1"
         stop-color="#dce7f7"
         id="stop8" />
    </linearGradient>
    <linearGradient
       xlink:href="#b"
       id="k"
       x1="7.999"
       x2="9.987"
       y1="1042.231"
       y2="1040.33"
       gradientTransform="translate(17.363 -2.49)"
       gradientUnits="userSpaceOnUse" />
    <linearGradient
       id="b">
      <stop
         offset="0"
         stop-color="#e0c88f"
         id="stop9" />
      <stop
         offset="1"
         stop-color="#d5b269"
         id="stop10" />
    </linearGradient>
    <linearGradient
       id="c">
      <stop
         offset="0"
         stop-color="#b28a30"
         id="stop11" />
      <stop
         offset="1"
         stop-color="#7f703d"
         id="stop12" />
    </linearGradient>
    <linearGradient
       xlink:href="#c"
       id="l"
       x1="10.545"
       x2="10.545"
       y1="1038.578"
       y2="1052.323"
       gradientTransform="translate(13.363 -2.49)"
       gradientUnits="userSpaceOnUse" />
    <linearGradient
       id="d">
      <stop
         offset="0"
         stop-color="#96b956"
         id="stop13" />
      <stop
         offset=".267"
         stop-color="#c6d560"
         id="stop14" />
      <stop
         offset=".517"
         stop-color="#cfdc63"
         id="stop15" />
      <stop
         offset="1"
         stop-color="#abca52"
         id="stop16" />
    </linearGradient>
    <linearGradient
       id="e">
      <stop
         offset="0"
         stop-color="#146d39"
         id="stop17" />
      <stop
         offset="1"
         stop-color="#359b58"
         id="stop18" />
    </linearGradient>
    <linearGradient
       xlink:href="#d"
       id="m"
       x1="12.339"
       x2="12.339"
       y1="1043.051"
       y2="1048.051"
       gradientTransform="matrix(1 0 0 -1 -6.266 2088.63)"
       gradientUnits="userSpaceOnUse" />
    <linearGradient
       xlink:href="#e"
       id="n"
       x1="11.339"
       x2="11.339"
       y1="1064.051"
       y2="1067.051"
       gradientTransform="matrix(1 0 0 -1 -6.266 2108.63)"
       gradientUnits="userSpaceOnUse" />
    <linearGradient
       xlink:href="#f"
       id="o"
       x1="12.339"
       x2="12.339"
       y1="1043.051"
       y2="1048.051"
       gradientTransform="matrix(1 0 0 -1 -6.266 2088.63)"
       gradientUnits="userSpaceOnUse" />
    <linearGradient
       xlink:href="#g"
       id="p"
       x1="11.339"
       x2="11.339"
       y1="1064.051"
       y2="1067.051"
       gradientTransform="matrix(1 0 0 -1 -6.266 2108.63)"
       gradientUnits="userSpaceOnUse" />
    <filter
       id="i"
       width="1.4690658"
       height="1.5106501"
       x="-0.22130619"
       y="-0.25532487">
      <feGaussianBlur
         stdDeviation=".658"
         id="feGaussianBlur18" />
    </filter>
    <mask
       id="h"
       maskUnits="userSpaceOnUse">
      <g
         fill="#fff"
         id="g20">
        <path
           d="M48.178-1022.267H58.178V-1017.267H48.178z"
           transform="translate(-46.178 2068.63)"
           id="path18" />
        <path
           d="M49.178-1021.267H57.178V-1018.267H49.178z"
           transform="translate(-46.178 2068.63)"
           id="path19" />
        <path
           d="M50.178-1020.267H51.178V-1019.267H50.178zM52.178-1020.267H56.178V-1019.267H52.178z"
           transform="translate(-46.178 2068.63)"
           id="path20" />
      </g>
    </mask>
  </defs>
  <g
     mask="url(#h)"
     transform="translate(0 -1036.362)"
     id="g23">
    <g
       fill="#fff"
       stroke="#fff"
       filter="url(#i)"
       opacity=".75"
       id="g22">
      <path
         d="m 1.519236,1046.6559 -0.816057,-1.9944 0.88243,-2.3985 3.398198,0.051 0,-1.5313 3.781143,2.432 -3.781143,3.0027 0,-1.5156 -2.544844,0 z"
         id="path21" />
      <path
         d="m 3.983807,1046.8197 0,-1.5156 -0.07965,0 c -1.711191,0 -1.966823,1.3618 -1.966823,2.1381 l -1,0 C -1,1044.3622 0.322768,1041.316 2.848119,1041.2907 l 1.135685,0.023 0,-1.5313 c 0,-0.6519 0.740915,-0.6375 1.5,0 l 3.923255,3.4983 -3.923255,3.5386 c -0.760225,0.7602 -1.5,0.5203 -1.5,0 z m 1,-1 2.985755,-2.5386 -2.985755,-2.4983 0,1.5313 -2.12809,0.07 c -1.65655,0 -2.276462,2.3386 -1.391431,3.4245 0.477391,-0.9138 0.93524,-1.5048 2.407536,-1.5048 l 1.111985,0 z"
         id="path22" />
    </g>
  </g>
  <path
     fill="url(#j)"
     d="m 18.86024,1036.4114 7.00967,0 3.062057,3.0066 0,9.9546 -10.071727,0 z"
     transform="translate(-17.33 -1035.889)"
     id="path23" />
  <path
     fill="url(#k)"
     d="m 25.339579,1035.9487 0,3.9112 3.977478,0 z"
     transform="translate(-17.33 -1035.889)"
     id="path24" />
  <path
     fill="none"
     stroke="url(#l)"
     d="m 18.86024,1036.4114 6.94717,0 3.062057,3.0066 0,9.9546 -10.009227,0 z"
     transform="translate(-17.33 -1035.889)"
     id="path25" />
  <path
     fill="url(#m)"
     d="m 1.519236,1046.6559 -0.816057,-1.9944 0.88243,-2.3985 3.398198,0.051 0,-1.5313 3.781143,2.432 -3.781143,3.0027 0,-1.5156 -2.544844,0 z"
     transform="translate(4.009 -1034.184)"
     id="path26" />
  <path
     fill="url(#n)"
     d="m 3.983807,1046.8197 0,-1.5156 -0.07965,0 c -1.711191,0 -1.9036885,1.2987 -1.9036885,2.075 l -1,0 c -1.93733397,-3.08 -0.6777005,-6.0631 1.8476505,-6.0884 l 1.135685,0.023 0,-1.5313 c 0,-0.6519 0.740915,-0.6375 1.5,0 l 3.923255,3.4983 -3.923255,3.5386 c -0.760225,0.7602 -1.5,0.5203 -1.5,0 z m 1,-1 2.985755,-2.5386 -2.985755,-2.4983 0,1.5313 -2.12809,0.07 c -1.65655,0 -2.276462,2.3386 -1.391431,3.4245 0.477391,-0.9138 0.93524,-1.5048 2.407536,-1.5048 l 1.111985,0 z"
     transform="translate(4.009 -1034.184)"
     id="path27" />
  <path
     fill="url(#o)"
     d="m 1.519236,1046.6559 -0.816057,-1.9944 0.88243,-2.3985 3.398198,0.051 0,-1.5313 3.781143,2.432 -3.781143,3.0027 0,-1.5156 -2.544844,0 z"
     transform="translate(6.945 -1032.195)"
     id="path28" />
  <path
     fill="url(#p)"
     d="m 3.983807,1046.8197 0,-1.5156 -0.07965,0 c -1.711191,0 -1.9036885,1.2987 -1.9036885,2.075 l -1,0 c -1.93733397,-3.08 -0.6777005,-6.0631 1.8476505,-6.0884 l 1.135685,0.023 0,-1.5313 c 0,-0.6519 0.740915,-0.6375 1.5,0 l 3.923255,3.4983 -3.923255,3.5386 c -0.760225,0.7602 -1.5,0.5203 -1.5,0 z m 1,-1 2.985755,-2.5386 -2.985755,-2.4983 0,1.5313 -2.12809,0.07 c -1.65655,0 -2.276462,2.3386 -1.391431,3.4245 0.477391,-0.9138 0.93524,-1.5048 2.407536,-1.5048 l 1.111985,0 z"
     transform="translate(6.945 -1032.195)"
     id="path29" />
</svg>
