<svg xmlns="http://www.w3.org/2000/svg" xmlns:xlink="http://www.w3.org/1999/xlink" width="16" height="16">
  <defs>
    <linearGradient id="h">
      <stop offset="0" stop-color="#6491ac"/>
      <stop offset="1" stop-color="#125f9a"/>
    </linearGradient>
    <linearGradient id="g">
      <stop offset="0" stop-color="#7a99bb"/>
      <stop offset=".5" stop-color="#b7dec8"/>
      <stop offset=".625" stop-color="#b7dec8"/>
      <stop offset="1" stop-color="#92b5c0"/>
    </linearGradient>
    <linearGradient id="e">
      <stop offset="0" stop-color="#713e1e"/>
      <stop offset=".182" stop-color="#925321"/>
      <stop offset=".364" stop-color="#945829"/>
      <stop offset=".5" stop-color="#703b18"/>
      <stop offset=".636" stop-color="#945829"/>
      <stop offset=".818" stop-color="#925321"/>
      <stop offset="1" stop-color="#713e1e"/>
    </linearGradient>
    <linearGradient id="a">
      <stop offset="0" stop-color="#faefba"/>
      <stop offset="1" stop-color="#9e6542"/>
    </linearGradient>
    <linearGradient id="b">
      <stop offset="0" stop-color="#faefba"/>
      <stop offset="1" stop-color="#9e6542"/>
    </linearGradient>
    <linearGradient id="c">
      <stop offset="0" stop-color="#faefba"/>
      <stop offset="1" stop-color="#9e6542"/>
    </linearGradient>
    <linearGradient id="d">
      <stop offset="0" stop-color="#faefba"/>
      <stop offset="1" stop-color="#9e6542"/>
    </linearGradient>
    <linearGradient xlink:href="#e" id="m" x1="355.295" x2="394.717" y1="449.881" y2="449.881" gradientUnits="userSpaceOnUse"/>
    <linearGradient id="f">
      <stop offset="0" stop-color="#713e1e"/>
      <stop offset=".182" stop-color="#925321"/>
      <stop offset=".364" stop-color="#945829"/>
      <stop offset=".5" stop-color="#703b18"/>
      <stop offset=".636" stop-color="#945829"/>
      <stop offset=".818" stop-color="#925321"/>
      <stop offset="1" stop-color="#713e1e"/>
    </linearGradient>
    <linearGradient xlink:href="#f" id="n" x1="355.295" x2="394.717" y1="449.881" y2="449.881" gradientTransform="rotate(90 375.006 449.881)" gradientUnits="userSpaceOnUse"/>
    <linearGradient xlink:href="#g" id="q" x1="7.198" x2="15.198" y1="1044.827" y2="1044.827" gradientTransform="matrix(1 0 0 -1 -2.266 2089.64)" gradientUnits="userSpaceOnUse"/>
    <linearGradient xlink:href="#h" id="r" x1="15.198" x2="11.198" y1="1065.827" y2="1065.827" gradientTransform="matrix(1 0 0 -1 -2.266 2109.64)" gradientUnits="userSpaceOnUse"/>
    <radialGradient xlink:href="#a" id="i" cx="387.597" cy="442.578" r="6.188" fx="387.597" fy="442.578" gradientTransform="matrix(2.06065 0 0 1.80835 -433.447 -360.186)" gradientUnits="userSpaceOnUse"/>
    <radialGradient xlink:href="#b" id="j" cx="387.597" cy="442.578" r="6.188" fx="387.597" fy="442.578" gradientTransform="matrix(2.06065 0 0 1.80835 -419.135 -360.186)" gradientUnits="userSpaceOnUse"/>
    <radialGradient xlink:href="#c" id="k" cx="387.597" cy="442.578" r="6.188" fx="387.597" fy="442.578" gradientTransform="matrix(2.06065 0 0 1.80835 -433.447 -345.882)" gradientUnits="userSpaceOnUse"/>
    <radialGradient xlink:href="#d" id="l" cx="387.597" cy="442.578" r="6.188" fx="387.597" fy="442.578" gradientTransform="matrix(2.06065 0 0 1.80835 -419.135 -345.882)" gradientUnits="userSpaceOnUse"/>
    <filter id="p" width="1.336" height="1.388" x="-.168" y="-.194">
      <feGaussianBlur stdDeviation=".654"/>
    </filter>
    <mask id="o" maskUnits="userSpaceOnUse">
      <g fill="#fff" stroke="#fff" stroke-width="3.584">
        <path stroke-linecap="round" stroke-linejoin="round" d="M360.734 435.623H375.046V449.935H360.734zM375.046 435.623H389.358V449.935H375.046z" transform="matrix(.27903 0 0 .27903 -98.117 917.347)"/>
        <path stroke-linecap="round" stroke-linejoin="round" d="m 360.73376,449.79347 14.31204,0 0,14.44539 -14.31204,0 z" transform="matrix(.27903 0 0 .27903 -98.117 917.347)"/>
        <path stroke-linecap="round" stroke-linejoin="round" d="m 375.0458,449.79347 14.31204,0 0,14.44539 -14.31204,0 z" transform="matrix(.27903 0 0 .27903 -98.117 917.347)"/>
        <path d="m355.295 449.881 39.422 0M375.006 430.17l0 39.422" transform="matrix(.27903 0 0 .27903 -98.117 917.347)"/>
      </g>
    </mask>
  </defs>
  <g stroke-width="3.584">
    <path fill="url(#i)" stroke="#c37e3b" stroke-linecap="round" stroke-linejoin="round" d="M360.734 435.623H375.046V449.935H360.734z" transform="matrix(.27903 0 0 .27903 -98.117 -119.015)"/>
    <path fill="url(#j)" stroke="#c37e3b" stroke-linecap="round" stroke-linejoin="round" d="M375.046 435.623H389.358V449.935H375.046z" transform="matrix(.27903 0 0 .27903 -98.117 -119.015)"/>
    <path fill="url(#k)" stroke="#a45d2b" stroke-linecap="round" stroke-linejoin="round" d="m 360.73376,449.79347 14.31204,0 0,14.44539 -14.31204,0 z" transform="matrix(.27903 0 0 .27903 -98.117 -119.015)"/>
    <path fill="url(#l)" stroke="#a45d2b" stroke-linecap="round" stroke-linejoin="round" d="m 375.0458,449.79347 14.31204,0 0,14.44539 -14.31204,0 z" transform="matrix(.27903 0 0 .27903 -98.117 -119.015)"/>
    <path fill="none" stroke="url(#m)" d="m 355.29543,449.88141 39.42185,0" transform="matrix(.27903 0 0 .27903 -98.117 -119.015)"/>
    <path fill="none" stroke="url(#n)" d="m 375.00635,430.17048 0,39.42185" transform="matrix(.27903 0 0 .27903 -98.117 -119.015)"/>
  </g>
  <g mask="url(#o)" opacity=".75" transform="translate(0 -1036.362)">
    <g fill="#fff" stroke="#fff" stroke-width="2" filter="url(#p)" transform="translate(3.068 3.548)">
      <path d="m 5.519236,1047.6671 -0.816057,-1.9944 0.88243,-2.3985 3.398198,0.051 0,-1.5313 3.781143,2.432 -3.781143,3.0027 0,-1.5156 -2.544844,0 z"/>
      <path d="m 7.983807,1047.8309 0,-1.5156 -0.07965,0 c -1.711191,0 -1.903689,1.2987 -1.903689,2.075 l -1,0 c -1.937333,-3.08 -0.6777,-6.0631 1.847651,-6.0884 l 1.135685,0.023 0,-1.5313 c 0,-0.6519 0.740915,-0.6375 1.5,0 l 3.923255,3.4983 -3.923255,3.5386 c -0.760225,0.7602 -1.5,0.5203 -1.5,0 z m 1,-1 2.985755,-2.5386 -2.985755,-2.4983 0,1.5313 -2.12809,0.07 c -1.65655,0 -2.276462,2.3386 -1.391431,3.4245 0.477391,-0.9138 0.93524,-1.5048 2.407536,-1.5048 l 1.111985,0 z"/>
    </g>
  </g>
  <path fill="url(#q)" d="m 5.519236,1047.6671 -0.816057,-1.9944 0.88243,-2.3985 3.398198,0.051 0,-1.5313 3.781143,2.432 -3.781143,3.0027 0,-1.5156 -2.544844,0 z" transform="translate(3.068 -1032.263)"/>
  <path fill="url(#r)" d="m 7.983807,1047.8309 0,-1.5156 -0.07965,0 c -1.711191,0 -1.903689,1.2987 -1.903689,2.075 l -1,0 c -1.937333,-3.08 -0.6777,-6.0631 1.847651,-6.0884 l 1.135685,0.023 0,-1.5313 c 0,-0.6519 0.740915,-0.6375 1.5,0 l 3.923255,3.4983 -3.923255,3.5386 c -0.760225,0.7602 -1.5,0.5203 -1.5,0 z m 1,-1 2.985755,-2.5386 -2.985755,-2.4983 0,1.5313 -2.12809,0.07 c -1.65655,0 -2.276462,2.3386 -1.391431,3.4245 0.477391,-0.9138 0.93524,-1.5048 2.407536,-1.5048 l 1.111985,0 z" transform="translate(3.068 -1032.263)"/>
</svg>
