<?xml version="1.0" encoding="UTF-8" standalone="no"?>
<svg
   width="16"
   height="16"
   version="1.1"
   id="svg26"
   xmlns:xlink="http://www.w3.org/1999/xlink"
   xmlns="http://www.w3.org/2000/svg"
   xmlns:svg="http://www.w3.org/2000/svg">
  <defs
     id="defs16">
    <linearGradient
       id="c">
      <stop
         offset="0"
         stop-color="#696969"
         id="stop1" />
      <stop
         offset="1"
         stop-color="#4f504f"
         id="stop2" />
    </linearGradient>
    <linearGradient
       id="a">
      <stop
         offset="0"
         stop-color="#494949"
         id="stop3" />
      <stop
         offset=".154"
         stop-color="#666665"
         id="stop4" />
      <stop
         offset=".385"
         stop-color="#666665"
         id="stop5" />
      <stop
         offset=".5"
         stop-color="#494949"
         id="stop6" />
      <stop
         offset=".615"
         stop-color="#686867"
         id="stop7" />
      <stop
         offset=".846"
         stop-color="#696969"
         id="stop8" />
      <stop
         offset="1"
         stop-color="#494949"
         id="stop9" />
    </linearGradient>
    <linearGradient
       xlink:href="#a"
       id="e"
       x1="-2.78"
       x2="-2.78"
       y1="1064.267"
       y2="1051.267"
       gradientTransform="translate(20)"
       gradientUnits="userSpaceOnUse" />
    <linearGradient
       id="b">
      <stop
         offset="0"
         stop-color="#494949"
         id="stop10" />
      <stop
         offset=".154"
         stop-color="#666665"
         id="stop11" />
      <stop
         offset=".385"
         stop-color="#666665"
         id="stop12" />
      <stop
         offset=".5"
         stop-color="#494949"
         id="stop13" />
      <stop
         offset=".615"
         stop-color="#686867"
         id="stop14" />
      <stop
         offset=".846"
         stop-color="#696969"
         id="stop15" />
      <stop
         offset="1"
         stop-color="#494949"
         id="stop16" />
    </linearGradient>
    <linearGradient
       xlink:href="#b"
       id="f"
       x1="-2.78"
       x2="-2.78"
       y1="1064.267"
       y2="1051.267"
       gradientTransform="translate(1061.047 -1074.487)"
       gradientUnits="userSpaceOnUse" />
    <linearGradient
       xlink:href="#c"
       id="d"
       x1="-1.78"
       x2="-1.78"
       y1="1052.267"
       y2="1063.267"
       gradientTransform="translate(20)"
       gradientUnits="userSpaceOnUse" />
  </defs>
  <path
     fill="url(#d)"
     d="m 11.220116,1052.2669 0,11 11,0 0,-11 -11,0 z m 1,1 9,0 0,9 -9,0 0,-9 z"
     transform="translate(-8.22 -1049.267)"
     id="path16" />
  <path
     fill="url(#e)"
     d="M16.22 1051.267H17.22V1064.267H16.22z"
     transform="translate(-8.22 -1049.267)"
     id="path17" />
  <path
     fill="url(#f)"
     d="M1057.267-23.22H1058.267V-10.22H1057.267z"
     transform="rotate(90 520.523 -528.744)"
     id="path18" />
  <path
     fill="#e3ebf8"
     d="M4 9H8V13H4z"
     id="path19" />
  <path
     fill="#fff"
     d="M13.22 1059.267H15.22V1061.267H13.22z"
     transform="translate(-8.22 -1049.267)"
     id="path20" />
  <path
     fill="#e3ebf8"
     d="M17.22 1058.267H21.22V1062.267H17.22z"
     transform="translate(-8.22 -1049.267)"
     id="path21" />
  <path
     fill="#fff"
     d="M18.22 1059.267H20.22V1061.267H18.22z"
     transform="translate(-8.22 -1049.267)"
     id="path22" />
  <path
     fill="#e3ebf8"
     d="M12.22 1053.267H16.22V1057.267H12.22z"
     transform="translate(-8.22 -1049.267)"
     id="path23" />
  <path
     fill="#fff"
     d="M13.22 1054.267H15.22V1056.267H13.22z"
     transform="translate(-8.22 -1049.267)"
     id="path24" />
  <path
     fill="#e3ebf8"
     d="M17.22 1053.267H21.22V1057.267H17.22z"
     transform="translate(-8.22 -1049.267)"
     id="path25" />
  <path
     fill="#fff"
     d="M18.22 1054.267H20.22V1056.267H18.22z"
     transform="translate(-8.22 -1049.267)"
     id="path26" />
</svg>
