<svg xmlns="http://www.w3.org/2000/svg" xmlns:xlink="http://www.w3.org/1999/xlink" width="16" height="16">
  <defs>
    <linearGradient id="c">
      <stop offset="0" stop-color="#696969"/>
      <stop offset="1" stop-color="#4f504f"/>
    </linearGradient>
    <linearGradient id="a">
      <stop offset="0" stop-color="#494949"/>
      <stop offset=".154" stop-color="#666665"/>
      <stop offset=".385" stop-color="#666665"/>
      <stop offset=".5" stop-color="#494949"/>
      <stop offset=".615" stop-color="#686867"/>
      <stop offset=".846" stop-color="#696969"/>
      <stop offset="1" stop-color="#494949"/>
    </linearGradient>
    <linearGradient xlink:href="#a" id="e" x1="-2.78" x2="-2.78" y1="1064.267" y2="1051.267" gradientTransform="translate(19)" gradientUnits="userSpaceOnUse"/>
    <linearGradient id="b">
      <stop offset="0" stop-color="#494949"/>
      <stop offset=".154" stop-color="#666665"/>
      <stop offset=".385" stop-color="#666665"/>
      <stop offset=".5" stop-color="#494949"/>
      <stop offset=".615" stop-color="#686867"/>
      <stop offset=".846" stop-color="#696969"/>
      <stop offset="1" stop-color="#494949"/>
    </linearGradient>
    <linearGradient xlink:href="#b" id="f" x1="-2.78" x2="-2.78" y1="1064.267" y2="1051.267" gradientTransform="translate(1061.047 -1073.485)" gradientUnits="userSpaceOnUse"/>
    <linearGradient xlink:href="#c" id="d" x1="-1.78" x2="-1.78" y1="1052.267" y2="1063.267" gradientTransform="translate(19)" gradientUnits="userSpaceOnUse"/>
    <filter id="h" width="1.287" height="1.482" x="-.144" y="-.241">
      <feGaussianBlur stdDeviation=".599"/>
    </filter>
    <mask id="g" maskUnits="userSpaceOnUse"/>
  </defs>
  <path fill="url(#d)" d="m 10.220116,1052.2669 0,11 11,0 0,-11 -11,0 z m 1,1 9,0 0,9 -9,0 0,-9 z" transform="translate(-8.22 -1049.267)"/>
  <path fill="url(#e)" d="M15.22 1051.267H16.22V1064.267H15.22z" transform="translate(-8.22 -1049.267)"/>
  <path fill="url(#f)" d="M1057.267-22.22H1058.267V-9.22H1057.267z" transform="rotate(90 520.523 -528.744)"/>
  <path fill="#e3ebf8" d="M11.22 1058.267H15.22V1062.267H11.22z" transform="translate(-8.22 -1049.267)"/>
  <path fill="#fff" d="M12.22 1059.267H14.22V1061.267H12.22z" transform="translate(-8.22 -1049.267)"/>
  <path fill="#e3ebf8" d="M16.22 1058.267H20.22V1062.267H16.22z" transform="translate(-8.22 -1049.267)"/>
  <path fill="#fff" d="M17.22 1059.267H19.22V1061.267H17.22z" transform="translate(-8.22 -1049.267)"/>
  <path fill="#e3ebf8" d="M11.22 1053.267H15.22V1057.267H11.22z" transform="translate(-8.22 -1049.267)"/>
  <path fill="#fff" d="M12.22 1054.267H14.22V1056.267H12.22z" transform="translate(-8.22 -1049.267)"/>
  <path fill="#e3ebf8" d="M16.22 1053.267H20.22V1057.267H16.22z" transform="translate(-8.22 -1049.267)"/>
  <path fill="#fff" d="M17.22 1054.267H19.22V1056.267H17.22z" transform="translate(-8.22 -1049.267)"/>
  <g mask="url(#g)" transform="translate(-8.22 -1049.267)">
    <g fill="#fff" stroke="#fff" stroke-linejoin="round" stroke-width="2" filter="url(#h)">
      <path d="m 14.738757,1061.753 0,-2.9835 c 0,-0.723 0.30837,-1.0403 0.822507,-1.0403 0.430028,0 0.520145,-0.9365 0.841842,-0.9365 l 1.452911,0 c 0.641386,0 0.423649,0.9888 0.832594,0.9888 l 3.032826,0 c 0.515862,0 1.024752,0.4466 1.024752,1.0248 l 0,2.9693 c 0,0.5312 -0.334077,0.9764 -0.976415,0.9764 l -6.058745,0 c -0.471088,0 -0.972272,-0.4831 -0.972272,-0.999 z"/>
      <path d="m 15.114407,1062.2833 1.62435,-1.5138 8.007432,0.037 -2.58579,1.9457 -6.44937,0 c -0.471088,0 -0.596622,0.047 -0.596622,-0.4687 z"/>
    </g>
  </g>
  <path fill="#fff" stroke="#696969" stroke-linejoin="round" d="m 14.738757,1061.753 0,-2.9835 c 0,-0.723 0.30837,-1.0403 0.822507,-1.0403 0.430028,0 0.520145,-0.9365 0.841842,-0.9365 l 1.452911,0 c 0.641386,0 0.423649,0.9888 0.832594,0.9888 l 3.032826,0 c 0.515862,0 1.024752,0.4466 1.024752,1.0248 l 0,2.9693 c 0,0.5312 -0.334077,0.9764 -0.976415,0.9764 l -6.058745,0 c -0.471088,0 -0.972272,-0.4831 -0.972272,-0.999 z" transform="translate(-8.22 -1049.267)"/>
  <path fill="none" stroke="#e3ebf8" stroke-linejoin="round" stroke-width=".809" d="m 15.504868,1061.374 0,-2.1253 c 0,-0.5847 0.249364,-0.8412 0.665121,-0.8412 0.347742,0 0.420615,-0.7573 0.680755,-0.7573 l 0.600372,0 c 0.518657,0 0.342584,0.7995 0.673277,0.7995 l 3.027019,0 c 0.417152,0 0.828666,0.3612 0.828666,0.8288 l 0,2.1138 c 0,0.4295 -0.270152,0.7895 -0.789578,0.7895 l -4.899404,0 c -0.380945,0 -0.786228,-0.3906 -0.786228,-0.8078 z" transform="translate(-8.22 -1049.267)"/>
  <path fill="none" stroke="#696969" stroke-linejoin="round" d="m 14.738757,1061.753 0,-2.9835 c 0,-0.723 0.30837,-1.0403 0.822507,-1.0403 0.430028,0 0.520145,-0.9365 0.841842,-0.9365 l 1.452911,0 c 0.641386,0 0.423649,0.9888 0.832594,0.9888 l 3.032826,0 c 0.515862,0 1.024752,0.4466 1.024752,1.0248 l 0,2.9693 c 0,0.5312 -0.334077,0.9764 -0.976415,0.9764 l -6.058745,0 c -0.471088,0 -0.972272,-0.4831 -0.972272,-0.999 z" transform="translate(-8.22 -1049.267)"/>
  <path fill="#fff" stroke="#696969" stroke-linejoin="round" d="m 15.114407,1062.2833 1.62435,-1.5138 8.007432,0.037 -2.58579,1.9457 -6.44937,0 c -0.471088,0 -0.596622,0.047 -0.596622,-0.4687 z" transform="translate(-8.22 -1049.267)"/>
</svg>
