<?xml version="1.0" encoding="UTF-8" standalone="no"?>
<svg
   width="16"
   height="16"
   version="1.1"
   id="svg50"
   xmlns:xlink="http://www.w3.org/1999/xlink"
   xmlns="http://www.w3.org/2000/svg"
   xmlns:svg="http://www.w3.org/2000/svg">
  <defs
     id="defs35">
    <linearGradient
       id="a">
      <stop
         offset="0"
         stop-color="#696969"
         id="stop1" />
      <stop
         offset="1"
         stop-color="#4f504f"
         id="stop2" />
    </linearGradient>
    <linearGradient
       id="b">
      <stop
         offset="0"
         stop-color="#494949"
         id="stop3" />
      <stop
         offset=".154"
         stop-color="#666665"
         id="stop4" />
      <stop
         offset=".385"
         stop-color="#666665"
         id="stop5" />
      <stop
         offset=".5"
         stop-color="#494949"
         id="stop6" />
      <stop
         offset=".615"
         stop-color="#686867"
         id="stop7" />
      <stop
         offset=".846"
         stop-color="#696969"
         id="stop8" />
      <stop
         offset="1"
         stop-color="#494949"
         id="stop9" />
    </linearGradient>
    <linearGradient
       id="c">
      <stop
         offset="0"
         stop-color="#494949"
         id="stop10" />
      <stop
         offset=".154"
         stop-color="#666665"
         id="stop11" />
      <stop
         offset=".385"
         stop-color="#666665"
         id="stop12" />
      <stop
         offset=".5"
         stop-color="#494949"
         id="stop13" />
      <stop
         offset=".615"
         stop-color="#686867"
         id="stop14" />
      <stop
         offset=".846"
         stop-color="#696969"
         id="stop15" />
      <stop
         offset="1"
         stop-color="#494949"
         id="stop16" />
    </linearGradient>
    <linearGradient
       xlink:href="#a"
       id="g"
       x1="-1.78"
       x2="-1.78"
       y1="1052.267"
       y2="1063.267"
       gradientTransform="translate(20)"
       gradientUnits="userSpaceOnUse" />
    <linearGradient
       xlink:href="#b"
       id="h"
       x1="-2.78"
       x2="-2.811"
       y1="1061.267"
       y2="1050.267"
       gradientTransform="translate(20)"
       gradientUnits="userSpaceOnUse" />
    <linearGradient
       xlink:href="#c"
       id="i"
       x1="-5.78"
       x2="-5.78"
       y1="1061.298"
       y2="1050.298"
       gradientTransform="translate(1061.047 -1074.487)"
       gradientUnits="userSpaceOnUse" />
    <linearGradient
       id="d">
      <stop
         offset="0"
         stop-color="#696969"
         id="stop17" />
      <stop
         offset="1"
         stop-color="#4f504f"
         id="stop18" />
    </linearGradient>
    <linearGradient
       id="e">
      <stop
         offset="0"
         stop-color="#494949"
         id="stop19" />
      <stop
         offset=".154"
         stop-color="#666665"
         id="stop20" />
      <stop
         offset=".385"
         stop-color="#666665"
         id="stop21" />
      <stop
         offset=".5"
         stop-color="#494949"
         id="stop22" />
      <stop
         offset=".615"
         stop-color="#686867"
         id="stop23" />
      <stop
         offset=".846"
         stop-color="#696969"
         id="stop24" />
      <stop
         offset="1"
         stop-color="#494949"
         id="stop25" />
    </linearGradient>
    <linearGradient
       id="f">
      <stop
         offset="0"
         stop-color="#494949"
         id="stop26" />
      <stop
         offset=".154"
         stop-color="#666665"
         id="stop27" />
      <stop
         offset=".385"
         stop-color="#666665"
         id="stop28" />
      <stop
         offset=".5"
         stop-color="#494949"
         id="stop29" />
      <stop
         offset=".615"
         stop-color="#686867"
         id="stop30" />
      <stop
         offset=".846"
         stop-color="#696969"
         id="stop31" />
      <stop
         offset="1"
         stop-color="#494949"
         id="stop32" />
    </linearGradient>
    <linearGradient
       xlink:href="#d"
       id="l"
       x1="-1.78"
       x2="-1.78"
       y1="1052.267"
       y2="1063.267"
       gradientTransform="translate(20)"
       gradientUnits="userSpaceOnUse" />
    <linearGradient
       xlink:href="#e"
       id="m"
       x1="-2.78"
       x2="-2.811"
       y1="1061.267"
       y2="1050.267"
       gradientTransform="translate(20)"
       gradientUnits="userSpaceOnUse" />
    <linearGradient
       xlink:href="#f"
       id="n"
       x1="-5.78"
       x2="-5.78"
       y1="1061.298"
       y2="1050.298"
       gradientTransform="translate(1061.047 -1074.487)"
       gradientUnits="userSpaceOnUse" />
    <filter
       id="k"
       width="1.4509091"
       height="1.4509091"
       x="-0.22545454"
       y="-0.22545454">
      <feGaussianBlur
         stdDeviation=".825"
         id="feGaussianBlur32" />
    </filter>
    <mask
       id="j"
       maskUnits="userSpaceOnUse">
      <g
         fill="#f9f9f9"
         id="g35">
        <path
           d="m 7,3 0,6.999999 7,0 0,-7 z"
           transform="translate(8.22 1049.267)"
           id="path32" />
        <path
           d="m 14.188866,1051.2669 0,9 9,0 0,-9 z m 1,1 7,0 0,7 -7,0 z"
           transform="translate(.031)"
           id="path33" />
        <path
           d="M18.189 1050.267H19.189V1061.267H18.189z"
           transform="translate(.031)"
           id="path34" />
        <path
           d="M1055.267-24.189H1056.267V-13.189H1055.267z"
           transform="rotate(90 .016 .016)"
           id="path35" />
      </g>
    </mask>
  </defs>
  <path
     fill="#fff"
     d="m 7,3 0,6.999999 7,0 0,-7 z"
     id="path36" />
  <path
     fill="url(#g)"
     d="m 14.188866,1051.2669 0,9 9,0 0,-9 z m 1,1 7,0 0,7 -7,0 z"
     transform="translate(-8.189 -1049.267)"
     id="path37" />
  <path
     fill="url(#h)"
     d="M18.189 1050.267H19.189V1061.267H18.189z"
     transform="translate(-8.189 -1049.267)"
     id="path38" />
  <path
     fill="url(#i)"
     d="M1055.267-24.189H1056.267V-13.189H1055.267z"
     transform="rotate(90 520.539 -528.728)"
     id="path39" />
  <path
     fill="#e3ebf8"
     d="m15.22 1056.267 0 1 0 2 1 0 0-2 2 0 0-1-2 0-1 0zM15.22 1052.267l0 1 0 2 1 0 0-2 2 0 0-1-2 0-1 0zM19.22 1052.267l0 1 0 2 1 0 0-2 2 0 0-1-2 0-1 0zM19.22 1056.267l0 1 0 2 1 0 0-2 2 0 0-1-2 0-1 0z"
     transform="translate(-8.22 -1049.267)"
     id="path40" />
  <g
     mask="url(#j)"
     transform="translate(-8.22 -1049.267)"
     id="g46">
    <g
       fill="#fff"
       stroke="#fff"
       filter="url(#k)"
       transform="translate(0 -20)"
       id="g45">
      <path
         d="m 11.220116,1076.2669 0,7 7,0 0,-7 z"
         id="path41" />
      <path
         d="m 14.188866,1051.2669 0,9 9,0 0,-9 z m 1,1 7,0 0,7 -7,0 z"
         transform="translate(-3.969 24)"
         id="path42" />
      <path
         d="M18.189 1050.267H19.189V1061.267H18.189z"
         transform="translate(-3.969 24)"
         id="path43" />
      <path
         d="M1055.267-24.189H1056.267V-13.189H1055.267z"
         transform="rotate(90 -13.984 10.016)"
         id="path44" />
      <path
         d="m11.22 1076.267 0 1 0 2 1 0 0-2 2 0 0-1-2 0-1 0zM11.22 1080.267l0 1 0 2 1 0 0-2 2 0 0-1-2 0-1 0zM15.22 1080.267l0 1 0 2 1 0 0-2 2 0 0-1-2 0-1 0zM15.22 1076.267l0 1 0 2 1 0 0-2 2 0 0-1-2 0-1 0z"
         id="path45" />
    </g>
  </g>
  <path
     fill="#fff"
     d="m 11.220116,1076.2669 0,7 7,0 0,-7 z"
     transform="translate(-8.22 -1069.267)"
     id="path46" />
  <path
     fill="url(#l)"
     d="m 14.188866,1051.2669 0,9 9,0 0,-9 z m 1,1 7,0 0,7 -7,0 z"
     transform="translate(-12.189 -1045.267)"
     id="path47" />
  <path
     fill="url(#m)"
     d="M18.189 1050.267H19.189V1061.267H18.189z"
     transform="translate(-12.189 -1045.267)"
     id="path48" />
  <path
     fill="url(#n)"
     d="M1055.267-24.189H1056.267V-13.189H1055.267z"
     transform="rotate(90 516.539 -528.728)"
     id="path49" />
  <path
     fill="#e3ebf8"
     d="m11.22 1076.267 0 1 0 2 1 0 0-2 2 0 0-1-2 0-1 0zM11.22 1080.267l0 1 0 2 1 0 0-2 2 0 0-1-2 0-1 0zM15.22 1080.267l0 1 0 2 1 0 0-2 2 0 0-1-2 0-1 0zM15.22 1076.267l0 1 0 2 1 0 0-2 2 0 0-1-2 0-1 0z"
     transform="translate(-8.22 -1069.267)"
     id="path50" />
</svg>
