<svg xmlns="http://www.w3.org/2000/svg" xmlns:xlink="http://www.w3.org/1999/xlink" width="16" height="16">
  <defs>
    <linearGradient id="d">
      <stop offset="0" stop-color="#6b9ac3"/>
      <stop offset=".473" stop-color="#1c65a2"/>
      <stop offset="1" stop-color="#98b9d5"/>
    </linearGradient>
    <linearGradient id="b">
      <stop offset="0" stop-color="#fff"/>
      <stop offset=".5" stop-color="#fff" stop-opacity=".498"/>
      <stop offset="1" stop-color="#fff"/>
    </linearGradient>
    <linearGradient id="a">
      <stop offset="0" stop-color="#6a9ac2"/>
      <stop offset="1" stop-color="#1c65a2"/>
    </linearGradient>
    <linearGradient id="c">
      <stop offset="0" stop-color="#567ead"/>
      <stop offset="1" stop-color="#35679d"/>
    </linearGradient>
    <linearGradient xlink:href="#a" id="q" x1="390.805" x2="390.805" y1="458.064" y2="478.994" gradientUnits="userSpaceOnUse"/>
    <linearGradient xlink:href="#b" id="j" x1="14.674" x2="14.556" y1="1037.245" y2="1044.609" gradientUnits="userSpaceOnUse"/>
    <linearGradient xlink:href="#b" id="m" x1="7.256" x2="17.788" y1="1041.006" y2="1041.006" gradientUnits="userSpaceOnUse"/>
    <linearGradient xlink:href="#b" id="l" x1="7.256" x2="17.788" y1="1041.006" y2="1041.006" gradientUnits="userSpaceOnUse"/>
    <linearGradient xlink:href="#b" id="p" x1="7.256" x2="17.788" y1="1041.006" y2="1041.006" gradientUnits="userSpaceOnUse"/>
    <linearGradient xlink:href="#b" id="o" x1="7.256" x2="17.788" y1="1041.006" y2="1041.006" gradientUnits="userSpaceOnUse"/>
    <linearGradient xlink:href="#b" id="n" x1="7.256" x2="17.788" y1="1041.006" y2="1041.006" gradientUnits="userSpaceOnUse"/>
    <linearGradient xlink:href="#c" id="g" x1="12.518" x2="12.518" y1="1037.615" y2="1044.481" gradientUnits="userSpaceOnUse"/>
    <linearGradient xlink:href="#c" id="f" x1="12.518" x2="12.518" y1="1037.615" y2="1044.481" gradientUnits="userSpaceOnUse"/>
    <linearGradient xlink:href="#d" id="h" x1="388.075" x2="387.911" y1="477.564" y2="460.754" gradientUnits="userSpaceOnUse"/>
    <linearGradient xlink:href="#c" id="i" x1="12.518" x2="12.518" y1="1037.615" y2="1044.481" gradientUnits="userSpaceOnUse"/>
    <linearGradient xlink:href="#c" id="e" x1="12.518" x2="12.518" y1="1037.615" y2="1044.481" gradientUnits="userSpaceOnUse"/>
    <filter id="k" width="1.48" height="1.48" x="-.24" y="-.24">
      <feGaussianBlur stdDeviation=".631"/>
    </filter>
  </defs>
  <g stroke="url(#e)" transform="matrix(1.44754 0 0 1.44754 -4.108 -1498.804)">
    <path fill="url(#h)" stroke="url(#i)" stroke-linecap="round" stroke-linejoin="round" stroke-width="2.166" d="m 398.75,468.23718 c 0,5.86803 -4.75697,10.625 -10.625,10.625 -5.86803,0 -10.625,-4.75697 -10.625,-10.625 0,-5.86802 4.75697,-10.625 10.625,-10.625 5.86803,0 10.625,4.75698 10.625,10.625 z" font-family="Sans" font-size="13.589" font-weight="400" letter-spacing="0" style="line-height:125%" transform="matrix(.29709 0 0 .29709 -106.93 901.9)" word-spacing="0"/>
  </g>
  <g fill="none" stroke="url(#j)" filter="url(#k)" opacity=".25" transform="matrix(1.17966 0 0 1.17966 -8.753 -1219.945)">
    <path stroke="url(#p)" stroke-linecap="round" stroke-linejoin="round" stroke-width="2.166" d="m 398.75,468.23718 c 0,5.86803 -4.75697,10.625 -10.625,10.625 -5.86803,0 -10.625,-4.75697 -10.625,-10.625 0,-5.86802 4.75697,-10.625 10.625,-10.625 5.86803,0 10.625,4.75698 10.625,10.625 z" font-family="Sans" font-size="13.589" font-weight="400" letter-spacing="0" style="line-height:125%" transform="matrix(.29709 0 0 .29709 -101.09 901.9)" word-spacing="0"/>
  </g>
  <path fill="none" stroke="url(#q)" stroke-linecap="round" stroke-linejoin="round" stroke-width="2.166" d="m 398.75,468.23718 c 0,5.86803 -4.75697,10.625 -10.625,10.625 -5.86803,0 -10.625,-4.75697 -10.625,-10.625 0,-5.86802 4.75697,-10.625 10.625,-10.625 5.86803,0 10.625,4.75698 10.625,10.625 z" font-family="Sans" font-size="13.589" font-weight="400" letter-spacing="0" style="line-height:125%" transform="matrix(.43004 0 0 .43004 -158.892 -193.272)" word-spacing="0"/>
</svg>
