<svg xmlns="http://www.w3.org/2000/svg" xmlns:xlink="http://www.w3.org/1999/xlink" width="16" height="16">
  <defs>
    <linearGradient id="e">
      <stop offset="0" stop-color="#fefdef"/>
      <stop offset="1" stop-color="#fce69e"/>
    </linearGradient>
    <linearGradient id="c">
      <stop offset="0" stop-color="#77849a"/>
      <stop offset="1" stop-color="#38445d"/>
    </linearGradient>
    <linearGradient id="a">
      <stop offset="0" stop-color="#4e8fbd"/>
      <stop offset="1" stop-color="#4d5a5d"/>
    </linearGradient>
    <linearGradient xlink:href="#a" id="g" x1="0" x2="8" y1="13.5" y2="13.5" gradientTransform="translate(-2.969 1036.362)" gradientUnits="userSpaceOnUse"/>
    <linearGradient id="b">
      <stop offset="0" stop-color="#4e8fbd"/>
      <stop offset="1" stop-color="#4d5a5d"/>
    </linearGradient>
    <linearGradient xlink:href="#b" id="h" x1="0" x2="8" y1="13.5" y2="13.5" gradientTransform="translate(-2.969 1028.362)" gradientUnits="userSpaceOnUse"/>
    <linearGradient xlink:href="#c" id="i" x1="10" x2="10" y1="1" y2="6" gradientTransform="matrix(1 0 0 .8 -3 1038.563)" gradientUnits="userSpaceOnUse"/>
    <linearGradient id="d">
      <stop offset="0" stop-color="#77849a"/>
      <stop offset="1" stop-color="#38445d"/>
    </linearGradient>
    <linearGradient xlink:href="#d" id="j" x1="10" x2="10" y1="1" y2="6" gradientTransform="matrix(1 0 0 .8 -3 -1053.162)" gradientUnits="userSpaceOnUse"/>
    <linearGradient xlink:href="#e" id="f" x1="11.906" x2="11.906" y1="1042.362" y2="1047.268" gradientTransform="translate(-3 1)" gradientUnits="userSpaceOnUse"/>
  </defs>
  <path fill="url(#f)" d="m 3.7499998,1045.3622 0,1 5.25,0 0,2 2.9998932,-2.5 -2.9998932,-2.5 0,2 z" transform="translate(0 -1036.362)"/>
  <path fill="url(#g)" d="m -2.96875,1049.3622 0,1 5,0 0,2 2.9998932,-2.5 -2.9998932,-2.5 0,2 z" transform="translate(0 -1036.362)"/>
  <path fill="url(#h)" d="m -2.96875,1041.3622 0,1 5,0 0,2 2.9998932,-2.5 -2.9998932,-2.5 0,2 z" transform="translate(0 -1036.362)"/>
  <path fill="url(#i)" d="M6 1039.362H7V1043.362H6z" transform="translate(0 -1036.362)"/>
  <path fill="url(#j)" d="M6-1052.362H7V-1048.362H6z" transform="matrix(1 0 0 -1 0 -1036.362)"/>
  <path fill="#b57a13" d="m 7.9999998,1042.3622 0,2 -3.25,0 -1,0 c -0.9918497,0.9918 -0.9863244,2.0137 0,3 l 1,0 3.25,0 0,2 c 0,0.6519 0.740915,0.6375 1.5,0 l 3.9375002,-3.5 -3.9375002,-3.5 c -0.760225,-0.7602 -1.5,-0.5203 -1.5,0 z m 1,1 3.0000002,2.5 -3.0000002,2.5 0,-2 -4.6875,0 c -0.2762136,-0.2099 -0.2774437,-0.7282 0,-1 l 4.6875,0 z" transform="translate(0 -1036.362)"/>
  <path fill="#c8c8c8" stroke="#848484" stroke-linecap="square" d="M9.5 1038.862H15.504V1040.862H9.5z" transform="translate(0 -1036.362)"/>
</svg>
