<?xml version="1.0" encoding="UTF-8" standalone="no"?>
<svg
   width="16"
   height="16"
   version="1.1"
   id="svg6"
   xmlns:xlink="http://www.w3.org/1999/xlink"
   xmlns="http://www.w3.org/2000/svg"
   xmlns:svg="http://www.w3.org/2000/svg">
  <defs
     id="defs5">
    <linearGradient
       xlink:href="#a"
       id="c"
       x1="-17.448"
       x2="-14.571"
       y1="1030.813"
       y2="1033.69"
       gradientTransform="translate(11.03 -156.202) scale(1.15663)"
       gradientUnits="userSpaceOnUse" />
    <linearGradient
       id="a">
      <stop
         offset="0"
         stop-color="#fff2b0"
         id="stop1" />
      <stop
         offset=".629"
         stop-color="#fecf6c"
         id="stop2" />
      <stop
         offset="1"
         stop-color="#fede96"
         id="stop3" />
    </linearGradient>
    <linearGradient
       xlink:href="#b"
       id="d"
       x1="-10.453"
       x2="-4.312"
       y1="1034.62"
       y2="1040.76"
       gradientTransform="matrix(.96917 0 0 .96917 -.235 31.998)"
       gradientUnits="userSpaceOnUse" />
    <linearGradient
       id="b">
      <stop
         offset="0"
         stop-color="#be9c28"
         id="stop4" />
      <stop
         offset="1"
         stop-color="#a77e1c"
         id="stop5" />
    </linearGradient>
    <filter
       id="e"
       width="1.4110583"
       height="1.4110583"
       x="-0.20552915"
       y="-0.20552915"
       color-interpolation-filters="sRGB">
      <feGaussianBlur
         stdDeviation=".2"
         id="feGaussianBlur5" />
    </filter>
  </defs>
  <g
     fill="#fff"
     font-family="Sans"
     font-size="13.589"
     font-weight="400"
     letter-spacing="0"
     style="line-height:125%"
     word-spacing="0"
     id="g6">
    <g
       stroke-linecap="round"
       stroke-linejoin="round"
       style="line-height:125%"
       transform="scale(.79384) rotate(45 1241.415 546.467)"
       id="g5">
      <rect
         width="5.776"
         height="5.776"
         x="-10.515"
         y="1034.958"
         fill="url(#c)"
         stroke="url(#d)"
         stroke-width="1.26"
         rx=".666"
         ry=".666"
         id="rect5" />
      <path
         fill="none"
         stroke="#fff"
         stroke-width=".683"
         d="M-9.625 1035.847H-5.628V1039.844H-9.625z"
         filter="url(#e)"
         opacity=".25"
         style="line-height:125%"
         id="path5" />
    </g>
  </g>
  <path
     fill="#fff"
     d="m 8.5107074,1043.0116 c 0,0 0.1917576,0.6999 0.6766707,1.1849 0.4849113,0.4848 1.1847919,0.6765 1.1847919,0.6765 0,0 -0.6959103,0.1879 -1.1847903,0.6767 -0.4888799,0.4889 -0.6766706,1.1847 -0.6766706,1.1847 0,0 -0.1719097,-0.6798 -0.6766707,-1.1847 -0.504761,-0.5048 -1.1847934,-0.6767 -1.1847934,-0.6767 0,0 0.7117911,-0.2037 1.1847934,-0.6765 0.4730006,-0.4732 0.676669,-1.1849 0.676669,-1.1849 z"
     transform="translate(0 -1036.362)"
     id="path6" />
</svg>
