<svg xmlns="http://www.w3.org/2000/svg" xmlns:xlink="http://www.w3.org/1999/xlink" width="16" height="16">
  <defs>
    <linearGradient id="a">
      <stop offset="0" stop-color="#5481b6"/>
      <stop offset=".5" stop-color="#1c65a2"/>
      <stop offset="1" stop-color="#5286ba"/>
    </linearGradient>
    <linearGradient xlink:href="#a" id="b" x1="-31.957" x2="-31.957" y1="1042.254" y2="1039.602" gradientTransform="matrix(1.1876 0 0 1.1876 46.681 -191.605)" gradientUnits="userSpaceOnUse"/>
  </defs>
  <path fill="url(#b)" stroke="#2268a5" stroke-linejoin="round" d="m 11.609555,1046.917 -6.1713054,0 3.0856518,-5.143 z" font-family="Sans" font-size="13.589" font-weight="400" letter-spacing="0" style="line-height:125%" transform="translate(0 -1036.362)" word-spacing="0"/>
  <path fill="#fff" d="m 8.5107074,1043.0116 c 0,0 0.1917576,0.6999 0.6766707,1.1849 0.4849113,0.4848 1.1847919,0.6765 1.1847919,0.6765 0,0 -0.6959103,0.1879 -1.1847903,0.6767 -0.4888799,0.4889 -0.6766706,1.1847 -0.6766706,1.1847 0,0 -0.1719097,-0.6798 -0.6766707,-1.1847 -0.504761,-0.5048 -1.1847934,-0.6767 -1.1847934,-0.6767 0,0 0.7117911,-0.2037 1.1847934,-0.6765 0.4730006,-0.4732 0.676669,-1.1849 0.676669,-1.1849 z" transform="translate(0 -1036.362)"/>
</svg>
