<svg xmlns="http://www.w3.org/2000/svg" xmlns:xlink="http://www.w3.org/1999/xlink" width="16" height="16">
  <defs>
    <linearGradient id="h">
      <stop offset="0" stop-color="#b28a30"/>
      <stop offset="1" stop-color="#7c703e"/>
    </linearGradient>
    <linearGradient id="g">
      <stop offset="0" stop-color="#e0c88f"/>
      <stop offset="1" stop-color="#d5b269"/>
    </linearGradient>
    <linearGradient id="f">
      <stop offset="0" stop-color="#f9fafc"/>
      <stop offset="1" stop-color="#dce7f7"/>
    </linearGradient>
    <linearGradient id="a">
      <stop offset="0" stop-color="#d2e0f1"/>
      <stop offset=".841" stop-color="#d2e0f1"/>
      <stop offset="1" stop-color="#fcf2cf"/>
    </linearGradient>
    <linearGradient id="b">
      <stop offset="0" stop-color="#fdfcfa"/>
      <stop offset=".674" stop-color="#fff" stop-opacity=".251"/>
      <stop offset="1" stop-color="#d2e0f1" stop-opacity="0"/>
    </linearGradient>
    <linearGradient xlink:href="#c" id="C" x1="33.923" x2="33.923" y1="1051.258" y2="1040.46" gradientTransform="translate(-20.625)" gradientUnits="userSpaceOnUse"/>
    <linearGradient id="c">
      <stop offset="0" stop-color="#7792b2"/>
      <stop offset=".159" stop-color="#a1b3cb"/>
      <stop offset=".466" stop-color="#6180a9"/>
      <stop offset=".744" stop-color="#a1b3cb"/>
      <stop offset="1" stop-color="#7995b8"/>
    </linearGradient>
    <linearGradient id="d">
      <stop offset="0" stop-color="#fefdef"/>
      <stop offset="1" stop-color="#fbdd83"/>
    </linearGradient>
    <linearGradient id="e">
      <stop offset="0" stop-color="#c7a229"/>
      <stop offset="1" stop-color="#a07e1e"/>
    </linearGradient>
    <linearGradient xlink:href="#d" id="D" x1="25.083" x2="31.932" y1="1038.872" y2="1038.872" gradientTransform="translate(-20 .996)" gradientUnits="userSpaceOnUse"/>
    <linearGradient xlink:href="#e" id="E" x1="27.425" x2="27.425" y1="1037.767" y2="1039.846" gradientTransform="translate(-20 .996)" gradientUnits="userSpaceOnUse"/>
    <linearGradient xlink:href="#f" id="q" x1="9.895" x2="9.895" y1="1039.153" y2="1051.838" gradientTransform="translate(-1.978 -1.044)" gradientUnits="userSpaceOnUse"/>
    <linearGradient xlink:href="#g" id="r" x1="7.999" x2="9.987" y1="1042.231" y2="1040.33" gradientTransform="translate(2.022 -1.044)" gradientUnits="userSpaceOnUse"/>
    <linearGradient xlink:href="#h" id="s" x1="10.545" x2="10.545" y1="1038.578" y2="1052.323" gradientTransform="translate(-1.978 -1.044)" gradientUnits="userSpaceOnUse"/>
    <linearGradient id="k">
      <stop offset="0" stop-color="#fefdef"/>
      <stop offset="1" stop-color="#fbdd83"/>
    </linearGradient>
    <linearGradient xlink:href="#i" id="H" x1="27.425" x2="27.425" y1="1037.767" y2="1039.846" gradientTransform="translate(-20 .996)" gradientUnits="userSpaceOnUse"/>
    <linearGradient id="i">
      <stop offset="0" stop-color="#c7a229"/>
      <stop offset="1" stop-color="#a07e1e"/>
    </linearGradient>
    <linearGradient id="j">
      <stop offset="0" stop-color="#7792b2"/>
      <stop offset=".159" stop-color="#a1b3cb"/>
      <stop offset=".466" stop-color="#6180a9"/>
      <stop offset=".744" stop-color="#a1b3cb"/>
      <stop offset="1" stop-color="#7995b8"/>
    </linearGradient>
    <linearGradient xlink:href="#j" id="F" x1="33.923" x2="33.923" y1="1051.258" y2="1040.46" gradientTransform="translate(-20.625)" gradientUnits="userSpaceOnUse"/>
    <linearGradient xlink:href="#k" id="G" x1="25.083" x2="31.932" y1="1038.872" y2="1038.872" gradientTransform="translate(-20 .996)" gradientUnits="userSpaceOnUse"/>
    <linearGradient id="l">
      <stop offset="0" stop-color="#d2e0f1"/>
      <stop offset=".841" stop-color="#d2e0f1"/>
      <stop offset="1" stop-color="#fcf2cf"/>
    </linearGradient>
    <linearGradient id="m">
      <stop offset="0" stop-color="#fdfcfa"/>
      <stop offset=".674" stop-color="#fff" stop-opacity=".251"/>
      <stop offset="1" stop-color="#d2e0f1" stop-opacity="0"/>
    </linearGradient>
    <linearGradient xlink:href="#n" id="x" x1="33.923" x2="33.923" y1="1051.258" y2="1040.46" gradientTransform="translate(-20.625)" gradientUnits="userSpaceOnUse"/>
    <linearGradient id="n">
      <stop offset="0" stop-color="#7792b2"/>
      <stop offset=".159" stop-color="#a1b3cb"/>
      <stop offset=".466" stop-color="#6180a9"/>
      <stop offset=".744" stop-color="#a1b3cb"/>
      <stop offset="1" stop-color="#7995b8"/>
    </linearGradient>
    <linearGradient xlink:href="#o" id="y" x1="25.083" x2="31.932" y1="1038.872" y2="1038.872" gradientTransform="translate(-20 .996)" gradientUnits="userSpaceOnUse"/>
    <linearGradient id="o">
      <stop offset="0" stop-color="#fefdef"/>
      <stop offset="1" stop-color="#fbdd83"/>
    </linearGradient>
    <linearGradient xlink:href="#p" id="z" x1="27.425" x2="27.425" y1="1037.767" y2="1039.846" gradientTransform="translate(-20 .996)" gradientUnits="userSpaceOnUse"/>
    <linearGradient id="p">
      <stop offset="0" stop-color="#c7a229"/>
      <stop offset="1" stop-color="#a07e1e"/>
    </linearGradient>
    <radialGradient xlink:href="#a" id="A" cx="28.539" cy="1043.182" r="5.391" fx="28.539" fy="1043.182" gradientTransform="matrix(0 1.43464 -1.60774 0 1685.08 1001.966)" gradientUnits="userSpaceOnUse"/>
    <radialGradient xlink:href="#b" id="B" cx="28.553" cy="1043.123" r="5.016" fx="28.553" fy="1043.123" gradientTransform="matrix(.88536 .01424 -.02078 1.29183 4.323 -305.152)" gradientUnits="userSpaceOnUse"/>
    <radialGradient xlink:href="#l" id="v" cx="28.539" cy="1043.182" r="5.391" fx="28.539" fy="1043.182" gradientTransform="matrix(0 1.43464 -1.60774 0 1685.08 1001.966)" gradientUnits="userSpaceOnUse"/>
    <radialGradient xlink:href="#m" id="w" cx="28.553" cy="1043.123" r="5.016" fx="28.553" fy="1043.123" gradientTransform="matrix(.88536 .01424 -.02078 1.29183 4.323 -305.152)" gradientUnits="userSpaceOnUse"/>
    <filter id="u" width="1.424" height="1.313" x="-.212" y="-.156" color-interpolation-filters="sRGB">
      <feGaussianBlur stdDeviation=".79"/>
    </filter>
    <mask id="t" maskUnits="userSpaceOnUse">
      <g fill="#fff" stroke="#fff">
        <path d="m 3.5193795,1037.8597 7.0096695,0 3.062057,3.0066 0,9.9546 -10.0717265,0 z" transform="translate(2 -.984)"/>
        <path d="m 9.998718,1037.397 0,3.9112 3.977478,0 z" transform="translate(2 -.984)"/>
        <path d="m 3.5193795,1037.8597 7.0096695,0 3.062057,3.0066 0,9.9546 -10.0717265,0 z" transform="translate(2 -.984)"/>
      </g>
    </mask>
  </defs>
  <path fill="url(#q)" d="m 3.5193795,1037.8597 7.0096695,0 3.062057,3.0066 0,9.9546 -10.0717265,0 z" transform="translate(2 -1037.346)"/>
  <path fill="url(#r)" d="m 9.998718,1037.397 0,3.9112 3.977478,0 z" transform="translate(2 -1037.346)"/>
  <path fill="none" stroke="url(#s)" d="m 3.5193795,1037.8597 7.0096695,0 3.062057,3.0066 0,9.9546 -10.0717265,0 z" transform="translate(2 -1037.346)"/>
  <g mask="url(#t)" transform="translate(0 -1036.362)">
    <g stroke-width="2.218" filter="url(#u)" opacity=".75" transform="matrix(.90163 0 0 .90163 -1.614 103.301)">
      <path fill="url(#v)" d="m 6.2167313,1040.1881 3.4054849,0 c 0.4530438,1.6907 2.7621358,2.5911 2.7621358,5.1157 l 0,2.8379 c 0,1.5302 -1.231912,2.7621 -2.7621358,2.7621 l -3.4054849,0 c -1.530224,0 -2.762136,-1.2319 -2.762136,-2.7621 l 0,-2.8379 c 0,-2.5909 2.334749,-3.5207 2.762136,-5.1157 z"/>
      <path fill="url(#w)" d="m 6.2167313,1040.1881 3.4054849,0 c 0.4530438,1.6907 2.7621358,2.5911 2.7621358,5.1157 l 0,2.8379 c 0,1.5302 -1.231912,2.7621 -2.7621358,2.7621 l -3.4054849,0 c -1.530224,0 -2.762136,-1.2319 -2.762136,-2.7621 l 0,-2.8379 c 0,-2.5909 2.334749,-3.5207 2.762136,-5.1157 z"/>
      <path fill="none" stroke="url(#x)" stroke-linejoin="round" d="m 6.2167313,1040.1881 3.4054849,0 c 0.4530438,1.6907 2.7621358,2.5911 2.7621358,5.1157 l 0,2.8379 c 0,1.5302 -1.231912,2.7621 -2.7621358,2.7621 l -3.4054849,0 c -1.530224,0 -2.762136,-1.2319 -2.762136,-2.7621 l 0,-2.8379 c 0,-2.5909 2.334749,-3.5207 2.762136,-5.1157 z"/>
      <rect width="6.817" height="2.188" x="4.397" y="1038.775" fill="url(#y)" stroke="url(#z)" stroke-linejoin="round" rx=".762" ry=".762"/>
      <g fill="#fff" stroke="#fff" stroke-linejoin="round">
        <path d="m 6.2167314,1040.1882 3.4054848,0 c 0.4530438,1.6907 2.7621358,2.5911 2.7621358,5.1157 l 0,2.8379 c 0,1.5302 -1.231912,2.7621 -2.7621358,2.7621 l -3.4054848,0 c -1.530224,0 -2.7621361,-1.2319 -2.7621361,-2.7621 l 0,-2.8379 c 0,-2.5909 2.334749,-3.5207 2.7621361,-5.1157 z"/>
        <rect width="6.817" height="2.188" x="4.397" y="1038.775" rx=".762" ry=".762"/>
      </g>
    </g>
  </g>
  <g transform="matrix(.90163 0 0 .90163 -1.614 -933.061)">
    <path fill="url(#A)" d="m 6.2167313,1040.1881 3.4054849,0 c 0.4530438,1.6907 2.7621358,2.5911 2.7621358,5.1157 l 0,2.8379 c 0,1.5302 -1.231912,2.7621 -2.7621358,2.7621 l -3.4054849,0 c -1.530224,0 -2.762136,-1.2319 -2.762136,-2.7621 l 0,-2.8379 c 0,-2.5909 2.334749,-3.5207 2.762136,-5.1157 z"/>
    <path fill="url(#B)" d="m 6.2167313,1040.1881 3.4054849,0 c 0.4530438,1.6907 2.7621358,2.5911 2.7621358,5.1157 l 0,2.8379 c 0,1.5302 -1.231912,2.7621 -2.7621358,2.7621 l -3.4054849,0 c -1.530224,0 -2.762136,-1.2319 -2.762136,-2.7621 l 0,-2.8379 c 0,-2.5909 2.334749,-3.5207 2.762136,-5.1157 z"/>
    <path fill="none" stroke="url(#C)" stroke-linejoin="round" stroke-width="1.109" d="m 6.2167313,1040.1881 3.4054849,0 c 0.4530438,1.6907 2.7621358,2.5911 2.7621358,5.1157 l 0,2.8379 c 0,1.5302 -1.231912,2.7621 -2.7621358,2.7621 l -3.4054849,0 c -1.530224,0 -2.762136,-1.2319 -2.762136,-2.7621 l 0,-2.8379 c 0,-2.5909 2.334749,-3.5207 2.762136,-5.1157 z"/>
    <rect width="6.817" height="2.188" x="4.397" y="1038.775" fill="url(#D)" stroke="url(#E)" stroke-linejoin="round" stroke-width="1.109" rx=".762" ry=".762"/>
    <path fill="none" stroke="url(#F)" stroke-linejoin="round" stroke-width="1.109" d="m 6.2167314,1040.1882 3.4054848,0 c 0.4530438,1.6907 2.7621358,2.5911 2.7621358,5.1157 l 0,2.8379 c 0,1.5302 -1.231912,2.7621 -2.7621358,2.7621 l -3.4054848,0 c -1.530224,0 -2.7621361,-1.2319 -2.7621361,-2.7621 l 0,-2.8379 c 0,-2.5909 2.334749,-3.5207 2.7621361,-5.1157 z"/>
    <rect width="6.817" height="2.188" x="4.397" y="1038.775" fill="url(#G)" stroke="url(#H)" stroke-linejoin="round" stroke-width="1.109" rx=".762" ry=".762"/>
  </g>
</svg>
