<?xml version="1.0" encoding="UTF-8" standalone="no"?>
<svg
   width="16"
   height="16"
   version="1.1"
   id="svg59"
   xmlns:xlink="http://www.w3.org/1999/xlink"
   xmlns="http://www.w3.org/2000/svg"
   xmlns:svg="http://www.w3.org/2000/svg">
  <defs
     id="defs47">
    <linearGradient
       id="h">
      <stop
         offset="0"
         stop-color="#b28a30"
         id="stop1" />
      <stop
         offset="1"
         stop-color="#7c703e"
         id="stop2" />
    </linearGradient>
    <linearGradient
       id="g">
      <stop
         offset="0"
         stop-color="#e0c88f"
         id="stop3" />
      <stop
         offset="1"
         stop-color="#d5b269"
         id="stop4" />
    </linearGradient>
    <linearGradient
       id="f">
      <stop
         offset="0"
         stop-color="#f9fafc"
         id="stop5" />
      <stop
         offset="1"
         stop-color="#dce7f7"
         id="stop6" />
    </linearGradient>
    <linearGradient
       id="a">
      <stop
         offset="0"
         stop-color="#d2e0f1"
         id="stop7" />
      <stop
         offset=".841"
         stop-color="#d2e0f1"
         id="stop8" />
      <stop
         offset="1"
         stop-color="#fcf2cf"
         id="stop9" />
    </linearGradient>
    <linearGradient
       id="b">
      <stop
         offset="0"
         stop-color="#fdfcfa"
         id="stop10" />
      <stop
         offset=".674"
         stop-color="#fff"
         stop-opacity=".251"
         id="stop11" />
      <stop
         offset="1"
         stop-color="#d2e0f1"
         stop-opacity="0"
         id="stop12" />
    </linearGradient>
    <linearGradient
       xlink:href="#c"
       id="C"
       x1="33.923"
       x2="33.923"
       y1="1051.258"
       y2="1040.46"
       gradientTransform="translate(-20.625)"
       gradientUnits="userSpaceOnUse" />
    <linearGradient
       id="c">
      <stop
         offset="0"
         stop-color="#7792b2"
         id="stop13" />
      <stop
         offset=".159"
         stop-color="#a1b3cb"
         id="stop14" />
      <stop
         offset=".466"
         stop-color="#6180a9"
         id="stop15" />
      <stop
         offset=".744"
         stop-color="#a1b3cb"
         id="stop16" />
      <stop
         offset="1"
         stop-color="#7995b8"
         id="stop17" />
    </linearGradient>
    <linearGradient
       id="d">
      <stop
         offset="0"
         stop-color="#fefdef"
         id="stop18" />
      <stop
         offset="1"
         stop-color="#fbdd83"
         id="stop19" />
    </linearGradient>
    <linearGradient
       id="e">
      <stop
         offset="0"
         stop-color="#c7a229"
         id="stop20" />
      <stop
         offset="1"
         stop-color="#a07e1e"
         id="stop21" />
    </linearGradient>
    <linearGradient
       xlink:href="#d"
       id="D"
       x1="25.083"
       x2="31.932"
       y1="1038.872"
       y2="1038.872"
       gradientTransform="translate(-20 .996)"
       gradientUnits="userSpaceOnUse" />
    <linearGradient
       xlink:href="#e"
       id="E"
       x1="27.425"
       x2="27.425"
       y1="1037.767"
       y2="1039.846"
       gradientTransform="translate(-20 .996)"
       gradientUnits="userSpaceOnUse" />
    <linearGradient
       xlink:href="#f"
       id="q"
       x1="9.895"
       x2="9.895"
       y1="1039.153"
       y2="1051.838"
       gradientTransform="translate(-1.978 -1.044)"
       gradientUnits="userSpaceOnUse" />
    <linearGradient
       xlink:href="#g"
       id="r"
       x1="7.999"
       x2="9.987"
       y1="1042.231"
       y2="1040.33"
       gradientTransform="translate(2.022 -1.044)"
       gradientUnits="userSpaceOnUse" />
    <linearGradient
       xlink:href="#h"
       id="s"
       x1="10.545"
       x2="10.545"
       y1="1038.578"
       y2="1052.323"
       gradientTransform="translate(-1.978 -1.044)"
       gradientUnits="userSpaceOnUse" />
    <linearGradient
       id="k">
      <stop
         offset="0"
         stop-color="#fefdef"
         id="stop22" />
      <stop
         offset="1"
         stop-color="#fbdd83"
         id="stop23" />
    </linearGradient>
    <linearGradient
       xlink:href="#i"
       id="H"
       x1="27.425"
       x2="27.425"
       y1="1037.767"
       y2="1039.846"
       gradientTransform="translate(-20 .996)"
       gradientUnits="userSpaceOnUse" />
    <linearGradient
       id="i">
      <stop
         offset="0"
         stop-color="#c7a229"
         id="stop24" />
      <stop
         offset="1"
         stop-color="#a07e1e"
         id="stop25" />
    </linearGradient>
    <linearGradient
       id="j">
      <stop
         offset="0"
         stop-color="#7792b2"
         id="stop26" />
      <stop
         offset=".159"
         stop-color="#a1b3cb"
         id="stop27" />
      <stop
         offset=".466"
         stop-color="#6180a9"
         id="stop28" />
      <stop
         offset=".744"
         stop-color="#a1b3cb"
         id="stop29" />
      <stop
         offset="1"
         stop-color="#7995b8"
         id="stop30" />
    </linearGradient>
    <linearGradient
       xlink:href="#j"
       id="F"
       x1="33.923"
       x2="33.923"
       y1="1051.258"
       y2="1040.46"
       gradientTransform="translate(-20.625)"
       gradientUnits="userSpaceOnUse" />
    <linearGradient
       xlink:href="#k"
       id="G"
       x1="25.083"
       x2="31.932"
       y1="1038.872"
       y2="1038.872"
       gradientTransform="translate(-20 .996)"
       gradientUnits="userSpaceOnUse" />
    <linearGradient
       id="l">
      <stop
         offset="0"
         stop-color="#d2e0f1"
         id="stop31" />
      <stop
         offset=".841"
         stop-color="#d2e0f1"
         id="stop32" />
      <stop
         offset="1"
         stop-color="#fcf2cf"
         id="stop33" />
    </linearGradient>
    <linearGradient
       id="m">
      <stop
         offset="0"
         stop-color="#fdfcfa"
         id="stop34" />
      <stop
         offset=".674"
         stop-color="#fff"
         stop-opacity=".251"
         id="stop35" />
      <stop
         offset="1"
         stop-color="#d2e0f1"
         stop-opacity="0"
         id="stop36" />
    </linearGradient>
    <linearGradient
       xlink:href="#n"
       id="x"
       x1="33.923"
       x2="33.923"
       y1="1051.258"
       y2="1040.46"
       gradientTransform="translate(-20.625)"
       gradientUnits="userSpaceOnUse" />
    <linearGradient
       id="n">
      <stop
         offset="0"
         stop-color="#7792b2"
         id="stop37" />
      <stop
         offset=".159"
         stop-color="#a1b3cb"
         id="stop38" />
      <stop
         offset=".466"
         stop-color="#6180a9"
         id="stop39" />
      <stop
         offset=".744"
         stop-color="#a1b3cb"
         id="stop40" />
      <stop
         offset="1"
         stop-color="#7995b8"
         id="stop41" />
    </linearGradient>
    <linearGradient
       xlink:href="#o"
       id="y"
       x1="25.083"
       x2="31.932"
       y1="1038.872"
       y2="1038.872"
       gradientTransform="translate(-20 .996)"
       gradientUnits="userSpaceOnUse" />
    <linearGradient
       id="o">
      <stop
         offset="0"
         stop-color="#fefdef"
         id="stop42" />
      <stop
         offset="1"
         stop-color="#fbdd83"
         id="stop43" />
    </linearGradient>
    <linearGradient
       xlink:href="#p"
       id="z"
       x1="27.425"
       x2="27.425"
       y1="1037.767"
       y2="1039.846"
       gradientTransform="translate(-20 .996)"
       gradientUnits="userSpaceOnUse" />
    <linearGradient
       id="p">
      <stop
         offset="0"
         stop-color="#c7a229"
         id="stop44" />
      <stop
         offset="1"
         stop-color="#a07e1e"
         id="stop45" />
    </linearGradient>
    <radialGradient
       xlink:href="#a"
       id="A"
       cx="28.539"
       cy="1043.182"
       r="5.391"
       fx="28.539"
       fy="1043.182"
       gradientTransform="matrix(0 1.43464 -1.60774 0 1685.08 1001.966)"
       gradientUnits="userSpaceOnUse" />
    <radialGradient
       xlink:href="#b"
       id="B"
       cx="28.553"
       cy="1043.123"
       r="5.016"
       fx="28.553"
       fy="1043.123"
       gradientTransform="matrix(.88536 .01424 -.02078 1.29183 4.323 -305.152)"
       gradientUnits="userSpaceOnUse" />
    <radialGradient
       xlink:href="#l"
       id="v"
       cx="28.539"
       cy="1043.182"
       r="5.391"
       fx="28.539"
       fy="1043.182"
       gradientTransform="matrix(0 1.43464 -1.60774 0 1685.08 1001.966)"
       gradientUnits="userSpaceOnUse" />
    <radialGradient
       xlink:href="#m"
       id="w"
       cx="28.553"
       cy="1043.123"
       r="5.016"
       fx="28.553"
       fy="1043.123"
       gradientTransform="matrix(.88536 .01424 -.02078 1.29183 4.323 -305.152)"
       gradientUnits="userSpaceOnUse" />
    <filter
       id="u"
       width="1.6730307"
       height="1.4955117"
       x="-0.33651533"
       y="-0.24775586"
       color-interpolation-filters="sRGB">
      <feGaussianBlur
         stdDeviation=".79"
         id="feGaussianBlur45" />
    </filter>
    <mask
       id="t"
       maskUnits="userSpaceOnUse">
      <g
         fill="#fff"
         stroke="#fff"
         id="g47">
        <path
           d="m 3.5193795,1037.8597 7.0096695,0 3.062057,3.0066 0,9.9546 -10.0717265,0 z"
           transform="translate(2 -.984)"
           id="path45" />
        <path
           d="m 9.998718,1037.397 0,3.9112 3.977478,0 z"
           transform="translate(2 -.984)"
           id="path46" />
        <path
           d="m 3.5193795,1037.8597 7.0096695,0 3.062057,3.0066 0,9.9546 -10.0717265,0 z"
           transform="translate(2 -.984)"
           id="path47" />
      </g>
    </mask>
  </defs>
  <path
     fill="url(#q)"
     d="m 3.5193795,1037.8597 7.0096695,0 3.062057,3.0066 0,9.9546 -10.0717265,0 z"
     transform="translate(2 -1037.346)"
     id="path48" />
  <path
     fill="url(#r)"
     d="m 9.998718,1037.397 0,3.9112 3.977478,0 z"
     transform="translate(2 -1037.346)"
     id="path49" />
  <path
     fill="none"
     stroke="url(#s)"
     d="m 3.5193795,1037.8597 7.0096695,0 3.062057,3.0066 0,9.9546 -10.0717265,0 z"
     transform="translate(2 -1037.346)"
     id="path50" />
  <g
     mask="url(#t)"
     transform="translate(0 -1036.362)"
     id="g56">
    <g
       stroke-width="2.218"
       filter="url(#u)"
       opacity=".75"
       transform="matrix(.90163 0 0 .90163 -1.614 103.301)"
       id="g55">
      <path
         fill="url(#v)"
         d="m 6.2167313,1040.1881 3.4054849,0 c 0.4530438,1.6907 2.7621358,2.5911 2.7621358,5.1157 l 0,2.8379 c 0,1.5302 -1.231912,2.7621 -2.7621358,2.7621 l -3.4054849,0 c -1.530224,0 -2.762136,-1.2319 -2.762136,-2.7621 l 0,-2.8379 c 0,-2.5909 2.334749,-3.5207 2.762136,-5.1157 z"
         id="path51" />
      <path
         fill="url(#w)"
         d="m 6.2167313,1040.1881 3.4054849,0 c 0.4530438,1.6907 2.7621358,2.5911 2.7621358,5.1157 l 0,2.8379 c 0,1.5302 -1.231912,2.7621 -2.7621358,2.7621 l -3.4054849,0 c -1.530224,0 -2.762136,-1.2319 -2.762136,-2.7621 l 0,-2.8379 c 0,-2.5909 2.334749,-3.5207 2.762136,-5.1157 z"
         id="path52" />
      <path
         fill="none"
         stroke="url(#x)"
         stroke-linejoin="round"
         d="m 6.2167313,1040.1881 3.4054849,0 c 0.4530438,1.6907 2.7621358,2.5911 2.7621358,5.1157 l 0,2.8379 c 0,1.5302 -1.231912,2.7621 -2.7621358,2.7621 l -3.4054849,0 c -1.530224,0 -2.762136,-1.2319 -2.762136,-2.7621 l 0,-2.8379 c 0,-2.5909 2.334749,-3.5207 2.762136,-5.1157 z"
         id="path53" />
      <rect
         width="6.817"
         height="2.188"
         x="4.397"
         y="1038.775"
         fill="url(#y)"
         stroke="url(#z)"
         stroke-linejoin="round"
         rx=".762"
         ry=".762"
         id="rect53" />
      <g
         fill="#fff"
         stroke="#fff"
         stroke-linejoin="round"
         id="g54">
        <path
           d="m 6.2167314,1040.1882 3.4054848,0 c 0.4530438,1.6907 2.7621358,2.5911 2.7621358,5.1157 l 0,2.8379 c 0,1.5302 -1.231912,2.7621 -2.7621358,2.7621 l -3.4054848,0 c -1.530224,0 -2.7621361,-1.2319 -2.7621361,-2.7621 l 0,-2.8379 c 0,-2.5909 2.334749,-3.5207 2.7621361,-5.1157 z"
           id="path54" />
        <rect
           width="6.817"
           height="2.188"
           x="4.397"
           y="1038.775"
           rx=".762"
           ry=".762"
           id="rect54" />
      </g>
    </g>
  </g>
  <g
     transform="matrix(.90163 0 0 .90163 -1.614 -933.061)"
     id="g59">
    <path
       fill="url(#A)"
       d="m 6.2167313,1040.1881 3.4054849,0 c 0.4530438,1.6907 2.7621358,2.5911 2.7621358,5.1157 l 0,2.8379 c 0,1.5302 -1.231912,2.7621 -2.7621358,2.7621 l -3.4054849,0 c -1.530224,0 -2.762136,-1.2319 -2.762136,-2.7621 l 0,-2.8379 c 0,-2.5909 2.334749,-3.5207 2.762136,-5.1157 z"
       id="path56" />
    <path
       fill="url(#B)"
       d="m 6.2167313,1040.1881 3.4054849,0 c 0.4530438,1.6907 2.7621358,2.5911 2.7621358,5.1157 l 0,2.8379 c 0,1.5302 -1.231912,2.7621 -2.7621358,2.7621 l -3.4054849,0 c -1.530224,0 -2.762136,-1.2319 -2.762136,-2.7621 l 0,-2.8379 c 0,-2.5909 2.334749,-3.5207 2.762136,-5.1157 z"
       id="path57" />
    <path
       fill="none"
       stroke="url(#C)"
       stroke-linejoin="round"
       stroke-width="1.109"
       d="m 6.2167313,1040.1881 3.4054849,0 c 0.4530438,1.6907 2.7621358,2.5911 2.7621358,5.1157 l 0,2.8379 c 0,1.5302 -1.231912,2.7621 -2.7621358,2.7621 l -3.4054849,0 c -1.530224,0 -2.762136,-1.2319 -2.762136,-2.7621 l 0,-2.8379 c 0,-2.5909 2.334749,-3.5207 2.762136,-5.1157 z"
       id="path58" />
    <rect
       width="6.817"
       height="2.188"
       x="4.397"
       y="1038.775"
       fill="url(#D)"
       stroke="url(#E)"
       stroke-linejoin="round"
       stroke-width="1.109"
       rx=".762"
       ry=".762"
       id="rect58" />
    <path
       fill="none"
       stroke="url(#F)"
       stroke-linejoin="round"
       stroke-width="1.109"
       d="m 6.2167314,1040.1882 3.4054848,0 c 0.4530438,1.6907 2.7621358,2.5911 2.7621358,5.1157 l 0,2.8379 c 0,1.5302 -1.231912,2.7621 -2.7621358,2.7621 l -3.4054848,0 c -1.530224,0 -2.7621361,-1.2319 -2.7621361,-2.7621 l 0,-2.8379 c 0,-2.5909 2.334749,-3.5207 2.7621361,-5.1157 z"
       id="path59" />
    <rect
       width="6.817"
       height="2.188"
       x="4.397"
       y="1038.775"
       fill="url(#G)"
       stroke="url(#H)"
       stroke-linejoin="round"
       stroke-width="1.109"
       rx=".762"
       ry=".762"
       id="rect59" />
  </g>
</svg>
