<svg xmlns="http://www.w3.org/2000/svg" xmlns:xlink="http://www.w3.org/1999/xlink" width="16" height="16">
  <defs>
    <linearGradient xlink:href="#a" id="f" x1="10.545" x2="10.545" y1="1038.578" y2="1052.323" gradientTransform="translate(-1.978 -1.044)" gradientUnits="userSpaceOnUse"/>
    <linearGradient id="a">
      <stop offset="0" stop-color="#b28a30"/>
      <stop offset="1" stop-color="#7c703e"/>
    </linearGradient>
    <linearGradient xlink:href="#b" id="e" x1="7.999" x2="9.987" y1="1042.231" y2="1040.33" gradientTransform="translate(2.022 -1.044)" gradientUnits="userSpaceOnUse"/>
    <linearGradient id="b">
      <stop offset="0" stop-color="#e0c88f"/>
      <stop offset="1" stop-color="#d5b269"/>
    </linearGradient>
    <linearGradient id="c">
      <stop offset="0" stop-color="#f9fafc"/>
      <stop offset="1" stop-color="#dce7f7"/>
    </linearGradient>
    <linearGradient xlink:href="#c" id="d" x1="9.895" x2="9.895" y1="1039.153" y2="1051.838" gradientTransform="translate(-1.978 -1.044)" gradientUnits="userSpaceOnUse"/>
  </defs>
  <path fill="url(#d)" d="m 3.5193795,1037.8597 7.0096695,0 3.062057,3.0066 0,9.9546 -10.0717265,0 z" transform="translate(0 -1036.362)"/>
  <path fill="url(#e)" d="m 9.998718,1037.397 0,3.9112 3.977478,0 z" transform="translate(0 -1036.362)"/>
  <path fill="none" stroke="url(#f)" d="m 3.5193795,1037.8597 7.0096695,0 3.062057,3.0066 0,9.9546 -10.0717265,0 z" transform="translate(0 -1036.362)"/>
  <path fill="#366c9a" d="m 6.6084618,1048.3431 c -0.2116277,-0.019 -0.4602115,-0.062 -0.6598209,-0.1162 -0.3097493,-0.083 -0.2788869,0.017 -0.2788869,-0.9031 0,-0.4813 0.0088,-0.7987 0.022313,-0.8035 0.012257,0 0.036259,0 0.053355,0.013 0.055439,0.038 0.3369032,0.1706 0.4300938,0.2023 0.2132743,0.072 0.5332849,0.1095 0.7587063,0.088 0.4997134,-0.048 0.838345,-0.3094 1.0086665,-0.7765 0.1373503,-0.3768 0.1304394,-0.2307 0.1445726,-3.0571 l 0.013011,-2.6 0.9485572,0 0.9485603,0 0.00704,2.4239 c 0.0073,2.5055 -6.28e-4,2.7987 -0.08886,3.2552 -0.1787185,0.9256 -0.684485,1.6223 -1.4343096,1.9754 -0.5040536,0.2374 -1.2358574,0.3542 -1.8729745,0.299 z" transform="translate(0 -1036.362)"/>
</svg>
