<svg xmlns="http://www.w3.org/2000/svg" xmlns:xlink="http://www.w3.org/1999/xlink" width="16" height="16">
  <defs>
    <linearGradient id="i">
      <stop offset="0" stop-color="#b4903d"/>
      <stop offset="1" stop-color="#a28137"/>
    </linearGradient>
    <linearGradient id="h">
      <stop offset="0" stop-color="#ad8e5f"/>
      <stop offset="1" stop-color="#8f6e4d"/>
    </linearGradient>
    <linearGradient id="g">
      <stop offset="0" stop-color="#ad8e5f"/>
      <stop offset="1" stop-color="#8f6e4d"/>
    </linearGradient>
    <linearGradient id="f">
      <stop offset="0" stop-color="#f0a53b"/>
      <stop offset=".269" stop-color="#f2d58f"/>
      <stop offset=".604" stop-color="#efb965"/>
      <stop offset="1" stop-color="#df9833"/>
    </linearGradient>
    <linearGradient id="b">
      <stop offset="0" stop-color="#f4d684"/>
      <stop offset=".25" stop-color="#fcf4c6"/>
      <stop offset=".5" stop-color="#fbeebc"/>
      <stop offset="1" stop-color="#eeb960"/>
    </linearGradient>
    <linearGradient id="d">
      <stop offset="0" stop-color="#e4a239"/>
      <stop offset="1" stop-color="#fada7d"/>
    </linearGradient>
    <linearGradient id="c">
      <stop offset="0" stop-color="#fef48d"/>
      <stop offset=".325" stop-color="#fffffe"/>
      <stop offset=".664" stop-color="#fffffe"/>
      <stop offset="1" stop-color="#fef48d"/>
    </linearGradient>
    <linearGradient id="e">
      <stop offset="0" stop-color="#bbb8bb"/>
      <stop offset=".25" stop-color="#ccc8cb"/>
      <stop offset=".5" stop-color="#bdb6bc"/>
      <stop offset="1" stop-color="#9b8c98"/>
    </linearGradient>
    <linearGradient id="a">
      <stop offset="0" stop-color="#906f4e"/>
      <stop offset="1" stop-color="#dfbd7f"/>
    </linearGradient>
    <linearGradient xlink:href="#a" id="j" x1="29.715" x2="29.715" y1="1041.326" y2="1039.139" gradientTransform="translate(0 -.012)" gradientUnits="userSpaceOnUse"/>
    <linearGradient xlink:href="#b" id="k" x1="27.01" x2="32.177" y1="1046.132" y2="1046.132" gradientUnits="userSpaceOnUse"/>
    <linearGradient xlink:href="#c" id="n" x1="26.881" x2="32.472" y1="1056.969" y2="1056.969" gradientUnits="userSpaceOnUse"/>
    <linearGradient xlink:href="#d" id="o" x1="25.982" x2="33.276" y1="1056.969" y2="1056.969" gradientUnits="userSpaceOnUse"/>
    <linearGradient xlink:href="#e" id="p" x1="26.452" x2="32.842" y1="1052.004" y2="1052.004" gradientUnits="userSpaceOnUse"/>
    <linearGradient xlink:href="#f" id="l" x1="26.107" x2="33.163" y1="1045.95" y2="1045.95" gradientUnits="userSpaceOnUse"/>
    <linearGradient xlink:href="#g" id="q" x1="25.367" x2="33.89" y1="1051.407" y2="1051.407" gradientUnits="userSpaceOnUse"/>
    <linearGradient xlink:href="#h" id="m" x1="25.368" x2="33.89" y1="1054.82" y2="1054.82" gradientUnits="userSpaceOnUse"/>
    <linearGradient xlink:href="#i" id="r" x1="-29.024" x2="-21.886" y1="1005.383" y2="1013.515" gradientUnits="userSpaceOnUse"/>
  </defs>
  <path fill="none" stroke="url(#j)" stroke-width="1.07" d="m 28.565245,1040.0695 -1.069887,2.1398 4.279549,0 -1.069887,-2.1398 c -0.472828,-0.9477 -1.844257,-0.7625 -2.139775,0 z" transform="rotate(45 1192.16 471.599) scale(.93468)"/>
  <path fill="url(#k)" stroke="url(#l)" d="m 26.607269,1042.2428 c 1.259438,-1.6377 4.858466,-1.5046 6.055728,0 l 0,8.5925 -6.055728,0 z" transform="rotate(45 1192.16 471.599) scale(.93468)"/>
  <path fill="#496da1" d="m 29.411544,1042.9075 c -0.368467,0.01 -0.72715,0.043 -1.069887,0.1003 l 0,2.4073 c 0.342737,-0.057 0.70142,-0.09 1.069887,-0.1003 z" color="#000" font-family="Sans" font-weight="400" overflow="visible" style="text-indent:0;text-align:start;line-height:normal;text-transform:none;block-progression:tb;marker:none;-inkscape-font-specification:Sans" transform="rotate(45 1192.16 471.599) scale(.93468)"/>
  <path fill="#ffffc9" stroke="url(#m)" d="m 29.645582,1053.51 c -1.546954,0 -3.096933,0.3554 -3.778039,1.0365 l 0,0.5683 c 1.362214,1.3622 6.178977,1.3438 7.522644,0 l 0,-0.5683 c -0.671834,-0.6719 -2.197651,-1.0342 -3.744605,-1.0365 z" transform="rotate(45 1192.16 471.599) scale(.93468)"/>
  <path fill="url(#n)" stroke="url(#o)" stroke-width=".88" d="m 26.422196,1052.4196 0,12.1257 6.413338,0 0,-12.1257 z" transform="rotate(45 1192.16 471.599) scale(.93468)"/>
  <path fill="url(#p)" stroke="url(#q)" stroke-linejoin="round" stroke-miterlimit="3" d="m 25.867543,1050.1666 0,4.3799 c 1.778049,-1.9187 5.89609,-1.8666 7.522644,0 l 0,-4.3799 c -1.258456,-2.537 -6.051006,-2.5281 -7.522644,0 z" transform="rotate(45 1192.16 471.599) scale(.93468)"/>
  <path fill="#fff" d="m 7.8599979e-4,1034.9573 0.0332657502,11.7512 9.54286335,0 -0.033266,-11.7512 z m 1.06463030021,1.0699 7.4136029,0 0.033266,9.6114 -7.4136028,0 z" color="#000" font-family="Sans" font-weight="400" opacity=".75" overflow="visible" style="text-indent:0;text-align:start;line-height:normal;text-transform:none;block-progression:tb;marker:none" transform="matrix(.93468 0 0 .93468 .01 -967.318)"/>
  <g transform="translate(29.035 -1004.144)">
    <rect width="6.806" height="8.927" x=".354" y=".444" fill="#fff" ry="0" transform="translate(-29.035 1004.144)"/>
    <path fill="url(#r)" d="m -28.935919,1004.1559 0.03125,10.0555 7.72611,0 -0.03125,-10.0555 z m 1,1 5.72611,0 0.03125,8.0555 -5.72611,0 z" color="#000" font-family="Sans" font-weight="400" overflow="visible" style="text-indent:0;text-align:start;line-height:normal;text-transform:none;block-progression:tb;marker:none;-inkscape-font-specification:Sans"/>
  </g>
  <path fill="#366c9a" d="m 4.7609494,1044.3396 c -0.1933415,-0.019 -0.420446,-0.062 -0.6028077,-0.1155 -0.2829848,-0.083 -0.2547891,0.017 -0.2547891,-0.8978 0,-0.4784 0.00804,-0.794 0.020385,-0.7988 0.011198,0 0.033126,0 0.048745,0.013 0.050649,0.038 0.3077924,0.1696 0.3929307,0.2011 0.1948459,0.072 0.4872053,0.1088 0.6931487,0.087 0.4565347,-0.048 0.7659062,-0.3076 0.9215107,-0.772 0.1254823,-0.3746 0.1191685,-0.2293 0.1320805,-3.0391 l 0.011887,-2.5847 0.8665952,0 0.8665981,0 0.00643,2.4096 c 0.00666,2.4908 -5.741e-4,2.7823 -0.081182,3.2361 -0.163276,0.9202 -0.6253407,1.6128 -1.3103752,1.9638 -0.4604999,0.236 -1.1290707,0.3521 -1.7111364,0.2972 z" transform="matrix(1.0223 0 0 .721 -2.114 -745.197)"/>
</svg>
