<svg xmlns="http://www.w3.org/2000/svg" xmlns:xlink="http://www.w3.org/1999/xlink" width="16" height="16">
  <defs>
    <linearGradient id="a">
      <stop offset="0" stop-color="#c48a4e"/>
      <stop offset="1" stop-color="#ad6c24"/>
    </linearGradient>
    <linearGradient id="b">
      <stop offset="0" stop-color="#f8d078"/>
      <stop offset="1" stop-color="#f8f0c8"/>
    </linearGradient>
    <linearGradient id="c">
      <stop offset="0" stop-color="#9e6627"/>
      <stop offset="1" stop-color="#c38536"/>
    </linearGradient>
    <linearGradient id="d">
      <stop offset="0" stop-color="#c38536"/>
      <stop offset=".154" stop-color="#f2dc91"/>
      <stop offset=".5" stop-color="#fbdc8b"/>
      <stop offset=".75" stop-color="#e6bd7a"/>
      <stop offset="1" stop-color="#ba772f"/>
    </linearGradient>
    <linearGradient id="e">
      <stop offset="0" stop-color="#c48a4e"/>
      <stop offset="1" stop-color="#ad6c24"/>
    </linearGradient>
    <linearGradient id="f">
      <stop offset="0" stop-color="#f8d078"/>
      <stop offset="1" stop-color="#f8f0c8"/>
    </linearGradient>
    <linearGradient id="g">
      <stop offset="0" stop-color="#9e6627"/>
      <stop offset="1" stop-color="#c38536"/>
    </linearGradient>
    <linearGradient id="h">
      <stop offset="0" stop-color="#c38536"/>
      <stop offset=".154" stop-color="#f2dc91"/>
      <stop offset=".5" stop-color="#fbdc8b"/>
      <stop offset=".75" stop-color="#e6bd7a"/>
      <stop offset="1" stop-color="#ba772f"/>
    </linearGradient>
    <linearGradient xlink:href="#a" id="k" x1="531.093" x2="531.093" y1="366.789" y2="371.179" gradientTransform="matrix(.33026 0 0 .33026 -167.842 920.636)" gradientUnits="userSpaceOnUse"/>
    <linearGradient xlink:href="#b" id="l" x1="538.006" x2="538.006" y1="396.223" y2="374.212" gradientTransform="matrix(.31448 0 0 .31448 -159.095 926.2)" gradientUnits="userSpaceOnUse"/>
    <linearGradient xlink:href="#c" id="m" x1="548.459" x2="548.459" y1="398.988" y2="373.771" gradientTransform="matrix(.31448 0 0 .31448 -159.095 926.2)" gradientUnits="userSpaceOnUse"/>
    <linearGradient xlink:href="#d" id="n" x1="525.668" x2="543.914" y1="373.229" y2="373.229" gradientTransform="matrix(.33026 0 0 .33026 -168.782 920.627)" gradientUnits="userSpaceOnUse"/>
    <linearGradient xlink:href="#e" id="o" x1="531.093" x2="531.093" y1="366.789" y2="371.179" gradientTransform="matrix(.33026 0 0 .33026 -167.842 920.636)" gradientUnits="userSpaceOnUse"/>
    <linearGradient xlink:href="#f" id="p" x1="538.006" x2="538.006" y1="396.223" y2="374.212" gradientTransform="matrix(.31448 0 0 .31448 -159.095 926.2)" gradientUnits="userSpaceOnUse"/>
    <linearGradient xlink:href="#g" id="q" x1="548.459" x2="548.459" y1="398.988" y2="373.771" gradientTransform="matrix(.31448 0 0 .31448 -159.095 926.2)" gradientUnits="userSpaceOnUse"/>
    <linearGradient xlink:href="#h" id="r" x1="525.668" x2="543.914" y1="373.229" y2="373.229" gradientTransform="matrix(.33026 0 0 .33026 -167.136 920.196)" gradientUnits="userSpaceOnUse"/>
    <filter id="j" width="1.344" height="1.378" x="-.172" y="-.189" color-interpolation-filters="sRGB">
      <feGaussianBlur stdDeviation=".71"/>
    </filter>
    <filter id="t" color-interpolation-filters="sRGB">
      <feGaussianBlur stdDeviation=".281"/>
    </filter>
    <mask id="i" maskUnits="userSpaceOnUse">
      <g fill="#fff" stroke="#fff" stroke-width="1.241">
        <path stroke-linecap="round" stroke-linejoin="round" d="m 7.384675,1041.8573 2.282522,0 c 0.480278,0 0.866929,0.3866 0.866929,0.8669 l 0,3.7566 c 0,0.4802 -0.386651,0.8669 -0.866929,0.8669 l -2.282522,0 c -0.480279,0 -0.866929,-0.3867 -0.866929,-0.8669 l 0,-3.7566 c 0,-0.4803 0.38665,-0.8669 0.866929,-0.8669 z" transform="matrix(.80565 0 0 .80565 3.088 201.246)"/>
        <path stroke-linecap="round" stroke-linejoin="round" d="m 8.2786681,1043.8847 6.3593049,0 c 0.457329,0 0.825504,0.3683 0.825504,0.8256 l 0,5.3284 c 0,0.4574 -0.368172,0.826 -0.825504,0.8255 l -8.2637361,-0.01 c -0.457332,-6e-4 -0.8255033,-0.3681 -0.8255033,-0.8255 l 0,-5.3221 c 0,-0.4572 0.3541007,-0.8264 0.8255033,-0.8255 z" transform="matrix(.80565 0 0 .80565 3.088 201.246)"/>
        <path d="m 5.997164,1043.8894 5.698634,0" transform="matrix(.80565 0 0 .80565 3.088 201.246)"/>
      </g>
    </mask>
    <mask id="s" maskUnits="userSpaceOnUse">
      <g fill="#fff" stroke="#fff" stroke-width="1.241">
        <path stroke-linecap="round" stroke-linejoin="round" d="m 7.384675,1041.8573 2.282522,0 c 0.480278,0 0.866929,0.3866 0.866929,0.8669 l 0,3.7566 c 0,0.4802 -0.386651,0.8669 -0.866929,0.8669 l -2.282522,0 c -0.480279,0 -0.866929,-0.3867 -0.866929,-0.8669 l 0,-3.7566 c 0,-0.4803 0.38665,-0.8669 0.866929,-0.8669 z" transform="matrix(.80565 0 0 .80565 3.088 201.246)"/>
        <path stroke-linecap="round" stroke-linejoin="round" d="m 8.2786681,1043.8847 6.3593049,0 c 0.457329,0 0.825504,0.3683 0.825504,0.8256 l 0,5.3284 c 0,0.4574 -0.368172,0.826 -0.825504,0.8255 l -8.2637361,-0.01 c -0.457332,-6e-4 -0.8255033,-0.3681 -0.8255033,-0.8255 l 0,-5.3221 c 0,-0.4572 0.3541007,-0.8264 0.8255033,-0.8255 z" transform="matrix(.80565 0 0 .80565 3.088 201.246)"/>
        <path d="m 5.997164,1043.8894 5.698634,0" transform="matrix(.80565 0 0 .80565 3.088 201.246)"/>
        <path stroke-linecap="round" stroke-linejoin="round" d="m 7.384675,1041.8573 2.282522,0 c 0.480278,0 0.866929,0.3866 0.866929,0.8669 l 0,3.7566 c 0,0.4802 -0.386651,0.8669 -0.866929,0.8669 l -2.282522,0 c -0.480279,0 -0.866929,-0.3867 -0.866929,-0.8669 l 0,-3.7566 c 0,-0.4803 0.38665,-0.8669 0.866929,-0.8669 z" transform="matrix(.80565 0 0 .80565 .027 204.274)"/>
        <path stroke-linecap="round" stroke-linejoin="round" d="m 8.2786681,1043.8847 6.3593049,0 c 0.457329,0 0.825504,0.3683 0.825504,0.8256 l 0,5.3284 c 0,0.4574 -0.368172,0.826 -0.825504,0.8255 l -8.2637361,-0.01 c -0.457332,-6e-4 -0.8255033,-0.3681 -0.8255033,-0.8255 l 0,-5.3221 c 0,-0.4572 0.3541007,-0.8264 0.8255033,-0.8255 z" transform="matrix(.80565 0 0 .80565 .027 204.274)"/>
        <path d="m 5.997164,1043.8894 5.698634,0" transform="matrix(.80565 0 0 .80565 .027 204.274)"/>
      </g>
    </mask>
  </defs>
  <g mask="url(#i)" transform="translate(0 -1036.362)">
    <g fill="#fff" stroke="#fff" stroke-width="2.482" filter="url(#j)" opacity=".75" transform="matrix(.80565 0 0 .80565 .027 204.274)">
      <path stroke-linecap="round" stroke-linejoin="round" d="m 7.384675,1041.8573 2.282522,0 c 0.480278,0 0.866929,0.3866 0.866929,0.8669 l 0,3.7566 c 0,0.4802 -0.386651,0.8669 -0.866929,0.8669 l -2.282522,0 c -0.480279,0 -0.866929,-0.3867 -0.866929,-0.8669 l 0,-3.7566 c 0,-0.4803 0.38665,-0.8669 0.866929,-0.8669 z"/>
      <path stroke-linecap="round" stroke-linejoin="round" d="m 8.2786681,1043.8847 6.3593049,0 c 0.457329,0 0.825504,0.3683 0.825504,0.8256 l 0,5.3284 c 0,0.4574 -0.368172,0.826 -0.825504,0.8255 l -8.2637361,-0.01 c -0.457332,-6e-4 -0.8255033,-0.3681 -0.8255033,-0.8255 l 0,-5.3221 c 0,-0.4572 0.3541007,-0.8264 0.8255033,-0.8255 z"/>
      <path d="m 5.997164,1043.8894 5.698634,0"/>
    </g>
  </g>
  <g stroke-width="1.241">
    <path fill="#fdf7eb" stroke="url(#k)" stroke-linecap="round" stroke-linejoin="round" d="m 6.3544417,1042.641 1.9413665,0 c 0.480278,0 0.866929,0.3866 0.866929,0.8669 l 0,2.9729 c 0,0.4802 -0.386651,0.8669 -0.866929,0.8669 l -1.9413665,0 c -0.480279,0 -0.866929,-0.3867 -0.866929,-0.8669 l 0,-2.9729 c 0,-0.4803 0.38665,-0.8669 0.866929,-0.8669 z" transform="matrix(.80565 0 0 .80565 3.088 -835.473)"/>
    <path fill="url(#l)" stroke="url(#m)" stroke-linecap="round" stroke-linejoin="round" d="m 6.8933562,1043.8847 6.4124108,0 c 0.457329,0 0.825504,0.3683 0.825504,0.8256 l 0,5.3284 c 0,0.4574 -0.368172,0.826 -0.825504,0.8255 l -8.316842,-0.01 c -0.4573321,-5e-4 -0.8255033,-0.3681 -0.8255033,-0.8255 l 0,-5.3221 c 0,-0.4572 0.3541007,-0.8264 0.8255033,-0.8255 z" transform="matrix(.80565 0 0 .80565 3.088 -835.473)"/>
    <path fill="none" stroke="url(#n)" d="m 4.8216879,1043.8894 5.6986341,0" transform="matrix(.80565 0 0 .80565 3.088 -835.473)"/>
    <path fill="#fdf7eb" stroke="url(#o)" stroke-linecap="round" stroke-linejoin="round" d="m 7.6617374,1042.2491 3.2984836,0 c 0.480278,0 0.866929,0.3866 0.866929,0.8669 l 0,3.3648 c 0,0.4802 -0.386651,0.8669 -0.866929,0.8669 l -3.2984836,0 c -0.480279,0 -0.866929,-0.3867 -0.866929,-0.8669 l 0,-3.3648 c 0,-0.4803 0.38665,-0.8669 0.866929,-0.8669 z" transform="matrix(.80565 0 0 .80565 -.955 -832.155)"/>
    <path fill="url(#p)" stroke="url(#q)" stroke-linecap="round" stroke-linejoin="round" d="m 8.2786681,1043.4929 6.3593049,0 c 0.457329,0 0.825504,0.3683 0.825504,0.8256 l 0,5.7202 c 0,0.4574 -0.368172,0.826 -0.825504,0.8255 l -8.2637361,-0.01 c -0.457332,-6e-4 -0.8255033,-0.3681 -0.8255033,-0.8255 l 0,-5.7139 c 0,-0.4572 0.3541007,-0.8264 0.8255033,-0.8255 z" transform="matrix(.80565 0 0 .80565 -.955 -832.155)"/>
    <path fill="none" stroke="url(#r)" d="m 6.4673544,1043.4584 5.6986336,0" transform="matrix(.80565 0 0 .80565 -.955 -832.155)"/>
  </g>
  <g fill="#fff" stroke="#fff" stroke-width="2" filter="url(#t)" mask="url(#s)" opacity=".75" transform="translate(-.759 -1036.094)">
    <path d="m 2.7391088,1044.328 c -0.1713098,-0.017 -0.3725357,-0.055 -0.5341173,-0.1026 -0.2507392,-0.073 -0.2257557,0.014 -0.2257557,-0.7956 0,-0.4239 0.00713,-0.7034 0.018062,-0.7078 0.00992,0 0.029348,0 0.043188,0.012 0.044873,0.034 0.2727194,0.1503 0.3481559,0.1783 0.1726438,0.064 0.4316883,0.096 0.614165,0.077 0.4045126,-0.044 0.6786309,-0.2727 0.8165047,-0.6841 0.1111832,-0.3317 0.1055887,-0.2031 0.1170296,-2.6928 l 0.010526,-2.2902 0.7678468,0 0.7678487,0 0.00574,2.135 c 0.00593,2.2071 -5.082e-4,2.4653 -0.071934,2.8674 -0.144671,0.8156 -0.5540829,1.4291 -1.1610583,1.7402 -0.408026,0.209 -1.0004127,0.3119 -1.516152,0.2632 z"/>
  </g>
  <path fill="#366c9a" d="m 1.5260516,1044.328 c -0.2190511,-0.017 -0.4763554,-0.055 -0.68296724,-0.1026 -0.3206162,-0.073 -0.2886702,0.014 -0.2886702,-0.7956 0,-0.4239 0.009117,-0.7034 0.0230956,-0.7078 0.0126845,0 0.0375268,0 0.0552238,0.012 0.0573784,0.034 0.34872193,0.1503 0.44518134,0.1783 0.2207569,0.064 0.5519929,0.096 0.785323,0.077 0.5172438,-0.044 0.8677544,-0.2727 1.0440515,-0.6841 0.1421681,-0.3317 0.1350145,-0.2031 0.1496438,-2.6928 l 0.01346,-2.2902 0.9818334,0 0.9818358,0 0.00734,2.135 c 0.00758,2.2071 -6.499e-4,2.4653 -0.091981,2.8674 -0.1849885,0.8156 -0.7084969,1.4291 -1.4846267,1.7402 -0.5217363,0.209 -1.2792117,0.3119 -1.9386792,0.2632 z" transform="translate(0 -1036.362)"/>
</svg>
