<svg xmlns="http://www.w3.org/2000/svg" xmlns:xlink="http://www.w3.org/1999/xlink" width="16" height="16">
  <defs>
    <linearGradient xlink:href="#a" id="f" x1="6.664" x2="6.664" y1="1051.852" y2="1053.622" gradientTransform="matrix(.97907 0 0 1.06064 .303 -67.583)" gradientUnits="userSpaceOnUse"/>
    <linearGradient id="a">
      <stop offset="0" stop-color="#d48a4b"/>
      <stop offset="1" stop-color="#b1623a"/>
    </linearGradient>
    <linearGradient xlink:href="#b" id="g" x1="6.664" x2="6.664" y1="1051.852" y2="1053.622" gradientTransform="matrix(.97907 0 0 1.06064 .303 -67.583)" gradientUnits="userSpaceOnUse"/>
    <linearGradient id="b">
      <stop offset="0" stop-color="#b86c44"/>
      <stop offset="1" stop-color="#8f4017"/>
    </linearGradient>
    <linearGradient xlink:href="#c" id="h" x1="5.925" x2="5.925" y1="1051.61" y2="1054.206" gradientTransform="matrix(.932 0 0 1.05337 .566 -64.083)" gradientUnits="userSpaceOnUse"/>
    <linearGradient id="c">
      <stop offset="0" stop-color="#4dac81"/>
      <stop offset="1" stop-color="#058048"/>
    </linearGradient>
    <linearGradient id="d">
      <stop offset="0" stop-color="#8bc7d7"/>
      <stop offset="1" stop-color="#17477c"/>
    </linearGradient>
    <linearGradient id="e">
      <stop offset="0" stop-color="#df9a39"/>
      <stop offset="1" stop-color="#b55829"/>
    </linearGradient>
    <linearGradient xlink:href="#d" id="i" x1="-.812" x2="-.812" y1="1040.362" y2="1044.362" gradientTransform="translate(6 -1)" gradientUnits="userSpaceOnUse"/>
    <linearGradient xlink:href="#e" id="j" x1="15.073" x2="18.745" y1="1040.076" y2="1049.201" gradientTransform="translate(-4.58 .695)" gradientUnits="userSpaceOnUse"/>
  </defs>
  <path fill="url(#f)" stroke="url(#g)" d="M1.688 1046.862H10.688V1049.862H1.688z" transform="translate(-.188 -1036.362)"/>
  <path fill="#78b87c" stroke="url(#h)" d="M2.688 1043.862H9.688V1045.862H2.688z" transform="translate(-.188 -1036.362)"/>
  <path fill="url(#i)" d="M1.188 1041.362H8.188V1043.362H1.188z" transform="translate(-.188 -1036.362)"/>
  <path fill="#0595d3" d="M2.188 1041.362H7.188V1042.362H2.188z" transform="translate(-.188 -1036.362)"/>
  <path fill="#f0c028" stroke="url(#j)" d="m 9.6802586,1040.2852 c 0.08839,-0.044 1.5696584,-0.9063 1.5696584,-0.9063 l 3.976711,10.3859 -1.956435,0.5243 z" transform="translate(-.188 -1036.362)"/>
</svg>
