<svg xmlns="http://www.w3.org/2000/svg" xmlns:xlink="http://www.w3.org/1999/xlink" width="16" height="16">
  <defs>
    <linearGradient xlink:href="#a" id="e" x1="1.433" x2="3.073" y1="6.461" y2="8.105" gradientUnits="userSpaceOnUse"/>
    <linearGradient id="a">
      <stop offset="0" stop-color="#d5f3ff"/>
      <stop offset="1" stop-color="#fcffff"/>
    </linearGradient>
    <linearGradient id="b">
      <stop offset="0" stop-color="#d5f3ff"/>
      <stop offset="1" stop-color="#fcffff"/>
    </linearGradient>
    <linearGradient xlink:href="#b" id="f" x1="1.433" x2="3.073" y1="6.461" y2="8.105" gradientUnits="userSpaceOnUse"/>
    <linearGradient xlink:href="#c" id="g" x1="11.718" x2="11.718" y1="1047.274" y2="1043.119" gradientTransform="translate(19.912)" gradientUnits="userSpaceOnUse"/>
    <linearGradient id="c">
      <stop offset="0" stop-color="#c1ebca"/>
      <stop offset=".267" stop-color="#b3dac7"/>
      <stop offset=".517" stop-color="#9ec2c3"/>
      <stop offset="1" stop-color="#7a99bb"/>
    </linearGradient>
    <linearGradient id="d">
      <stop offset="0" stop-color="#6994ad"/>
      <stop offset="1" stop-color="#095a98"/>
    </linearGradient>
    <linearGradient xlink:href="#d" id="h" x1="11.418" x2="11.418" y1="1067.173" y2="1063.019" gradientTransform="translate(19.912 -20)" gradientUnits="userSpaceOnUse"/>
  </defs>
  <g stroke="#324e6e">
    <path fill="none" d="m 12.535948,1057.3138 c 0,0 0.409535,-0.5625 1.699794,-0.5625 1.290259,0 1.658145,0.5 1.658145,0.5" transform="matrix(.77148 0 0 .77148 -5.454 -810.739)"/>
    <path fill="none" stroke-linecap="round" stroke-linejoin="round" d="m8.781 1057.286.523-.547 3.392-3.548c.829-.773 2.088-.873 2.088 1.701M17.623 1058.207l4.077-4.265c.829-.773 2.088-.873 2.088 1.702" transform="matrix(.77148 0 0 .77148 -5.454 -810.739)"/>
    <path fill="url(#e)" stroke-width="1.119" d="m 4.7343755,7.5624995 c 0,1.2253819 -0.9933683,2.2187503 -2.2187503,2.2187503 -1.2253819,0 -2.2187502,-0.9933684 -2.2187502,-2.2187503 0,-1.2253819 0.9933683,-2.2187502 2.2187502,-2.2187502 1.225382,0 2.2187503,0.9933683 2.2187503,2.2187502 z" transform="translate(1.082 .854) scale(.68945)"/>
    <path fill="url(#f)" stroke-width="1.119" d="m 4.7343755,7.5624995 c 0,1.2253819 -0.9933683,2.2187503 -2.2187503,2.2187503 -1.2253819,0 -2.2187502,-0.9933684 -2.2187502,-2.2187503 0,-1.2253819 0.9933683,-2.2187502 2.2187502,-2.2187502 1.225382,0 2.2187503,0.9933683 2.2187503,2.2187502 z" transform="translate(6.482 .854) scale(.68945)"/>
  </g>
  <path fill="url(#g)" d="m 26.071923,1043.9275 0,2.3878 5.089689,0 0,1.5313 3.781143,-2.432 -3.781143,-3.0027 0,1.5156 z" transform="matrix(1 0 0 -1 -19.175 1056.32)"/>
  <path fill="url(#h)" d="m 30.161612,1041.8097 0,1.5156 -3.354854,0 -1,0 c -0.99185,0.9918 -0.986324,3.0037 0,3.99 l 1,0 3.354854,0 0,1.5313 c 0,0.6519 0.740915,0.6375 1.5,0 l 3.923255,-3.4983 -3.923255,-3.5386 c -0.760225,-0.7602 -1.5,-0.5203 -1.5,0 z m 1,1 2.985755,2.5386 -2.985755,2.4983 0,-1.5313 -4.792354,0 c -0.276214,-0.2099 -0.277444,-1.7182 0,-1.99 l 4.792354,0 z" transform="matrix(1 0 0 -1 -19.175 1056.32)"/>
</svg>
