<svg xmlns="http://www.w3.org/2000/svg" xmlns:xlink="http://www.w3.org/1999/xlink" width="16" height="16">
  <defs>
    <linearGradient xlink:href="#a" id="f" x1="-11.211" x2="-8.701" y1="1042.16" y2="1044.67" gradientTransform="translate(20)" gradientUnits="userSpaceOnUse"/>
    <linearGradient id="a">
      <stop offset="0" stop-color="#986443"/>
      <stop offset="1" stop-color="#994f1b"/>
    </linearGradient>
    <linearGradient xlink:href="#b" id="h" x1="-.981" x2="1.984" y1="1047.424" y2="1050.319" gradientTransform="translate(4 -1036.362)" gradientUnits="userSpaceOnUse"/>
    <linearGradient id="b">
      <stop offset="0" stop-color="#e4cf94"/>
      <stop offset=".322" stop-color="#ede0ba"/>
      <stop offset=".648" stop-color="#c1aa7e"/>
      <stop offset="1" stop-color="#ad8865"/>
    </linearGradient>
    <linearGradient id="c">
      <stop offset="0" stop-color="#4d4d4d"/>
      <stop offset=".294" stop-color="#727272"/>
      <stop offset="1" stop-color="#4d4d4d"/>
    </linearGradient>
    <linearGradient xlink:href="#c" id="i" x1="2.656" x2="4.082" y1="1049.398" y2="1050.53" gradientUnits="userSpaceOnUse"/>
    <linearGradient xlink:href="#d" id="j" x1="11.718" x2="11.718" y1="1047.274" y2="1043.119" gradientTransform="translate(19.912)" gradientUnits="userSpaceOnUse"/>
    <linearGradient id="d">
      <stop offset="0" stop-color="#c1ebca"/>
      <stop offset=".267" stop-color="#b3dac7"/>
      <stop offset=".517" stop-color="#9ec2c3"/>
      <stop offset="1" stop-color="#7a99bb"/>
    </linearGradient>
    <linearGradient id="e">
      <stop offset="0" stop-color="#6994ad"/>
      <stop offset="1" stop-color="#095a98"/>
    </linearGradient>
    <linearGradient xlink:href="#e" id="k" x1="11.418" x2="11.418" y1="1067.173" y2="1063.019" gradientTransform="translate(19.912 -20)" gradientUnits="userSpaceOnUse"/>
    <filter id="g" color-interpolation-filters="sRGB">
      <feGaussianBlur stdDeviation=".222"/>
    </filter>
  </defs>
  <path fill="none" stroke="url(#f)" stroke-linejoin="round" d="m 15.685953,1040.5523 -8.747594,8.7054 -5.461084,2.5938 2.59375,-5.4564 8.663811,-8.7231 c 1.269887,0.6025 2.210467,1.6169 2.951117,2.8807 z" color="#000" enable-background="accumulate" font-family="Sans" font-weight="400" overflow="visible" style="text-indent:0;text-align:start;line-height:normal;text-transform:none;block-progression:tb;marker:none;-inkscape-font-specification:Sans" transform="translate(-.28 -746.632) scale(.7205)"/>
  <path fill="#ffcb72" d="m 12.75,1037.6747 -8.6875,8.7188 0.9375,0.9062 8.9375,-8.875 c -0.362696,-0.2963 -0.752826,-0.5438 -1.1875,-0.75 z" color="#000" enable-background="accumulate" font-family="Sans" font-weight="400" overflow="visible" style="text-indent:0;text-align:start;line-height:normal;text-transform:none;block-progression:tb;marker:none;-inkscape-font-specification:Sans" transform="translate(-.28 -746.632) scale(.7205)"/>
  <path fill="#e5a856" d="m 15.3125,1039.956 -8.78125,8.9062 0.40625,0.4063 8.75,-8.7188 c -0.120121,-0.205 -0.24381,-0.4026 -0.375,-0.5937 z" color="#000" enable-background="accumulate" font-family="Sans" font-weight="400" overflow="visible" style="text-indent:0;text-align:start;line-height:normal;text-transform:none;block-progression:tb;marker:none;-inkscape-font-specification:Sans" transform="translate(-.28 -746.632) scale(.7205)"/>
  <path fill="#fbbc67" d="m 6.536718,1048.8567 -1.548139,-1.5456 8.939717,-8.8821 c 0.52506,0.4288 0.980135,0.9451 1.380966,1.5292 z" color="#000" enable-background="accumulate" font-family="Sans" font-weight="400" overflow="visible" style="text-indent:0;text-align:start;line-height:normal;text-transform:none;block-progression:tb;marker:none;-inkscape-font-specification:Sans" transform="translate(-.28 -746.632) scale(.7205)"/>
  <path fill="none" stroke="#fff" d="m 4.984376,1047.2528 8.937501,-8.8281" filter="url(#g)" opacity=".5" transform="translate(-.28 -746.632) scale(.7205)"/>
  <path fill="url(#h)" d="M 5.40625,8.6875 4.09375,10 2.6875,12.9375 l 1.375,1.28125 -0.03125,0.0625 2.9375,-1.40625 0.75,-0.75 0.1875,-2 L 5.1875,9.96875 c 0,0 0.127199,-0.74275 0.21875,-1.28125 z" transform="translate(-.28 .07) scale(.7205)"/>
  <path fill="url(#i)" d="m 3.25,1049.1435 c -0.211528,0.024 -0.41079,0.089 -0.5625,0.1562 l -1.21875,2.5625 2.5625,-1.2187 0.03125,-0.062 c 0.121601,-0.3002 0.273127,-0.8318 -0.09375,-1.2188 -0.132606,-0.1402 -0.331591,-0.1963 -0.5,-0.2187 -0.08057,-0.011 -0.138928,-0.01 -0.21875,0 z" transform="translate(-.28 -746.632) scale(.7205)"/>
  <path fill="url(#j)" d="m 26.071923,1043.9275 0,2.3878 5.089689,0 0,1.5313 3.781143,-2.432 -3.781143,-3.0027 0,1.5156 z" transform="matrix(1 0 0 -1 -19.175 1056.32)"/>
  <path fill="url(#k)" d="m 30.161612,1041.8097 0,1.5156 -3.354854,0 -1,0 c -0.99185,0.9918 -0.986324,3.0037 0,3.99 l 1,0 3.354854,0 0,1.5313 c 0,0.6519 0.740915,0.6375 1.5,0 l 3.923255,-3.4983 -3.923255,-3.5386 c -0.760225,-0.7602 -1.5,-0.5203 -1.5,0 z m 1,1 2.985755,2.5386 -2.985755,2.4983 0,-1.5313 -4.792354,0 c -0.276214,-0.2099 -0.277444,-1.7182 0,-1.99 l 4.792354,0 z" transform="matrix(1 0 0 -1 -19.175 1056.32)"/>
</svg>
