<svg xmlns="http://www.w3.org/2000/svg" xmlns:xlink="http://www.w3.org/1999/xlink" width="16" height="16">
  <defs>
    <linearGradient xlink:href="#a" id="o" x1="11.718" x2="11.718" y1="1047.274" y2="1043.119" gradientTransform="translate(19.746 -.055)" gradientUnits="userSpaceOnUse"/>
    <linearGradient id="a">
      <stop offset="0" stop-color="#c1ebca"/>
      <stop offset=".267" stop-color="#b3dac7"/>
      <stop offset=".517" stop-color="#9ec2c3"/>
      <stop offset="1" stop-color="#7a99bb"/>
    </linearGradient>
    <linearGradient id="b">
      <stop offset="0" stop-color="#6994ad"/>
      <stop offset="1" stop-color="#095a98"/>
    </linearGradient>
    <linearGradient xlink:href="#b" id="p" x1="11.418" x2="11.418" y1="1067.173" y2="1063.019" gradientTransform="translate(19.773 -20.055)" gradientUnits="userSpaceOnUse"/>
    <linearGradient xlink:href="#c" id="h" x1="12.518" x2="12.518" y1="1037.615" y2="1044.481" gradientUnits="userSpaceOnUse"/>
    <linearGradient id="c">
      <stop offset="0" stop-color="#567ead"/>
      <stop offset="1" stop-color="#35679d"/>
    </linearGradient>
    <linearGradient xlink:href="#d" id="i" x1="531.093" x2="531.093" y1="366.789" y2="371.179" gradientTransform="translate(-61.367 1.445)" gradientUnits="userSpaceOnUse"/>
    <linearGradient id="d">
      <stop offset="0" stop-color="#c48a4e"/>
      <stop offset="1" stop-color="#ad6c24"/>
    </linearGradient>
    <linearGradient xlink:href="#e" id="j" x1="538.006" x2="538.006" y1="396.223" y2="374.212" gradientTransform="translate(-60.559)" gradientUnits="userSpaceOnUse"/>
    <linearGradient id="e">
      <stop offset="0" stop-color="#f8d078"/>
      <stop offset="1" stop-color="#f8f0c8"/>
    </linearGradient>
    <linearGradient xlink:href="#f" id="k" x1="548.459" x2="548.459" y1="398.988" y2="373.771" gradientTransform="translate(-60.559)" gradientUnits="userSpaceOnUse"/>
    <linearGradient id="f">
      <stop offset="0" stop-color="#9e6627"/>
      <stop offset="1" stop-color="#c38536"/>
    </linearGradient>
    <linearGradient id="g">
      <stop offset="0" stop-color="#c38536"/>
      <stop offset=".154" stop-color="#f2dc91"/>
      <stop offset=".5" stop-color="#fbdc8b"/>
      <stop offset=".75" stop-color="#e6bd7a"/>
      <stop offset="1" stop-color="#ba772f"/>
    </linearGradient>
    <linearGradient xlink:href="#g" id="l" x1="523.008" x2="543.914" y1="373.229" y2="373.229" gradientTransform="translate(-60.559 1.419)" gradientUnits="userSpaceOnUse"/>
    <filter id="n" width="1.326" height="1.402" x="-.163" y="-.201">
      <feGaussianBlur stdDeviation=".757"/>
    </filter>
    <mask id="m" maskUnits="userSpaceOnUse">
      <g fill="#fff" stroke="#fff" stroke-width="3.028" font-family="AustralianFlyingCorpsStencil" font-size="11.052" font-weight="400" letter-spacing="0" style="text-align:start;line-height:125%;-inkscape-font-specification:AustralianFlyingCorpsStencil" transform="matrix(.33026 0 0 .33026 -142.451 929.049)" word-spacing="0">
        <rect width="15" height="16.625" x="463.743" y="368.495" stroke-linecap="round" stroke-linejoin="round" rx="2.625" ry="2.625"/>
        <path stroke-linecap="round" stroke-linejoin="round" d="m 463.24874,374.64819 31.13385,0 c 1.45425,0 2.625,1.17075 2.625,2.625 l 0,19.0178 c 0,1.45425 -1.17076,2.63221 -2.625,2.625 l -31.13385,-0.15421 c -1.45423,-0.007 -2.625,-1.17075 -2.625,-2.625 l 0,-18.86359 c 0,-1.45425 1.17075,-2.625 2.625,-2.625 z"/>
        <path d="m 462.26171,374.64819 20.09375,0"/>
      </g>
    </mask>
  </defs>
  <g fill="#236298" stroke="url(#h)" stroke-width="3.028" font-family="AustralianFlyingCorpsStencil" font-size="11.052" font-weight="400" letter-spacing="0" style="text-align:start;line-height:125%;-inkscape-font-specification:AustralianFlyingCorpsStencil" transform="matrix(.33026 0 0 .33026 -150.671 -120.218)" word-spacing="0">
    <rect width="15" height="16.625" x="463.743" y="368.495" fill="#fdf7eb" stroke="url(#i)" stroke-linecap="round" stroke-linejoin="round" rx="2.625" ry="2.625"/>
    <path fill="url(#j)" stroke="url(#k)" stroke-linecap="round" stroke-linejoin="round" d="m 463.24874,374.64819 31.13385,0 c 1.45425,0 2.625,1.17075 2.625,2.625 l 0,19.0178 c 0,1.45425 -1.17076,2.63221 -2.625,2.625 l -31.13385,-0.15421 c -1.45423,-0.007 -2.625,-1.17075 -2.625,-2.625 l 0,-18.86359 c 0,-1.45425 1.17075,-2.625 2.625,-2.625 z"/>
    <path fill="none" stroke="url(#l)" d="m 462.26171,374.64819 20.09375,0"/>
  </g>
  <g mask="url(#m)" transform="translate(-8.22 -1049.267)">
    <g filter="url(#n)">
      <g fill="#fff" stroke="#fff">
        <path d="m 26.569701,1043.6509 0,2.8579 4.425981,0 0,1.2824 3.781143,-2.432 -3.781143,-3.0027 0,1.2944 z" transform="matrix(1.13001 0 0 -1.13001 -15.697 2241.953)"/>
        <path d="m 30.023337,1041.7543 0,1.2944 -2.691146,0 -1,0 c -0.99185,0.9918 -0.986324,3.4738 0,4.4601 l 1,0 2.691146,0 0,1.2824 c 0,0.6519 0.740915,0.6375 1.5,0 l 3.923255,-3.4983 -3.923255,-3.5386 c -0.760225,-0.7602 -1.5,-0.5203 -1.5,0 z m 1,1 2.985755,2.5386 -2.985755,2.4983 0,-1.2824 -4.128646,0 c -0.276214,-0.2099 -0.277444,-2.1883 0,-2.4601 l 4.128646,0 z" transform="matrix(1.13001 0 0 -1.13001 -15.697 2241.953)"/>
      </g>
    </g>
  </g>
  <path fill="url(#o)" d="m 26.569701,1043.6509 0,2.8579 4.425981,0 0,1.2824 3.781143,-2.432 -3.781143,-3.0027 0,1.2944 z" transform="matrix(1.13001 0 0 -1.13001 -23.917 1192.686)"/>
  <path fill="url(#p)" d="m 30.023337,1041.7543 0,1.2944 -2.691146,0 -1,0 c -0.99185,0.9918 -0.986324,3.4738 0,4.4601 l 1,0 2.691146,0 0,1.2824 c 0,0.6519 0.740915,0.6375 1.5,0 l 3.923255,-3.4983 -3.923255,-3.5386 c -0.760225,-0.7602 -1.5,-0.5203 -1.5,0 z m 1,1 2.985755,2.5386 -2.985755,2.4983 0,-1.2824 -4.128646,0 c -0.276214,-0.2099 -0.277444,-2.1883 0,-2.4601 l 4.128646,0 z" transform="matrix(1.13001 0 0 -1.13001 -23.917 1192.686)"/>
</svg>
