<svg xmlns="http://www.w3.org/2000/svg" xmlns:xlink="http://www.w3.org/1999/xlink" width="16" height="16">
  <defs>
    <linearGradient id="b">
      <stop offset="0" stop-color="#e9a328"/>
      <stop offset="1" stop-color="#f9c537"/>
    </linearGradient>
    <linearGradient id="a">
      <stop offset="0" stop-color="#fff"/>
      <stop offset=".383" stop-color="#fdfbeb"/>
      <stop offset=".595" stop-color="#f8eb99"/>
      <stop offset="1" stop-color="#ffe4b1"/>
    </linearGradient>
    <linearGradient id="c">
      <stop offset="0" stop-color="#fff"/>
      <stop offset="1" stop-color="#abb6c2"/>
    </linearGradient>
    <linearGradient id="d">
      <stop offset="0" stop-color="#9eacbc"/>
      <stop offset="1" stop-color="#667480"/>
    </linearGradient>
    <linearGradient xlink:href="#b" id="g" x1="3.29" x2="3.29" y1="1038.393" y2="1046.9" gradientTransform="translate(-1.875)" gradientUnits="userSpaceOnUse"/>
    <linearGradient xlink:href="#c" id="h" x1="27.74" x2="28.339" y1="1048.96" y2="1050.113" gradientTransform="translate(-21.875)" gradientUnits="userSpaceOnUse"/>
    <linearGradient xlink:href="#d" id="i" x1="26.385" x2="28.899" y1="1047.351" y2="1051.042" gradientTransform="translate(-21.875)" gradientUnits="userSpaceOnUse"/>
    <radialGradient xlink:href="#a" id="f" cx="28.688" cy="1046.294" r="4.5" fx="28.688" fy="1046.294" gradientTransform="matrix(1.43122 0 0 1.90646 -34.246 -947.65)" gradientUnits="userSpaceOnUse"/>
    <filter id="e" width="1.481" height="1.479" x="-.24" y="-.24">
      <feGaussianBlur stdDeviation=".662"/>
    </filter>
  </defs>
  <path fill="none" stroke="#edaa2b" stroke-linecap="round" stroke-linejoin="round" stroke-width=".826" d="m 5.5022998,1038.5281 c -1.8240601,0 -3.3055556,1.4814 -3.3055556,3.3055 0,2.1067 1.6593104,1.1418 1.6786025,3.3314 l 3.2539062,0 c 0,-2.089 1.6786025,-1.1771 1.6786025,-3.3314 0,-1.8241 -1.4814955,-3.3055 -3.3055556,-3.3055 z" filter="url(#e)" transform="translate(0 -1036.362)"/>
  <g stroke-linecap="round" stroke-linejoin="round">
    <path fill="url(#f)" stroke="url(#g)" d="m 6.625,1037.8622 c -2.207266,0 -4,1.7927 -4,4 0,2.5493 2.007905,3.3816 2.03125,6.0313 l 3.9375,0 c 0,-2.5279 2.03125,-3.4244 2.03125,-6.0313 0,-2.2073 -1.792734,-4 -4,-4 z" transform="matrix(.77997 0 0 .73483 .335 -760.306)"/>
    <path fill="#4a607a" stroke="#4a607a" d="M5.594 1048.425H7.625V1051.863H5.594z" transform="matrix(.77997 0 0 .73483 .335 -760.306)"/>
    <path fill="url(#h)" stroke="url(#i)" d="M4.656 1047.862H8.594V1050.862H4.656z" transform="matrix(.77997 0 0 .73483 .335 -760.306)"/>
  </g>
  <path fill="#d8424f" d="M7.001 1042.355H14.001V1050.355H7.001z" transform="translate(0 -1036.362)"/>
  <path fill="#fff" d="m 8.0009853,1044.371 0,0.1184 0,0.7609 0,0.1184 0.1384548,0 0.4153647,0 1.3153211,1.0447 -1.3499348,0.9421 -0.380751,0 -0.1384548,0 0,0.1184 0,0.7719 0,0.1184 0.1384548,0 1.7277497,0 0.1384542,0 0,-0.1184 0,-0.7719 0,-0.1184 -0.1384542,0 0.6259832,-0.2909 0.64808,0.2909 -0.138455,0 0,0.1184 0,0.7719 0,0.1184 0.138455,0 1.705653,0 0.138454,0 0,-0.1184 0,-0.7719 0,-0.1184 -0.138454,0 -0.346138,0 -1.384549,-0.9718 1.280708,-1.015 0.449979,0 0.138454,0 0,-0.1184 0,-0.7609 0,-0.1184 -0.138454,0 -1.705653,0 -0.138455,0 0,0.1184 0,0.7609 0,0.1184 0.06923,0 -0.578853,0.3935 -0.5678034,-0.3935 0.069227,0 0,-0.1184 0,-0.7609 0,-0.1184 -0.1384531,0 -1.7167011,0 z" color="#000" enable-background="accumulate" font-family="Sans" font-size="7.69" font-weight="400" letter-spacing="0" overflow="visible" style="line-height:125%;text-indent:0;text-align:start;text-decoration-line:none;text-transform:none;block-progression:tb;marker:none" transform="translate(0 -1036.362)" word-spacing="0"/>
</svg>
