<svg xmlns="http://www.w3.org/2000/svg" xmlns:xlink="http://www.w3.org/1999/xlink" width="16" height="16">
  <defs>
    <linearGradient id="b">
      <stop offset="0" stop-color="#fff"/>
      <stop offset="1" stop-color="#abb6c2"/>
    </linearGradient>
    <linearGradient id="a">
      <stop offset="0" stop-color="#9eacbc"/>
      <stop offset="1" stop-color="#667480"/>
    </linearGradient>
    <linearGradient xlink:href="#a" id="h" x1="27.072" x2="28.339" y1="1048.383" y2="1050.113" gradientTransform="matrix(.89997 0 0 .89997 -17.69 103.734)" gradientUnits="userSpaceOnUse"/>
    <linearGradient xlink:href="#b" id="g" x1="27.072" x2="28.339" y1="1048.383" y2="1050.113" gradientTransform="matrix(.89997 0 0 .89997 -17.69 103.734)" gradientUnits="userSpaceOnUse"/>
    <linearGradient id="c">
      <stop offset="0" stop-color="#fcf5ce"/>
      <stop offset=".383" stop-color="#f1f2c5"/>
      <stop offset=".595" stop-color="#dceab4"/>
      <stop offset="1" stop-color="#d8e8b0"/>
    </linearGradient>
    <linearGradient id="d">
      <stop offset="0" stop-color="#309858"/>
      <stop offset="1" stop-color="#b8d0a0"/>
    </linearGradient>
    <linearGradient xlink:href="#d" id="f" x1="3.29" x2="3.29" y1="1038.393" y2="1046.9" gradientTransform="matrix(.89997 0 0 .89997 .309 103.734)" gradientUnits="userSpaceOnUse"/>
    <radialGradient xlink:href="#c" id="e" cx="28.688" cy="1046.294" r="4.5" fx="28.688" fy="1046.294" gradientTransform="matrix(1.28806 0 0 1.71576 -28.824 -749.128)" gradientUnits="userSpaceOnUse"/>
  </defs>
  <g stroke-linecap="round" stroke-linejoin="round">
    <path fill="#fff" stroke="#fff" d="m 8.0485959,1036.8692 c -2.4374703,0 -4.4171757,1.9797 -4.4171757,4.4173 0,2.8152 2.217317,6.2976 2.2430968,9.2234 l 4.348158,0 c 0,-2.7914 2.243096,-6.3448 2.243096,-9.2234 0,-2.4376 -1.979705,-4.4173 -4.4171751,-4.4173 z" transform="translate(0 -1036.362)"/>
    <path fill="#4a607a" stroke="#4a607a" stroke-width=".9" d="M7.03 1047.289H8.858V1049.914H7.03z" transform="translate(0 -1036.362)"/>
    <path fill="url(#e)" stroke="url(#f)" stroke-width=".9" d="m 7.958454,1037.7835 c -1.986483,0 -3.599898,1.6134 -3.599898,3.6 0,2.2943 1.807063,3.0434 1.828073,5.4279 l 3.54365,0 c 0,-2.275 1.828073,-3.0819 1.828073,-5.4279 0,-1.9866 -1.613415,-3.6 -3.599898,-3.6 z" transform="translate(0 -1036.362)"/>
    <path fill="url(#g)" stroke="url(#h)" stroke-width=".9" d="M6.187 1046.783H9.731V1048.92H6.187z" transform="translate(0 -1036.362)"/>
  </g>
</svg>
