<svg xmlns="http://www.w3.org/2000/svg" xmlns:xlink="http://www.w3.org/1999/xlink" width="16" height="16">
  <defs>
    <linearGradient id="a">
      <stop offset="0" stop-color="#b28a30"/>
      <stop offset="1" stop-color="#7c703e"/>
    </linearGradient>
    <linearGradient id="b">
      <stop offset="0" stop-color="#e0c88f"/>
      <stop offset="1" stop-color="#d5b269"/>
    </linearGradient>
    <linearGradient id="c">
      <stop offset="0" stop-color="#f9fafc"/>
      <stop offset="1" stop-color="#dce7f7"/>
    </linearGradient>
    <linearGradient xlink:href="#a" id="f" x1="10.545" x2="10.545" y1="1038.578" y2="1052.323" gradientTransform="translate(-1.978 -1.044)" gradientUnits="userSpaceOnUse"/>
    <linearGradient xlink:href="#b" id="e" x1="7.999" x2="9.987" y1="1042.231" y2="1040.33" gradientTransform="translate(2.022 -1.044)" gradientUnits="userSpaceOnUse"/>
    <linearGradient xlink:href="#c" id="d" x1="9.895" x2="9.895" y1="1039.153" y2="1051.838" gradientTransform="translate(-1.978 -1.044)" gradientUnits="userSpaceOnUse"/>
    <filter id="g" width="1.236" height="1.244" x="-.118" y="-.122">
      <feGaussianBlur stdDeviation=".334"/>
    </filter>
  </defs>
  <path fill="url(#d)" d="m 3.519379,1037.8597 7.00967,0 3.062057,3.0066 0,9.9546 -10.071727,0 z" transform="translate(0 -1036.362)"/>
  <path fill="url(#e)" d="m 9.998718,1037.397 0,3.9112 3.977478,0 z" transform="translate(0 -1036.362)"/>
  <path fill="none" stroke="url(#f)" d="m 3.519379,1037.8597 7.00967,0 3.062057,3.0066 0,9.9546 -10.071727,0 z" transform="translate(0 -1036.362)"/>
  <path fill="none" stroke="#000" stroke-linejoin="round" d="m 3.993884,1046.0282 3.506116,0 0,2.3125 3.28125,-3.25 -3.28125,-3.3125 0,2.25 -3.506116,0" filter="url(#g)" opacity=".3" transform="translate(0 -1036.362)"/>
  <path fill="none" stroke="#8693ae" stroke-linejoin="round" d="m 3.993884,1045.8622 3.506116,0 0,2.3125 3.28125,-3.25 -3.28125,-3.3125 0,2.25 -3.506116,0" transform="translate(0 -1036.362)"/>
</svg>
