<svg xmlns="http://www.w3.org/2000/svg" xmlns:xlink="http://www.w3.org/1999/xlink" width="16" height="16">
  <defs>
    <linearGradient xlink:href="#a" id="k" x1="11" x2="14" y1="1047.857" y2="1047.857" gradientTransform="translate(-3.031 -4.02)" gradientUnits="userSpaceOnUse"/>
    <linearGradient id="a">
      <stop offset="0" stop-color="#6b90bc"/>
      <stop offset="1" stop-color="#286296"/>
    </linearGradient>
    <linearGradient xlink:href="#b" id="j" x1="10.545" x2="10.545" y1="1038.578" y2="1052.323" gradientTransform="translate(-2.01 -1.03)" gradientUnits="userSpaceOnUse"/>
    <linearGradient id="b">
      <stop offset="0" stop-color="#b28a30"/>
      <stop offset="1" stop-color="#7f703d"/>
    </linearGradient>
    <linearGradient xlink:href="#c" id="i" x1="7.999" x2="9.987" y1="1042.231" y2="1040.33" gradientTransform="translate(1.99 -1.03)" gradientUnits="userSpaceOnUse"/>
    <linearGradient id="c">
      <stop offset="0" stop-color="#e0c88f"/>
      <stop offset="1" stop-color="#d5b269"/>
    </linearGradient>
    <linearGradient id="d">
      <stop offset="0" stop-color="#f9fafc"/>
      <stop offset="1" stop-color="#dce7f7"/>
    </linearGradient>
    <linearGradient xlink:href="#d" id="h" x1="9.895" x2="9.895" y1="1039.153" y2="1051.838" gradientTransform="translate(-2.01 -1.03)" gradientUnits="userSpaceOnUse"/>
    <linearGradient id="e">
      <stop offset="0" stop-color="#6b90bc"/>
      <stop offset="1" stop-color="#286296"/>
    </linearGradient>
    <linearGradient xlink:href="#e" id="l" x1="11" x2="14" y1="1047.857" y2="1047.857" gradientTransform="translate(-3.031 -2.02)" gradientUnits="userSpaceOnUse"/>
    <linearGradient id="f">
      <stop offset="0" stop-color="#6b90bc"/>
      <stop offset="1" stop-color="#286296"/>
    </linearGradient>
    <linearGradient xlink:href="#f" id="m" x1="11" x2="14" y1="1047.857" y2="1047.857" gradientTransform="translate(-3.031 -6.02)" gradientUnits="userSpaceOnUse"/>
    <linearGradient id="g">
      <stop offset="0" stop-color="#6b90bc"/>
      <stop offset="1" stop-color="#286296"/>
    </linearGradient>
    <linearGradient xlink:href="#g" id="n" x1="11" x2="14" y1="1047.857" y2="1047.857" gradientTransform="translate(-3.031 -.02)" gradientUnits="userSpaceOnUse"/>
  </defs>
  <path fill="url(#h)" d="m 3.4881295,1037.8727 7.0096695,0 3.062057,3.0066 0,9.9546 -10.0717265,0 z" transform="translate(0 -1036.362)"/>
  <path fill="url(#i)" d="m 9.967468,1037.41 0,3.9112 3.977478,0 z" transform="translate(0 -1036.362)"/>
  <path fill="none" stroke="url(#j)" d="m 3.4881295,1037.8727 6.9471695,0 3.062057,3.0066 0,9.9546 -10.0092265,0 z" transform="translate(0 -1036.362)"/>
  <path fill="url(#k)" d="M7.969 1043.331H10.969V1044.341H7.969z" transform="translate(0 -1036.362)"/>
  <path fill="url(#l)" d="M7.969 1045.331H10.969V1046.341H7.969z" transform="translate(0 -1036.362)"/>
  <path fill="#2b6498" d="m 3.9044723,1043.947 c 0.2803059,-0.01 0.5087374,-0.072 0.6852938,-0.1978 0.1765563,-0.1256 0.293957,-0.2979 0.3522038,-0.5172 0.058245,-0.2192 0.092242,-0.297 0.092823,-0.3819 0.0036,-0.5306 0.014559,-0.8802 0.032762,-1.0486 0.032762,-0.2669 0.09374,-0.4814 0.182927,-0.6435 0.08919,-0.1621 0.1993063,-0.2916 0.3303599,-0.3886 0.1310517,-0.097 0.2985064,-0.1707 0.5023677,-0.2216 0.1383312,-0.032 0.3647257,-0.025 0.6771046,-0.047 l 0.3057887,0 0,0.7484 -0.1692769,0 c -0.3785981,0 -0.6297815,0.06 -0.7535511,0.1788 -0.1237741,0.1192 -0.1856589,0.3853 -0.1856561,0.7984 -8e-7,0.2487 -0.020021,0.6153 -0.060072,0.8346 -0.065525,0.3401 -0.1774688,0.6023 -0.3358209,0.7866 -0.1583567,0.1843 -0.4068101,0.348 -0.745361,0.4909 0.4004366,0.1462 0.6907539,0.3695 0.8709527,0.6697 0.1801942,0.3004 0.2702985,0.7922 0.2702955,1.4755 -6e-7,0.1313 0.00729,0.2451 0.021838,0.3627 0.029127,0.216 0.1028371,0.367 0.2211503,0.4528 0.1183085,0.086 0.3503807,0.1286 0.6962148,0.1286 l 0.1692769,0 0,0.7485 -0.3057887,0 c -0.3567561,0 -0.6152208,-0.026 -0.7753932,-0.077 -0.2329838,-0.073 -0.4259222,-0.1915 -0.5788142,-0.3552 -0.1528957,-0.1637 -0.2520959,-0.371 -0.2975977,-0.622 -0.045513,-0.251 -0.07278,-0.3439 -0.073717,-0.4915 -0.0036,-0.572 -0.034589,-0.9676 -0.092823,-1.1869 -0.058245,-0.2193 -0.1756476,-0.3924 -0.3522039,-0.5195 -0.1765563,-0.1272 -0.4049879,-0.1939 -0.6852938,-0.2003 z" font-family="Sans" font-size="11.097" font-weight="400" letter-spacing="0" style="line-height:125%" transform="translate(0 -1036.362)" word-spacing="0"/>
  <path fill="url(#m)" d="M7.969 1041.331H9.969V1042.341H7.969z" transform="translate(0 -1036.362)"/>
  <path fill="url(#n)" d="M7.969 1047.331H10.969V1048.341H7.969z" transform="translate(0 -1036.362)"/>
</svg>
