<svg xmlns="http://www.w3.org/2000/svg" xmlns:xlink="http://www.w3.org/1999/xlink" width="16" height="16">
  <defs>
    <linearGradient id="b">
      <stop offset="0" stop-color="#e3ecf8"/>
      <stop offset="1" stop-color="#f8f9fc"/>
    </linearGradient>
    <linearGradient id="a">
      <stop offset="0" stop-color="#b4903d"/>
      <stop offset="1" stop-color="#7b7450"/>
    </linearGradient>
    <linearGradient xlink:href="#a" id="d" x1="41.186" x2="41.186" y1="1050.639" y2="1064.011" gradientTransform="translate(-20)" gradientUnits="userSpaceOnUse"/>
    <linearGradient xlink:href="#b" id="c" x1="31.078" x2="31.078" y1="1063.368" y2="1051.346" gradientTransform="translate(-20)" gradientUnits="userSpaceOnUse"/>
  </defs>
  <path fill="url(#c)" stroke="url(#d)" d="M10.726 1050.774H21.715V1063.762H10.726z" transform="translate(-8.22 -1049.267)"/>
  <g fill="#286296">
    <path d="m 20.279131,1044.9761 c -1.426102,10e-5 -2.56467,0.3966 -3.433424,1.1943 -0.868758,0.7977 -1.321534,1.9026 -1.37337,3.2841 l 2.358613,0.2986 c 0.07755,-1.7081 0.859346,-2.5378 2.298902,-2.5378 0.60937,0 1.103814,0.1559 1.492793,0.5076 0.388965,0.3517 0.567253,0.8034 0.567261,1.3435 -8e-6,0.5025 -0.174161,0.9368 -0.537405,1.3136 -0.194296,0.2009 -0.58073,0.5017 -1.164379,0.8659 -0.531429,0.3266 -0.876392,0.6994 -1.044955,1.1643 -0.15591,0.3895 -0.238852,0.9876 -0.238847,1.7914 l 0,1.0748 2.179478,0 0,-0.6867 c -7e-6,-0.7912 0.340821,-1.3987 1.015099,-1.851 0.882004,-0.603 1.484063,-1.1382 1.821208,-1.5525 0.466518,-0.603 0.71653,-1.33 0.71654,-2.2094 -10e-6,-1.2059 -0.482839,-2.2021 -1.403225,-2.9557 -0.882021,-0.7034 -1.970648,-1.0449 -3.254289,-1.045 z" font-family="Reznor" font-size="20.037" font-weight="700" letter-spacing="0" style="text-align:start;line-height:125%;-inkscape-font-specification:Reznor Bold" transform="matrix(.57156 0 0 .57156 -3.487 -593.186)" word-spacing="0"/>
    <path d="m 12.575997,16.531185 c 0,0.21967 -0.288136,0.397748 -0.64357,0.397748 -0.355433,0 -0.643569,-0.178078 -0.643569,-0.397748 0,-0.21967 0.288136,-0.397747 0.643569,-0.397747 0.355434,0 0.64357,0.178077 0.64357,0.397747 z" transform="matrix(1.46449 0 0 2.02018 -9.444 -21.983)"/>
  </g>
</svg>
