<?xml version="1.0" encoding="UTF-8" standalone="no"?>
<svg
   width="16"
   height="16"
   version="1.1"
   id="svg28"
   xmlns:xlink="http://www.w3.org/1999/xlink"
   xmlns="http://www.w3.org/2000/svg"
   xmlns:svg="http://www.w3.org/2000/svg">
  <defs
     id="defs12">
    <linearGradient
       id="e">
      <stop
         offset="0"
         stop-color="#6c8ab7"
         id="stop1" />
      <stop
         offset="1"
         stop-color="#607ead"
         id="stop2" />
    </linearGradient>
    <linearGradient
       id="f">
      <stop
         offset="0"
         stop-color="#7694be"
         id="stop3" />
      <stop
         offset="1"
         stop-color="#607ead"
         id="stop4" />
    </linearGradient>
    <linearGradient
       id="d">
      <stop
         offset="0"
         stop-color="#6c8ab7"
         id="stop5" />
      <stop
         offset="1"
         stop-color="#607ead"
         id="stop6" />
    </linearGradient>
    <linearGradient
       id="a">
      <stop
         offset="0"
         stop-color="#fff"
         id="stop7" />
      <stop
         offset="1"
         stop-color="#fff"
         stop-opacity="0"
         id="stop8" />
    </linearGradient>
    <linearGradient
       xlink:href="#a"
       id="i"
       x1="3"
       x2="4"
       y1="1045.862"
       y2="1045.862"
       gradientUnits="userSpaceOnUse" />
    <linearGradient
       xlink:href="#a"
       id="j"
       x1="4.5"
       x2="4.5"
       y1="1044.347"
       y2="1045.343"
       gradientUnits="userSpaceOnUse" />
    <linearGradient
       xlink:href="#b"
       id="k"
       x1="3"
       x2="4"
       y1="1045.862"
       y2="1045.862"
       gradientUnits="userSpaceOnUse" />
    <linearGradient
       id="b">
      <stop
         offset="0"
         stop-color="#fff"
         id="stop9" />
      <stop
         offset="1"
         stop-color="#fff"
         stop-opacity="0"
         id="stop10" />
    </linearGradient>
    <linearGradient
       xlink:href="#b"
       id="l"
       x1="4.5"
       x2="4.5"
       y1="1044.347"
       y2="1045.343"
       gradientUnits="userSpaceOnUse" />
    <linearGradient
       xlink:href="#c"
       id="m"
       x1="3"
       x2="4"
       y1="1045.862"
       y2="1045.862"
       gradientUnits="userSpaceOnUse" />
    <linearGradient
       id="c">
      <stop
         offset="0"
         stop-color="#fff"
         id="stop11" />
      <stop
         offset="1"
         stop-color="#fff"
         stop-opacity="0"
         id="stop12" />
    </linearGradient>
    <linearGradient
       xlink:href="#c"
       id="n"
       x1="4.5"
       x2="4.5"
       y1="1044.347"
       y2="1045.343"
       gradientUnits="userSpaceOnUse" />
    <linearGradient
       xlink:href="#d"
       id="h"
       x1="11"
       x2="14"
       y1="1048.862"
       y2="1048.862"
       gradientUnits="userSpaceOnUse" />
    <linearGradient
       xlink:href="#e"
       id="g"
       x1="11"
       x2="14"
       y1="1044.862"
       y2="1044.862"
       gradientUnits="userSpaceOnUse" />
    <linearGradient
       xlink:href="#f"
       id="o"
       x1="7"
       x2="14"
       y1="1040.862"
       y2="1040.862"
       gradientUnits="userSpaceOnUse" />
  </defs>
  <path
     fill="url(#g)"
     d="m 11,1044.3622 3,0 0,1 -3,0 z"
     transform="translate(0 -1036.362)"
     id="path12" />
  <path
     fill="url(#h)"
     d="m 11,1048.3622 3,0 0,1 -3,0 z"
     transform="translate(0 -1036.362)"
     id="path13" />
  <path
     fill="#5c7aaa"
     d="m 2.6421734,1042.6833 0,5.0367 5.0367406,0 0,-5.0367 z m 1.6789131,1.6789 1.6789135,0 0,1.6789 -1.6789135,0 z"
     transform="matrix(.59562 0 0 .59562 1.426 -618.046)"
     id="path14" />
  <path
     fill="#91a5c7"
     d="M3 1044.362H6V1047.362H3z"
     transform="matrix(.33334 0 0 .33333 3 -344.12)"
     id="path15" />
  <path
     fill="url(#i)"
     d="m 3,1044.3622 1,1 0,2 -1,0 z"
     opacity=".5"
     transform="matrix(.33334 0 0 .33333 3 -344.12)"
     id="path16" />
  <path
     fill="url(#j)"
     d="m 3,1044.3622 1,1 2,0 0,-1 z"
     opacity=".5"
     transform="matrix(.33334 0 0 .33333 3 -344.12)"
     id="path17" />
  <path
     fill="#5c7aaa"
     d="m 2.6421734,1042.6833 0,5.0367 5.0367406,0 0,-5.0367 z m 1.6789131,1.6789 1.6789135,0 0,1.6789 -1.6789135,0 z"
     transform="matrix(.59562 0 0 .59562 5.426 -614.046)"
     id="path18" />
  <path
     fill="#91a5c7"
     d="M3 1044.362H6V1047.362H3z"
     transform="matrix(.33334 0 0 .33333 7 -340.12)"
     id="path19" />
  <path
     fill="url(#k)"
     d="m 3,1044.3622 1,1 0,2 -1,0 z"
     opacity=".5"
     transform="matrix(.33334 0 0 .33333 7 -340.12)"
     id="path20" />
  <path
     fill="url(#l)"
     d="m 3,1044.3622 1,1 2,0 0,-1 z"
     opacity=".5"
     transform="matrix(.33334 0 0 .33333 7 -340.12)"
     id="path21" />
  <path
     fill="#5c7aaa"
     d="m 2.6421734,1042.6833 0,5.0367 5.0367406,0 0,-5.0367 z m 1.6789135,1.6912 1.6789135,0 0,1.6913 -1.6789135,0 z"
     transform="matrix(.59562 0 0 .59562 5.426 -610.046)"
     id="path22" />
  <path
     fill="#91a5c7"
     d="M3 1044.362H6V1047.362H3z"
     transform="matrix(.33334 0 0 .33333 7 -336.12)"
     id="path23" />
  <path
     fill="url(#m)"
     d="m 3,1044.3622 1,1 0,2 -1,0 z"
     opacity=".5"
     transform="matrix(.33334 0 0 .33333 7 -336.12)"
     id="path24" />
  <path
     fill="url(#n)"
     d="m 3,1044.3622 1,1 2,0 0,-1 z"
     opacity=".5"
     transform="matrix(.33334 0 0 .33333 7 -336.12)"
     id="path25" />
  <path
     fill="#5c7aaa"
     d="m 3.9999997,1042.3622 1.0000146,0 0,7 -1.0000146,0 z"
     transform="translate(0 -1036.362)"
     id="path26" />
  <path
     fill="#5c7aaa"
     d="m4 1044.362 3 0 0 1-3 0zM4 1048.362l3 0 0 1-3 0z"
     transform="translate(0 -1036.362)"
     id="path27" />
  <path
     fill="url(#o)"
     d="m 7,1040.3622 7,0 0,1 -7,0 z"
     transform="translate(0 -1036.362)"
     id="path28" />
</svg>
