<?xml version="1.0" encoding="UTF-8" standalone="no"?>
<svg
   width="16"
   height="16"
   version="1.1"
   id="svg25"
   xmlns:xlink="http://www.w3.org/1999/xlink"
   xmlns="http://www.w3.org/2000/svg"
   xmlns:svg="http://www.w3.org/2000/svg">
  <defs
     id="defs14">
    <linearGradient
       id="f">
      <stop
         offset="0"
         stop-color="#859cc4"
         stop-opacity="0"
         id="stop1" />
      <stop
         offset=".149"
         stop-color="#859cc4"
         id="stop2" />
      <stop
         offset=".833"
         stop-color="#b3c7e6"
         id="stop3" />
      <stop
         offset="1"
         stop-color="#b3c7e6"
         stop-opacity="0"
         id="stop4" />
    </linearGradient>
    <linearGradient
       id="d">
      <stop
         offset="0"
         stop-color="#bfb688"
         id="stop5" />
      <stop
         offset="1"
         stop-color="#8693ae"
         id="stop6" />
    </linearGradient>
    <linearGradient
       id="c">
      <stop
         offset="0"
         stop-color="#f9fafc"
         id="stop7" />
      <stop
         offset="1"
         stop-color="#dee9f7"
         id="stop8" />
    </linearGradient>
    <linearGradient
       id="a">
      <stop
         offset="0"
         stop-color="#879cc0"
         id="stop9" />
      <stop
         offset="1"
         stop-color="#677da9"
         id="stop10" />
    </linearGradient>
    <linearGradient
       xlink:href="#a"
       id="i"
       x1="23.185"
       x2="30.569"
       y1="1045.085"
       y2="1045.085"
       gradientTransform="matrix(.56763 0 0 1 -41.523 -6.42)"
       gradientUnits="userSpaceOnUse" />
    <linearGradient
       id="b">
      <stop
         offset="0"
         stop-color="#879cc0"
         id="stop11" />
      <stop
         offset="1"
         stop-color="#677da9"
         id="stop12" />
    </linearGradient>
    <linearGradient
       xlink:href="#b"
       id="j"
       x1="23.185"
       x2="30.569"
       y1="1045.085"
       y2="1045.085"
       gradientTransform="matrix(.56763 0 0 1 -41.523 2.14)"
       gradientUnits="userSpaceOnUse" />
    <linearGradient
       xlink:href="#c"
       id="g"
       x1="22.879"
       x2="22.879"
       y1="1037.211"
       y2="1051.027"
       gradientTransform="translate(2.14)"
       gradientUnits="userSpaceOnUse" />
    <linearGradient
       xlink:href="#d"
       id="h"
       x1="9.171"
       x2="9.171"
       y1="1036.943"
       y2="1051.68"
       gradientTransform="translate(21.398)"
       gradientUnits="userSpaceOnUse" />
    <linearGradient
       id="e">
      <stop
         offset="0"
         stop-color="#879cc0"
         id="stop13" />
      <stop
         offset="1"
         stop-color="#677da9"
         id="stop14" />
    </linearGradient>
    <linearGradient
       xlink:href="#e"
       id="k"
       x1="23.185"
       x2="30.569"
       y1="1045.085"
       y2="1045.085"
       gradientTransform="matrix(.56763 0 0 1 -41.523 -2.14)"
       gradientUnits="userSpaceOnUse" />
    <linearGradient
       xlink:href="#f"
       id="l"
       x1="8.414"
       x2="-3.028"
       y1="1049.521"
       y2="1049.458"
       gradientTransform="translate(21.398)"
       gradientUnits="userSpaceOnUse" />
  </defs>
  <path
     fill="url(#g)"
     stroke="url(#h)"
     stroke-width="1.07"
     d="m 18.26491,1035.4556 11.70189,0 0,14.9787 c -0.768981,-0.6018 -3.39912,-1.8166 -5.2157,0 -1.816579,1.8166 -5.583473,1.5045 -6.48619,-1.1368 z"
     transform="matrix(.93468 0 0 .93468 -14.572 -967.318)"
     id="path14" />
  <path
     fill="none"
     d="M7 7H8V8H7z"
     id="path15" />
  <path
     fill="none"
     d="M23.079 1044.55H24.149V1045.62H23.079zM25.219 1044.55H26.289V1045.62H25.219z"
     transform="matrix(.93468 0 0 .93468 -14.572 -967.318)"
     id="path16" />
  <path
     fill="url(#i)"
     d="M-28.429 1038.13H-24.171V1039.2H-28.429z"
     transform="matrix(-.93468 0 0 .93468 -14.572 -967.318)"
     id="path17" />
  <path
     fill="url(#j)"
     d="M-28.429 1046.689H-24.171V1047.759H-28.429z"
     transform="matrix(-.93468 0 0 .93468 -14.572 -967.318)"
     id="path18" />
  <path
     fill="url(#k)"
     d="M-28.429 1042.41H-24.171V1043.48H-28.429z"
     transform="matrix(-.93468 0 0 .93468 -14.572 -967.318)"
     id="path19" />
  <g
     fill="#7cb87d"
     stroke="#379860"
     stroke-width="3.413"
     id="g21">
    <g
       font-family="Sans"
       font-size="13.589"
       font-weight="400"
       letter-spacing="0"
       word-spacing="0"
       id="g20">
      <path
         stroke-linecap="round"
         stroke-linejoin="round"
         stroke-width="10.347"
         d="m 398.75,468.23718 c 0,5.86803 -4.75697,10.625 -10.625,10.625 -5.86803,0 -10.625,-4.75697 -10.625,-10.625 0,-5.86802 4.75697,-10.625 10.625,-10.625 5.86803,0 10.625,4.75698 10.625,10.625 z"
         style="line-height:125%"
         transform="matrix(.09664 0 0 .09664 -32.026 -41.737)"
         id="path20" />
    </g>
  </g>
  <g
     fill="#7cb87d"
     stroke="#379860"
     stroke-width="3.413"
     id="g23">
    <g
       font-family="Sans"
       font-size="13.589"
       font-weight="400"
       letter-spacing="0"
       word-spacing="0"
       id="g22">
      <path
         stroke-linecap="round"
         stroke-linejoin="round"
         stroke-width="10.347"
         d="m 398.75,468.23718 c 0,5.86803 -4.75697,10.625 -10.625,10.625 -5.86803,0 -10.625,-4.75697 -10.625,-10.625 0,-5.86802 4.75697,-10.625 10.625,-10.625 5.86803,0 10.625,4.75698 10.625,10.625 z"
         style="line-height:125%"
         transform="matrix(.09664 0 0 .09664 -32.026 -37.737)"
         id="path21" />
    </g>
  </g>
  <g
     fill="#7cb87d"
     stroke="#379860"
     stroke-width="3.413"
     id="g25">
    <g
       font-family="Sans"
       font-size="13.589"
       font-weight="400"
       letter-spacing="0"
       word-spacing="0"
       id="g24">
      <path
         stroke-linecap="round"
         stroke-linejoin="round"
         stroke-width="10.347"
         d="m 398.75,468.23718 c 0,5.86803 -4.75697,10.625 -10.625,10.625 -5.86803,0 -10.625,-4.75697 -10.625,-10.625 0,-5.86802 4.75697,-10.625 10.625,-10.625 5.86803,0 10.625,4.75698 10.625,10.625 z"
         style="line-height:125%"
         transform="matrix(.09664 0 0 .09664 -32.026 -33.737)"
         id="path23" />
    </g>
  </g>
  <path
     fill="none"
     stroke="url(#l)"
     stroke-width="1.07"
     d="m 29.9668,1050.4343 c -0.76898,-0.6018 -3.399119,-1.8166 -5.2157,0 -1.816579,1.8166 -5.583473,1.5045 -6.48619,-1.1368"
     transform="matrix(.93468 0 0 .93468 -14.572 -967.318)"
     id="path25" />
</svg>
