<svg xmlns="http://www.w3.org/2000/svg" xmlns:xlink="http://www.w3.org/1999/xlink" width="16" height="16">
  <defs>
    <linearGradient id="e">
      <stop offset="0" stop-color="#f8d060"/>
      <stop offset=".5" stop-color="#f8e898"/>
      <stop offset="1" stop-color="#f8f8e8"/>
    </linearGradient>
    <linearGradient id="d">
      <stop offset="0" stop-color="#fff"/>
      <stop offset="1" stop-color="#fff" stop-opacity="0"/>
    </linearGradient>
    <linearGradient id="c">
      <stop offset="0" stop-color="#9dd560"/>
      <stop offset="1" stop-color="#499851"/>
    </linearGradient>
    <linearGradient xlink:href="#a" id="j" x1="21.914" x2="21.914" y1="1043.379" y2="1038.951" gradientTransform="translate(8.354 -.177)" gradientUnits="userSpaceOnUse"/>
    <linearGradient id="a">
      <stop offset="0" stop-color="#b08319"/>
      <stop offset="1" stop-color="#9a680f"/>
    </linearGradient>
    <linearGradient id="b">
      <stop offset="0" stop-color="#4f9e55"/>
      <stop offset=".5" stop-color="#3c8d49"/>
      <stop offset="1" stop-color="#a4e173"/>
    </linearGradient>
    <linearGradient xlink:href="#b" id="f" x1="388.637" x2="388.637" y1="478.188" y2="457.955" gradientUnits="userSpaceOnUse"/>
    <linearGradient xlink:href="#c" id="g" x1="16.966" x2="15.634" y1="1054.691" y2="1056.289" gradientUnits="userSpaceOnUse"/>
    <linearGradient xlink:href="#e" id="i" x1="32.166" x2="32.166" y1="1037.503" y2="1043.588" gradientUnits="userSpaceOnUse"/>
    <radialGradient xlink:href="#d" id="h" cx="393.355" cy="476.811" r="10.625" fx="393.355" fy="476.811" gradientTransform="matrix(.77258 0 0 .77258 89.457 108.437)" gradientUnits="userSpaceOnUse"/>
  </defs>
  <path fill="url(#f)" d="m 398.75,468.23718 a 10.625,10.625 0 0 1 -10.625,10.625 10.625,10.625 0 0 1 -10.625,-10.625 10.625,10.625 0 0 1 10.625,-10.625 10.625,10.625 0 0 1 10.625,10.625 z" transform="matrix(.48217 0 0 .48217 -181.657 -220.284)"/>
  <path fill="#fff" stroke="url(#g)" stroke-width=".646" d="m 14.039346,1052.2494 6.0625,5.1875 -6,5.0625 z" transform="matrix(.77394 0 0 .77394 -7.17 -812.809)"/>
  <path fill="none" stroke="#14733c" stroke-linecap="round" stroke-linejoin="round" stroke-width="1.5" d="m 398.75,468.23718 a 10.625,10.625 0 0 1 -10.625,10.625 10.625,10.625 0 0 1 -10.625,-10.625 10.625,10.625 0 0 1 10.625,-10.625 10.625,10.625 0 0 1 10.625,10.625 z" transform="matrix(.48217 0 0 .48217 -181.657 -220.284)"/>
  <path fill="url(#h)" d="m 398.75,468.23718 a 10.625,10.625 0 0 1 -10.625,10.625 10.625,10.625 0 0 1 -10.625,-10.625 10.625,10.625 0 0 1 10.625,-10.625 10.625,10.625 0 0 1 10.625,10.625 z" transform="matrix(.51544 0 0 .51544 -194.572 -235.865)"/>
  <path fill="#fff" fill-opacity=".875" d="M0 1043.362H7V1051.362H0z" opacity=".679" transform="translate(0 -1036.362)"/>
  <path fill="url(#i)" stroke="url(#j)" stroke-width=".8" d="m 31.938707,1039.1481 0,-1.591 c 0,0 -0.353553,-0.8397 -1.370019,-0.044 -1.016466,0.7955 -2.209709,2.0772 -2.386486,2.4307 -0.176776,0.3536 -0.928077,0.9723 0.08839,1.9446 1.016466,0.9722 2.121321,1.9887 2.121321,1.9887 0,0 0.404271,0.3812 0.799458,0.5707 0.37782,0.1811 0.747338,0.1871 0.747338,-0.4827 0,-1.37 0,-1.812 0,-1.812 1.366404,-0.063 1.727345,0.3446 2.039845,0.6884 0.3125,0.3437 0.8125,1.4384 1.21875,1.5634 0.40625,0.125 0.625,-1.6572 0.625,-2.0947 0,-0.4375 -0.09375,-1.3125 -0.71875,-1.9687 -0.625,-0.6563 -1.006571,-0.9555 -1.53125,-1.0998 -0.524679,-0.1444 -1.633595,-0.094 -1.633595,-0.094 z" transform="rotate(180 21.645 526.473)"/>
  <path fill="#d8424f" d="M0 1044.362H7V1052.362H0z" transform="translate(0 -1036.362)"/>
  <path fill="#fff" d="m 1.25,1046.1434 0,0.125 0,0.5 0,0.125 0.125,0 0.375,0 1.1875,1.4063 -1.21875,1.5312 -0.34375,0 -0.125,0 0,0.125 0,0.5 0,0.125 0.125,0 1.5,0 0.125,0 0,-0.125 0,-0.5 0,-0.125 -0.125,0 0.625,-0.8437 0.625,0.8437 -0.125,0 0,0.125 0,0.5 0,0.125 0.125,0 1.5,0 0.125,0 0,-0.125 0,-0.5 0,-0.125 -0.125,0 -0.3125,0 -1.25,-1.5625 1.15625,-1.375 0.40625,0 0.125,0 0,-0.125 0,-0.5 0,-0.125 -0.125,0 -1.5,0 -0.125,0 0,0.125 0,0.5 0,0.125 0.0625,0 -0.5625,0.7188 -0.5625,-0.7188 0.0625,0 0,-0.125 0,-0.5 0,-0.125 -0.125,0 -1.5,0 -0.125,0 z" color="#000" font-family="Sans" font-size="7.69" font-weight="400" letter-spacing="0" overflow="visible" style="line-height:125%;text-indent:0;text-align:start;text-decoration-line:none;text-transform:none;block-progression:tb;marker:none" transform="translate(0 -1036.362)" word-spacing="0"/>
</svg>
