<svg xmlns="http://www.w3.org/2000/svg" width="7" height="8">
  <path fill="#d8424f" d="M15.59 1043.48H23.079V1052.039H15.59z" transform="matrix(.93468 0 0 .93468 -14.572 -975.318)"/>
  <path fill="#fff" d="M 1.25 1.78125 L 1.25 1.90625 L 1.25 2.40625 L 1.25 2.53125 L 1.375 2.53125 L 1.75 2.53125 L 2.9375 3.9375 L 1.71875 5.46875 L 1.375 5.46875 L 1.25 5.46875 L 1.25 5.59375 L 1.25 6.09375 L 1.25 6.21875 L 1.375 6.21875 L 2.875 6.21875 L 3 6.21875 L 3 6.09375 L 3 5.59375 L 3 5.46875 L 2.875 5.46875 L 3.5 4.625 L 4.125 5.46875 L 4 5.46875 L 4 5.59375 L 4 6.09375 L 4 6.21875 L 4.125 6.21875 L 5.625 6.21875 L 5.75 6.21875 L 5.75 6.09375 L 5.75 5.59375 L 5.75 5.46875 L 5.625 5.46875 L 5.3125 5.46875 L 4.0625 3.90625 L 5.21875 2.53125 L 5.625 2.53125 L 5.75 2.53125 L 5.75 2.40625 L 5.75 1.90625 L 5.75 1.78125 L 5.625 1.78125 L 4.125 1.78125 L 4 1.78125 L 4 1.90625 L 4 2.40625 L 4 2.53125 L 4.0625 2.53125 L 3.5 3.25 L 2.9375 2.53125 L 3 2.53125 L 3 2.40625 L 3 1.90625 L 3 1.78125 L 2.875 1.78125 L 1.375 1.78125 L 1.25 1.78125 z" color="#000" font-family="Sans" font-size="7.69" font-weight="400" letter-spacing="0" overflow="visible" style="text-indent:0;text-align:start;line-height:125%;text-transform:none;block-progression:tb;marker:none;-inkscape-font-specification:Sans" word-spacing="0"/>
</svg>
