<svg xmlns="http://www.w3.org/2000/svg" xmlns:xlink="http://www.w3.org/1999/xlink" width="16" height="16">
  <defs>
    <linearGradient id="d">
      <stop offset="0" stop-color="#afb8cd"/>
      <stop offset="1" stop-color="#8192b5"/>
    </linearGradient>
    <linearGradient id="c">
      <stop offset="0" stop-color="#acbfd5"/>
      <stop offset="1" stop-color="#627297"/>
    </linearGradient>
    <linearGradient id="b">
      <stop offset="0" stop-color="#b68e69"/>
      <stop offset=".942" stop-color="#d5ae7d"/>
      <stop offset="1" stop-color="#c69863"/>
    </linearGradient>
    <linearGradient id="a">
      <stop offset="0" stop-color="#f1c373"/>
      <stop offset="1" stop-color="#f6e3c9"/>
    </linearGradient>
    <linearGradient xlink:href="#a" id="j" x1="-12" x2="-12" y1="1050.995" y2="1038.866" gradientTransform="translate(21.969)" gradientUnits="userSpaceOnUse"/>
    <linearGradient xlink:href="#b" id="k" x1="-17.313" x2="-17.344" y1="1050.945" y2="1039.084" gradientTransform="translate(21.969)" gradientUnits="userSpaceOnUse"/>
    <linearGradient xlink:href="#c" id="m" x1="-11.376" x2="-11.376" y1="1036.296" y2="1040.278" gradientTransform="translate(21.969)" gradientUnits="userSpaceOnUse"/>
    <linearGradient xlink:href="#d" id="l" x1="-12.922" x2="-12.922" y1="1037.323" y2="1040.391" gradientTransform="translate(21.969)" gradientUnits="userSpaceOnUse"/>
    <linearGradient xlink:href="#e" id="n" x1="9.895" x2="9.895" y1="1039.153" y2="1051.838" gradientTransform="translate(-4 -2)" gradientUnits="userSpaceOnUse"/>
    <linearGradient xlink:href="#f" id="o" x1="10.545" x2="10.545" y1="1038.578" y2="1052.323" gradientTransform="translate(-4 -2)" gradientUnits="userSpaceOnUse"/>
    <linearGradient xlink:href="#g" id="r" x1="7.007" x2="14" y1="1047.857" y2="1047.857" gradientTransform="matrix(.72294 0 0 1 -13.972 -4.125)" gradientUnits="userSpaceOnUse"/>
    <linearGradient xlink:href="#h" id="q" x1="7.007" x2="14" y1="1045.857" y2="1045.857" gradientTransform="matrix(.57547 0 0 1 -12.939 -4.125)" gradientUnits="userSpaceOnUse"/>
    <linearGradient xlink:href="#i" id="p" x1="7.007" x2="11" y1="1043.857" y2="1043.857" gradientTransform="matrix(.82572 0 0 1 -14.692 -4.125)" gradientUnits="userSpaceOnUse"/>
    <linearGradient id="h">
      <stop offset="0" stop-color="#91a5c7"/>
      <stop offset="1" stop-color="#637aa7"/>
    </linearGradient>
    <linearGradient id="i">
      <stop offset="0" stop-color="#91a5c7"/>
      <stop offset="1" stop-color="#5e76a3"/>
    </linearGradient>
    <linearGradient id="f">
      <stop offset="0" stop-color="#c7b571"/>
      <stop offset="1" stop-color="#9a9a8f"/>
    </linearGradient>
    <linearGradient id="e">
      <stop offset="0" stop-color="#f9fafc"/>
      <stop offset="1" stop-color="#dce7f7"/>
    </linearGradient>
    <linearGradient id="g">
      <stop offset="0" stop-color="#91a5c7"/>
      <stop offset="1" stop-color="#637aa7"/>
    </linearGradient>
    <linearGradient xlink:href="#h" id="A" x1="7.007" x2="14" y1="1047.857" y2="1047.857" gradientTransform="matrix(.86147 0 0 1 -18.07 -.957)" gradientUnits="userSpaceOnUse"/>
    <linearGradient xlink:href="#h" id="z" x1="7.007" x2="14" y1="1045.857" y2="1045.857" gradientTransform="matrix(.857 0 0 1 -18.039 -.957)" gradientUnits="userSpaceOnUse"/>
    <linearGradient xlink:href="#i" id="y" x1="7.007" x2="11" y1="1043.857" y2="1043.857" gradientTransform="matrix(1.51443 0 0 1 -22.646 -.957)" gradientUnits="userSpaceOnUse"/>
    <linearGradient xlink:href="#f" id="x" x1="10.545" x2="10.545" y1="1038.578" y2="1052.323" gradientTransform="translate(-1.029 1.918)" gradientUnits="userSpaceOnUse"/>
    <linearGradient xlink:href="#e" id="w" x1="9.895" x2="9.895" y1="1039.153" y2="1051.838" gradientTransform="translate(-1.029 1.918)" gradientUnits="userSpaceOnUse"/>
    <linearGradient xlink:href="#c" id="v" x1="-11.376" x2="-11.376" y1="1036.296" y2="1040.278" gradientTransform="translate(21.969)" gradientUnits="userSpaceOnUse"/>
    <linearGradient xlink:href="#d" id="u" x1="-12.922" x2="-12.922" y1="1037.323" y2="1040.391" gradientTransform="translate(21.969)" gradientUnits="userSpaceOnUse"/>
    <linearGradient xlink:href="#a" id="s" x1="-12" x2="-12" y1="1050.995" y2="1038.866" gradientTransform="translate(21.969)" gradientUnits="userSpaceOnUse"/>
    <linearGradient xlink:href="#b" id="t" x1="-17.313" x2="-17.344" y1="1050.945" y2="1039.084" gradientTransform="translate(21.969)" gradientUnits="userSpaceOnUse"/>
  </defs>
  <g transform="translate(0 -1036.362)">
    <rect width="11.054" height="11.993" x="3.446" y="1038.869" fill="url(#j)" stroke="url(#k)" rx="1.219" ry="1.219"/>
    <path fill="url(#l)" d="m 4.9843751,1040.3466 1.53125,-1.3672 0.9375,-2.1172 1.5,0 1.4999999,0 0.953125,2.1172 1.546875,1.3672"/>
    <path fill="url(#m)" d="m 7.3125001,1036.375 c -0.138213,0.043 -0.255616,0.1482 -0.3125,0.2812 l -0.875,2 -0.966084,0.8634 c -0.219449,0.2194 -0.161431,0.3252 -0.190934,0.8384 0.205415,0 0.484943,0 0.746694,-3e-4 l 1.129074,-1.0139 c 0.0516,-0.043 0.0944,-0.097 0.125,-0.1563 l 0.8125,-1.8125 1.1875,0 1.1562499,0 0.8125,1.8125 c 0.0306,0.06 0.0734,0.1133 0.125,0.1563 l 1.173251,1.0325 c 0.113518,0 0.471938,-0.02 0.715999,-0.031 0,-0.2129 0.08262,-0.5753 -0.123815,-0.7817 l -1.015435,-0.9075 -0.90625,-2 c -0.07974,-0.164 -0.255243,-0.2768 -0.4375,-0.2812 l -1.4999999,0 -1.5,0 c -0.05166,-0.01 -0.104595,-0.01 -0.15625,0 z" color="#000" font-family="Sans" font-weight="400" overflow="visible" style="text-indent:0;text-align:start;line-height:normal;text-transform:none;block-progression:tb;marker:none"/>
    <path fill="url(#n)" d="m 1.4972825,1036.9037 8.1563025,0 0.759173,3.0066 0,6.5483 -8.9154755,0 z" transform="translate(3.159 4.168)"/>
    <path fill="none" stroke="url(#o)" d="m 1.4972825,1036.9037 8.4908829,0 0.04042,3.0066 0,6.4546 -8.5313047,0 z" transform="translate(3.159 4.168)"/>
    <path fill="url(#p)" d="M-8.906 1039.227H-2.859V1040.237H-8.906z" transform="matrix(-1 0 0 1 3.159 4.168)"/>
    <path fill="url(#q)" d="M-8.906 1041.227H-2.882V1042.237H-8.906z" transform="matrix(-1 0 0 1 3.159 4.168)"/>
    <path fill="url(#r)" d="M-8.906 1043.227H-2.851V1044.237H-8.906z" transform="matrix(-1 0 0 1 3.159 4.168)"/>
    <rect width="11.054" height="11.993" x="3.446" y="1038.869" fill="url(#s)" stroke="url(#t)" rx="1.219" ry="1.219"/>
    <path fill="url(#u)" d="m 4.9843751,1040.3466 1.53125,-1.3672 0.9375,-2.1172 1.5,0 1.4999999,0 0.953125,2.1172 1.546875,1.3672"/>
    <path fill="url(#v)" d="m 7.3125001,1036.375 c -0.138213,0.043 -0.255616,0.1482 -0.3125,0.2812 l -0.875,2 -0.966084,0.8634 c -0.219449,0.2194 -0.161431,0.3252 -0.190934,0.8384 0.205415,0 0.484943,0 0.746694,-3e-4 l 1.129074,-1.0139 c 0.0516,-0.043 0.0944,-0.097 0.125,-0.1563 l 0.8125,-1.8125 1.1875,0 1.1562499,0 0.8125,1.8125 c 0.0306,0.06 0.0734,0.1133 0.125,0.1563 l 1.173251,1.0325 c 0.113518,0 0.471938,-0.02 0.715999,-0.031 0,-0.2129 0.08262,-0.5753 -0.123815,-0.7817 l -1.015435,-0.9075 -0.90625,-2 c -0.07974,-0.164 -0.255243,-0.2768 -0.4375,-0.2812 l -1.4999999,0 -1.5,0 c -0.05166,-0.01 -0.104595,-0.01 -0.15625,0 z" color="#000" font-family="Sans" font-weight="400" overflow="visible" style="line-height:normal;text-indent:0;text-align:start;text-decoration-line:none;text-transform:none;block-progression:tb;marker:none"/>
    <path fill="url(#w)" d="m 4.4686972,1040.8213 8.8125528,0 0.102923,3.0066 0,6.5483 -8.9154758,0 z"/>
    <path fill="none" stroke="url(#x)" d="m 4.4686972,1040.8213 9.0221328,0 0.04042,3.0066 0,6.0483 -9.0625534,0 z"/>
    <path fill="url(#y)" d="M-12.034 1042.394H-5.987V1043.404H-12.034z" transform="scale(-1 1)"/>
    <path fill="url(#z)" d="M-12.034 1044.394H-6.041V1045.404H-12.034z" transform="scale(-1 1)"/>
    <path fill="url(#A)" d="M-12.034 1046.394H-6.01V1047.404H-12.034z" transform="scale(-1 1)"/>
  </g>
</svg>
