<svg xmlns="http://www.w3.org/2000/svg" xmlns:xlink="http://www.w3.org/1999/xlink" width="7" height="8">
  <defs>
    <linearGradient id="b">
      <stop offset="0" stop-color="#c6852e"/>
      <stop offset="1" stop-color="#e1a555"/>
    </linearGradient>
    <linearGradient id="a">
      <stop offset="0" stop-color="#ffe296"/>
      <stop offset=".5" stop-color="#f8d880"/>
      <stop offset="1" stop-color="#fffcd3"/>
    </linearGradient>
    <linearGradient xlink:href="#a" id="c" x1="3.383" x2="3.383" y1="7.016" y2=".982" gradientUnits="userSpaceOnUse"/>
    <linearGradient xlink:href="#b" id="d" x1="6.389" x2="6.389" y1="7.237" y2=".393" gradientUnits="userSpaceOnUse"/>
  </defs>
  <path fill="url(#c)" stroke="url(#d)" d="M 2.8125,0.90625 0.78125,5 C 0.17522066,6.0251238 0.58843406,7.4816983 1.71875,7.5 L 3,7.5 l 1,0 1.28125,0 C 6.4115665,7.4817738 6.8247794,6.0250615 6.21875,5 L 4.1875,0.90625 c -0.2942923,-0.55673837 -1.1188077,-0.46727236 -1.375,0 z"/>
  <path fill="#502800" d="m 4.109375,5.484375 c 0,0.345178 -0.279822,0.625 -0.625,0.625 -0.345178,0 -0.625,-0.279822 -0.625,-0.625 0,-0.345178 0.279822,-0.625 0.625,-0.625 0.345178,0 0.625,0.279822 0.625,0.625 z" transform="translate(-.167 -.099) scale(1.05238)"/>
  <path fill="#502800" d="m 19.350026,1045.5028 c -0.378471,0 -0.700512,0.3368 -0.700512,0.774 l 0.09137,1.4889 c 0,0.3887 0.272722,0.7037 0.609141,0.7037 0.336419,0 0.609139,-0.315 0.609139,-0.7037 l 0.06091,-1.4889 c 0,-0.4372 -0.291583,-0.774 -0.670056,-0.774 z" transform="matrix(.93468 0 0 .93468 -14.572 -975.318)"/>
</svg>
