<svg xmlns="http://www.w3.org/2000/svg" xmlns:xlink="http://www.w3.org/1999/xlink" width="16" height="16">
  <defs>
    <linearGradient id="e">
      <stop offset="0" stop-color="#2269a4"/>
      <stop offset="1" stop-color="#6a9ac2"/>
    </linearGradient>
    <linearGradient id="c">
      <stop offset="0" stop-color="#ebf9ff"/>
      <stop offset="1" stop-color="#fcffff"/>
    </linearGradient>
    <linearGradient xlink:href="#a" id="h" x1="-12" x2="-15" y1="1047.362" y2="1047.362" gradientTransform="matrix(1 0 0 .74375 18 264.168)" gradientUnits="userSpaceOnUse"/>
    <linearGradient id="a">
      <stop offset="0" stop-color="#fff" stop-opacity="0"/>
      <stop offset="1" stop-color="#c3e9ff"/>
    </linearGradient>
    <linearGradient xlink:href="#b" id="i" x1="-11" x2="-11" y1="1042.362" y2="1045.362" gradientTransform="matrix(.8 0 0 1 15 -3)" gradientUnits="userSpaceOnUse"/>
    <linearGradient id="b">
      <stop offset="0" stop-color="#c3e9ff"/>
      <stop offset="1" stop-color="#fff" stop-opacity="0"/>
    </linearGradient>
    <linearGradient xlink:href="#c" id="g" x1="28" x2="28" y1="1039.362" y2="1049.362" gradientTransform="translate(-20)" gradientUnits="userSpaceOnUse"/>
    <linearGradient xlink:href="#d" id="j" x1="27.221" x2="32.662" y1="11.072" y2="15.713" gradientTransform="translate(-25.192 1037.892)" gradientUnits="userSpaceOnUse"/>
    <linearGradient id="d">
      <stop offset="0" stop-color="#17325d"/>
      <stop offset="1" stop-color="#9daeca"/>
    </linearGradient>
    <linearGradient xlink:href="#e" id="f" x1="6.938" x2="6.938" y1="1048.393" y2="1038.393" gradientUnits="userSpaceOnUse"/>
  </defs>
  <path fill="url(#f)" d="m 2,1038.3622 0.03125,10.0156 9.90625,0 -0.03125,-10.0156 z m 1,1 7.90625,0 0.03125,8.0156 -7.90625,0 z" color="#000" font-family="Sans" font-weight="400" overflow="visible" style="line-height:normal;text-indent:0;text-align:start;text-decoration-line:none;text-transform:none;block-progression:tb;marker:none" transform="translate(4.063 -1038.393)"/>
  <path fill="url(#g)" d="m 3,1039.3622 7.96875,0 0.03125,7.4375 -7.96875,0 z" color="#000" font-family="Sans" font-weight="400" overflow="visible" style="line-height:normal;text-indent:0;text-align:start;text-decoration-line:none;text-transform:none;block-progression:tb;marker:none" transform="translate(4.063 -1038.393)"/>
  <path fill="url(#h)" d="m 5,1040.9122 0,5.95 -2,0 0,-7.4375 z" transform="matrix(-.99219 0 0 -1.06875 17.977 1119.803)"/>
  <path fill="url(#i)" d="m 4.6,1041.3622 6.4,0 0,-2 -8,0 z" transform="matrix(-.99219 0 0 -1.06875 17.977 1119.803)"/>
  <path fill="#113d95" d="m 7.5330622,1133.6321 q -0.4789633,0 -0.7629997,0.4734 -0.2784671,0.4734 -0.3063138,1.3868 l 1.9715469,0 q 0,-0.4344 -0.050124,-0.7797 -0.050124,-0.3453 -0.1615109,-0.5848 -0.1058175,-0.2395 -0.2784671,-0.3676 -0.1670802,-0.1281 -0.4121313,-0.1281 z m 0.1058175,5.6307 q -0.7240144,0 -1.2809485,-0.2117 -0.5513648,-0.2116 -0.9245107,-0.6126 -0.3731459,-0.401 -0.5625035,-0.9802 -0.1893576,-0.5848 -0.1893576,-1.3311 0,-0.802 0.1893576,-1.409 0.1893576,-0.6071 0.5513648,-1.0136 0.3620072,-0.4066 0.8855253,-0.6071 0.5290875,-0.2061 1.2029778,-0.2061 0.6181969,0 1.1138683,0.1782 0.4956714,0.1727 0.8409706,0.518 0.3452992,0.3453 0.5290874,0.8577 0.1837888,0.5124 0.1837888,1.1918 l 0,0.5848 -3.7370287,0 q 0.016708,0.5736 0.1225255,0.9858 0.1113868,0.4121 0.3007445,0.6794 0.1949269,0.2674 0.4678247,0.3954 0.278467,0.1281 0.6349049,0.1281 0.2951751,0 0.5457955,-0.067 0.2506203,-0.072 0.4511166,-0.1949 0.2060657,-0.1281 0.3564379,-0.2952 0.1559416,-0.1726 0.2561897,-0.3676 0.3063138,0.1671 0.3063138,0.557 0,0.245 -0.1336642,0.4678 -0.1336642,0.2172 -0.4121313,0.3843 -0.2784671,0.1671 -0.701737,0.2673 -0.4177006,0.1003 -0.9969122,0.1003 z" font-family="Droid Serif" font-size="11.406" font-weight="700" letter-spacing="0" style="line-height:125%" transform="matrix(.96722 0 0 .94702 3.837 -1070.9)" word-spacing="0"/>
  <path fill="#fff" stroke="url(#j)" d="M.111 1046.884H6.142V1052.836H.111z" color="#000" overflow="visible" style="marker:none" transform="rotate(90 522.98 531.387)"/>
  <path fill="#17325d" d="m 6.5825306,1052.7505 -0.689928,0.7034 -3.1702308,-3.1333 -1.121382,1.0476 -0.00373,-3.0017 3.0026559,-0 -1.0871113,1.2442 z" transform="rotate(90 522.98 531.387)"/>
</svg>
