<?xml version="1.0" encoding="UTF-8" standalone="no"?>
<svg
   xmlns:dc="http://purl.org/dc/elements/1.1/"
   xmlns:cc="http://creativecommons.org/ns#"
   xmlns:rdf="http://www.w3.org/1999/02/22-rdf-syntax-ns#"
   xmlns:svg="http://www.w3.org/2000/svg"
   xmlns="http://www.w3.org/2000/svg"
   xmlns:sodipodi="http://sodipodi.sourceforge.net/DTD/sodipodi-0.dtd"
   xmlns:inkscape="http://www.inkscape.org/namespaces/inkscape"
   sodipodi:docname="juniterr.svg"
   inkscape:version="1.0rc1 (09960d6, 2020-04-09)"
   version="1.1"
   id="svg2"
   height="16"
   width="16">
  <defs
     id="defs4">
    <filter
       height="1.1569269"
       y="-0.078463458"
       width="1.1830814"
       x="-0.091540694"
       id="filter4270"
       style="color-interpolation-filters:sRGB"
       inkscape:collect="always">
      <feGaussianBlur
         id="feGaussianBlur4272"
         stdDeviation="0.22885175"
         inkscape:collect="always" />
    </filter>
  </defs>
  <sodipodi:namedview
     inkscape:document-rotation="0"
     inkscape:bbox-nodes="true"
     inkscape:snap-bbox="true"
     inkscape:snap-global="false"
     inkscape:guide-bbox="true"
     showguides="true"
     inkscape:window-maximized="1"
     inkscape:window-y="23"
     inkscape:window-x="0"
     inkscape:window-height="1005"
     inkscape:window-width="1680"
     showgrid="true"
     inkscape:current-layer="layer1-4"
     inkscape:document-units="px"
     inkscape:cy="7.9999782"
     inkscape:cx="16.499977"
     inkscape:zoom="34.545408"
     inkscape:pageshadow="2"
     inkscape:pageopacity="0"
     borderopacity="1.0"
     bordercolor="#666666"
     pagecolor="#8a8a8a"
     id="base">
    <inkscape:grid
       id="grid4092"
       type="xygrid" />
  </sodipodi:namedview>
  <metadata
     id="metadata7">
    <rdf:RDF>
      <cc:Work
         rdf:about="">
        <dc:format>image/svg+xml</dc:format>
        <dc:type
           rdf:resource="http://purl.org/dc/dcmitype/StillImage" />
        <dc:title />
      </cc:Work>
    </rdf:RDF>
  </metadata>
  <g
     transform="translate(0,-1036.3622)"
     style="display:inline"
     id="layer1"
     inkscape:groupmode="layer"
     inkscape:label="Layer 1">
    <g
       transform="translate(-8.1759221,-11.866136)"
       id="g8159"
       style="display:inline">
      <g
         inkscape:label="Layer 1"
         id="layer1-4"
         style="display:inline"
         transform="matrix(0.73056116,0,0,0.72750345,11.535974,295.24315)">
        <g
           id="text4274"
           style="font-style:normal;font-weight:normal;font-size:20.8505249px;line-height:125%;font-family:sans-serif;letter-spacing:0px;word-spacing:0px;fill:#21844f;fill-opacity:1;stroke:none;stroke-width:1px;stroke-linecap:butt;stroke-linejoin:miter;stroke-opacity:1"
           transform="matrix(0.97487237,0,0,1.0529718,1.2353345,-121.3327)">
          <path
             sodipodi:nodetypes="ccssccccssscccccccc"
             inkscape:connector-curvature="0"
             id="path4283"
             style="font-style:normal;font-variant:normal;font-weight:normal;font-stretch:normal;font-family:'Abyssinica SIL';fill:#21844f;fill-opacity:1"
             d="m 5.7116068,1103.4245 c -0.1425329,0.013 -0.2511294,0.069 -0.3257895,0.1647 -0.07466,0.096 -0.1123775,0.1957 -0.1119901,0.2986 l 0.021072,5.5974 c 0.013954,3.7067 -1.4512517,5.6713 -5.43113168,5.6713 -1.80177982,-0.1182 -2.48028302,-0.9148 -3.02345352,-2.0718 l -0.017128,-3.1277 1.4002613,0 c 0.3486131,1.6875 -0.1943701,3.9201 1.72678076,3.9215 2.28718454,0 2.48512424,-2.6479 2.47924504,-4.2498 l -0.021072,-5.7416 c -3.777e-4,-0.1029 -0.03733,-0.2024 -0.1119902,-0.2986 -0.067873,-0.096 -0.1764693,-0.1509 -0.3257894,-0.1647 l -2.26158131,-0.023 0.0210721,-1.24 8.33836871,-0.039 -0.021072,1.24 -2.3358024,0.062 z" />
        </g>
        <g
           id="text4278"
           style="font-style:normal;font-weight:normal;font-size:13.30733204px;line-height:125%;font-family:sans-serif;letter-spacing:0px;word-spacing:0px;fill:#d8424f;fill-opacity:1;stroke:none;stroke-width:1px;stroke-linecap:butt;stroke-linejoin:miter;stroke-opacity:1"
           transform="matrix(0.99327278,0,0,1.0524531,1.8486734,-55.527925)">
          <path
             sodipodi:nodetypes="ccssscsccccccccscsssccccccc"
             inkscape:connector-curvature="0"
             id="path4286"
             style="font-style:normal;font-variant:normal;font-weight:normal;font-stretch:normal;font-family:'Abyssinica SIL';-inkscape-font-specification:'Abyssinica SIL';fill:#d8424f;fill-opacity:1"
             d="m 14.493918,1045.3113 c -0.0953,0.01 -0.166775,0.043 -0.214425,0.104 -0.04332,0.061 -0.06498,0.1235 -0.06498,0.1884 l 0,4.3866 c 0,2.119 -1.076061,3.1454 -3.002754,3.1906 -2.6733245,0.063 -3.5791128,-1.1761 -3.9394497,-3.1906 l 0,-4.3079 c 0,-0.065 -0.023825,-0.1275 -0.071475,-0.1884 -0.043318,-0.061 -0.112627,-0.095 -0.2079271,-0.104 l -1.0817934,-0.032 0,-1.3192 4.6249862,0 0,1.3192 -0.760234,0.052 c -0.0953,0.01 -0.1667748,0.043 -0.2144248,0.104 -0.043318,0.061 -0.064977,0.1235 -0.064977,0.1884 l 0,3.9635 c 4.416e-4,1.5084 0.2961724,2.3273 1.7821368,2.2317 1.348299,-0.087 1.595847,-1.1413 1.595847,-2.2317 l 0,-4.0422 c 0,-0.065 -0.02599,-0.1275 -0.07797,-0.1884 -0.04765,-0.061 -0.119128,-0.095 -0.214425,-0.104 l -1.154527,-0.013 0,-1.2405 4.130158,-0.039 0,1.2405 z" />
        </g>
        <path
           transform="matrix(1.2669861,0,0,1.7718206,-4.1169814,1034.5535)"
           sodipodi:nodetypes="cccccc"
           inkscape:connector-curvature="0"
           id="rect7768-7"
           d="m 6.3163901,5.9987159 1.7310421,0 L 7.925462,8.8588746 6.6416441,9.8393634 6.426655,7.6490535 Z"
           style="display:inline;opacity:0.89200003;fill:#eff0f0;fill-opacity:1;stroke:none;stroke-width:1;stroke-linecap:butt;stroke-linejoin:miter;stroke-miterlimit:4;stroke-dasharray:none;stroke-dashoffset:0;stroke-opacity:1;filter:url(#filter4270)" />
        <rect
           transform="scale(1,-1)"
           y="-1056.3334"
           x="-3.9134953"
           height="9.6247234"
           width="8.2101154"
           id="rect4244"
           style="display:inline;fill:#d8424f;fill-opacity:1;stroke:#c91625;stroke-width:1.37168431;stroke-miterlimit:4;stroke-dasharray:none;stroke-opacity:1" />
        <path
           id="path4187-8-9"
           d="m -2.9192496,1054.9221 0,-0.1926 0,-0.7708 0,-0.1927 0.1663402,0 0.4990204,0 1.58023073,-2.1681 -1.62181593,-2.3606 -0.4574352,0 -0.1663402,0 0,-0.1927 0,-0.7708 0,-0.1927 0.1663402,0 1.99608159,0 0.16634021,0 0,0.1927 0,0.7708 0,0.1927 -0.16634021,0 0.8317001,1.3007 0.83170129,-1.3007 -0.16634016,0 0,-0.1927 0,-0.7708 0,-0.1927 0.16634016,0 1.99608082,0 0.1663403,0 0,0.1927 0,0.7708 0,0.1927 -0.1663403,0 -0.41585,0 -1.6634015,2.4089 1.538646,2.1198 0.5406055,0 0.1663403,0 0,0.1927 0,0.7708 0,0.1926 -0.1663403,0 -1.99608082,0 -0.16634016,0 0,-0.1926 0,-0.7708 0,-0.1927 0.0831645,0 -0.74853068,-1.1082 -0.74853066,1.1082 0.0831645,0 0,0.1927 0,0.7708 0,0.1926 -0.16634022,0 -1.99608153,0 -0.16634,0 z"
           style="color:#000000;font-style:normal;font-variant:normal;font-weight:normal;font-stretch:normal;font-size:7.68999243px;line-height:125%;font-family:Sans;text-indent:0;text-align:start;text-decoration:none;text-decoration-line:none;letter-spacing:0px;word-spacing:0px;text-transform:none;direction:ltr;block-progression:tb;writing-mode:lr-tb;baseline-shift:baseline;text-anchor:start;display:inline;overflow:visible;visibility:visible;fill:#ffffff;fill-opacity:1;fill-rule:nonzero;stroke:none;stroke-width:0.27519909;marker:none;enable-background:accumulate"
           inkscape:connector-curvature="0" />
      </g>
    </g>
  </g>
</svg>
