<svg xmlns="http://www.w3.org/2000/svg" xmlns:xlink="http://www.w3.org/1999/xlink" width="16" height="16">
  <defs>
    <linearGradient xlink:href="#a" id="g" x1="8.014" x2="8.014" y1="1042.362" y2="1050.071" gradientTransform="translate(0 2)" gradientUnits="userSpaceOnUse"/>
    <linearGradient id="a">
      <stop offset="0" stop-color="#be9a4b"/>
      <stop offset="1" stop-color="#877e60"/>
    </linearGradient>
    <linearGradient xlink:href="#b" id="h" x1="-13" x2="-15" y1="1047.362" y2="1047.362" gradientTransform="translate(18 -4)" gradientUnits="userSpaceOnUse"/>
    <linearGradient id="b">
      <stop offset="0" stop-color="#fff" stop-opacity="0"/>
      <stop offset="1" stop-color="#c5dff4"/>
    </linearGradient>
    <linearGradient xlink:href="#c" id="i" x1="-11" x2="-11" y1="1042.362" y2="1044.362" gradientTransform="translate(18 2)" gradientUnits="userSpaceOnUse"/>
    <linearGradient id="c">
      <stop offset="0" stop-color="#c5dff4"/>
      <stop offset="1" stop-color="#fff" stop-opacity="0"/>
    </linearGradient>
    <linearGradient xlink:href="#d" id="j" x1="8.014" x2="8.014" y1="1039.876" y2="1041.877" gradientTransform="translate(0 2)" gradientUnits="userSpaceOnUse"/>
    <linearGradient id="d">
      <stop offset="0" stop-color="#4476aa"/>
      <stop offset=".5" stop-color="#5a9ccc"/>
      <stop offset="1" stop-color="#4476aa"/>
    </linearGradient>
    <linearGradient id="e">
      <stop offset="0" stop-color="#e0c576"/>
      <stop offset="1" stop-color="#9e7916"/>
    </linearGradient>
    <linearGradient id="f">
      <stop offset="0" stop-color="#f7f9fb"/>
      <stop offset="1" stop-color="#ffd680"/>
    </linearGradient>
    <linearGradient xlink:href="#f" id="o" x1=".938" x2=".938" y1="4.844" y2="7.549" gradientTransform="matrix(2.31999 0 0 2.31999 10.2 1043.185)" gradientUnits="userSpaceOnUse"/>
    <filter id="m" width="1.17" height="1.221" x="-.085" y="-.11" color-interpolation-filters="sRGB">
      <feGaussianBlur stdDeviation="1.619"/>
    </filter>
    <filter id="l" width="1.48" height="1.48" x="-.24" y="-.24">
      <feGaussianBlur stdDeviation="1.465"/>
    </filter>
    <radialGradient xlink:href="#e" id="n" cx="-757.205" cy="-738.838" r="3.48" fx="-757.205" fy="-738.838" gradientTransform="matrix(1.85082 0 0 1.77506 644.25 572.636)" gradientUnits="userSpaceOnUse"/>
    <mask id="k" maskUnits="userSpaceOnUse"/>
  </defs>
  <path fill="#f4fcff" stroke="url(#g)" d="m 2.500702,1041.8621 12.927706,0 0,11.033 -12.927706,0 z" transform="translate(-.912 -1038.372)"/>
  <path fill="url(#h)" d="m 4,1045.3622 0,7.0312 -1,0 0,-8.0312 z" transform="translate(-.912 -1038.372)"/>
  <path fill="url(#i)" d="m 4,1045.3622 10.928078,0 0,-1 -11.928078,0 z" transform="translate(-.912 -1038.372)"/>
  <path fill="#58b6e8" stroke="url(#j)" d="m 2.500702,1041.8621 12.883511,0 0,2.0053 -12.883511,0 z" transform="translate(-.912 -1038.372)"/>
  <g mask="url(#k)" transform="translate(-.912 -1038.372)">
    <path fill="#fff" stroke="#fff" stroke-linecap="round" stroke-linejoin="round" stroke-width="5.855" d="m -16.30668,1023.0143 c 0,0 0.754772,2.7548 2.663409,4.6634 1.908637,1.9086 4.663405,2.6634 4.663405,2.6634 0,0 -2.739141,0.7391 -4.663398,2.6634 -1.924257,1.9243 -2.663409,4.6634 -2.663409,4.6634 0,0 -0.676645,-2.6766 -2.66341,-4.6634 -1.986765,-1.9868 -4.663405,-2.6634 -4.663405,-2.6634 0,0 2.801649,-0.8017 4.663405,-2.6634 1.861756,-1.8618 2.663403,-4.6634 2.663403,-4.6634 z" filter="url(#l)" opacity=".85" transform="matrix(.51238 0 0 .51238 21.788 514.893)"/>
  </g>
  <path fill="none" stroke="#ffe99f" stroke-width="3" d="m -106.1326,1054.8481 c 15.377466,0 21.179561,-6.8234 21.179561,-24.2257" filter="url(#m)" transform="matrix(.40514 0 0 .40514 47.105 -412.803)"/>
  <path fill="#fee9ac" fill-opacity=".969" d="M12.423 1049.056c0 0 .078.344.303.59.225.246.561.354.561.354 0 0-.342.076-.59.303-.248.227-.354.561-.354.561 0 0-.069-.334-.303-.59-.234-.256-.561-.354-.561-.354 0 0 .35-.084.59-.303.24-.22.354-.561.354-.561zM11.387 1050.822c0 0-.132.319-.091.643.041.324.248.6.248.6 0 0-.316-.132-.643-.09-.326.041-.6.248-.6.248 0 0 .134-.306.091-.642-.043-.337-.248-.6-.248-.6 0 0 .327.131.643.09.316-.04.6-.248.6-.248zM9.113 1051.691c0 0-.036.277.064.521.1.244.32.416.32.416 0 0-.275-.037-.521.064-.246.101-.416.32-.416.32 0 0 .04-.267-.064-.521-.104-.254-.32-.416-.32-.416 0 0 .283.034.521-.064.238-.097.416-.32.416-.32zM7.009 1052.453c0 0-.029.177.03.336.059.159.196.275.196.275 0 0-.176-.03-.336.029-.161.059-.275.196-.275.196 0 0 .032-.171-.03-.336-.061-.166-.196-.275-.196-.275 0 0 .181.028.336-.03.155-.057.275-.196.275-.196zM13.773 1046.317c0 0-.052.476.129.89.18.415.563.702.563.702 0 0-.472-.053-.89.129-.418.182-.702.563-.702.563 0 0 .059-.459-.129-.89-.188-.432-.563-.701-.563-.701 0 0 .486.047.89-.129.405-.176.702-.563.702-.563z" opacity=".85" transform="translate(-.912 -1038.372)"/>
  <path fill="url(#n)" stroke="#a27d18" stroke-width="1.032" d="M-758.823-740.411H-754.24V-735.957H-758.823z" transform="rotate(-135 -218.168 -526.044)"/>
  <path fill="url(#o)" d="m 12.471186,1054.309 1.001133,0 0,1.946 1.986639,0 0,1.0167 -1.986639,0 0,2.043 -1.001133,0 0,-2.043 -1.98664,0 0,-1.0167 1.98664,0 z" transform="translate(-.467 -1052.282)"/>
</svg>
