<svg xmlns="http://www.w3.org/2000/svg" xmlns:xlink="http://www.w3.org/1999/xlink" width="16" height="16">
  <defs>
    <linearGradient xlink:href="#a" id="p" x1="22.931" x2="22.931" y1="1039.698" y2="1041.736" gradientUnits="userSpaceOnUse"/>
    <linearGradient id="a">
      <stop offset="0" stop-color="#f9cd5f"/>
      <stop offset="1" stop-color="#ffebb7"/>
    </linearGradient>
    <linearGradient xlink:href="#b" id="q" x1="22.931" x2="22.931" y1="1039.698" y2="1041.736" gradientUnits="userSpaceOnUse"/>
    <linearGradient id="b">
      <stop offset="0" stop-color="#ad7212"/>
      <stop offset="1" stop-color="#875f1e"/>
    </linearGradient>
    <linearGradient xlink:href="#c" id="r" x1="420.524" x2="432.865" y1="378.799" y2="381.804" gradientTransform="matrix(.27903 0 0 .27903 -104.761 -96.355)" gradientUnits="userSpaceOnUse"/>
    <linearGradient id="c">
      <stop offset="0" stop-color="#2d493b"/>
      <stop offset="1" stop-color="#31564a"/>
    </linearGradient>
    <linearGradient xlink:href="#d" id="s" x1="413.011" x2="429.949" y1="366.601" y2="364.922" gradientTransform="matrix(.27903 0 0 .27903 -104.761 -96.355)" gradientUnits="userSpaceOnUse"/>
    <linearGradient id="d">
      <stop offset="0" stop-color="#2d493b"/>
      <stop offset="1" stop-color="#31564a"/>
    </linearGradient>
    <linearGradient xlink:href="#e" id="t" x1="674.847" x2="675.203" y1="180.64" y2="166.792" gradientTransform="matrix(.27903 0 0 .24757 -178.604 -39.534)" gradientUnits="userSpaceOnUse"/>
    <linearGradient id="e">
      <stop offset="0" stop-color="#2d493b"/>
      <stop offset="1" stop-color="#31564a"/>
    </linearGradient>
    <linearGradient xlink:href="#f" id="u" x1="396.01" x2="396.211" y1="359.49" y2="350.946" gradientTransform="matrix(.27903 0 0 .27903 -104.605 -96.34)" gradientUnits="userSpaceOnUse"/>
    <linearGradient id="f">
      <stop offset="0" stop-color="#2d493b"/>
      <stop offset="1" stop-color="#31564a"/>
    </linearGradient>
    <linearGradient xlink:href="#g" id="v" x1="674.847" x2="675.203" y1="180.64" y2="166.792" gradientTransform="matrix(0 .27903 .24757 0 -39.521 -178.6)" gradientUnits="userSpaceOnUse"/>
    <linearGradient id="g">
      <stop offset="0" stop-color="#2d493b"/>
      <stop offset="1" stop-color="#31564a"/>
    </linearGradient>
    <linearGradient xlink:href="#h" id="w" x1="413.011" x2="429.949" y1="366.601" y2="364.922" gradientTransform="matrix(0 .27903 .27903 0 -96.353 -104.7)" gradientUnits="userSpaceOnUse"/>
    <linearGradient id="h">
      <stop offset="0" stop-color="#2d493b"/>
      <stop offset="1" stop-color="#31564a"/>
    </linearGradient>
    <linearGradient xlink:href="#i" id="x" x1="420.524" x2="432.865" y1="378.799" y2="381.804" gradientTransform="matrix(0 .27903 .27903 0 -96.393 -104.738)" gradientUnits="userSpaceOnUse"/>
    <linearGradient id="i">
      <stop offset="0" stop-color="#203932"/>
      <stop offset="1" stop-color="#31564a"/>
    </linearGradient>
    <linearGradient xlink:href="#j" id="y" x1="396.01" x2="396.211" y1="359.49" y2="350.946" gradientTransform="matrix(0 -.27903 .27903 0 -96.328 115.616)" gradientUnits="userSpaceOnUse"/>
    <linearGradient id="j">
      <stop offset="0" stop-color="#2d493b"/>
      <stop offset="1" stop-color="#31564a"/>
    </linearGradient>
    <linearGradient id="k">
      <stop offset="0" stop-color="#fff"/>
      <stop offset="1" stop-color="#8ebc7b"/>
    </linearGradient>
    <linearGradient xlink:href="#l" id="A" x1="427.53" x2="425.452" y1="432.766" y2="415.109" gradientUnits="userSpaceOnUse"/>
    <linearGradient id="l">
      <stop offset="0" stop-color="#2d493b"/>
      <stop offset="1" stop-color="#2d707c"/>
    </linearGradient>
    <linearGradient id="m">
      <stop offset="0" stop-color="#fff"/>
      <stop offset="1" stop-color="#8ebc7b"/>
    </linearGradient>
    <linearGradient xlink:href="#n" id="C" x1="684.116" x2="666.197" y1="204.12" y2="183.924" gradientTransform="matrix(.27903 0 0 .24757 -178.89 996.828)" gradientUnits="userSpaceOnUse"/>
    <linearGradient id="n">
      <stop offset="0" stop-color="#387a31"/>
      <stop offset="1" stop-color="#397b3b" stop-opacity="0"/>
    </linearGradient>
    <linearGradient xlink:href="#o" id="D" x1="427.929" x2="440.353" y1="447.021" y2="417.261" gradientUnits="userSpaceOnUse"/>
    <linearGradient id="o">
      <stop offset="0" stop-color="#0d5269"/>
      <stop offset="1" stop-color="#2d707c"/>
    </linearGradient>
    <radialGradient xlink:href="#k" id="z" cx="433.545" cy="420.75" r="12.952" fx="433.545" fy="420.75" gradientTransform="matrix(1 0 0 1.27979 0 -120.612)" gradientUnits="userSpaceOnUse"/>
    <radialGradient xlink:href="#m" id="B" cx="433.368" cy="424.341" r="12.028" fx="433.368" fy="424.341" gradientTransform="matrix(1.2232 -.08344 .10168 1.4905 -139.873 -174.007)" gradientUnits="userSpaceOnUse"/>
  </defs>
  <path fill="url(#p)" stroke="url(#q)" stroke-width=".8" d="m 23.585155,1039.3249 0,-1.591 c 0,0 -0.353553,-0.8397 -1.370019,-0.044 -1.016466,0.7955 -2.209709,2.0772 -2.386486,2.4307 -0.176776,0.3536 -0.928077,0.9723 0.08839,1.9446 1.016466,0.9722 2.121321,1.9887 2.121321,1.9887 0,0 0.404271,0.3812 0.799458,0.5707 0.37782,0.1811 0.747338,0.1871 0.747338,-0.4827 0,-1.37 0,-1.812 0,-1.812 1.366404,-0.063 1.727345,0.3446 2.039845,0.6884 0.3125,0.3437 0.8125,1.9687 1.21875,2.0937 0.40625,0.125 0.625,-2.1875 0.625,-2.625 0,-0.4375 -0.09375,-1.3125 -0.71875,-1.9687 -0.625,-0.6563 -1.006571,-0.9555 -1.53125,-1.0998 -0.524679,-0.1444 -1.633595,-0.094 -1.633595,-0.094 z" transform="rotate(180 17.461 526.517)"/>
  <path fill="#fff" d="m 23.069359,1042.9731 0,0.5966 c 0,0 0.110485,0.3757 -0.220971,0.2431 -0.331456,-0.1326 -0.972272,-0.6629 -1.038563,-0.7734 -0.06629,-0.1105 -0.751301,-0.5966 -0.596622,-0.8176 0.15468,-0.221 1.458408,-0.066 1.458408,-0.066 z" opacity=".857" transform="rotate(180 17.461 526.517)"/>
  <g fill="none">
    <path stroke="url(#r)" d="m 12.82579,9.4971188 1.661134,0 1.422561,1.4112212" transform="matrix(.75444 0 0 .75444 -.747 -.818)"/>
    <path stroke="url(#s)" d="m 10,6.9999994 1.508233,-1.4917651 0.983535,-2.4e-6 0.977902,0.9889529 1.541382,0" transform="matrix(.75444 0 0 .75444 -.747 -.818)"/>
    <path stroke="url(#t)" d="m 8.497184,5.9999999 0,-1.4696695 1.0021304,-1.0554648 0,-1.4697487" transform="matrix(.75444 0 0 .75444 -.747 -.818)"/>
    <path stroke="url(#u)" d="M 5.516768,6.0186776 5.4903436,0.99696" transform="matrix(.75444 0 0 .75444 -.747 -.818)"/>
    <path stroke="url(#v)" d="m 6.0125902,8.501281 -1.4696698,0 -1.0554648,1.0021285 -1.4697478,0" transform="matrix(.75444 0 0 .75444 -.747 -.818)"/>
    <path stroke="url(#w)" d="m 7.0014107,10.06109 -1.4917664,1.508234 -2.8e-6,0.983533 0.9889544,0.977904 0,1.541381" transform="matrix(.75444 0 0 .75444 -.747 -.818)"/>
    <path stroke="url(#x)" d="m 9.4588992,12.848383 0,1.661134 1.4112208,1.422562" transform="matrix(.75444 0 0 .75444 -.747 -.818)"/>
    <path stroke="url(#y)" d="M 6.0300382,5.4946057 1.0083225,5.5210287" transform="matrix(.75444 0 0 .75444 -.747 -.818)"/>
  </g>
  <path fill="url(#z)" stroke="url(#A)" stroke-linecap="round" stroke-linejoin="round" stroke-width="7.195" d="m 444.77016,431.08047 c 0,8.24983 -5.06532,14.93764 -11.31371,14.93764 -6.24839,0 -11.31371,-6.68781 -11.31371,-14.93764 0,-8.24982 5.06532,-14.93763 11.31371,-14.93763 6.24839,0 11.31371,6.68781 11.31371,14.93763 z" transform="rotate(-45 -25.044 74.569) scale(.10485)"/>
  <path fill="url(#B)" d="m 444.77016,431.08047 c 0,8.24983 -5.06532,14.93764 -11.31371,14.93764 -6.24839,0 -11.31371,-6.68781 -11.31371,-14.93764 0,-8.24982 5.06532,-14.93763 11.31371,-14.93763 6.24839,0 11.31371,6.68781 11.31371,14.93763 z" transform="rotate(-45.001 -53.713 150.75) scale(.21005 .21004)"/>
  <path fill="none" stroke="url(#C)" d="m 5.88715,1042.2397 5.808198,5.8082" transform="matrix(.75444 0 0 .75444 -.747 -782.695)"/>
  <path fill="none" stroke="url(#D)" stroke-linecap="round" stroke-linejoin="round" stroke-width="3.766" d="m 444.77016,431.08047 c 0,8.24983 -5.06532,14.93764 -11.31371,14.93764 -6.24839,0 -11.31371,-6.68781 -11.31371,-14.93764 0,-8.24982 5.06532,-14.93763 11.31371,-14.93763 6.24839,0 11.31371,6.68781 11.31371,14.93763 z" transform="matrix(.14323 -.14011 .14323 .14011 -117.764 6.315)"/>
  <path fill="#2e6a22" stroke="#2e6a22" stroke-width="3.766" d="m 431.37184,416.3986 c 1.50456,-0.3724 3.05071,-0.3378 4.54485,0.1017" transform="matrix(.14323 -.14011 .14323 .14011 -117.764 6.315)"/>
</svg>
