<svg xmlns="http://www.w3.org/2000/svg" xmlns:xlink="http://www.w3.org/1999/xlink" width="16" height="16">
  <defs>
    <linearGradient id="f">
      <stop offset="0" stop-color="#bfb688"/>
      <stop offset="1" stop-color="#8694ae"/>
    </linearGradient>
    <linearGradient id="a">
      <stop offset="0" stop-color="#7cb87d"/>
      <stop offset="1" stop-color="#a8ceb7"/>
    </linearGradient>
    <linearGradient xlink:href="#b" id="l" x1="6" x2="11" y1="1050.862" y2="1050.862" gradientTransform="translate(2 -2)" gradientUnits="userSpaceOnUse"/>
    <linearGradient id="b">
      <stop offset="0" stop-color="#677da9"/>
      <stop offset="1" stop-color="#b4bbd1"/>
    </linearGradient>
    <linearGradient id="c">
      <stop offset="0" stop-color="#7cb87d"/>
      <stop offset="1" stop-color="#a8ceb7"/>
    </linearGradient>
    <linearGradient xlink:href="#d" id="n" x1="-13" x2="-15" y1="1047.362" y2="1047.362" gradientTransform="translate(18 -4)" gradientUnits="userSpaceOnUse"/>
    <linearGradient id="d">
      <stop offset="0" stop-color="#fff" stop-opacity="0"/>
      <stop offset="1" stop-color="#d1eeff"/>
    </linearGradient>
    <linearGradient xlink:href="#e" id="o" x1="-11" x2="-11" y1="1042.362" y2="1044.362" gradientTransform="translate(18 -4)" gradientUnits="userSpaceOnUse"/>
    <linearGradient id="e">
      <stop offset="0" stop-color="#d1eeff"/>
      <stop offset="1" stop-color="#fff" stop-opacity="0"/>
    </linearGradient>
    <linearGradient xlink:href="#f" id="j" x1="8.014" x2="8.014" y1="1036.662" y2="1050.071" gradientTransform="translate(0 2)" gradientUnits="userSpaceOnUse"/>
    <linearGradient id="h">
      <stop offset="0" stop-color="#677da9"/>
      <stop offset="1" stop-color="#b4bbd1"/>
    </linearGradient>
    <linearGradient id="g">
      <stop offset="0" stop-color="#7cb87d"/>
      <stop offset="1" stop-color="#a8ceb7"/>
    </linearGradient>
    <linearGradient xlink:href="#h" id="p" x1="6" x2="11" y1="1050.862" y2="1050.862" gradientTransform="translate(2 -10)" gradientUnits="userSpaceOnUse"/>
    <linearGradient id="i">
      <stop offset="0" stop-color="#677da9"/>
      <stop offset="1" stop-color="#b4bbd1"/>
    </linearGradient>
    <linearGradient xlink:href="#i" id="r" x1="6" x2="11" y1="1050.862" y2="1050.862" gradientTransform="translate(2 -6)" gradientUnits="userSpaceOnUse"/>
    <radialGradient xlink:href="#a" id="k" cx="3.513" cy="12.464" r="2.173" fx="3.513" fy="12.464" gradientTransform="matrix(.4381 0 0 .4769 1.974 6.52)" gradientUnits="userSpaceOnUse"/>
    <radialGradient xlink:href="#c" id="m" cx="3.513" cy="12.464" r="2.173" fx="3.513" fy="12.464" gradientTransform="matrix(.4381 0 0 .4769 1.974 6.52)" gradientUnits="userSpaceOnUse"/>
    <radialGradient xlink:href="#g" id="q" cx="3.513" cy="12.464" r="2.173" fx="3.513" fy="12.464" gradientTransform="matrix(.4381 0 0 .4769 1.974 6.52)" gradientUnits="userSpaceOnUse"/>
  </defs>
  <path fill="#f4fcff" stroke="url(#j)" d="M2.501 1037.862H14.501V1051.864H2.501z" transform="translate(0 -1036.362)"/>
  <path fill="url(#k)" stroke="#379860" stroke-width="1.34" d="m 5.0160387,12.464466 c 0,0.829864 -0.6727378,1.502602 -1.5026019,1.502602 -0.8298641,0 -1.5026019,-0.672738 -1.5026019,-1.502602 0,-0.829864 0.6727378,-1.502602 1.5026019,-1.502602 0.8298641,0 1.5026019,0.672738 1.5026019,1.502602 z" transform="matrix(.68773 0 0 .68773 3.08 -.08)"/>
  <path fill="url(#l)" d="m 8,1048.3622 0,0.091 0,0.9091 5,0 0,-0.9091 0,-0.091 z" transform="translate(0 -1036.362)"/>
  <path fill="url(#m)" stroke="#379860" stroke-width="1.34" d="m 5.0160387,12.464466 c 0,0.829864 -0.6727378,1.502602 -1.5026019,1.502602 -0.8298641,0 -1.5026019,-0.672738 -1.5026019,-1.502602 0,-0.829864 0.6727378,-1.502602 1.5026019,-1.502602 0.8298641,0 1.5026019,0.672738 1.5026019,1.502602 z" transform="matrix(.68773 0 0 .68773 3.08 3.92)"/>
  <path fill="url(#n)" d="m 4,1039.3622 0,12 -1,0 0,-13 z" transform="translate(0 -1036.362)"/>
  <path fill="url(#o)" d="m 4,1039.3622 10,0 0,-1 -11,0 z" transform="translate(0 -1036.362)"/>
  <path fill="url(#p)" d="m 8,1040.3622 0,0.091 0,0.9091 5,0 0,-0.9091 0,-0.091 z" transform="translate(0 -1036.362)"/>
  <path fill="url(#q)" stroke="#379860" stroke-width="1.34" d="m 5.0160387,12.464466 c 0,0.829864 -0.6727378,1.502602 -1.5026019,1.502602 -0.8298641,0 -1.5026019,-0.672738 -1.5026019,-1.502602 0,-0.829864 0.6727378,-1.502602 1.5026019,-1.502602 0.8298641,0 1.5026019,0.672738 1.5026019,1.502602 z" transform="matrix(.68773 0 0 .68773 3.08 -4.08)"/>
  <path fill="url(#r)" d="m 8,1044.3622 0,0.091 0,0.9091 5,0 0,-0.9091 0,-0.091 z" transform="translate(0 -1036.362)"/>
</svg>
