<svg xmlns="http://www.w3.org/2000/svg" xmlns:xlink="http://www.w3.org/1999/xlink" width="16" height="16">
  <defs>
    <linearGradient id="k">
      <stop offset="0" stop-color="#fff"/>
      <stop offset="1" stop-color="#fff" stop-opacity="0"/>
    </linearGradient>
    <linearGradient id="j">
      <stop offset="0" stop-color="#f9fafc"/>
      <stop offset="1" stop-color="#dfe8f8"/>
    </linearGradient>
    <linearGradient id="i">
      <stop offset="0" stop-color="#e1ebf8"/>
      <stop offset="1" stop-color="#f5f8fc"/>
    </linearGradient>
    <linearGradient id="d">
      <stop offset="0" stop-color="#a2b3cf"/>
      <stop offset="1" stop-color="#869abe"/>
    </linearGradient>
    <linearGradient id="e">
      <stop offset="0" stop-color="#c7b571"/>
      <stop offset="1" stop-color="#9a9a8f"/>
    </linearGradient>
    <linearGradient id="c">
      <stop offset="0" stop-color="#a2b3cf"/>
      <stop offset="1" stop-color="#869abe"/>
    </linearGradient>
    <linearGradient id="b">
      <stop offset="0" stop-color="#a2b3cf"/>
      <stop offset="1" stop-color="#869abe"/>
    </linearGradient>
    <linearGradient id="a">
      <stop offset="0" stop-color="#a2b3cf"/>
      <stop offset="1" stop-color="#869abe"/>
    </linearGradient>
    <linearGradient xlink:href="#a" id="u" x1="7.007" x2="14" y1="1045.857" y2="1045.857" gradientTransform="matrix(.714 0 0 1 3.997 5.014)" gradientUnits="userSpaceOnUse"/>
    <linearGradient xlink:href="#b" id="t" x1="7.007" x2="14" y1="1045.857" y2="1045.857" gradientTransform="matrix(.714 0 0 1 3.997 3.014)" gradientUnits="userSpaceOnUse"/>
    <linearGradient xlink:href="#c" id="s" x1="7.007" x2="14" y1="1045.857" y2="1045.857" gradientTransform="matrix(.714 0 0 1 3.997 -.986)" gradientUnits="userSpaceOnUse"/>
    <linearGradient xlink:href="#d" id="r" x1="7.007" x2="14" y1="1045.857" y2="1045.857" gradientTransform="matrix(.714 0 0 1 3.997 1.014)" gradientUnits="userSpaceOnUse"/>
    <linearGradient xlink:href="#e" id="p" x1="10.545" x2="10.545" y1="1039.462" y2="1049.583" gradientTransform="translate(-.07 3.389)" gradientUnits="userSpaceOnUse"/>
    <linearGradient id="f">
      <stop offset="0" stop-color="#c7b571"/>
      <stop offset="1" stop-color="#9a9a8f"/>
    </linearGradient>
    <linearGradient xlink:href="#f" id="l" x1="10.545" x2="10.545" y1="1039.42" y2="1046.417" gradientTransform="translate(-7.07 .389)" gradientUnits="userSpaceOnUse"/>
    <linearGradient xlink:href="#g" id="o" x1="-11" x2="-11" y1="1042.362" y2="1044.362" gradientTransform="translate(16 -2)" gradientUnits="userSpaceOnUse"/>
    <linearGradient id="g">
      <stop offset="0" stop-color="#d1eeff"/>
      <stop offset="1" stop-color="#fff" stop-opacity="0"/>
    </linearGradient>
    <linearGradient id="h">
      <stop offset="0" stop-color="#fff" stop-opacity="0"/>
      <stop offset="1" stop-color="#d1eeff"/>
    </linearGradient>
    <linearGradient xlink:href="#h" id="n" x1="-13" x2="-15" y1="1047.362" y2="1047.362" gradientTransform="translate(16 -2)" gradientUnits="userSpaceOnUse"/>
    <linearGradient xlink:href="#i" id="m" x1="24.052" x2="24.052" y1="1040.186" y2="1046.635" gradientTransform="translate(-20)" gradientUnits="userSpaceOnUse"/>
    <linearGradient xlink:href="#j" id="q" x1="24.052" x2="24.052" y1="1043.19" y2="1052.513" gradientTransform="matrix(.50124 0 0 1 -2.543 0)" gradientUnits="userSpaceOnUse"/>
    <linearGradient xlink:href="#k" id="v" x1="9" x2="9" y1="1042.362" y2="1041.362" gradientUnits="userSpaceOnUse"/>
    <linearGradient xlink:href="#k" id="w" x1="7" x2="6" y1="1043.362" y2="1043.362" gradientUnits="userSpaceOnUse"/>
  </defs>
  <path fill="none" stroke="url(#l)" d="m 0.489821,1039.8677 14.009226,0 0,7.011 -14.009226,0 z" transform="translate(0 -1036.362)"/>
  <path fill="url(#m)" d="m 1,1040.3622 0,6 14,0 0,-6 z" transform="translate(0 -1036.362)"/>
  <path fill="url(#n)" d="m 2,1041.3622 0,5.0277 -1,0 0,-6.0277 z" transform="translate(0 -1036.362)"/>
  <path fill="url(#o)" d="m 2,1041.3622 13.06066,0 0,-1 -14.06066,0 z" transform="translate(0 -1036.362)"/>
  <path fill="none" stroke="url(#p)" d="m 7.489821,1042.8677 8.009226,0 0,10.0324 -8.009226,0 z" transform="translate(0 -1036.362)"/>
  <path fill="url(#q)" d="m 7.98268,1043.3345 0,9.0277 7.01732,0 0,-9.0277 z" transform="translate(0 -1036.362)"/>
  <path fill="url(#r)" d="M9 1046.366H13.993V1047.376H9z" transform="translate(0 -1036.362)"/>
  <path fill="url(#s)" d="M9 1044.366H13.993V1045.376H9z" transform="translate(0 -1036.362)"/>
  <path fill="url(#t)" d="M9 1048.366H13.993V1049.376H9z" transform="translate(0 -1036.362)"/>
  <path fill="url(#u)" d="M9 1050.366H13.993V1051.376H9z" transform="translate(0 -1036.362)"/>
  <g fill="#4b6ea2">
    <path d="M11 1H13V2H11z" transform="translate(-10 -1)"/>
    <path d="M14 1037.362H16V1038.362H14zM11 1050.362H13V1051.362H11zM14 1050.362H16V1051.362H14zM13 1038.362H14V1050.362H13z" transform="translate(-10 -1037.362)"/>
  </g>
  <path fill="url(#v)" d="m 6.989821,1042.3677 8.044194,0 0,-1 -9.044194,0 z" opacity=".5" transform="translate(0 -1036.362)"/>
  <path fill="url(#w)" d="m 6.989821,1042.351 0,5.0277 -1,0 0,-6.0277 z" opacity=".5" transform="translate(0 -1036.362)"/>
</svg>
