<svg xmlns="http://www.w3.org/2000/svg" xmlns:xlink="http://www.w3.org/1999/xlink" width="16" height="16">
  <defs>
    <linearGradient id="b">
      <stop offset="0" stop-color="#b28218"/>
      <stop offset="1" stop-color="#a16e12"/>
    </linearGradient>
    <linearGradient id="a">
      <stop offset="0" stop-color="#fefdef"/>
      <stop offset="1" stop-color="#fce69e"/>
    </linearGradient>
    <linearGradient xlink:href="#a" id="d" x1="11.906" x2="11.906" y1="1042.362" y2="1047.268" gradientTransform="translate(-4 -1)" gradientUnits="userSpaceOnUse"/>
    <linearGradient xlink:href="#b" id="c" x1="8" x2="8" y1="1040.362" y2="1047.362" gradientUnits="userSpaceOnUse"/>
  </defs>
  <path fill="url(#c)" d="m 7,1040.3622 0,2 -5,0 -1,0 c -0.9918497,0.9918 -0.9863244,2.0137 0,3 l 1,0 5,0 0,2 c 0,0.6519 0.740915,0.6375 1.5,0 l 3.9375,-3.5 -3.9375,-3.5 c -0.760225,-0.7602 -1.5,-0.5203 -1.5,0 z m 1,1 3,2.5 -3,2.5 0,-2 -6.4375,0 c -0.2762136,-0.2099 -0.2774437,-0.7282 0,-1 l 6.4375,0 z" transform="translate(0 -1036.362)"/>
  <path fill="url(#d)" d="m 1,1043.3622 0,1 7,0 0,2 2.999893,-2.5 -2.999893,-2.5 0,2 z" transform="translate(0 -1036.362)"/>
  <path fill="#4b6ea2" d="M11 1H13V2H11z"/>
  <path fill="#4b6ea2" d="M14 1037.362H16V1038.362H14zM11 1050.362H13V1051.362H11zM14 1050.362H16V1051.362H14zM13 1038.362H14V1050.362H13z" transform="translate(0 -1036.362)"/>
</svg>
