<svg xmlns="http://www.w3.org/2000/svg" xmlns:xlink="http://www.w3.org/1999/xlink" width="16" height="16">
  <defs>
    <linearGradient id="e">
      <stop offset="0" stop-color="#c28a1d"/>
      <stop offset="1" stop-color="#c28a1d" stop-opacity="0"/>
    </linearGradient>
    <linearGradient id="c">
      <stop offset="0" stop-color="#fefaef"/>
      <stop offset="1" stop-color="#fce5a7"/>
    </linearGradient>
    <linearGradient id="d">
      <stop offset="0" stop-color="#956413"/>
      <stop offset="1" stop-color="#c38b1d"/>
    </linearGradient>
    <linearGradient id="a">
      <stop offset="0" stop-color="#3a435f"/>
      <stop offset="1" stop-color="#5689b4"/>
    </linearGradient>
    <linearGradient id="b">
      <stop offset="0" stop-color="#3a435f"/>
      <stop offset="1" stop-color="#5689b4"/>
    </linearGradient>
    <linearGradient xlink:href="#c" id="h" x1="1.138" x2="10.473" y1="1045.208" y2="1045.208" gradientTransform="matrix(0 .58432 .58432 0 -601.737 1040.306)" gradientUnits="userSpaceOnUse"/>
    <linearGradient xlink:href="#d" id="i" x1="32" x2="32" y1="1050.362" y2="1037.362" gradientTransform="translate(-19 -.938)" gradientUnits="userSpaceOnUse"/>
    <linearGradient xlink:href="#e" id="j" x1="27.438" x2="27.438" y1="1049.035" y2="1046.44" gradientTransform="translate(-19 -.938)" gradientUnits="userSpaceOnUse"/>
    <radialGradient xlink:href="#a" id="f" cx="2" cy="16" r="2" fx="2" fy="16" gradientTransform="matrix(2 0 0 1.5 -1 1026.362)" gradientUnits="userSpaceOnUse"/>
    <radialGradient xlink:href="#b" id="g" cx="2" cy="16" r="2" fx="2" fy="16" gradientTransform="matrix(2 0 0 1.5 10 1026.362)" gradientUnits="userSpaceOnUse"/>
  </defs>
  <path fill="url(#f)" d="m 2,1048.3622 c -0.554,0 -1.00000003,0.446 -1.00000003,1 l 0,1 4.00000003,0 0,-1 c 0,-0.554 -0.446,-1 -1,-1 l -2,0 z" transform="translate(0 -1036.362)"/>
  <path fill="url(#g)" d="m 13,1048.3622 c -0.554,0 -1,0.446 -1,1 l 0,1 4,0 0,-1 c 0,-0.554 -0.446,-1 -1,-1 l -2,0 z" transform="translate(0 -1036.362)"/>
  <path fill="url(#h)" stroke="url(#i)" stroke-linecap="round" stroke-linejoin="round" d="m 7.953125,1039.8626 -5.703125,0 c -0.39031,0 -0.71875,0.2972 -0.71875,0.6875 l 0,0.5312 c 0,0.3903 0.32845,0.7188 0.71875,0.7188 l 5.28125,0 0,3.0625 -2.25,0 0,1 3.21875,3.2188 3.21875,-3.2188 0,-1 -2.21875,0 0,-3.4687 c 0,-0.9367 -0.439519,-1.5313 -1.546875,-1.5313 z" transform="translate(0 -1036.362)"/>
  <path fill="url(#j)" d="m 7.8124999,1042.3001 0,2.5625 a 0.29218979,0.29218979 0 0 1 -0.03125,0.125 0.29218979,0.29218979 0 0 1 -0.0625,0.094 0.29218979,0.29218979 0 0 1 -0.0625,0.031 0.29218979,0.29218979 0 0 1 -0.125,0.031 l -1.96875,0 0,0.5625 2.9375,2.9375 2.9375001,-2.9375 0,-0.5625 -1.9375001,0 a 0.29218979,0.29218979 0 0 1 -0.0625,0 0.29218979,0.29218979 0 0 1 -0.15625,-0.094 0.29218979,0.29218979 0 0 1 -0.03125,-0.062 0.29218979,0.29218979 0 0 1 -0.03125,-0.094 0.29218979,0.29218979 0 0 1 0,-0.031 l 0,-2.5625 -0.46875,0 0,2.5625 a 0.750075,0.750075 0 0 0 0.75,0.75 l 1.4062501,0 -2.4062501,2.4063 -2.40625,-2.4063 1.4375,0 a 0.750075,0.750075 0 0 0 0.75,-0.75 l 0,-2.5625 -0.46875,0 z" color="#000" font-family="Sans" font-weight="400" opacity=".5" overflow="visible" style="text-indent:0;text-align:start;line-height:normal;text-transform:none;block-progression:tb;marker:none;-inkscape-font-specification:Sans" transform="translate(0 -1036.362)"/>
</svg>
