<svg xmlns="http://www.w3.org/2000/svg" xmlns:xlink="http://www.w3.org/1999/xlink" width="16" height="16">
  <defs>
    <linearGradient id="d">
      <stop offset="0" stop-color="#f9fafc"/>
      <stop offset="1" stop-color="#dfe9f7"/>
    </linearGradient>
    <linearGradient xlink:href="#a" id="l" x1="12.066" x2="14.066" y1="1045.365" y2="1045.365" gradientTransform="translate(1036.297 -1055.365)" gradientUnits="userSpaceOnUse"/>
    <linearGradient id="a">
      <stop offset="0" stop-color="#849bc2"/>
      <stop offset="1" stop-color="#516fa3"/>
    </linearGradient>
    <linearGradient xlink:href="#b" id="i" x1="8.977" x2="9.987" y1="1041.341" y2="1040.33" gradientTransform="rotate(90 6.976 1047.361)" gradientUnits="userSpaceOnUse"/>
    <linearGradient id="b">
      <stop offset="0" stop-color="#e0c88f"/>
      <stop offset="1" stop-color="#d4b268"/>
    </linearGradient>
    <linearGradient xlink:href="#c" id="h" x1="5.065" x2="16.066" y1="1044.365" y2="1044.365" gradientTransform="rotate(90 8.534 1044.83)" gradientUnits="userSpaceOnUse"/>
    <linearGradient id="c">
      <stop offset="0" stop-color="#c7b571"/>
      <stop offset="1" stop-color="#9b998f"/>
    </linearGradient>
    <linearGradient xlink:href="#d" id="g" x1="7.065" x2="14.066" y1="1040.365" y2="1040.365" gradientTransform="rotate(90 8.534 1044.83)" gradientUnits="userSpaceOnUse"/>
    <linearGradient id="e">
      <stop offset="0" stop-color="#849bc2"/>
      <stop offset="1" stop-color="#516fa3"/>
    </linearGradient>
    <linearGradient xlink:href="#e" id="m" x1="12.066" x2="14.066" y1="1045.365" y2="1045.365" gradientTransform="translate(1036.297 -1052.365)" gradientUnits="userSpaceOnUse"/>
    <linearGradient id="f">
      <stop offset="0" stop-color="#849bc2"/>
      <stop offset="1" stop-color="#516fa3"/>
    </linearGradient>
    <linearGradient xlink:href="#f" id="n" x1="12.066" x2="14.066" y1="1045.365" y2="1045.365" gradientTransform="translate(1036.297 -1049.365)" gradientUnits="userSpaceOnUse"/>
    <filter id="k" width="1.35" height="1.37" x="-.175" y="-.185">
      <feGaussianBlur stdDeviation=".762"/>
    </filter>
    <mask id="j" maskUnits="userSpaceOnUse"/>
  </defs>
  <path fill="url(#g)" d="m 15.367049,1041.7939 0,7.0097 -3.0066,3.0621 -10.86058,0 0,-10.0718 z" transform="translate(0 -1036.362)"/>
  <path fill="none" stroke="url(#h)" d="m 15.499632,1041.8712 0,6.9324 -3.0066,3.0621 -10.993163,0 0,-9.9945 z" transform="translate(0 -1036.362)"/>
  <path fill="url(#i)" d="m 16.039671,1048.3727 -4.054831,-0.011 0.03315,4.0327 0.9778,-0.055 3.016261,-2.9941 z" transform="translate(0 -1036.362)"/>
  <g mask="url(#j)" transform="translate(0 -1036.362)">
    <g fill="#fff" stroke="#fff" filter="url(#k)">
      <path d="m -0.714233,1047.3567 8.999984,-9 1.439529,0 -8.999984,9 z"/>
      <path d="m 5.220971,1039.3622 0,5.2708 c 0.197122,2.2344 1.902102,1.3861 3.367494,-0.6602 -1.121002,3.6825 -4.668743,4.8096 -4.809436,1.3508 l 0.0221,-5.2929 c 0,-1.3917 -2.11623,0.7775 -3.359575,2.4575 1.213674,-2.5188 4.779417,-7.7133 4.779417,-3.126 z"/>
    </g>
  </g>
  <g fill="#516fa3">
    <path d="m -0.714233,1047.3567 8.999984,-9 1.439529,0 -8.999984,9 z" transform="translate(0 -1036.362)"/>
    <path d="m 5.220971,1039.3622 0,5.2708 c 0.197122,2.2344 1.902102,1.3861 3.367494,-0.6602 -1.121002,3.6825 -4.668743,4.8096 -4.809436,1.3508 l 0.0221,-5.2929 c 0,-1.3917 -2.11623,0.7775 -3.359575,2.4575 1.213674,-2.5188 4.779417,-7.7133 4.779417,-3.126 z" transform="translate(0 -1036.362)"/>
  </g>
  <path fill="url(#l)" d="M1048.362-11H1050.362V-9H1048.362z" transform="rotate(90 518.181 -518.181)"/>
  <path fill="url(#m)" d="M1048.362-8H1050.362V-6H1048.362z" transform="rotate(90 518.181 -518.181)"/>
  <path fill="url(#n)" d="M1048.362-5H1050.362V-3H1048.362z" transform="rotate(90 518.181 -518.181)"/>
</svg>
