<svg xmlns="http://www.w3.org/2000/svg" xmlns:xlink="http://www.w3.org/1999/xlink" width="16" height="16">
  <defs>
    <linearGradient id="j">
      <stop offset="0" stop-opacity=".502"/>
      <stop offset="1" stop-opacity=".25"/>
    </linearGradient>
    <linearGradient id="i">
      <stop offset="0"/>
      <stop offset=".5" stop-opacity=".252"/>
      <stop offset=".75" stop-opacity="0"/>
      <stop offset="1"/>
    </linearGradient>
    <linearGradient id="f">
      <stop offset="0" stop-color="#61719a"/>
      <stop offset="1" stop-color="#8599bf"/>
    </linearGradient>
    <linearGradient id="g">
      <stop offset="0" stop-color="#61719a"/>
      <stop offset="1" stop-color="#8599bf"/>
    </linearGradient>
    <linearGradient id="e">
      <stop offset="0" stop-color="#e7eef9"/>
      <stop offset="1" stop-color="#f1f5fb"/>
    </linearGradient>
    <linearGradient xlink:href="#a" id="s" x1="-13" x2="-15" y1="1047.362" y2="1047.362" gradientTransform="translate(20 -4)" gradientUnits="userSpaceOnUse"/>
    <linearGradient id="a">
      <stop offset="0" stop-color="#fff" stop-opacity="0"/>
      <stop offset="1" stop-color="#d1eeff"/>
    </linearGradient>
    <linearGradient xlink:href="#b" id="t" x1="-11" x2="-11" y1="1042.362" y2="1044.362" gradientTransform="translate(19 -4)" gradientUnits="userSpaceOnUse"/>
    <linearGradient id="b">
      <stop offset="0" stop-color="#d1eeff"/>
      <stop offset="1" stop-color="#fff" stop-opacity="0"/>
    </linearGradient>
    <linearGradient xlink:href="#c" id="o" x1="-11" x2="-11" y1="1042.362" y2="1044.362" gradientTransform="translate(16 2)" gradientUnits="userSpaceOnUse"/>
    <linearGradient id="c">
      <stop offset="0" stop-color="#d1eeff"/>
      <stop offset="1" stop-color="#fff" stop-opacity="0"/>
    </linearGradient>
    <linearGradient id="d">
      <stop offset="0" stop-color="#fff" stop-opacity="0"/>
      <stop offset="1" stop-color="#d1eeff"/>
    </linearGradient>
    <linearGradient xlink:href="#d" id="n" x1="-13" x2="-15" y1="1047.362" y2="1047.362" gradientTransform="translate(17 2)" gradientUnits="userSpaceOnUse"/>
    <linearGradient xlink:href="#e" id="r" x1="12" x2="12" y1="1045.362" y2="1039.362" gradientTransform="translate(2)" gradientUnits="userSpaceOnUse"/>
    <linearGradient xlink:href="#f" id="u" x1="6" x2="12" y1="1050.862" y2="1050.862" gradientTransform="matrix(-1 0 0 1 18 -10)" gradientUnits="userSpaceOnUse"/>
    <linearGradient xlink:href="#g" id="v" x1="6" x2="14" y1="1050.862" y2="1050.862" gradientTransform="matrix(-1 0 0 1 20 -8)" gradientUnits="userSpaceOnUse"/>
    <linearGradient id="h">
      <stop offset="0" stop-color="#e7eef9"/>
      <stop offset="1" stop-color="#f1f5fb"/>
    </linearGradient>
    <linearGradient xlink:href="#h" id="m" x1="12" x2="12" y1="1045.362" y2="1039.362" gradientTransform="matrix(.5 0 0 .57143 .5 451.012)" gradientUnits="userSpaceOnUse"/>
    <linearGradient xlink:href="#i" id="w" x1="25" x2="25" y1="1049.362" y2="1050.362" gradientTransform="translate(-20)" gradientUnits="userSpaceOnUse"/>
    <linearGradient xlink:href="#j" id="k" x1="29" x2="24" y1="4" y2="10" gradientTransform="translate(-20 1036.362)" gradientUnits="userSpaceOnUse"/>
    <filter id="q" width="1.21" height="1.28" x="-.105" y="-.14">
      <feGaussianBlur stdDeviation=".525"/>
    </filter>
    <filter id="l" width="1.216" height="1.27" x="-.108" y="-.135">
      <feGaussianBlur stdDeviation=".675"/>
    </filter>
    <mask id="p" maskUnits="userSpaceOnUse"/>
  </defs>
  <path fill="url(#k)" d="m 1,1043.3622 3,-6 12,9 -8,3 z" filter="url(#l)" opacity=".75" transform="translate(0 -1036.362)"/>
  <path fill="url(#m)" d="m 2,1044.3622 5,0 0,4 -5,0 z" color="#000" enable-background="accumulate" font-family="Sans" font-weight="400" overflow="visible" style="text-indent:0;text-align:start;line-height:normal;text-transform:none;block-progression:tb;marker:none;-inkscape-font-specification:Sans" transform="translate(0 -1036.362)"/>
  <path fill="url(#n)" d="m 3,1045.3622 0,3 -1,0 0,-4 z" transform="translate(0 -1036.362)"/>
  <path fill="url(#o)" d="m 3,1045.3622 4,0 0,-1 -5,0 z" transform="translate(0 -1036.362)"/>
  <path fill="#557cac" d="m1 1043.362 0 6 7 0 0-6zm1 1 5 0 0 4-5 0zM3 1049.362l3 0 0 1-3 0zM2 1050.362l5 0 0 1-5 0z" color="#000" enable-background="accumulate" font-family="Sans" font-weight="400" overflow="visible" style="text-indent:0;text-align:start;line-height:normal;text-transform:none;block-progression:tb;marker:none;-inkscape-font-specification:Sans" transform="translate(0 -1036.362)"/>
  <g mask="url(#p)" transform="translate(-20 -1036.362)">
    <path stroke="#000" d="m 24,1 0,9 12,0 0,-9 -12,0 z" color="#000" enable-background="accumulate" filter="url(#q)" font-family="Sans" font-weight="400" opacity=".5" overflow="visible" style="text-indent:0;text-align:start;line-height:normal;text-transform:none;block-progression:tb;marker:none;-inkscape-font-specification:Sans" transform="translate(0 1036.362)"/>
  </g>
  <path fill="url(#r)" d="m 5,1038.3622 10,0 0,7 -10,0 z" color="#000" enable-background="accumulate" font-family="Sans" font-weight="400" overflow="visible" style="text-indent:0;text-align:start;line-height:normal;text-transform:none;block-progression:tb;marker:none;-inkscape-font-specification:Sans" transform="translate(0 -1036.362)"/>
  <path fill="url(#s)" d="m 6,1039.3622 0,6 -1,0 0,-7 z" transform="translate(0 -1036.362)"/>
  <path fill="url(#t)" d="m 6,1039.3622 9,0 0,-1 -10,0 z" transform="translate(0 -1036.362)"/>
  <path fill="#548cd0" d="m 4,1037.3622 0,9 12,0 0,-9 z m 1,1 10,0 0,7 -10,0 z" color="#000" enable-background="accumulate" font-family="Sans" font-weight="400" overflow="visible" style="text-indent:0;text-align:start;line-height:normal;text-transform:none;block-progression:tb;marker:none;-inkscape-font-specification:Sans" transform="translate(0 -1036.362)"/>
  <path fill="url(#u)" d="m 12,1040.3621 0,1.0001 -6,0 0,-1.0001 z" transform="translate(0 -1036.362)"/>
  <path fill="url(#v)" d="m 14,1042.3621 0,1.0001 -8,0 0,-1.0001 z" transform="translate(0 -1036.362)"/>
  <path fill="url(#w)" d="m 3,1049.3622 3,0 0,1 -3,0 z" color="#000" enable-background="accumulate" font-family="Sans" font-weight="400" opacity=".25" overflow="visible" style="text-indent:0;text-align:start;line-height:normal;text-transform:none;block-progression:tb;marker:none;-inkscape-font-specification:Sans" transform="translate(0 -1036.362)"/>
</svg>
