<svg xmlns="http://www.w3.org/2000/svg" xmlns:xlink="http://www.w3.org/1999/xlink" width="16" height="16">
  <defs>
    <linearGradient id="c">
      <stop offset="0" stop-color="#17325d"/>
      <stop offset=".25" stop-color="#b4d0e2"/>
      <stop offset=".5" stop-color="#b7d2e4"/>
      <stop offset=".75" stop-color="#acc9de"/>
      <stop offset="1" stop-color="#3e72a7"/>
    </linearGradient>
    <linearGradient id="b">
      <stop offset="0" stop-color="#5aa771"/>
      <stop offset="1" stop-color="#76be7e"/>
    </linearGradient>
    <linearGradient xlink:href="#a" id="j" x1="8.014" x2="8.014" y1="1042.362" y2="1052.696" gradientTransform="matrix(1.00098 0 0 1 3.909 .035)" gradientUnits="userSpaceOnUse"/>
    <linearGradient id="a">
      <stop offset="0" stop-color="#af8931"/>
      <stop offset="1" stop-color="#7e703d"/>
    </linearGradient>
    <linearGradient xlink:href="#b" id="k" x1="15.806" x2="13.928" y1="1052.426" y2="1050.415" gradientTransform="translate(-.994 -.994)" gradientUnits="userSpaceOnUse"/>
    <linearGradient xlink:href="#c" id="n" x1="4.778" x2="4.778" y1="1039.812" y2="1041.911" gradientTransform="translate(-20)" gradientUnits="userSpaceOnUse"/>
    <linearGradient id="d">
      <stop offset="0" stop-color="#17325d"/>
      <stop offset=".25" stop-color="#b4d0e2"/>
      <stop offset=".5" stop-color="#b7d2e4"/>
      <stop offset=".75" stop-color="#acc9de"/>
      <stop offset="1" stop-color="#3e72a7"/>
    </linearGradient>
    <linearGradient xlink:href="#d" id="o" x1="4.778" x2="4.778" y1="1039.812" y2="1041.911" gradientTransform="translate(-18)" gradientUnits="userSpaceOnUse"/>
    <linearGradient id="e">
      <stop offset="0" stop-color="#17325d"/>
      <stop offset=".25" stop-color="#b4d0e2"/>
      <stop offset=".5" stop-color="#b7d2e4"/>
      <stop offset=".75" stop-color="#acc9de"/>
      <stop offset="1" stop-color="#3e72a7"/>
    </linearGradient>
    <linearGradient xlink:href="#e" id="p" x1="4.778" x2="4.778" y1="1039.812" y2="1041.911" gradientTransform="translate(-16)" gradientUnits="userSpaceOnUse"/>
    <linearGradient id="f">
      <stop offset="0" stop-color="#17325d"/>
      <stop offset=".25" stop-color="#b4d0e2"/>
      <stop offset=".5" stop-color="#b7d2e4"/>
      <stop offset=".75" stop-color="#acc9de"/>
      <stop offset="1" stop-color="#3e72a7"/>
    </linearGradient>
    <linearGradient xlink:href="#f" id="q" x1="4.778" x2="4.778" y1="1039.812" y2="1041.911" gradientTransform="translate(-14)" gradientUnits="userSpaceOnUse"/>
    <linearGradient id="g">
      <stop offset="0" stop-color="#17325d"/>
      <stop offset=".25" stop-color="#b4d0e2"/>
      <stop offset=".5" stop-color="#b7d2e4"/>
      <stop offset=".75" stop-color="#acc9de"/>
      <stop offset="1" stop-color="#3e72a7"/>
    </linearGradient>
    <linearGradient xlink:href="#g" id="r" x1="4.778" x2="4.778" y1="1039.812" y2="1041.911" gradientTransform="translate(-12)" gradientUnits="userSpaceOnUse"/>
    <linearGradient xlink:href="#h" id="s" x1="20.303" x2="20.303" y1="1056.022" y2="1065.103" gradientTransform="matrix(.74178 0 0 .74307 -6.683 256.295)" gradientUnits="userSpaceOnUse"/>
    <linearGradient id="h">
      <stop offset="0" stop-color="#accf8e"/>
      <stop offset=".29" stop-color="#93c586"/>
      <stop offset=".429" stop-color="#58ab71"/>
      <stop offset=".575" stop-color="#4da766"/>
      <stop offset=".708" stop-color="#61af61"/>
      <stop offset="1" stop-color="#78ba5e"/>
    </linearGradient>
    <linearGradient xlink:href="#i" id="t" x1="21.47" x2="21.47" y1="1054.852" y2="1066.104" gradientTransform="matrix(.74178 0 0 .74307 -6.383 256.295)" gradientUnits="userSpaceOnUse"/>
    <linearGradient id="i">
      <stop offset="0" stop-color="#36825e"/>
      <stop offset="1" stop-color="#257550"/>
    </linearGradient>
    <filter id="m" width="1.225" height="1.895" x="-.113" y="-.448">
      <feGaussianBlur stdDeviation=".375"/>
    </filter>
    <mask id="l" maskUnits="userSpaceOnUse"/>
  </defs>
  <path fill="#f4fcff" stroke="url(#j)" d="m 6.4120577,1039.8965 9.9999993,0 0,10.0018 -2.986278,3.0385 -5.9720611,0 c -0.5308499,-0.022 -1.0416602,-0.5519 -1.0416602,-1.0385 z" transform="translate(-.912 -1038.372)"/>
  <path fill="#366c9a" d="m 9.5000434,1049.9398 c -0.2124831,-0.018 -0.4620726,-0.059 -0.6624895,-0.1108 -0.311003,-0.079 -0.2800149,0.015 -0.2800149,-0.8593 0,-0.4579 0.00884,-0.7598 0.022403,-0.7646 0.01231,0 0.036401,0 0.053568,0.013 0.055658,0.037 0.3382661,0.1623 0.4318333,0.1926 0.2141379,0.069 0.5354424,0.1032 0.7617761,0.083 0.5017346,-0.047 0.8417366,-0.2945 1.0127476,-0.7389 0.137905,-0.3583 0.130966,-0.2194 0.145157,-2.9086 l 0.01306,-2.4738 0.952394,0 0.952397,0 0.0071,2.3061 c 0.0073,2.384 -6.3e-4,2.6629 -0.08922,3.0973 -0.179442,0.8809 -0.687253,1.5436 -1.440112,1.8796 -0.506093,0.2258 -1.240857,0.337 -1.8805509,0.2843 z" transform="translate(-.912 -1038.372)"/>
  <path fill="url(#k)" d="m 12.914471,1049.3724 3.997407,0 -3.99982,4.0737 z" transform="translate(-.912 -1038.372)"/>
  <path fill="#317357" d="m 13.632805,1053.3724 3.274053,-3.3145 0.0052,-0.7628 -3.99982,4.0737 z" transform="translate(-.912 -1038.372)"/>
  <g mask="url(#l)" transform="matrix(.90719 0 0 1 20.978 -1039.338)">
    <g fill="none" stroke="#fff" stroke-linecap="round" stroke-width="2.1" filter="url(#m)" opacity=".75">
      <path d="m-15.584 1041.879 0-2.013M-13.584 1041.879l0-2.013M-11.584 1041.879l0-2.013M-9.584 1041.879l0-2.013M-7.584 1041.879l0-2.013"/>
    </g>
  </g>
  <g fill="none" stroke-linecap="round">
    <path stroke="url(#n)" d="m -15.584151,1041.8789 0,-2.013" transform="translate(22.228 -1039.338)"/>
    <path stroke="url(#o)" d="m -13.584151,1041.8789 0,-2.013" transform="translate(22.228 -1039.338)"/>
    <path stroke="url(#p)" d="m -11.584151,1041.8789 0,-2.013" transform="translate(22.228 -1039.338)"/>
    <path stroke="url(#q)" d="m -9.584151,1041.8789 0,-2.013" transform="translate(22.228 -1039.338)"/>
    <path stroke="url(#r)" d="m -7.584151,1041.8789 0,-2.013" transform="translate(22.228 -1039.338)"/>
  </g>
  <path fill="url(#s)" stroke="url(#t)" stroke-linejoin="round" stroke-width="1.385" d="m 7.6920916,1040.0443 7.9985994,4.3214 -7.9522382,4.3134 z" transform="matrix(.74612 0 0 .69848 -4.223 -717.968)"/>
</svg>
