<svg xmlns="http://www.w3.org/2000/svg" xmlns:xlink="http://www.w3.org/1999/xlink" width="16" height="16">
  <defs>
    <linearGradient id="c">
      <stop offset="0" stop-color="#3a4e81"/>
      <stop offset="1" stop-color="#7688b7"/>
    </linearGradient>
    <linearGradient id="b">
      <stop offset="0" stop-color="#546483"/>
      <stop offset="1" stop-color="#818b9f"/>
    </linearGradient>
    <linearGradient id="a">
      <stop offset="0" stop-color="#2b5c9c"/>
      <stop offset="1" stop-color="#3673c4"/>
    </linearGradient>
    <linearGradient xlink:href="#a" id="f" x1="22.42" x2="22.42" y1="1044.658" y2="1037.933" gradientTransform="matrix(1.00553 0 0 1 -14.164 .996)" gradientUnits="userSpaceOnUse"/>
    <linearGradient xlink:href="#b" id="e" x1="22.995" x2="22.995" y1="1040.173" y2="1048.318" gradientTransform="matrix(1.00553 0 0 1 -14.164 .996)" gradientUnits="userSpaceOnUse"/>
    <linearGradient xlink:href="#c" id="g" x1="25.096" x2="19.998" y1="1041.878" y2="1041.878" gradientTransform="translate(-15.031 1)" gradientUnits="userSpaceOnUse"/>
    <linearGradient id="d">
      <stop offset="0" stop-color="#3a4e81"/>
      <stop offset="1" stop-color="#7688b7"/>
    </linearGradient>
    <linearGradient xlink:href="#d" id="h" x1="25.096" x2="19.998" y1="1041.878" y2="1041.878" gradientTransform="matrix(1.20766 0 0 1 -19.183 3.027)" gradientUnits="userSpaceOnUse"/>
  </defs>
  <g transform="translate(0 -1036.362)">
    <rect width="11.998" height="10.01" x="2.501" y="1038.862" fill="url(#e)" stroke="url(#f)" rx=".795" ry=".795"/>
    <rect width="9" height="7" x="4" y="1040.362" fill="#fff" rx="0" ry="0"/>
    <g fill="#4673ad" transform="matrix(1.2201 0 0 1 -18.949 .996)">
      <rect width="4.075" height="1.039" x="20.448" y="1048.352" rx="0" ry="0"/>
      <path d="M17.989 1049.367H27.005V1050.351H17.989z"/>
    </g>
    <g fill="#2a5893" transform="matrix(.99723 0 0 1 -13.94 .996)">
      <rect width="3.049" height="1.039" x="20.97" y="1048.352" rx="0" ry="0"/>
      <path d="M17.989 1049.367H27.005V1050.351H17.989z"/>
    </g>
    <g fill="#cfedfb">
      <path d="M17.987 3.007H26.986V3.996H17.987z" transform="matrix(.99888 0 0 1 -13.956 1037.355)"/>
      <path d="M1039.369-18.981H1046.374V-17.976H1039.369z" transform="matrix(0 1 -.99888 0 -13.956 .993)"/>
    </g>
    <path fill="url(#g)" d="M5 1042.362H10V1043.362H5z"/>
    <path fill="url(#h)" d="M5 1044.362H12V1045.362H5z"/>
  </g>
</svg>
