<svg xmlns="http://www.w3.org/2000/svg" xmlns:xlink="http://www.w3.org/1999/xlink" width="16" height="16">
  <defs>
    <linearGradient id="g">
      <stop offset="0" stop-color="#c18965"/>
      <stop offset="1" stop-color="#975c45"/>
    </linearGradient>
    <linearGradient id="a">
      <stop offset="0" stop-color="#5f392d"/>
      <stop offset=".182" stop-color="#9e7058"/>
      <stop offset=".364" stop-color="#794f40"/>
      <stop offset=".5" stop-color="#794f40"/>
      <stop offset=".636" stop-color="#794f40"/>
      <stop offset=".818" stop-color="#9e7058"/>
      <stop offset="1" stop-color="#5f392d"/>
    </linearGradient>
    <linearGradient id="e">
      <stop offset="0" stop-color="#faefba"/>
      <stop offset="1" stop-color="#9e6542"/>
    </linearGradient>
    <linearGradient id="d">
      <stop offset="0" stop-color="#faefba"/>
      <stop offset="1" stop-color="#9e6542"/>
    </linearGradient>
    <linearGradient id="b">
      <stop offset="0" stop-color="#faefba"/>
      <stop offset="1" stop-color="#9e6542"/>
    </linearGradient>
    <linearGradient id="c">
      <stop offset="0" stop-color="#faefba"/>
      <stop offset="1" stop-color="#9e6542"/>
    </linearGradient>
    <linearGradient xlink:href="#a" id="m" x1="355.297" x2="394.719" y1="449.881" y2="449.881" gradientTransform="rotate(90 375.006 449.881)" gradientUnits="userSpaceOnUse"/>
    <linearGradient id="f">
      <stop offset="0" stop-color="#5f392d"/>
      <stop offset=".182" stop-color="#9e7058"/>
      <stop offset=".364" stop-color="#794f40"/>
      <stop offset=".5" stop-color="#794f40"/>
      <stop offset=".636" stop-color="#794f40"/>
      <stop offset=".818" stop-color="#9e7058"/>
      <stop offset="1" stop-color="#5f392d"/>
    </linearGradient>
    <linearGradient xlink:href="#f" id="n" x1="355.297" x2="394.719" y1="449.881" y2="449.881" gradientTransform="rotate(180 375.007 449.882)" gradientUnits="userSpaceOnUse"/>
    <linearGradient xlink:href="#g" id="l" x1="366.048" x2="366.048" y1="430.172" y2="466.01" gradientUnits="userSpaceOnUse"/>
    <radialGradient xlink:href="#b" id="j" cx="387.597" cy="442.578" r="6.188" fx="387.597" fy="442.578" gradientTransform="matrix(2.58664 0 0 2.26993 -639.817 -549.016)" gradientUnits="userSpaceOnUse"/>
    <radialGradient xlink:href="#c" id="k" cx="387.597" cy="442.578" r="6.188" fx="387.597" fy="442.578" gradientTransform="matrix(2.58664 0 0 2.26993 -621.852 -549.016)" gradientUnits="userSpaceOnUse"/>
    <radialGradient xlink:href="#d" id="i" cx="387.597" cy="442.578" r="6.188" fx="387.597" fy="442.578" gradientTransform="matrix(2.58664 0 0 2.26993 -621.852 -566.97)" gradientUnits="userSpaceOnUse"/>
    <radialGradient xlink:href="#e" id="h" cx="387.597" cy="442.578" r="6.188" fx="387.597" fy="442.578" gradientTransform="matrix(2.58664 0 0 2.26993 -639.817 -566.97)" gradientUnits="userSpaceOnUse"/>
  </defs>
  <g fill="#fff" font-family="Sans" font-size="13.589" font-weight="400" letter-spacing="0" style="line-height:125%" word-spacing="0">
    <g stroke-width="3.584">
      <path fill="url(#h)" stroke="#c37e3b" stroke-linecap="round" stroke-linejoin="round" d="M357.081 431.971H375.046V449.936H357.081z" transform="matrix(.27903 0 0 .27903 -96.166 -117.032)"/>
      <path fill="url(#i)" stroke="#c37e3b" stroke-linecap="round" stroke-linejoin="round" d="M375.046 431.971H393.011V449.936H375.046z" transform="matrix(.27903 0 0 .27903 -96.166 -117.032)"/>
      <path fill="url(#j)" stroke="#a45d2b" stroke-linecap="round" stroke-linejoin="round" d="m 357.08057,449.75837 17.96523,0 0,18.13262 -17.96523,0 z" transform="matrix(.27903 0 0 .27903 -96.166 -117.032)"/>
      <path fill="url(#k)" stroke="#a45d2b" stroke-linecap="round" stroke-linejoin="round" d="m 375.0458,449.75837 17.96522,0 0,18.13262 -17.96522,0 z" transform="matrix(.27903 0 0 .27903 -96.166 -117.032)"/>
      <path fill="none" stroke="url(#l)" stroke-linecap="round" stroke-linejoin="round" d="m 357.27589,432.15148 0,17.71804 0,17.85756 17.71805,0 17.85755,0 0,-17.85756 0,-0.13951 0,-17.57853 -17.85755,0 -17.71805,0 z" style="line-height:125%" transform="matrix(.27903 0 0 .27903 -96.166 -117.032)"/>
      <path fill="#915323" stroke="url(#m)" d="m 375.00635,426.58855 0,46.58947" transform="matrix(.27903 0 0 .27903 -96.166 -117.032)"/>
      <path fill="#915323" stroke="url(#n)" d="m 398.30108,449.88328 -46.58947,0" style="line-height:125%" transform="matrix(.27903 0 0 .27903 -96.166 -117.032)"/>
    </g>
  </g>
</svg>
