<?xml version="1.0" encoding="UTF-8" standalone="no"?>
<svg
   width="16"
   height="16"
   version="1.1"
   id="svg10"
   xmlns:xlink="http://www.w3.org/1999/xlink"
   xmlns="http://www.w3.org/2000/svg"
   xmlns:svg="http://www.w3.org/2000/svg">
  <defs
     id="defs8">
    <linearGradient
       id="c">
      <stop
         offset="0"
         stop-color="#fff"
         id="stop1" />
      <stop
         offset="1"
         stop-color="#fff"
         stop-opacity=".912"
         id="stop2" />
    </linearGradient>
    <linearGradient
       id="b">
      <stop
         offset="0"
         stop-color="#e4b367"
         id="stop3" />
      <stop
         offset=".523"
         stop-color="#f0d98d"
         id="stop4" />
      <stop
         offset="1"
         stop-color="#f5f5b5"
         id="stop5" />
    </linearGradient>
    <linearGradient
       xlink:href="#b"
       id="g"
       x1="-16.993"
       x2="-16.95"
       y1="1049.353"
       y2="1042.582"
       gradientTransform="translate(27.398 .084)"
       gradientUnits="userSpaceOnUse" />
    <linearGradient
       xlink:href="#b"
       id="d"
       x1="-16.993"
       x2="-16.95"
       y1="1049.353"
       y2="1042.582"
       gradientTransform="translate(23.398 -3.916)"
       gradientUnits="userSpaceOnUse" />
    <radialGradient
       xlink:href="#c"
       id="e"
       cx="7.515"
       cy="1043.909"
       r="5.057"
       fx="7.515"
       fy="1043.909"
       gradientTransform="matrix(.71027 -.70393 .69511 .70138 -722.496 317.021)"
       gradientUnits="userSpaceOnUse" />
    <filter
       id="f"
       width="1.1235731"
       height="1.1193733"
       x="-0.061786567"
       y="-0.059686646"
       color-interpolation-filters="sRGB">
      <feGaussianBlur
         stdDeviation=".2"
         id="feGaussianBlur8" />
    </filter>
  </defs>
  <g
     transform="translate(0 -1036.362)"
     id="g10">
    <path
       fill="url(#d)"
       fill-rule="evenodd"
       stroke="#75615a"
       stroke-linejoin="round"
       d="m 2.5,1039.1122 1.250001,-1.25 1.249999,1.25 0.5,-0.25 0,-2 2,0 0,2 0.500001,0.25 1.25,-1.25 1.25,1.25 -1.25,1.25 0.25,0.5 2,0 0,2 -2,0 -0.25,0.5 1.25,1.25 -1.25,1.25 -1.25,-1.25 -0.500001,0.25 0,2 -2,0 0,-2 -0.5,-0.25 -1.249999,1.25 -1.250001,-1.25 1.250001,-1.25 -0.250001,-0.5 -2,0 0,-2 2,0 0.250001,-0.5 z"
       id="path8" />
    <path
       fill="url(#e)"
       fill-rule="evenodd"
       d="m 3.982449,1047.4031 -0.021029,-4.042 1,0 0,-3 3,0 0,-1 3.768679,0.021 -3e-6,7.8738 z"
       filter="url(#f)"
       opacity=".911"
       id="path9" />
    <path
       fill="url(#g)"
       fill-rule="evenodd"
       stroke="#75615a"
       stroke-linejoin="round"
       d="m 6.5,1043.1122 1.2500008,-1.25 1.2499992,1.25 0.5,-0.25 0,-2 2,0 0,2 0.500001,0.25 1.25,-1.25 1.25,1.25 -1.25,1.25 0.25,0.5 2,0 0,2 -2,0 -0.25,0.5 1.25,1.25 -1.25,1.25 -1.25,-1.25 -0.500001,0.25 0,2 -2,0 0,-2 -0.5,-0.25 -1.2499992,1.25 -1.2500008,-1.25 1.2500008,-1.25 -0.2500008,-0.5 -2,0 0,-2 2,0 0.2500008,-0.5 z"
       id="path10" />
    <circle
       cx="10.5"
       cy="1045.862"
       r="1"
       fill="#fefcf0"
       stroke="#77605a"
       stroke-linecap="round"
       id="circle10" />
  </g>
</svg>
