<svg xmlns="http://www.w3.org/2000/svg" xmlns:xlink="http://www.w3.org/1999/xlink" width="16" height="16">
  <defs>
    <linearGradient id="c">
      <stop offset="0" stop-color="#fff"/>
      <stop offset="1" stop-color="#fff" stop-opacity=".912"/>
    </linearGradient>
    <linearGradient id="b">
      <stop offset="0" stop-color="#e4b367"/>
      <stop offset=".523" stop-color="#f0d98d"/>
      <stop offset="1" stop-color="#f5f5b5"/>
    </linearGradient>
    <linearGradient xlink:href="#a" id="h" x1="7.478" x2="15.523" y1="1043.859" y2="1043.859" gradientUnits="userSpaceOnUse"/>
    <linearGradient id="a">
      <stop offset="0" stop-color="#fff"/>
      <stop offset=".5" stop-color="#fff" stop-opacity=".822"/>
      <stop offset="1" stop-color="#fff" stop-opacity="0"/>
    </linearGradient>
    <linearGradient xlink:href="#b" id="g" x1="-16.993" x2="-16.95" y1="1049.353" y2="1042.582" gradientTransform="translate(27.398 .084)" gradientUnits="userSpaceOnUse"/>
    <linearGradient xlink:href="#b" id="d" x1="-16.993" x2="-16.95" y1="1049.353" y2="1042.582" gradientTransform="translate(23.398 -3.916)" gradientUnits="userSpaceOnUse"/>
    <radialGradient xlink:href="#c" id="e" cx="7.515" cy="1043.909" r="5.057" fx="7.515" fy="1043.909" gradientTransform="matrix(.71027 -.70393 .69511 .70138 -722.496 317.021)" gradientUnits="userSpaceOnUse"/>
    <filter id="f" width="1.12" height="1.12" x="-.06" y="-.06" color-interpolation-filters="sRGB">
      <feGaussianBlur stdDeviation=".2"/>
    </filter>
  </defs>
  <g transform="translate(0 -1036.362)">
    <path fill="url(#d)" fill-rule="evenodd" stroke="#75615a" stroke-linejoin="round" d="m 2.5,1039.1122 1.250001,-1.25 1.249999,1.25 0.5,-0.25 0,-2 2,0 0,2 0.500001,0.25 1.25,-1.25 1.25,1.25 -1.25,1.25 0.25,0.5 2,0 0,2 -2,0 -0.25,0.5 1.25,1.25 -1.25,1.25 -1.25,-1.25 -0.500001,0.25 0,2 -2,0 0,-2 -0.5,-0.25 -1.249999,1.25 -1.250001,-1.25 1.250001,-1.25 -0.250001,-0.5 -2,0 0,-2 2,0 0.250001,-0.5 z"/>
    <path fill="url(#e)" fill-rule="evenodd" d="m 3.982449,1047.4031 -0.021029,-4.042 1,0 0,-3 3,0 0,-1 3.768679,0.021 -3e-6,7.8738 z" filter="url(#f)" opacity=".911"/>
    <path fill="url(#g)" fill-rule="evenodd" stroke="#75615a" stroke-linejoin="round" d="m 6.5,1043.1122 1.2500008,-1.25 1.2499992,1.25 0.5,-0.25 0,-2 2,0 0,2 0.500001,0.25 1.25,-1.25 1.25,1.25 -1.25,1.25 0.25,0.5 2,0 0,2 -2,0 -0.25,0.5 1.25,1.25 -1.25,1.25 -1.25,-1.25 -0.500001,0.25 0,2 -2,0 0,-2 -0.5,-0.25 -1.2499992,1.25 -1.2500008,-1.25 1.2500008,-1.25 -0.2500008,-0.5 -2,0 0,-2 2,0 0.2500008,-0.5 z"/>
    <circle cx="10.5" cy="1045.862" r="1" fill="#fefcf0" stroke="#77605a" stroke-linecap="round"/>
  </g>
</svg>
