<svg xmlns="http://www.w3.org/2000/svg" xmlns:xlink="http://www.w3.org/1999/xlink" width="16" height="16">
  <defs>
    <linearGradient xlink:href="#a" id="f" x1="21.47" x2="21.47" y1="1054.852" y2="1066.104" gradientUnits="userSpaceOnUse"/>
    <linearGradient xlink:href="#b" id="e" x1="20.303" x2="20.303" y1="1056.022" y2="1065.103" gradientTransform="translate(-.404)" gradientUnits="userSpaceOnUse"/>
    <linearGradient id="b">
      <stop offset="0" stop-color="#accf8e"/>
      <stop offset=".29" stop-color="#93c586"/>
      <stop offset=".429" stop-color="#58ab71"/>
      <stop offset=".575" stop-color="#4da766"/>
      <stop offset=".708" stop-color="#61af61"/>
      <stop offset="1" stop-color="#78ba5e"/>
    </linearGradient>
    <linearGradient id="a">
      <stop offset="0" stop-color="#36825e"/>
      <stop offset="1" stop-color="#257550"/>
    </linearGradient>
    <linearGradient xlink:href="#c" id="g" x1="7.478" x2="15.523" y1="1043.859" y2="1043.859" gradientUnits="userSpaceOnUse"/>
    <linearGradient id="c">
      <stop offset="0" stop-color="#fff"/>
      <stop offset=".5" stop-color="#fff" stop-opacity=".822"/>
      <stop offset="1" stop-color="#fff" stop-opacity="0"/>
    </linearGradient>
    <linearGradient xlink:href="#d" id="h" x1="8.828" x2="8.828" y1="1041.733" y2="1046.971" gradientTransform="rotate(180 10.097 1043.887)" gradientUnits="userSpaceOnUse"/>
    <linearGradient id="d">
      <stop offset="0" stop-color="#df9f3f"/>
      <stop offset=".385" stop-color="#ffbf3f"/>
      <stop offset="1" stop-color="#f5f5b5"/>
    </linearGradient>
  </defs>
  <path fill="url(#e)" stroke="url(#f)" stroke-linejoin="round" stroke-width="1.292" d="m 18.975251,1054.7517 10.78301,5.8156 -10.72051,5.8048 z" transform="matrix(.59537 0 0 .55537 -9.972 -577.495)"/>
  <g fill="url(#g)" stroke="#543830" transform="matrix(1.00022 0 0 .9963 -1.003 -1033.538)">
    <path fill="url(#h)" d="m 12.518002,1047.8569 -0.01105,-0.988 1.999787,0 0,-1.9997 1.016465,0 0,-1.965 -1.016465,0 0,-2.0328 -2.010835,0 0.01105,-1.0101 c -1.606355,0 -0.406381,0 -2.012736,0 l 0.01105,1.0101 -2.0108349,0 0,2.0328 -1.016465,0 0,1.965 1.016465,0 0,1.9997 1.9997869,0 -0.01105,0.988 c 1.613721,0 0.421111,0 2.034832,0 z"/>
    <path fill="#fff" stroke-linejoin="round" d="m 12.265625,7.34375 c 0,0.5609142 -0.454711,1.015625 -1.015625,1.015625 -0.560914,0 -1.015625,-0.4547108 -1.015625,-1.015625 0,-0.5609142 0.454711,-1.015625 1.015625,-1.015625 0.560914,0 1.015625,0.4547108 1.015625,1.015625 z" transform="translate(.281 1036.518)"/>
  </g>
</svg>
