<?xml version="1.0" encoding="UTF-8" standalone="no"?>
<svg
   width="16"
   height="16"
   version="1.1"
   id="svg16"
   xmlns:xlink="http://www.w3.org/1999/xlink"
   xmlns="http://www.w3.org/2000/svg"
   xmlns:svg="http://www.w3.org/2000/svg">
  <defs
     id="defs14">
    <linearGradient
       xlink:href="#a"
       id="f"
       x1="21.47"
       x2="21.47"
       y1="1054.852"
       y2="1066.104"
       gradientUnits="userSpaceOnUse" />
    <linearGradient
       xlink:href="#b"
       id="e"
       x1="20.303"
       x2="20.303"
       y1="1056.022"
       y2="1065.103"
       gradientTransform="translate(-.404)"
       gradientUnits="userSpaceOnUse" />
    <linearGradient
       id="b">
      <stop
         offset="0"
         stop-color="#accf8e"
         id="stop1" />
      <stop
         offset=".29"
         stop-color="#93c586"
         id="stop2" />
      <stop
         offset=".429"
         stop-color="#58ab71"
         id="stop3" />
      <stop
         offset=".575"
         stop-color="#4da766"
         id="stop4" />
      <stop
         offset=".708"
         stop-color="#61af61"
         id="stop5" />
      <stop
         offset="1"
         stop-color="#78ba5e"
         id="stop6" />
    </linearGradient>
    <linearGradient
       id="a">
      <stop
         offset="0"
         stop-color="#36825e"
         id="stop7" />
      <stop
         offset="1"
         stop-color="#257550"
         id="stop8" />
    </linearGradient>
    <linearGradient
       xlink:href="#c"
       id="g"
       x1="7.478"
       x2="15.523"
       y1="1043.859"
       y2="1043.859"
       gradientUnits="userSpaceOnUse" />
    <linearGradient
       id="c">
      <stop
         offset="0"
         stop-color="#fff"
         id="stop9" />
      <stop
         offset=".5"
         stop-color="#fff"
         stop-opacity=".822"
         id="stop10" />
      <stop
         offset="1"
         stop-color="#fff"
         stop-opacity="0"
         id="stop11" />
    </linearGradient>
    <linearGradient
       xlink:href="#d"
       id="h"
       x1="8.828"
       x2="8.828"
       y1="1041.733"
       y2="1046.971"
       gradientTransform="rotate(180 10.097 1043.887)"
       gradientUnits="userSpaceOnUse" />
    <linearGradient
       id="d">
      <stop
         offset="0"
         stop-color="#df9f3f"
         id="stop12" />
      <stop
         offset=".385"
         stop-color="#ffbf3f"
         id="stop13" />
      <stop
         offset="1"
         stop-color="#f5f5b5"
         id="stop14" />
    </linearGradient>
  </defs>
  <path
     fill="url(#e)"
     stroke="url(#f)"
     stroke-linejoin="round"
     stroke-width="1.292"
     d="m 18.975251,1054.7517 10.78301,5.8156 -10.72051,5.8048 z"
     transform="matrix(.59537 0 0 .55537 -9.972 -577.495)"
     id="path14" />
  <g
     fill="url(#g)"
     stroke="#543830"
     transform="matrix(1.00022 0 0 .9963 -1.003 -1033.538)"
     id="g16">
    <path
       fill="url(#h)"
       d="m 12.518002,1047.8569 -0.01105,-0.988 1.999787,0 0,-1.9997 1.016465,0 0,-1.965 -1.016465,0 0,-2.0328 -2.010835,0 0.01105,-1.0101 c -1.606355,0 -0.406381,0 -2.012736,0 l 0.01105,1.0101 -2.0108349,0 0,2.0328 -1.016465,0 0,1.965 1.016465,0 0,1.9997 1.9997869,0 -0.01105,0.988 c 1.613721,0 0.421111,0 2.034832,0 z"
       id="path15" />
    <path
       fill="#fff"
       stroke-linejoin="round"
       d="m 12.265625,7.34375 c 0,0.5609142 -0.454711,1.015625 -1.015625,1.015625 -0.560914,0 -1.015625,-0.4547108 -1.015625,-1.015625 0,-0.5609142 0.454711,-1.015625 1.015625,-1.015625 0.560914,0 1.015625,0.4547108 1.015625,1.015625 z"
       transform="translate(.281 1036.518)"
       id="path16" />
  </g>
</svg>
