<svg xmlns="http://www.w3.org/2000/svg" xmlns:xlink="http://www.w3.org/1999/xlink" width="16" height="16">
  <defs>
    <linearGradient id="c">
      <stop offset="0" stop-color="#849abe"/>
      <stop offset="1" stop-color="#677da9"/>
    </linearGradient>
    <linearGradient id="b">
      <stop offset="0" stop-color="#1b639e"/>
      <stop offset="1" stop-color="#6f8db9"/>
    </linearGradient>
    <linearGradient id="a">
      <stop offset="0" stop-color="#c7b571"/>
      <stop offset="1" stop-color="#9a9990"/>
    </linearGradient>
    <linearGradient xlink:href="#a" id="f" x1="8.014" x2="8.014" y1="1035.974" y2="1051.01" gradientTransform="translate(-7.93 1.01)" gradientUnits="userSpaceOnUse"/>
    <linearGradient xlink:href="#b" id="h" x1="10" x2="10" y1="10" y2="5" gradientTransform="translate(1 1038.362)" gradientUnits="userSpaceOnUse"/>
    <linearGradient xlink:href="#c" id="g" x1="5" x2="11" y1="1037.862" y2="1037.862" gradientTransform="translate(0 2)" gradientUnits="userSpaceOnUse"/>
    <linearGradient id="d">
      <stop offset="0" stop-color="#849abe"/>
      <stop offset="1" stop-color="#677da9"/>
    </linearGradient>
    <linearGradient xlink:href="#d" id="i" x1="5" x2="11" y1="1037.862" y2="1037.862" gradientTransform="translate(0 12)" gradientUnits="userSpaceOnUse"/>
    <linearGradient xlink:href="#b" id="k" x1="10" x2="10" y1="10" y2="5" gradientTransform="translate(1 1038.362)" gradientUnits="userSpaceOnUse"/>
    <linearGradient xlink:href="#c" id="e" x1="5" x2="11" y1="1037.862" y2="1037.862" gradientTransform="translate(0 6)" gradientUnits="userSpaceOnUse"/>
    <linearGradient xlink:href="#c" id="j" x1="5" x2="11" y1="1037.862" y2="1037.862" gradientTransform="translate(0 7.969)" gradientUnits="userSpaceOnUse"/>
  </defs>
  <g transform="translate(0 -1036.362)">
    <path fill="url(#e)" d="M5 1043.362H11V1044.362H5z"/>
    <rect width="13.014" height="14.031" x="1.5" y="1037.862" fill="none" stroke="url(#f)" rx="0" ry="0"/>
    <path fill="#879cc0" d="M3 1039.362H4V1040.362H3z"/>
    <path fill="url(#g)" d="M5 1039.362H11V1040.362H5z"/>
    <path fill="url(#h)" d="m 5.0037913,1041.3622 0,7 1,0 3.9947402,0 0.9999995,0 0,-1 0,-6 -4.9947397,0 z m 1,1 3.9947402,0 0,5 -3.9947402,0 z"/>
    <path fill="#879cc0" d="M3 1041.362H4V1042.362H3zM3 1043.362H4V1044.362H3zM3 1045.362H4V1046.362H3zM3 1047.362H4V1048.362H3zM3 1049.362H4V1050.362H3z"/>
    <path fill="url(#i)" d="M5 1049.362H11V1050.362H5z"/>
    <path fill="#879cc0" d="M12.011 1039.362H13.011V1040.362H12.011zM12.011 1041.362H13.011V1042.362H12.011zM12.011 1043.362H13.011V1044.362H12.011zM12.011 1045.362H13.011V1046.362H12.011zM12.011 1047.362H13.011V1048.362H12.011zM12.011 1049.362H13.011V1050.362H12.011z"/>
    <path fill="url(#j)" d="M5 1045.331H11V1046.331H5z"/>
    <path fill="url(#k)" d="m 5.0037913,1041.3622 0,7 1,0 3.9947402,0 0.9999995,0 0,-1 0,-6 -4.9947397,0 z m 1,1 3.9947402,0 0,5 -3.9947402,0 z"/>
  </g>
</svg>
