<svg xmlns="http://www.w3.org/2000/svg" xmlns:xlink="http://www.w3.org/1999/xlink" width="16" height="16">
  <defs>
    <linearGradient id="d">
      <stop offset="0" stop-color="#17325d"/>
      <stop offset="1" stop-color="#9daeca"/>
    </linearGradient>
    <linearGradient id="c">
      <stop offset="0" stop-color="#5c7aaa"/>
      <stop offset="1" stop-color="#9dafcc"/>
    </linearGradient>
    <linearGradient id="a">
      <stop offset="0" stop-color="#e0e566"/>
      <stop offset="1" stop-color="#82c448"/>
    </linearGradient>
    <linearGradient id="b">
      <stop offset="0" stop-color="#426e4a"/>
      <stop offset="1" stop-color="#669f71"/>
    </linearGradient>
    <linearGradient xlink:href="#a" id="j" x1="2.031" x2="2.031" y1="6.94" y2="9.144" gradientTransform="matrix(1.12582 0 0 1.12582 2.88 1039.223)" gradientUnits="userSpaceOnUse"/>
    <linearGradient xlink:href="#b" id="k" x1="2.031" x2="2.031" y1="9.144" y2="4.672" gradientTransform="matrix(1.12582 0 0 1.12582 2.88 1039.223)" gradientUnits="userSpaceOnUse"/>
    <linearGradient xlink:href="#c" id="i" x1="1.047" x2="6.731" y1="10.277" y2="10.409" gradientUnits="userSpaceOnUse"/>
    <linearGradient xlink:href="#d" id="p" x1="27.221" x2="32.662" y1="11.072" y2="15.713" gradientTransform="translate(-15.842 1035.811)" gradientUnits="userSpaceOnUse"/>
    <linearGradient id="e">
      <stop offset="0" stop-color="#fff3d6"/>
      <stop offset=".555" stop-color="#fbe19f"/>
      <stop offset="1" stop-color="#f8d888"/>
    </linearGradient>
    <linearGradient id="f">
      <stop offset="0" stop-color="#bc7f32"/>
      <stop offset="1" stop-color="#a37840"/>
    </linearGradient>
    <linearGradient xlink:href="#e" id="n" x1="-17.95" x2="-17.95" y1="1062.508" y2="1055.16" gradientTransform="matrix(-.44807 0 0 -.41106 33.3 1487.065)" gradientUnits="userSpaceOnUse"/>
    <linearGradient xlink:href="#f" id="o" x1="-17.95" x2="-9.604" y1="1055.16" y2="1059.978" gradientTransform="matrix(-.44807 0 0 -.41106 33.3 1487.065)" gradientUnits="userSpaceOnUse"/>
    <linearGradient id="g">
      <stop offset="0" stop-color="#fff3d6"/>
      <stop offset=".555" stop-color="#fbe19f"/>
      <stop offset="1" stop-color="#f8d888"/>
    </linearGradient>
    <linearGradient id="h">
      <stop offset="0" stop-color="#bc7f32"/>
      <stop offset="1" stop-color="#a37840"/>
    </linearGradient>
    <linearGradient xlink:href="#g" id="l" x1="-17.95" x2="-17.95" y1="1062.508" y2="1055.16" gradientTransform="matrix(-.44785 0 0 -.41346 28.037 1488.709)" gradientUnits="userSpaceOnUse"/>
    <linearGradient xlink:href="#h" id="m" x1="-17.95" x2="-9.604" y1="1055.16" y2="1059.978" gradientTransform="matrix(-.44785 0 0 -.41346 28.037 1488.709)" gradientUnits="userSpaceOnUse"/>
  </defs>
  <g fill="none">
    <g stroke="#5c7aaa" stroke-width=".7">
      <path d="m 4.0658638,1042.1091 0,6.5407 5.3033006,0" transform="translate(-.562 -1036.737)"/>
      <path d="m 4.0658638,4.5979037 0,6.5407373 5.3033006,0" transform="translate(-.562 -.375)"/>
    </g>
    <path stroke="url(#i)" d="m 3.6239221,7.8499665 6.4296019,0 0,4.9680535" transform="translate(-.562 -.375)"/>
  </g>
  <path fill="url(#j)" stroke="url(#k)" d="m 3.6536582,1044.8636 2.0720134,0 0,1.9939 1.8453995,0 0,2.0408 -1.9509457,0 0,1.9743 -1.9664672,0 0,-1.9743 -2.0407632,0 0,-2.0057 2.0055812,0 z" transform="translate(0 -1036.362)"/>
  <path fill="url(#l)" stroke="url(#m)" stroke-width=".918" d="m 38.193419,1048.9801 c 0,0 0.860975,-0.074 0.860975,0.6669 -0.04742,1.1428 0.03358,2.7783 0.03358,2.7783 l -5.111673,-0.011 c 0,0 0.02107,-1.9607 0.02109,-2.1218 -0.01978,0.5574 0,-0.407 0,-1.0506 0,-0.6435 0.252857,-1.0849 0.965913,-1.0713 1.217232,0 0.816241,-0.016 0.816241,-0.016 0.952688,0 1.61965,-0.011 1.61965,0.816 z" transform="translate(-37.415 -1201.012) scale(1.14636)"/>
  <path fill="url(#n)" stroke="url(#o)" stroke-width=".915" d="m 43.406111,1049.7498 c 0,0 0.861386,-0.073 0.861386,0.663 -0.04744,1.1362 0.08812,2.8977 0.08812,2.8977 l -5.114116,-0.011 c 0,0 0.02108,-1.9494 0.0211,-2.1095 -0.01979,0.5542 0,-0.4047 0,-1.0445 0,-0.6398 0.252978,-1.0786 0.966375,-1.0651 1.217815,0 0.816632,-0.015 0.816632,-0.015 0.953144,0 1.565904,-0.146 1.565904,0.6758 z" transform="translate(-37.415 -1201.012) scale(1.14636)"/>
  <path fill="#fff" stroke="url(#p)" d="M9.417 1044.848H15.492V1050.883H9.417z" color="#000" overflow="visible" style="marker:none" transform="translate(0 -1036.362)"/>
  <path fill="#17325d" d="m 15.932685,1050.6702 -0.689928,0.7034 -2.756073,-2.7881 -1.379845,1.4067 -0.392778,-3.7177 3.724297,0.2863 -1.295713,1.3212 z" transform="translate(0 -1036.362)"/>
</svg>
