<?xml version="1.0" encoding="UTF-8" standalone="no"?>
<svg
   width="16"
   height="16"
   version="1.1"
   id="svg15"
   xmlns:xlink="http://www.w3.org/1999/xlink"
   xmlns="http://www.w3.org/2000/svg"
   xmlns:svg="http://www.w3.org/2000/svg">
  <defs
     id="defs9">
    <linearGradient
       id="a">
      <stop
         offset="0"
         stop-color="#5aad60"
         id="stop1" />
      <stop
         offset=".5"
         stop-color="#5bb26a"
         id="stop2" />
      <stop
         offset="1"
         stop-color="#a4c589"
         id="stop3" />
    </linearGradient>
    <linearGradient
       xlink:href="#a"
       id="d"
       x1="388.637"
       x2="388.637"
       y1="478.188"
       y2="457.955"
       gradientUnits="userSpaceOnUse" />
    <linearGradient
       xlink:href="#b"
       id="e"
       x1="388.637"
       x2="388.637"
       y1="478.188"
       y2="457.955"
       gradientUnits="userSpaceOnUse" />
    <linearGradient
       id="b">
      <stop
         offset="0"
         stop-color="#5aad60"
         id="stop4" />
      <stop
         offset=".5"
         stop-color="#5bb26a"
         id="stop5" />
      <stop
         offset="1"
         stop-color="#a4c589"
         id="stop6" />
    </linearGradient>
    <linearGradient
       xlink:href="#c"
       id="f"
       x1="388.637"
       x2="388.637"
       y1="478.188"
       y2="457.955"
       gradientUnits="userSpaceOnUse" />
    <linearGradient
       id="c">
      <stop
         offset="0"
         stop-color="#5aad60"
         id="stop7" />
      <stop
         offset=".5"
         stop-color="#5bb26a"
         id="stop8" />
      <stop
         offset="1"
         stop-color="#a4c589"
         id="stop9" />
    </linearGradient>
  </defs>
  <path
     fill="#6f7684"
     d="m 4.53125,3.9375 0,1.0625 2.375,0 0,6.96875 -2.375,0 0,1.0625 3.5,0 0,-4.0625 1,0 0,0.03125 0,2.03125 L 11.625,8.4375 9.03125,6 l 0,1.9375 0,0.0625 -1,0 0,-4.0625 z"
     id="path9" />
  <path
     fill="url(#d)"
     stroke="#14733c"
     stroke-linecap="round"
     stroke-linejoin="round"
     stroke-width="4.558"
     d="m 398.75,468.23718 c 0,5.86803 -4.75697,10.625 -10.625,10.625 -5.86803,0 -10.625,-4.75697 -10.625,-10.625 0,-5.86802 4.75697,-10.625 10.625,-10.625 5.86803,0 10.625,4.75698 10.625,10.625 z"
     transform="matrix(-.19771 0 0 .19624 79.284 -87.395)"
     id="path10" />
  <path
     fill="#fff"
     d="m 14.75,3.140625 c 0,0.3538074 -0.664577,0.640625 -1.484375,0.640625 -0.819798,0 -1.484375,-0.2868176 -1.484375,-0.640625 C 11.78125,2.7868176 12.445827,2.5 13.265625,2.5 14.085423,2.5 14.75,2.7868176 14.75,3.140625 z"
     color="#000"
     opacity=".462"
     overflow="visible"
     style="marker:none"
     transform="matrix(-.81053 0 0 1 13.283 .406)"
     id="path11" />
  <path
     fill="url(#e)"
     stroke="#14733c"
     stroke-linecap="round"
     stroke-linejoin="round"
     stroke-width="4.558"
     d="m 398.75,468.23718 c 0,5.86803 -4.75697,10.625 -10.625,10.625 -5.86803,0 -10.625,-4.75697 -10.625,-10.625 0,-5.86802 4.75697,-10.625 10.625,-10.625 5.86803,0 10.625,4.75698 10.625,10.625 z"
     transform="matrix(-.19771 0 0 .19624 79.284 -79.332)"
     id="path12" />
  <path
     fill="#fff"
     d="m 14.75,3.140625 c 0,0.3538074 -0.664577,0.640625 -1.484375,0.640625 -0.819798,0 -1.484375,-0.2868176 -1.484375,-0.640625 C 11.78125,2.7868176 12.445827,2.5 13.265625,2.5 14.085423,2.5 14.75,2.7868176 14.75,3.140625 z"
     color="#000"
     opacity=".462"
     overflow="visible"
     style="marker:none"
     transform="matrix(-.81053 0 0 1 13.283 8.469)"
     id="path13" />
  <path
     fill="url(#f)"
     stroke="#14733c"
     stroke-linecap="round"
     stroke-linejoin="round"
     stroke-width="4.558"
     d="m 398.75,468.23718 c 0,5.86803 -4.75697,10.625 -10.625,10.625 -5.86803,0 -10.625,-4.75697 -10.625,-10.625 0,-5.86802 4.75697,-10.625 10.625,-10.625 5.86803,0 10.625,4.75698 10.625,10.625 z"
     transform="matrix(-.19408 0 0 .19624 88.841 -83.356)"
     id="path14" />
  <path
     fill="#fff"
     d="m 14.75,3.140625 c 0,0.3538074 -0.664577,0.640625 -1.484375,0.640625 -0.819798,0 -1.484375,-0.2868176 -1.484375,-0.640625 C 11.78125,2.7868176 12.445827,2.5 13.265625,2.5 14.085423,2.5 14.75,2.7868176 14.75,3.140625 z"
     color="#000"
     opacity=".462"
     overflow="visible"
     style="marker:none"
     transform="matrix(-.79562 0 0 1 24.054 4.446)"
     id="path15" />
</svg>
