<svg xmlns="http://www.w3.org/2000/svg" xmlns:xlink="http://www.w3.org/1999/xlink" width="16" height="16">
  <defs>
    <linearGradient xlink:href="#a" id="f" x1="388.637" x2="388.637" y1="478.188" y2="457.955" gradientUnits="userSpaceOnUse"/>
    <linearGradient id="a">
      <stop offset="0" stop-color="#5aad60"/>
      <stop offset=".5" stop-color="#5bb26a"/>
      <stop offset="1" stop-color="#a4c589"/>
    </linearGradient>
    <linearGradient xlink:href="#b" id="e" x1="388.637" x2="388.637" y1="478.188" y2="457.955" gradientUnits="userSpaceOnUse"/>
    <linearGradient id="b">
      <stop offset="0" stop-color="#5aad60"/>
      <stop offset=".5" stop-color="#5bb26a"/>
      <stop offset="1" stop-color="#a4c589"/>
    </linearGradient>
    <linearGradient xlink:href="#c" id="d" x1="388.637" x2="388.637" y1="478.188" y2="457.955" gradientUnits="userSpaceOnUse"/>
    <linearGradient id="c">
      <stop offset="0" stop-color="#5aad60"/>
      <stop offset=".5" stop-color="#5bb26a"/>
      <stop offset="1" stop-color="#a4c589"/>
    </linearGradient>
  </defs>
  <path fill="#6f7684" d="m 8.9375,2 0,1.9375 -3.09375,0 0,4.0625 -1.28125,0 0.03125,0.96875 1.25,0 0,4.0625 3.09375,0 0,2.03125 2.59375,-2.59375 -2.59375,-2.4375 0,1.9375 -1.96875,0 0,-6.96875 1.96875,0 0,2.03125 2.59375,-2.625 L 8.9375,2 z"/>
  <path fill="#fff" d="m 14.75,3.140625 c 0,0.3538074 -0.664577,0.640625 -1.484375,0.640625 -0.819798,0 -1.484375,-0.2868176 -1.484375,-0.640625 C 11.78125,2.7868176 12.445827,2.5 13.265625,2.5 14.085423,2.5 14.75,2.7868176 14.75,3.140625 z" color="#000" opacity=".462" overflow="visible" style="marker:none" transform="matrix(.81053 0 0 1 -3.329 9.899)"/>
  <path fill="url(#d)" stroke="#14733c" stroke-linecap="round" stroke-linejoin="round" stroke-width="4.558" d="m 398.75,468.23718 c 0,5.86803 -4.75697,10.625 -10.625,10.625 -5.86803,0 -10.625,-4.75697 -10.625,-10.625 0,-5.86802 4.75697,-10.625 10.625,-10.625 5.86803,0 10.625,4.75698 10.625,10.625 z" transform="matrix(.19771 0 0 .19624 -63.252 -87.395)"/>
  <path fill="#fff" d="m 14.75,3.140625 c 0,0.3538074 -0.664577,0.640625 -1.484375,0.640625 -0.819798,0 -1.484375,-0.2868176 -1.484375,-0.640625 C 11.78125,2.7868176 12.445827,2.5 13.265625,2.5 14.085423,2.5 14.75,2.7868176 14.75,3.140625 z" color="#000" opacity=".462" overflow="visible" style="marker:none" transform="matrix(.81053 0 0 1 2.748 .406)"/>
  <path fill="url(#e)" stroke="#14733c" stroke-linecap="round" stroke-linejoin="round" stroke-width="4.558" d="m 398.75,468.23718 c 0,5.86803 -4.75697,10.625 -10.625,10.625 -5.86803,0 -10.625,-4.75697 -10.625,-10.625 0,-5.86802 4.75697,-10.625 10.625,-10.625 5.86803,0 10.625,4.75698 10.625,10.625 z" transform="matrix(.19771 0 0 .19624 -63.252 -79.332)"/>
  <path fill="#fff" d="m 14.75,3.140625 c 0,0.3538074 -0.664577,0.640625 -1.484375,0.640625 -0.819798,0 -1.484375,-0.2868176 -1.484375,-0.640625 C 11.78125,2.7868176 12.445827,2.5 13.265625,2.5 14.085423,2.5 14.75,2.7868176 14.75,3.140625 z" color="#000" opacity=".462" overflow="visible" style="marker:none" transform="matrix(.81053 0 0 1 2.748 8.469)"/>
  <path fill="url(#f)" stroke="#14733c" stroke-linecap="round" stroke-linejoin="round" stroke-width="4.558" d="m 398.75,468.23718 c 0,5.86803 -4.75697,10.625 -10.625,10.625 -5.86803,0 -10.625,-4.75697 -10.625,-10.625 0,-5.86802 4.75697,-10.625 10.625,-10.625 5.86803,0 10.625,4.75698 10.625,10.625 z" transform="matrix(.19408 0 0 .19624 -72.81 -83.356)"/>
  <path fill="#fff" d="m 14.75,3.140625 c 0,0.3538074 -0.664577,0.640625 -1.484375,0.640625 -0.819798,0 -1.484375,-0.2868176 -1.484375,-0.640625 C 11.78125,2.7868176 12.445827,2.5 13.265625,2.5 14.085423,2.5 14.75,2.7868176 14.75,3.140625 z" color="#000" opacity=".462" overflow="visible" style="marker:none" transform="matrix(.79562 0 0 1 -8.023 4.446)"/>
</svg>
