<svg xmlns="http://www.w3.org/2000/svg" xmlns:xlink="http://www.w3.org/1999/xlink" width="16" height="16">
  <defs>
    <linearGradient xlink:href="#a" id="f" x1="11.906" x2="11.906" y1="1042.362" y2="1047.268" gradientUnits="userSpaceOnUse"/>
    <linearGradient id="a">
      <stop offset="0" stop-color="#fefdef"/>
      <stop offset="1" stop-color="#fce69e"/>
    </linearGradient>
    <linearGradient xlink:href="#b" id="g" x1="0" x2="8" y1="13.5" y2="13.5" gradientUnits="userSpaceOnUse"/>
    <linearGradient id="b">
      <stop offset="0" stop-color="#4e8fbd"/>
      <stop offset="1" stop-color="#4d5a5d"/>
    </linearGradient>
    <linearGradient xlink:href="#c" id="h" x1="0" x2="8" y1="13.5" y2="13.5" gradientTransform="translate(0 1026.362)" gradientUnits="userSpaceOnUse"/>
    <linearGradient id="c">
      <stop offset="0" stop-color="#4e8fbd"/>
      <stop offset="1" stop-color="#4d5a5d"/>
    </linearGradient>
    <linearGradient xlink:href="#d" id="i" x1="10" x2="10" y1="1" y2="6" gradientTransform="translate(0 1036.362)" gradientUnits="userSpaceOnUse"/>
    <linearGradient id="d">
      <stop offset="0" stop-color="#77849a"/>
      <stop offset="1" stop-color="#38445d"/>
    </linearGradient>
    <linearGradient xlink:href="#e" id="j" x1="10" x2="10" y1="1" y2="6" gradientTransform="translate(0 -1053.362)" gradientUnits="userSpaceOnUse"/>
    <linearGradient id="e">
      <stop offset="0" stop-color="#77849a"/>
      <stop offset="1" stop-color="#38445d"/>
    </linearGradient>
    <filter id="l" width="1.469" height="1.492" x="-.234" y="-.246" color-interpolation-filters="sRGB">
      <feGaussianBlur stdDeviation="1.067"/>
    </filter>
    <mask id="k" maskUnits="userSpaceOnUse">
      <g fill="#fff">
        <path d="m 5,1044.3622 0,1 7,0 0,2 2.999893,-2.5 -2.999893,-2.5 0,2 z" transform="translate(.046 .03)"/>
        <path d="m 0.97227178,13 0,1 L 5,14 5,16 7.9998932,13.5 5,11 5,13 z" transform="translate(.046 1036.393)"/>
        <path d="m.972 1039.362 0 1 4.028 0 0 2 3-2.5-3-2.5 0 2zM9 1037.362H10V1042.362H9z" transform="translate(.046 .03)"/>
        <path d="M9-1052.362H10V-1047.362H9z" transform="matrix(1 0 0 -1 .046 .03)"/>
        <path d="m 11,1041.3622 0,2 -5,0 -1,0 c -0.9918497,0.9918 -0.9863244,2.0137 0,3 l 1,0 5,0 0,2 c 0,0.6519 0.740915,0.6375 1.5,0 l 3.9375,-3.5 -3.9375,-3.5 c -0.760225,-0.7602 -1.5,-0.5203 -1.5,0 z m 1,1 3,2.5 -3,2.5 0,-2 -6.4375,0 c -0.2762136,-0.2099 -0.2774437,-0.7282 0,-1 l 6.4375,0 z" transform="translate(.046 .03)"/>
      </g>
    </mask>
  </defs>
  <path fill="url(#f)" d="m 5,1044.3622 0,1 7,0 0,2 2.999893,-2.5 -2.999893,-2.5 0,2 z" transform="translate(.046 -1036.332)"/>
  <path fill="url(#g)" d="m 0.97227178,13 0,1 L 5,14 5,16 7.9998932,13.5 5,11 5,13 z" transform="translate(.046 .03)"/>
  <path fill="url(#h)" d="m 0.97227178,1039.3622 0,1 4.02772822,0 0,2 2.9998932,-2.5 -2.9998932,-2.5 0,2 z" transform="translate(.046 -1036.332)"/>
  <path fill="url(#i)" d="M9 1037.362H10V1042.362H9z" transform="translate(.046 -1036.332)"/>
  <path fill="url(#j)" d="M9-1052.362H10V-1047.362H9z" transform="matrix(1 0 0 -1 .046 -1036.332)"/>
  <path fill="#b57a13" d="m 11,1041.3622 0,2 -5,0 -1,0 c -0.9918497,0.9918 -0.9863244,2.0137 0,3 l 1,0 5,0 0,2 c 0,0.6519 0.740915,0.6375 1.5,0 l 3.9375,-3.5 -3.9375,-3.5 c -0.760225,-0.7602 -1.5,-0.5203 -1.5,0 z m 1,1 3,2.5 -3,2.5 0,-2 -6.4375,0 c -0.2762136,-0.2099 -0.2774437,-0.7282 0,-1 l 6.4375,0 z" transform="translate(.046 -1036.332)"/>
  <g mask="url(#k)" transform="translate(0 -1036.362)">
    <g fill="#fff" stroke="#fff" stroke-width="2.421" filter="url(#l)" transform="matrix(.82612 0 0 .82612 -.576 186.947)">
      <g stroke-width="2.007" color="#000">
        <path d="m -2.4748735,9.7465248 c 0,2.3797572 -1.9291745,4.3089322 -4.3089319,4.3089322 -2.3797573,0 -4.3089316,-1.929175 -4.3089316,-4.3089322 0,-2.3797573 1.9291743,-4.3089318 4.3089316,-4.3089318 2.3797574,0 4.3089319,1.9291745 4.3089319,4.3089318 z" enable-background="accumulate" overflow="visible" style="marker:none" transform="matrix(1.20654 0 0 1.20654 15.71 1030.103)"/>
        <path d="m 5.2901155,1042.6691 c -0.4193865,0 -0.827937,0.074 -1.2109584,0.1863 l 0.4968033,0.6521 0.8073063,1.0246 0.7762559,-1.0246 0.4968036,-0.59 c -0.429042,-0.1444 -0.8885091,-0.2484 -1.3662107,-0.2484 z m -2.1114149,0.59 c -0.7184889,0.4103 -1.2964352,1.0016 -1.6767124,1.7388 l 0.6520553,0.093 1.2730592,0.1553 -0.1552509,-1.2731 -0.093148,-0.7141 z m 4.2228311,0 -0.093148,0.7141 -0.155251,1.2731 1.3041096,-0.1553 0.6210049,-0.061 c -0.3798299,-0.7481 -0.9503317,-1.3549 -1.6767123,-1.7698 z m -6.2100454,2.484 c -0.112404,0.383 -0.1863014,0.7916 -0.1863014,1.2109 0,0.433 0.09783,0.8481 0.2173518,1.2421 l 0.5278537,-0.4348 1.0246571,-0.7761 -1.0246571,-0.8074 z m 8.1972597,0.031 -0.5278537,0.4037 -1.024658,0.8074 1.024658,0.7762 0.4968033,0.4036 c 0.1140598,-0.3856 0.2173518,-0.7884 0.2173518,-1.211 0,-0.409 -0.079196,-0.8053 -0.1863014,-1.1799 z m -5.9616433,2.9499 -1.2730592,0.1552 -0.6210049,0.062 c 0.3807416,0.7204 0.9395255,1.3044 1.645662,1.7079 l 0.093148,-0.6522 0.155251,-1.273 z m 3.7260268,0 0.155251,1.2729 0.093148,0.6522 c 0.7061365,-0.4034 1.2649204,-0.9875 1.645662,-1.7079 l -0.5899545,-0.062 c -0.4345689,-0.052 -0.8703802,-0.1039 -1.3041096,-0.1557 z m -1.7698628,0.7141 -0.8073063,0.9936 -0.4657529,0.6209 c 0.3746086,0.1072 0.7709056,0.1864 1.179908,0.1864 0.4641221,0 0.9166457,-0.081 1.3351603,-0.2173 l -0.4657532,-0.59 z" enable-background="accumulate" overflow="visible" style="marker:none" transform="matrix(1.20654 0 0 1.20654 1.225 -221.374)"/>
        <path d="m 0.524759,1042.9675 3.79253,5.2259 c 0,0 1.216807,0.4672 1.684108,-1e-4 l 0.19297,-0.193 c 0.467299,-0.4673 -8e-6,-1.6841 -8e-6,-1.6841 z m 4.055643,3.5242 c 0.376798,-0.3768 0.991528,-0.3769 1.368362,0 0.376788,0.3767 0.376773,0.9914 -2.5e-5,1.3682 -0.376798,0.3769 -0.991507,0.3769 -1.368294,0 -0.376855,-0.3768 -0.376841,-0.9915 -4.3e-5,-1.3682 z" enable-background="accumulate" overflow="visible" style="marker:none" transform="matrix(1.20654 0 0 1.20654 1.225 -221.374)"/>
      </g>
    </g>
  </g>
  <g color="#000">
    <path fill="#fff" stroke="#4d607b" stroke-width=".829" d="m -2.4748735,9.7465248 c 0,2.3797572 -1.9291745,4.3089322 -4.3089319,4.3089322 -2.3797573,0 -4.3089316,-1.929175 -4.3089316,-4.3089322 0,-2.3797573 1.9291743,-4.3089318 4.3089316,-4.3089318 2.3797574,0 4.3089319,1.9291745 4.3089319,4.3089318 z" enable-background="accumulate" overflow="visible" style="marker:none" transform="matrix(.99675 0 0 .99675 12.403 1.577)"/>
    <path fill="#4e8fbd" stroke="#4d607b" stroke-width=".598" d="m 5.2901155,1042.6691 c -0.4193865,0 -0.827937,0.074 -1.2109584,0.1863 l 0.4968033,0.6521 0.8073063,1.0246 0.7762559,-1.0246 0.4968036,-0.59 c -0.429042,-0.1444 -0.8885091,-0.2484 -1.3662107,-0.2484 z m -2.1114149,0.59 c -0.7184889,0.4103 -1.2964352,1.0016 -1.6767124,1.7388 l 0.6520553,0.093 1.2730592,0.1553 -0.1552509,-1.2731 -0.093148,-0.7141 z m 4.2228311,0 -0.093148,0.7141 -0.155251,1.2731 1.3041096,-0.1553 0.6210049,-0.061 c -0.3798299,-0.7481 -0.9503317,-1.3549 -1.6767123,-1.7698 z m -6.2100454,2.484 c -0.112404,0.383 -0.1863014,0.7916 -0.1863014,1.2109 0,0.433 0.09783,0.8481 0.2173518,1.2421 l 0.5278537,-0.4348 1.0246571,-0.7761 -1.0246571,-0.8074 z m 8.1972597,0.031 -0.5278537,0.4037 -1.024658,0.8074 1.024658,0.7762 0.4968033,0.4036 c 0.1140598,-0.3856 0.2173518,-0.7884 0.2173518,-1.211 0,-0.409 -0.079196,-0.8053 -0.1863014,-1.1799 z m -5.9616433,2.9499 -1.2730592,0.1552 -0.6210049,0.062 c 0.3807416,0.7204 0.9395255,1.3044 1.645662,1.7079 l 0.093148,-0.6522 0.155251,-1.273 z m 3.7260268,0 0.155251,1.2729 0.093148,0.6522 c 0.7061365,-0.4034 1.2649204,-0.9875 1.645662,-1.7079 l -0.5899545,-0.062 c -0.4345689,-0.052 -0.8703802,-0.1039 -1.3041096,-0.1557 z m -1.7698628,0.7141 -0.8073063,0.9936 -0.4657529,0.6209 c 0.3746086,0.1072 0.7709056,0.1864 1.179908,0.1864 0.4641221,0 0.9166457,-0.081 1.3351603,-0.2173 l -0.4657532,-0.59 z" enable-background="accumulate" overflow="visible" style="marker:none" transform="matrix(.99675 0 0 .99675 .436 -1032.298)"/>
    <path fill="#4d607b" stroke="#384e6e" stroke-width=".5" d="m 0.524759,1042.9675 3.79253,5.2259 c 0,0 1.216807,0.4672 1.684108,-1e-4 l 0.19297,-0.193 c 0.467299,-0.4673 -8e-6,-1.6841 -8e-6,-1.6841 z m 4.055643,3.5242 c 0.376798,-0.3768 0.991528,-0.3769 1.368362,0 0.376788,0.3767 0.376773,0.9914 -2.5e-5,1.3682 -0.376798,0.3769 -0.991507,0.3769 -1.368294,0 -0.376855,-0.3768 -0.376841,-0.9915 -4.3e-5,-1.3682 z" enable-background="accumulate" overflow="visible" style="marker:none" transform="matrix(.99675 0 0 .99675 .436 -1032.298)"/>
  </g>
</svg>
