<?xml version="1.0" encoding="UTF-8" standalone="no"?>
<svg
   width="16"
   height="16"
   version="1.1"
   id="svg13"
   xmlns:xlink="http://www.w3.org/1999/xlink"
   xmlns="http://www.w3.org/2000/svg"
   xmlns:svg="http://www.w3.org/2000/svg">
  <defs
     id="defs6">
    <linearGradient
       id="b">
      <stop
         offset="0"
         stop-color="#6b9ac3"
         id="stop1" />
      <stop
         offset="1"
         stop-color="#4d94c4"
         id="stop2" />
    </linearGradient>
    <linearGradient
       xlink:href="#a"
       id="c"
       x1="388.637"
       x2="388.637"
       y1="478.188"
       y2="462.115"
       gradientUnits="userSpaceOnUse" />
    <linearGradient
       id="a">
      <stop
         offset="0"
         stop-color="#80c3eb"
         id="stop3" />
      <stop
         offset=".5"
         stop-color="#0e9ad8"
         id="stop4" />
      <stop
         offset="1"
         stop-color="#a1cfed"
         id="stop5" />
    </linearGradient>
    <linearGradient
       xlink:href="#b"
       id="d"
       x1="392.187"
       x2="391.749"
       y1="458.165"
       y2="478.972"
       gradientUnits="userSpaceOnUse" />
    <filter
       id="f"
       x="-0.075"
       y="-0.05"
       width="1.15"
       height="1.1">
      <feGaussianBlur
         stdDeviation=".125"
         id="feGaussianBlur5" />
    </filter>
    <filter
       id="e"
       color-interpolation-filters="sRGB"
       x="-0.075"
       y="-0.05"
       width="1.15"
       height="1.1">
      <feGaussianBlur
         stdDeviation=".125"
         id="feGaussianBlur6" />
    </filter>
  </defs>
  <g
     fill="#fff"
     font-family="Sans"
     font-size="13.589"
     font-weight="400"
     letter-spacing="0"
     word-spacing="0"
     id="g13">
    <g
       style="line-height:125%"
       id="g12">
      <path
         fill="url(#c)"
         stroke="url(#d)"
         stroke-linecap="round"
         stroke-linejoin="round"
         stroke-width="2.166"
         d="m 398.75,468.23718 c 0,5.86803 -4.75697,10.625 -10.625,10.625 -5.86803,0 -10.625,-4.75697 -10.625,-10.625 0,-5.86802 4.75697,-10.625 10.625,-10.625 5.86803,0 10.625,4.75698 10.625,10.625 z"
         transform="matrix(.47162 0 0 .47162 -174.547 -213.316)"
         id="path6" />
      <g
         fill="red"
         font-family="Arial"
         font-size="7.603"
         style="text-align:start;line-height:125%;-inkscape-font-specification:Arial"
         id="g11">
        <path
           fill="#000"
           d="m -29.262172,1039.2155 0,-6 4,0 0,1 -3,0 0,1 2,0 0,1 -2,0 0,3 z"
           filter="url(#e)"
           opacity=".5"
           style="text-align:start;line-height:125%;-inkscape-font-specification:Arial"
           transform="translate(36.13 -1028.348)"
           id="path7" />
        <path
           fill="#fff"
           d="m -29.12959,1039.3481 0,-6 4,0 0,1 -3,0 0,1 2,0 0,1 -2,0 0,3 z"
           transform="translate(36.13 -1028.348)"
           id="path8" />
        <path
           fill="#fff"
           d="m -28.997008,1039.4807 0,-6 4,0 0,1 -3,0 0,1 2,0 0,1 -2,0 0,3 z"
           filter="url(#f)"
           opacity=".5"
           style="text-align:start;line-height:125%;-inkscape-font-specification:Arial"
           transform="translate(36.13 -1028.348)"
           id="path9" />
        <path
           fill="#000f6f"
           stroke="#6f99c7"
           stroke-linecap="round"
           d="m -34.44209,1029.3481 14,14"
           style="text-align:start;line-height:125%;-inkscape-font-specification:Arial"
           transform="translate(36.13 -1028.348)"
           id="path10" />
        <path
           fill="#000f6f"
           stroke="#000f6f"
           stroke-linecap="round"
           d="m -35.12959,1029.3481 14,14"
           transform="translate(36.13 -1028.348)"
           id="path11" />
      </g>
    </g>
  </g>
</svg>
