<svg xmlns="http://www.w3.org/2000/svg" xmlns:xlink="http://www.w3.org/1999/xlink" width="16" height="16">
  <defs>
    <linearGradient id="e">
      <stop offset="0" stop-color="#a66b10"/>
      <stop offset="1" stop-color="#bd8416"/>
    </linearGradient>
    <linearGradient id="c">
      <stop offset="0" stop-color="#778cb4"/>
      <stop offset="1" stop-color="#677da9"/>
    </linearGradient>
    <linearGradient id="b">
      <stop offset="0" stop-color="#f9fafc"/>
      <stop offset="1" stop-color="#e0eaf7"/>
    </linearGradient>
    <linearGradient id="a">
      <stop offset="0" stop-color="#c7b571"/>
      <stop offset="1" stop-color="#9a998f"/>
    </linearGradient>
    <linearGradient xlink:href="#a" id="g" x1="8.014" x2="8.014" y1="1036.662" y2="1050.071" gradientTransform="translate(1 2)" gradientUnits="userSpaceOnUse"/>
    <linearGradient xlink:href="#b" id="f" x1="14" x2="14" y1="1039.362" y2="1051.362" gradientUnits="userSpaceOnUse"/>
    <linearGradient xlink:href="#c" id="h" x1="11" x2="14" y1="1044.862" y2="1044.862" gradientUnits="userSpaceOnUse"/>
    <linearGradient xlink:href="#d" id="i" x1="12.178" x2="12.178" y1="1047.331" y2="1042.331" gradientUnits="userSpaceOnUse"/>
    <linearGradient id="d">
      <stop offset="0" stop-color="#fefdef"/>
      <stop offset=".4" stop-color="#fef5d4"/>
      <stop offset=".6" stop-color="#fbe08e"/>
      <stop offset="1" stop-color="#fbdd83"/>
    </linearGradient>
    <linearGradient xlink:href="#e" id="j" x1="12.403" x2="12.403" y1="1061.015" y2="1068.189" gradientTransform="translate(0 -20)" gradientUnits="userSpaceOnUse"/>
  </defs>
  <path fill="url(#f)" stroke="url(#g)" d="m 4.9700418,1037.8621 10.5299582,0 0,14.0018 -10.5299582,0" transform="translate(0 -1036.362)"/>
  <path fill="#a9b7d2" d="m7 1049.362 0 .091 0 .909 7 0 0-.909 0-.091zM12 1047.362l0 .091 0 .909 2 0 0-.909 0-.091z" transform="translate(0 -1036.362)"/>
  <path fill="#c1c6d9" d="m12 1041.362 0 .091 0 .909 2 0 0-.909 0-.091zM7 1039.362l0 .091 0 .909 7 0 0-.909 0-.091z" transform="translate(0 -1036.362)"/>
  <path fill="#286296" d="m11 1043.362 0 .091 0 .909 3 0 0-.909 0-.091zM11 1045.362l0 .091 0 .909 3 0 0-.909 0-.091z" transform="translate(0 -1036.362)"/>
  <path fill="url(#h)" d="m 11,1044.3622 0,0.091 0,0.9091 3,0 0,-0.9091 0,-0.091 z" transform="translate(0 -1036.362)"/>
  <path fill="#a9b7d2" d="m 9,1047.3621 0,0.091 0,0.9091 2,0 0,-0.9091 0,-0.091 z" transform="translate(0 -1036.362)"/>
  <path fill="#c1c6d9" d="m 9,1041.3621 0,0.091 0,0.9091 2,0 0,-0.9091 0,-0.091 z" transform="translate(0 -1036.362)"/>
  <path fill="url(#i)" d="m 5.6629126,1043.3309 0,2.9844 5.5870874,0 0,1.5313 3.781143,-2.9844 -3.781143,-3.0469 0,1.5156 z" transform="matrix(1 0 0 -1 -5.178 1053.33)"/>
  <path fill="url(#j)" d="m 10.25,1040.8153 0,1.5156 -3.4103107,0 -1,0 c -0.99185,0.9918 -0.986324,3.9981 0,4.9844 l 1,0 3.4103107,0 0,1.5313 c 0,0.6519 0.740915,0.6375 1.5,0 l 4.71875,-3.9844 -4.71875,-4.0469 c -0.760225,-0.7602 -1.5,-0.5203 -1.5,0 z m 1,1 3.78125,3.0469 -3.78125,2.9844 0,-1.5313 -4.8478107,0 c -0.276214,-0.2099 -0.277444,-2.7126 0,-2.9844 l 4.8478107,0 z" transform="matrix(1 0 0 -1 -5.178 1053.33)"/>
</svg>
