<?xml version="1.0" encoding="UTF-8" standalone="no"?>
<svg
   width="16"
   height="16"
   version="1.1"
   id="svg16"
   xmlns:xlink="http://www.w3.org/1999/xlink"
   xmlns="http://www.w3.org/2000/svg"
   xmlns:svg="http://www.w3.org/2000/svg">
  <defs
     id="defs9">
    <linearGradient
       xlink:href="#a"
       id="e"
       x1="388.637"
       x2="388.637"
       y1="478.188"
       y2="462.115"
       gradientUnits="userSpaceOnUse" />
    <linearGradient
       id="a">
      <stop
         offset="0"
         stop-color="#75ba7a"
         id="stop1" />
      <stop
         offset=".5"
         stop-color="#418a4d"
         id="stop2" />
      <stop
         offset="1"
         stop-color="#a4c589"
         id="stop3" />
    </linearGradient>
    <linearGradient
       xlink:href="#b"
       id="g"
       x1="-2.13"
       x2="-2.13"
       y1="1038.348"
       y2="1039.348"
       gradientTransform="translate(0 4)"
       gradientUnits="userSpaceOnUse" />
    <linearGradient
       id="b">
      <stop
         offset="0"
         stop-color="#c4a543"
         id="stop4" />
      <stop
         offset="1"
         stop-color="#ae8820"
         id="stop5" />
    </linearGradient>
    <linearGradient
       id="d">
      <stop
         offset="0"
         stop-color="#c4a543"
         id="stop6" />
      <stop
         offset="1"
         stop-color="#ae8820"
         id="stop7" />
    </linearGradient>
    <linearGradient
       xlink:href="#c"
       id="h"
       x1="-2.13"
       x2="-2.13"
       y1="1038.348"
       y2="1039.348"
       gradientTransform="translate(-11 -8)"
       gradientUnits="userSpaceOnUse" />
    <linearGradient
       id="c">
      <stop
         offset="0"
         stop-color="#c4a543"
         id="stop8" />
      <stop
         offset="1"
         stop-color="#ae8820"
         id="stop9" />
    </linearGradient>
    <linearGradient
       xlink:href="#d"
       id="f"
       x1="-2.13"
       x2="-2.13"
       y1="1038.348"
       y2="1039.348"
       gradientUnits="userSpaceOnUse" />
  </defs>
  <g
     fill="#fff"
     font-family="Sans"
     font-size="13.589"
     font-weight="400"
     letter-spacing="0"
     word-spacing="0"
     id="g16">
    <g
       style="line-height:125%"
       id="g15">
      <path
         fill="#6f7684"
         d="m -8.12959,1043.3481 1,0 0,-8 -1,0 z"
         style="line-height:125%"
         transform="translate(16.13 -1028.348)"
         id="path9" />
      <path
         fill="#6f7684"
         d="m-7.218 1038.348 0 1 4 0 0-1zM-7.218 1042.348l0 1 4 0 0-1zM-14.13 1033.348l0 1 4 0 0-1z"
         style="line-height:125%"
         transform="translate(16.13 -1028.348)"
         id="path10" />
      <path
         fill="#6f7684"
         d="m -13.12959,1030.3481 -1,0 0,4 1,0 z"
         style="line-height:125%"
         transform="translate(16.13 -1028.348)"
         id="path11" />
      <path
         fill="url(#e)"
         stroke="#14733c"
         stroke-linecap="round"
         stroke-linejoin="round"
         stroke-width="5.254"
         d="m 398.75,468.23718 c 0,5.86803 -4.75697,10.625 -10.625,10.625 -5.86803,0 -10.625,-4.75697 -10.625,-10.625 0,-5.86802 4.75697,-10.625 10.625,-10.625 5.86803,0 10.625,4.75698 10.625,10.625 z"
         transform="matrix(.18866 0 0 .18866 -64.76 -82.837)"
         id="path12" />
      <path
         fill="#fefdef"
         stroke="url(#f)"
         stroke-linecap="round"
         stroke-linejoin="round"
         d="M-3.641 1037.838H-1.618V1039.861H-3.641z"
         style="line-height:125%"
         transform="translate(16.13 -1028.348)"
         id="path13" />
      <path
         fill="#fefdef"
         stroke="url(#g)"
         stroke-linecap="round"
         stroke-linejoin="round"
         d="M-3.641 1041.838H-1.618V1043.861H-3.641z"
         style="line-height:125%"
         transform="translate(16.13 -1028.348)"
         id="path14" />
      <path
         fill="#fefdef"
         stroke="url(#h)"
         stroke-linecap="round"
         stroke-linejoin="round"
         d="M-14.641 1029.838H-12.618V1031.861H-14.641z"
         style="line-height:125%"
         transform="translate(16.13 -1028.348)"
         id="path15" />
    </g>
  </g>
</svg>
