<svg xmlns="http://www.w3.org/2000/svg" xmlns:xlink="http://www.w3.org/1999/xlink" width="16" height="16">
  <defs>
    <linearGradient id="f">
      <stop offset="0" stop-color="#679fb0"/>
      <stop offset="1" stop-color="#fff" stop-opacity="0"/>
    </linearGradient>
    <linearGradient id="e">
      <stop offset="0" stop-color="#3c7a16"/>
      <stop offset="1" stop-color="#72b649"/>
    </linearGradient>
    <linearGradient id="d">
      <stop offset="0" stop-color="#d5f3ff"/>
      <stop offset="1" stop-color="#fff"/>
    </linearGradient>
    <linearGradient id="a">
      <stop offset="0" stop-color="#877e60"/>
      <stop offset="1" stop-color="#c0a753"/>
    </linearGradient>
    <linearGradient id="c">
      <stop offset="0" stop-color="#68b3e1"/>
      <stop offset="1" stop-color="#fff"/>
    </linearGradient>
    <linearGradient id="b">
      <stop offset="0" stop-color="#4476aa"/>
      <stop offset="1" stop-color="#fff"/>
    </linearGradient>
    <linearGradient xlink:href="#a" id="h" x1="24.022" x2="24.022" y1="1048.758" y2="1039.441" gradientTransform="translate(-33.875)" gradientUnits="userSpaceOnUse"/>
    <linearGradient xlink:href="#b" id="i" x1="16.794" x2="30.715" y1="1040.54" y2="1040.54" gradientTransform="translate(-9.325)" gradientUnits="userSpaceOnUse"/>
    <linearGradient xlink:href="#c" id="j" x1="7.469" x2="21.39" y1="1040.562" y2="1040.562" gradientUnits="userSpaceOnUse"/>
    <linearGradient xlink:href="#d" id="g" x1="3.04" x2="10.022" y1="1043.254" y2="1048.379" gradientTransform="translate(-17.125)" gradientUnits="userSpaceOnUse"/>
    <linearGradient xlink:href="#e" id="l" x1="18.139" x2="18.139" y1="1059.418" y2="1057.157" gradientUnits="userSpaceOnUse"/>
    <radialGradient xlink:href="#f" id="k" cx="9.525" cy="9.638" r="1.813" fx="9.525" fy="9.638" gradientTransform="matrix(.9132 -.76247 1.76397 2.11266 -17.14 1033.03)" gradientUnits="userSpaceOnUse"/>
  </defs>
  <g color="#000">
    <path fill="url(#g)" stroke="url(#h)" stroke-width=".9" d="M-16.197 1039.457H-3.116V1050.55H-16.197z" overflow="visible" style="marker:none" transform="translate(16.804 -1035.213)"/>
    <path fill="url(#i)" d="M7.425 1039.015H21.435V1042.042H7.425z" overflow="visible" style="marker:none" transform="translate(-7.26 -1035.213)"/>
    <path fill="url(#j)" d="M7.425 1040.076H21.39V1041.048H7.425z" overflow="visible" style="marker:none" transform="translate(-7.26 -1035.213)"/>
  </g>
  <path fill="url(#k)" d="M 8.9310345,1049.8116 8.1875,1045.4247 12.5,1047.6553 z" transform="translate(0 -1036.362)"/>
  <g color="#000" transform="rotate(45 1105.467 454.013) scale(.86037)">
    <rect width=".972" height="3.226" x="17.457" y="1060.627" overflow="visible" ry="0" style="marker:none"/>
    <g stroke="#007236" stroke-width=".9">
      <path fill="url(#l)" d="m 17.54509,1054.9697 0.537498,0 c 0.734509,0 1.22834,0.5978 1.325829,1.3258 l 0.390574,2.9167 c 0.120235,0.8979 -0.729293,1.6352 -1.635185,1.6352 l -0.662913,0 c -0.905892,0 -1.744197,-0.7359 -1.635185,-1.6352 l 0.353553,-2.9167 c 0.08839,-0.7292 0.59132,-1.3258 1.325829,-1.3258 z" overflow="visible" style="marker:none"/>
      <path fill="#72b649" d="m 26.649087,17.59099 c 0,0.951903 -1.444407,1.723573 -3.226174,1.723573 -1.781767,0 -3.226175,-0.77167 -3.226175,-1.723573 0,-0.951903 1.444408,-1.723573 3.226175,-1.723573 1.781767,0 3.226174,0.77167 3.226174,1.723573 z" overflow="visible" style="marker:none" transform="matrix(.84973 0 0 .84973 -2.027 1040.314)"/>
    </g>
  </g>
</svg>
