<?xml version="1.0" encoding="UTF-8" standalone="no"?>
<svg
   width="16"
   height="16"
   version="1.1"
   id="svg11"
   xmlns:xlink="http://www.w3.org/1999/xlink"
   xmlns="http://www.w3.org/2000/svg"
   xmlns:svg="http://www.w3.org/2000/svg">
  <defs
     id="defs9">
    <linearGradient
       id="c">
      <stop
         offset="0"
         stop-color="#b4d1e5"
         id="stop1" />
      <stop
         offset=".5"
         stop-color="#5395be"
         id="stop2" />
      <stop
         offset="1"
         stop-color="#91bcd7"
         id="stop3" />
    </linearGradient>
    <linearGradient
       id="a">
      <stop
         offset="0"
         stop-color="#fffccb"
         id="stop4" />
      <stop
         offset=".5"
         stop-color="#ccc776"
         id="stop5" />
      <stop
         offset="1"
         stop-color="#fffcc6"
         id="stop6" />
    </linearGradient>
    <linearGradient
       xlink:href="#a"
       id="d"
       x1="8.738"
       x2="8.738"
       y1="2.155"
       y2="6.872"
       gradientUnits="userSpaceOnUse" />
    <linearGradient
       id="b">
      <stop
         offset="0"
         stop-color="#ffbfbf"
         id="stop7" />
      <stop
         offset=".5"
         stop-color="#d66262"
         id="stop8" />
      <stop
         offset="1"
         stop-color="#ffa8a8"
         id="stop9" />
    </linearGradient>
    <linearGradient
       xlink:href="#b"
       id="e"
       x1="8.738"
       x2="8.738"
       y1="2.155"
       y2="6.872"
       gradientUnits="userSpaceOnUse" />
    <linearGradient
       xlink:href="#c"
       id="f"
       x1="8.738"
       x2="8.738"
       y1="2.155"
       y2="6.872"
       gradientUnits="userSpaceOnUse" />
  </defs>
  <g
     stroke-width=".938"
     id="g11">
    <path
       fill="url(#d)"
       stroke="#a5a036"
       d="m 11.343751,4.499999 c 0,1.553301 -1.259199,2.8125003 -2.8125,2.8125003 -1.553301,0 -2.8125003,-1.2591993 -2.8125003,-2.8125003 0,-1.5533009 1.2591993,-2.8125002 2.8125003,-2.8125002 1.553301,0 2.8125,1.2591993 2.8125,2.8125002 z"
       transform="matrix(1.06611 0 0 1.06611 -.595 -.297)"
       id="path9" />
    <path
       fill="url(#e)"
       stroke="#720000"
       d="m 11.343751,4.499999 c 0,1.553301 -1.259199,2.8125003 -2.8125,2.8125003 -1.553301,0 -2.8125003,-1.2591993 -2.8125003,-2.8125003 0,-1.5533009 1.2591993,-2.8125002 2.8125003,-2.8125002 1.553301,0 2.8125,1.2591993 2.8125,2.8125002 z"
       transform="matrix(1.06611 0 0 1.06611 3.405 6.703)"
       id="path10" />
    <path
       fill="url(#f)"
       stroke="#244a6e"
       d="m 11.343751,4.499999 c 0,1.553301 -1.259199,2.8125003 -2.8125,2.8125003 -1.553301,0 -2.8125003,-1.2591993 -2.8125003,-2.8125003 0,-1.5533009 1.2591993,-2.8125002 2.8125003,-2.8125002 1.553301,0 2.8125,1.2591993 2.8125,2.8125002 z"
       transform="matrix(1.06611 0 0 1.06611 -4.595 6.703)"
       id="path11" />
  </g>
</svg>
