<svg xmlns="http://www.w3.org/2000/svg" xmlns:xlink="http://www.w3.org/1999/xlink" width="16" height="16">
  <defs>
    <linearGradient xlink:href="#a" id="c" x1="7.478" x2="15.523" y1="1043.859" y2="1043.859" gradientUnits="userSpaceOnUse"/>
    <linearGradient id="a">
      <stop offset="0" stop-color="#fff"/>
      <stop offset=".5" stop-color="#fff" stop-opacity=".822"/>
      <stop offset="1" stop-color="#fff" stop-opacity="0"/>
    </linearGradient>
    <linearGradient xlink:href="#b" id="d" x1="7.478" x2="15.523" y1="1043.859" y2="1043.859" gradientUnits="userSpaceOnUse"/>
    <linearGradient id="b">
      <stop offset="0" stop-color="#fff"/>
      <stop offset=".5" stop-color="#fff" stop-opacity=".822"/>
      <stop offset="1" stop-color="#fff" stop-opacity="0"/>
    </linearGradient>
  </defs>
  <g fill="#fff" stroke="#4f504f">
    <path d="m 12.518002,1047.8569 -0.01105,-0.988 1.999787,0 0,-1.9997 1.016465,0 0,-1.965 -1.016465,0 0,-2.0328 -2.010835,0 0.01105,-1.0101 c -1.606355,0 -0.406381,0 -2.012736,0 l 0.01105,1.0101 -2.0108349,0 0,2.0328 -1.016465,0 0,1.965 1.016465,0 0,1.9997 1.9997869,0 -0.01105,0.988 c 1.613721,0 0.421111,0 2.034832,0 z" transform="translate(-6.987 -1033.366)"/>
    <path stroke-linejoin="round" d="m 12.265625,7.34375 c 0,0.5609142 -0.454711,1.015625 -1.015625,1.015625 -0.560914,0 -1.015625,-0.4547108 -1.015625,-1.015625 0,-0.5609142 0.454711,-1.015625 1.015625,-1.015625 0.560914,0 1.015625,0.4547108 1.015625,1.015625 z" transform="translate(-6.706 3.152)"/>
    <path d="m 12.518002,1047.8569 -0.01105,-0.988 1.999787,0 0,-1.9997 1.016465,0 0,-1.965 -1.016465,0 0,-2.0328 -2.010835,0 0.01105,-1.0101 c -1.606355,0 -0.406381,0 -2.012736,0 l 0.01105,1.0101 -2.0108349,0 0,2.0328 -1.016465,0 0,1.965 1.016465,0 0,1.9997 1.9997869,0 -0.01105,0.988 c 1.613721,0 0.421111,0 2.034832,0 z" transform="translate(-.049 -1038.316)"/>
    <path stroke-linejoin="round" d="m 12.265625,7.34375 c 0,0.5609142 -0.454711,1.015625 -1.015625,1.015625 -0.560914,0 -1.015625,-0.4547108 -1.015625,-1.015625 0,-0.5609142 0.454711,-1.015625 1.015625,-1.015625 0.560914,0 1.015625,0.4547108 1.015625,1.015625 z" transform="translate(.232 -1.798)"/>
  </g>
</svg>
