<svg xmlns="http://www.w3.org/2000/svg" xmlns:xlink="http://www.w3.org/1999/xlink" width="16" height="16">
  <defs>
    <linearGradient id="n">
      <stop offset="0" stop-color="#b8bfcf"/>
      <stop offset="1" stop-color="#aeb6ca"/>
    </linearGradient>
    <linearGradient id="i">
      <stop offset="0"/>
      <stop offset="1" stop-opacity="0"/>
    </linearGradient>
    <linearGradient id="a">
      <stop offset="0" stop-color="#abafa2"/>
      <stop offset="1" stop-color="#8f9480"/>
    </linearGradient>
    <linearGradient xlink:href="#a" id="F" x1="4.308" x2="4.308" y1="1037.015" y2="1050.015" gradientTransform="translate(20)" gradientUnits="userSpaceOnUse"/>
    <linearGradient id="b">
      <stop offset="0" stop-color="#fff" stop-opacity="0"/>
      <stop offset="1" stop-color="#fff"/>
    </linearGradient>
    <linearGradient xlink:href="#b" id="t" x1="-13" x2="-15" y1="1047.362" y2="1047.362" gradientTransform="translate(36.308 -1.347)" gradientUnits="userSpaceOnUse"/>
    <linearGradient id="d">
      <stop offset="0" stop-color="#fff" stop-opacity="0"/>
      <stop offset="1" stop-color="#fff"/>
    </linearGradient>
    <linearGradient xlink:href="#c" id="v" x1="-11" x2="-11" y1="1042.362" y2="1044.362" gradientTransform="translate(36.308 1.653)" gradientUnits="userSpaceOnUse"/>
    <linearGradient id="c">
      <stop offset="0" stop-color="#fff"/>
      <stop offset="1" stop-color="#fff" stop-opacity="0"/>
    </linearGradient>
    <linearGradient xlink:href="#d" id="u" x1="-13" x2="-15" y1="1047.362" y2="1047.362" gradientTransform="translate(36.308 2.653)" gradientUnits="userSpaceOnUse"/>
    <linearGradient id="e">
      <stop offset="0" stop-color="#fff"/>
      <stop offset="1" stop-color="#fff" stop-opacity="0"/>
    </linearGradient>
    <linearGradient xlink:href="#e" id="w" x1="-11" x2="-11" y1="1042.362" y2="1044.362" gradientTransform="translate(36.308 -1.347)" gradientUnits="userSpaceOnUse"/>
    <linearGradient id="f">
      <stop offset="0" stop-color="#fff"/>
      <stop offset="1" stop-color="#fff" stop-opacity="0"/>
    </linearGradient>
    <linearGradient xlink:href="#f" id="x" x1="-11" x2="-11" y1="1042.362" y2="1044.362" gradientTransform="translate(36.308 -5.347)" gradientUnits="userSpaceOnUse"/>
    <linearGradient id="g">
      <stop offset="0" stop-color="#fff" stop-opacity="0"/>
      <stop offset="1" stop-color="#fff"/>
    </linearGradient>
    <linearGradient xlink:href="#g" id="y" x1="-13" x2="-15" y1="1047.362" y2="1047.362" gradientTransform="translate(36.308 -5.347)" gradientUnits="userSpaceOnUse"/>
    <linearGradient xlink:href="#h" id="A" x1="-13" x2="-15" y1="1047.362" y2="1047.362" gradientTransform="rotate(180 6.154 1041.189)" gradientUnits="userSpaceOnUse"/>
    <linearGradient id="h">
      <stop offset="0" stop-opacity="0"/>
      <stop offset="1"/>
    </linearGradient>
    <linearGradient xlink:href="#i" id="z" x1="-11" x2="-11" y1="1042.362" y2="1044.362" gradientTransform="rotate(180 6.154 1041.189)" gradientUnits="userSpaceOnUse"/>
    <linearGradient id="k">
      <stop offset="0"/>
      <stop offset="1" stop-opacity="0"/>
    </linearGradient>
    <linearGradient xlink:href="#j" id="C" x1="-13" x2="-15" y1="1047.362" y2="1047.362" gradientTransform="rotate(180 6.154 1043.189)" gradientUnits="userSpaceOnUse"/>
    <linearGradient id="j">
      <stop offset="0" stop-opacity="0"/>
      <stop offset="1"/>
    </linearGradient>
    <linearGradient xlink:href="#k" id="B" x1="-11" x2="-11" y1="1042.362" y2="1044.362" gradientTransform="rotate(180 6.154 1042.689)" gradientUnits="userSpaceOnUse"/>
    <linearGradient id="m">
      <stop offset="0"/>
      <stop offset="1" stop-opacity="0"/>
    </linearGradient>
    <linearGradient xlink:href="#l" id="E" x1="-13" x2="-15" y1="1047.362" y2="1047.362" gradientTransform="rotate(180 6.154 1045.189)" gradientUnits="userSpaceOnUse"/>
    <linearGradient id="l">
      <stop offset="0" stop-opacity="0"/>
      <stop offset="1"/>
    </linearGradient>
    <linearGradient xlink:href="#m" id="D" x1="-11" x2="-11" y1="1042.362" y2="1044.362" gradientTransform="rotate(180 6.154 1046.189)" gradientUnits="userSpaceOnUse"/>
    <linearGradient xlink:href="#n" id="s" x1="4.308" x2="4.308" y1="1044.015" y2="1050.015" gradientTransform="translate(20)" gradientUnits="userSpaceOnUse"/>
    <linearGradient xlink:href="#o" id="J" x1="7.501" x2="7.501" y1="1040.394" y2="1048.31" gradientUnits="userSpaceOnUse"/>
    <linearGradient xlink:href="#p" id="I" x1="8.22" x2="8.22" y1="1043.381" y2="1049.088" gradientUnits="userSpaceOnUse"/>
    <linearGradient id="p">
      <stop offset="0" stop-color="#e83038"/>
      <stop offset="1" stop-color="#af131a"/>
    </linearGradient>
    <linearGradient id="o">
      <stop offset="0" stop-color="#fff"/>
      <stop offset=".5" stop-color="#fff" stop-opacity=".496"/>
      <stop offset="1" stop-color="#fff"/>
    </linearGradient>
    <linearGradient xlink:href="#q" id="K" x1="8.22" x2="8.22" y1="1043.381" y2="1049.088" gradientUnits="userSpaceOnUse"/>
    <linearGradient id="q">
      <stop offset="0" stop-color="#e83038"/>
      <stop offset="1" stop-color="#af131a"/>
    </linearGradient>
    <linearGradient id="r">
      <stop offset="0" stop-color="#fff"/>
      <stop offset=".5" stop-color="#fff" stop-opacity=".496"/>
      <stop offset="1" stop-color="#fff"/>
    </linearGradient>
    <linearGradient xlink:href="#r" id="L" x1="7.501" x2="7.501" y1="1040.394" y2="1048.31" gradientUnits="userSpaceOnUse"/>
    <filter id="H" width="1.481" height="1.479" x="-.241" y="-.239">
      <feGaussianBlur stdDeviation=".997"/>
    </filter>
    <mask id="G" maskUnits="userSpaceOnUse"/>
  </defs>
  <g transform="translate(-14.308 -1036.015)">
    <path fill="url(#s)" d="M21.308 1044.015H27.308V1050.015H21.308z"/>
    <path fill="#aeb6ca" d="M21.308 1041.015H27.308V1044.015H21.308zM21.308 1037.015H27.308V1040.015H21.308z"/>
    <path fill="#a6ab9c" d="M21.308 1040.015H27.308V1041.015H21.308z"/>
    <path fill="#9da291" d="M21.308 1043.015H27.308V1044.015H21.308z"/>
    <path fill="url(#t)" d="m 22.308131,1042.0155 0,0 -1,1 0,-2 z" opacity=".5"/>
    <path fill="url(#u)" d="m 22.308131,1045.0155 0,4 -1,1 0,-6 z" opacity=".5"/>
    <path fill="url(#v)" d="m 22.308131,1045.0155 4,0 1,-1 -6,0 z" opacity=".5"/>
    <path fill="url(#w)" d="m 22.308131,1042.0155 4,0 1,-1 -6,0 z" opacity=".75"/>
    <path fill="url(#x)" d="m 22.308131,1038.0155 4,0 1,-1 -6,0 z" opacity=".85"/>
    <path fill="url(#y)" d="m 22.308131,1038.0155 0,1 -1,1 0,-3 z" opacity=".5"/>
    <path fill="url(#z)" d="m 26.308131,1039.0155 -4,0 -1,1 6,0 z" opacity=".15"/>
    <path fill="url(#A)" d="m 26.308131,1039.0155 0,-1 1,-1 0,3 z" opacity=".15"/>
    <path fill="url(#B)" d="m 26.308131,1042.0155 -4,0 -1,1 6,0 z" opacity=".15"/>
    <path fill="url(#C)" d="m 26.308131,1042.0155 0,0 1,-1 0,2 z" opacity=".15"/>
    <path fill="url(#D)" d="m 26.308131,1049.0155 -4,0 -1,1 6,0 z" opacity=".15"/>
    <path fill="url(#E)" d="m 26.308131,1049.0155 0,-4 1,-1 0,6 z" opacity=".15"/>
    <rect width="7.005" height="14.01" x="20.805" y="1036.503" fill="none" stroke="url(#F)" rx="1.147" ry="1.147"/>
    <g mask="url(#G)">
      <g fill="#fff" stroke="#fff" stroke-width="3.031" filter="url(#H)" transform="matrix(.65982 0 0 .65982 13.616 358.347)">
        <rect width="9.944" height="9.988" x="2.903" y="1039.493" color="#000" enable-background="accumulate" font-family="Sans" font-size="13.589" font-weight="400" letter-spacing="0" overflow="visible" rx="1.149" ry="1.149" style="line-height:125%;marker:none" word-spacing="0"/>
        <rect width="7.689" height="7.653" x="4.017" y="1040.633" stroke-opacity=".692" color="#000" enable-background="accumulate" font-family="Sans" font-size="13.589" font-weight="400" letter-spacing="0" overflow="visible" rx=".309" ry=".309" style="line-height:125%;marker:none" word-spacing="0"/>
      </g>
    </g>
    <g transform="matrix(.65982 0 0 .65982 13.616 358.347)">
      <rect width="9.944" height="9.988" x="2.903" y="1039.493" fill="url(#I)" stroke="#a81d24" stroke-width=".6" color="#000" enable-background="accumulate" font-family="Sans" font-size="13.589" font-weight="400" letter-spacing="0" overflow="visible" rx="1.149" ry="1.149" style="line-height:125%;marker:none" word-spacing="0"/>
      <rect width="7.689" height="7.653" x="4.017" y="1040.633" fill="none" stroke="url(#J)" stroke-opacity=".692" stroke-width=".9" color="#000" enable-background="accumulate" font-family="Sans" font-size="13.589" font-weight="400" letter-spacing="0" overflow="visible" rx=".309" ry=".309" style="line-height:125%;marker:none" word-spacing="0"/>
    </g>
    <g transform="matrix(.16103 0 0 .16103 22.056 870.369)">
      <rect width="9.944" height="9.988" x="2.903" y="1039.493" fill="url(#K)" stroke="#a81d24" stroke-width=".6" color="#000" enable-background="accumulate" font-family="Sans" font-size="13.589" font-weight="400" letter-spacing="0" overflow="visible" rx="1.149" ry="1.149" style="line-height:125%;marker:none" word-spacing="0"/>
      <rect width="7.689" height="7.653" x="4.017" y="1040.633" fill="none" stroke="url(#L)" stroke-opacity=".692" stroke-width=".9" color="#000" enable-background="accumulate" font-family="Sans" font-size="13.589" font-weight="400" letter-spacing="0" overflow="visible" rx=".309" ry=".309" style="line-height:125%;marker:none" word-spacing="0"/>
    </g>
  </g>
</svg>
