<svg xmlns="http://www.w3.org/2000/svg" xmlns:xlink="http://www.w3.org/1999/xlink" width="16" height="16">
  <defs>
    <linearGradient id="a">
      <stop offset="0" stop-color="#105c9c"/>
      <stop offset=".613" stop-color="#568cb9"/>
      <stop offset="1" stop-color="#cedeea"/>
    </linearGradient>
    <linearGradient xlink:href="#a" id="h" x1="6" x2="6" y1="1" y2="3.438" gradientTransform="translate(16.274 1037.028)" gradientUnits="userSpaceOnUse"/>
    <linearGradient id="b">
      <stop offset="0" stop-color="#105c9c"/>
      <stop offset=".613" stop-color="#568cb9"/>
      <stop offset="1" stop-color="#cedeea"/>
    </linearGradient>
    <linearGradient xlink:href="#b" id="f" x1="6" x2="6" y1="1" y2="3.438" gradientTransform="translate(16.274 1041.028)" gradientUnits="userSpaceOnUse"/>
    <linearGradient id="c">
      <stop offset="0" stop-color="#105c9c"/>
      <stop offset=".613" stop-color="#568cb9"/>
      <stop offset="1" stop-color="#cedeea"/>
    </linearGradient>
    <linearGradient xlink:href="#c" id="g" x1="6" x2="6" y1="1" y2="3.438" gradientTransform="translate(16.274 1045.028)" gradientUnits="userSpaceOnUse"/>
    <linearGradient xlink:href="#d" id="k" x1="20.303" x2="20.303" y1="1056.022" y2="1065.103" gradientTransform="translate(-.404)" gradientUnits="userSpaceOnUse"/>
    <linearGradient id="d">
      <stop offset="0" stop-color="#accf8e"/>
      <stop offset=".29" stop-color="#93c586"/>
      <stop offset=".429" stop-color="#58ab71"/>
      <stop offset=".575" stop-color="#4da766"/>
      <stop offset=".708" stop-color="#61af61"/>
      <stop offset="1" stop-color="#78ba5e"/>
    </linearGradient>
    <linearGradient xlink:href="#e" id="l" x1="21.47" x2="21.47" y1="1054.852" y2="1066.104" gradientUnits="userSpaceOnUse"/>
    <linearGradient id="e">
      <stop offset="0" stop-color="#36825e"/>
      <stop offset="1" stop-color="#257550"/>
    </linearGradient>
    <filter id="j" width="1.498" height="1.462" x="-.249" y="-.231">
      <feGaussianBlur stdDeviation=".866"/>
    </filter>
    <mask id="i" maskUnits="userSpaceOnUse">
      <g fill="#fff"/>
    </mask>
  </defs>
  <path fill="url(#f)" d="M17.274 1042.028H29.274V1045.028H17.274z" transform="translate(-14.308 -1036.015)"/>
  <path fill="url(#g)" d="M17.274 1046.028H29.274V1049.028H17.274z" transform="translate(-14.308 -1036.015)"/>
  <path fill="url(#h)" d="M17.274 1038.028H29.274V1041.028H17.274z" transform="translate(-14.308 -1036.015)"/>
  <g fill="#fff" mask="url(#i)" transform="translate(-14.308 -1036.015)">
    <g stroke="#fff" stroke-width="2.692" filter="url(#j)" transform="matrix(.76927 0 0 .7176 9.938 298.09)">
      <path stroke-linejoin="round" stroke-width="3.478" d="m 18.975251,1054.7517 10.78301,5.8156 -10.72051,5.8048 z" transform="matrix(.77394 0 0 .77394 -7.17 223.554)"/>
    </g>
  </g>
  <path fill="url(#k)" stroke="url(#l)" stroke-linejoin="round" stroke-width="1.292" d="m 18.975251,1054.7517 10.78301,5.8156 -10.72051,5.8048 z" transform="matrix(.59537 0 0 .55537 -9.887 -577.505)"/>
</svg>
