<svg xmlns="http://www.w3.org/2000/svg" xmlns:xlink="http://www.w3.org/1999/xlink" width="16" height="16">
  <defs>
    <linearGradient xlink:href="#a" id="x" x1="7.262" x2="7.262" y1="1065.363" y2="1057.565" gradientTransform="translate(10.337)" gradientUnits="userSpaceOnUse"/>
    <linearGradient id="a">
      <stop offset="0" stop-color="#f8e088"/>
      <stop offset=".5" stop-color="#f8d880"/>
      <stop offset="1" stop-color="#f8f0b0"/>
    </linearGradient>
    <linearGradient xlink:href="#b" id="y" x1="5.777" x2="5.777" y1="1066.644" y2="1054.395" gradientTransform="translate(10.337)" gradientUnits="userSpaceOnUse"/>
    <linearGradient id="b">
      <stop offset="0" stop-color="#a07818"/>
      <stop offset="1" stop-color="#b89828"/>
    </linearGradient>
    <linearGradient xlink:href="#c" id="z" x1="5.949" x2="5.977" y1="1055.452" y2="1066.988" gradientTransform="translate(10.337)" gradientUnits="userSpaceOnUse"/>
    <linearGradient id="c">
      <stop offset="0" stop-color="#fff"/>
      <stop offset=".25" stop-color="#fff" stop-opacity=".25"/>
      <stop offset=".775" stop-color="#fff" stop-opacity=".251"/>
      <stop offset="1" stop-color="#fff"/>
    </linearGradient>
    <linearGradient xlink:href="#d" id="B" x1="5.777" x2="5.777" y1="1066.644" y2="1054.395" gradientTransform="translate(10.337)" gradientUnits="userSpaceOnUse"/>
    <linearGradient id="d">
      <stop offset="0" stop-color="#a07818"/>
      <stop offset="1" stop-color="#b89828"/>
    </linearGradient>
    <linearGradient xlink:href="#e" id="s" x1="7.262" x2="7.262" y1="1065.363" y2="1057.565" gradientTransform="translate(18.09)" gradientUnits="userSpaceOnUse"/>
    <linearGradient id="e">
      <stop offset="0" stop-color="#f8e088"/>
      <stop offset=".5" stop-color="#f8d880"/>
      <stop offset="1" stop-color="#f8f0b0"/>
    </linearGradient>
    <linearGradient xlink:href="#f" id="t" x1="5.777" x2="5.777" y1="1066.644" y2="1054.395" gradientTransform="translate(18.09)" gradientUnits="userSpaceOnUse"/>
    <linearGradient id="f">
      <stop offset="0" stop-color="#a07818"/>
      <stop offset="1" stop-color="#b89828"/>
    </linearGradient>
    <linearGradient xlink:href="#g" id="u" x1="5.949" x2="5.977" y1="1055.452" y2="1066.988" gradientTransform="translate(18.09)" gradientUnits="userSpaceOnUse"/>
    <linearGradient id="g">
      <stop offset="0" stop-color="#fff"/>
      <stop offset=".25" stop-color="#fff" stop-opacity=".25"/>
      <stop offset=".775" stop-color="#fff" stop-opacity=".251"/>
      <stop offset="1" stop-color="#fff"/>
    </linearGradient>
    <linearGradient xlink:href="#h" id="w" x1="5.777" x2="5.777" y1="1066.644" y2="1054.395" gradientTransform="matrix(1.033 0 0 .99762 17.79 2.521)" gradientUnits="userSpaceOnUse"/>
    <linearGradient id="h">
      <stop offset="0" stop-color="#a07818"/>
      <stop offset="1" stop-color="#b89828"/>
    </linearGradient>
    <linearGradient xlink:href="#i" id="p" x1="7.478" x2="15.523" y1="1043.859" y2="1043.859" gradientUnits="userSpaceOnUse"/>
    <linearGradient id="i">
      <stop offset="0" stop-color="#fff"/>
      <stop offset=".5" stop-color="#fff" stop-opacity=".822"/>
      <stop offset="1" stop-color="#fff" stop-opacity="0"/>
    </linearGradient>
    <linearGradient xlink:href="#j" id="q" x1="8.828" x2="8.828" y1="1041.733" y2="1046.971" gradientTransform="rotate(180 10.097 1043.887)" gradientUnits="userSpaceOnUse"/>
    <linearGradient id="j">
      <stop offset="0" stop-color="#df9f3f"/>
      <stop offset=".385" stop-color="#ffbf3f"/>
      <stop offset="1" stop-color="#f5f5b5"/>
    </linearGradient>
    <linearGradient id="k">
      <stop offset="0" stop-color="#fff"/>
      <stop offset=".847" stop-color="#fff" stop-opacity=".822"/>
      <stop offset="1" stop-color="#fff" stop-opacity="0"/>
    </linearGradient>
    <filter id="A" width="1.46" height="1.162" x="-.23" y="-.081" color-interpolation-filters="sRGB">
      <feGaussianBlur stdDeviation=".322"/>
    </filter>
    <filter id="v" width="1.46" height="1.162" x="-.23" y="-.081" color-interpolation-filters="sRGB">
      <feGaussianBlur stdDeviation=".322"/>
    </filter>
    <filter id="m" width="1.348" height="1.373" x="-.174" y="-.187" color-interpolation-filters="sRGB">
      <feGaussianBlur stdDeviation="1.039"/>
    </filter>
    <filter id="n" width="1.46" height="1.162" x="-.23" y="-.081" color-interpolation-filters="sRGB">
      <feGaussianBlur stdDeviation=".322"/>
    </filter>
    <filter id="o" width="1.46" height="1.162" x="-.23" y="-.081" color-interpolation-filters="sRGB">
      <feGaussianBlur stdDeviation=".322"/>
    </filter>
    <radialGradient xlink:href="#k" id="r" cx="4.66" cy="1048.958" r="4.311" fx="4.66" fy="1048.958" gradientTransform="matrix(1.11402 -1.10157 .72882 .823 -764.273 191.126)" gradientUnits="userSpaceOnUse"/>
    <mask id="l" maskUnits="userSpaceOnUse">
      <g fill="#fff">
        <path stroke="#fff" d="m 5.9224466,1051.1816 c 0,0 1.557292,-2.5625 4.4999994,-2.5625 2.942708,0 4.5,2.5625 4.5,2.5625" transform="translate(-2.887 -10.814)"/>
        <path d="m 4.9224466,1052.1816 3.453125,0 -3.453125,-3.4531 z" transform="translate(-2.887 -10.814)"/>
        <path stroke="#fff" d="m 15.922446,1059.1817 c 0,0 -1.557292,2.5625 -4.499999,2.5625" transform="translate(-2.887 -10.814)"/>
        <path d="m 16.922446,1058.1817 -3.453125,0 3.453125,3.4531 z" transform="translate(-2.887 -10.814)"/>
      </g>
    </mask>
  </defs>
  <g mask="url(#l)" transform="translate(0 -1036.362)">
    <g fill="#fff" stroke="#fff" stroke-width="2" filter="url(#m)">
      <path d="m 11.5,1037.6904 c -0.18722,10e-5 -0.383743,0.04 -0.65625,0.094 l 0,0.875 c -0.213492,0.042 -0.422114,0.072 -0.625,0.1562 -0.194391,0.083 -0.388449,0.2275 -0.5625,0.3438 l -0.625,-0.6252 c -0.462167,0.3084 -0.597312,0.4445 -0.90625,0.9062 l 0.625,0.625 c -0.121067,0.1808 -0.2597,0.3909 -0.34375,0.5938 -0.08385,0.2029 -0.113627,0.4115 -0.15625,0.625 l -0.90625,0 c -0.108682,0.5449 -0.108112,0.7362 0,1.2812 l 0.90625,0 c 0.08465,0.427 0.258374,0.8566 0.5,1.2188 l -0.625,0.5937 c 0.308933,0.4619 0.444082,0.5977 0.90625,0.9063 l 0.625,-0.5938 c 0.361804,0.2421 0.760581,0.4148 1.1875,0.5 l 0,0.875 c 0.545014,0.1081 0.76758,0.1087 1.3125,0 l 0,-0.875 c 0.426989,-0.085 0.8255,-0.2582 1.1875,-0.5 l 0.625,0.5938 c 0.46183,-0.309 0.597782,-0.4441 0.90625,-0.9063 l -0.625,-0.5937 c 0.242113,-0.3618 0.414842,-0.792 0.5,-1.2188 l 0.90625,0 c 0.108112,-0.545 0.108682,-0.7363 0,-1.2812 l -0.90625,0 c -0.08469,-0.4271 -0.258169,-0.8568 -0.5,-1.2188 l 0.625,-0.625 c -0.154067,-0.2313 -0.242615,-0.3988 -0.375,-0.5312 -0.13245,-0.1323 -0.299966,-0.2209 -0.53125,-0.375 l -0.625,0.625 c -0.361809,-0.2421 -0.760526,-0.415 -1.1875,-0.5 l 0,-0.875 c -0.27246,-0.054 -0.46903,-0.094 -0.65625,-0.094 z m 0,3.3125 c 0.500508,0 0.90625,0.4057 0.90625,0.9063 0,0.5005 -0.405742,0.9062 -0.90625,0.9062 -0.500508,0 -0.90625,-0.4057 -0.90625,-0.9062 0,-0.5006 0.405742,-0.9063 0.90625,-0.9063 z"/>
      <g stroke-linecap="round" stroke-linejoin="round" stroke-width="3.83">
        <path d="M21.515 1054.738H26.74V1067.643H21.515z" transform="matrix(.55275 0 0 .49344 -6.21 524.217)"/>
        <path d="M22.45 1055.808H25.805V1066.718H22.45z" filter="url(#n)" transform="matrix(.55275 0 0 .49344 -6.21 524.217)"/>
        <path d="M21.515 1054.738H26.74V1067.672H21.515zM13.762 1054.738H18.987V1067.643H13.762z" transform="matrix(.55275 0 0 .49344 -6.21 524.217)"/>
        <path d="M14.697 1055.808H18.052V1066.718H14.697z" filter="url(#o)" transform="matrix(.55275 0 0 .49344 -6.21 524.217)"/>
        <path d="M13.762 1054.738H18.987V1067.672H13.762z" transform="matrix(.55275 0 0 .49344 -6.21 524.217)"/>
      </g>
    </g>
  </g>
  <g fill="url(#p)" stroke="#543830" transform="matrix(1.00022 0 0 .9963 -.985 -1033.574)">
    <path fill="url(#q)" d="m 12.518002,1047.8569 -0.01105,-0.988 1.999787,0 0,-1.9997 1.016465,0 0,-1.965 -1.016465,0 0,-2.0328 -2.010835,0 0.01105,-1.0101 c -1.606355,0 -0.406381,0 -2.012736,0 l 0.01105,1.0101 -2.0108349,0 0,2.0328 -1.016465,0 0,1.965 1.016465,0 0,1.9997 1.9997869,0 -0.01105,0.988 c 1.613721,0 0.421111,0 2.034832,0 z"/>
    <path fill="#fff" stroke-linejoin="round" d="m 12.265625,7.34375 c 0,0.5609142 -0.454711,1.015625 -1.015625,1.015625 -0.560914,0 -1.015625,-0.4547108 -1.015625,-1.015625 0,-0.5609142 0.454711,-1.015625 1.015625,-1.015625 0.560914,0 1.015625,0.4547108 1.015625,1.015625 z" transform="translate(.281 1036.518)"/>
  </g>
  <path fill="url(#r)" d="m 12.513564,1047.3002 -0.01214,-1.2009 2.198272,0 0,-2.4308 1.117352,0 0,-2.3886 -1.117352,0 0,-2.471 -2.210416,0 0.01214,-1.2278 c -1.76579,0 -0.582695,0 -2.348487,0 l 0.01214,1.0362 -2.0744349,0 0,2.2077 -1.1173521,0 0,3.2506 1.1173521,0 0,2.1674 2.0396279,0 -0.01214,1.0572 c 1.773888,0 0.621551,0 2.39544,0 z" transform="translate(0 -1036.362)"/>
  <g stroke-linecap="round" stroke-linejoin="round">
    <path fill="url(#s)" stroke="url(#t)" stroke-width="1.292" d="M21.515 1054.738H26.74V1067.643H21.515z" transform="matrix(.55275 0 0 .46538 -6.254 -482.353)"/>
    <path fill="none" stroke="url(#u)" stroke-width=".935" d="M22.45 1055.808H25.805V1066.718H22.45z" filter="url(#v)" transform="matrix(.55275 0 0 .46538 -6.254 -482.353)"/>
    <path fill="none" stroke="url(#w)" stroke-width="1.944" d="M21.329 1054.754H26.726V1067.657H21.329z" transform="matrix(.55275 0 0 .46538 -6.254 -482.353)"/>
  </g>
  <g stroke-linecap="round" stroke-linejoin="round">
    <path fill="url(#x)" stroke="url(#y)" stroke-width="1.292" d="M13.762 1054.738H18.987V1067.643H13.762z" transform="matrix(.56846 0 0 .46985 -6.3 -487.07)"/>
    <path fill="none" stroke="url(#z)" stroke-width=".935" d="M14.697 1055.808H18.052V1066.718H14.697z" filter="url(#A)" transform="matrix(.56846 0 0 .46985 -6.3 -487.07)"/>
    <path fill="none" stroke="url(#B)" stroke-width="1.915" d="M13.762 1054.738H18.987V1067.672H13.762z" transform="matrix(.56846 0 0 .46985 -6.3 -487.07)"/>
  </g>
</svg>
