<svg xmlns="http://www.w3.org/2000/svg" xmlns:xlink="http://www.w3.org/1999/xlink" width="16" height="16">
  <defs>
    <linearGradient id="a">
      <stop offset="0" stop-color="#c6852e"/>
      <stop offset="1" stop-color="#e1a555"/>
    </linearGradient>
    <linearGradient id="b">
      <stop offset="0" stop-color="#ffe69e"/>
      <stop offset=".38" stop-color="#ffc85a"/>
      <stop offset="1" stop-color="#fffcd3"/>
    </linearGradient>
    <linearGradient xlink:href="#a" id="d" x1="6.389" x2="6.389" y1="7.237" y2=".393" gradientTransform="matrix(1.06989 0 0 1.06989 15.59 1043.527)" gradientUnits="userSpaceOnUse"/>
    <radialGradient xlink:href="#b" id="c" cx="19.365" cy="1051.11" r="3.773" fx="19.365" fy="1051.11" gradientTransform="matrix(2.82496 0 0 1.79306 -35.371 -833.43)" gradientUnits="userSpaceOnUse"/>
  </defs>
  <path fill="url(#c)" stroke="url(#d)" stroke-width=".755" d="m 18.599249,1044.4966 -2.362015,4.3798 c -0.648383,1.0968 -0.206291,2.7732 1.003019,2.7928 l 1.5596,0 1.069887,0 1.5596,0 c 1.209311,-0.019 1.651402,-1.6961 1.003019,-2.7928 l -2.362015,-4.3798 c -0.314859,-0.5957 -1.196998,-0.4999 -1.471095,0 z" transform="translate(-17.601 -1379.985) scale(1.3241)"/>
  <path fill="#7b5113" d="m 4.109375,5.484375 c 0,0.345178 -0.279822,0.625 -0.625,0.625 -0.345178,0 -0.625,-0.279822 -0.625,-0.625 0,-0.345178 0.279822,-0.625 0.625,-0.625 0.345178,0 0.625,0.279822 0.625,0.625 z" transform="matrix(1.49084 0 0 1.49084 2.805 1.829)"/>
  <path fill="#7b5113" d="m 19.350026,1045.7152 c -0.378471,0 -0.700512,0.3368 -0.700512,0.774 l 0.09137,1.4889 c 0,0.3887 0.272722,0.7037 0.609141,0.7037 0.336419,0 0.609139,-0.315 0.609139,-0.7037 l 0.06091,-1.4889 c 0,-0.4372 -0.291583,-0.774 -0.670056,-0.774 z" transform="translate(-17.601 -1379.985) scale(1.3241)"/>
</svg>
