<svg xmlns="http://www.w3.org/2000/svg" xmlns:xlink="http://www.w3.org/1999/xlink" width="16" height="16">
  <defs>
    <linearGradient xlink:href="#a" id="b" x1="4" x2="4" y1="1060.362" y2="1054.362" gradientTransform="matrix(.99831 0 0 1.01074 -.015 -28.33)" gradientUnits="userSpaceOnUse"/>
    <linearGradient id="a">
      <stop offset="0" stop-color="#446691"/>
      <stop offset="1" stop-color="#5174a6"/>
    </linearGradient>
  </defs>
  <path fill="#7e5320" d="m 6.1934524,1045.4788 c -0.1165775,-0.1555 -0.3042716,-0.1555 -0.4208455,0 l -0.7750882,1.0333 -0.7750839,-1.0333 c -0.1165608,-0.1555 -0.3042727,-0.1555 -0.4208439,0 l -0.214155,0.2854 c -0.1165675,0.1554 -0.1165645,0.4056 8.3e-6,0.5611 l 0.7750708,1.0333 -0.7750715,1.0334 c -0.1165856,0.1552 -0.1165826,0.4056 -3e-6,0.561 l 0.2141661,0.2853 c 0.1165653,0.1557 0.3042599,0.1557 0.4208446,0 l 0.7750847,-1.033 0.7804695,1.0404 c 0.1165664,0.1553 0.3042605,0.1553 0.4208456,0 l 0.2141541,-0.2855 c 0.1165731,-0.1555 0.1154023,-0.4042 -9.8e-6,-0.5612 l -0.7804696,-1.0404 0.7750846,-1.0331 c 0.1165769,-0.1557 0.1165753,-0.4059 7.5e-6,-0.5613 z" transform="translate(0 -1036.362)"/>
  <path fill="#d8424f" stroke="#c91625" d="M9.5 1036.862H15.5V1043.862H9.5z" transform="translate(0 -1036.362)"/>
  <path fill="#fff" d="m 10.25,1038.1434 0,0.125 0,0.5 0,0.125 0.125,0 0.375,0 1.1875,1.4063 -1.21875,1.5312 -0.34375,0 -0.125,0 0,0.125 0,0.5 0,0.125 0.125,0 1.5,0 0.125,0 0,-0.125 0,-0.5 0,-0.125 -0.125,0 0.625,-0.8437 0.625,0.8437 -0.125,0 0,0.125 0,0.5 0,0.125 0.125,0 1.5,0 0.125,0 0,-0.125 0,-0.5 0,-0.125 -0.125,0 -0.3125,0 -1.25,-1.5625 1.15625,-1.375 0.40625,0 0.125,0 0,-0.125 0,-0.5 0,-0.125 -0.125,0 -1.5,0 -0.125,0 0,0.125 0,0.5 0,0.125 0.0625,0 -0.5625,0.7188 -0.5625,-0.7188 0.0625,0 0,-0.125 0,-0.5 0,-0.125 -0.125,0 -1.5,0 -0.125,0 z" color="#000" font-family="Sans" font-size="7.69" font-weight="400" letter-spacing="0" overflow="visible" style="line-height:125%;text-indent:0;text-align:start;text-decoration-line:none;text-transform:none;block-progression:tb;marker:none" transform="translate(0 -1036.362)" word-spacing="0"/>
  <path fill="url(#b)" stroke="#04306e" d="m 1.5,1043.8622 6.0000005,0 0,7 -6.0000005,0 z" transform="translate(0 -1036.362)"/>
  <path fill="#fff" d="m 2.2500002,8.78125 0,0.125 0,0.5 0,0.125 0.125,0 0.375,0 1.1875,1.4063 -1.21875,1.5312 -0.34375,0 -0.125,0 0,0.125 0,0.5 0,0.125 0.125,0 1.5,0 0.125,0 0,-0.125 0,-0.5 0,-0.125 -0.125,0 0.625,-0.8437 0.625,0.8437 -0.125,0 0,0.125 0,0.5 0,0.125 0.125,0 1.5,0 0.125,0 0,-0.125 0,-0.5 0,-0.125 -0.125,0 -0.3125,0 -1.25,-1.5625 1.15625,-1.375 0.40625,0 0.125,0 0,-0.125 0,-0.5 0,-0.125 -0.125,0 -1.5,0 -0.125,0 0,0.125 0,0.5 0,0.125 0.0625,0 -0.5625,0.7188 -0.5625,-0.7188 0.0625,0 0,-0.125 0,-0.5 0,-0.125 -0.125,0 -1.5,0 -0.125,0 z" color="#000" font-family="Sans" font-size="7.69" font-weight="400" letter-spacing="0" overflow="visible" style="line-height:125%;text-indent:0;text-align:start;text-decoration-line:none;text-transform:none;block-progression:tb;marker:none" word-spacing="0"/>
</svg>
