<svg xmlns="http://www.w3.org/2000/svg" xmlns:xlink="http://www.w3.org/1999/xlink" width="16" height="16">
  <defs>
    <linearGradient xlink:href="#a" id="d" x1="5.994" x2="15.923" y1="1038.405" y2="1052.364" gradientTransform="matrix(1.0071 0 0 1.003 -1.036 -5.152)" gradientUnits="userSpaceOnUse"/>
    <linearGradient id="a">
      <stop offset="0" stop-color="#b4903d"/>
      <stop offset="1" stop-color="#7b744f"/>
    </linearGradient>
    <linearGradient xlink:href="#b" id="c" x1="9.895" x2="9.895" y1="1039.153" y2="1051.838" gradientTransform="matrix(1.0071 0 0 1.003 -1.036 -5.152)" gradientUnits="userSpaceOnUse"/>
    <linearGradient id="b">
      <stop offset="0" stop-color="#f9fafc"/>
      <stop offset="1" stop-color="#dce7f7"/>
    </linearGradient>
  </defs>
  <path fill="url(#c)" d="m 4.5000041,1036.8623 7.0594269,0 3.492927,0.1007 0,12.8993 -10.5523539,0 z" transform="translate(0 -1036.362)"/>
  <path fill="none" stroke="url(#d)" d="m 4.5000041,1036.8622 10.9999959,0 c 0,0 0,8.6667 0,13 l -10.9999969,0 z" transform="translate(0 -1036.362)"/>
  <path fill="none" stroke="#49a068" d="m6.526 1041.88 5.508 0M6.463 1044.873l5.571 0M13.012 1041.88l1.012 0M12.988 1044.862l1.012 0M12.988 1047.862l1.012 0" transform="translate(0 -1036.362)"/>
  <path fill="none" stroke="#49a068" stroke-opacity=".215" d="m7.5 1038.362 0 2.504 4.518 0M7.015 1043.862l4.985 0M7.015 1046.862l4.985 0M12.976 1046.862l1.024 0M12.976 1043.862l1.024 0M12.995 1040.881l1.024 0" transform="translate(0 -1036.362)"/>
  <path fill="none" stroke="#49a068" d="m 6.4982419,1038.3623 0,9.4848 5.5000001,0" transform="translate(0 -1036.362)"/>
  <path fill="#d8424f" stroke="#c91625" d="M1.5-1050.862H7.498V-1043.86H1.5z" transform="matrix(1 0 0 -1 0 -1036.362)"/>
  <path fill="#fff" d="m 2.2263573,1049.8355 0,-0.1402 0,-0.5607 0,-0.1402 0.1215217,0 0.3645649,0 1.1544552,-1.5773 -1.1848357,-1.7173 -0.3341844,0 -0.1215217,0 0,-0.1402 0,-0.5608 0,-0.1402 0.1215217,0 1.4582597,0 0.1215217,0 0,0.1402 0,0.5608 0,0.1402 -0.1215217,0 0.6076078,0.9462 0.6076087,-0.9462 -0.1215217,0 0,-0.1402 0,-0.5608 0,-0.1402 0.1215217,0 1.4582591,0 0.1215217,0 0,0.1402 0,0.5608 0,0.1402 -0.1215217,0 -0.3038039,0 -1.2152165,1.7524 1.124075,1.5422 0.3949454,0 0.1215217,0 0,0.1402 0,0.5607 0,0.1402 -0.1215217,0 -1.4582591,0 -0.1215217,0 0,-0.1402 0,-0.5607 0,-0.1402 0.060757,0 -0.5468474,-0.8062 -0.5468474,0.8062 0.060757,0 0,0.1402 0,0.5607 0,0.1402 -0.1215217,0 -1.4582596,0 -0.1215216,0 z" color="#000" font-family="Sans" font-size="7.69" font-weight="400" letter-spacing="0" overflow="visible" style="line-height:125%;text-indent:0;text-align:start;text-decoration-line:none;text-transform:none;block-progression:tb;marker:none" transform="translate(0 -1036.362)" word-spacing="0"/>
</svg>
