<svg xmlns="http://www.w3.org/2000/svg" xmlns:xlink="http://www.w3.org/1999/xlink" width="16" height="16">
  <defs>
    <linearGradient xlink:href="#a" id="f" x1="3.771" x2="3.93" y1="1061.401" y2="1067.087" gradientTransform="matrix(.99831 0 0 1.01074 -.015 -28.33)" gradientUnits="userSpaceOnUse"/>
    <linearGradient id="a">
      <stop offset="0" stop-color="#88c9a7"/>
      <stop offset="1" stop-color="#4da879"/>
    </linearGradient>
    <linearGradient xlink:href="#b" id="d" x1="9.895" x2="9.895" y1="1039.153" y2="1051.838" gradientTransform="matrix(1.0071 0 0 1.003 -1.036 -5.152)" gradientUnits="userSpaceOnUse"/>
    <linearGradient id="b">
      <stop offset="0" stop-color="#f9fafc"/>
      <stop offset="1" stop-color="#dce7f7"/>
    </linearGradient>
    <linearGradient xlink:href="#c" id="e" x1="5.994" x2="15.923" y1="1038.405" y2="1052.364" gradientTransform="matrix(1.0071 0 0 1.003 -1.036 -5.152)" gradientUnits="userSpaceOnUse"/>
    <linearGradient id="c">
      <stop offset="0" stop-color="#b4903d"/>
      <stop offset="1" stop-color="#7b744f"/>
    </linearGradient>
  </defs>
  <path fill="url(#d)" d="m 4.5000001,1036.8622 7.0594269,0 3.492927,0.1007 0,12.8993 -10.5523539,0 z" transform="translate(0 -1036.362)"/>
  <path fill="none" stroke="url(#e)" d="m 4.5000001,1036.8621 10.9611759,0 0.03882,3.0156 0,9.9844 -10.9999969,0 z" transform="translate(0 -1036.362)"/>
  <path fill="none" stroke="#49a068" d="m6.526 1041.88 5.508 0M6.463 1044.873l5.571 0M13.012 1041.88l1.012 0M12.988 1044.862l1.012 0M12.988 1047.862l1.012 0" transform="translate(0 -1036.362)"/>
  <path fill="none" stroke="#49a068" stroke-opacity=".215" d="m7.5 1038.362 0 2.504 4.518 0M7.015 1043.862l4.985 0M7.015 1046.862l4.985 0M12.976 1046.862l1.024 0M12.976 1043.862l1.024 0M12.995 1040.881l1.024 0" transform="translate(0 -1036.362)"/>
  <path fill="none" stroke="#49a068" d="m 6.4982379,1038.3622 0,9.4848 5.5000001,0" transform="translate(0 -1036.362)"/>
  <path fill="url(#f)" stroke="#029e4b" d="m 1.5,1043.8622 6.0000005,0 0,7 -6.0000005,0 z" transform="translate(0 -1036.362)"/>
  <path fill="none" stroke="#fff" stroke-linecap="round" d="m 2.5,1047.8622 c 0.4373109,0.8044 1.3830614,2.4201 1.8088661,1.78 C 4.8624283,1048.81 6.5,1044.8622 6.5,1044.8622" transform="translate(0 -1036.362)"/>
</svg>
