<?xml version="1.0" encoding="UTF-8" standalone="no"?>
<svg
   width="16"
   height="16"
   version="1.1"
   id="svg6"
   xmlns:xlink="http://www.w3.org/1999/xlink"
   xmlns="http://www.w3.org/2000/svg"
   xmlns:svg="http://www.w3.org/2000/svg">
  <defs
     id="defs4">
    <linearGradient
       id="b">
      <stop
         offset="0"
         stop-color="#ffe"
         id="stop1" />
      <stop
         offset="1"
         stop-color="#ffecad"
         id="stop2" />
    </linearGradient>
    <linearGradient
       id="a">
      <stop
         offset="0"
         stop-color="#ba7f0d"
         id="stop3" />
      <stop
         offset="1"
         stop-color="#a2660b"
         id="stop4" />
    </linearGradient>
    <linearGradient
       xlink:href="#a"
       id="d"
       x1="11.063"
       x2="11.063"
       y1="1038.55"
       y2="1049.912"
       gradientTransform="matrix(-1 0 0 1 17 0)"
       gradientUnits="userSpaceOnUse" />
    <linearGradient
       xlink:href="#b"
       id="c"
       x1="4.5"
       x2="4.5"
       y1="1042.047"
       y2="1046.49"
       gradientTransform="matrix(-1 0 0 1 17 0)"
       gradientUnits="userSpaceOnUse" />
    <filter
       id="e"
       width="1.1441184"
       height="1.1434889"
       x="-0.072059224"
       y="-0.071744469"
       color-interpolation-filters="sRGB">
      <feGaussianBlur
         stdDeviation=".219"
         id="feGaussianBlur4" />
    </filter>
  </defs>
  <g
     transform="translate(0 -1036.362)"
     id="g6">
    <path
       fill="url(#c)"
       stroke="url(#d)"
       stroke-linecap="round"
       stroke-linejoin="round"
       d="m 8.5,1038.8622 0,3 5.78125,0 c 0.667867,0 1.21875,0.5509 1.21875,1.2188 l 0,2.5625 c 0,0.6678 -0.550883,1.2187 -1.21875,1.2187 l -5.78125,0 0,3 -1,0 -5.5,-5.5 5.5,-5.5 1,0 z"
       id="path4" />
    <ellipse
       cx="13.727"
       cy="1039.116"
       fill="#e9deb7"
       filter="url(#e)"
       opacity=".904"
       rx="3.647"
       ry="3.663"
       transform="matrix(.82766 0 0 .8242 -8.862 184.921)"
       id="ellipse4" />
    <g
       fill="none"
       stroke="#355883"
       stroke-width="1.394"
       id="g5">
      <path
         d="m37.151 1035.026 0 8.247M34.161 1036.938l6.068 4.584M39.982 1036.834l-5.979 4.7"
         transform="matrix(.70782 0 0 .7275 -23.768 285.377)"
         id="path5" />
    </g>
  </g>
</svg>
