<svg xmlns="http://www.w3.org/2000/svg" width="499" height="388" viewBox="0 0 132.027 102.658">
  <defs>
    <marker id="a" orient="auto" overflow="visible" refX="0" refY="0">
      <path fill="#919191" fill-rule="evenodd" stroke="#919191" stroke-linejoin="round" stroke-width=".625" d="M 8.7185878,4.0337352 -2.2072895,0.01601326 8.7185884,-4.0017078 c -1.7454984,2.3720609 -1.7354408,5.6174519 -6e-7,8.035443 z" transform="scale(-.6)"/>
    </marker>
    <marker id="b" orient="auto" overflow="visible" refX="0" refY="0">
      <path fill="#919191" fill-rule="evenodd" stroke="#919191" stroke-linejoin="round" stroke-width=".625" d="M 8.7185878,4.0337352 -2.2072895,0.01601326 8.7185884,-4.0017078 c -1.7454984,2.3720609 -1.7354408,5.6174519 -6e-7,8.035443 z" transform="scale(-.6)"/>
    </marker>
    <marker id="d" orient="auto" overflow="visible" refX="0" refY="0">
      <path fill="#919191" fill-rule="evenodd" stroke="#919191" stroke-linejoin="round" stroke-width=".625" d="M 8.7185878,4.0337352 -2.2072895,0.01601326 8.7185884,-4.0017078 c -1.7454984,2.3720609 -1.7354408,5.6174519 -6e-7,8.035443 z" transform="scale(-.6)"/>
    </marker>
    <marker id="c" orient="auto" overflow="visible" refX="0" refY="0">
      <path fill="#919191" fill-rule="evenodd" stroke="#919191" stroke-linejoin="round" stroke-width=".625" d="M 8.7185878,4.0337352 -2.2072895,0.01601326 8.7185884,-4.0017078 c -1.7454984,2.3720609 -1.7354408,5.6174519 -6e-7,8.035443 z" transform="scale(-.6)"/>
    </marker>
  </defs>
  <path fill="#e6e6e6" stroke="#919191" stroke-linejoin="round" stroke-width=".529" d="M64.823 214.979H122.767V243.819H64.823z" transform="translate(0 -194.342)"/>
  <path fill="#e6e6e6" stroke="#919191" stroke-linejoin="round" stroke-width=".529" d="M68.792 227.15H118.798V240.115H68.792z" transform="translate(0 -194.342)"/>
  <text xml:space="preserve" x="93.467" y="221.896" stroke-width=".265" font-family="sans-serif" font-size="3.175" font-weight="400" letter-spacing="0" style="line-height:1.25" transform="translate(0 -194.342)" word-spacing="0"><tspan x="93.467" y="221.896" font-size="3.881" style="text-align:center" text-anchor="middle">Password Provider 1</tspan></text>
  <text xml:space="preserve" x="93.764" y="235.077" stroke-width=".265" font-family="sans-serif" font-size="3.175" font-weight="400" letter-spacing="0" style="line-height:1.25" transform="translate(0 -194.342)" word-spacing="0"><tspan x="93.764" y="235.077" font-size="3.881" style="text-align:center" text-anchor="middle">&quot;Master&quot; Password 1</tspan></text>
  <path fill="#e6e6e6" stroke="#919191" stroke-linejoin="round" stroke-width=".529" d="M7.938 204.66H52.653V288.798H7.938z" transform="translate(0 -194.342)"/>
  <path fill="#e6e6e6" stroke="#919191" stroke-linejoin="round" stroke-width=".529" d="M13.229 212.333H47.36V225.298H13.229zM13.229 231.119H47.36V244.084H13.229zM13.229 252.021H47.36V264.986H13.229zM13.229 270.542H47.36V283.507H13.229zM64.823 253.344H122.767V282.184H64.823z" transform="translate(0 -194.342)"/>
  <text xml:space="preserve" x="10.329" y="201.977" stroke-width=".265" font-family="sans-serif" font-size="3.175" font-weight="400" letter-spacing="0" style="line-height:1.25" transform="translate(0 -194.342)" word-spacing="0"><tspan x="10.329" y="201.977" font-size="3.881"><tspan fill="#919191">Secure Storage</tspan></tspan></text>
  <text xml:space="preserve" x="30.297" y="217.415" stroke-width=".265" font-family="sans-serif" font-size="3.175" font-weight="400" letter-spacing="0" style="line-height:1.25" transform="translate(0 -194.342)" word-spacing="0"><tspan x="30.297" y="217.415" font-size="3.881" style="text-align:center" text-anchor="middle">Entry 1</tspan><tspan x="30.297" y="222.266" font-size="3.881" style="text-align:center" text-anchor="middle">(&quot;Excalibur&quot;)</tspan></text>
  <text xml:space="preserve" x="30.297" y="236.225" stroke-width=".265" font-family="sans-serif" font-size="3.175" font-weight="400" letter-spacing="0" style="line-height:1.25" transform="translate(0 -194.342)" word-spacing="0"><tspan x="30.297" y="236.225" font-size="3.881" style="text-align:center" text-anchor="middle">Entry 2</tspan><tspan x="30.297" y="241.076" font-size="3.881" style="text-align:center" text-anchor="middle">(&quot;password1&quot;)</tspan></text>
  <text xml:space="preserve" x="30.297" y="275.619" stroke-width=".265" font-family="sans-serif" font-size="3.175" font-weight="400" letter-spacing="0" style="line-height:1.25" transform="translate(0 -194.342)" word-spacing="0"><tspan x="30.297" y="275.619" font-size="3.881" style="text-align:center" text-anchor="middle">Entry 4</tspan><tspan x="30.297" y="280.47" font-size="3.881" style="text-align:center" text-anchor="middle">(&quot;12345678&quot;)</tspan></text>
  <text xml:space="preserve" x="30.297" y="257.128" stroke-width=".265" font-family="sans-serif" font-size="3.175" font-weight="400" letter-spacing="0" style="line-height:1.25" transform="translate(0 -194.342)" word-spacing="0"><tspan x="30.297" y="257.128" font-size="3.881" style="text-align:center" text-anchor="middle">Entry 3</tspan><tspan x="30.297" y="261.978" font-size="3.881" style="text-align:center" text-anchor="middle">(&quot;John&quot;)</tspan></text>
  <path fill="#e6e6e6" stroke="#919191" stroke-linejoin="round" stroke-width=".529" d="M68.792 265.514H118.798V278.479H68.792z" transform="translate(0 -194.342)"/>
  <text xml:space="preserve" x="93.467" y="260.261" stroke-width=".265" font-family="sans-serif" font-size="3.175" font-weight="400" letter-spacing="0" style="line-height:1.25" transform="translate(0 -194.342)" word-spacing="0"><tspan x="93.467" y="260.261" font-size="3.881" style="text-align:center" text-anchor="middle">Password Provider 2</tspan></text>
  <text xml:space="preserve" x="93.764" y="273.442" stroke-width=".265" font-family="sans-serif" font-size="3.175" font-weight="400" letter-spacing="0" style="line-height:1.25" transform="translate(0 -194.342)" word-spacing="0"><tspan x="93.764" y="273.442" font-size="3.881" style="text-align:center" text-anchor="middle">&quot;Master&quot; Password 2</tspan></text>
  <path fill="none" stroke="#919191" stroke-width=".265" marker-end="url(#a)" d="M 47.625,218.9479 63.5,228.20832" transform="translate(0 -194.342)"/>
  <path fill="none" stroke="#919191" stroke-width=".265" marker-end="url(#b)" d="M 47.625,237.46873 63.5,229.53123" transform="translate(0 -194.342)"/>
  <path fill="none" stroke="#919191" stroke-width=".265" marker-end="url(#c)" d="M 47.625,258.6354 63.5,267.89582" transform="translate(0 -194.342)"/>
  <path fill="none" stroke="#919191" stroke-width=".265" marker-end="url(#d)" d="M 47.625,277.15623 63.5,269.21873" transform="translate(0 -194.342)"/>
</svg>
