<svg xmlns="http://www.w3.org/2000/svg" xmlns:xlink="http://www.w3.org/1999/xlink" width="16" height="16">
  <defs>
    <linearGradient xlink:href="#a" id="e" x1="5.994" x2="15.923" y1="1038.405" y2="1052.364" gradientTransform="matrix(1.0071 0 0 1.003 -1.036 -5.152)" gradientUnits="userSpaceOnUse"/>
    <linearGradient id="a">
      <stop offset="0" stop-color="#b4903d"/>
      <stop offset="1" stop-color="#7b744f"/>
    </linearGradient>
    <linearGradient xlink:href="#b" id="d" x1="9.895" x2="9.895" y1="1039.153" y2="1051.838" gradientTransform="matrix(1.0071 0 0 1.003 -1.036 -5.152)" gradientUnits="userSpaceOnUse"/>
    <linearGradient id="b">
      <stop offset="0" stop-color="#f9fafc"/>
      <stop offset="1" stop-color="#dce7f7"/>
    </linearGradient>
    <linearGradient xlink:href="#c" id="f" x1="4" x2="4" y1="1060.362" y2="1054.362" gradientTransform="matrix(.99831 0 0 1.01074 -.015 -28.33)" gradientUnits="userSpaceOnUse"/>
    <linearGradient id="c">
      <stop offset="0" stop-color="#446691"/>
      <stop offset="1" stop-color="#5174a6"/>
    </linearGradient>
  </defs>
  <path fill="url(#d)" d="m 4.5000041,1036.8623 7.0594269,0 3.492927,0.1007 0,12.8993 -10.5523539,0 z" transform="translate(0 -1036.362)"/>
  <path fill="none" stroke="url(#e)" d="m 4.5000041,1036.8622 10.9999959,0 c 0,0 0,8.6667 0,13 l -10.9999969,0 z" transform="translate(0 -1036.362)"/>
  <path fill="none" stroke="#49a068" d="m6.526 1041.88 5.508 0M6.463 1044.873l5.571 0M13.012 1041.88l1.012 0M12.988 1044.862l1.012 0M12.988 1047.862l1.012 0" transform="translate(0 -1036.362)"/>
  <path fill="none" stroke="#49a068" stroke-opacity=".215" d="m7.5 1038.362 0 2.504 4.518 0M7.015 1043.862l4.985 0M7.015 1046.862l4.985 0M12.976 1046.862l1.024 0M12.976 1043.862l1.024 0M12.995 1040.881l1.024 0" transform="translate(0 -1036.362)"/>
  <path fill="none" stroke="#49a068" d="m 6.4982419,1038.3623 0,9.4848 5.5000001,0" transform="translate(0 -1036.362)"/>
  <path fill="url(#f)" stroke="#04306e" d="m 1.5,1043.8622 6.0000005,0 0,7 -6.0000005,0 z" transform="translate(0 -1036.362)"/>
  <path fill="#fff" d="m 2.2500002,1045.1435 0,0.125 0,0.5 0,0.125 0.125,0 0.375,0 1.1875,1.4063 -1.21875,1.5312 -0.34375,0 -0.125,0 0,0.125 0,0.5 0,0.125 0.125,0 1.5,0 0.125,0 0,-0.125 0,-0.5 0,-0.125 -0.125,0 0.625,-0.8437 0.625,0.8437 -0.125,0 0,0.125 0,0.5 0,0.125 0.125,0 1.5,0 0.125,0 0,-0.125 0,-0.5 0,-0.125 -0.125,0 -0.3125,0 -1.25,-1.5625 1.15625,-1.375 0.40625,0 0.125,0 0,-0.125 0,-0.5 0,-0.125 -0.125,0 -1.5,0 -0.125,0 0,0.125 0,0.5 0,0.125 0.0625,0 -0.5625,0.7188 -0.5625,-0.7188 0.0625,0 0,-0.125 0,-0.5 0,-0.125 -0.125,0 -1.5,0 -0.125,0 z" color="#000" font-family="Sans" font-size="7.69" font-weight="400" letter-spacing="0" overflow="visible" style="line-height:125%;text-indent:0;text-align:start;text-decoration-line:none;text-transform:none;block-progression:tb;marker:none" transform="translate(0 -1036.362)" word-spacing="0"/>
</svg>
