<svg xmlns="http://www.w3.org/2000/svg" xmlns:xlink="http://www.w3.org/1999/xlink" width="16" height="16">
  <defs>
    <linearGradient xlink:href="#a" id="f" x1="10.545" x2="10.545" y1="1038.578" y2="1052.323" gradientTransform="matrix(1.3257 0 0 1.27391 7.811 -288.186)" gradientUnits="userSpaceOnUse"/>
    <linearGradient id="a">
      <stop offset="0" stop-color="#b4903d"/>
      <stop offset="1" stop-color="#7b744f"/>
    </linearGradient>
    <linearGradient xlink:href="#b" id="e" x1="7.999" x2="9.987" y1="1042.231" y2="1040.33" gradientTransform="matrix(1.00566 0 0 1.02269 13.535 -27.257)" gradientUnits="userSpaceOnUse"/>
    <linearGradient id="b">
      <stop offset="0" stop-color="#e0c88f"/>
      <stop offset="1" stop-color="#d5b269"/>
    </linearGradient>
    <linearGradient xlink:href="#c" id="d" x1="9.895" x2="9.895" y1="1039.153" y2="1051.838" gradientTransform="matrix(1.38537 0 0 1.37317 6.94 -391.775)" gradientUnits="userSpaceOnUse"/>
    <linearGradient id="c">
      <stop offset="0" stop-color="#f9fafc"/>
      <stop offset="1" stop-color="#dce7f7"/>
    </linearGradient>
  </defs>
  <g font-weight="400" letter-spacing="0" word-spacing="0">
    <path fill="url(#d)" d="m 14.55635,1034.8201 6.757906,-0.078 4.242094,4.1286 0,9.7929 -11,0.079 z" font-family="AustralianFlyingCorpsStencil" font-size="11.052" style="line-height:125%;text-align:start" transform="translate(-9.556 -1034.742)"/>
    <path fill="url(#e)" d="m 21.55635,1034.7416 0,4 4,0 z" font-family="AustralianFlyingCorpsStencil" font-size="11.052" style="line-height:125%;text-align:start" transform="translate(-9.556 -1034.742)"/>
    <path fill="none" stroke="url(#f)" stroke-width="1.085" d="m 15.098773,1035.2841 6.957577,-0.043 3,3 -0.04242,9.9581 -9.915151,0 z" font-family="AustralianFlyingCorpsStencil" font-size="11.052" style="line-height:125%;text-align:start" transform="translate(-9.556 -1034.742)"/>
    <path fill="#21844f" d="m 5.3345888,1103.7196 c -0.1425329,0.013 -0.2511294,0.069 -0.3257895,0.1647 -0.07466,0.096 -0.1129672,0.1957 -0.1119901,0.2986 l 0.050073,5.2728 c 0.035415,3.7292 -0.6534498,5.8891 -4.88010539,5.7008 -1.80177981,-0.1182 -2.68329271,-0.9148 -3.22646321,-2.0718 l -0.017128,-3.1277 1.6661364,0 c 0.2156756,0.6325 0.2672726,3.1936 1.55032368,3.2206 2.28669362,0.048 2.00531992,-2.0283 1.99101432,-3.576 l -0.050073,-5.417 c -9.511e-4,-0.1029 -0.03733,-0.2024 -0.1119902,-0.2986 -0.067873,-0.096 -0.1764693,-0.1509 -0.3257894,-0.1647 l -2.42110631,0 0.023486,-1.5646 8.47130621,-0.039 0.0031,1.6187 -2.2850064,-0.021 z" font-family="Abyssinica SIL" font-size="20.851" style="line-height:125%" transform="matrix(.62328 0 0 .61262 2.98 -668.164)"/>
    <g fill="#d8424f" font-family="sans-serif" font-size="13.307" style="line-height:125%">
      <path d="m 14.493918,1045.5868 c -0.0953,0.01 -0.166775,0.043 -0.214425,0.104 -0.04332,0.061 -0.06498,0.1235 -0.06498,0.1884 l 0,4.1111 c 0,2.119 -0.303699,3.1463 -3.402397,3.1906 -2.9671605,0.043 -3.4725414,-1.0246 -3.5398067,-3.1906 l 0,-4.1426 c 0,-0.065 -0.023825,-0.1275 -0.071475,-0.1884 -0.043318,-0.061 -0.112627,-0.095 -0.2079271,-0.104 l -1.0817934,-0.032 0,-1.4845 4.6249862,0 0,1.4845 -0.760234,0.052 c -0.0953,0.01 -0.1667748,0.043 -0.2144248,0.104 -0.043318,0.061 -0.064977,0.1235 -0.064977,0.1884 l 0,3.6054 c 4.416e-4,1.5084 -0.1333615,2.0993 1.3558868,2.0802 1.4123,-0.018 1.58617,-0.797 1.58617,-1.8874 l 0,-3.7667 c 0,-0.065 -0.02599,-0.1275 -0.07797,-0.1884 -0.04765,-0.061 -0.119128,-0.095 -0.214425,-0.104 l -0.7186,-0.013 0,-1.516 4.130158,-0.039 0,1.516 z" font-family="Abyssinica SIL" style="-inkscape-font-specification:&quot;Abyssinica SIL&quot;" transform="matrix(.62198 0 0 .65614 3.323 -676.035)"/>
    </g>
  </g>
</svg>
