<svg xmlns="http://www.w3.org/2000/svg" xmlns:xlink="http://www.w3.org/1999/xlink" width="16" height="16">
  <defs>
    <linearGradient xlink:href="#a" id="d" x1="5.994" x2="15.923" y1="1038.405" y2="1052.364" gradientTransform="matrix(1.0071 0 0 1.003 -1.036 -5.152)" gradientUnits="userSpaceOnUse"/>
    <linearGradient id="a">
      <stop offset="0" stop-color="#b4903d"/>
      <stop offset="1" stop-color="#7b744f"/>
    </linearGradient>
    <linearGradient xlink:href="#b" id="c" x1="9.895" x2="9.895" y1="1039.153" y2="1051.838" gradientTransform="matrix(1.0071 0 0 1.003 -1.036 -5.152)" gradientUnits="userSpaceOnUse"/>
    <linearGradient id="b">
      <stop offset="0" stop-color="#f9fafc"/>
      <stop offset="1" stop-color="#dce7f7"/>
    </linearGradient>
    <filter id="f" width="1.24" height="1.24" x="-.12" y="-.12">
      <feGaussianBlur stdDeviation=".303"/>
    </filter>
    <mask id="e" maskUnits="userSpaceOnUse">
      <circle cx="3.504" cy="4.464" r="3.03" fill="#fff" stroke="#fff" stroke-linecap="round" stroke-linejoin="round" transform="translate(0 1044.425)"/>
    </mask>
  </defs>
  <g transform="translate(0 -1036.362)">
    <path fill="url(#c)" d="m 4.5000041,1036.8623 7.0594269,0 3.492927,0.1007 0,12.8993 -10.5523539,0 z"/>
    <path fill="none" stroke="url(#d)" d="m 4.5000041,1036.8622 10.9999959,0 c 0,0 0,8.6667 0,13 l -10.9999969,0 z"/>
    <circle cx="4.464" cy="1047.863" r="3.03" fill="#fff"/>
    <g mask="url(#e)" transform="translate(1.294 88.19) scale(.91494)">
      <g fill="none" stroke="#b9d6e6" stroke-width="1.639" filter="url(#f)" transform="translate(-4)">
        <circle cx="3.504" cy="4.464" r="3.03" stroke-linecap="round" stroke-linejoin="round" transform="translate(4 1044.425)"/>
        <path d="m 5.144683,1051.2175 4.710634,-4.7106"/>
      </g>
    </g>
    <circle cx="4.5" cy="1047.862" r="3.05" fill="none" stroke="#656a70" stroke-linecap="round" stroke-linejoin="round" stroke-width=".9"/>
    <path fill="none" stroke="#656a70" stroke-width=".9" d="m 2.1256192,1050.2205 4.710634,-4.7106"/>
  </g>
</svg>
