<?xml version="1.0" encoding="UTF-8" standalone="no"?>
<svg
   width="16"
   height="16"
   version="1.1"
   id="svg18"
   xmlns:xlink="http://www.w3.org/1999/xlink"
   xmlns="http://www.w3.org/2000/svg"
   xmlns:svg="http://www.w3.org/2000/svg">
  <defs
     id="defs8">
    <linearGradient
       xlink:href="#a"
       id="h"
       x1="10.545"
       x2="17.102"
       y1="1038.578"
       y2="1052.513"
       gradientTransform="matrix(.73244 0 0 .77153 3.474 -797.05)"
       gradientUnits="userSpaceOnUse" />
    <linearGradient
       id="a">
      <stop
         offset="0"
         stop-color="#b4903d"
         id="stop1" />
      <stop
         offset="1"
         stop-color="#7b744f"
         id="stop2" />
    </linearGradient>
    <linearGradient
       xlink:href="#b"
       id="g"
       x1="9.895"
       x2="9.895"
       y1="1039.153"
       y2="1051.838"
       gradientTransform="matrix(.73244 0 0 .77153 3.974 -797.05)"
       gradientUnits="userSpaceOnUse" />
    <linearGradient
       id="b">
      <stop
         offset="0"
         stop-color="#f9fafc"
         id="stop3" />
      <stop
         offset="1"
         stop-color="#dce7f7"
         id="stop4" />
    </linearGradient>
    <linearGradient
       xlink:href="#c"
       id="f"
       x1="-2.012"
       x2="-2.012"
       y1="1035.664"
       y2="1039.552"
       gradientTransform="matrix(.73244 0 0 .77153 3.474 -797.05)"
       gradientUnits="userSpaceOnUse" />
    <linearGradient
       id="c">
      <stop
         offset="0"
         stop-color="#b4903d"
         id="stop5" />
      <stop
         offset="1"
         stop-color="#ccc2a5"
         id="stop6" />
    </linearGradient>
    <linearGradient
       xlink:href="#b"
       id="e"
       x1="9.895"
       x2="9.895"
       y1="1039.153"
       y2="1051.838"
       gradientTransform="matrix(.73244 0 0 .77153 3.974 -797.05)"
       gradientUnits="userSpaceOnUse" />
    <linearGradient
       xlink:href="#d"
       id="j"
       x1="3.771"
       x2="3.93"
       y1="1061.401"
       y2="1067.087"
       gradientTransform="matrix(.9998 0 0 1.01074 -.022 -1064.667)"
       gradientUnits="userSpaceOnUse" />
    <linearGradient
       id="d">
      <stop
         offset="0"
         stop-color="#81c6a2"
         id="stop7" />
      <stop
         offset="1"
         stop-color="#479a6f"
         id="stop8" />
    </linearGradient>
    <filter
       id="i"
       width="1.1832"
       height="1.1570286"
       x="-0.091599993"
       y="-0.078514285"
       color-interpolation-filters="sRGB">
      <feGaussianBlur
         stdDeviation=".229"
         id="feGaussianBlur8" />
    </filter>
  </defs>
  <path
     fill="url(#e)"
     d="m 2.0000042,0.5001 5.1341296,0 2.540311,0.078 0,9.9226 -7.6744406,0 z"
     id="path8" />
  <path
     fill="none"
     stroke="url(#f)"
     d="m 1.5000032,0.5 7.9999965,0 0,2.3197 0,7.6803 -7.9999995,0 z"
     id="path9" />
  <path
     fill="none"
     stroke="#49a068"
     d="m3.5 2 0 6.47 2.5 0M3 5.5l3 0"
     id="path10" />
  <path
     fill="none"
     stroke="#49a068"
     stroke-opacity=".215"
     d="m 4.4999999,2 0,2.4884 1.5,0"
     id="path11" />
  <path
     fill="url(#g)"
     d="m 8.0000038,4.5001 5.1341302,0 2.540311,0.078 0,9.9226 -7.6744412,0 z"
     id="path12" />
  <path
     fill="none"
     stroke="url(#h)"
     d="M 7.5000028,4.5 15.5,4.5 c 0,3.3333 0,6.6667 0,10 l -8.0000002,0 z"
     id="path13" />
  <path
     fill="none"
     stroke="#49a068"
     d="m9.5 6 0 6.5L12 12.5M9 9.5 12 9.5M13 12.5l1 0"
     id="path14" />
  <path
     fill="none"
     stroke="#49a068"
     stroke-opacity=".215"
     d="m10.5 6 0 2.488 1.5 0M10 11.5 12 11.5M13 11.5l1 0"
     id="path15" />
  <path
     fill="#eff0f0"
     d="m 2.4539992,5.4539999 6.0000005,0 0,7.0000001 -6.0000005,0 z"
     filter="url(#i)"
     opacity=".892"
     transform="matrix(1.15133 0 0 1.289 -1.193 -1.322)"
     id="path16" />
  <path
     fill="url(#j)"
     stroke="#029e4b"
     d="m 1.4950944,7.524496 6.0088978,0 0,6.999965 -6.0088978,0 z"
     id="path17" />
  <path
     fill="none"
     stroke="#fff"
     stroke-linecap="round"
     stroke-width="1.5"
     d="m 2.7563153,11.467274 c 0.4074843,0.627762 1.2262682,2.27854 1.5690749,1.641829 0.4243273,-0.788031 1.9178196,-4.3499609 1.9178196,-4.3499609"
     id="path18" />
</svg>
