<svg xmlns="http://www.w3.org/2000/svg" xmlns:xlink="http://www.w3.org/1999/xlink" width="16" height="16">
  <defs>
    <linearGradient xlink:href="#a" id="g" x1="10.545" x2="17.102" y1="1038.578" y2="1052.513" gradientTransform="matrix(.73244 0 0 .77153 3.474 239.312)" gradientUnits="userSpaceOnUse"/>
    <linearGradient id="a">
      <stop offset="0" stop-color="#b4903d"/>
      <stop offset="1" stop-color="#7b744f"/>
    </linearGradient>
    <linearGradient xlink:href="#b" id="f" x1="9.895" x2="9.895" y1="1039.153" y2="1051.838" gradientTransform="matrix(.73244 0 0 .77153 3.974 239.312)" gradientUnits="userSpaceOnUse"/>
    <linearGradient id="b">
      <stop offset="0" stop-color="#f9fafc"/>
      <stop offset="1" stop-color="#dce7f7"/>
    </linearGradient>
    <linearGradient xlink:href="#c" id="e" x1="-2.012" x2="-2.012" y1="1035.664" y2="1039.552" gradientTransform="matrix(.73244 0 0 .77153 3.474 239.312)" gradientUnits="userSpaceOnUse"/>
    <linearGradient id="c">
      <stop offset="0" stop-color="#b4903d"/>
      <stop offset="1" stop-color="#ccc2a5"/>
    </linearGradient>
    <linearGradient xlink:href="#b" id="d" x1="9.895" x2="9.895" y1="1039.153" y2="1051.838" gradientTransform="matrix(.73244 0 0 .77153 3.974 239.312)" gradientUnits="userSpaceOnUse"/>
    <filter id="h" width="1.183" height="1.157" x="-.092" y="-.078" color-interpolation-filters="sRGB">
      <feGaussianBlur stdDeviation=".229"/>
    </filter>
  </defs>
  <path fill="url(#d)" d="m 2.0000043,1036.8623 5.1341296,0 2.540311,0.078 0,9.9226 -7.6744406,0 z" transform="translate(0 -1036.362)"/>
  <path fill="none" stroke="url(#e)" d="m 1.5000032,1036.8622 7.9999966,0 0,2.3197 0,7.6803 -7.9999996,0 z" transform="translate(0 -1036.362)"/>
  <path fill="none" stroke="#49a068" d="m3.5 1038.362 0 6.47 2.5 0M3 1041.862l3 0" transform="translate(0 -1036.362)"/>
  <path fill="none" stroke="#49a068" stroke-opacity=".215" d="m 4.5,1038.3622 0,2.4884 1.5,0" transform="translate(0 -1036.362)"/>
  <path fill="url(#f)" d="m 8.0000039,1040.8623 5.1341301,0 2.540311,0.078 0,9.9226 -7.6744411,0 z" transform="translate(0 -1036.362)"/>
  <path fill="none" stroke="url(#g)" d="m 7.5000029,1040.8622 7.9999971,0 c 0,3.3333 0,6.6667 0,10 l -8.0000001,0 z" transform="translate(0 -1036.362)"/>
  <path fill="none" stroke="#49a068" d="m9.5 1042.362 0 6.5 2.5 0M9 1045.862l3 0M13 1048.862l1 0" transform="translate(0 -1036.362)"/>
  <path fill="none" stroke="#49a068" stroke-opacity=".215" d="m10.5 1042.362 0 2.488 1.5 0M10 1047.862l2 0M13 1047.862l1 0" transform="translate(0 -1036.362)"/>
  <path fill="none" stroke="#49a068" d="m 13,1045.8622 1,0" transform="translate(0 -1036.362)"/>
  <path fill="none" stroke="#49a068" stroke-opacity=".215" d="m 13,1044.8622 1,0" transform="translate(0 -1036.362)"/>
  <path fill="#eff0f0" d="m 2.4539992,5.4539999 6.0000005,0 0,7.0000001 -6.0000005,0 z" filter="url(#h)" opacity=".892" transform="matrix(1.15133 0 0 1.289 -1.193 -1.322)"/>
  <path fill="#d8424f" stroke="#c91625" d="M1.5-1050.862H7.498V-1043.86H1.5z" transform="matrix(1 0 0 -1 0 -1036.362)"/>
  <path fill="#fff" d="m 2.2263572,1049.8355 0,-0.1402 0,-0.5607 0,-0.1402 0.1215217,0 0.3645649,0 1.1544551,-1.5773 -1.1848356,-1.7173 -0.3341844,0 -0.1215217,0 0,-0.1402 0,-0.5608 0,-0.1402 0.1215217,0 1.4582596,0 0.1215217,0 0,0.1402 0,0.5608 0,0.1402 -0.1215217,0 0.6076078,0.9462 0.6076088,-0.9462 -0.1215218,0 0,-0.1402 0,-0.5608 0,-0.1402 0.1215218,0 1.4582591,0 0.1215217,0 0,0.1402 0,0.5608 0,0.1402 -0.1215217,0 -0.3038039,0 -1.2152166,1.7524 1.1240751,1.5422 0.3949454,0 0.1215217,0 0,0.1402 0,0.5607 0,0.1402 -0.1215217,0 -1.4582591,0 -0.1215218,0 0,-0.1402 0,-0.5607 0,-0.1402 0.060757,0 -0.5468474,-0.8062 -0.5468474,0.8062 0.060757,0 0,0.1402 0,0.5607 0,0.1402 -0.1215217,0 -1.4582595,0 -0.1215216,0 z" color="#000" enable-background="accumulate" font-family="Sans" font-size="7.69" font-weight="400" letter-spacing="0" overflow="visible" style="line-height:125%;text-indent:0;text-align:start;text-decoration-line:none;text-transform:none;block-progression:tb;marker:none" transform="translate(0 -1036.362)" word-spacing="0"/>
</svg>
