<?xml version="1.0" encoding="UTF-8" standalone="no"?>
<svg
   width="15"
   height="12"
   version="1.1"
   id="svg8"
   xmlns:xlink="http://www.w3.org/1999/xlink"
   xmlns="http://www.w3.org/2000/svg"
   xmlns:svg="http://www.w3.org/2000/svg">
  <defs
     id="defs3">
    <linearGradient
       id="a">
      <stop
         offset="0"
         stop-color="#a17748"
         id="stop1" />
      <stop
         offset=".5"
         stop-color="#8e5c24"
         id="stop2" />
      <stop
         offset="1"
         stop-color="#c7af93"
         id="stop3" />
    </linearGradient>
    <linearGradient
       xlink:href="#a"
       id="b"
       x1="388.637"
       x2="388.637"
       y1="478.188"
       y2="459.248"
       gradientTransform="matrix(.41403 0 0 .41403 -154.695 851.498)"
       gradientUnits="userSpaceOnUse" />
  </defs>
  <g
     transform="translate(0 -1040.362)"
     id="g8">
    <circle
       cx="6"
       cy="1045.362"
       r="4.399"
       fill="url(#b)"
       stroke="#905e27"
       stroke-linecap="round"
       stroke-linejoin="round"
       stroke-width="1.202"
       font-family="Sans"
       font-size="13.589"
       font-weight="400"
       letter-spacing="0"
       style="line-height:125%"
       word-spacing="0"
       id="circle3" />
    <path
       fill="#fff"
       d="M1043.362-8H1047.362V-7H1043.362zM1043.362-5H1047.362V-4H1043.362z"
       font-family="Sans"
       font-size="13.589"
       font-weight="400"
       letter-spacing="0"
       style="line-height:125%"
       transform="rotate(90)"
       word-spacing="0"
       id="path3" />
    <path
       fill="#fff"
       d="M732.783-743.755H735.083V-742.755H732.783z"
       font-family="Sans"
       font-size="13.589"
       font-weight="400"
       letter-spacing="0"
       style="line-height:125%"
       transform="rotate(135)"
       word-spacing="0"
       id="path4" />
    <path
       fill="#fff"
       d="M-743.751-735.237H-741.269V-734.237H-743.751z"
       font-family="Sans"
       font-size="13.589"
       font-weight="400"
       letter-spacing="0"
       style="line-height:125%"
       transform="rotate(-135)"
       word-spacing="0"
       id="path5" />
    <g
       stroke-width="1.4"
       id="g7">
      <path
         fill="#fff"
         fill-rule="evenodd"
         d="m 0,1049.3622 v 3 h 7 v -3 l -2,-5 H 2 Z"
         transform="matrix(.71429 0 0 .71429 10 294.39)"
         id="path6" />
      <path
         fill="#366c9a"
         d="m 3,1044.3622 -2,7 h 1 l 0.59375,-2 h 1.8125 l 0.59375,2 h 1 l -2,-7 z m 0.5,2 0.59375,2 h -1.1875 z"
         transform="matrix(.71429 0 0 .71429 10 294.39)"
         id="path7" />
    </g>
  </g>
</svg>
