<?xml version="1.0" encoding="UTF-8" standalone="no"?>
<svg
   width="15"
   height="12"
   version="1.1"
   id="svg40"
   xmlns:xlink="http://www.w3.org/1999/xlink"
   xmlns="http://www.w3.org/2000/svg"
   xmlns:svg="http://www.w3.org/2000/svg">
  <defs
     id="defs29">
    <linearGradient
       id="f">
      <stop
         offset="0"
         stop-color="#2846b3"
         id="stop1" />
      <stop
         offset=".5"
         stop-color="#555f9e"
         id="stop2" />
      <stop
         offset="1"
         stop-color="#567ebc"
         stop-opacity="0"
         id="stop3" />
    </linearGradient>
    <linearGradient
       id="e">
      <stop
         offset="0"
         stop-color="#9e6627"
         id="stop4" />
      <stop
         offset="1"
         stop-color="#cf9852"
         id="stop5" />
    </linearGradient>
    <linearGradient
       id="d">
      <stop
         offset="0"
         stop-color="#ffd175"
         id="stop6" />
      <stop
         offset="1"
         stop-color="#fff1c2"
         id="stop7" />
    </linearGradient>
    <linearGradient
       id="b">
      <stop
         offset="0"
         stop-color="#92b5eb"
         id="stop8" />
      <stop
         offset="1"
         stop-color="#b1e1fd"
         id="stop9" />
    </linearGradient>
    <linearGradient
       id="h">
      <stop
         offset="0"
         stop-color="#958189"
         id="stop10" />
      <stop
         offset="1"
         stop-color="#897b8d"
         id="stop11" />
    </linearGradient>
    <linearGradient
       id="c">
      <stop
         offset="0"
         stop-color="#2846b3"
         id="stop12" />
      <stop
         offset="1"
         stop-color="#60649d"
         id="stop13" />
    </linearGradient>
    <linearGradient
       id="a">
      <stop
         offset="0"
         stop-color="#d1ad79"
         id="stop14" />
      <stop
         offset="1"
         stop-color="#ce9650"
         id="stop15" />
    </linearGradient>
    <linearGradient
       id="g">
      <stop
         offset="0"
         stop-color="#c38536"
         stop-opacity="0"
         id="stop16" />
      <stop
         offset=".154"
         stop-color="#f2dc91"
         id="stop17" />
      <stop
         offset=".5"
         stop-color="#fbdc8b"
         id="stop18" />
      <stop
         offset=".75"
         stop-color="#e6bd7a"
         id="stop19" />
      <stop
         offset="1"
         stop-color="#ba772f"
         stop-opacity="0"
         id="stop20" />
    </linearGradient>
    <linearGradient
       xlink:href="#a"
       id="n"
       x1="531.093"
       x2="531.093"
       y1="366.789"
       y2="371.179"
       gradientTransform="translate(-61.177 -1.583)"
       gradientUnits="userSpaceOnUse" />
    <linearGradient
       xlink:href="#b"
       id="u"
       x1="537.943"
       x2="537.902"
       y1="397.561"
       y2="385.152"
       gradientTransform="matrix(1 0 0 1.41657 344.324 0)"
       gradientUnits="userSpaceOnUse" />
    <linearGradient
       xlink:href="#c"
       id="v"
       x1="546.633"
       x2="546.583"
       y1="397.264"
       y2="382.124"
       gradientTransform="matrix(1 0 0 1.41657 344.324 0)"
       gradientUnits="userSpaceOnUse" />
    <linearGradient
       xlink:href="#d"
       id="o"
       x1="538.006"
       x2="538.006"
       y1="396.223"
       y2="374.212"
       gradientTransform="translate(-60.559)"
       gradientUnits="userSpaceOnUse" />
    <linearGradient
       xlink:href="#e"
       id="p"
       x1="548.459"
       x2="548.459"
       y1="398.988"
       y2="373.771"
       gradientTransform="translate(-60.559)"
       gradientUnits="userSpaceOnUse" />
    <linearGradient
       xlink:href="#f"
       id="q"
       x1="548.459"
       x2="548.459"
       y1="398.988"
       y2="373.771"
       gradientTransform="translate(-60.559)"
       gradientUnits="userSpaceOnUse" />
    <linearGradient
       xlink:href="#g"
       id="r"
       x1="523.008"
       x2="543.914"
       y1="373.229"
       y2="373.229"
       gradientTransform="translate(-60.559 -1.703)"
       gradientUnits="userSpaceOnUse" />
    <linearGradient
       xlink:href="#h"
       id="m"
       x1="14"
       x2="14"
       y1="4"
       y2="6"
       gradientTransform="matrix(.71198 0 0 .69271 .355 1041.641)"
       gradientUnits="userSpaceOnUse" />
    <linearGradient
       id="l">
      <stop
         offset="0"
         stop-color="#d22939"
         id="stop21" />
      <stop
         offset="1"
         stop-color="#f13f53"
         id="stop22" />
    </linearGradient>
    <linearGradient
       id="k">
      <stop
         offset="0"
         stop-color="#d84e4e"
         id="stop23" />
      <stop
         offset="1"
         stop-color="#e6878f"
         id="stop24" />
    </linearGradient>
    <linearGradient
       xlink:href="#k"
       id="y"
       x1="514.318"
       x2="514.318"
       y1="374.206"
       y2="345.535"
       gradientTransform="matrix(.15945 0 0 .15945 -68.364 -1107.242)"
       gradientUnits="userSpaceOnUse" />
    <linearGradient
       xlink:href="#l"
       id="A"
       x1="507.15"
       x2="507.15"
       y1="370.622"
       y2="349.119"
       gradientTransform="matrix(.23253 0 0 -.23253 -105.426 1133.542)"
       gradientUnits="userSpaceOnUse" />
    <linearGradient
       xlink:href="#l"
       id="z"
       x1="507.15"
       x2="507.15"
       y1="370.622"
       y2="349.119"
       gradientTransform="matrix(.23253 0 0 -.23253 -105.426 1133.542)"
       gradientUnits="userSpaceOnUse" />
    <filter
       id="t"
       width="1.6630291"
       height="1.9045697"
       x="-0.33151457"
       y="-0.45228487">
      <feGaussianBlur
         stdDeviation="3.562"
         id="feGaussianBlur24" />
    </filter>
    <filter
       id="j"
       width="1.6303431"
       height="1.8599762"
       x="-0.31517153"
       y="-0.42998808"
       color-interpolation-filters="sRGB">
      <feGaussianBlur
         stdDeviation="3.562"
         id="feGaussianBlur25" />
    </filter>
    <filter
       id="x"
       width="2.2608824"
       height="1.6275827"
       x="-0.63439401"
       y="-0.31353246">
      <feGaussianBlur
         stdDeviation="1.609"
         id="feGaussianBlur26" />
    </filter>
    <mask
       id="s"
       maskUnits="userSpaceOnUse" />
    <mask
       id="i"
       maskUnits="userSpaceOnUse" />
    <mask
       id="w"
       maskUnits="userSpaceOnUse">
      <g
         fill="#fff"
         stroke="#fff"
         transform="matrix(1.18358 0 0 1.18358 -75.612 -74.71)"
         id="g29">
        <rect
           width="15"
           height="16.625"
           x="463.933"
           y="365.467"
           stroke-linecap="round"
           stroke-linejoin="round"
           stroke-width="3.028"
           rx="2.625"
           ry="2.625"
           id="rect26" />
        <path
           stroke-linecap="round"
           stroke-linejoin="round"
           stroke-width="3.028"
           d="m 463.24874,371.54269 31.10344,0 c 1.45425,0 2.625,1.17075 2.625,2.625 l 0,14.39926 c 0,1.45425 -1.21199,2.28111 -2.625,2.625 l -31.10344,7.56983 c -1.413,0.34389 -2.625,-1.17075 -2.625,-2.625 l 0,-21.96909 c 0,-1.45425 1.17075,-2.625 2.625,-2.625 z"
           id="path26" />
        <path
           stroke-linecap="round"
           stroke-linejoin="round"
           stroke-width="3.028"
           d="m 463.24874,371.6096 31.10344,0 c 1.45425,0 2.625,1.17075 2.625,2.625 l 0,14.33235 c 0,1.45425 -1.21199,2.28111 -2.625,2.625 l -31.10344,7.56983 c -1.413,0.34389 -2.625,-1.17075 -2.625,-2.625 l 0,-21.90218 c 0,-1.45425 1.17075,-2.625 2.625,-2.625 z"
           id="path27" />
        <path
           stroke-width="3.028"
           d="m 462.26171,371.52622 20.09375,0"
           id="path28" />
        <g
           mask="url(#i)"
           id="g28">
          <rect
             width="30.9"
             height="22.649"
             x="860.685"
             y="542.897"
             stroke-linecap="round"
             stroke-linejoin="round"
             stroke-width="2.38"
             filter="url(#j)"
             opacity=".5"
             rx="2.625"
             ry="3.718"
             transform="skewX(-45.095) scale(1 .70593)"
             id="rect28" />
        </g>
        <rect
           width="30.237"
           height="21.543"
           x="860.685"
           y="543.433"
           fill="#000"
           stroke="#000"
           stroke-linecap="round"
           stroke-linejoin="round"
           stroke-width="3.604"
           rx="2.625"
           ry="3.718"
           transform="skewX(-45.095) scale(1 .70593)"
           id="rect29" />
        <path
           stroke="none"
           d="M456.036 370.013H504.483V376.069H456.036z"
           id="path29" />
      </g>
    </mask>
  </defs>
  <path
     fill="url(#m)"
     d="M.355 1044.412H11.086V1045.797H.355z"
     transform="translate(0 -1040.362)"
     id="path30" />
  <g
     stroke-width="1.424"
     transform="matrix(.23514 0 0 .22877 -106.876 -80.599)"
     id="g34">
    <rect
       width="15"
       height="16.625"
       x="463.933"
       y="365.467"
       fill="#fdf7eb"
       stroke="url(#n)"
       stroke-linecap="round"
       stroke-linejoin="round"
       stroke-width="4.312"
       rx="2.625"
       ry="2.625"
       id="rect30" />
    <path
       fill="url(#o)"
       stroke="url(#p)"
       stroke-linecap="round"
       stroke-linejoin="round"
       stroke-width="4.312"
       d="m 463.24874,371.54269 h 31.10344 c 1.45425,0 2.625,1.17075 2.625,2.625 v 14.39926 c 0,1.45425 -1.21199,2.28111 -2.625,2.625 l -31.10344,7.56983 c -1.413,0.34389 -2.625,-1.17075 -2.625,-2.625 v -21.96909 c 0,-1.45425 1.17075,-2.625 2.625,-2.625 z"
       id="path31" />
    <path
       fill="none"
       stroke="url(#q)"
       stroke-linecap="round"
       stroke-linejoin="round"
       stroke-width="4.312"
       d="m 463.24874,371.6096 h 31.10344 c 1.45425,0 2.625,1.17075 2.625,2.625 v 14.33235 c 0,1.45425 -1.21199,2.28111 -2.625,2.625 l -31.10344,7.56983 c -1.413,0.34389 -2.625,-1.17075 -2.625,-2.625 V 374.2346 c 0,-1.45425 1.17075,-2.625 2.625,-2.625 z"
       id="path32" />
    <path
       fill="none"
       stroke="url(#r)"
       stroke-width="4.312"
       d="m 462.26171,371.52622 h 20.09375"
       id="path33" />
    <g
       mask="url(#s)"
       id="g33">
      <rect
         width="30.9"
         height="22.649"
         x="860.685"
         y="542.897"
         stroke="#000"
         stroke-linecap="round"
         stroke-linejoin="round"
         stroke-width="3.39"
         filter="url(#t)"
         opacity=".5"
         rx="2.625"
         ry="3.718"
         transform="skewX(-45.095) scale(1 .70593)"
         id="rect33" />
    </g>
    <rect
       width="30.237"
       height="21.543"
       x="860.685"
       y="543.433"
       fill="url(#u)"
       stroke="url(#v)"
       stroke-linecap="round"
       stroke-linejoin="round"
       stroke-width="5.132"
       rx="2.625"
       ry="3.718"
       transform="skewX(-45.095) scale(1 .70593)"
       id="rect34" />
  </g>
  <path
     fill="#60649d"
     d="M 6.0509092,1047.1831 H 3.2030024 v 0.6927 h 0.4025847 v -0.285 h 2.3563261 z"
     transform="translate(0 -1040.362)"
     id="path34" />
  <g
     stroke-width="1.424"
     mask="url(#w)"
     opacity=".5"
     transform="matrix(.19867 0 0 .19329 -92.579 -66.311)"
     id="g35">
    <path
       fill="#fff"
       stroke="#fff"
       stroke-width="10.206"
       d="m 508.82144,374.07917 c -0.69798,-0.0658 -1.51784,-0.22288 -2.17618,-0.41688 -1.02159,-0.30105 -0.91981,0.0576 -0.91981,-3.24137 0,-1.72707 0.029,-2.86606 0.0736,-2.88384 0.0404,-0.0162 0.11958,0.005 0.17597,0.0476 0.18285,0.13729 1.11115,0.61247 1.41851,0.72613 0.70341,0.26012 1.75884,0.3924 2.50231,0.31361 1.64812,-0.17464 2.76497,-1.11023 3.32672,-2.78677 0.45299,-1.35198 0.4302,-0.82772 0.47681,-10.97121 l 0.0429,-9.33095 h 3.12846 3.12848 l 0.0232,8.69877 c 0.0241,8.99185 -0.002,10.04427 -0.29307,11.68268 -0.58944,3.32221 -2.25753,5.82206 -4.73055,7.08936 -1.66243,0.85189 -4.07602,1.27111 -6.17731,1.07295 z"
       filter="url(#x)"
       id="path35" />
  </g>
  <path
     fill="#366c9a"
     d="m 8.4817922,1046.5092 c -0.1603743,-0.013 -0.3487524,-0.043 -0.500018,-0.081 -0.2347286,-0.058 -0.2113438,0.011 -0.2113438,-0.6265 0,-0.3339 0.00666,-0.554 0.016906,-0.5574 0.00928,0 0.027477,9e-4 0.040434,0.01 0.042012,0.027 0.2553064,0.1183 0.3259278,0.1403 0.161622,0.05 0.4041264,0.076 0.5749525,0.061 0.3786853,-0.034 0.6353029,-0.2146 0.7643736,-0.5386 0.1040826,-0.2613 0.098848,-0.16 0.1095558,-2.1206 l 0.00985,-1.8036 h 0.7188219 0.718826 l 0.0053,1.6814 c 0.0055,1.738 -3.97e-4,1.9414 -0.06734,2.2581 -0.135436,0.6421 -0.518711,1.1253 -1.0869329,1.3703 -0.3819732,0.1647 -0.9365407,0.2457 -1.4193503,0.2074 z"
     transform="translate(0 -1040.362)"
     id="path36" />
  <path
     fill="none"
     stroke="#fff"
     stroke-linecap="round"
     d="M9.5-1051.862H14.5V-1046.862H9.5z"
     opacity=".756"
     transform="matrix(1 0 0 -1 0 -1040.362)"
     id="path37" />
  <path
     fill="#fffbf0"
     stroke="url(#y)"
     stroke-linecap="round"
     d="M10.5-1051.862H14.5V-1047.862H10.5z"
     transform="matrix(1 0 0 -1 0 -1040.362)"
     id="path38" />
  <path
     fill="none"
     stroke="url(#z)"
     d="m 12.5,1052.3622 v -5"
     transform="translate(0 -1040.362)"
     id="path39" />
  <path
     fill="none"
     stroke="url(#A)"
     d="m 10,1049.8622 h 5"
     transform="translate(0 -1040.362)"
     id="path40" />
</svg>
