<svg xmlns="http://www.w3.org/2000/svg" xmlns:xlink="http://www.w3.org/1999/xlink" width="15" height="12">
  <defs>
    <linearGradient id="a">
      <stop offset="0" stop-color="#a17748"/>
      <stop offset=".5" stop-color="#8e5c24"/>
      <stop offset="1" stop-color="#c7af93"/>
    </linearGradient>
    <linearGradient xlink:href="#a" id="b" x1="388.637" x2="388.637" y1="478.188" y2="459.248" gradientTransform="matrix(.41403 0 0 .41403 -154.695 851.498)" gradientUnits="userSpaceOnUse"/>
  </defs>
  <g transform="translate(0 -1040.362)">
    <circle cx="6" cy="1045.362" r="4.399" fill="url(#b)" stroke="#905e27" stroke-linecap="round" stroke-linejoin="round" stroke-width="1.202" font-family="Sans" font-size="13.589" font-weight="400" letter-spacing="0" style="line-height:125%" word-spacing="0"/>
    <path fill="#fff" d="M1043.362-8H1047.362V-7H1043.362zM1043.362-5H1047.362V-4H1043.362z" font-family="Sans" font-size="13.589" font-weight="400" letter-spacing="0" style="line-height:125%" transform="rotate(90)" word-spacing="0"/>
    <path fill="#fff" d="M732.783-743.755H735.083V-742.755H732.783z" font-family="Sans" font-size="13.589" font-weight="400" letter-spacing="0" style="line-height:125%" transform="rotate(135)" word-spacing="0"/>
    <path fill="#fff" d="M-743.751-735.237H-741.269V-734.237H-743.751z" font-family="Sans" font-size="13.589" font-weight="400" letter-spacing="0" style="line-height:125%" transform="rotate(-135)" word-spacing="0"/>
    <g stroke-width="1.4">
      <path fill="#fff" d="M0 1044.362H7V1052.762H0z" transform="matrix(.71429 0 0 .71429 10 294.39)"/>
      <path fill="none" stroke="#366c9a" stroke-width="1.26" d="m 2.0146,1052.5144 c -0.036184,-1.347 1.64e-4,-4.5342 1.64e-4,-5.085 v -1.2436 c 0,-0.519 0.5217335,-1.1906 0.9870261,-1.1906 h 0.9870261 c 0.7331739,0 1.0089599,0.951 1.0089599,1.2701 0,0 -0.00504,0.3426 0,1.0565 0.00214,0.304 -0.1585054,1.2937 -0.8989014,1.3064 -0.5025737,0.012 -1.6756952,0.041 -1.6756952,0.041" transform="matrix(.71429 0 0 .71429 10 294.39)"/>
      <path fill="none" stroke="#366c9a" d="m 3.2470428,1048.5199 c 0,0 0.4887146,1.032 1.1751151,2.0617 0.552245,0.8283 0.7840731,1.5337 0.8065528,1.9306 l 0.00519,0.092" transform="matrix(.71429 0 0 .71429 10 294.39)"/>
    </g>
  </g>
</svg>
