<svg xmlns="http://www.w3.org/2000/svg" xmlns:xlink="http://www.w3.org/1999/xlink" width="15" height="12">
  <defs>
    <linearGradient id="a">
      <stop offset="0" stop-color="#a17748"/>
      <stop offset=".5" stop-color="#8e5c24"/>
      <stop offset="1" stop-color="#c7af93"/>
    </linearGradient>
    <linearGradient xlink:href="#a" id="b" x1="388.637" x2="388.637" y1="478.188" y2="459.248" gradientTransform="matrix(.41403 0 0 .41403 -154.695 851.498)" gradientUnits="userSpaceOnUse"/>
  </defs>
  <g transform="translate(0 -1040.362)">
    <circle cx="6" cy="1045.362" r="4.399" fill="url(#b)" stroke="#905e27" stroke-linecap="round" stroke-linejoin="round" stroke-width="1.202" font-family="Sans" font-size="13.589" font-weight="400" letter-spacing="0" style="line-height:125%" word-spacing="0"/>
    <path fill="#fff" d="M1043.362-8H1047.362V-7H1043.362zM1043.362-5H1047.362V-4H1043.362z" font-family="Sans" font-size="13.589" font-weight="400" letter-spacing="0" style="line-height:125%" transform="rotate(90)" word-spacing="0"/>
    <path fill="#fff" d="M732.783-743.755H735.083V-742.755H732.783z" font-family="Sans" font-size="13.589" font-weight="400" letter-spacing="0" style="line-height:125%" transform="rotate(135)" word-spacing="0"/>
    <path fill="#fff" d="M-743.751-735.237H-741.269V-734.237H-743.751z" font-family="Sans" font-size="13.589" font-weight="400" letter-spacing="0" style="line-height:125%" transform="rotate(-135)" word-spacing="0"/>
    <g stroke-width="1.4">
      <path fill="#fff" d="M0 1044.362H7V1052.685H0z" transform="matrix(.71429 0 0 .71429 10 294.39)"/>
      <path fill="none" stroke="#366c9a" stroke-width="1.26" d="m 2.0321988,1050.3414 v 0.6663 c 0,0.8316 0.4986317,1.1245 0.9705953,1.1245 h 0.94307 c 0.4831821,0 1.0079227,-0.6392 1.0079227,-1.2257 v -1.1894 c 0,-0.5111 -0.4281752,-1.1106 -0.9133456,-1.1106 H 3.0136029 c -0.4636692,0 -0.983603,-0.6488 -0.983603,-1.196 v -1.2354 c 0,-0.5156 0.5142106,-1.1829 0.9727942,-1.1829 h 0.9727941 c 0.7226024,0 0.9944119,1.0564 0.9944119,1.2618 v 0.5665" transform="matrix(.71429 0 0 .71429 10 294.39)"/>
    </g>
  </g>
</svg>
