<svg xmlns="http://www.w3.org/2000/svg" xmlns:xlink="http://www.w3.org/1999/xlink" width="16" height="16">
  <defs>
    <linearGradient id="a">
      <stop offset="0" stop-color="#e0e566"/>
      <stop offset="1" stop-color="#b0b456"/>
    </linearGradient>
    <linearGradient id="b">
      <stop offset="0" stop-color="#426e4a"/>
      <stop offset="1" stop-color="#669f71"/>
    </linearGradient>
    <linearGradient xlink:href="#a" id="o" x1="2.031" x2="2.031" y1="7.888" y2="9.144" gradientTransform="translate(2.563 1037.034)" gradientUnits="userSpaceOnUse"/>
    <linearGradient xlink:href="#b" id="p" x1="2.031" x2="2.031" y1="9.144" y2="4.672" gradientTransform="translate(2.563 1037.034)" gradientUnits="userSpaceOnUse"/>
    <linearGradient id="c">
      <stop offset="0" stop-color="#fff"/>
      <stop offset=".612" stop-color="#ddd"/>
      <stop offset="1" stop-color="#464646"/>
    </linearGradient>
    <linearGradient xlink:href="#d" id="j" x1="7.83" x2="7.802" y1="5.575" y2="1.931" gradientUnits="userSpaceOnUse"/>
    <linearGradient id="d">
      <stop offset="0" stop-color="#424242"/>
      <stop offset="1" stop-color="#6b6b6b"/>
    </linearGradient>
    <linearGradient id="e">
      <stop offset="0" stop-color="#fff"/>
      <stop offset=".5" stop-color="#ddd"/>
      <stop offset="1" stop-color="#464646"/>
    </linearGradient>
    <linearGradient xlink:href="#f" id="l" x1="7.83" x2="7.889" y1="5.968" y2="3.584" gradientUnits="userSpaceOnUse"/>
    <linearGradient id="f">
      <stop offset="0" stop-color="#4c4c4c"/>
      <stop offset="1" stop-color="#6b6b6b"/>
    </linearGradient>
    <linearGradient id="g">
      <stop offset="0" stop-color="#fff"/>
      <stop offset=".666" stop-color="#ddd"/>
      <stop offset="1" stop-color="#464646"/>
    </linearGradient>
    <linearGradient xlink:href="#h" id="n" x1="7.845" x2="7.845" y1="5.653" y2="1.018" gradientUnits="userSpaceOnUse"/>
    <linearGradient id="h">
      <stop offset="0" stop-color="#717188"/>
      <stop offset="1" stop-color="#6b6b6b"/>
    </linearGradient>
    <radialGradient xlink:href="#c" id="i" cx="7.738" cy="2.433" r="2.35" fx="7.738" fy="2.433" gradientTransform="matrix(.30891 .02433 -.02707 .33137 5.463 1.717)" gradientUnits="userSpaceOnUse"/>
    <radialGradient xlink:href="#e" id="k" cx="7.938" cy="3.452" r="2.35" fx="7.938" fy="3.452" gradientTransform="matrix(.37553 0 0 .40298 4.908 2.193)" gradientUnits="userSpaceOnUse"/>
    <radialGradient xlink:href="#g" id="m" cx="7.93" cy="1.786" r="2.35" fx="7.93" fy="1.786" gradientTransform="matrix(.35883 -.01459 .01251 .40537 4.984 2.107)" gradientUnits="userSpaceOnUse"/>
  </defs>
  <path fill="#424242" d="M5.091 8.983H8.82v1.004H5.09z"/>
  <path fill="none" stroke="#424242" stroke-linejoin="round" stroke-width=".982" d="M21.758 1046.93s2.444 1.434 2.444 1.875c0 .441.03 1.844.03 1.844" transform="matrix(1.03603 0 0 1 -10.525 -1035.686)"/>
  <path fill="#424242" d="M12.477 8.983h3.71v1.004h-3.71zM15.154 4.958h-1.101s.016.97 0 1.312c-.032.68-1.191.911-2.275.988l.382 1.092c.27-.033 1.415-.191 2.095-.55.71-.377.899-.81.899-1.227V4.958z"/>
  <path fill="none" stroke="#424242" stroke-linejoin="round" stroke-width=".982" d="M19.028 1046.93s-2.444 1.434-2.444 1.875c0 .441-.03 1.844-.03 1.844" transform="matrix(1.03603 0 0 1 -10.525 -1035.686)"/>
  <path fill="#717188" d="M9.174 6.025h2.875v1.5H9.174z"/>
  <path fill="url(#i)" stroke="url(#j)" stroke-width=".735" d="M9.723 3.758c0 1.196-.851 2.166-1.9 2.166-1.05 0-1.901-.97-1.901-2.166s.85-2.165 1.9-2.165c1.05 0 1.9.97 1.9 2.165z" transform="matrix(1.11103 0 0 .95795 1.95 .928)"/>
  <path fill="url(#k)" stroke="url(#l)" stroke-width=".749" d="M9.723 3.758c0 1.196-.851 2.166-1.9 2.166-1.05 0-1.901-.97-1.901-2.166s.85-2.165 1.9-2.165c1.05 0 1.9.97 1.9 2.165z" transform="matrix(1.06584 0 0 .96223 2.209 8.944)"/>
  <path fill="none" stroke="#b9b9bc" stroke-width=".749" d="M6.496 5.309c-.672-.746-.765-1.939-.22-2.808" transform="matrix(-1.06584 0 0 .96223 18.877 8.944)"/>
  <path fill="none" stroke="#b9b9bc" stroke-width=".735" d="M6.884 5.642c-.912-.59-1.232-1.912-.714-2.953.081-.163.18-.314.296-.448M8.989 2.049c.828.734.978 2.094.334 3.038-.05.074-.104.143-.162.209" transform="matrix(1.11103 0 0 .95795 1.95 .928)"/>
  <path fill="#717188" stroke="#717188" stroke-width=".735" d="M9.208 5.24c-.676.82-1.79.915-2.564.217" transform="matrix(1.11103 0 0 .95795 1.95 .928)"/>
  <path fill="none" stroke="#717188" stroke-width=".735" d="M7.46 1.632a1.729 1.729 0 0 1 1.536.423" transform="matrix(1.11103 0 0 .95795 1.95 .928)"/>
  <path fill="none" stroke="#b9b9bc" stroke-width=".749" d="M6.542 5.358c-.776-.806-.83-2.176-.124-3.06a2.08 2.08 0 0 1 .041-.049" transform="matrix(1.06584 0 0 .96223 2.209 8.944)"/>
  <path fill="none" stroke="#717188" stroke-width=".749" d="M9.222 5.223c-.71.88-1.911.94-2.685.13-.051-.053-.1-.11-.146-.17" transform="matrix(1.06584 0 0 .96223 2.209 8.944)"/>
  <g stroke-width=".768">
    <path fill="url(#m)" stroke="url(#n)" d="M9.723 3.758c0 1.196-.851 2.166-1.9 2.166-1.05 0-1.901-.97-1.901-2.166s.85-2.165 1.9-2.165c1.05 0 1.9.97 1.9 2.165z" transform="matrix(1.05501 0 0 .99611 2.373 5.78)"/>
    <path fill="none" stroke="#717188" d="M6.173 2.683c.521-1.038 1.682-1.398 2.593-.804.25.162.462.386.624.656" transform="matrix(1.05501 0 0 .99611 2.373 5.78)"/>
    <path fill="none" stroke="#b8b8b8" d="M6.276 5.017c-.522-.833-.461-1.968.146-2.723" transform="matrix(1.05501 0 0 .99611 2.373 5.78)"/>
    <path fill="none" stroke="#b8b8b8" d="M6.17 4.828c-.433-.868-.289-1.962.35-2.647" transform="matrix(-1.05501 0 0 .99611 18.864 5.78)"/>
    <path fill="none" stroke="#888" d="M8.017 5.912c-.733.086-1.443-.318-1.823-1.037" transform="matrix(1.05501 0 0 .99611 2.373 5.78)"/>
  </g>
  <path fill="url(#o)" stroke="url(#p)" d="M3.5 1041.878h2.063v1.937h2v2.063H5.469v2.031H3.5v-2.031H1.437v-2.031H3.47z" transform="translate(0 -1036.362)"/>
</svg>
