<svg xmlns="http://www.w3.org/2000/svg" xmlns:xlink="http://www.w3.org/1999/xlink" width="16" height="16">
  <defs>
    <linearGradient id="c">
      <stop offset="0" stop-color="#4e8fbd"/>
      <stop offset="1" stop-color="#30495a"/>
    </linearGradient>
    <linearGradient id="b">
      <stop offset="0" stop-color="#8e4694"/>
      <stop offset="1" stop-color="#bc7bc1"/>
    </linearGradient>
    <linearGradient id="a">
      <stop offset="0" stop-color="#77a29d"/>
      <stop offset="1" stop-color="#1b867b"/>
    </linearGradient>
    <linearGradient xlink:href="#a" id="e" x1="4.848" x2="10.969" y1="1040.798" y2="1040.798" gradientTransform="translate(-.063 -.25)" gradientUnits="userSpaceOnUse"/>
    <linearGradient xlink:href="#b" id="f" x1="14.683" x2="9.646" y1="11.371" y2="11.371" gradientTransform="translate(-1.042 1035.343) scale(1.09692)" gradientUnits="userSpaceOnUse"/>
    <linearGradient xlink:href="#c" id="d" x1="-2.287" x2="-2.287" y1="1044.692" y2="1049.598" gradientTransform="matrix(1.15665 0 0 1.04135 5.172 -43.167)" gradientUnits="userSpaceOnUse"/>
  </defs>
  <path fill="url(#d)" d="M1.913 1038.399H2.96v9.043h2.095l-2.53 2.762-2.556-2.739h1.968z" transform="translate(0 -1036.362)"/>
  <path fill="url(#e)" stroke="#29776f" stroke-width=".2" d="M7.688 1037.487c-.351.01-.594.031-.594.031s-.625.178-1 .531c-.376.354-.548.801-.438 1 .11.2.334.326.688.282.353-.044.427-.287.781-.563.262-.204 1.077-.53 1.328.406.066.248-.031 1-.031 1s-1.576-.064-2.11.11c-.533.173-.694.23-1.014.74-.22.38-.277 1.13-.167 1.483.11.354.741 1.105 1.338 1.105.596 0 4.437-.031 4.437-.031v-.875h-.875v-3.688c0-.657-.631-1.433-1.25-1.5a9.467 9.467 0 0 0-1.094-.03zm-.282 3.563c.592 0 1.063.357 1.063.812 0 .455-.471.844-1.063.844-.591 0-1.093-.389-1.093-.844 0-.455.502-.812 1.093-.812z" transform="translate(0 -1036.362)"/>
  <path fill="url(#f)" stroke="#711a78" stroke-width=".219" d="M9.163 1044.508h5.696v1.527l-3.587 3.587v.606h2.036l1.575-1.842v2.787H9.114v-1.915l3.927-3.757h-2.182l-1.769 1.77z" transform="translate(0 -1036.362)"/>
</svg>
