<svg xmlns="http://www.w3.org/2000/svg" xmlns:xlink="http://www.w3.org/1999/xlink" width="16" height="16">
  <defs>
    <linearGradient id="e">
      <stop offset="0" stop-color="#d5f3ff"/>
      <stop offset="1" stop-color="#edfaff"/>
    </linearGradient>
    <linearGradient id="d">
      <stop offset="0" stop-color="#6f94bf"/>
      <stop offset="1" stop-color="#4476aa"/>
    </linearGradient>
    <linearGradient id="c">
      <stop offset="0" stop-color="#6fb6e2"/>
      <stop offset="1" stop-color="#cee3f3"/>
    </linearGradient>
    <linearGradient id="b">
      <stop offset="0" stop-color="#c6e26e"/>
      <stop offset="1" stop-color="#fafcf4"/>
    </linearGradient>
    <linearGradient id="a">
      <stop offset="0" stop-color="#8a97ac"/>
      <stop offset="1" stop-color="#bfb688"/>
    </linearGradient>
    <linearGradient xlink:href="#a" id="g" x1="688.319" x2="688.319" y1="317.174" y2="274.169" gradientTransform="translate(-53.757)" gradientUnits="userSpaceOnUse"/>
    <linearGradient xlink:href="#b" id="f" x1="666.816" x2="713.406" y1="267.001" y2="299.255" gradientTransform="translate(-53.757)" gradientUnits="userSpaceOnUse"/>
    <linearGradient xlink:href="#c" id="h" x1="666.816" x2="713.406" y1="277.753" y2="299.255" gradientTransform="matrix(1 0 0 .14286 -53.757 227.322)" gradientUnits="userSpaceOnUse"/>
    <linearGradient xlink:href="#d" id="i" x1="713.406" x2="666.816" y1="327.926" y2="327.926" gradientTransform="matrix(1 0 0 .14286 -53.757 227.322)" gradientUnits="userSpaceOnUse"/>
    <linearGradient xlink:href="#e" id="j" x1="668.608" x2="697.279" y1="271.481" y2="296.568" gradientTransform="matrix(.5 0 0 .28571 278.755 225.273)" gradientUnits="userSpaceOnUse"/>
    <linearGradient xlink:href="#a" id="k" x1="688.319" x2="690.111" y1="317.174" y2="183.678" gradientTransform="matrix(.5 0 0 .28571 278.755 225.273)" gradientUnits="userSpaceOnUse"/>
    <linearGradient xlink:href="#e" id="l" x1="668.608" x2="697.279" y1="271.481" y2="296.568" gradientTransform="matrix(.5 0 0 .28571 303.842 225.273)" gradientUnits="userSpaceOnUse"/>
    <linearGradient xlink:href="#a" id="m" x1="688.319" x2="690.111" y1="317.174" y2="183.678" gradientTransform="matrix(.5 0 0 .28571 303.842 225.273)" gradientUnits="userSpaceOnUse"/>
  </defs>
  <g stroke-width="3.584">
    <path fill="url(#f)" stroke="url(#g)" d="M611.267 265.209h50.173v50.173h-50.173z" transform="matrix(.27903 0 0 .27903 -169.064 -72.502)"/>
    <path fill="url(#h)" stroke="url(#i)" d="M611.267 265.209h50.173v7.168h-50.173z" transform="matrix(.27903 0 0 .27903 -169.064 -72.502)"/>
    <path fill="url(#j)" stroke="url(#k)" d="M611.267 301.047h25.087v14.335h-25.087z" transform="matrix(.27903 0 0 .27903 -169.064 -72.502)"/>
    <path fill="url(#l)" stroke="url(#m)" d="M636.354 301.047h25.087v14.335h-25.087z" transform="matrix(.27903 0 0 .27903 -169.064 -72.502)"/>
  </g>
</svg>
