<svg xmlns="http://www.w3.org/2000/svg" xmlns:xlink="http://www.w3.org/1999/xlink" width="16" height="16">
  <defs>
    <linearGradient id="b">
      <stop offset="0" stop-color="#c93e35"/>
      <stop offset="1" stop-color="#c8192a"/>
    </linearGradient>
    <linearGradient xlink:href="#a" id="d" x1="388.637" x2="388.637" y1="477.778" y2="458.681" gradientUnits="userSpaceOnUse"/>
    <linearGradient id="a">
      <stop offset="0" stop-color="#eb6d71"/>
      <stop offset=".5" stop-color="#f13f53"/>
      <stop offset="1" stop-color="#f7a29a"/>
    </linearGradient>
    <linearGradient xlink:href="#b" id="e" x1="393.438" x2="393.438" y1="458.681" y2="477.778" gradientUnits="userSpaceOnUse"/>
    <linearGradient id="c">
      <stop offset="0" stop-color="#c93e35"/>
      <stop offset="1" stop-color="#c8192a"/>
    </linearGradient>
    <linearGradient xlink:href="#c" id="f" x1="393.438" x2="393.438" y1="458.681" y2="477.778" gradientUnits="userSpaceOnUse"/>
  </defs>
  <path fill="url(#d)" stroke="url(#e)" stroke-linecap="round" stroke-linejoin="round" stroke-width="2.105" d="M398.75 468.237c0 5.868-4.757 10.625-10.625 10.625s-10.625-4.757-10.625-10.625 4.757-10.625 10.625-10.625 10.625 4.757 10.625 10.625z" transform="matrix(.47127 0 0 .47127 -174.415 -213.162)"/>
  <path fill="#fff" d="m11 3.156-6 7.188V11h.75l5.938-7.094v-.75z" color="#000" font-family="Sans" font-weight="400" overflow="visible" style="text-indent:0;text-align:start;line-height:normal;text-transform:none;block-progression:tb;marker:none;-inkscape-font-specification:Sans"/>
  <path fill="#fff" d="m14.188 1053.25.062 1c.224-.011.341.031.469.125.127.094.253.261.375.5.243.478.43 1.22.656 2 .226.78.505 1.615 1.031 2.281.526.667 1.366 1.149 2.469 1.125l-.031-1c-.838.018-1.283-.277-1.657-.75-.373-.473-.626-1.188-.843-1.937-.217-.75-.388-1.506-.719-2.157-.165-.325-.386-.652-.688-.875-.301-.222-.703-.333-1.124-.312z" color="#000" font-family="Sans" font-weight="400" overflow="visible" style="text-indent:0;text-align:start;line-height:normal;text-transform:none;block-progression:tb;marker:none;-inkscape-font-specification:Sans" transform="translate(-8.22 -1049.267)"/>
  <path fill="none" stroke="url(#f)" stroke-linecap="round" stroke-linejoin="round" stroke-width="2.105" d="M398.75 468.237c0 5.868-4.757 10.625-10.625 10.625s-10.625-4.757-10.625-10.625 4.757-10.625 10.625-10.625 10.625 4.757 10.625 10.625z" transform="matrix(.47127 0 0 .47127 -174.415 -213.162)"/>
</svg>
