<svg xmlns="http://www.w3.org/2000/svg" xmlns:xlink="http://www.w3.org/1999/xlink" width="16" height="16">
  <defs>
    <linearGradient xlink:href="#a" id="g" x1="12.518" x2="12.518" y1="1037.615" y2="1044.481" gradientUnits="userSpaceOnUse"/>
    <linearGradient id="a">
      <stop offset="0" stop-color="#567ead"/>
      <stop offset="1" stop-color="#35679d"/>
    </linearGradient>
    <linearGradient xlink:href="#a" id="h" x1="12.518" x2="12.518" y1="1037.615" y2="1044.481" gradientUnits="userSpaceOnUse"/>
    <linearGradient xlink:href="#a" id="i" x1="12.518" x2="12.518" y1="1037.615" y2="1044.481" gradientUnits="userSpaceOnUse"/>
    <linearGradient xlink:href="#b" id="j" x1="9.895" x2="9.895" y1="1039.153" y2="1051.838" gradientTransform="translate(-3.852 -1.044)" gradientUnits="userSpaceOnUse"/>
    <linearGradient id="b">
      <stop offset="0" stop-color="#f9fafc"/>
      <stop offset="1" stop-color="#dce7f7"/>
    </linearGradient>
    <linearGradient id="c">
      <stop offset="0" stop-color="#e0c88f"/>
      <stop offset="1" stop-color="#d5b269"/>
    </linearGradient>
    <linearGradient xlink:href="#c" id="k" x1="7.999" x2="9.987" y1="1042.231" y2="1040.33" gradientTransform="translate(.148 -1.044)" gradientUnits="userSpaceOnUse"/>
    <linearGradient id="d">
      <stop offset="0" stop-color="#bfb688"/>
      <stop offset="1" stop-color="#8392b0"/>
    </linearGradient>
    <linearGradient xlink:href="#d" id="l" x1="10.545" x2="10.545" y1="1038.578" y2="1052.323" gradientTransform="translate(-3.852 -1.044)" gradientUnits="userSpaceOnUse"/>
    <linearGradient id="e">
      <stop offset="0" stop-color="#91a5c7"/>
      <stop offset="1" stop-color="#5e76a3"/>
    </linearGradient>
    <linearGradient xlink:href="#e" id="m" x1="7.007" x2="11" y1="1043.857" y2="1043.857" gradientTransform="matrix(1.1551 0 0 .91447 -5.083 86.048)" gradientUnits="userSpaceOnUse"/>
    <linearGradient id="f">
      <stop offset="0" stop-color="#91a5c7"/>
      <stop offset="1" stop-color="#637aa7"/>
    </linearGradient>
    <linearGradient xlink:href="#f" id="n" x1="7.007" x2="14" y1="1045.857" y2="1045.857" gradientTransform="matrix(1.0515 0 0 .92873 -4.357 71.16)" gradientUnits="userSpaceOnUse"/>
  </defs>
  <g stroke="url(#g)" transform="translate(324.008 -1636.13)">
    <g fill="#fff" stroke="none" font-family="Sans" font-size="13.589" font-weight="400" letter-spacing="0" word-spacing="0">
      <g fill="#236298" stroke="#236298" stroke-width=".249" style="line-height:125%">
        <g font-family="AustralianFlyingCorpsStencil" font-size="11.052" style="text-align:start;line-height:125%;-inkscape-font-specification:AustralianFlyingCorpsStencil">
          <path fill="url(#j)" stroke="none" d="M1.645 1037.86h7.01l3.062 3.006v9.955H1.645z" transform="matrix(1.08485 0 0 1.08485 -323.259 511.711)"/>
          <path fill="url(#k)" stroke="none" d="M8.528 1037.397v3.695h3.574z" transform="matrix(1.08485 0 0 1.08485 -323.259 511.711)"/>
          <path fill="none" stroke="url(#l)" stroke-width=".922" d="M1.625 1037.86h7.03l3.105 3.006v9.912H1.625z" transform="matrix(1.08485 0 0 1.08485 -323.259 511.711)"/>
          <path fill="url(#m)" stroke="none" d="M3.011 1040.163h4.612v.924H3.011z" transform="matrix(1.08485 0 0 1.08485 -323.259 511.711)"/>
          <path fill="url(#n)" stroke="none" d="M3.011 1042.005h7.353v.938H3.011z" transform="matrix(1.08485 0 0 1.08485 -323.259 511.711)"/>
          <g stroke="none">
            <path fill="#fff" d="m11.653 1045.235-.856.733s-.081.815-.081 1.141c0 .326.367 1.1.367 1.1l.488.448s.693-.082.652-.244c-.04-.163.285-1.182.285-1.182s.082-.774-.04-1.018a29.897 29.897 0 0 0-.367-.693zM5.257 1045.235l-.855.733s-.082.815-.082 1.141c0 .326.367 1.1.367 1.1l.489.448s.692-.082.651-.244c-.04-.163.286-1.182.286-1.182s.081-.774-.041-1.018a29.897 29.897 0 0 0-.367-.693z" style="text-align:start;line-height:125%;-inkscape-font-specification:AustralianFlyingCorpsStencil" transform="matrix(1.19076 0 0 1.19076 -324.639 400.844)"/>
            <text xml:space="preserve" x="4.053" y="939.495" fill="#17325d" font-family="sans-serif" style="line-height:0%" transform="matrix(1.06637 0 0 1.32965 -324.639 400.844)"><tspan x="4.053" y="939.495" font-size="5.124" font-weight="700" style="line-height:1.25">010</tspan></text>
          </g>
        </g>
      </g>
    </g>
  </g>
</svg>
