<svg xmlns="http://www.w3.org/2000/svg" xmlns:xlink="http://www.w3.org/1999/xlink" width="16" height="16">
  <defs>
    <linearGradient id="a">
      <stop offset="0" stop-color="#414141"/>
      <stop offset="1" stop-color="#535353"/>
    </linearGradient>
    <linearGradient xlink:href="#a" id="b" x1="8.657" x2="8.657" y1="1050.739" y2="1037.7" gradientTransform="matrix(.66424 0 0 .74821 1.778 262.97)" gradientUnits="userSpaceOnUse"/>
  </defs>
  <path fill="#fff" stroke="url(#b)" stroke-linecap="round" d="M10.692 1040.106a.731.731 0 0 0-1.123 0l-2.068 2.33-2.067-2.33a.731.731 0 0 0-1.123 0l-.571.644a.973.973 0 0 0 0 1.264l2.067 2.33-2.067 2.328a.974.974 0 0 0 0 1.265l.571.644c.311.35.812.35 1.123 0l2.067-2.33 2.082 2.346a.73.73 0 0 0 1.123 0l.571-.644a.977.977 0 0 0 0-1.264l-2.082-2.345 2.068-2.33a.974.974 0 0 0 0-1.264z" transform="translate(0 -1036.362)"/>
</svg>
