<svg xmlns="http://www.w3.org/2000/svg" xmlns:xlink="http://www.w3.org/1999/xlink" width="16" height="16">
  <defs>
    <linearGradient id="b">
      <stop offset="0" stop-color="#17325d"/>
      <stop offset=".5" stop-color="#b7d2e4"/>
      <stop offset="1" stop-color="#3e72a7"/>
    </linearGradient>
    <linearGradient id="a">
      <stop offset="0" stop-color="#7e713d"/>
      <stop offset="1" stop-color="#b28a30"/>
    </linearGradient>
    <linearGradient xlink:href="#a" id="c" x1="20.3" x2="20.3" y1="1052.201" y2="1036.755" gradientTransform="matrix(1.25528 0 0 1.49082 -16.837 -509.374)" gradientUnits="userSpaceOnUse"/>
    <linearGradient xlink:href="#b" id="d" x1="3.975" x2="3.975" y1="1036.383" y2="1039.235" gradientTransform="matrix(-.04379 0 0 .96696 3.696 34.252)" gradientUnits="userSpaceOnUse"/>
    <linearGradient xlink:href="#b" id="e" x1="3.975" x2="3.975" y1="1036.383" y2="1039.235" gradientTransform="matrix(-.04379 0 0 .96696 5.696 34.252)" gradientUnits="userSpaceOnUse"/>
    <linearGradient xlink:href="#b" id="f" x1="3.975" x2="3.975" y1="1036.383" y2="1039.235" gradientTransform="matrix(-.04379 0 0 .96696 7.696 34.252)" gradientUnits="userSpaceOnUse"/>
    <linearGradient xlink:href="#b" id="g" x1="3.975" x2="3.975" y1="1036.383" y2="1039.235" gradientTransform="matrix(-.04379 0 0 .96696 9.696 34.252)" gradientUnits="userSpaceOnUse"/>
    <linearGradient xlink:href="#b" id="h" x1="3.975" x2="3.975" y1="1036.383" y2="1039.235" gradientTransform="matrix(-.04379 0 0 .96696 11.696 34.252)" gradientUnits="userSpaceOnUse"/>
  </defs>
  <g transform="translate(0 -1036.362)">
    <rect width="10" height="13" x="2.5" y="1037.862" fill="#fff" stroke="url(#c)" stroke-linejoin="round" rx=".379" ry=".379"/>
    <path fill="#b7d2e4" fill-rule="evenodd" stroke="#fff" d="M3 1037.862h9"/>
    <path fill="none" stroke="url(#d)" stroke-linecap="round" stroke-linejoin="bevel" d="M3.5 1036.87v1.985"/>
    <path fill="none" stroke="url(#e)" stroke-linecap="round" stroke-linejoin="bevel" d="M5.5 1036.87v1.985"/>
    <path fill="none" stroke="url(#f)" stroke-linecap="round" stroke-linejoin="bevel" d="M7.5 1036.87v1.985"/>
    <path fill="none" stroke="url(#g)" stroke-linecap="round" stroke-linejoin="bevel" d="M9.5 1036.87v1.985"/>
    <path fill="none" stroke="url(#h)" stroke-linecap="round" stroke-linejoin="bevel" d="M11.5 1036.87v1.985"/>
    <path fill="none" stroke="#317f5a" stroke-linecap="round" stroke-linejoin="round" d="m3.5 1043.862 3 3 6-6" transform="matrix(1 0 0 .99916 2.005 .878)"/>
  </g>
</svg>
