<svg xmlns="http://www.w3.org/2000/svg" xmlns:xlink="http://www.w3.org/1999/xlink" width="16" height="16">
  <defs>
    <linearGradient id="b">
      <stop offset="0" stop-color="#757c8a"/>
      <stop offset="1" stop-color="#c9c0c0"/>
    </linearGradient>
    <linearGradient id="c">
      <stop offset="0" stop-color="#2e49b0"/>
      <stop offset=".5" stop-color="#565f9e"/>
      <stop offset="1" stop-color="#8591c8" stop-opacity="0"/>
    </linearGradient>
    <linearGradient id="e">
      <stop offset="0" stop-color="#93b6eb"/>
      <stop offset="1" stop-color="#b0dffc"/>
    </linearGradient>
    <linearGradient id="a">
      <stop offset="0" stop-color="#84909f"/>
      <stop offset="1" stop-color="#757c8a"/>
    </linearGradient>
    <linearGradient id="d">
      <stop offset="0" stop-color="#c38536" stop-opacity="0"/>
      <stop offset=".154" stop-color="#f2dc91"/>
      <stop offset=".5" stop-color="#fbdc8b"/>
      <stop offset=".75" stop-color="#e6bd7a"/>
      <stop offset="1" stop-color="#ba772f" stop-opacity="0"/>
    </linearGradient>
    <linearGradient xlink:href="#a" id="g" x1="529.219" x2="531.093" y1="366.789" y2="371.179" gradientTransform="translate(-58.381 -1.484)" gradientUnits="userSpaceOnUse"/>
    <linearGradient xlink:href="#b" id="f" x1="392.468" x2="446.225" y1="356.287" y2="356.287" gradientTransform="translate(71.676)" gradientUnits="userSpaceOnUse"/>
    <linearGradient xlink:href="#c" id="k" x1="548.459" x2="548.459" y1="398.988" y2="373.771" gradientTransform="matrix(1.07908 0 0 .99598 -101.722 1.548)" gradientUnits="userSpaceOnUse"/>
    <linearGradient xlink:href="#d" id="i" x1="523.008" x2="543.914" y1="373.229" y2="373.229" gradientTransform="matrix(1.07908 0 0 .99598 -101.722 1.548)" gradientUnits="userSpaceOnUse"/>
    <linearGradient xlink:href="#e" id="h" x1="538.006" x2="538.006" y1="396.223" y2="374.212" gradientTransform="matrix(1.07908 0 0 .99598 -101.722 1.548)" gradientUnits="userSpaceOnUse"/>
    <mask id="j" maskUnits="userSpaceOnUse"/>
  </defs>
  <path fill="url(#f)" d="M464.144 352.703h53.757v7.168h-53.757z" transform="matrix(.27903 0 0 .27903 -129.512 -96.416)"/>
  <g transform="matrix(.33026 0 0 .33026 -150.61 -120.2)">
    <rect width="15" height="16.625" x="466.728" y="365.565" fill="#fdf7eb" stroke="url(#g)" stroke-linecap="round" stroke-linejoin="round" stroke-width="3.028" rx="2.625" ry="2.625"/>
    <path fill="url(#h)" stroke="#757c8a" stroke-linecap="round" stroke-linejoin="round" stroke-width="3.139" d="M463.574 371.545h30.264c1.569 0 2.832 1.166 2.832 2.614v22.311c0 1.449-1.263 2.63-2.832 2.615l-30.264-.306c-1.57-.016-2.833-1.166-2.833-2.614v-22.006c0-1.448 1.264-2.614 2.833-2.614z"/>
    <path fill="none" stroke="url(#i)" stroke-width="3.139" d="M463.02 371.545h21.105"/>
    <path fill="none" stroke="url(#k)" stroke-linecap="round" stroke-linejoin="round" stroke-width="3.139" d="M463.574 371.545h30.264c1.569 0 2.832 1.166 2.832 2.614v22.1c0 1.448-1.263 2.62-2.832 2.614l-30.264-.094c-1.57-.005-2.833-1.166-2.833-2.614v-22.006c0-1.448 1.264-2.614 2.833-2.614z"/>
  </g>
</svg>
