<svg xmlns="http://www.w3.org/2000/svg" xmlns:xlink="http://www.w3.org/1999/xlink" width="16" height="16">
  <defs>
    <linearGradient id="e">
      <stop offset="0" stop-color="#5b6c89"/>
      <stop offset="1" stop-color="#a0b0cc"/>
    </linearGradient>
    <linearGradient id="a">
      <stop offset="0" stop-color="#5b6c89"/>
      <stop offset="1" stop-color="#95a3ba"/>
    </linearGradient>
    <linearGradient xlink:href="#a" id="k" x1="15.001" x2="-8" y1="2" y2="1.375" gradientTransform="translate(-.031 1035.8)" gradientUnits="userSpaceOnUse"/>
    <linearGradient id="b">
      <stop offset="0" stop-color="#5b6c89"/>
      <stop offset="1" stop-color="#95a3ba"/>
    </linearGradient>
    <linearGradient xlink:href="#b" id="i" x1="15.001" x2="-3.264" y1="2" y2="2" gradientTransform="matrix(.93722 0 0 1 1036.398 -3.562)" gradientUnits="userSpaceOnUse"/>
    <linearGradient id="c">
      <stop offset="0" stop-color="#5b6c89"/>
      <stop offset="1" stop-color="#95a3ba"/>
    </linearGradient>
    <linearGradient xlink:href="#c" id="l" x1="15.001" x2="-17.188" y1="2" y2="2" gradientTransform="translate(-16.031 1037.8)" gradientUnits="userSpaceOnUse"/>
    <linearGradient id="d">
      <stop offset="0" stop-color="#5b6c89"/>
      <stop offset="1" stop-color="#95a3ba"/>
    </linearGradient>
    <linearGradient xlink:href="#d" id="h" x1="15.001" x2="-28.335" y1="2" y2="2" gradientTransform="matrix(.93722 0 0 1 1036.398 -16.625)" gradientUnits="userSpaceOnUse"/>
    <linearGradient xlink:href="#e" id="j" x1="1.945" x2="14.142" y1="3.073" y2="3.073" gradientTransform="matrix(.99638 0 0 1 .02 1035.8)" gradientUnits="userSpaceOnUse"/>
    <linearGradient xlink:href="#f" id="o" x1="24.929" x2="24.929" y1="1038.366" y2="1044.562" gradientTransform="matrix(.728 0 0 .728 20.937 283.974)" gradientUnits="userSpaceOnUse"/>
    <linearGradient xlink:href="#g" id="n" x1="22.519" x2="22.519" y1="1042.028" y2="1040.735" gradientTransform="matrix(.728 0 0 .728 20.937 283.974)" gradientUnits="userSpaceOnUse"/>
    <linearGradient id="f">
      <stop offset="0" stop-color="#bd8416"/>
      <stop offset="1" stop-color="#a66b10"/>
    </linearGradient>
    <linearGradient id="g">
      <stop offset="0" stop-color="#f9cd5f"/>
      <stop offset="1" stop-color="#fbf0b4"/>
    </linearGradient>
    <filter id="m" width="1.389" height="1.389" x="-.194" y="-.194">
      <feGaussianBlur stdDeviation=".486"/>
    </filter>
  </defs>
  <path fill="#fff" d="M.941 1037.348h14.142v13.17H.941z" color="#000" enable-background="accumulate" overflow="visible" style="marker:none" transform="translate(0 -1036.362)"/>
  <path fill="#5b6c89" d="M-1042.518 2h1.125v12.094h-1.125z" color="#000" enable-background="accumulate" opacity=".349" overflow="visible" style="marker:none" transform="matrix(0 -1 1 0 0 -1036.362)"/>
  <path fill="#5b6c89" d="M5.094 1037.425h1.125v12.938H5.094z" color="#000" enable-background="accumulate" opacity=".349" overflow="visible" style="marker:none" transform="translate(0 -1036.362)"/>
  <path fill="url(#h)" d="M1037.393-15.063h13.063v1h-13.063z" color="#000" enable-background="accumulate" overflow="visible" style="marker:none" transform="rotate(90 518.181 -518.181)"/>
  <path fill="url(#i)" d="M1037.393-2h13.063v1h-13.063z" color="#000" enable-background="accumulate" overflow="visible" style="marker:none" transform="rotate(90 518.181 -518.181)"/>
  <path fill="url(#j)" d="M1.957 1038.276H14.11v1.193H1.957z" color="#000" enable-background="accumulate" opacity=".676" overflow="visible" style="marker:none" transform="translate(0 -1036.362)"/>
  <path fill="url(#k)" d="M1.031 1037.362h13.938v1H1.031z" color="#000" enable-background="accumulate" overflow="visible" style="marker:none" transform="translate(0 -1036.362)"/>
  <path fill="url(#l)" d="M-14.969 1039.362h13.938v1h-13.938z" color="#000" enable-background="accumulate" overflow="visible" style="marker:none" transform="matrix(-1 0 0 1 0 -1036.362)"/>
  <path fill="#5b6c89" d="M1.031 1049.425h14.063v1H1.031z" color="#000" enable-background="accumulate" overflow="visible" style="marker:none" transform="translate(0 -1036.362)"/>
  <path fill="#5b6c89" d="M-1044.728 1.938h1.125v12.125h-1.125zM-1047.026 1.969h1.125v12.094h-1.125zM-1049.369 2h1.125v12.063h-1.125z" color="#000" enable-background="accumulate" opacity=".349" overflow="visible" style="marker:none" transform="matrix(0 -1 1 0 0 -1036.362)"/>
  <path fill="#fff" d="M8 11a3 3 0 1 1-6 0 3 3 0 0 1 6 0z" filter="url(#m)" transform="matrix(1.72917 0 0 1.72917 2.854 -6.958)"/>
  <path fill="url(#n)" stroke="url(#o)" stroke-width=".582" d="M38.107 1040.598v-1.158s-.258-.611-.998-.032c-.74.58-1.608 1.512-1.737 1.77-.129.257-.676.707.064 1.415.74.708 1.544 1.448 1.544 1.448s1.127 1.062 1.127.064v-1.32c.994-.045 1.233.26 1.485.502.251.243.591 1.433.887 1.524.296.091.455-1.592.455-1.91 0-.32-.127-.907-.523-1.434-.214-.285-.733-.696-1.115-.8-.382-.106-1.19-.069-1.19-.069z" transform="matrix(1.31703 0 0 1.40445 -38.612 -1451.905)"/>
  <path fill="#fff" d="M10.97 9.266v-.61s.105-.384-.213-.249c-.318.136-.932.678-.996.791-.063.112-.72.61-.572.836.149.226 1.399.067 1.399.067z" opacity=".857"/>
</svg>
