<svg xmlns="http://www.w3.org/2000/svg" width="16" height="16">
  <path fill="#88aeca" stroke="#3d6e94" stroke-width="1.396" d="M14.363 7.912a6.806 6.806 0 1 1-13.612 0 6.806 6.806 0 0 1 13.612 0z" color="#000" overflow="visible" style="marker:none" transform="matrix(.9309 0 0 .9309 1.102 .543)"/>
  <path fill="none" stroke="#3d6e94" stroke-width="2.578" d="M14.363 7.912a6.806 6.806 0 1 1-13.612 0 6.806 6.806 0 0 1 13.612 0z" color="#000" overflow="visible" style="marker:none" transform="translate(4.414 4.006) scale(.50434)"/>
  <path fill="#3d6e94" stroke="#3d6e94" stroke-width="2.03" d="M14.363 7.912a6.806 6.806 0 1 1-13.612 0 6.806 6.806 0 0 1 13.612 0z" color="#000" overflow="visible" style="marker:none" transform="matrix(.23264 0 0 .23264 6.53 6.094)"/>
  <path fill="none" stroke="#fff" stroke-width="1.338" d="M12.251 8.451h-1.505l-4.182 8.196h9.701z"/>
  <path fill="#3977b0" stroke="#1e64a3" d="M12.162 9.313h-1.125l-3.125 6.124h7.25z"/>
</svg>
