<svg xmlns="http://www.w3.org/2000/svg" xmlns:xlink="http://www.w3.org/1999/xlink" width="16" height="16">
  <defs>
    <linearGradient id="d">
      <stop offset="0" stop-color="#9e6627"/>
      <stop offset="1" stop-color="#bc8532"/>
    </linearGradient>
    <linearGradient id="e">
      <stop offset="0" stop-color="#f8d078"/>
      <stop offset="1" stop-color="#f8f0c8"/>
    </linearGradient>
    <linearGradient id="a">
      <stop offset="0" stop-color="#c48a4e"/>
      <stop offset="1" stop-color="#ad6c24"/>
    </linearGradient>
    <linearGradient id="b">
      <stop offset="0" stop-color="#c38536"/>
      <stop offset=".154" stop-color="#f2dc91"/>
      <stop offset=".5" stop-color="#fbdc8b"/>
      <stop offset=".75" stop-color="#e6bd7a"/>
      <stop offset="1" stop-color="#ba772f"/>
    </linearGradient>
    <linearGradient id="f">
      <stop offset="0" stop-color="#9e6627"/>
      <stop offset="1" stop-color="#c38536"/>
    </linearGradient>
    <linearGradient xlink:href="#a" id="g" x1="531.093" x2="531.093" y1="366.789" y2="371.179" gradientTransform="translate(-61.367 1.445)" gradientUnits="userSpaceOnUse"/>
    <linearGradient xlink:href="#b" id="j" x1="523.008" x2="543.914" y1="373.229" y2="373.229" gradientTransform="translate(-60.559 1.419)" gradientUnits="userSpaceOnUse"/>
    <linearGradient id="c">
      <stop offset="0" stop-color="#f8d078"/>
      <stop offset="1" stop-color="#f8f0c8"/>
    </linearGradient>
    <linearGradient xlink:href="#c" id="m" x1="537.943" x2="538.833" y1="397.561" y2="381.572" gradientTransform="matrix(1 0 0 1.41657 344.324 0)" gradientUnits="userSpaceOnUse"/>
    <linearGradient xlink:href="#d" id="n" x1="548.459" x2="548.016" y1="398.988" y2="381.198" gradientTransform="matrix(1 0 0 1.41657 344.324 0)" gradientUnits="userSpaceOnUse"/>
    <linearGradient xlink:href="#e" id="h" x1="538.006" x2="538.006" y1="396.223" y2="374.212" gradientTransform="translate(-60.559)" gradientUnits="userSpaceOnUse"/>
    <linearGradient xlink:href="#f" id="i" x1="548.459" x2="548.459" y1="398.988" y2="373.771" gradientTransform="translate(-60.559)" gradientUnits="userSpaceOnUse"/>
    <filter id="l" width="1.275" height="1.755" x="-.138" y="-.377">
      <feGaussianBlur stdDeviation="3.562"/>
    </filter>
    <mask id="k" maskUnits="userSpaceOnUse"/>
  </defs>
  <g transform="matrix(.33026 0 0 .33026 -150.61 -118.2)">
    <rect width="15" height="16.625" x="463.743" y="368.495" fill="#fdf7eb" stroke="url(#g)" stroke-linecap="round" stroke-linejoin="round" stroke-width="3.028" rx="2.625" ry="2.625"/>
    <path fill="url(#h)" stroke="url(#i)" stroke-linecap="round" stroke-linejoin="round" stroke-width="3.028" d="M463.249 374.648h28.075a2.62 2.62 0 0 1 2.625 2.625v11.294c0 1.454-1.22 2.246-2.625 2.625l-28.075 7.57c-1.404.378-2.625-1.171-2.625-2.625v-18.864a2.62 2.62 0 0 1 2.625-2.625z"/>
    <path fill="none" stroke="url(#j)" stroke-width="3.028" d="M462.262 374.648h20.093"/>
    <g mask="url(#k)">
      <rect width="24.878" height="22.649" x="860.685" y="542.897" stroke="#000" stroke-linecap="round" stroke-linejoin="round" stroke-width="2.38" filter="url(#l)" opacity=".5" rx="2.625" ry="3.718" transform="matrix(1 0 -.70828 .70593 0 0)"/>
    </g>
    <rect width="30.475" height="21.378" x="860.685" y="543.567" fill="url(#m)" stroke="url(#n)" stroke-linecap="round" stroke-linejoin="round" stroke-width="3.604" rx="2.625" ry="3.718" transform="skewX(-45.095) scale(1 .70593)"/>
  </g>
</svg>
