<svg xmlns="http://www.w3.org/2000/svg" xmlns:xlink="http://www.w3.org/1999/xlink" width="16" height="16">
  <defs>
    <linearGradient id="c">
      <stop offset="0" stop-color="#c7e3e7"/>
      <stop offset="1" stop-color="#fff"/>
    </linearGradient>
    <linearGradient id="a">
      <stop offset="0" stop-color="#daedef"/>
      <stop offset="1" stop-color="#fff"/>
    </linearGradient>
    <linearGradient id="b">
      <stop offset="0" stop-color="#c89840"/>
      <stop offset="1" stop-color="#798da2"/>
    </linearGradient>
    <linearGradient id="e">
      <stop offset="0" stop-color="#85c2cb"/>
      <stop offset="1" stop-color="#fff" stop-opacity="0"/>
    </linearGradient>
    <linearGradient id="d">
      <stop offset="0" stop-color="#85c2cb"/>
      <stop offset="1" stop-color="#fff" stop-opacity="0"/>
    </linearGradient>
    <linearGradient xlink:href="#a" id="l" x1="5.115" x2="12.52" y1="1044.737" y2="1044.737" gradientTransform="matrix(1.047 0 0 1.01887 4.384 -19.252)" gradientUnits="userSpaceOnUse"/>
    <linearGradient xlink:href="#b" id="m" x1="11.978" x2="5.926" y1="1042.128" y2="1051.254" gradientTransform="matrix(1.047 0 0 1.01887 4.384 -22.404)" gradientUnits="userSpaceOnUse"/>
    <linearGradient xlink:href="#c" id="k" x1="5.115" x2="12.52" y1="1044.737" y2="1044.737" gradientUnits="userSpaceOnUse"/>
    <linearGradient xlink:href="#d" id="q" x1="5.115" x2="12.52" y1="1044.737" y2="1044.737" gradientTransform="matrix(1.39728 0 0 1.64395 -23.319 -2758.956)" gradientUnits="userSpaceOnUse"/>
    <linearGradient xlink:href="#e" id="p" x1="5.115" x2="12.52" y1="1044.737" y2="1044.737" gradientTransform="matrix(1.39728 0 0 1.64395 -23.319 -672.919)" gradientUnits="userSpaceOnUse"/>
    <linearGradient xlink:href="#e" id="o" x1="5.115" x2="12.52" y1="1044.737" y2="1044.737" gradientTransform="matrix(1.39728 0 0 1.64395 -23.319 -672.919)" gradientUnits="userSpaceOnUse"/>
    <linearGradient xlink:href="#f" id="s" x1="4.5" x2="4.5" y1="1044.354" y2="1046.49" gradientUnits="userSpaceOnUse"/>
    <linearGradient xlink:href="#g" id="t" x1="11.063" x2="11.063" y1="1038.55" y2="1049.912" gradientUnits="userSpaceOnUse"/>
    <linearGradient id="g">
      <stop offset="0" stop-color="#ba7f0d"/>
      <stop offset="1" stop-color="#a2660b"/>
    </linearGradient>
    <linearGradient id="f">
      <stop offset="0" stop-color="#ffe"/>
      <stop offset="1" stop-color="#ffecad"/>
    </linearGradient>
    <linearGradient id="h">
      <stop offset="0" stop-color="#85c2cb"/>
      <stop offset="1" stop-color="#fff" stop-opacity="0"/>
    </linearGradient>
    <linearGradient xlink:href="#h" id="r" x1="5.115" x2="12.52" y1="1044.737" y2="1044.737" gradientTransform="matrix(1.39728 0 0 1.64395 -27.34 -672.919)" gradientUnits="userSpaceOnUse"/>
    <linearGradient id="j">
      <stop offset="0" stop-color="#85c2cb"/>
      <stop offset="1" stop-color="#fff" stop-opacity="0"/>
    </linearGradient>
    <linearGradient xlink:href="#i" id="u" x1="5.115" x2="12.52" y1="1044.737" y2="1044.737" gradientTransform="matrix(1.39728 0 0 1.64395 -27.34 -678.885)" gradientUnits="userSpaceOnUse"/>
    <linearGradient id="i">
      <stop offset="0" stop-color="#85c2cb"/>
      <stop offset="1" stop-color="#fff" stop-opacity="0"/>
    </linearGradient>
    <linearGradient xlink:href="#j" id="n" x1="5.115" x2="12.52" y1="1044.737" y2="1044.737" gradientTransform="matrix(1.39728 0 0 1.64395 -23.319 -678.885)" gradientUnits="userSpaceOnUse"/>
  </defs>
  <path fill="url(#l)" stroke="url(#m)" stroke-width=".639" d="M9.678 1040.099v8.576h6.13v-5.238l-.032-3.34-1.096.01z" color="#000" overflow="visible" style="marker:none" transform="matrix(1.63223 0 0 1.63223 -10.27 -1696.149)"/>
  <path fill="url(#n)" stroke="#798da2" stroke-opacity=".396" stroke-width=".768" d="M-10.707 1039.938h2.22v.241h-2.22z" color="#000" overflow="visible" style="marker:none" transform="matrix(-1 0 0 1 -.097 -1034.512)"/>
  <path fill="url(#o)" stroke="#798da2" stroke-opacity=".396" stroke-width=".694" d="M-13.832 1047.763h6.4v.422h-6.4z" color="#000" overflow="visible" style="marker:none" transform="matrix(-1 0 0 1 -.097 -1034.512)"/>
  <path fill="url(#p)" stroke="#798da2" stroke-opacity=".396" stroke-width=".768" d="M-10.707 1045.905h2.22v.241h-2.22z" color="#000" overflow="visible" style="marker:none" transform="matrix(-1 0 0 1 -.097 -1034.512)"/>
  <path fill="url(#q)" stroke="#798da2" stroke-opacity=".396" stroke-width=".694" d="M-13.753-1038.204h6.304v.321h-6.304z" color="#000" overflow="visible" style="marker:none" transform="rotate(180 -.049 -517.256)"/>
  <path fill="url(#r)" stroke="#798da2" stroke-opacity=".396" stroke-width=".768" d="M-13.712 1045.905h1.203v.241h-1.203z" color="#000" overflow="visible" style="marker:none" transform="matrix(-1 0 0 1 -.097 -1034.512)"/>
  <path fill="#fff" stroke="#fff" stroke-linecap="round" stroke-linejoin="round" stroke-width="1.2122112" d="M5.637 3.607v2.716l-.054 4.857v2.202h.79l5.345-4.684-5.292-5.091z"/>
  <path fill="url(#s)" stroke="url(#t)" stroke-linecap="round" stroke-linejoin="round" stroke-width="1.536" d="M8.738 1038.526v3.204H2.244c-.668 0-1.22.55-1.22 1.219v3.692c0 .668.552 1.219 1.22 1.219H8.67v3h1l6.772-5.785-6.704-6.549z" transform="translate(-.118 -671.7) scale(.65104)"/>
  <path fill="#798da2" stroke="#35526f" stroke-width=".5" d="M11.302 7.35h2.47v2.472h-2.47z"/>
  <path fill="url(#u)" stroke="#798da2" stroke-opacity=".396" stroke-width=".768" d="M-13.712 1039.938h1.203v.241h-1.203z" color="#000" overflow="visible" style="marker:none" transform="matrix(-1 0 0 1 -.097 -1034.512)"/>
</svg>
