<svg xmlns="http://www.w3.org/2000/svg" xmlns:xlink="http://www.w3.org/1999/xlink" width="16" height="16">
  <defs>
    <linearGradient xlink:href="#a" id="l" x1="25.368" x2="33.89" y1="1054.82" y2="1054.82" gradientTransform="rotate(45 -60.27 990.31) scale(.93468)" gradientUnits="userSpaceOnUse"/>
    <linearGradient xlink:href="#b" id="p" x1="25.367" x2="33.89" y1="1051.407" y2="1051.407" gradientTransform="rotate(45 -60.27 990.31) scale(.93468)" gradientUnits="userSpaceOnUse"/>
    <linearGradient xlink:href="#c" id="k" x1="26.107" x2="33.163" y1="1045.95" y2="1045.95" gradientTransform="rotate(45 -60.27 990.31) scale(.93468)" gradientUnits="userSpaceOnUse"/>
    <linearGradient xlink:href="#d" id="o" x1="26.452" x2="32.842" y1="1052.004" y2="1052.004" gradientTransform="rotate(45 -60.27 990.31) scale(.93468)" gradientUnits="userSpaceOnUse"/>
    <linearGradient xlink:href="#e" id="n" x1="25.982" x2="33.276" y1="1056.969" y2="1056.969" gradientTransform="rotate(45 -60.27 990.31) scale(.93468)" gradientUnits="userSpaceOnUse"/>
    <linearGradient xlink:href="#f" id="m" x1="26.881" x2="32.472" y1="1056.969" y2="1056.969" gradientTransform="rotate(45 -60.27 990.31) scale(.93468)" gradientUnits="userSpaceOnUse"/>
    <linearGradient xlink:href="#g" id="j" x1="27.01" x2="32.177" y1="1046.132" y2="1046.132" gradientTransform="rotate(45 -60.27 990.31) scale(.93468)" gradientUnits="userSpaceOnUse"/>
    <linearGradient xlink:href="#h" id="i" x1="29.715" x2="29.715" y1="1041.326" y2="1039.139" gradientTransform="rotate(45 -60.257 990.316) scale(.93468)" gradientUnits="userSpaceOnUse"/>
    <linearGradient id="h">
      <stop offset="0" stop-color="#906f4e"/>
      <stop offset="1" stop-color="#dfbd7f"/>
    </linearGradient>
    <linearGradient id="d">
      <stop offset="0" stop-color="#bbb8bb"/>
      <stop offset=".25" stop-color="#ccc8cb"/>
      <stop offset=".5" stop-color="#bdb6bc"/>
      <stop offset="1" stop-color="#9b8c98"/>
    </linearGradient>
    <linearGradient id="f">
      <stop offset="0" stop-color="#fef48d"/>
      <stop offset=".325" stop-color="#fffffe"/>
      <stop offset=".664" stop-color="#fffffe"/>
      <stop offset="1" stop-color="#fef48d"/>
    </linearGradient>
    <linearGradient id="e">
      <stop offset="0" stop-color="#e4a239"/>
      <stop offset="1" stop-color="#fada7d"/>
    </linearGradient>
    <linearGradient id="g">
      <stop offset="0" stop-color="#f4d684"/>
      <stop offset=".25" stop-color="#fcf4c6"/>
      <stop offset=".5" stop-color="#fbeebc"/>
      <stop offset="1" stop-color="#eeb960"/>
    </linearGradient>
    <linearGradient id="c">
      <stop offset="0" stop-color="#f0a53b"/>
      <stop offset=".269" stop-color="#f2d58f"/>
      <stop offset=".604" stop-color="#efb965"/>
      <stop offset="1" stop-color="#df9833"/>
    </linearGradient>
    <linearGradient id="b">
      <stop offset="0" stop-color="#ad8e5f"/>
      <stop offset="1" stop-color="#8f6e4d"/>
    </linearGradient>
    <linearGradient id="a">
      <stop offset="0" stop-color="#ad8e5f"/>
      <stop offset="1" stop-color="#8f6e4d"/>
    </linearGradient>
  </defs>
  <g transform="translate(0 -1036.362)">
    <path fill="#e09a36" stroke="url(#i)" d="m14.08 1038.953-2.121.708 2.828 2.828.707-2.121c.314-.94-.715-1.723-1.414-1.415z"/>
    <path fill="url(#j)" stroke="url(#k)" stroke-width=".935" d="M11.35 1039.096c1.914-.25 4.205 2.216 4.002 4.002l-5.679 5.679-4.002-4.002z"/>
    <path fill="#496da1" d="M12.764 1041.388a7.284 7.284 0 0 0-.774-.64l-1.59 1.59c.263.19.522.405.773.642z" color="#000" font-family="Sans" font-weight="400" overflow="visible" style="line-height:normal;-inkscape-font-specification:Sans;text-indent:0;text-align:start;text-decoration-line:none;text-transform:none;block-progression:tb;marker:none"/>
    <path fill="#ffffc9" stroke="url(#l)" stroke-width=".935" d="M5.911 1048.55c-1.022-1.022-2.282-1.811-3.182-1.811l-.376.375c0 1.8 3.196 4.972 4.972 4.972l.376-.376c0-.888-.77-2.136-1.79-3.16z"/>
    <path fill="url(#m)" stroke="url(#n)" stroke-width=".822" d="m4.501 1045.7-8.014 8.013 4.239 4.24 8.014-8.015z"/>
    <path fill="url(#o)" stroke="url(#p)" stroke-linejoin="round" stroke-miterlimit="3" stroke-width=".935" d="m5.624 1043.844-2.895 2.895c2.443-.093 5.13 2.663 4.972 4.971l2.895-2.894c.845-2.509-2.329-5.67-4.972-4.972z"/>
    <circle cx="5.477" cy="1041.807" r="3.952" fill="#f6fcff" stroke="#4f627e" stroke-linecap="round" stroke-linejoin="round" stroke-width=".558"/>
    <path fill="#64768f" d="M6.004 1042.594H4.741v-.15a.84.84 0 0 1 .116-.441c.077-.13.239-.295.486-.494l.224-.177c.133-.105.23-.205.29-.298a.498.498 0 0 0 .095-.28.384.384 0 0 0-.168-.333c-.112-.08-.268-.121-.469-.121a2.03 2.03 0 0 0-.612.103c-.22.067-.448.168-.686.302v-.957c.283-.085.54-.148.773-.189.234-.04.459-.06.676-.06.568 0 1.002.1 1.3.304.3.2.448.495.448.883 0 .2-.045.378-.136.537-.09.156-.246.324-.465.505l-.224.174a1.465 1.465 0 0 0-.311.305.448.448 0 0 0-.074.25v.136m-1.263.451h1.263v1.085H4.741v-1.085" font-family="Sans" font-size="12" font-weight="700" letter-spacing="0" style="line-height:125%;-inkscape-font-specification:&quot;Sans Bold&quot;" word-spacing="0"/>
  </g>
</svg>
