<svg xmlns="http://www.w3.org/2000/svg" xmlns:xlink="http://www.w3.org/1999/xlink" width="16" height="16">
  <defs>
    <linearGradient id="a">
      <stop offset="0" stop-color="#02468c"/>
      <stop offset="1" stop-color="#0e62a4"/>
    </linearGradient>
    <linearGradient xlink:href="#a" id="d" x1="13.903" x2="13.903" y1="1062.135" y2="1051.735" gradientTransform="translate(2)" gradientUnits="userSpaceOnUse"/>
    <linearGradient id="b">
      <stop offset="0" stop-color="#02468c"/>
      <stop offset="1" stop-color="#0e62a4"/>
    </linearGradient>
    <linearGradient xlink:href="#b" id="g" x1="13.903" x2="13.903" y1="1062.135" y2="1051.735" gradientTransform="translate(38.47 55.035)" gradientUnits="userSpaceOnUse"/>
    <linearGradient xlink:href="#a" id="e" x1="13.903" x2="13.903" y1="1062.135" y2="1051.735" gradientTransform="matrix(.97705 0 0 1 2.25 0)" gradientUnits="userSpaceOnUse"/>
    <linearGradient id="c">
      <stop offset="0" stop-color="#fff"/>
      <stop offset="1" stop-color="#fff" stop-opacity="0"/>
    </linearGradient>
    <linearGradient xlink:href="#c" id="f" x1="16.11" x2="14.695" y1="1057.573" y2="1057.573" gradientTransform="matrix(.97705 0 0 1 2.25 0)" gradientUnits="userSpaceOnUse"/>
  </defs>
  <g font-family="Kozuka Mincho Pr6N H" font-weight="900" letter-spacing="0" word-spacing="0">
    <g fill="url(#d)" font-size="15.072" style="text-align:start;line-height:125%;-inkscape-font-specification:Kozuka Mincho Pr6N H Heavy" transform="translate(-8.22 -1049.267)">
      <path fill="url(#e)" d="M16.169 1050.918c-.348.01-.636.129-.865.367-.23.238-.349.553-.358.944.01.398.128.717.358.957.23.24.517.363.865.37.354-.01.647-.13.878-.37.23-.24.35-.559.359-.957-.006-.378-.12-.689-.343-.933-.222-.244-.52-.37-.894-.378zm.927 3.39c-1.016.436-1.973.682-2.871.74v.602c.426-.02.693.04.802.177.11.139.156.477.14 1.014v3.452c.015.54-.033.888-.145 1.043-.112.156-.378.225-.797.208v.633h3.99v-.633c-.377.017-.62-.051-.726-.206-.107-.154-.155-.498-.142-1.03v-5.863z"/>
      <path fill="url(#f)" d="M16.169 1050.918c-.348.01-.636.129-.865.367-.23.238-.349.553-.358.944.01.398.128.717.358.957.23.24.517.363.865.37.354-.01.647-.13.878-.37.23-.24.35-.559.359-.957-.006-.378-.12-.689-.343-.933-.222-.244-.52-.37-.894-.378zm.927 3.39c-1.016.436-1.973.682-2.871.74v.602c.426-.02.693.04.802.177.11.139.156.477.14 1.014v3.452c.015.54-.033.888-.145 1.043-.112.156-.378.225-.797.208v.633h3.99v-.633c-.377.017-.62-.051-.726-.206-.107-.154-.155-.498-.142-1.03v-5.863z" style="text-align:start;line-height:125%;-inkscape-font-specification:Kozuka Mincho Pr6N H Heavy"/>
    </g>
    <text xml:space="preserve" x="50.288" y="1117.212" fill="url(#g)" style="line-height:0%;-inkscape-font-specification:&quot;Kozuka Mincho Pr6N H Heavy&quot;;text-align:start" transform="translate(-8.22 -1049.267)"><tspan x="50.288" y="1117.212" font-size="15.072" style="line-height:1.25">Kozuka Mincho Pr6N H</tspan></text>
  </g>
</svg>
