<svg xmlns="http://www.w3.org/2000/svg" xmlns:xlink="http://www.w3.org/1999/xlink" width="16" height="16">
  <defs>
    <linearGradient id="d">
      <stop offset="0" stop-color="#7792b2"/>
      <stop offset=".159" stop-color="#a1b3cb"/>
      <stop offset=".466" stop-color="#6180a9"/>
      <stop offset=".744" stop-color="#a1b3cb"/>
      <stop offset="1" stop-color="#7995b8"/>
    </linearGradient>
    <linearGradient id="e">
      <stop offset="0" stop-color="#fdfcfa"/>
      <stop offset=".674" stop-color="#fff" stop-opacity=".251"/>
      <stop offset="1" stop-color="#d2e0f1" stop-opacity="0"/>
    </linearGradient>
    <linearGradient id="c">
      <stop offset="0" stop-color="#d2e0f1"/>
      <stop offset=".841" stop-color="#d2e0f1"/>
      <stop offset="1" stop-color="#fcf2cf"/>
    </linearGradient>
    <linearGradient id="b">
      <stop offset="0" stop-color="#c7a229"/>
      <stop offset="1" stop-color="#a07e1e"/>
    </linearGradient>
    <linearGradient id="a">
      <stop offset="0" stop-color="#fefdef"/>
      <stop offset="1" stop-color="#fbdd83"/>
    </linearGradient>
    <linearGradient xlink:href="#a" id="m" x1="25.083" x2="31.932" y1="1038.872" y2="1038.872" gradientTransform="matrix(.97322 0 0 .91424 -19.244 89.085)" gradientUnits="userSpaceOnUse"/>
    <linearGradient xlink:href="#b" id="n" x1="27.425" x2="27.425" y1="1037.767" y2="1039.846" gradientTransform="matrix(.97322 0 0 .91424 -19.244 89.085)" gradientUnits="userSpaceOnUse"/>
    <linearGradient xlink:href="#d" id="l" x1="33.923" x2="33.923" y1="1051.258" y2="1040.46" gradientTransform="matrix(.9968 0 0 1 -19.916 -.042)" gradientUnits="userSpaceOnUse"/>
    <linearGradient xlink:href="#f" id="o" x1="6.664" x2="6.664" y1="1051.277" y2="1052.943" gradientTransform="matrix(.7615 0 0 .7071 .423 305.9)" gradientUnits="userSpaceOnUse"/>
    <linearGradient id="f">
      <stop offset="0" stop-color="#c1723f"/>
      <stop offset="1" stop-color="#b04814"/>
    </linearGradient>
    <linearGradient xlink:href="#g" id="p" x1="3.188" x2="3.188" y1="1048.362" y2="1046.362" gradientTransform="translate(1.813)" gradientUnits="userSpaceOnUse"/>
    <linearGradient id="g">
      <stop offset="0" stop-color="#1b844b"/>
      <stop offset="1" stop-color="#299962"/>
    </linearGradient>
    <linearGradient xlink:href="#h" id="q" x1="3.188" x2="3.188" y1="1048.362" y2="1046.362" gradientTransform="translate(.812 -2)" gradientUnits="userSpaceOnUse"/>
    <linearGradient id="h">
      <stop offset="0" stop-color="#17477c"/>
      <stop offset="1" stop-color="#40a5da"/>
    </linearGradient>
    <linearGradient xlink:href="#i" id="r" x1="929.286" x2="938.378" y1="473.219" y2="473.219" gradientTransform="translate(.83 -1.936)" gradientUnits="userSpaceOnUse"/>
    <linearGradient id="i">
      <stop offset="0" stop-color="#e0a010"/>
      <stop offset="1" stop-color="#c87810"/>
    </linearGradient>
    <radialGradient xlink:href="#c" id="j" cx="28.539" cy="1043.182" r="5.391" fx="28.539" fy="1043.182" gradientTransform="matrix(0 1.43464 -1.60774 0 1685.704 1001.966)" gradientUnits="userSpaceOnUse"/>
    <radialGradient xlink:href="#e" id="k" cx="28.553" cy="1043.123" r="5.016" fx="28.553" fy="1043.123" gradientTransform="matrix(.88536 .01424 -.02078 1.29183 4.948 -305.152)" gradientUnits="userSpaceOnUse"/>
  </defs>
  <g transform="translate(0 -1036.362)">
    <path fill="url(#j)" d="M6.253 1039.27h4.508c.453 1.69 2.762 2.59 2.762 5.115v3.757a2.756 2.756 0 0 1-2.762 2.762H6.253a2.756 2.756 0 0 1-2.762-2.762v-3.757c0-2.59 2.335-3.52 2.762-5.115z"/>
    <path fill="url(#k)" d="M6.253 1039.27h4.508c.453 1.69 2.762 2.59 2.762 5.115v3.757a2.756 2.756 0 0 1-2.762 2.762H6.253a2.756 2.756 0 0 1-2.762-2.762v-3.757c0-2.59 2.335-3.52 2.762-5.115z"/>
    <path fill="none" stroke="url(#l)" stroke-linejoin="round" d="M6.253 1039.228h4.494c.451 1.69 2.753 2.591 2.753 5.116v3.756a2.752 2.752 0 0 1-2.753 2.762H6.253A2.752 2.752 0 0 1 3.5 1048.1v-3.756c0-2.591 2.327-3.521 2.753-5.116z"/>
    <rect width="8" height="2" x="4.5" y="1037.862" fill="url(#m)" stroke="url(#n)" stroke-linejoin="round" rx=".742" ry=".697"/>
    <path fill="#d38a4b" stroke="url(#o)" d="M1.5 1048.862h7v2h-7z"/>
    <path fill="url(#p)" d="M2 1046.362h6v2H2z"/>
    <path fill="url(#q)" d="M1 1044.362h6v2H1z"/>
    <path fill="#e89b16" stroke="url(#r)" stroke-width=".888" d="M930.559 470.395h8.204v1.776h-8.204z" transform="rotate(62.709)"/>
  </g>
</svg>
