<svg xmlns="http://www.w3.org/2000/svg" xmlns:xlink="http://www.w3.org/1999/xlink" width="16" height="16">
  <defs>
    <linearGradient id="b">
      <stop offset="0" stop-color="#ffe"/>
      <stop offset="1" stop-color="#ffecad"/>
    </linearGradient>
    <linearGradient id="a">
      <stop offset="0" stop-color="#ba7f0d"/>
      <stop offset="1" stop-color="#a2660b"/>
    </linearGradient>
    <linearGradient xlink:href="#a" id="d" x1="11.063" x2="11.063" y1="1038.55" y2="1049.912" gradientTransform="matrix(-1 0 0 1 17 0)" gradientUnits="userSpaceOnUse"/>
    <linearGradient xlink:href="#b" id="c" x1="4.5" x2="4.5" y1="1042.047" y2="1046.49" gradientTransform="matrix(-1 0 0 1 17 0)" gradientUnits="userSpaceOnUse"/>
    <filter id="e" width="1.144" height="1.144" x="-.072" y="-.072" color-interpolation-filters="sRGB">
      <feGaussianBlur stdDeviation=".219"/>
    </filter>
  </defs>
  <g transform="translate(0 -1036.362)">
    <path fill="url(#c)" stroke="url(#d)" stroke-linecap="round" stroke-linejoin="round" d="M8.5 1038.862v3h5.781c.668 0 1.219.551 1.219 1.219v2.563c0 .667-.55 1.218-1.219 1.218H8.5v3h-1l-5.5-5.5 5.5-5.5h1z"/>
    <ellipse cx="13.727" cy="1039.116" fill="#e9deb7" filter="url(#e)" opacity=".904" rx="3.647" ry="3.663" transform="matrix(.82766 0 0 .8242 -8.862 184.921)"/>
    <g fill="none" stroke="#355883" stroke-width="1.394">
      <path d="M37.15 1035.026v8.248M34.161 1036.938l6.068 4.583M39.982 1036.834l-5.98 4.7" transform="matrix(.70782 0 0 .7275 -23.768 285.377)"/>
    </g>
  </g>
</svg>
