<svg xmlns="http://www.w3.org/2000/svg" xmlns:xlink="http://www.w3.org/1999/xlink" width="16" height="16">
  <defs>
    <linearGradient id="e">
      <stop offset="0" stop-color="#a19a7c"/>
      <stop offset=".131" stop-color="#a29d80"/>
      <stop offset=".263" stop-color="#c5c3b5"/>
      <stop offset=".631" stop-color="#a29d80"/>
      <stop offset="1" stop-color="#9e9070"/>
    </linearGradient>
    <linearGradient id="d">
      <stop offset="0" stop-color="#a8a38c"/>
      <stop offset=".263" stop-color="#c5c3b5"/>
      <stop offset="1" stop-color="#a19a7c"/>
    </linearGradient>
    <linearGradient id="c">
      <stop offset="0" stop-color="#eac826"/>
      <stop offset="1" stop-color="#c5a334"/>
    </linearGradient>
    <linearGradient id="b">
      <stop offset="0" stop-color="#fbdd83"/>
      <stop offset=".25" stop-color="#fdf39f"/>
      <stop offset=".628" stop-color="#fee745"/>
      <stop offset="1" stop-color="#eac826"/>
    </linearGradient>
    <linearGradient id="a">
      <stop offset="0" stop-color="#f5d71e"/>
      <stop offset="1" stop-color="#fdf39f"/>
    </linearGradient>
    <linearGradient xlink:href="#a" id="f" x1="17.663" x2="19.885" y1="1052.572" y2="1052.572" gradientTransform="translate(0 -2.14)" gradientUnits="userSpaceOnUse"/>
    <linearGradient xlink:href="#b" id="g" x1="26.461" x2="29.826" y1="1045.005" y2="1048.598" gradientTransform="translate(-2.14)" gradientUnits="userSpaceOnUse"/>
    <linearGradient xlink:href="#c" id="h" x1="28.022" x2="32.686" y1="1042.971" y2="1046.849" gradientTransform="translate(-2.14)" gradientUnits="userSpaceOnUse"/>
    <linearGradient xlink:href="#d" id="i" x1="26.545" x2="30.346" y1="1057.673" y2="1061.172" gradientTransform="translate(0 -14.978)" gradientUnits="userSpaceOnUse"/>
    <linearGradient xlink:href="#e" id="j" x1="29.595" x2="35.038" y1="1053.513" y2="1058.714" gradientTransform="translate(0 -14.978)" gradientUnits="userSpaceOnUse"/>
  </defs>
  <path fill="url(#f)" d="M15.59 1049.899h5.348v1.067H15.59z" transform="matrix(.93468 0 0 .93468 -14.572 -967.318)"/>
  <path fill="url(#g)" stroke="url(#h)" stroke-width="1.07" d="m25.874 1042.866-5.532 5.39s-.425 1.395.331 1.986c.757.591 5.934.26 5.934.26l3.9-3.83z" transform="matrix(.93468 0 0 .93468 -14.572 -967.318)"/>
  <path fill="url(#i)" stroke="#999072" stroke-width="1.07" d="m30.106 1047.334-4.634-4.35 3.89-3.889 4.468 4.303z" transform="matrix(.93468 0 0 .93468 -14.572 -967.318)"/>
  <path fill="url(#j)" stroke="#9c9170" stroke-width="1.07" d="M30.366 1044.592c-.533-.696-1.46-1.61-2.246-2.104-.786-.495-1.82-.662-1.82-.662s.094-.993 1.205-1.986l8.7-8.854v12.542l-2.742 2.364c-.898.544-2.317.662-2.317.662.128-.619-.247-1.267-.78-1.962z" transform="matrix(.93468 0 0 .93468 -14.572 -967.318)"/>
</svg>
