<svg xmlns="http://www.w3.org/2000/svg" xmlns:xlink="http://www.w3.org/1999/xlink" width="16" height="16">
  <defs>
    <linearGradient id="a">
      <stop offset="0" stop-color="#c6e7f9"/>
      <stop offset="1" stop-color="#f9fcff"/>
    </linearGradient>
    <linearGradient id="e">
      <stop offset="0" stop-color="#676656"/>
      <stop offset="1" stop-color="#9e884e"/>
    </linearGradient>
    <linearGradient id="d">
      <stop offset="0" stop-color="#4e86ca"/>
      <stop offset="1" stop-color="#4e86ca" stop-opacity="0"/>
    </linearGradient>
    <linearGradient id="b">
      <stop offset="0" stop-color="#326097"/>
      <stop offset="1" stop-color="#2e73c5"/>
    </linearGradient>
    <linearGradient id="c">
      <stop offset="0" stop-color="#75b1e3"/>
      <stop offset="1" stop-color="#c1def7"/>
    </linearGradient>
    <linearGradient id="h">
      <stop offset="0" stop-color="#4e86ca"/>
      <stop offset="1" stop-color="#4e86ca" stop-opacity="0"/>
    </linearGradient>
    <linearGradient id="g">
      <stop offset="0" stop-color="#75b1e3"/>
      <stop offset="1" stop-color="#c1def7"/>
    </linearGradient>
    <linearGradient id="f">
      <stop offset="0" stop-color="#326097"/>
      <stop offset="1" stop-color="#2e73c5"/>
    </linearGradient>
    <linearGradient xlink:href="#a" id="l" x1="636.995" x2="636.995" y1="277.455" y2="308.575" gradientUnits="userSpaceOnUse"/>
    <linearGradient xlink:href="#b" id="m" x1="617.063" x2="657.717" y1="283.283" y2="283.283" gradientUnits="userSpaceOnUse"/>
    <linearGradient xlink:href="#c" id="n" x1="616.342" x2="658.342" y1="272.222" y2="272.222" gradientUnits="userSpaceOnUse"/>
    <linearGradient xlink:href="#d" id="o" x1="636.094" x2="636.094" y1="275.531" y2="269.336" gradientTransform="translate(0 .344)" gradientUnits="userSpaceOnUse"/>
    <linearGradient xlink:href="#e" id="q" x1="641.076" x2="641.076" y1="308.689" y2="276.306" gradientUnits="userSpaceOnUse"/>
    <linearGradient xlink:href="#e" id="r" x1="641.076" x2="641.076" y1="308.689" y2="276.306" gradientTransform="translate(0 -.95)" gradientUnits="userSpaceOnUse"/>
    <linearGradient xlink:href="#e" id="s" x1="641.076" x2="641.076" y1="308.689" y2="276.306" gradientTransform="translate(0 -.95)" gradientUnits="userSpaceOnUse"/>
    <linearGradient xlink:href="#e" id="t" x1="641.076" x2="641.076" y1="308.689" y2="276.306" gradientTransform="translate(-.792)" gradientUnits="userSpaceOnUse"/>
    <linearGradient xlink:href="#e" id="p" x1="641.076" x2="641.076" y1="308.689" y2="276.306" gradientUnits="userSpaceOnUse"/>
    <linearGradient xlink:href="#f" id="u" x1="617.063" x2="657.717" y1="283.283" y2="283.283" gradientUnits="userSpaceOnUse"/>
    <linearGradient xlink:href="#g" id="v" x1="616.342" x2="658.342" y1="272.222" y2="272.222" gradientUnits="userSpaceOnUse"/>
    <linearGradient xlink:href="#h" id="w" x1="636.094" x2="636.094" y1="275.531" y2="269.336" gradientTransform="translate(0 .344)" gradientUnits="userSpaceOnUse"/>
    <linearGradient xlink:href="#i" id="x" x1="10" x2="10.008" y1="5" y2="6.984" gradientTransform="translate(-15.016 1046.636)" gradientUnits="userSpaceOnUse"/>
    <linearGradient id="i">
      <stop offset="0" stop-color="#fff"/>
      <stop offset="1" stop-color="#fff" stop-opacity="0"/>
    </linearGradient>
    <linearGradient xlink:href="#i" id="y" x1="12" x2="12" y1="1043.362" y2="1045.347" gradientTransform="translate(-15.016 10.273)" gradientUnits="userSpaceOnUse"/>
    <linearGradient xlink:href="#i" id="z" x1="13" x2="15.008" y1="1043.362" y2="1043.347" gradientTransform="translate(-15.016 10.273)" gradientUnits="userSpaceOnUse"/>
    <linearGradient xlink:href="#i" id="A" x1="12" x2="10.008" y1="1042.362" y2="1042.362" gradientTransform="translate(-15.016 10.273)" gradientUnits="userSpaceOnUse"/>
    <linearGradient xlink:href="#i" id="B" x1="10" x2="8.008" y1="1041.362" y2="1041.347" gradientTransform="translate(-15.016 10.273)" gradientUnits="userSpaceOnUse"/>
    <linearGradient xlink:href="#i" id="C" x1="10.117" x2="10" y1="1040.065" y2="1039.05" gradientTransform="translate(-15.016 10.273)" gradientUnits="userSpaceOnUse"/>
    <linearGradient xlink:href="#i" id="D" x1="14" x2="14" y1="1041.362" y2="1043.347" gradientTransform="translate(-15.016 10.273)" gradientUnits="userSpaceOnUse"/>
    <linearGradient id="j">
      <stop offset="0" stop-color="#e0c576"/>
      <stop offset="1" stop-color="#9e7916"/>
    </linearGradient>
    <linearGradient xlink:href="#k" id="F" x1=".938" x2=".938" y1="4.844" y2="7.549" gradientTransform="matrix(2.31999 0 0 2.31999 10.2 1043.185)" gradientUnits="userSpaceOnUse"/>
    <linearGradient id="k">
      <stop offset="0" stop-color="#f7f9fb"/>
      <stop offset="1" stop-color="#ffd680"/>
    </linearGradient>
    <radialGradient xlink:href="#j" id="E" cx="-757.205" cy="-738.838" r="3.48" fx="-757.205" fy="-738.838" gradientTransform="matrix(1.85082 0 0 1.77506 644.25 572.636)" gradientUnits="userSpaceOnUse"/>
  </defs>
  <g transform="matrix(.27903 0 0 .27903 -169.815 -71.441)">
    <rect width="40.88" height="41" x="613.837" y="268.004" fill="url(#l)" rx="2.563" ry="2.563"/>
    <path fill="#4e86ca" stroke="url(#m)" stroke-linecap="round" stroke-linejoin="round" d="M619.405 268.004h33.145a2.558 2.558 0 0 1 2.563 2.563v5.874h-38.27v-5.874a2.558 2.558 0 0 1 2.562-2.563z"/>
    <path fill="url(#n)" d="M619.406 269c-.883 0-1.562.68-1.562 1.563v4.875h37v-4.875c0-.884-.68-1.563-1.563-1.563z"/>
    <path fill="url(#o)" d="M619.406 269.344c-.883 0-1.562.679-1.562 1.562v4.875h37v-4.875c0-.883-.68-1.562-1.563-1.562z"/>
    <g fill="none" stroke="url(#p)" stroke-width="3.584">
      <rect width="39.495" height="39.416" x="614.364" y="268.638" stroke="url(#q)" stroke-linecap="round" stroke-linejoin="round" rx="2.563" ry="2.563"/>
      <path stroke="url(#r)" d="M613.5 293.6h15.688"/>
      <path stroke="url(#s)" d="M629.313 290.287h26.312"/>
      <path stroke="url(#t)" d="M628.396 275.987v32.844"/>
    </g>
    <path fill="#4e86ca" stroke="url(#u)" stroke-linecap="round" stroke-linejoin="round" stroke-width="2" d="M616.157 268.004h36.223a2.558 2.558 0 0 1 2.564 2.563v5.874h-41.35v-5.874a2.558 2.558 0 0 1 2.563-2.563z"/>
    <path fill="url(#v)" d="M616.334 269c-.883 0-1.562.68-1.562 1.563v4.875h39.188v-4.875c0-.884-.68-1.563-1.563-1.563z"/>
    <path fill="url(#w)" d="M615.937 269.344c-.884 0-1.57.679-1.563 1.562v4.875h39.608v-4.875c0-.883-.68-1.562-1.563-1.562z"/>
  </g>
  <g fill="#945112" opacity=".489">
    <path d="M10.593 10.569s.071.313.276.536c.205.224.51.323.51.323s-.311.069-.537.275c-.225.207-.322.51-.322.51s-.062-.303-.276-.536a1.271 1.271 0 0 0-.51-.322s.319-.077.537-.276c.218-.2.322-.51.322-.51zM9.65 12.175s-.12.29-.082.585c.037.294.226.545.226.545s-.288-.12-.585-.082c-.296.038-.545.226-.545.226s.121-.278.083-.584a1.244 1.244 0 0 0-.226-.546s.297.12.584.082a1.35 1.35 0 0 0 .546-.226zM7.582 12.966s-.033.252.058.474c.091.222.291.379.291.379s-.25-.034-.474.058c-.224.092-.378.29-.378.29s.036-.242-.058-.473a1.006 1.006 0 0 0-.291-.379s.257.031.474-.058c.216-.088.378-.29.378-.29zM5.668 13.66s-.027.16.026.305c.054.145.18.25.18.25s-.16-.027-.307.027c-.146.053-.25.178-.25.178s.029-.155-.027-.306c-.056-.15-.178-.25-.178-.25s.164.026.306-.027c.14-.052.25-.179.25-.179zM11.822 8.077s-.047.433.117.81c.164.378.512.639.512.639s-.43-.049-.81.117c-.38.165-.638.512-.638.512s.054-.417-.117-.81a1.724 1.724 0 0 0-.513-.638s.443.043.81-.117c.369-.16.639-.513.639-.513z" opacity=".85"/>
  </g>
  <g fill="#fee9ac" fill-opacity=".969">
    <path d="M10.798 10.344s.07.313.275.537c.205.223.51.322.51.322s-.31.07-.536.276c-.226.206-.322.51-.322.51s-.063-.304-.276-.537a1.271 1.271 0 0 0-.51-.322s.318-.076.536-.276c.219-.2.323-.51.323-.51zM9.855 11.95s-.12.29-.082.585c.037.295.226.546.226.546s-.288-.12-.585-.082c-.297.037-.546.226-.546.226s.122-.278.083-.585a1.244 1.244 0 0 0-.226-.545s.298.119.585.082a1.35 1.35 0 0 0 .545-.226zM7.787 12.742s-.033.251.058.473c.09.222.29.379.29.379s-.25-.034-.473.058c-.224.092-.379.29-.379.29s.037-.242-.058-.473a1.006 1.006 0 0 0-.29-.378s.257.03.473-.059c.217-.088.379-.29.379-.29zM5.872 13.434s-.027.162.027.307c.054.144.179.25.179.25s-.16-.028-.306.026-.25.179-.25.179.029-.156-.027-.306c-.056-.151-.179-.25-.179-.25s.165.025.306-.028c.141-.052.25-.178.25-.178zM12.026 7.853s-.047.433.118.81c.164.377.512.638.512.638s-.43-.048-.81.117c-.38.166-.638.513-.638.513s.053-.418-.117-.81a1.724 1.724 0 0 0-.513-.639s.442.043.81-.117c.368-.16.638-.512.638-.512z" opacity=".85"/>
  </g>
  <path fill="url(#x)" d="M-7.008 1053.62h2l1.492-1.484h-2.03z" transform="translate(14.025 -1046.636)"/>
  <path fill="url(#y)" d="M-5.008 1055.62h4v-1l-.476-.484h-2.032z" transform="translate(14.025 -1046.636)"/>
  <path fill="url(#z)" d="M-1.484 1052.136v2l.476.484v-2z" transform="translate(14.025 -1046.636)"/>
  <path fill="url(#A)" d="M-5.008 1053.62v2l1.492-1.484v-2z" transform="translate(14.025 -1046.636)"/>
  <path fill="url(#B)" d="M-7.008 1049.62v4l1.461-1.484.156-1.829z" transform="translate(14.025 -1046.636)"/>
  <path fill="url(#C)" d="m-5.008 1049.651-1.902.01 1.524.649 1.511-.141z" transform="translate(14.025 -1046.636)"/>
  <path fill="url(#D)" d="M-1.012 1052.136h-.472l.476.484h-.004z" transform="translate(14.025 -1046.636)"/>
  <path fill="url(#E)" stroke="#a27d18" stroke-width="1.032" d="M-758.823-740.411h4.583v4.454h-4.583z" transform="rotate(-135 -218.655 -525.83)"/>
  <path fill="url(#F)" d="M12.471 1054.309h1.001v1.946h1.987v1.017h-1.987v2.043h-1v-2.043h-1.987v-1.017h1.986z" transform="translate(-1.45 -1052.26)"/>
</svg>
