<svg xmlns="http://www.w3.org/2000/svg" xmlns:xlink="http://www.w3.org/1999/xlink" width="16" height="16">
  <defs>
    <linearGradient id="b">
      <stop offset="0" stop-color="#fff"/>
      <stop offset="1" stop-color="#fbe49d"/>
    </linearGradient>
    <linearGradient id="a">
      <stop offset="0" stop-color="#a66b10"/>
      <stop offset="1" stop-color="#bd8416"/>
    </linearGradient>
    <linearGradient xlink:href="#a" id="h" x1="1.063" x2="15.566" y1="1050.081" y2="1050.081" gradientTransform="matrix(0 .70176 -.72727 0 771.037 1041.336)" gradientUnits="userSpaceOnUse"/>
    <linearGradient xlink:href="#b" id="g" x1="1.686" x2="14.375" y1="1040.74" y2="1040.74" gradientTransform="matrix(0 .70176 -.72727 0 771.037 1041.336)" gradientUnits="userSpaceOnUse"/>
    <linearGradient xlink:href="#c" id="e" x1="11.437" x2="14.526" y1="9.631" y2="15.131" gradientTransform="matrix(1.42726 0 0 1.22272 -9.853 1031)" gradientUnits="userSpaceOnUse"/>
    <linearGradient id="c">
      <stop offset="0" stop-color="#7695b8"/>
      <stop offset="1" stop-color="#8daac8"/>
    </linearGradient>
    <linearGradient xlink:href="#c" id="d" x1="11.437" x2="14.526" y1="9.631" y2="15.131" gradientTransform="matrix(1.42726 0 0 1.22272 -6.984 1027.978)" gradientUnits="userSpaceOnUse"/>
    <filter id="f" width="1.14" height="1.105" x="-.07" y="-.052" color-interpolation-filters="sRGB">
      <feGaussianBlur stdDeviation=".174"/>
    </filter>
  </defs>
  <path fill="url(#d)" stroke="#095799" d="m7.782 1041.232 1.634-2.877 3.825 6.258-1.65 2.348-3.563-6.147" transform="translate(0 -1036.362)"/>
  <path fill="url(#e)" stroke="#095799" d="m1.564 1049.984 4.983-8.606 5.046 8.606-3.903-1.973-2.53-4.174" transform="translate(0 -1036.362)"/>
  <path fill="#095799" d="M.459 13H7v1H.459z"/>
  <path fill="#fff" stroke="#fff" stroke-linecap="square" stroke-linejoin="round" stroke-width=".99" d="M8.518 1041.862v4.012h-.985l.012 3.958 2.736-.066 3.123-2.639.094-1.253h-.983v-4.012z" filter="url(#f)" opacity=".9" transform="matrix(1.01927 0 0 1 -.26 -1036.362)"/>
  <path fill="url(#g)" stroke="url(#h)" stroke-linecap="square" stroke-linejoin="round" d="M9.518 1042.862v4.012H7.5v1.128l4 3.86 4-3.86v-1.128h-1.985v-4.012z" transform="translate(0 -1036.362)"/>
</svg>
