<svg xmlns="http://www.w3.org/2000/svg" xmlns:xlink="http://www.w3.org/1999/xlink" width="16" height="16">
  <defs>
    <linearGradient id="e">
      <stop offset="0" stop-color="#f7d7c0"/>
      <stop offset="1" stop-color="#bdb68f"/>
    </linearGradient>
    <linearGradient xlink:href="#a" id="g" x1="-16.963" x2="-4.992" y1="1038.895" y2="1038.895" gradientTransform="matrix(1.17963 0 0 1 38.956 .977)" gradientUnits="userSpaceOnUse"/>
    <linearGradient xlink:href="#b" id="f" x1="7.928" x2="8.014" y1="1049.325" y2="1053.325" gradientTransform="matrix(1.1821 0 0 1 14.252 -2.956)" gradientUnits="userSpaceOnUse"/>
    <linearGradient xlink:href="#c" id="h" x1="8.014" x2="8.014" y1="1039.876" y2="1041.877" gradientTransform="matrix(1.17963 0 0 1 14.33 -.992)" gradientUnits="userSpaceOnUse"/>
    <linearGradient id="b">
      <stop offset="0" stop-color="#afad95"/>
      <stop offset="1" stop-color="#8a95ac"/>
    </linearGradient>
    <linearGradient id="c">
      <stop offset="0" stop-color="#4476aa"/>
      <stop offset=".5" stop-color="#5a9ccc"/>
      <stop offset="1" stop-color="#4476aa"/>
    </linearGradient>
    <linearGradient id="a">
      <stop offset="0" stop-color="#6eb6e2"/>
      <stop offset="1" stop-color="#d3e5f4"/>
    </linearGradient>
    <linearGradient id="d">
      <stop offset="0" stop-color="#f7fdff"/>
      <stop offset="1" stop-color="#e8f0f5"/>
    </linearGradient>
    <linearGradient xlink:href="#d" id="j" x1="12.108" x2="12.108" y1="2.792" y2="17.833" gradientTransform="translate(-20.176 1059.214) scale(.72618)" gradientUnits="userSpaceOnUse"/>
    <linearGradient xlink:href="#e" id="i" x1="23.441" x2="23.735" y1="1049.305" y2="1041.305" gradientTransform="matrix(1.12395 0 0 1.12395 -2.913 -129.072)" gradientUnits="userSpaceOnUse"/>
  </defs>
  <g transform="translate(-19.001 -1038.37)">
    <path fill="#f4fcff" stroke="url(#f)" d="M19.501 1038.905h13v10.967h-13z"/>
    <path fill="url(#g)" stroke="url(#h)" d="M19.501 1038.87h13v2.005h-13Z"/>
    <rect width="10.993" height="1.016" x="21.009" y="1041.365" fill="#d5f3ff" ry="0"/>
    <path fill="none" stroke="url(#i)" stroke-width="1.002" d="M23.5 1041.37v9"/>
    <rect width="7.998" height="1.016" x="1041.369" y="-21.018" fill="#d5f3ff" ry="0" transform="rotate(90)"/>
    <path fill="url(#j)" stroke="#304b8a" stroke-width="1.458" d="M-4.336 1067.701a7.171 7.171 0 0 1-7.171 7.171 7.171 7.171 0 0 1-7.171-7.17 7.171 7.171 0 0 1 7.17-7.172 7.171 7.171 0 0 1 7.172 7.171z" transform="translate(37.526 300.485) scale(.70002)"/>
    <path fill="#2a4484" d="M-9.436 1068.274c-1.274 0-2.29.354-3.067 1.066-.776.713-1.18 1.7-1.227 2.934l2.107.267c.07-1.526.768-2.267 2.054-2.267.544 0 .986.139 1.333.453.348.314.507.718.507 1.2 0 .45-.155.837-.48 1.174-.174.18-.519.448-1.04.773-.475.292-.783.625-.934 1.04-.139.348-.213.882-.213 1.6v.96h1.947v-.613c0-.707.304-1.25.907-1.653.788-.539 1.325-1.017 1.627-1.387.416-.539.64-1.188.64-1.974 0-1.077-.432-1.967-1.254-2.64-.788-.628-1.76-.933-2.907-.933z" font-family="Reznor" font-size="20.037" font-weight="700" letter-spacing="0" style="line-height:125%;text-align:start" transform="matrix(.5685 0 0 .55741 34.877 448.681)" word-spacing="0"/>
    <path fill="#294384" d="M30.285 1050.532a.837.7 0 0 1-.837.7.837.7 0 0 1-.837-.7.837.7 0 0 1 .837-.7.837.7 0 0 1 .837.7z"/>
  </g>
</svg>
