<svg xmlns="http://www.w3.org/2000/svg" xmlns:xlink="http://www.w3.org/1999/xlink" width="16" height="16">
  <defs>
    <linearGradient id="b">
      <stop offset="0" stop-color="#fff"/>
      <stop offset="1" stop-color="#fbe49d"/>
    </linearGradient>
    <linearGradient id="a">
      <stop offset="0" stop-color="#a66b10"/>
      <stop offset="1" stop-color="#bd8416"/>
    </linearGradient>
    <linearGradient xlink:href="#a" id="h" x1="1.063" x2="15.566" y1="1050.081" y2="1050.081" gradientTransform="matrix(0 -.70176 -.72727 0 765.037 1048.389)" gradientUnits="userSpaceOnUse"/>
    <linearGradient xlink:href="#b" id="g" x1="14.287" x2="2.887" y1="1043.675" y2="1042.3" gradientTransform="matrix(0 -.70176 -.72727 0 765.037 1048.389)" gradientUnits="userSpaceOnUse"/>
    <linearGradient xlink:href="#c" id="e" x1="11.437" x2="14.526" y1="9.631" y2="15.131" gradientTransform="matrix(1.3074 0 0 1.254 -7.446 1032.385)" gradientUnits="userSpaceOnUse"/>
    <linearGradient id="c">
      <stop offset="0" stop-color="#7695b8"/>
      <stop offset="1" stop-color="#8daac8"/>
    </linearGradient>
    <linearGradient xlink:href="#c" id="d" x1="11.437" x2="14.526" y1="9.631" y2="15.131" gradientTransform="matrix(1.3074 0 0 1.254 -4.443 1029.385)" gradientUnits="userSpaceOnUse"/>
    <filter id="f" width="1.14" height="1.105" x="-.07" y="-.052" color-interpolation-filters="sRGB">
      <feGaussianBlur stdDeviation=".174"/>
    </filter>
  </defs>
  <path fill="url(#d)" stroke="#095799" d="m9.302 1042.499 1.277-2.471 4.623 8.826h-2.63l-3.264-6.305" transform="translate(0 -1036.362)"/>
  <path fill="#095799" d="M12 12h4v1h-4z"/>
  <path fill="url(#e)" stroke="#095799" d="m3.012 1051.853 4.565-8.825 4.622 8.825h-2.63l-3.264-6.304" transform="translate(0 -1036.362)"/>
  <path fill="#095799" d="M2.009 15H8v1H2.009z"/>
  <path fill="#095799" d="M7 15h5.997v1H7z"/>
  <path fill="#fff" stroke="#fff" stroke-linecap="square" stroke-linejoin="round" stroke-width=".934" d="M8.518 1041.862v4.012h-.985l.749 2.679 5.162-.066.79-.692.063-2.338h-1.69l-.092-3.595z" filter="url(#f)" opacity=".9" transform="matrix(1.01927 0 0 -1.1256 -4.185 1184.245)"/>
  <path fill="url(#g)" stroke="url(#h)" stroke-linecap="square" stroke-linejoin="round" d="M3.518 1046.862v-4.012H1.5v-1.128l4-3.86 4 3.86v1.128H7.515v4.012z" transform="translate(0 -1036.362)"/>
</svg>
