<svg xmlns="http://www.w3.org/2000/svg" xmlns:xlink="http://www.w3.org/1999/xlink" width="16" height="16">
  <defs>
    <linearGradient id="a">
      <stop offset="0" stop-color="#fff"/>
      <stop offset="1" stop-color="#ffd25d"/>
    </linearGradient>
    <linearGradient id="b">
      <stop offset="0" stop-color="#ad7212"/>
      <stop offset="1" stop-color="#996c22"/>
    </linearGradient>
    <linearGradient xlink:href="#b" id="d" x1="22.669" x2="22.669" y1="1043.58" y2="1039.239" gradientTransform="translate(-.357 -.032)" gradientUnits="userSpaceOnUse"/>
    <radialGradient xlink:href="#a" id="c" cx="23.617" cy="1043.666" r="4.673" fx="23.617" fy="1043.666" gradientTransform="matrix(2.3492 0 0 .96551 -31.928 35.874)" gradientUnits="userSpaceOnUse"/>
  </defs>
  <path fill="url(#c)" stroke="url(#d)" stroke-linejoin="round" stroke-width=".62" d="m18.87 1041.297 4.38 3.844s-.022-1.357-.022-2.185c1.449-.09 1.87-.048 2.58.633.891.857.757 2.38 1.163 2.505.407.125.625-2.187.625-2.625 0-.437-.174-1.902-.718-2.626-.294-.391-1.007-.956-1.532-1.1-.524-.145-2.118-.429-2.118-.429l.013-1.661c-.788.666-4.371 3.644-4.371 3.644z" transform="matrix(-1.61263 0 0 -1.61263 45.068 1687.5)"/>
</svg>
