<svg xmlns="http://www.w3.org/2000/svg" xmlns:xlink="http://www.w3.org/1999/xlink" width="16" height="16">
  <defs>
    <linearGradient id="d">
      <stop offset="0" stop-color="#bd8416"/>
      <stop offset="1" stop-color="#a66b10"/>
    </linearGradient>
    <linearGradient xlink:href="#a" id="e" x1="22.519" x2="22.519" y1="1042.028" y2="1040.735" gradientUnits="userSpaceOnUse"/>
    <linearGradient id="a">
      <stop offset="0" stop-color="#f9cd5f"/>
      <stop offset="1" stop-color="#ffebb7"/>
    </linearGradient>
    <linearGradient xlink:href="#b" id="f" x1="23.551" x2="23.551" y1="1037.362" y2="1045.362" gradientUnits="userSpaceOnUse"/>
    <linearGradient id="b">
      <stop offset="0" stop-color="#bd8416"/>
      <stop offset="1" stop-color="#a66b10"/>
    </linearGradient>
    <linearGradient xlink:href="#c" id="g" x1="22.931" x2="22.931" y1="1039.698" y2="1041.736" gradientUnits="userSpaceOnUse"/>
    <linearGradient id="c">
      <stop offset="0" stop-color="#f9cd5f"/>
      <stop offset="1" stop-color="#ffebb7"/>
    </linearGradient>
    <linearGradient xlink:href="#d" id="h" x1="25.363" x2="25.363" y1="1044.731" y2="1037.731" gradientUnits="userSpaceOnUse"/>
  </defs>
  <path fill="url(#e)" stroke="url(#f)" stroke-width=".8" d="M23.585 1039.325v-1.591s-.353-.84-1.37-.044c-1.016.795-2.21 2.077-2.386 2.43-.177.354-.928.973.088 1.945 1.017.972 2.121 1.989 2.121 1.989s1.547 1.458 1.547.088v-1.812c1.367-.063 1.695.355 2.04.688.345.334.813 1.969 1.219 2.094.406.125.625-2.188.625-2.625 0-.438-.175-1.244-.719-1.969-.294-.39-1.007-.955-1.531-1.1-.525-.144-1.634-.093-1.634-.093z" transform="translate(-13.02 -1036.362)"/>
  <path fill="#fff" d="M10.05 2.366V1.77s.11-.375-.222-.243c-.331.133-.972.663-1.038.774-.066.11-.751.596-.597.817.155.221 1.459.067 1.459.067z" opacity=".857"/>
  <path fill="url(#g)" stroke="url(#h)" stroke-width=".8" d="M23.585 1039.325v-1.591s-.353-.84-1.37-.044c-1.016.795-2.21 2.077-2.386 2.43-.177.354-.928.973.088 1.945 1.017.972 2.121 1.989 2.121 1.989s.405.381.8.57c.378.182.747.188.747-.482v-1.812c1.367-.063 1.728.345 2.04.688.313.344.813 1.969 1.219 2.094.406.125.625-2.188.625-2.625 0-.438-.094-1.313-.719-1.969-.625-.656-1.007-.955-1.531-1.1-.525-.144-1.634-.093-1.634-.093z" transform="rotate(180 14.51 526.366)"/>
  <path fill="#fff" d="M5.95 9.758v-.597s-.11-.375.221-.243c.332.133.972.663 1.039.774.066.11.751.596.596.817-.154.221-1.458.066-1.458.066z" opacity=".857"/>
</svg>
