<svg xmlns="http://www.w3.org/2000/svg" xmlns:xlink="http://www.w3.org/1999/xlink" width="16" height="16">
  <defs>
    <linearGradient id="d">
      <stop offset="0" stop-color="#2b2b2b"/>
      <stop offset="1" stop-color="#686861"/>
    </linearGradient>
    <linearGradient id="c">
      <stop offset="0" stop-color="#d8d8d8"/>
      <stop offset="1" stop-color="#d8d8d8"/>
    </linearGradient>
    <linearGradient id="a">
      <stop offset="0" stop-color="#707070"/>
      <stop offset="1" stop-color="#a0a0a0"/>
    </linearGradient>
    <linearGradient id="b">
      <stop offset="0" stop-color="#313131"/>
      <stop offset="1" stop-color="#696969"/>
    </linearGradient>
    <linearGradient xlink:href="#a" id="g" x1="4.753" x2="4.753" y1="1051.047" y2="1038.581" gradientTransform="translate(3.11 157.798) scale(.85131)" gradientUnits="userSpaceOnUse"/>
    <linearGradient xlink:href="#b" id="h" x1="8.657" x2="8.657" y1="1050.739" y2="1037.7" gradientTransform="translate(3.11 157.798) scale(.85131)" gradientUnits="userSpaceOnUse"/>
    <linearGradient xlink:href="#c" id="e" x1="4.753" x2="4.753" y1="1051.047" y2="1038.581" gradientTransform="translate(-.813 152.86) scale(.85131)" gradientUnits="userSpaceOnUse"/>
    <linearGradient xlink:href="#d" id="f" x1="8.657" x2="8.657" y1="1050.739" y2="1037.7" gradientTransform="translate(-.813 152.86) scale(.85131)" gradientUnits="userSpaceOnUse"/>
  </defs>
  <g stroke-linecap="round">
    <path fill="url(#e)" stroke="url(#f)" d="M10.611 1037.079a1.015 1.015 0 0 0-1.438 0l-2.65 2.65-2.65-2.65a1.015 1.015 0 0 0-1.44 0l-.731.732a1.015 1.015 0 0 0 0 1.439l2.65 2.65-2.65 2.65a1.015 1.015 0 0 0 0 1.438l.732.733c.398.398 1.04.398 1.439 0l2.65-2.65 2.668 2.668c.399.399 1.04.399 1.439 0l.732-.732a1.019 1.019 0 0 0 0-1.44l-2.668-2.667 2.65-2.65a1.015 1.015 0 0 0 0-1.44z" transform="translate(0 -1036.362)"/>
    <path fill="url(#g)" stroke="url(#h)" d="M14.535 1042.017a1.015 1.015 0 0 0-1.44 0l-2.65 2.65-2.65-2.65a1.015 1.015 0 0 0-1.438 0l-.732.732a1.015 1.015 0 0 0 0 1.439l2.65 2.65-2.65 2.65a1.015 1.015 0 0 0 0 1.439l.732.732c.399.398 1.04.398 1.439 0l2.65-2.65 2.668 2.668c.399.399 1.04.399 1.439 0l.732-.732a1.019 1.019 0 0 0 0-1.439l-2.668-2.668 2.65-2.65a1.015 1.015 0 0 0 0-1.439z" transform="translate(0 -1036.362)"/>
  </g>
</svg>
