<svg xmlns="http://www.w3.org/2000/svg" xmlns:xlink="http://www.w3.org/1999/xlink" width="16" height="16">
  <defs>
    <linearGradient id="l">
      <stop offset="0" stop-color="#dfe8f8"/>
      <stop offset="1" stop-color="#5e76a3"/>
    </linearGradient>
    <linearGradient id="k">
      <stop offset="0" stop-color="#bd8416"/>
      <stop offset="1" stop-color="#a66b10"/>
    </linearGradient>
    <linearGradient id="j">
      <stop offset="0" stop-color="#f9cd5f"/>
      <stop offset="1" stop-color="#fbf0b4"/>
    </linearGradient>
    <linearGradient id="g">
      <stop offset="0" stop-color="#f8f9fb"/>
      <stop offset="1" stop-color="#8794ad"/>
    </linearGradient>
    <linearGradient id="b">
      <stop offset="0" stop-color="#afb8cd"/>
      <stop offset="1" stop-color="#8192b5"/>
    </linearGradient>
    <linearGradient id="a">
      <stop offset="0" stop-color="#acbfd5"/>
      <stop offset="1" stop-color="#627297"/>
    </linearGradient>
    <linearGradient id="i">
      <stop offset="0" stop-color="#b68e69"/>
      <stop offset=".942" stop-color="#d5ae7d"/>
      <stop offset="1" stop-color="#c69863"/>
    </linearGradient>
    <linearGradient id="h">
      <stop offset="0" stop-color="#f1c373"/>
      <stop offset="1" stop-color="#f6e3c9"/>
    </linearGradient>
    <linearGradient xlink:href="#a" id="n" x1="-11.376" x2="-11.376" y1="1036.296" y2="1040.278" gradientTransform="translate(21.969 -.005)" gradientUnits="userSpaceOnUse"/>
    <linearGradient xlink:href="#b" id="m" x1="-12.922" x2="-12.922" y1="1037.323" y2="1040.391" gradientTransform="translate(21.969 -.005)" gradientUnits="userSpaceOnUse"/>
    <linearGradient xlink:href="#c" id="o" x1="9.895" x2="9.895" y1="1039.153" y2="1051.838" gradientTransform="translate(-4 -2)" gradientUnits="userSpaceOnUse"/>
    <linearGradient xlink:href="#d" id="p" x1="10.545" x2="10.545" y1="1038.578" y2="1052.323" gradientTransform="translate(-4 -2)" gradientUnits="userSpaceOnUse"/>
    <linearGradient xlink:href="#e" id="s" x1="7.007" x2="14" y1="1047.857" y2="1047.857" gradientTransform="matrix(.72294 0 0 1 -13.972 -4.125)" gradientUnits="userSpaceOnUse"/>
    <linearGradient xlink:href="#e" id="r" x1="7.007" x2="14" y1="1045.857" y2="1045.857" gradientTransform="matrix(.57547 0 0 1 -12.939 -4.125)" gradientUnits="userSpaceOnUse"/>
    <linearGradient xlink:href="#f" id="q" x1="7.007" x2="11" y1="1043.857" y2="1043.857" gradientTransform="matrix(.82572 0 0 1 -14.692 -4.125)" gradientUnits="userSpaceOnUse"/>
    <linearGradient id="e">
      <stop offset="0" stop-color="#91a5c7"/>
      <stop offset="1" stop-color="#637aa7"/>
    </linearGradient>
    <linearGradient id="f">
      <stop offset="0" stop-color="#91a5c7"/>
      <stop offset="1" stop-color="#5e76a3"/>
    </linearGradient>
    <linearGradient id="d">
      <stop offset="0" stop-color="#c7b571"/>
      <stop offset="1" stop-color="#9a9a8f"/>
    </linearGradient>
    <linearGradient id="c">
      <stop offset="0" stop-color="#f9fafc"/>
      <stop offset="1" stop-color="#dce7f7"/>
    </linearGradient>
    <linearGradient xlink:href="#g" id="y" x1="10.545" x2="10.545" y1="1038.578" y2="1052.323" gradientTransform="matrix(.9931 0 0 .99394 -.96 8.307)" gradientUnits="userSpaceOnUse"/>
    <linearGradient xlink:href="#c" id="x" x1="9.895" x2="9.895" y1="1039.153" y2="1051.838" gradientTransform="translate(-1.029 1.912)" gradientUnits="userSpaceOnUse"/>
    <linearGradient xlink:href="#a" id="w" x1="-11.376" x2="-11.376" y1="1036.296" y2="1040.278" gradientTransform="matrix(1 0 0 .99778 22 2.345)" gradientUnits="userSpaceOnUse"/>
    <linearGradient xlink:href="#b" id="v" x1="-12.922" x2="-12.922" y1="1037.323" y2="1040.391" gradientTransform="translate(22.016 .065)" gradientUnits="userSpaceOnUse"/>
    <linearGradient xlink:href="#h" id="t" x1="-12" x2="-12" y1="1050.995" y2="1038.866" gradientTransform="matrix(.99511 0 0 1.00055 21.932 -.526)" gradientUnits="userSpaceOnUse"/>
    <linearGradient xlink:href="#i" id="u" x1="-17.313" x2="-17.344" y1="1050.945" y2="1039.084" gradientTransform="matrix(.99511 0 0 1.00055 21.932 -.526)" gradientUnits="userSpaceOnUse"/>
    <linearGradient xlink:href="#j" id="C" x1="22.519" x2="22.519" y1="1042.028" y2="1040.735" gradientTransform="matrix(0 .9444 1.06252 0 -1101.954 1021.92)" gradientUnits="userSpaceOnUse"/>
    <linearGradient xlink:href="#k" id="D" x1="24.929" x2="24.929" y1="1038.366" y2="1044.562" gradientTransform="matrix(0 .9444 1.06252 0 -1101.954 1021.92)" gradientUnits="userSpaceOnUse"/>
    <linearGradient xlink:href="#l" id="z" x1="8" x2="12" y1="1044.912" y2="1044.912" gradientTransform="matrix(1.49219 0 0 1.49219 -5.906 -514.293)" gradientUnits="userSpaceOnUse"/>
    <linearGradient xlink:href="#l" id="A" x1="8" x2="12" y1="1044.912" y2="1044.912" gradientTransform="matrix(1.5 0 0 1.5 -6 -524.506)" gradientUnits="userSpaceOnUse"/>
    <linearGradient xlink:href="#l" id="B" x1="8" x2="12" y1="1044.912" y2="1044.912" gradientTransform="matrix(1.5 0 0 1.5 -5.935 -520.468)" gradientUnits="userSpaceOnUse"/>
    <filter id="E" width="1.2" height="1.282" x="-.1" y="-.141" color-interpolation-filters="sRGB">
      <feGaussianBlur stdDeviation=".076"/>
    </filter>
  </defs>
  <g transform="translate(0 -1036.362)">
    <path fill="url(#m)" d="m4.984 1040.341 1.532-1.367.937-2.117h3l.953 2.117 1.547 1.367"/>
    <path fill="url(#n)" d="M7.313 1036.37a.508.508 0 0 0-.313.281l-.875 2-.966.863c-.22.22-.162.326-.191.839h.747l1.129-1.014a.507.507 0 0 0 .125-.157l.812-1.812h2.344l.813 1.812a.5.5 0 0 0 .124.157l1.174 1.032c.113 0 .472-.02.716-.03 0-.214.082-.576-.124-.783l-1.015-.907-.907-2a.51.51 0 0 0-.437-.281h-3a.41.41 0 0 0-.156 0z" color="#000" enable-background="accumulate" font-family="Sans" font-weight="400" overflow="visible" style="line-height:normal;text-indent:0;text-align:start;text-decoration-line:none;text-transform:none;marker:none"/>
    <path fill="url(#o)" d="M1.497 1036.904h8.157l.759 3.006v6.549H1.497Z" transform="translate(3.159 4.162)"/>
    <path fill="none" stroke="url(#p)" d="M1.497 1036.904h8.491l.04 3.006v6.455h-8.53Z" transform="translate(3.159 4.162)"/>
    <path fill="url(#q)" d="M-8.906 1039.227h6.047v1.01h-6.047z" transform="matrix(-1 0 0 1 3.159 4.162)"/>
    <path fill="url(#r)" d="M-8.906 1041.227h6.024v1.01h-6.024z" transform="matrix(-1 0 0 1 3.159 4.162)"/>
    <path fill="url(#s)" d="M-8.906 1043.227h6.055v1.01h-6.055z" transform="matrix(-1 0 0 1 3.159 4.162)"/>
    <rect width="11" height="12" x="3.5" y="1038.912" fill="url(#t)" stroke="url(#u)" rx="1.219" ry="1.219"/>
    <path fill="url(#v)" d="m5.031 1040.412 1.532-1.367.937-2.117h3l.953 2.117 1.547 1.367"/>
    <path fill="url(#w)" d="M7.345 1036.42a.508.508 0 0 0-.313.28l-.875 1.996-.966.861c-.22.22-.161.325-.191.837h.747l1.129-1.012a.51.51 0 0 0 .125-.156l.812-1.809h2.344l.813 1.809c.03.06.073.113.125.156l1.173 1.03c.113 0 .472-.02.716-.031 0-.213.082-.574-.124-.78l-1.015-.906-.907-1.995a.51.51 0 0 0-.437-.28h-3a.41.41 0 0 0-.156 0z" color="#000" enable-background="accumulate" font-family="Sans" font-weight="400" overflow="visible" style="line-height:normal;text-indent:0;text-align:start;text-decoration-line:none;text-transform:none;marker:none"/>
    <path fill="url(#x)" d="M4.469 1040.816h8.812l.103 3.007v6.548H4.47Z"/>
    <path fill="none" stroke="url(#y)" d="M4.5 1040.912h9v9h-9Z"/>
    <path fill="none" stroke="url(#z)" d="M12 1044.912H6.031"/>
    <path fill="none" stroke="url(#A)" d="M12 1042.862H6"/>
    <path fill="none" stroke="url(#B)" d="M12.065 1046.9h-6"/>
    <path fill="url(#C)" stroke="url(#D)" d="M2.433 1042.823H.873s-.845-.343 0-1.303c.846-.96 1.908-2.087 2.284-2.254.375-.167 1.033-.877 2.066.084 1.033.96 1.798 1.891 1.798 1.891s1.273 1.582-.183 1.582H5.55c-.067 1.29-.195 2.586.37 3.336.638.846 2.446.73 2.58 1.114.132.383-2.485.59-2.95.59-.465 0-1.162-.165-1.932-.679-.415-.277-.857-.95-1.01-1.446-.104-.89-.224-1.614-.175-2.915z"/>
    <path fill="#fff" d="m27.554 1041.882-.723-.08s-.291.194-.188.42c.103.227.514.394.6.44.086.044.52.944.692.838.172-.105-.063-1.238-.063-1.238z" filter="url(#E)" opacity=".857" transform="matrix(0 1.31703 1.4547 0 -1511.536 1010.518)"/>
  </g>
</svg>
