<svg xmlns="http://www.w3.org/2000/svg" xmlns:xlink="http://www.w3.org/1999/xlink" width="16" height="16">
  <defs>
    <linearGradient id="d">
      <stop offset="0" stop-color="#b7c9e3"/>
      <stop offset="1" stop-color="#f3f5f6"/>
    </linearGradient>
    <linearGradient id="l">
      <stop offset="0" stop-color="#e4cf9d"/>
      <stop offset=".4" stop-color="#dce9f2"/>
      <stop offset="1" stop-color="#fefdfa"/>
    </linearGradient>
    <linearGradient id="m">
      <stop offset="0" stop-color="#8a9b9e"/>
      <stop offset="1" stop-color="#b1bdbf"/>
    </linearGradient>
    <linearGradient id="k">
      <stop offset="0" stop-color="#8a9b9e"/>
      <stop offset="1" stop-color="#5b7aaa"/>
    </linearGradient>
    <linearGradient id="j">
      <stop offset="0" stop-color="#b7c9e3"/>
      <stop offset="1" stop-color="#f3f5f6"/>
    </linearGradient>
    <linearGradient id="f">
      <stop offset="0" stop-color="#e4cf9d"/>
      <stop offset=".4" stop-color="#dce9f2"/>
      <stop offset="1" stop-color="#fefdfa"/>
    </linearGradient>
    <linearGradient id="g">
      <stop offset="0" stop-color="#8a9b9e"/>
      <stop offset="1" stop-color="#b1bdbf"/>
    </linearGradient>
    <linearGradient id="h">
      <stop offset="0" stop-color="#b7c9e3"/>
      <stop offset="1" stop-color="#f3f5f6"/>
    </linearGradient>
    <linearGradient id="i">
      <stop offset="0" stop-color="#8a9b9e"/>
      <stop offset="1" stop-color="#5b7aaa"/>
    </linearGradient>
    <linearGradient id="e">
      <stop offset="0" stop-color="#8a9b9e"/>
      <stop offset="1" stop-color="#5b7aaa"/>
    </linearGradient>
    <linearGradient id="a">
      <stop offset="0" stop-color="#e4cf9d"/>
      <stop offset=".4" stop-color="#dce9f2"/>
      <stop offset="1" stop-color="#fefdfa"/>
    </linearGradient>
    <linearGradient id="c">
      <stop offset="0" stop-color="#e4cf9d"/>
      <stop offset=".285" stop-color="#b5cef2"/>
      <stop offset=".475" stop-color="#97b2d9"/>
      <stop offset="1" stop-color="#f8f8fc"/>
    </linearGradient>
    <linearGradient xlink:href="#a" id="y" x1="24.077" x2="24.101" y1="1039.28" y2="1043.13" gradientTransform="matrix(1 0 0 -1 -14.042 2084.67)" gradientUnits="userSpaceOnUse"/>
    <linearGradient xlink:href="#b" id="z" x1="20.498" x2="24.424" y1="1041.51" y2="1040.458" gradientTransform="translate(-10.463 3.88)" gradientUnits="userSpaceOnUse"/>
    <linearGradient id="b">
      <stop offset="0" stop-color="#8a9b9e"/>
      <stop offset="1" stop-color="#b1bdbf"/>
    </linearGradient>
    <linearGradient xlink:href="#c" id="x" x1="24.101" x2="24.101" y1="1042.035" y2="1039.475" gradientTransform="translate(-13.069 9.081)" gradientUnits="userSpaceOnUse"/>
    <linearGradient xlink:href="#d" id="v" x1="32.664" x2="32.664" y1="1051.801" y2="1038.272" gradientTransform="translate(-18.176 3.84)" gradientUnits="userSpaceOnUse"/>
    <linearGradient xlink:href="#e" id="w" x1="29.587" x2="29.587" y1="1037.924" y2="1052.018" gradientTransform="translate(-18.176 3.84)" gradientUnits="userSpaceOnUse"/>
    <linearGradient xlink:href="#f" id="t" x1="24.077" x2="24.101" y1="1039.28" y2="1043.13" gradientTransform="matrix(.9979 0 0 -1.0001 -15.986 2082.75)" gradientUnits="userSpaceOnUse"/>
    <linearGradient xlink:href="#g" id="u" x1="20.498" x2="24.424" y1="1041.51" y2="1040.458" gradientTransform="matrix(.9979 0 0 1.0001 -12.415 1.751)" gradientUnits="userSpaceOnUse"/>
    <linearGradient xlink:href="#h" id="r" x1="32.664" x2="32.664" y1="1051.801" y2="1038.272" gradientTransform="matrix(.9979 0 0 1.0001 -20.112 1.71)" gradientUnits="userSpaceOnUse"/>
    <linearGradient xlink:href="#i" id="s" x1="29.587" x2="29.587" y1="1037.924" y2="1052.018" gradientTransform="matrix(.9979 0 0 1.0001 -20.112 1.71)" gradientUnits="userSpaceOnUse"/>
    <linearGradient xlink:href="#j" id="n" x1="32.664" x2="32.664" y1="1051.801" y2="1038.272" gradientTransform="matrix(.9979 0 0 1.0001 -22.096 -.29)" gradientUnits="userSpaceOnUse"/>
    <linearGradient xlink:href="#k" id="o" x1="29.587" x2="29.587" y1="1037.924" y2="1052.018" gradientTransform="matrix(.9979 0 0 1.0001 -22.096 -.29)" gradientUnits="userSpaceOnUse"/>
    <linearGradient xlink:href="#l" id="p" x1="24.077" x2="24.101" y1="1039.28" y2="1043.13" gradientTransform="matrix(.9979 0 0 -1.0001 -17.97 2080.75)" gradientUnits="userSpaceOnUse"/>
    <linearGradient xlink:href="#m" id="q" x1="20.498" x2="24.424" y1="1041.51" y2="1040.458" gradientTransform="matrix(.9979 0 0 1.0001 -14.399 -.249)" gradientUnits="userSpaceOnUse"/>
  </defs>
  <g transform="translate(0 -1036.362)">
    <rect width="10.009" height="10.008" x="1.516" y="1037.853" fill="url(#n)" stroke="url(#o)" stroke-width=".999" rx=".811" ry=".813"/>
    <path fill="url(#p)" stroke="url(#q)" stroke-width=".999" d="M4.314 1041.842h4.377c.45 0 .808-.363.811-.813v-3.186H3.503v3.186c0 .45.362.813.811.813z"/>
    <rect width="10.009" height="10.008" x="3.501" y="1039.853" fill="url(#r)" stroke="url(#s)" stroke-width=".999" rx=".811" ry=".813"/>
    <path fill="url(#t)" stroke="url(#u)" stroke-width=".999" d="M6.298 1043.842h4.378c.449 0 .807-.363.81-.813v-3.186H5.488v3.186c0 .45.361.813.81.813z"/>
    <rect width="10.03" height="10.007" x="5.485" y="1041.879" fill="url(#v)" stroke="url(#w)" rx=".813" ry=".813"/>
    <path fill="url(#x)" stroke="#5b7aaa" d="M9.273 1047.888h2.404a.81.81 0 0 1 .812.812v3.183H8.477v-3.183c0-.45.346-.812.796-.812z"/>
    <path fill="#5b7aaa" d="M10.448 1049.367h.823v2.043h-.823z"/>
    <path fill="url(#y)" stroke="url(#z)" d="M8.29 1045.867h4.386c.45 0 .809-.363.812-.813v-3.186H7.477v3.186c0 .45.362.813.812.813z"/>
    <path fill="#a6b4b6" d="M11.984 1042.894v.495h-3v-.495zm0 .99v.495h-3v-.495z" opacity=".35"/>
  </g>
</svg>
