<svg xmlns="http://www.w3.org/2000/svg" xmlns:xlink="http://www.w3.org/1999/xlink" width="16" height="16">
  <defs>
    <linearGradient xlink:href="#a" id="i" x1="9.125" x2="7.855" y1="13.625" y2="14.895" gradientTransform="translate(.563 1037.034)" gradientUnits="userSpaceOnUse"/>
    <linearGradient id="a">
      <stop offset="0" stop-color="#83adf0"/>
      <stop offset="1" stop-color="#224377"/>
    </linearGradient>
    <linearGradient xlink:href="#b" id="j" x1="9.125" x2="7.855" y1="13.625" y2="14.895" gradientTransform="translate(3.531 1037.034)" gradientUnits="userSpaceOnUse"/>
    <linearGradient id="b">
      <stop offset="0" stop-color="#83adf0"/>
      <stop offset="1" stop-color="#224377"/>
    </linearGradient>
    <linearGradient xlink:href="#c" id="k" x1="9.125" x2="7.855" y1="13.625" y2="14.895" gradientTransform="translate(6.531 1037.034)" gradientUnits="userSpaceOnUse"/>
    <linearGradient id="c">
      <stop offset="0" stop-color="#83adf0"/>
      <stop offset="1" stop-color="#224377"/>
    </linearGradient>
    <linearGradient id="g">
      <stop offset="0" stop-color="#b7c9e3"/>
      <stop offset="1" stop-color="#f3f5f6"/>
    </linearGradient>
    <linearGradient id="h">
      <stop offset="0" stop-color="#8a9b9e"/>
      <stop offset="1" stop-color="#5b7aaa"/>
    </linearGradient>
    <linearGradient xlink:href="#d" id="o" x1="24.101" x2="24.101" y1="1038.278" y2="1043.13" gradientTransform="matrix(1 0 0 -1 -18.022 2080.65)" gradientUnits="userSpaceOnUse"/>
    <linearGradient id="d">
      <stop offset="0" stop-color="#e4cf9d"/>
      <stop offset=".215" stop-color="#dce9f2"/>
      <stop offset="1" stop-color="#fefdfa"/>
    </linearGradient>
    <linearGradient xlink:href="#e" id="p" x1="20.523" x2="24.424" y1="1042.513" y2="1040.458" gradientTransform="translate(-14.443 -.14)" gradientUnits="userSpaceOnUse"/>
    <linearGradient id="e">
      <stop offset="0" stop-color="#8a9b9e"/>
      <stop offset="1" stop-color="#b1bdbf"/>
    </linearGradient>
    <linearGradient xlink:href="#f" id="n" x1="24.101" x2="24.101" y1="1042.035" y2="1039.475" gradientTransform="translate(-17.049 5.967)" gradientUnits="userSpaceOnUse"/>
    <linearGradient id="f">
      <stop offset="0" stop-color="#e4cf9d"/>
      <stop offset=".285" stop-color="#b5cef2"/>
      <stop offset=".475" stop-color="#97b2d9"/>
      <stop offset="1" stop-color="#f8f8fc"/>
    </linearGradient>
    <linearGradient xlink:href="#g" id="l" x1="32.664" x2="32.664" y1="1051.801" y2="1038.272" gradientTransform="translate(-22.156 -.18)" gradientUnits="userSpaceOnUse"/>
    <linearGradient xlink:href="#h" id="m" x1="29.587" x2="29.587" y1="1037.924" y2="1052.018" gradientTransform="translate(-22.156 -.18)" gradientUnits="userSpaceOnUse"/>
  </defs>
  <g transform="translate(0 -1036.362)">
    <rect width="2" height="2" x="8" y="1050.362" fill="url(#i)" color="#000" opacity=".973" overflow="visible" ry=".469" style="marker:none"/>
    <rect width="2" height="2" x="11" y="1050.362" fill="url(#j)" color="#000" opacity=".973" overflow="visible" ry=".469" style="marker:none"/>
    <rect width="2" height="2" x="14" y="1050.362" fill="url(#k)" color="#000" opacity=".973" overflow="visible" ry=".469" style="marker:none"/>
    <rect width="10.958" height="10.973" x="1.506" y="1037.858" fill="url(#l)" stroke="url(#m)" rx=".813" ry=".813"/>
    <path fill="url(#n)" stroke="#5b7aaa" d="M5.293 1044.862H8.68a.81.81 0 0 1 .812.813v3.094H4.497v-3.094c0-.45.346-.813.796-.813z"/>
    <path fill="#5b7aaa" d="M6.976 1046.032h1v2.288h-1z"/>
    <path fill="url(#o)" stroke="url(#p)" d="M4.287 1042.863h5.359a.81.81 0 0 0 .812-.813v-4.202H3.475v4.202c0 .45.362.813.812.813z"/>
    <path fill="#a6b4b6" d="M8.976 1038.353v1H4.96v-1zm0 2v1H4.96v-1z" opacity=".35"/>
  </g>
</svg>
