<svg xmlns="http://www.w3.org/2000/svg" xmlns:xlink="http://www.w3.org/1999/xlink" width="16" height="16">
  <defs>
    <linearGradient id="a">
      <stop offset="0" stop-color="#fff"/>
      <stop offset="1" stop-color="#fff" stop-opacity="0"/>
    </linearGradient>
    <linearGradient xlink:href="#a" id="f" x1="3" x2="4" y1="1045.862" y2="1045.862" gradientUnits="userSpaceOnUse"/>
    <linearGradient xlink:href="#a" id="g" x1="4.5" x2="4.5" y1="1044.347" y2="1045.343" gradientUnits="userSpaceOnUse"/>
    <linearGradient xlink:href="#b" id="h" x1="3" x2="4" y1="1045.862" y2="1045.862" gradientUnits="userSpaceOnUse"/>
    <linearGradient id="b">
      <stop offset="0" stop-color="#fff"/>
      <stop offset="1" stop-color="#fff" stop-opacity="0"/>
    </linearGradient>
    <linearGradient xlink:href="#b" id="i" x1="4.5" x2="4.5" y1="1044.347" y2="1045.343" gradientUnits="userSpaceOnUse"/>
    <linearGradient xlink:href="#c" id="j" x1="3" x2="4" y1="1045.862" y2="1045.862" gradientUnits="userSpaceOnUse"/>
    <linearGradient id="c">
      <stop offset="0" stop-color="#fff"/>
      <stop offset="1" stop-color="#fff" stop-opacity="0"/>
    </linearGradient>
    <linearGradient xlink:href="#c" id="k" x1="4.5" x2="4.5" y1="1044.347" y2="1045.343" gradientUnits="userSpaceOnUse"/>
    <linearGradient id="e">
      <stop offset="0" stop-color="#bd8416"/>
      <stop offset="1" stop-color="#a66b10"/>
    </linearGradient>
    <linearGradient xlink:href="#d" id="l" x1="22.519" x2="22.519" y1="1042.028" y2="1040.735" gradientUnits="userSpaceOnUse"/>
    <linearGradient id="d">
      <stop offset="0" stop-color="#f9cd5f"/>
      <stop offset="1" stop-color="#ffebb7"/>
    </linearGradient>
    <linearGradient xlink:href="#e" id="m" x1="23.551" x2="23.551" y1="1037.362" y2="1045.362" gradientUnits="userSpaceOnUse"/>
    <linearGradient xlink:href="#d" id="n" x1="22.931" x2="22.931" y1="1039.698" y2="1041.736" gradientUnits="userSpaceOnUse"/>
    <linearGradient xlink:href="#e" id="o" x1="25.363" x2="25.363" y1="1044.731" y2="1037.731" gradientUnits="userSpaceOnUse"/>
  </defs>
  <path fill="#5c7aaa" d="M1 5v3h3V5zm1 1h1v1H2Z"/>
  <path fill="#91a5c7" d="M2 6h1v1H2z"/>
  <path fill="url(#f)" d="m3 1044.362 1 1v2H3Z" opacity=".5" transform="matrix(.33334 0 0 .33333 1 -342.12)"/>
  <path fill="url(#g)" d="m3 1044.362 1 1h2v-1z" opacity=".5" transform="matrix(.33334 0 0 .33333 1 -342.12)"/>
  <path fill="#5c7aaa" d="M5 9v3h3V9zm1 1h1v1H6Z"/>
  <path fill="#91a5c7" d="M6 10h1v1H6z"/>
  <path fill="url(#h)" d="m3 1044.362 1 1v2H3Z" opacity=".5" transform="matrix(.33334 0 0 .33333 5 -338.12)"/>
  <path fill="url(#i)" d="m3 1044.362 1 1h2v-1z" opacity=".5" transform="matrix(.33334 0 0 .33333 5 -338.12)"/>
  <path fill="#5c7aaa" d="M5 13v3h3v-3zm1 1.007h1v1.008H6Z"/>
  <path fill="#91a5c7" d="M6 14h1v1H6z"/>
  <path fill="url(#j)" d="m3 1044.362 1 1v2H3Z" opacity=".5" transform="matrix(.33334 0 0 .33333 5 -334.12)"/>
  <path fill="url(#k)" d="m3 1044.362 1 1h2v-1z" opacity=".5" transform="matrix(.33334 0 0 .33333 5 -334.12)"/>
  <path fill="#5c7aaa" d="M2 8h1v7H2Z"/>
  <path fill="#5c7aaa" d="M2 10h3v1H2ZM2 14h3v1H2Z"/>
  <g stroke-width="1.169">
    <path fill="url(#l)" stroke="url(#m)" stroke-width=".936" d="M23.585 1039.325v-1.591s-.353-.84-1.37-.044c-1.016.795-2.21 2.077-2.386 2.43-.177.354-.928.973.088 1.945 1.017.972 2.121 1.989 2.121 1.989s1.547 1.458 1.547.088v-1.812c1.367-.063 1.695.355 2.04.688.345.334.813 1.969 1.219 2.094.406.125.625-2.188.625-2.625 0-.438-.175-1.244-.719-1.969-.294-.39-1.007-.955-1.531-1.1-.525-.144-1.634-.093-1.634-.093z" transform="matrix(-.85515 0 0 .85515 29.192 -885.702)"/>
    <path fill="#fff" d="M9.464 2.571v-.51s-.095-.321.189-.208c.283.114.831.567.888.662.057.094.642.51.51.699-.132.189-1.247.057-1.247.057z" opacity=".857"/>
  </g>
  <g stroke-width="1.169">
    <path fill="url(#n)" stroke="url(#o)" stroke-width=".936" d="M23.585 1039.325v-1.591s-.353-.84-1.37-.044c-1.016.795-2.21 2.077-2.386 2.43-.177.354-.928.973.088 1.945 1.017.972 2.121 1.989 2.121 1.989s.405.381.8.57c.378.182.747.188.747-.482v-1.812c1.367-.063 1.728.345 2.04.688.313.344.813 1.969 1.219 2.094.406.125.625-2.188.625-2.625 0-.438-.094-1.313-.719-1.969-.625-.656-1.007-.955-1.531-1.1-.525-.144-1.634-.093-1.634-.093z" transform="matrix(.85515 0 0 -.85515 -7.953 900.796)"/>
    <path fill="#fff" d="M11.775 8.893v-.51s.094-.322-.19-.208c-.283.113-.83.567-.888.661-.056.094-.642.51-.51.7.133.188 1.247.056 1.247.056z" opacity=".857"/>
  </g>
</svg>
