<svg xmlns="http://www.w3.org/2000/svg" width="16" height="16">
  <g color="#000">
    <path fill="#5fcf92" stroke="#3d9465" stroke-width="1.396" d="M14.363 7.912a6.806 6.806 0 1 1-13.612 0 6.806 6.806 0 0 1 13.612 0z" overflow="visible" style="marker:none" transform="matrix(.9309 0 0 .9309 1.102 .543)"/>
    <path fill="none" stroke="#3d9465" stroke-width="2.578" d="M14.363 7.912a6.806 6.806 0 1 1-13.612 0 6.806 6.806 0 0 1 13.612 0z" overflow="visible" style="marker:none" transform="translate(4.414 4.006) scale(.50434)"/>
    <path fill="#20680c" stroke="#20680c" stroke-width="2.03" d="M14.363 7.912a6.806 6.806 0 1 1-13.612 0 6.806 6.806 0 0 1 13.612 0z" overflow="visible" style="marker:none" transform="matrix(.23264 0 0 .23264 6.53 6.094)"/>
  </g>
</svg>
