<svg xmlns="http://www.w3.org/2000/svg" xmlns:xlink="http://www.w3.org/1999/xlink" width="16" height="16">
  <defs>
    <linearGradient id="c">
      <stop offset="0" stop-color="#b9cad4"/>
      <stop offset="1" stop-color="#fff" stop-opacity="0"/>
    </linearGradient>
    <linearGradient id="b">
      <stop offset="0" stop-color="#998f6a"/>
      <stop offset="1" stop-color="#7d827c"/>
    </linearGradient>
    <linearGradient id="a">
      <stop offset="0" stop-color="#267fe3"/>
      <stop offset="1" stop-color="#80b4ef"/>
    </linearGradient>
    <linearGradient xlink:href="#a" id="e" x1="16.798" x2="17.847" y1="1047.219" y2="1045.608" gradientUnits="userSpaceOnUse"/>
    <linearGradient xlink:href="#b" id="d" x1="18.834" x2="25.201" y1="1038.91" y2="1045.91" gradientUnits="userSpaceOnUse"/>
    <linearGradient xlink:href="#c" id="f" x1="25.594" x2="26.562" y1="1046.628" y2="1048.503" gradientUnits="userSpaceOnUse"/>
  </defs>
  <path fill="#80b4ef" fill-rule="evenodd" stroke="url(#d)" d="m22.719 1037.862 6.17 6.593-6.844 3.965-6.233-6.683z" transform="translate(-14.156 -1036.331)"/>
  <path fill="url(#e)" fill-rule="evenodd" stroke="#8f8b70" d="M15.83 1041.71s-.513.297-.736.52c-.44.44-.282 2.757-.282 2.757l5.875 5.875.973.26v-3.228z" transform="translate(-14.156 -1036.331)"/>
  <path fill="none" stroke="#727b84" d="M7.719 14.719c.25-.094 7.73-4.463 7.73-4.463m-.222-2.315-.607.334-5.325 3.01-1.67.804"/>
  <path fill="#fff" fill-rule="evenodd" stroke="#8f8b70" stroke-width="1.112" d="M9.828 6.663V5.516L8.751 4.473H7.534l-.973 1.182-1.112.034-.264.984L6.561 7.74h1.112L8.89 6.593z"/>
  <path fill="url(#f)" fill-rule="evenodd" d="m22.156 1048.112 7.063-3.719v2.375l-7.282 4.094z" transform="translate(-14.156 -1036.331)"/>
</svg>
