<svg xmlns="http://www.w3.org/2000/svg" xmlns:xlink="http://www.w3.org/1999/xlink" width="16" height="16">
  <defs>
    <linearGradient id="e">
      <stop offset="0" stop-color="#d1d6dd"/>
      <stop offset="1" stop-color="#bfc9d6"/>
    </linearGradient>
    <linearGradient id="c">
      <stop offset="0" stop-color="#bfc9d6"/>
      <stop offset="1" stop-color="#cbd2db"/>
    </linearGradient>
    <linearGradient id="b">
      <stop offset="0" stop-color="#eef6ff"/>
      <stop offset="1" stop-color="#fdfeff"/>
    </linearGradient>
    <linearGradient id="a">
      <stop offset="0" stop-color="#717883"/>
      <stop offset="1" stop-color="#81733e"/>
    </linearGradient>
    <linearGradient id="d">
      <stop offset="0" stop-color="#d6e0e6"/>
      <stop offset="1" stop-color="#d6e0e6" stop-opacity="0"/>
    </linearGradient>
    <linearGradient xlink:href="#a" id="g" x1="21.948" x2="21.948" y1="1035.72" y2="1028.428" gradientTransform="translate(-14.203 22.03)" gradientUnits="userSpaceOnUse"/>
    <linearGradient xlink:href="#b" id="f" x1="20.932" x2="20.932" y1="1036.206" y2="1030.549" gradientTransform="translate(-14.203 22.03)" gradientUnits="userSpaceOnUse"/>
    <linearGradient xlink:href="#c" id="i" x1="23.191" x2="26.213" y1="1022.839" y2="1022.839" gradientUnits="userSpaceOnUse"/>
    <linearGradient xlink:href="#c" id="j" x1="23.191" x2="26.213" y1="1022.839" y2="1022.839" gradientTransform="translate(0 -2)" gradientUnits="userSpaceOnUse"/>
    <linearGradient xlink:href="#c" id="k" x1="23.191" x2="26.213" y1="1022.839" y2="1022.839" gradientTransform="translate(0 -3.984)" gradientUnits="userSpaceOnUse"/>
    <linearGradient xlink:href="#d" id="h" x1="15.156" x2="28.135" y1="1043.8" y2="1043.8" gradientUnits="userSpaceOnUse"/>
    <linearGradient xlink:href="#e" id="l" x1="17.206" x2="21.227" y1="1020.343" y2="1020.343" gradientTransform="translate(-14.203 34.03)" gradientUnits="userSpaceOnUse"/>
    <linearGradient xlink:href="#e" id="m" x1="17.206" x2="21.227" y1="1020.343" y2="1020.343" gradientTransform="translate(-14.203 36.037)" gradientUnits="userSpaceOnUse"/>
  </defs>
  <path fill="#3d4b65" stroke="#3d4b65" d="M8.264 2.97h6.249v8.592H8.264z"/>
  <path fill="#3d4b65" fill-rule="evenodd" stroke="#3d4b65" d="M7.535 7.67h-2.21c-.37 0-.36-1.039-.795-1.039H1.458v4.95h2.453c.638 0 .202 1.047.605 1.047h3.02zm-.022.044c0-.49 1.06-1.017 1.06-1.017l-.132 4.994-.884.884s-.044-2.11-.044-4.861z"/>
  <path fill="url(#f)" fill-rule="evenodd" stroke="url(#g)" d="M7.577 1051.91h-2.21c-.37 0-.36-1.038-.796-1.038H1.5v8.043h2.453c.638 0 .201 1.047.604 1.047h3.02zm-.022.044c0-.49.57-1.016 1.06-1.016h4.906v8.087H8.483c-.35 0-.884.884-.884.884s-.044-5.204-.044-7.955z" transform="translate(0 -1048.355)"/>
  <g stroke="none">
    <path fill="url(#i)" d="M23.191 1022.333h3.022v1.011h-3.022z" transform="translate(-14.172 -1014.325)"/>
    <path fill="url(#j)" d="M23.191 1020.333h3.022v1.011h-3.022z" transform="translate(-14.172 -1014.325)"/>
    <path fill="url(#k)" d="M23.191 1018.349h3.022v1.011h-3.022z" transform="translate(-14.172 -1014.325)"/>
  </g>
  <path fill="none" stroke="url(#l)" d="M7.024 1054.892H5.698c-.37 0-.36-1.038-.795-1.038h-1.9" transform="translate(0 -1048.355)"/>
  <path fill="none" stroke="url(#m)" d="M7.024 1056.9H5.698c-.37 0-.36-1.04-.795-1.04h-1.9" transform="translate(0 -1048.355)"/>
</svg>
