<svg xmlns="http://www.w3.org/2000/svg" xmlns:xlink="http://www.w3.org/1999/xlink" width="16" height="16">
  <defs>
    <linearGradient id="d">
      <stop offset="0" stop-color="#f9fafc"/>
      <stop offset="1" stop-color="#dfe8f7"/>
    </linearGradient>
    <linearGradient id="b">
      <stop offset="0" stop-color="#e0c88f"/>
      <stop offset="1" stop-color="#d4b268"/>
    </linearGradient>
    <linearGradient id="c">
      <stop offset="0" stop-color="#a2b3cf"/>
      <stop offset="1" stop-color="#869abe"/>
    </linearGradient>
    <linearGradient xlink:href="#a" id="g" x1="10.545" x2="10.545" y1="1038.578" y2="1052.323" gradientTransform="matrix(.7943 0 0 .77153 -10.867 237.313)" gradientUnits="userSpaceOnUse"/>
    <linearGradient id="a">
      <stop offset="0" stop-color="#b4903d"/>
      <stop offset="1" stop-color="#7b744f"/>
    </linearGradient>
    <linearGradient xlink:href="#c" id="h" x1="7.007" x2="12.016" y1="1051.857" y2="1051.857" gradientTransform="matrix(.99812 0 0 1 -11.994 -7.99)" gradientUnits="userSpaceOnUse"/>
    <linearGradient xlink:href="#c" id="i" x1="7.007" x2="12.016" y1="1051.857" y2="1051.857" gradientTransform="matrix(.39925 0 0 1 -7.798 -10)" gradientUnits="userSpaceOnUse"/>
    <linearGradient xlink:href="#c" id="j" x1="7.007" x2="12.016" y1="1051.857" y2="1051.857" gradientTransform="matrix(.99812 0 0 1 -11.994 -5.99)" gradientUnits="userSpaceOnUse"/>
    <linearGradient xlink:href="#d" id="e" x1="8.22" x2="8.75" y1="1040.96" y2="1050.329" gradientTransform="matrix(1.13137 0 0 1.20684 -11.616 -219.655)" gradientUnits="userSpaceOnUse"/>
    <radialGradient xlink:href="#b" id="f" cx="9.497" cy="1043.732" r="2" fx="9.497" fy="1043.732" gradientTransform="matrix(1.18883 -.01895 .0194 1.01552 -33.032 -17.988)" gradientUnits="userSpaceOnUse"/>
  </defs>
  <path fill="url(#e)" d="m-6.449 1039.042 4.86-.044.192 3.069 2.947.018-.236 6.968-7.895-.283z" transform="translate(10 -1036.362)"/>
  <path fill="#d5b269" fill-rule="evenodd" stroke="url(#f)" d="M1.575 1041.862H-1.5v-2.81" transform="translate(10 -1036.362)"/>
  <path fill="none" stroke="url(#g)" d="M-6.5 1038.862h5.568l2.432 2.32v7.68h-8z" transform="translate(10 -1036.362)"/>
  <path fill="url(#h)" d="M-5 1043.362h5v1.01h-5z" transform="translate(10 -1036.362)"/>
  <path fill="url(#i)" d="M-5 1041.352h2v1.01h-2z" transform="translate(10 -1036.362)"/>
  <path fill="url(#j)" d="M-5 1045.362h5v1.01h-5z" transform="translate(10 -1036.362)"/>
</svg>
