<svg xmlns="http://www.w3.org/2000/svg" xmlns:xlink="http://www.w3.org/1999/xlink" width="16" height="16">
  <defs>
    <linearGradient id="c">
      <stop offset="0" stop-color="#f8d078"/>
      <stop offset="1" stop-color="#f8f0c8"/>
    </linearGradient>
    <linearGradient id="a">
      <stop offset="0" stop-color="#c48a4e"/>
      <stop offset="1" stop-color="#ad6c24"/>
    </linearGradient>
    <linearGradient id="b">
      <stop offset="0" stop-color="#c38536"/>
      <stop offset=".154" stop-color="#f2dc91"/>
      <stop offset=".5" stop-color="#fbdc8b"/>
      <stop offset=".75" stop-color="#e6bd7a"/>
      <stop offset="1" stop-color="#ba772f"/>
    </linearGradient>
    <linearGradient id="d">
      <stop offset="0" stop-color="#9e6627"/>
      <stop offset="1" stop-color="#c38536"/>
    </linearGradient>
    <linearGradient xlink:href="#a" id="f" x1="531.093" x2="531.093" y1="366.789" y2="371.179" gradientTransform="translate(-61.367 -4.443)" gradientUnits="userSpaceOnUse"/>
    <linearGradient xlink:href="#b" id="i" x1="523.008" x2="543.914" y1="373.229" y2="373.229" gradientTransform="translate(-60.559 -4.47)" gradientUnits="userSpaceOnUse"/>
    <linearGradient xlink:href="#c" id="g" x1="538.006" x2="538.006" y1="396.223" y2="374.212" gradientTransform="translate(-60.559 -5.888)" gradientUnits="userSpaceOnUse"/>
    <linearGradient xlink:href="#d" id="h" x1="548.459" x2="548.459" y1="398.988" y2="373.771" gradientTransform="translate(-60.559 -5.888)" gradientUnits="userSpaceOnUse"/>
    <linearGradient id="e">
      <stop offset="0" stop-color="#166b9f"/>
      <stop offset="1" stop-color="#e6f9cc"/>
    </linearGradient>
    <linearGradient xlink:href="#e" id="k" x1="28.902" x2="18.312" y1="1042.019" y2="1042.019" gradientUnits="userSpaceOnUse"/>
    <mask id="j" maskUnits="userSpaceOnUse"/>
  </defs>
  <g transform="matrix(.33026 0 0 .33026 -150.61 -118.2)">
    <rect width="15" height="16.625" x="463.743" y="362.607" fill="#fdf7eb" stroke="url(#f)" stroke-linecap="round" stroke-linejoin="round" stroke-width="3.028" rx="2.625" ry="2.625"/>
    <path fill="url(#g)" stroke="url(#h)" stroke-linecap="round" stroke-linejoin="round" stroke-width="3.028" d="M463.249 368.76h28.075a2.62 2.62 0 0 1 2.625 2.625v18.922a2.617 2.617 0 0 1-2.625 2.625l-28.075-.058a2.621 2.621 0 0 1-2.625-2.625v-18.864a2.62 2.62 0 0 1 2.625-2.625z"/>
    <path fill="none" stroke="url(#i)" stroke-width="3.028" d="M462.262 368.76h20.093"/>
    <path fill="url(#k)" stroke="#1a659c" stroke-width=".953" d="M22.661 1040.118v-1.857s-.412-.98-1.598-.05c-1.187.928-2.579 2.423-2.785 2.836-.207.412-1.083 1.135.103 2.27l.573.544c.993.94 1.902 1.776 1.902 1.776s1.805 1.702 1.805.102v-2.114c.704.019 2.653-.147 3.128.15.772.481 1.68.985 2.36 3.501.129.479.692-1.698.631-3.065-.063-1.432-.644-2.34-1.345-2.992-.98-.913-.952-.86-1.564-1.029-.612-.168-1.832-.11-1.832-.11z" transform="matrix(0 2.5406 2.5406 0 -2169.288 328.75)"/>
  </g>
</svg>
