<svg xmlns="http://www.w3.org/2000/svg" xmlns:xlink="http://www.w3.org/1999/xlink" width="16" height="16">
  <defs>
    <linearGradient id="a">
      <stop offset="0" stop-color="#fff"/>
      <stop offset="1" stop-color="#fff" stop-opacity="0"/>
    </linearGradient>
    <linearGradient id="b">
      <stop offset="0" stop-color="#e0c576"/>
      <stop offset="1" stop-color="#9e7916"/>
    </linearGradient>
    <linearGradient id="c">
      <stop offset="0" stop-color="#f7f9fb"/>
      <stop offset="1" stop-color="#ffd680"/>
    </linearGradient>
    <linearGradient xlink:href="#a" id="h" x1="10" x2="10.008" y1="5" y2="6.984" gradientTransform="translate(-15.016 1046.636)" gradientUnits="userSpaceOnUse"/>
    <linearGradient xlink:href="#a" id="i" x1="12" x2="12" y1="1043.362" y2="1045.347" gradientTransform="matrix(1 0 0 .58745 -15.016 440.097)" gradientUnits="userSpaceOnUse"/>
    <linearGradient xlink:href="#a" id="j" x1="13" x2="15.008" y1="1043.362" y2="1043.347" gradientTransform="translate(-15.016 10.273)" gradientUnits="userSpaceOnUse"/>
    <linearGradient xlink:href="#a" id="k" x1="12" x2="10.008" y1="1042.362" y2="1042.362" gradientTransform="matrix(1 0 0 .58745 -15.016 440.097)" gradientUnits="userSpaceOnUse"/>
    <linearGradient xlink:href="#a" id="l" x1="10" x2="8.008" y1="1041.362" y2="1041.347" gradientTransform="translate(-15.016 10.273)" gradientUnits="userSpaceOnUse"/>
    <linearGradient xlink:href="#a" id="m" x1="10" x2="10.008" y1="1040.362" y2="1038.347" gradientTransform="translate(-15.016 10.273)" gradientUnits="userSpaceOnUse"/>
    <linearGradient xlink:href="#a" id="n" x1="12" x2="10.008" y1="1038.362" y2="1038.347" gradientTransform="translate(-15.016 10.273)" gradientUnits="userSpaceOnUse"/>
    <linearGradient xlink:href="#a" id="o" x1="14" x2="14" y1="1041.362" y2="1043.347" gradientTransform="translate(-15.016 10.273)" gradientUnits="userSpaceOnUse"/>
    <linearGradient xlink:href="#c" id="q" x1=".938" x2=".938" y1="4.844" y2="7.549" gradientTransform="matrix(2.31999 0 0 2.31999 10.2 1043.185)" gradientUnits="userSpaceOnUse"/>
    <linearGradient xlink:href="#d" id="g" x1="388.637" x2="388.637" y1="478.188" y2="462.115" gradientUnits="userSpaceOnUse"/>
    <linearGradient id="d">
      <stop offset="0" stop-color="#4f9e55"/>
      <stop offset=".5" stop-color="#418a4d"/>
      <stop offset="1" stop-color="#91c168"/>
    </linearGradient>
    <radialGradient xlink:href="#b" id="p" cx="-757.205" cy="-738.838" r="3.48" fx="-757.205" fy="-738.838" gradientTransform="matrix(1.85082 0 0 1.77506 644.25 572.636)" gradientUnits="userSpaceOnUse"/>
    <filter id="f" width="1.48" height="1.48" x="-.24" y="-.24" color-interpolation-filters="sRGB">
      <feGaussianBlur stdDeviation="1.465"/>
    </filter>
    <mask id="e" maskUnits="userSpaceOnUse">
      <path fill="#fff" stroke="#fff" stroke-linecap="round" stroke-linejoin="round" stroke-width="2.166" d="m 398.75,468.23718 a 10.625,10.625 0 1 1 -21.25,0 10.625,10.625 0 1 1 21.25,0 z" font-family="Sans" font-size="13.589" font-weight="400" letter-spacing="0" style="line-height:125%" transform="matrix(.55483 0 0 .55483 -206.96 787.087)" word-spacing="0"/>
    </mask>
  </defs>
  <g fill="#fff" font-family="Sans" font-size="13.589" font-weight="400" letter-spacing="0" style="line-height:125%" word-spacing="0">
    <g mask="url(#e)" style="line-height:125%" transform="translate(-.87 -1038.391)">
      <path stroke="#fff" stroke-linecap="round" stroke-linejoin="round" stroke-width="5.855" d="m -16.30668,1023.0143 c 0,0 0.754772,2.7548 2.663409,4.6634 1.908637,1.9086 4.663405,2.6634 4.663405,2.6634 0,0 -2.739141,0.7391 -4.663398,2.6634 -1.924257,1.9243 -2.663409,4.6634 -2.663409,4.6634 0,0 -0.676645,-2.6766 -2.66341,-4.6634 -1.986765,-1.9868 -4.663405,-2.6634 -4.663405,-2.6634 0,0 2.801649,-0.8017 4.663405,-2.6634 1.861756,-1.8618 2.663403,-4.6634 2.663403,-4.6634 z" filter="url(#f)" opacity=".85" transform="matrix(.51238 0 0 .51238 21.788 514.893)"/>
    </g>
    <g style="line-height:125%" transform="translate(16.13 -1028.348)">
      <circle cx="388.125" cy="468.237" r="8.959" fill="url(#g)" stroke="#14733c" stroke-linecap="round" stroke-linejoin="round" stroke-width="1.492" transform="matrix(.66884 0 0 .6714 -267.183 722.47)"/>
    </g>
    <path d="m 9.9582435,1043.4532 c -0.2897069,-0.3986 -0.2258257,-0.3177 -0.4712765,-0.5307 -0.2405524,-0.2129 -0.5547364,-0.3192 -0.9425527,-0.3192 -0.5154625,0 -0.927829,0.185 -1.2371006,0.5551 -0.3043689,0.3648 -0.4565517,0.6031 -0.4565489,1.4648 -2.8e-6,0.958 0.1546346,1.3845 0.4639127,1.7799 0.3141807,0.3954 0.8001884,0.593 1.2591915,0.593 0.4590031,0 0.7078193,-0.1439 0.9646439,-0.3422 0.2568246,-0.1983 0.2834574,-0.2 0.5301861,-0.7297 l 2.032379,-0.017 c -0.211101,0.9629 -0.616102,1.6013 -1.215009,2.093 -0.598921,0.4917 -1.401562,0.7374 -2.407928,0.7374 -1.1438303,0 -2.0569271,-0.3724 -2.7392935,-1.1176 -0.6774613,-0.7449 -1.0161905,-1.5264 -1.0161905,-2.8443 0,-1.333 0.3411837,-1.9946 1.0235539,-2.7344 0.6823664,-0.7452 1.6052818,-1.1177 2.7687486,-1.1177 0.9523657,0 1.7083715,0.2129 2.2680175,0.6387 0.564543,0.4205 1.032045,0.9883 1.277509,1.8547 z" font-family="Arial" font-size="15.569" font-weight="700" style="line-height:125%" transform="translate(0 -1036.362)"/>
  </g>
  <path fill="url(#h)" d="m -7.007813,1053.62 2,0 1.492188,-1.4844 -2.0312504,0 z" transform="translate(14.992 -1046.604)"/>
  <path fill="url(#i)" d="m -5.007813,1054.1825 4,0 0,-0.5874 -0.476562,-0.2846 -2.03125,0 z" transform="translate(14.992 -1046.604)"/>
  <path fill="url(#j)" d="m -1.484375,1052.1356 0,2 0.476562,0.4844 0,-2 z" transform="translate(14.992 -1046.604)"/>
  <path fill="url(#k)" d="m -5.007813,1053.0076 0,1.1749 1.492188,-0.872 0,-1.1749 z" transform="translate(14.992 -1046.604)"/>
  <path fill="url(#l)" d="m -7.007813,1048.62 0,5 1.4609376,-1.4844 0,-2 z" transform="translate(14.992 -1046.604)"/>
  <path fill="url(#m)" d="m -5.007813,1048.62 -2,0 1.4609375,1.5156 2.0312505,0 z" transform="translate(14.992 -1046.604)"/>
  <path fill="url(#n)" d="m -5.007813,1048.62 0,0 1.503907,1.5273 0,-1.5156 z" transform="translate(14.992 -1046.604)"/>
  <path fill="url(#o)" d="m -1.011718,1052.1356 -0.472657,0 0.476563,0.4844 -0.0039,0 z" transform="translate(14.992 -1046.604)"/>
  <path fill="url(#p)" stroke="#a27d18" stroke-width="1.032" d="M-758.823-740.411H-754.24V-735.957H-758.823z" transform="rotate(-135 -218.165 -526.014)"/>
  <path fill="url(#q)" d="m 12.471186,1054.309 1.001133,0 0,1.946 1.986639,0 0,1.0167 -1.986639,0 0,2.043 -1.001133,0 0,-2.043 -1.98664,0 0,-1.0167 1.98664,0 z" transform="translate(-.482 -1052.228)"/>
</svg>
