<svg xmlns="http://www.w3.org/2000/svg" xmlns:xlink="http://www.w3.org/1999/xlink" width="16" height="16">
  <defs>
    <linearGradient id="i">
      <stop offset="0" stop-color="#663e32"/>
      <stop offset=".182" stop-color="#8c5d46"/>
      <stop offset=".364" stop-color="#663e32"/>
      <stop offset=".5" stop-color="#663e32"/>
      <stop offset=".636" stop-color="#663e32"/>
      <stop offset=".818" stop-color="#8c5d46"/>
      <stop offset="1" stop-color="#663e32"/>
    </linearGradient>
    <linearGradient id="c">
      <stop offset="0" stop-color="#f8d078"/>
      <stop offset="1" stop-color="#f8f0c8"/>
    </linearGradient>
    <linearGradient id="a">
      <stop offset="0" stop-color="#c48a4e"/>
      <stop offset="1" stop-color="#ad6c24"/>
    </linearGradient>
    <linearGradient id="b">
      <stop offset="0" stop-color="#c38536"/>
      <stop offset=".154" stop-color="#f2dc91"/>
      <stop offset=".5" stop-color="#fbdc8b"/>
      <stop offset=".75" stop-color="#e6bd7a"/>
      <stop offset="1" stop-color="#ba772f"/>
    </linearGradient>
    <linearGradient id="d">
      <stop offset="0" stop-color="#9e6627"/>
      <stop offset="1" stop-color="#c38536"/>
    </linearGradient>
    <linearGradient xlink:href="#a" id="n" x1="531.093" x2="531.093" y1="366.789" y2="371.179" gradientTransform="translate(-61.367 1.445)" gradientUnits="userSpaceOnUse"/>
    <linearGradient xlink:href="#b" id="q" x1="523.008" x2="543.914" y1="373.229" y2="373.229" gradientTransform="translate(-60.559 1.419)" gradientUnits="userSpaceOnUse"/>
    <linearGradient xlink:href="#c" id="o" x1="538.006" x2="538.006" y1="396.223" y2="374.212" gradientTransform="translate(-60.559)" gradientUnits="userSpaceOnUse"/>
    <linearGradient xlink:href="#d" id="p" x1="548.459" x2="548.459" y1="398.988" y2="373.771" gradientTransform="translate(-60.559)" gradientUnits="userSpaceOnUse"/>
    <linearGradient id="h">
      <stop offset="0" stop-color="#faf6ba"/>
      <stop offset="1" stop-color="#a97d5e"/>
    </linearGradient>
    <linearGradient id="g">
      <stop offset="0" stop-color="#faf6ba"/>
      <stop offset="1" stop-color="#a97d5e"/>
    </linearGradient>
    <linearGradient id="f">
      <stop offset="0" stop-color="#faf6ba"/>
      <stop offset="1" stop-color="#a97d5e"/>
    </linearGradient>
    <linearGradient id="e">
      <stop offset="0" stop-color="#faf6ba"/>
      <stop offset="1" stop-color="#a97d5e"/>
    </linearGradient>
    <linearGradient id="j">
      <stop offset="0" stop-color="#663e32"/>
      <stop offset=".182" stop-color="#8c5d46"/>
      <stop offset=".364" stop-color="#663e32"/>
      <stop offset=".5" stop-color="#663e32"/>
      <stop offset=".636" stop-color="#663e32"/>
      <stop offset=".818" stop-color="#8c5d46"/>
      <stop offset="1" stop-color="#663e32"/>
    </linearGradient>
    <linearGradient xlink:href="#i" id="x" x1="357.093" x2="392.925" y1="449.881" y2="449.881" gradientUnits="userSpaceOnUse"/>
    <linearGradient xlink:href="#j" id="y" x1="357.093" x2="392.925" y1="449.881" y2="449.881" gradientTransform="rotate(90 375.01 449.881)" gradientUnits="userSpaceOnUse"/>
    <linearGradient xlink:href="#k" id="z" x1="10" x2="10.008" y1="5" y2="6.984" gradientTransform="translate(-15.016 1046.636)" gradientUnits="userSpaceOnUse"/>
    <linearGradient id="k">
      <stop offset="0" stop-color="#fff"/>
      <stop offset="1" stop-color="#fff" stop-opacity="0"/>
    </linearGradient>
    <linearGradient xlink:href="#k" id="A" x1="12" x2="12" y1="1043.362" y2="1045.347" gradientTransform="translate(-15.016 10.273)" gradientUnits="userSpaceOnUse"/>
    <linearGradient xlink:href="#k" id="B" x1="13" x2="15.008" y1="1043.362" y2="1043.347" gradientTransform="translate(-15.016 10.273)" gradientUnits="userSpaceOnUse"/>
    <linearGradient xlink:href="#k" id="C" x1="12" x2="10.008" y1="1042.362" y2="1042.362" gradientTransform="translate(-15.016 10.273)" gradientUnits="userSpaceOnUse"/>
    <linearGradient xlink:href="#k" id="D" x1="10" x2="8.008" y1="1041.362" y2="1041.347" gradientTransform="translate(-15.016 10.273)" gradientUnits="userSpaceOnUse"/>
    <linearGradient xlink:href="#k" id="E" x1="10" x2="10.008" y1="1040.362" y2="1038.347" gradientTransform="translate(-15.016 10.273)" gradientUnits="userSpaceOnUse"/>
    <linearGradient xlink:href="#k" id="F" x1="12" x2="10.008" y1="1038.362" y2="1038.347" gradientTransform="translate(-15.016 10.273)" gradientUnits="userSpaceOnUse"/>
    <linearGradient xlink:href="#k" id="G" x1="14" x2="14" y1="1041.362" y2="1043.347" gradientTransform="translate(-15.016 10.273)" gradientUnits="userSpaceOnUse"/>
    <linearGradient id="l">
      <stop offset="0" stop-color="#e0c576"/>
      <stop offset="1" stop-color="#9e7916"/>
    </linearGradient>
    <linearGradient xlink:href="#m" id="I" x1=".938" x2=".938" y1="4.844" y2="7.549" gradientTransform="matrix(2.31999 0 0 2.31999 10.2 1043.185)" gradientUnits="userSpaceOnUse"/>
    <linearGradient id="m">
      <stop offset="0" stop-color="#f7f9fb"/>
      <stop offset="1" stop-color="#ffd680"/>
    </linearGradient>
    <radialGradient xlink:href="#e" id="t" cx="387.597" cy="442.578" r="6.188" fx="387.597" fy="442.578" gradientTransform="matrix(1.56579 0 0 1.37407 -239.208 -165.52)" gradientUnits="userSpaceOnUse"/>
    <radialGradient xlink:href="#f" id="u" cx="387.597" cy="442.578" r="6.188" fx="387.597" fy="442.578" gradientTransform="matrix(1.56579 0 0 1.37407 -228.333 -165.52)" gradientUnits="userSpaceOnUse"/>
    <radialGradient xlink:href="#g" id="v" cx="387.597" cy="442.578" r="6.188" fx="387.597" fy="442.578" gradientTransform="matrix(1.56579 0 0 1.37407 -239.208 -154.923)" gradientUnits="userSpaceOnUse"/>
    <radialGradient xlink:href="#h" id="w" cx="387.597" cy="442.578" r="6.188" fx="387.597" fy="442.578" gradientTransform="matrix(1.56579 0 0 1.37407 -228.333 -154.923)" gradientUnits="userSpaceOnUse"/>
    <radialGradient xlink:href="#l" id="H" cx="-757.205" cy="-738.838" r="3.48" fx="-757.205" fy="-738.838" gradientTransform="matrix(1.85082 0 0 1.77506 644.25 572.636)" gradientUnits="userSpaceOnUse"/>
    <filter id="s" width="1.48" height="1.48" x="-.24" y="-.24" color-interpolation-filters="sRGB">
      <feGaussianBlur stdDeviation="1.465"/>
    </filter>
    <mask id="r" maskUnits="userSpaceOnUse">
      <g fill="#fff" stroke="#fff" stroke-width="3.028" transform="matrix(1.18358 0 0 1.18358 -72.087 -81.713)">
        <rect width="15" height="16.625" x="463.743" y="368.495" stroke-linecap="round" stroke-linejoin="round" rx="2.625" ry="2.625"/>
        <path stroke-linecap="round" stroke-linejoin="round" d="m 463.24874,374.64819 31.13385,0 c 1.45425,0 2.625,1.17075 2.625,2.625 l 0,19.0178 c 0,1.45425 -1.17076,2.63221 -2.625,2.625 l -31.13385,-0.15421 c -1.45423,-0.007 -2.625,-1.17075 -2.625,-2.625 l 0,-18.86359 c 0,-1.45425 1.17075,-2.625 2.625,-2.625 z"/>
        <path d="m 462.26171,374.64819 20.09375,0"/>
      </g>
    </mask>
  </defs>
  <g stroke-width="3.028" transform="matrix(.33026 0 0 .33026 -149.626 -119.216)">
    <rect width="15" height="16.625" x="463.743" y="368.495" fill="#fdf7eb" stroke="url(#n)" stroke-linecap="round" stroke-linejoin="round" rx="2.625" ry="2.625"/>
    <path fill="url(#o)" stroke="url(#p)" stroke-linecap="round" stroke-linejoin="round" d="m 463.24874,374.64819 31.13385,0 c 1.45425,0 2.625,1.17075 2.625,2.625 l 0,19.0178 c 0,1.45425 -1.17076,2.63221 -2.625,2.625 l -31.13385,-0.15421 c -1.45423,-0.007 -2.625,-1.17075 -2.625,-2.625 l 0,-18.86359 c 0,-1.45425 1.17075,-2.625 2.625,-2.625 z"/>
    <path fill="none" stroke="url(#q)" d="m 462.26171,374.64819 20.09375,0"/>
  </g>
  <g mask="url(#r)" opacity=".5" transform="matrix(.27903 0 0 .27903 -129.512 -96.416)">
    <g mask="none">
      <path fill="#fff" stroke="#fff" stroke-linecap="round" stroke-linejoin="round" stroke-width="5.855" d="m -16.30668,1023.0143 c 0,0 0.754772,2.7548 2.663409,4.6634 1.908637,1.9086 4.663405,2.6634 4.663405,2.6634 0,0 -2.739141,0.7391 -4.663398,2.6634 -1.924257,1.9243 -2.663409,4.6634 -2.663409,4.6634 0,0 -0.676645,-2.6766 -2.66341,-4.6634 -1.986765,-1.9868 -4.663405,-2.6634 -4.663405,-2.6634 0,0 2.801649,-0.8017 4.663405,-2.6634 1.861756,-1.8618 2.663403,-4.6634 2.663403,-4.6634 z" filter="url(#s)" opacity=".85" transform="matrix(1.83627 0 0 1.83627 539.137 -1530.304)"/>
    </g>
  </g>
  <g stroke-width="3.584">
    <path fill="url(#t)" stroke="#8c5d46" stroke-linecap="round" stroke-linejoin="round" d="M364.25 439.175H375.125V450.05H364.25z" transform="matrix(.27903 0 0 .27903 -100.142 -115.063)"/>
    <path fill="url(#u)" stroke="#8c5d46" stroke-linecap="round" stroke-linejoin="round" d="M375.125 439.175H386V450.05H375.125z" transform="matrix(.27903 0 0 .27903 -100.142 -115.063)"/>
    <path fill="url(#v)" stroke="#8c5d46" stroke-linecap="round" stroke-linejoin="round" d="m 364.25,449.8518 10.875,0 0,10.79581 -10.875,0 z" transform="matrix(.27903 0 0 .27903 -100.142 -115.063)"/>
    <path fill="url(#w)" stroke="#8c5d46" stroke-linecap="round" stroke-linejoin="round" d="m 375.125,449.8518 10.875,0 0,10.79581 -10.875,0 z" transform="matrix(.27903 0 0 .27903 -100.142 -115.063)"/>
    <path fill="#713e1e" stroke="url(#x)" d="m 358.88483,449.88141 32.24865,0" transform="matrix(.27903 0 0 .27903 -100.142 -115.063)"/>
    <path fill="#713e1e" stroke="url(#y)" d="m 375.00916,433.75708 0,32.24865" transform="matrix(.27903 0 0 .27903 -100.142 -115.063)"/>
  </g>
  <path fill="url(#z)" d="m -7.007813,1053.62 2,0 1.492188,-1.4844 -2.0312504,0 z" transform="matrix(1 0 0 1 15.023 -1046.604)"/>
  <path fill="url(#A)" d="m -5.007813,1055.62 4,0 0,-1 -0.476562,-0.4844 -2.03125,0 z" transform="matrix(1 0 0 1 15.023 -1046.604)"/>
  <path fill="url(#B)" d="m -1.484375,1052.1356 0,2 0.476562,0.4844 0,-2 z" transform="matrix(1 0 0 1 15.023 -1046.604)"/>
  <path fill="url(#C)" d="m -5.007813,1053.62 0,2 1.492188,-1.4844 0,-2 z" transform="matrix(1 0 0 1 15.023 -1046.604)"/>
  <path fill="url(#D)" d="m -7.007813,1048.62 0,5 1.4609376,-1.4844 0,-2 z" transform="matrix(1 0 0 1 15.023 -1046.604)"/>
  <path fill="url(#E)" d="m -5.007813,1048.62 -2,0 1.4609375,1.5156 2.0312505,0 z" transform="matrix(1 0 0 1 15.023 -1046.604)"/>
  <path fill="url(#F)" d="m -5.007813,1048.62 0,0 1.503907,1.5273 0,-1.5156 z" transform="matrix(1 0 0 1 15.023 -1046.604)"/>
  <path fill="url(#G)" d="m -1.011718,1052.1356 -0.472657,0 0.476563,0.4844 -0.0039,0 z" transform="matrix(1 0 0 1 15.023 -1046.604)"/>
  <path fill="url(#H)" stroke="#a27d18" stroke-width="1.032" d="M-758.823-740.411H-754.24V-735.957H-758.823z" transform="rotate(-135 -218.15 -526.02)"/>
  <path fill="url(#I)" d="m 12.471186,1054.309 1.001133,0 0,1.946 1.986639,0 0,1.0167 -1.986639,0 0,2.043 -1.001133,0 0,-2.043 -1.98664,0 0,-1.0167 1.98664,0 z" transform="matrix(1 0 0 1 -.45 -1052.228)"/>
</svg>
