<svg xmlns="http://www.w3.org/2000/svg" xmlns:xlink="http://www.w3.org/1999/xlink" width="16" height="16">
  <defs>
    <linearGradient id="f">
      <stop offset="0" stop-color="#4a77a8"/>
      <stop offset="1" stop-color="#2266a0"/>
    </linearGradient>
    <linearGradient id="e">
      <stop offset="0" stop-color="#849abe"/>
      <stop offset="1" stop-color="#677da9"/>
    </linearGradient>
    <linearGradient id="c">
      <stop offset="0" stop-color="#1b639e"/>
      <stop offset="1" stop-color="#6f8db9"/>
    </linearGradient>
    <linearGradient id="a">
      <stop offset="0" stop-color="#c7b571"/>
      <stop offset="1" stop-color="#9a9990"/>
    </linearGradient>
    <linearGradient id="b">
      <stop offset="0" stop-color="#f9fafc"/>
      <stop offset="1" stop-color="#e0eaf8"/>
    </linearGradient>
    <linearGradient xlink:href="#a" id="j" x1="8.014" x2="8.014" y1="1035.974" y2="1051.01" gradientTransform="translate(-7.93 1.01)" gradientUnits="userSpaceOnUse"/>
    <linearGradient xlink:href="#b" id="i" x1="-3.165" x2="-3.165" y1="1030.442" y2="1041.058" gradientTransform="matrix(1.08508 0 0 1 13.245 8.009)" gradientUnits="userSpaceOnUse"/>
    <linearGradient xlink:href="#c" id="l" x1="10" x2="10" y1="10" y2="5" gradientTransform="translate(1 1038.362)" gradientUnits="userSpaceOnUse"/>
    <linearGradient id="d">
      <stop offset="0" stop-color="#130d08"/>
      <stop offset="1" stop-color="#654628" stop-opacity="0"/>
    </linearGradient>
    <linearGradient xlink:href="#d" id="m" x1="14" x2="14" y1="1041.362" y2="1038.362" gradientTransform="matrix(1 0 0 -1 -1.031 2089.724)" gradientUnits="userSpaceOnUse"/>
    <linearGradient xlink:href="#e" id="k" x1="5" x2="11" y1="1037.862" y2="1037.862" gradientTransform="translate(0 2)" gradientUnits="userSpaceOnUse"/>
    <linearGradient xlink:href="#f" id="n" x1="9" x2="14" y1="1043.862" y2="1043.862" gradientUnits="userSpaceOnUse"/>
    <linearGradient xlink:href="#g" id="o" x1="9" x2="14" y1="1043.862" y2="1043.862" gradientTransform="translate(0 2)" gradientUnits="userSpaceOnUse"/>
    <linearGradient id="g">
      <stop offset="0" stop-color="#4a77a8"/>
      <stop offset="1" stop-color="#2266a0"/>
    </linearGradient>
    <linearGradient id="h">
      <stop offset="0" stop-color="#849abe"/>
      <stop offset="1" stop-color="#677da9"/>
    </linearGradient>
    <linearGradient xlink:href="#h" id="p" x1="5" x2="11" y1="1037.862" y2="1037.862" gradientTransform="translate(0 12)" gradientUnits="userSpaceOnUse"/>
  </defs>
  <g transform="translate(0 -1036.362)">
    <path fill="url(#i)" d="M1.771 1038.15H12.331V1051.416H1.771z"/>
    <rect width="10.969" height="14.031" x="1.5" y="1037.862" fill="none" stroke="url(#j)" rx="0" ry="0"/>
    <path fill="#879cc0" d="M3 1039.362H4V1040.362H3z"/>
    <path fill="url(#k)" d="M5 1039.362H11V1040.362H5z"/>
    <path fill="url(#l)" d="m 5.0037913,1041.3622 0,7 1,0 8.9962087,0 1,0 0,-1 0,-6 -9.9962087,0 z m 1,1 8.9962087,0 0,5 -8.9962087,0 z"/>
    <path fill="#f2f5fb" d="m 6.0037913,1042.3622 8.9962087,0 0,5 -8.9962087,0 z"/>
    <path fill="#4a77a8" d="M7 1043.362H8V1044.362H7z"/>
    <path fill="url(#m)" d="m 11.96875,1051.3622 1,0 0,-3 -1,0 0,3 z" opacity=".5"/>
    <path fill="url(#n)" d="M9 1043.362H14V1044.362H9z"/>
    <path fill="#4a77a8" d="M7 1045.362H8V1046.362H7z"/>
    <path fill="url(#o)" d="M9 1045.362H14V1046.362H9z"/>
    <path fill="#879cc0" d="M3 1041.362H4V1042.362H3zM3 1043.362H4V1044.362H3zM3 1045.362H4V1046.362H3zM3 1047.362H4V1048.362H3zM3 1049.362H4V1050.362H3z"/>
    <path fill="url(#p)" d="M5 1049.362H11V1050.362H5z"/>
  </g>
</svg>
