<svg xmlns="http://www.w3.org/2000/svg" xmlns:xlink="http://www.w3.org/1999/xlink" width="16" height="16">
  <defs>
    <linearGradient id="d">
      <stop offset="0" stop-color="#8593ae"/>
      <stop offset="1" stop-color="#979ea3"/>
    </linearGradient>
    <linearGradient id="c">
      <stop offset="0" stop-color="#286296"/>
      <stop offset="1" stop-color="#778cb4"/>
    </linearGradient>
    <linearGradient id="e">
      <stop offset="0" stop-color="#bcb489"/>
      <stop offset="1" stop-color="#798da2"/>
    </linearGradient>
    <linearGradient id="b">
      <stop offset="0" stop-color="#ba7f0d"/>
      <stop offset="1" stop-color="#a2660b"/>
    </linearGradient>
    <linearGradient id="a">
      <stop offset="0" stop-color="#ffe"/>
      <stop offset="1" stop-color="#fbdd83"/>
    </linearGradient>
    <linearGradient xlink:href="#a" id="g" x1="5.13" x2="13.428" y1="1043.898" y2="1043.898" gradientTransform="translate(.24 .432)" gradientUnits="userSpaceOnUse"/>
    <linearGradient xlink:href="#b" id="h" x1="5.206" x2="16.247" y1="1044.488" y2="1044.488" gradientTransform="translate(.24 .432)" gradientUnits="userSpaceOnUse"/>
    <linearGradient xlink:href="#c" id="i" x1="-2.586" x2="-1.767" y1="1045.108" y2="1045.108" gradientTransform="matrix(1.22093 0 0 1.131 1052.732 -1175.004)" gradientUnits="userSpaceOnUse"/>
    <linearGradient xlink:href="#d" id="j" x1="-1052.575" x2="-1048.575" y1="4.504" y2="4.504" gradientUnits="userSpaceOnUse"/>
    <linearGradient xlink:href="#e" id="f" x1="3.004" x2="3.004" y1="1039.575" y2="1052.575" gradientTransform="translate(14)" gradientUnits="userSpaceOnUse"/>
  </defs>
  <path fill="none" stroke="url(#f)" stroke-miterlimit="3.7" d="m 16.503522,1039.5747 0,13" transform="translate(-2.004 -1036.575)"/>
  <path fill="#c1c6d9" d="M-15.004-1040.575H-11.004V-1039.575H-15.004z" color="#000" overflow="visible" style="marker:none" transform="rotate(180 -1.002 -518.287)"/>
  <path fill="url(#g)" stroke="url(#h)" stroke-linecap="round" stroke-linejoin="round" stroke-width="1.536" d="m 10.972,1038.0801 2.9e-5,3.072 -8.0132497,0 c -0.6678671,0 -1.2187793,0.109 -1.2187793,0.7769 l 0,4.1465 c 0,0.6678 0.6714571,1.2208 1.3393242,1.2206 l 7.8919678,0 0,3.072 1.001472,0 6.663168,-6.0539 -6.663932,-6.2341 z" transform="matrix(0 .65104 .65104 0 -674.333 -.633)"/>
  <path fill="url(#i)" d="M1049.575 6.004H1051.575V9.011H1049.575z" transform="matrix(0 1 1 0 -2.004 -1036.575)"/>
  <path fill="#c1c6d9" d="M-15.004-1042.575H-13.004V-1041.575H-15.004zM-15.004-1044.575H-13.004V-1043.575H-15.004zM-15.004-1048.575H-13.004V-1047.575H-15.004zM-12.004-1048.575H-10.004V-1047.575H-12.004zM-15.004-1050.575H-10.004V-1049.575H-15.004zM-15.004-1046.575H-12.004V-1045.575H-15.004z" color="#000" overflow="visible" style="marker:none" transform="rotate(180 -1.002 -518.287)"/>
  <path fill="url(#j)" d="M-1052.575 4.004H-1048.575V5.004H-1052.575z" color="#000" overflow="visible" style="marker:none" transform="rotate(-90 -519.29 -517.286)"/>
  <path fill="none" d="M5.004 1039.575H17.004V1052.575H5.004z" opacity=".157" transform="translate(-2.004 -1036.575)"/>
</svg>
