<svg xmlns="http://www.w3.org/2000/svg" xmlns:xlink="http://www.w3.org/1999/xlink" width="16" height="16">
  <defs>
    <linearGradient id="d">
      <stop offset="0" stop-color="#bfb688"/>
      <stop offset="1" stop-color="#b5b08f"/>
    </linearGradient>
    <linearGradient id="c">
      <stop offset="0" stop-color="#286296"/>
      <stop offset="1" stop-color="#778cb4"/>
    </linearGradient>
    <linearGradient id="e">
      <stop offset="0" stop-color="#bcb489"/>
      <stop offset="1" stop-color="#798da2"/>
    </linearGradient>
    <linearGradient id="b">
      <stop offset="0" stop-color="#ba7f0d"/>
      <stop offset="1" stop-color="#a2660b"/>
    </linearGradient>
    <linearGradient id="a">
      <stop offset="0" stop-color="#ffe"/>
      <stop offset="1" stop-color="#fbdd83"/>
    </linearGradient>
    <linearGradient xlink:href="#a" id="g" x1="5.13" x2="13.428" y1="1043.898" y2="1043.898" gradientTransform="translate(.24 .432)" gradientUnits="userSpaceOnUse"/>
    <linearGradient xlink:href="#b" id="h" x1="5.206" x2="16.247" y1="1044.488" y2="1044.488" gradientTransform="translate(.24 .432)" gradientUnits="userSpaceOnUse"/>
    <linearGradient xlink:href="#c" id="i" x1="-2.586" x2="-1.767" y1="1045.108" y2="1045.108" gradientTransform="matrix(1.22093 0 0 1.131 -1036.417 -1175.004)" gradientUnits="userSpaceOnUse"/>
    <linearGradient xlink:href="#d" id="j" x1="-1052.575" x2="-1048.575" y1="4.504" y2="4.504" gradientTransform="matrix(1.24937 0 0 1 2351.63 0)" gradientUnits="userSpaceOnUse"/>
    <linearGradient xlink:href="#e" id="f" x1="3.004" x2="3.004" y1="1039.575" y2="1052.575" gradientTransform="translate(14 -3)" gradientUnits="userSpaceOnUse"/>
  </defs>
  <path fill="none" stroke="url(#f)" stroke-miterlimit="3.7" d="m 16.503522,1036.5747 0,13" transform="translate(-2.004 -1036.575)"/>
  <path fill="#c1c6d9" d="M-15.004 1048.577H-11.004V1049.577H-15.004z" color="#000" overflow="visible" style="marker:none" transform="matrix(-1 0 0 1 -2.004 -1036.575)"/>
  <path fill="url(#g)" stroke="url(#h)" stroke-linecap="round" stroke-linejoin="round" stroke-width="1.536" d="m 10.965858,1038.0801 -0.01228,3.072 -7.9948822,0 c -0.6678671,0 -1.2186918,0.109 -1.2186918,0.7769 l 0,4.1465 c 0,0.6678 0.6706328,1.2208 1.3384998,1.2206 l 7.8812162,0 0,3.072 1.012224,0 6.667776,-6.144 -6.667716,-6.144 z" transform="rotate(-90 -328.848 345.484) scale(.65104)"/>
  <path fill="url(#i)" d="M-1039.575 6.004H-1037.575V9.011H-1039.575z" transform="rotate(-90 -519.29 -517.286)"/>
  <path fill="#c1c6d9" d="M-15.004 1046.577H-13.004V1047.577H-15.004zM-15.004 1044.577H-13.004V1045.577H-15.004zM-15.004 1040.577H-13.004V1041.577H-15.004zM-12.004 1040.577H-10.004V1041.577H-12.004zM-15.004 1038.577H-10.004V1039.577H-15.004zM-15.004 1042.577H-12.004V1043.577H-15.004z" color="#000" overflow="visible" style="marker:none" transform="matrix(-1 0 0 1 -2.004 -1036.575)"/>
  <path fill="url(#j)" d="M1036.577 4.004H1041.575V5.004H1036.577z" color="#000" overflow="visible" style="marker:none" transform="matrix(0 1 1 0 -2.004 -1036.575)"/>
</svg>
