<svg xmlns="http://www.w3.org/2000/svg" xmlns:xlink="http://www.w3.org/1999/xlink" width="16" height="16">
  <defs>
    <linearGradient id="a">
      <stop offset="0" stop-color="#6891be"/>
      <stop offset="1" stop-color="#2877aa"/>
    </linearGradient>
    <linearGradient xlink:href="#a" id="b" x1="7.433" x2="7.433" y1="1044.272" y2="1048.957" gradientTransform="translate(0 1.016)" gradientUnits="userSpaceOnUse"/>
  </defs>
  <g fill-rule="evenodd">
    <path fill="url(#b)" d="m 12.014757,1040.3787 -5.0312496,0 c 0,0 -2.953125,-0.1719 -2.953125,1.875 0.04959,2.2225 -0.366731,3.3125 1.953125,3.3125 l 0,4.8125 2.0234372,0 -0.016181,-8.0117 0.9927427,0 0,8.0117 2.0274592,0 0.01105,-8 0.992743,0 z" transform="translate(0 -1036.362)"/>
    <path fill="#8eaac6" d="m9.011 1041.362-2 0 0 9.016 1.016 0 0-8.009.984 0zM12.005 1041.362l-2 0 0 9.016 1.016 0 0-8.031.984 0z" transform="translate(0 -1036.362)"/>
  </g>
</svg>
