<svg xmlns="http://www.w3.org/2000/svg" xmlns:xlink="http://www.w3.org/1999/xlink" width="16" height="16">
  <defs>
    <linearGradient id="g">
      <stop offset="0" stop-color="#d1cde4"/>
      <stop offset="1" stop-color="#6155a0"/>
    </linearGradient>
    <linearGradient id="f">
      <stop offset="0" stop-color="#d7d4e7"/>
      <stop offset="1" stop-color="#6155a0"/>
    </linearGradient>
    <linearGradient id="c">
      <stop offset="0" stop-color="#17325d"/>
      <stop offset=".6" stop-color="#b7d2e4"/>
      <stop offset="1" stop-color="#3e72a7"/>
    </linearGradient>
    <linearGradient id="b">
      <stop offset="0" stop-color="#17325d"/>
      <stop offset=".5" stop-color="#b7d2e4"/>
      <stop offset="1" stop-color="#3e72a7"/>
    </linearGradient>
    <linearGradient id="a">
      <stop offset="0" stop-color="#7e713d"/>
      <stop offset="1" stop-color="#b28a30"/>
    </linearGradient>
    <linearGradient xlink:href="#a" id="i" x1="20.3" x2="20.3" y1="1052.201" y2="1036.755" gradientTransform="translate(-9.864)" gradientUnits="userSpaceOnUse"/>
    <linearGradient xlink:href="#b" id="j" x1="3.975" x2="3.975" y1="1036.383" y2="1039.235" gradientTransform="translate(-.071)" gradientUnits="userSpaceOnUse"/>
    <linearGradient xlink:href="#b" id="k" x1="3.975" x2="3.975" y1="1036.383" y2="1039.235" gradientTransform="translate(1.83)" gradientUnits="userSpaceOnUse"/>
    <linearGradient xlink:href="#b" id="l" x1="3.975" x2="3.975" y1="1036.383" y2="1039.235" gradientTransform="translate(3.884)" gradientUnits="userSpaceOnUse"/>
    <linearGradient xlink:href="#b" id="m" x1="3.975" x2="3.975" y1="1036.383" y2="1039.235" gradientTransform="matrix(.83689 0 0 1.10534 6.64 -109.421)" gradientUnits="userSpaceOnUse"/>
    <linearGradient xlink:href="#c" id="n" x1="3.975" x2="3.975" y1="1036.963" y2="1038.52" gradientTransform="translate(7.935)" gradientUnits="userSpaceOnUse"/>
    <linearGradient id="d">
      <stop offset="0" stop-color="#f9cd5f"/>
      <stop offset="1" stop-color="#ffebb7"/>
    </linearGradient>
    <linearGradient id="e">
      <stop offset="0" stop-color="#ad7212"/>
      <stop offset="1" stop-color="#875f1e"/>
    </linearGradient>
    <linearGradient xlink:href="#d" id="r" x1="22.931" x2="22.931" y1="1039.698" y2="1041.736" gradientTransform="translate(-.066)" gradientUnits="userSpaceOnUse"/>
    <linearGradient xlink:href="#e" id="s" x1="22.931" x2="22.931" y1="1039.698" y2="1041.736" gradientTransform="translate(-.066)" gradientUnits="userSpaceOnUse"/>
    <linearGradient xlink:href="#f" id="o" x1="6.921" x2="11.964" y1="1046.885" y2="1046.885" gradientTransform="matrix(1.01453 0 0 1.17023 1.995 -182.231)" gradientUnits="userSpaceOnUse"/>
    <linearGradient id="h">
      <stop offset="0" stop-color="#c8c3df"/>
      <stop offset="1" stop-color="#6155a0"/>
    </linearGradient>
    <linearGradient xlink:href="#g" id="q" x1="7.229" x2="11.964" y1="1046.885" y2="1046.885" gradientTransform="matrix(1.01453 0 0 1.17023 1.995 -180.267)" gradientUnits="userSpaceOnUse"/>
    <linearGradient xlink:href="#h" id="p" x1="7.129" x2="11.964" y1="1046.885" y2="1046.885" gradientTransform="matrix(.7304 0 0 1.17023 3.43 -178.325)" gradientUnits="userSpaceOnUse"/>
  </defs>
  <g transform="translate(0 -1036.362)">
    <rect width="9.975" height="13.006" x="5.541" y="1037.841" fill="#fff" stroke="url(#i)" stroke-linejoin="round" rx=".379" ry=".379"/>
    <path fill="#b7d2e4" fill-rule="evenodd" stroke="#fff" d="m 6.0410627,1037.8348 8.9380893,0"/>
    <g fill="none" stroke-linecap="round" stroke-linejoin="bevel">
      <path stroke="url(#j)" d="m 4.3932593,1036.8711 0.00271,2.0536" transform="translate(2.132)"/>
      <path stroke="url(#k)" d="M 6.294643,1036.8711 6.25,1038.9247" transform="translate(2.132)"/>
      <path stroke="url(#l)" d="m 8.3482144,1036.8711 -0.044643,2.0536" transform="translate(2.132)"/>
      <path stroke="url(#m)" stroke-width=".962" d="m 10.375824,1036.6737 -0.03736,2.2699" transform="translate(2.132)"/>
      <path stroke="url(#n)" d="m 12.399554,1036.8711 -0.03348,2.0424" transform="translate(2.132)"/>
    </g>
    <g transform="translate(-.156 .022)">
      <rect width="4.067" height=".997" x="10.065" y="1042.366" fill="url(#o)" rx=".384" ry=".443"/>
      <rect width="3.085" height=".997" x="9.083" y="1046.273" fill="url(#p)" rx=".277" ry=".443"/>
      <rect width="3.956" height=".997" x="10.177" y="1044.33" fill="url(#q)" rx=".384" ry=".443"/>
    </g>
    <path fill="url(#r)" stroke="url(#s)" stroke-linejoin="round" d="m 23.31999,1039.3249 0,-1.591 c 0,0 -0.154679,-0.8397 -1.171145,-0.044 -1.016466,0.7955 -2.209709,2.0772 -2.386486,2.4307 -0.176776,0.3536 -0.928077,0.9723 0.08839,1.9446 1.016466,0.9722 2.121321,1.9887 2.121321,1.9887 0,0 0.404271,0.3812 0.799458,0.5707 0.37782,0.1811 0.548464,0.1871 0.548464,-0.4827 l 0,-1.812 c 1.366404,-0.063 1.926219,0.3446 2.238719,0.6884 0.3125,0.3437 0.8125,1.9687 1.21875,2.0937 0.40625,0.125 0.625,-2.1875 0.625,-2.625 0,-0.4375 -0.09375,-1.3125 -0.71875,-1.9687 -0.625,-0.6563 -1.006571,-0.9555 -1.53125,-1.0998 -0.535453,-0.1295 -1.287796,-0.095 -1.832471,-0.094 z" transform="rotate(180 14.425 1042.664)"/>
    <path fill="#fff" d="m 22.84983,1043.0173 0,0.627 c 0,0 0.101474,0.3948 -0.202948,0.2554 -0.304423,-0.1393 -0.892974,-0.6966 -0.953858,-0.8127 -0.06088,-0.1161 -0.977287,-0.8258 -0.835223,-1.0581 0.142064,-0.2322 1.958178,-0.047 1.958178,-0.047 z" opacity=".857" transform="rotate(180 14.425 1042.664)"/>
  </g>
</svg>
