<svg xmlns="http://www.w3.org/2000/svg" xmlns:xlink="http://www.w3.org/1999/xlink" width="16" height="16">
  <defs>
    <linearGradient id="c">
      <stop offset="0" stop-color="#fce9a0"/>
      <stop offset="1" stop-color="#fce9a0" stop-opacity="0"/>
    </linearGradient>
    <linearGradient id="b">
      <stop offset="0" stop-color="#a098c8"/>
      <stop offset="1" stop-color="#6155a0"/>
    </linearGradient>
    <linearGradient id="a">
      <stop offset="0" stop-color="#7e713d"/>
      <stop offset="1" stop-color="#b28a30"/>
    </linearGradient>
    <linearGradient xlink:href="#a" id="f" x1="20.3" x2="20.3" y1="1052.201" y2="1036.755" gradientTransform="translate(-11.87)" gradientUnits="userSpaceOnUse"/>
    <linearGradient xlink:href="#a" id="h" x1="20.3" x2="20.3" y1="1052.107" y2="1045.562" gradientTransform="translate(-11.87)" gradientUnits="userSpaceOnUse"/>
    <linearGradient xlink:href="#b" id="i" x1="5.051" x2="11.964" y1="1046.885" y2="1046.885" gradientTransform="matrix(1.01453 0 0 1.17023 -.13 -178.227)" gradientUnits="userSpaceOnUse"/>
    <linearGradient xlink:href="#b" id="j" x1="5.051" x2="11.964" y1="1046.885" y2="1046.885" gradientTransform="matrix(.7304 0 0 1.17023 1.306 -176.24)" gradientUnits="userSpaceOnUse"/>
    <linearGradient xlink:href="#c" id="g" x1="6.214" x2="6.214" y1="1048.651" y2="1044.674" gradientUnits="userSpaceOnUse"/>
    <linearGradient xlink:href="#d" id="k" x1="3.975" x2="3.975" y1="1036.383" y2="1039.235" gradientTransform="translate(-.071)" gradientUnits="userSpaceOnUse"/>
    <linearGradient id="d">
      <stop offset="0" stop-color="#17325d"/>
      <stop offset=".5" stop-color="#b7d2e4"/>
      <stop offset="1" stop-color="#3e72a7"/>
    </linearGradient>
    <linearGradient xlink:href="#d" id="l" x1="3.975" x2="3.975" y1="1036.383" y2="1039.235" gradientTransform="translate(1.93 -.056)" gradientUnits="userSpaceOnUse"/>
    <linearGradient xlink:href="#d" id="m" x1="3.975" x2="3.975" y1="1036.383" y2="1039.235" gradientTransform="translate(3.884)" gradientUnits="userSpaceOnUse"/>
    <linearGradient xlink:href="#d" id="n" x1="3.975" x2="3.975" y1="1036.383" y2="1039.235" gradientTransform="matrix(.83689 0 0 1.10534 6.64 -109.421)" gradientUnits="userSpaceOnUse"/>
    <linearGradient xlink:href="#e" id="o" x1="3.975" x2="3.975" y1="1036.963" y2="1038.52" gradientTransform="translate(7.935)" gradientUnits="userSpaceOnUse"/>
    <linearGradient id="e">
      <stop offset="0" stop-color="#17325d"/>
      <stop offset=".6" stop-color="#b7d2e4"/>
      <stop offset="1" stop-color="#3e72a7"/>
    </linearGradient>
  </defs>
  <g transform="translate(0 -1036.362)">
    <rect width="9.975" height="13.006" x="3.536" y="1037.841" fill="#fff" stroke="url(#f)" stroke-linejoin="round" rx=".379" ry=".379"/>
    <g transform="translate(0 -6.945)">
      <rect width="9.975" height="6.994" x="3.536" y="1044.813" fill="url(#g)" stroke="url(#h)" stroke-linejoin="round" rx=".379" ry=".379"/>
      <g transform="translate(0 .96)">
        <rect width="7.014" height=".997" x="4.995" y="1046.37" fill="url(#i)" rx=".384" ry=".443"/>
        <rect width="5.049" height=".997" x="4.995" y="1048.356" fill="url(#j)" rx=".277" ry=".443"/>
      </g>
    </g>
    <path fill="#fff" d="M4.978 1036.38H12.232V1037.362H4.978z"/>
    <path fill="#b7d2e4" fill-rule="evenodd" stroke="#fff" d="m 4.0354196,1037.8348 8.9380894,0"/>
    <g fill="none" stroke-linecap="round" stroke-linejoin="bevel">
      <path stroke="url(#k)" d="m 4.3932593,1036.8711 0.00271,2.0536" transform="translate(.126)"/>
      <path stroke="url(#l)" d="m 6.3950894,1036.8153 0.00271,2.0694" transform="translate(.126)"/>
      <path stroke="url(#m)" d="m 8.3482144,1036.8711 0.050059,1.8484" transform="translate(.126)"/>
      <path stroke="url(#n)" stroke-width=".962" d="m 10.375824,1036.8315 -0.03736,1.9858" transform="translate(.126)"/>
      <path stroke="url(#o)" d="m 12.399554,1036.8711 -0.03348,2.0424" transform="translate(.126)"/>
    </g>
    <path fill="#213c65" d="M3.927 1036.173H4.923V1037.175H3.927z" transform="translate(.081 .187)"/>
    <path fill="#3e72a7" d="M3.927 1038.177H4.923V1039.179H3.927z" transform="translate(.081 .187)"/>
    <path fill="#213c65" d="M5.929 1036.173H6.925V1037.175H5.929z" transform="translate(.081 .187)"/>
    <path fill="#3e72a7" d="M5.929 1038.177H6.925V1039.179H5.929z" transform="translate(.081 .187)"/>
    <path fill="#213c65" d="M7.926 1036.173H8.922V1037.175H7.926z" transform="translate(.081 .187)"/>
    <path fill="#3e72a7" d="M7.926 1038.177H8.922V1039.179H7.926z" transform="translate(.081 .187)"/>
    <path fill="#213c65" d="M9.934 1036.173H10.93V1037.175H9.934z" transform="translate(.081 .187)"/>
    <path fill="#3e72a7" d="M9.934 1038.177H10.93V1039.179H9.934z" transform="translate(.081 .187)"/>
    <path fill="#213c65" d="M11.919 1036.173H12.915V1037.175H11.919z" transform="translate(.081 .187)"/>
    <path fill="#3e72a7" d="M11.919 1038.177H12.915V1039.179H11.919z" transform="translate(.081 .187)"/>
  </g>
</svg>
