<svg xmlns="http://www.w3.org/2000/svg" xmlns:xlink="http://www.w3.org/1999/xlink" width="16" height="16">
  <defs>
    <linearGradient id="e">
      <stop offset="0" stop-color="#1e5484"/>
      <stop offset="1" stop-color="#4a80a9"/>
    </linearGradient>
    <linearGradient id="d">
      <stop offset="0" stop-color="#a098c8"/>
      <stop offset="1" stop-color="#6155a0"/>
    </linearGradient>
    <linearGradient id="c">
      <stop offset="0" stop-color="#17325d"/>
      <stop offset=".6" stop-color="#b7d2e4"/>
      <stop offset="1" stop-color="#3e72a7"/>
    </linearGradient>
    <linearGradient id="b">
      <stop offset="0" stop-color="#17325d"/>
      <stop offset=".5" stop-color="#b7d2e4"/>
      <stop offset="1" stop-color="#3e72a7"/>
    </linearGradient>
    <linearGradient id="a">
      <stop offset="0" stop-color="#7e713d"/>
      <stop offset="1" stop-color="#b28a30"/>
    </linearGradient>
    <linearGradient xlink:href="#a" id="f" x1="20.3" x2="20.3" y1="1052.201" y2="1036.755" gradientTransform="translate(-11.87)" gradientUnits="userSpaceOnUse"/>
    <linearGradient xlink:href="#b" id="k" x1="3.975" x2="3.975" y1="1036.383" y2="1039.235" gradientTransform="translate(-.071)" gradientUnits="userSpaceOnUse"/>
    <linearGradient xlink:href="#b" id="l" x1="3.975" x2="3.975" y1="1036.383" y2="1039.235" gradientTransform="translate(1.83)" gradientUnits="userSpaceOnUse"/>
    <linearGradient xlink:href="#b" id="m" x1="3.975" x2="3.975" y1="1036.383" y2="1039.235" gradientTransform="translate(3.884)" gradientUnits="userSpaceOnUse"/>
    <linearGradient xlink:href="#b" id="n" x1="3.975" x2="3.975" y1="1036.383" y2="1039.235" gradientTransform="matrix(.83689 0 0 1.10534 6.64 -109.421)" gradientUnits="userSpaceOnUse"/>
    <linearGradient xlink:href="#c" id="o" x1="3.975" x2="3.975" y1="1036.963" y2="1038.52" gradientTransform="translate(7.935)" gradientUnits="userSpaceOnUse"/>
    <linearGradient xlink:href="#d" id="g" x1="5.051" x2="11.964" y1="1046.885" y2="1046.885" gradientTransform="matrix(1.01453 0 0 1.17023 -.13 -178.227)" gradientUnits="userSpaceOnUse"/>
    <linearGradient xlink:href="#d" id="h" x1="5.051" x2="11.964" y1="1046.885" y2="1046.885" gradientTransform="matrix(.7304 0 0 1.17023 1.306 -174.321)" gradientUnits="userSpaceOnUse"/>
    <linearGradient xlink:href="#d" id="i" x1="5.051" x2="11.964" y1="1046.885" y2="1046.885" gradientTransform="matrix(1.01453 0 0 1.17023 -.13 -176.263)" gradientUnits="userSpaceOnUse"/>
    <linearGradient xlink:href="#e" id="j" x1="-9.911" x2="-9.911" y1="1037.945" y2="1033.169" gradientTransform="translate(12.41 11.205)" gradientUnits="userSpaceOnUse"/>
  </defs>
  <g transform="translate(0 -1036.362)">
    <rect width="9.975" height="13.006" x="3.536" y="1037.841" fill="#fff" stroke="url(#f)" stroke-linejoin="round" rx=".379" ry=".379"/>
    <path fill="#b7d2e4" fill-rule="evenodd" stroke="#fff" d="m 4.0354196,1037.8348 8.9380894,0"/>
    <g transform="translate(0 -3.976)">
      <rect width="5.005" height=".997" x="7.004" y="1046.37" fill="url(#g)" rx=".384" ry=".443"/>
      <rect width="3.085" height=".997" x="6.959" y="1050.276" fill="url(#h)" rx=".277" ry=".443"/>
      <rect width="5.005" height=".997" x="7.004" y="1048.334" fill="url(#i)" rx=".384" ry=".443"/>
      <path fill="url(#j)" fill-rule="evenodd" d="m 2.0089282,1044.3293 0,5 1.495536,0 2.9799108,-2.4889 -2.9799108,-2.5111 z"/>
    </g>
    <g fill="none" stroke-linecap="round" stroke-linejoin="bevel">
      <path stroke="url(#k)" d="m 4.3932593,1036.8711 0.00271,2.0536" transform="translate(.126)"/>
      <path stroke="url(#l)" d="M 6.294643,1036.8711 6.25,1038.9247" transform="translate(.126)"/>
      <path stroke="url(#m)" d="m 8.3482144,1036.8711 -0.044643,2.0536" transform="translate(.126)"/>
      <path stroke="url(#n)" stroke-width=".962" d="m 10.375824,1036.6737 -0.03736,2.2699" transform="translate(.126)"/>
      <path stroke="url(#o)" d="m 12.399554,1036.8711 -0.03348,2.0424" transform="translate(.126)"/>
    </g>
  </g>
</svg>
