<?xml version="1.0" encoding="UTF-8" standalone="no"?>
<svg
   width="7"
   height="8"
   version="1.1"
   id="svg3"
   xmlns="http://www.w3.org/2000/svg"
   xmlns:svg="http://www.w3.org/2000/svg">
  <defs
     id="defs1">
    <filter
       id="a"
       width="1.1664"
       height="1.099835"
       x="-0.083200002"
       y="-0.049917505"
       color-interpolation-filters="sRGB">
      <feGaussianBlur
         stdDeviation=".208"
         id="feGaussianBlur1" />
    </filter>
  </defs>
  <path
     fill="#fff"
     fill-rule="evenodd"
     d="m 0.01940258,1050.3622 0.98059742,0 0,3 3,0 0,-3 1,0 1,-1 0,-1 -1.0446641,-0.9951 -0.9693003,0.014 -0.01669,-1.0199 1.0306545,5e-4 0,-1 1,0 0,-2 -6,0 0,3 1,0 0,1 -1,0.01 0.00543816,0.9775 z"
     filter="url(#a)"
     transform="translate(0 -1044.362)"
     id="path1" />
  <path
     fill-rule="evenodd"
     stroke="#17325d"
     d="m 3.9584687,1048.8622 -2.8955619,0 1.4476519,-1.749 z"
     transform="translate(0 -1044.362)"
     id="path2" />
  <path
     fill="none"
     stroke="#17325d"
     d="m0 1044.862 5 0M2.5 1047.362l0 5"
     transform="translate(0 -1044.362)"
     id="path3" />
</svg>
