<svg xmlns="http://www.w3.org/2000/svg" width="7" height="8">
  <path fill="#fff" fill-rule="evenodd" d="m 0,1044.3757 0,1.9572 2.0203051,2.0203 0,4.009 3.9774756,0 0,-3.0147 1.0259362,-1.0259 0,-3.9775 z" transform="translate(0 -1044.362)"/>
  <g fill="#17325d">
    <path fill-rule="evenodd" d="m 2.2617188,1044.3477 -0.1503907,0.1621 -1.1269531,1.2168 0,1.6269 0.5,0 c 0.4461727,0 0.5481223,0.025 1.0678835,0.025 0.3569029,0 0.332218,-0.8719 0.4655277,-1.1229 0.2479358,-0.4669 0.5717966,-0.7795 0.689245,-0.8829 l 0.1583022,0 0.1306907,0.7305 c 0.00192,0.1428 0.00509,0.3822 0.00781,0.7637 0.00121,0.1702 -0.060416,0.8961 -0.060416,0.8961 l -0.9832341,0.6225 -0.024524,1.0595 1.675662,0 1.716222,-1.3867 0,-2.3457 -0.025391,-0.027 -1.5228625,-1.3125 -2.5175781,-0.025 z" color="#000" font-family="sans-serif" font-weight="400" overflow="visible" style="line-height:normal;text-indent:0;text-align:start;text-decoration-line:none;text-decoration-style:solid;text-decoration-color:#000;text-transform:none;block-progression:tb;white-space:normal;isolation:auto;mix-blend-mode:normal;solid-color:#000;solid-opacity:1" transform="translate(0 -1044.362)"/>
    <path d="M2.999 1050.373H4.98V1052.354H2.999z" transform="translate(0 -1044.362)"/>
  </g>
</svg>
