<svg xmlns="http://www.w3.org/2000/svg" xmlns:xlink="http://www.w3.org/1999/xlink" width="7" height="8">
  <defs>
    <linearGradient id="c">
      <stop offset="0" stop-color="#8c6536"/>
      <stop offset="1" stop-color="#8c5920"/>
    </linearGradient>
    <linearGradient id="b">
      <stop offset="0" stop-color="#c5baa9"/>
      <stop offset="1" stop-color="#a9a28d"/>
    </linearGradient>
    <linearGradient id="a">
      <stop offset="0" stop-color="#c51325"/>
      <stop offset="1" stop-color="#993a2c"/>
    </linearGradient>
    <linearGradient xlink:href="#a" id="d" x1="1" x2="1" y1="1044.362" y2="1045.362" gradientUnits="userSpaceOnUse"/>
    <linearGradient xlink:href="#a" id="e" x1="1" x2="1" y1="1044.362" y2="1045.362" gradientTransform="rotate(180 2.5 1046.862)" gradientUnits="userSpaceOnUse"/>
    <linearGradient xlink:href="#b" id="f" x1="2" x2="3.051" y1="1047.362" y2="1047.346" gradientUnits="userSpaceOnUse"/>
    <linearGradient xlink:href="#c" id="g" x1="1" x2="3" y1="1047.362" y2="1047.362" gradientUnits="userSpaceOnUse"/>
  </defs>
  <path fill="#fff" fill-rule="evenodd" d="m 0,1044.3622 0,8 6,0 0,-8 z" transform="translate(0 -1044.362)"/>
  <path fill="none" stroke="url(#d)" d="m 0.5,1046.3622 0,-1.5 4,0 0,1 0,0.5" transform="translate(0 -1044.362)"/>
  <path fill="none" stroke="#17325d" d="m 2.5,1048.3622 0,3" transform="translate(0 -1044.362)"/>
  <path fill="none" stroke="url(#e)" d="m 4.5,1047.3622 0,1.5 -4,0 0,-1 0,-0.5" transform="translate(0 -1044.362)"/>
  <path fill="none" stroke="#2b5993" d="m 0,1050.8622 5,0" transform="translate(0 -1044.362)"/>
  <path fill="url(#f)" d="M1 1045.362H4V1048.362H1z" transform="translate(0 -1044.362)"/>
  <path fill="none" stroke="url(#g)" d="m 1,1046.8622 3,0" transform="translate(0 -1044.362)"/>
</svg>
