<?xml version="1.0" encoding="UTF-8" standalone="no"?>
<svg
   width="7"
   height="8"
   version="1.1"
   id="svg9"
   xmlns:xlink="http://www.w3.org/1999/xlink"
   xmlns="http://www.w3.org/2000/svg"
   xmlns:svg="http://www.w3.org/2000/svg">
  <defs
     id="defs6">
    <linearGradient
       id="b">
      <stop
         offset="0"
         stop-color="#e0a838"
         id="stop1" />
      <stop
         offset=".754"
         stop-color="#e0b040"
         id="stop2" />
      <stop
         offset="1"
         stop-color="#f0e880"
         id="stop3" />
    </linearGradient>
    <linearGradient
       id="a">
      <stop
         offset="0"
         stop-color="#8698a9"
         id="stop4" />
      <stop
         offset=".496"
         stop-color="#587088"
         id="stop5" />
      <stop
         offset="1"
         stop-color="#697f94"
         id="stop6" />
    </linearGradient>
    <linearGradient
       xlink:href="#a"
       id="d"
       x1="-6"
       x2="-6"
       y1="1038.362"
       y2="1049.362"
       gradientTransform="matrix(.46998 0 0 .4953 7.007 530.843)"
       gradientUnits="userSpaceOnUse" />
    <linearGradient
       xlink:href="#b"
       id="e"
       x1="11.418"
       x2="11.721"
       y1="1041.893"
       y2="1049.401"
       gradientTransform="matrix(.26513 0 0 .60232 .592 418.33)"
       gradientUnits="userSpaceOnUse" />
    <filter
       id="c"
       width="1.0985949"
       height="1.0927128"
       x="-0.049297434"
       y="-0.046356404"
       color-interpolation-filters="sRGB">
      <feGaussianBlur
         stdDeviation=".158"
         id="feGaussianBlur6" />
    </filter>
  </defs>
  <path
     fill="#fff"
     fill-rule="evenodd"
     d="m -0.3718228,1044.2518 0.11619462,3.0675 1.25490196,-2e-4 0.0232389,1.0457 -1.32461873,-0.023 0.0232389,3.9971 7.5991286,0.093 -0.092956,-4.0436 -1.2781408,0 -0.023239,-1.0457 1.1387073,-0.069 -0.023239,-2.9746 z"
     filter="url(#c)"
     transform="translate(0 -1044.362)"
     id="path6" />
  <path
     fill="#e1f5fb"
     fill-rule="evenodd"
     stroke="url(#d)"
     d="m 1.3366385,1050.8282 4.2371556,0 -1.472573,-2.9678 1.8908737,-2.9642 -4.6554563,0 1.3418089,2.9874 z"
     transform="translate(0 -1044.362)"
     id="path7" />
  <path
     fill="url(#e)"
     fill-rule="evenodd"
     d="m 2.070443,1050.3157 2.9535222,0.047 -0.8766084,-1.9367 -0.012223,-0.9972 0.5551911,-1.4393 c -1.1849177,0.2822 -1.2010803,0 -2.1507576,0.4327 l 0.4013615,1.0238 -0.011499,0.9302 z"
     transform="translate(0 -1044.362)"
     id="path8" />
  <path
     fill="#c01020"
     d="M0 1044.362H7V1045.362H0zM0 1050.362H7V1051.362H0z"
     transform="translate(0 -1044.362)"
     id="path9" />
</svg>
