<?xml version="1.0" encoding="UTF-8" standalone="no"?>
<svg
   width="7"
   height="8"
   version="1.1"
   id="svg7"
   xmlns:xlink="http://www.w3.org/1999/xlink"
   xmlns="http://www.w3.org/2000/svg"
   xmlns:svg="http://www.w3.org/2000/svg">
  <defs
     id="defs5">
    <linearGradient
       id="b">
      <stop
         offset="0"
         stop-color="#c6852e"
         id="stop1" />
      <stop
         offset="1"
         stop-color="#e1a555"
         id="stop2" />
    </linearGradient>
    <linearGradient
       id="a">
      <stop
         offset="0"
         stop-color="#ffe296"
         id="stop3" />
      <stop
         offset=".5"
         stop-color="#f8d880"
         id="stop4" />
      <stop
         offset="1"
         stop-color="#fffcd3"
         id="stop5" />
    </linearGradient>
    <linearGradient
       xlink:href="#a"
       id="c"
       x1="3.383"
       x2="3.383"
       y1="7.016"
       y2=".982"
       gradientUnits="userSpaceOnUse" />
    <linearGradient
       xlink:href="#b"
       id="d"
       x1="6.389"
       x2="6.389"
       y1="7.237"
       y2=".393"
       gradientUnits="userSpaceOnUse" />
  </defs>
  <path
     fill="url(#c)"
     stroke="url(#d)"
     d="M 2.8125,0.90625 0.78125,5 C 0.17522066,6.0251238 0.58843406,7.4816983 1.71875,7.5 L 3,7.5 l 1,0 1.28125,0 C 6.4115665,7.4817738 6.8247794,6.0250615 6.21875,5 L 4.1875,0.90625 c -0.2942923,-0.55673837 -1.1188077,-0.46727236 -1.375,0 z"
     id="path5" />
  <path
     fill="#502800"
     d="m 4.109375,5.484375 c 0,0.345178 -0.279822,0.625 -0.625,0.625 -0.345178,0 -0.625,-0.279822 -0.625,-0.625 0,-0.345178 0.279822,-0.625 0.625,-0.625 0.345178,0 0.625,0.279822 0.625,0.625 z"
     transform="translate(-.167 -.099) scale(1.05238)"
     id="path6" />
  <path
     fill="#502800"
     d="m 19.350026,1045.5028 c -0.378471,0 -0.700512,0.3368 -0.700512,0.774 l 0.09137,1.4889 c 0,0.3887 0.272722,0.7037 0.609141,0.7037 0.336419,0 0.609139,-0.315 0.609139,-0.7037 l 0.06091,-1.4889 c 0,-0.4372 -0.291583,-0.774 -0.670056,-0.774 z"
     transform="matrix(.93468 0 0 .93468 -14.572 -975.318)"
     id="path7" />
</svg>
