<svg xmlns="http://www.w3.org/2000/svg" width="7" height="8">
  <path fill="#fff" fill-rule="evenodd" d="m 5.9821434,1051.8935 -3.4821434,0 c -0.9417644,0 -1.99776787,-1.0004 -1.99776787,-1.9978 l 0,-3.0469 c 0,-0.9339 1.04716807,-1.981 1.98102677,-1.981 l 3.0970985,0 c 0.4511414,0 0.957031,0.5059 0.957031,0.957 l 0,3.1223 c 0,0.4623 -0.6985491,0.9807 -0.980748,0.9807 -0.8663504,0 -2.1096188,0 -2.5990512,0 -0.6840666,0 -0.4464285,-0.7714 -0.4464285,-2.0522 0,-0.4735 0.5644525,-1.0044 1.0379464,-1.0044 0.2540707,0 1.0044643,-0.1116 1.0044643,0.2232 0,0.8145 0,2.8348 0,2.8348" transform="translate(0 -1044.362)"/>
  <path fill="#fff" d="M2.779 1047.15H4.364V1049.963H2.779z" transform="translate(0 -1044.362)"/>
  <path fill="none" stroke="#2d6492" stroke-width=".95" d="m 5.9821434,1051.8935 -3.4821434,0 c -0.9417644,0 -1.99776787,-1.0004 -1.99776787,-1.9978 l 0,-2.0313 c 0,-2.0057 0.98538377,-2.9966 3.06361607,-2.9966 l 2.0145092,0 c 0.4511414,0 0.957031,0.5059 0.957031,0.957 l 0,3.1223 c 0,0.4623 -0.6985491,0.9807 -0.980748,0.9807 l -2.5990512,0 c -0.6840666,0 -0.4464285,-0.7714 -0.4464285,-2.0522 0,-0.4735 0.5644525,-1.0044 1.0379464,-1.0044 0.2540707,0 1.0044643,-0.1116 1.0044643,0.2232 l 0,2.8348" transform="translate(0 -1044.362)"/>
</svg>
