<svg xmlns="http://www.w3.org/2000/svg" width="7" height="7">
  <g transform="translate(0 -1045.362)">
    <ellipse cx="3.471" cy="1051.275" fill="#fff" rx="2.467" ry="1.083"/>
    <path fill="#fff" fill-rule="evenodd" d="m 0.99437055,1045.3436 c 0,0 0.0262225,6.1581 0,6.0609 -0.0262225,-0.097 5.00707565,0 5.00707565,0 l 0,-6.029 z"/>
    <path fill="none" stroke="#fff" stroke-width="1.01" d="m 5.47583,1050.3053 0,0.5002 c 0,0 -0.5325989,1.0498 -1.5061289,1.0498 l -1.1885365,0 c -0.5159588,0 -1.1249627,-0.7698 -1.1249627,-0.9276 l -0.1484375,-0.6884 0,-0.8854"/>
    <path fill="#fff" fill-rule="evenodd" d="m 0.9643804,1045.3617 4.0669726,0 c 1.3456424,0 1.9781742,0.6469 1.9781742,1.1791 l 0,4.6651 c 0,0.9855 -0.7544691,1.1791 -2.1052671,1.1791 l -3.8975154,0 z"/>
    <path fill="none" stroke="#894c1f" d="m 2.4969393,1045.8669 2.1249363,0 c 0.089272,-0.024 0.8744169,0.8718 0.8744169,1.0043 l 0,3.9731 c 0,0.1433 -0.8261452,1.0043 -0.9408212,1.0043 l -2.0363972,0 z"/>
  </g>
</svg>
