<svg xmlns="http://www.w3.org/2000/svg" xmlns:xlink="http://www.w3.org/1999/xlink" width="6" height="13">
  <defs>
    <linearGradient id="b">
      <stop offset="0" stop-color="#c9473e"/>
      <stop offset=".254" stop-color="#f35863"/>
      <stop offset="1" stop-color="#f6928e"/>
    </linearGradient>
    <linearGradient id="a">
      <stop offset="0" stop-color="#f68886"/>
      <stop offset="1" stop-color="#f4787b"/>
    </linearGradient>
    <linearGradient xlink:href="#a" id="c" x1="11.04" x2="10.746" y1="13.403" y2="14.498" gradientUnits="userSpaceOnUse"/>
    <linearGradient xlink:href="#b" id="d" x1="11.063" x2="11.063" y1="9.891" y2="4.234" gradientTransform="translate(-8.07 1036.4)" gradientUnits="userSpaceOnUse"/>
  </defs>
  <path fill="#fff" d="M.045 1039.362H6.045V1047.362H.045zM0 1048.359H6V1052.382H0z" transform="translate(0 -1039.362)"/>
  <path fill="#fff" d="M.925 1047.043H4.918V1048.732H.925z" transform="translate(.085 -1039.393)"/>
  <path fill="url(#c)" stroke="#ee1e2a" stroke-width="1.081" d="m 12.609375,14 a 1.625,1.625 0 0 1 -1.625,1.625 1.625,1.625 0 0 1 -1.625,-1.625 1.625,1.625 0 0 1 1.625,-1.625 1.625,1.625 0 0 1 1.625,1.625 z" transform="matrix(.92543 0 0 .92543 -7.15 -1.95)"/>
  <path fill="url(#d)" stroke="#f93337" stroke-linecap="round" stroke-linejoin="round" d="m 2.9142132,1040.8881 c 0.839655,0 1.576133,0.6781 1.515624,1.5156 l -0.220969,3.0584 c -0.060502,0.8374 -0.455,1.4051 -1.294655,1.4051 -0.839655,0 -1.2341524,-0.4888 -1.294655,-1.3262 l -0.220972,-3.0584 c -0.06051,-0.8375 0.675972,-1.5945 1.515627,-1.5945 z" transform="translate(.085 -1039.393)"/>
</svg>
