<svg xmlns="http://www.w3.org/2000/svg" width="7" height="8">
  <path fill="#d8424f" d="M0 1044.362H7V1052.362H0z" transform="translate(0 -1044.362)"/>
  <path fill="#fff" d="m 1.0021364,1046.3608 0,0.1184 0,0.7609 0,0.1184 0.1384548,0 0.4153647,0 1.3153211,1.0447 -1.3499348,0.9579 -0.380751,0 -0.1384548,0 0,0.1184 0,0.7561 0,0.1184 0.1384548,0 1.7277497,0 0.1384542,0 0,-0.1184 0,-0.7561 0,-0.1184 -0.1384542,0 0.6259832,-0.3067 0.64808,0.3067 -0.138455,0 0,0.1184 0,0.7561 0,0.1184 0.138455,0 1.705653,0 0.138454,0 0,-0.1184 0,-0.7561 0,-0.1184 -0.138454,0 -0.346138,0 -1.384549,-0.9876 1.280708,-1.015 0.449979,0 0.138454,0 0,-0.1184 0,-0.7609 0,-0.1184 -0.138454,0 -1.705653,0 -0.138455,0 0,0.1184 0,0.7609 0,0.1184 0.06923,0 -0.578853,0.3935 -0.5678034,-0.3935 0.069227,0 0,-0.1184 0,-0.7609 0,-0.1184 -0.1384531,0 -1.7167011,0 z" color="#000" font-family="Sans" font-size="7.69" font-weight="400" letter-spacing="0" overflow="visible" style="line-height:125%;text-indent:0;text-align:start;text-decoration-line:none;text-transform:none;block-progression:tb;marker:none" transform="translate(0 -1044.362)" word-spacing="0"/>
</svg>
