<?xml version="1.0" encoding="UTF-8" standalone="no"?>
<svg
   width="7"
   height="8"
   version="1.1"
   id="svg6"
   xmlns="http://www.w3.org/2000/svg"
   xmlns:svg="http://www.w3.org/2000/svg">
  <defs
     id="defs1">
    <filter
       id="b"
       width="1.4874511"
       height="1.4874511"
       x="-0.24372556"
       y="-0.24372556">
      <feGaussianBlur
         stdDeviation=".303"
         id="feGaussianBlur1" />
    </filter>
    <mask
       id="a"
       maskUnits="userSpaceOnUse">
      <path
         fill="#fff"
         stroke="#fff"
         stroke-linecap="round"
         stroke-linejoin="round"
         d="m 6.5344243,4.4644661 a 3.0304577,3.0304577 0 1 1 -6.06091547,0 3.0304577,3.0304577 0 1 1 6.06091547,0 z"
         transform="translate(0 1044.425)"
         id="path1" />
    </mask>
  </defs>
  <path
     fill="#fff"
     stroke="#656a70"
     stroke-linecap="round"
     stroke-linejoin="round"
     d="M 6.5344243,4.4644661 A 3.0304577,3.0304577 0 0 1 3.5039666,7.4949238 3.0304577,3.0304577 0 0 1 0.47350883,4.4644661 3.0304577,3.0304577 0 0 1 3.5039666,1.4340084 3.0304577,3.0304577 0 0 1 6.5344243,4.4644661 Z"
     transform="translate(0 .063)"
     id="path2" />
  <g
     mask="url(#a)"
     transform="translate(0 -1044.362)"
     id="g5">
    <g
       fill="none"
       stroke="#b9d6e6"
       stroke-width="1.5"
       filter="url(#b)"
       transform="translate(-4)"
       id="g4">
      <path
         stroke-linecap="round"
         stroke-linejoin="round"
         d="M 6.5344243,4.4644661 A 3.0304577,3.0304577 0 0 1 3.5039666,7.4949238 3.0304577,3.0304577 0 0 1 0.47350883,4.4644661 3.0304577,3.0304577 0 0 1 3.5039666,1.4340084 3.0304577,3.0304577 0 0 1 6.5344243,4.4644661 Z"
         transform="translate(4 1044.425)"
         id="path3" />
      <path
         d="m 5.144683,1051.2175 4.710634,-4.7106"
         id="path4" />
    </g>
  </g>
  <g
     fill="none"
     stroke="#656a70"
     stroke-width=".9"
     id="g6">
    <path
       stroke-linecap="round"
       stroke-linejoin="round"
       d="M 6.5344243,4.4644661 A 3.0304577,3.0304577 0 0 1 3.5039666,7.4949238 3.0304577,3.0304577 0 0 1 0.47350883,4.4644661 3.0304577,3.0304577 0 0 1 3.5039666,1.4340084 3.0304577,3.0304577 0 0 1 6.5344243,4.4644661 Z"
       transform="translate(0 .063)"
       id="path5" />
    <path
       d="m 5.144683,1051.2175 4.710634,-4.7106"
       transform="translate(-4 -1044.362)"
       id="path6" />
  </g>
</svg>
