<svg xmlns="http://www.w3.org/2000/svg" xmlns:xlink="http://www.w3.org/1999/xlink" width="7" height="8">
  <defs>
    <linearGradient id="b">
      <stop offset="0" stop-color="#55429f" stop-opacity="0"/>
      <stop offset="1" stop-color="#55429f"/>
    </linearGradient>
    <linearGradient id="a">
      <stop offset="0" stop-color="#7564b1"/>
      <stop offset=".5" stop-color="#5d4aa1"/>
      <stop offset="1" stop-color="#9283c3"/>
    </linearGradient>
    <linearGradient xlink:href="#a" id="c" x1="388.637" x2="388.637" y1="478.188" y2="462.115" gradientUnits="userSpaceOnUse"/>
    <radialGradient xlink:href="#b" id="d" cx="388.125" cy="468.237" r="11.708" fx="388.125" fy="468.237" gradientTransform="matrix(.82333 0 0 .82333 68.571 82.725)" gradientUnits="userSpaceOnUse"/>
  </defs>
  <g font-family="Sans" font-size="13.589" font-weight="400" letter-spacing="0" word-spacing="0">
    <path fill="url(#c)" stroke="#55429f" stroke-linecap="round" stroke-linejoin="round" stroke-width="2.166" d="m 398.75,468.23718 a 10.625,10.625 0 0 1 -10.625,10.625 10.625,10.625 0 0 1 -10.625,-10.625 10.625,10.625 0 0 1 10.625,-10.625 10.625,10.625 0 0 1 10.625,10.625 z" style="line-height:125%" transform="matrix(.2987 0 0 .2987 -112.429 -136.348)"/>
    <path fill="url(#d)" stroke="#55429f" stroke-linecap="round" stroke-linejoin="round" stroke-width="2.166" d="m 398.75,468.23718 a 10.625,10.625 0 0 1 -10.625,10.625 10.625,10.625 0 0 1 -10.625,-10.625 10.625,10.625 0 0 1 10.625,-10.625 10.625,10.625 0 0 1 10.625,10.625 z" style="line-height:125%" transform="matrix(.2987 0 0 .2987 -112.429 -136.348)"/>
    <path fill="#fff" d="m 2.0016375,1045.3643 0,0.9929 1.0020368,0 0,3.0147 -1.0020368,0 0,0.9929 2.997988,0 0,-0.9929 -1.0020354,0 0,-3.0147 1.0059813,0 0,-0.9929 z" style="line-height:125%" transform="translate(0 -1044.362)"/>
  </g>
</svg>
