<?xml version="1.0" encoding="UTF-8" standalone="no"?>
<svg
   width="7"
   height="8"
   version="1.1"
   id="svg3"
   xmlns="http://www.w3.org/2000/svg"
   xmlns:svg="http://www.w3.org/2000/svg">
  <defs
     id="defs1">
    <filter
       id="a"
       width="1.8732201"
       height="1.2917701"
       x="-0.43661004"
       y="-0.087920545">
      <feGaussianBlur
         stdDeviation=".237"
         id="feGaussianBlur1" />
    </filter>
  </defs>
  <path
     fill="#fff"
     fill-rule="evenodd"
     d="m 4.0090429,1044.3757 0,2.9909 -3.014674,0.01 c 0,0 -0.26722643,2.4484 0.2051873,3.3462 0.4724137,0.8977 0.6450779,1.1364 1.4205269,1.5152 0.775449,0.3788 2.4306796,0.1579 2.4306796,0.1579 0,0 1.6730651,-0.1894 1.894036,-2.0519 0.2209709,-1.8625 0.1262691,-5.9978 0.1262691,-5.9978 z"
     transform="translate(0 -1044.362)"
     id="path1" />
  <path
     fill="none"
     stroke="#fff"
     stroke-width="1.5"
     d="m 2.470527,1048.3667 0,0.9905 c 0,2.0131 3.0205444,2.0023 3.0205444,0 l 0,-4.9637"
     filter="url(#a)"
     opacity=".75"
     transform="translate(0 -1044.362)"
     id="path2" />
  <path
     fill="none"
     stroke="#286296"
     d="m 2.470527,1048.3667 0,0.9905 c 0,2.0131 3.0205444,2.0023 3.0205444,0 l 0,-4.9637"
     transform="translate(0 -1044.362)"
     id="path3" />
</svg>
