<?xml version="1.0" encoding="UTF-8" standalone="no"?>
<svg
   width="7"
   height="8"
   version="1.1"
   id="svg7"
   xmlns:xlink="http://www.w3.org/1999/xlink"
   xmlns="http://www.w3.org/2000/svg"
   xmlns:svg="http://www.w3.org/2000/svg">
  <defs
     id="defs5">
    <linearGradient
       id="a">
      <stop
         offset="0"
         stop-color="#8cc861"
         id="stop1" />
      <stop
         offset=".438"
         stop-color="#4aa766"
         id="stop2" />
      <stop
         offset="1"
         stop-color="#c2dd97"
         id="stop3" />
    </linearGradient>
    <linearGradient
       id="b">
      <stop
         offset="0"
         stop-color="#30825a"
         id="stop4" />
      <stop
         offset="1"
         stop-color="#106643"
         id="stop5" />
    </linearGradient>
    <linearGradient
       xlink:href="#a"
       id="d"
       x1="-13.937"
       x2="-13.937"
       y1="1049.958"
       y2="1040.053"
       gradientTransform="translate(15.825)"
       gradientUnits="userSpaceOnUse" />
    <linearGradient
       xlink:href="#b"
       id="e"
       x1="11.063"
       x2="11.063"
       y1="1038.55"
       y2="1049.912"
       gradientTransform="translate(-5.49)"
       gradientUnits="userSpaceOnUse" />
    <filter
       id="c"
       width="1.5457484"
       height="1.5987016"
       x="-0.27287509"
       y="-0.29935079">
      <feGaussianBlur
         stdDeviation=".792"
         id="feGaussianBlur5" />
    </filter>
  </defs>
  <path
     fill="#fff"
     fill-rule="evenodd"
     d="m 9.000617,1047.4682 -6.9803119,-2.1139 -2.05187237,0 0,7.0079 2.02030507,0 7.0118792,-1.9721"
     transform="translate(0 -1044.362)"
     id="path5" />
  <g
     fill="#fff"
     stroke="#fff"
     filter="url(#c)"
     transform="matrix(.4791 0 0 .43051 2.298 -445.35)"
     id="g6">
    <path
       stroke-linecap="round"
       stroke-linejoin="round"
       stroke-width="2.202"
       d="m -1.6770565,1039.8618 0,2.0277 0,5 0,3 0.99999995,0 9.54668705,-4.5273 c 0.59227,-0.3746 0.618127,-0.6299 0,-1 l -9.12684205,-4.5004 z"
       id="path6" />
  </g>
  <path
     fill="url(#d)"
     stroke="url(#e)"
     stroke-linecap="round"
     stroke-linejoin="round"
     stroke-width="2.202"
     d="m -1.6770565,1039.8618 0,2.0277 0,5 0,3 0.99999995,0 9.54668705,-4.5273 c 0.59227,-0.3746 0.618127,-0.6299 0,-1 l -9.12684205,-4.5004 z"
     transform="matrix(.4791 0 0 .43051 2.298 -445.35)"
     id="path7" />
</svg>
