<svg xmlns="http://www.w3.org/2000/svg" xmlns:xlink="http://www.w3.org/1999/xlink" width="7" height="8">
  <defs>
    <linearGradient xlink:href="#a" id="c" x1="28.005" x2="28.005" y1="-5.608" y2="1.609" gradientUnits="userSpaceOnUse"/>
    <linearGradient id="a">
      <stop offset="0" stop-color="#f1fdfc"/>
      <stop offset=".455" stop-color="#dbeff9"/>
      <stop offset=".545" stop-color="#cee4f0"/>
      <stop offset="1" stop-color="#def1fa"/>
    </linearGradient>
    <linearGradient xlink:href="#b" id="d" x1="30.034" x2="30.034" y1="-6.111" y2="1.909" gradientUnits="userSpaceOnUse"/>
    <linearGradient id="b">
      <stop offset="0" stop-color="#055797"/>
      <stop offset="1" stop-color="#184785"/>
    </linearGradient>
  </defs>
  <path fill="#fff" d="M0 1044.362H7V1052.362H0z" transform="translate(0 -1044.362)"/>
  <g stroke-linecap="round" stroke-linejoin="round">
    <path fill="url(#c)" stroke="url(#d)" stroke-width="1.305" d="m 30,-2 a 4,4 0 0 1 -4,4 4,4 0 0 1 -4,-4 4,4 0 0 1 4,-4 4,4 0 0 1 4,4 z" transform="matrix(.75288 0 0 .75288 -16.071 5.037)"/>
    <path fill="none" stroke="#1f4a83" stroke-width="1.627" d="m53.75 1047.797 0-2.031M53.75 1047.797l1.458 2.388" transform="translate(-29.514 -640.448) scale(.61462)"/>
  </g>
</svg>
