<?xml version="1.0" encoding="UTF-8" standalone="no"?>
<svg
   width="16"
   height="16"
   version="1.1"
   id="svg40"
   xmlns:xlink="http://www.w3.org/1999/xlink"
   xmlns="http://www.w3.org/2000/svg"
   xmlns:svg="http://www.w3.org/2000/svg">
  <defs
     id="defs21">
    <linearGradient
       id="b">
      <stop
         offset="0"
         stop-color="#96b956"
         id="stop1" />
      <stop
         offset="1"
         stop-color="#abca52"
         id="stop2" />
    </linearGradient>
    <linearGradient
       id="a">
      <stop
         offset="0"
         stop-color="#359b58"
         id="stop3" />
      <stop
         offset="1"
         stop-color="#146d39"
         id="stop4" />
    </linearGradient>
    <linearGradient
       xlink:href="#a"
       id="w"
       x1="10.225"
       x2="10.225"
       y1="1030.462"
       y2="1039.783"
       gradientTransform="translate(0 10.338)"
       gradientUnits="userSpaceOnUse" />
    <linearGradient
       xlink:href="#b"
       id="v"
       x1="11.033"
       x2="11.033"
       y1="1048.514"
       y2="1041.73"
       gradientUnits="userSpaceOnUse" />
    <linearGradient
       id="e">
      <stop
         offset="0"
         stop-color="#1b639e"
         id="stop5" />
      <stop
         offset="1"
         stop-color="#6f8db9"
         id="stop6" />
    </linearGradient>
    <linearGradient
       xlink:href="#c"
       id="o"
       x1="7"
       x2="9"
       y1="12.5"
       y2="12.5"
       gradientTransform="translate(3.028 1034.362)"
       gradientUnits="userSpaceOnUse" />
    <linearGradient
       id="c">
      <stop
         offset="0"
         stop-color="#8297bc"
         id="stop7" />
      <stop
         offset="1"
         stop-color="#6c81ad"
         id="stop8" />
    </linearGradient>
    <linearGradient
       xlink:href="#d"
       id="p"
       x1="7"
       x2="9"
       y1="12.5"
       y2="12.5"
       gradientTransform="translate(1.996 1034.3)"
       gradientUnits="userSpaceOnUse" />
    <linearGradient
       id="d">
      <stop
         offset="0"
         stop-color="#8297bc"
         id="stop9" />
      <stop
         offset="1"
         stop-color="#6c81ad"
         id="stop10" />
    </linearGradient>
    <linearGradient
       xlink:href="#e"
       id="n"
       x1="25.93"
       x2="25.93"
       y1="1051.114"
       y2="1047.26"
       gradientTransform="translate(-16.972 -2)"
       gradientUnits="userSpaceOnUse" />
    <linearGradient
       id="g">
      <stop
         offset="0"
         stop-color="#8297bc"
         id="stop11" />
      <stop
         offset="1"
         stop-color="#6c81ad"
         id="stop12" />
    </linearGradient>
    <linearGradient
       xlink:href="#f"
       id="r"
       x1="7"
       x2="9"
       y1="12.5"
       y2="12.5"
       gradientTransform="translate(1.996 1032.3)"
       gradientUnits="userSpaceOnUse" />
    <linearGradient
       id="f">
      <stop
         offset="0"
         stop-color="#8297bc"
         id="stop13" />
      <stop
         offset="1"
         stop-color="#6c81ad"
         id="stop14" />
    </linearGradient>
    <linearGradient
       xlink:href="#g"
       id="q"
       x1="7"
       x2="9"
       y1="12.5"
       y2="12.5"
       gradientTransform="translate(3.028 1032.362)"
       gradientUnits="userSpaceOnUse" />
    <linearGradient
       id="i">
      <stop
         offset="0"
         stop-color="#f9fafc"
         id="stop15" />
      <stop
         offset="1"
         stop-color="#dce7f7"
         id="stop16" />
    </linearGradient>
    <linearGradient
       xlink:href="#h"
       id="k"
       x1="10.545"
       x2="10.545"
       y1="1038.578"
       y2="1052.323"
       gradientTransform="translate(-1.987 -1.054)"
       gradientUnits="userSpaceOnUse" />
    <linearGradient
       id="h">
      <stop
         offset="0"
         stop-color="#b28a30"
         id="stop17" />
      <stop
         offset="1"
         stop-color="#7b703e"
         id="stop18" />
    </linearGradient>
    <linearGradient
       xlink:href="#i"
       id="j"
       x1="9.895"
       x2="9.895"
       y1="1039.153"
       y2="1051.838"
       gradientTransform="translate(-1.987 -1.054)"
       gradientUnits="userSpaceOnUse" />
    <filter
       id="x"
       width="1.1807058"
       height="1.3583522"
       x="-0.090352896"
       y="-0.17917611">
      <feGaussianBlur
         stdDeviation=".28"
         id="feGaussianBlur18" />
    </filter>
    <filter
       id="m"
       width="1.4586507"
       height="1.6153641"
       x="-0.22932537"
       y="-0.30768204">
      <feGaussianBlur
         stdDeviation=".351"
         id="feGaussianBlur19" />
    </filter>
    <filter
       id="u"
       width="1.6337172"
       height="2.8122071"
       x="-0.26410505"
       y="-0.90054317"
       color-interpolation-filters="sRGB">
      <feGaussianBlur
         stdDeviation=".28"
         id="feGaussianBlur20" />
    </filter>
    <filter
       id="t"
       width="1.5671823"
       height="1.9635111"
       x="-0.24697007"
       y="-0.44196363">
      <feGaussianBlur
         stdDeviation=".577"
         id="feGaussianBlur21" />
    </filter>
    <mask
       id="l"
       maskUnits="userSpaceOnUse" />
    <mask
       id="s"
       maskUnits="userSpaceOnUse">
      <g
         stroke="#fff"
         id="g21" />
    </mask>
  </defs>
  <path
     fill="url(#j)"
     d="m 3.5107388,1037.8504 9.5841942,0 0.487532,3.0066 0,9.9546 -10.0717262,0 z"
     transform="translate(0 -1036.362)"
     id="path21" />
  <path
     fill="none"
     stroke="url(#k)"
     d="m 3.5107388,1037.8693 9.9833382,0 0,12.9865 -9.9833382,0 z"
     transform="translate(0 -1036.362)"
     id="path22" />
  <g
     mask="url(#l)"
     opacity=".5"
     transform="translate(0 -1036.362)"
     id="g23">
    <path
       fill="#fff"
       stroke="#fff"
       stroke-width="2"
       d="M6.484 1042.871H14.518V1048.859H6.484z"
       filter="url(#m)"
       id="path23" />
  </g>
  <path
     fill="#f1f5fa"
     stroke="url(#n)"
     d="M6.484 1042.871H14.518V1048.859H6.484z"
     transform="translate(0 -1036.362)"
     id="path24" />
  <path
     fill="url(#o)"
     d="M10 1046.362H13.028V1047.362H10z"
     transform="translate(0 -1036.362)"
     id="path25" />
  <path
     fill="url(#p)"
     d="M8 1046.362H9V1047.362H8z"
     transform="translate(0 -1036.362)"
     id="path26" />
  <path
     fill="url(#q)"
     d="M10 1044.362H13.028V1045.362H10z"
     transform="translate(0 -1036.362)"
     id="path27" />
  <path
     fill="url(#r)"
     d="M8 1044.362H9V1045.362H8z"
     transform="translate(0 -1036.362)"
     id="path28" />
  <g
     mask="url(#s)"
     opacity=".5"
     transform="translate(0 -1036.362)"
     id="g34">
    <g
       fill="#fff"
       stroke="#fff"
       stroke-width="2.584"
       filter="url(#t)"
       transform="matrix(.77387 0 0 .77387 -2.635 234.782)"
       id="g33">
      <path
         d="m 6.6568452,1049.5614 c 0.2150324,-3.023 3.9579708,-2.7863 3.9579708,-2.7863 l 0,2.5277 5.667622,-4.4255 -5.667622,-4.5182 0,2.5616 c -2.4133512,0.017 -7.4932205,2.1686 -3.9579708,6.6407 z"
         id="path29" />
      <path
         d="m 6.6568452,1049.5614 c 0.2150325,-3.023 3.9579708,-2.7863 3.9579708,-2.7863 l 0,2.5277 5.667622,-4.4255 -5.667622,-4.5182 0,2.5616 c -2.4133511,0.017 -7.4932205,2.1686 -3.9579708,6.6407 z"
         id="path30" />
      <path
         stroke-linecap="round"
         stroke-linejoin="round"
         d="m 6.6568452,1049.5614 c 0.2150324,-3.023 3.9579708,-2.7863 3.9579708,-2.7863 l 0,2.5277 5.667622,-4.4255 -5.667622,-4.5182 0,2.5616 c -2.4133512,0.017 -7.4932205,2.1686 -3.9579708,6.6407 z"
         id="path31" />
      <path
         d="M10.311 1042.365H11.26V1043.564H10.311zM10.304 1046.124H11.253V1047.323H10.304z"
         id="path32" />
      <path
         d="m 11.90625,1043.0312 2.28125,1.8438 -2.28125,1.7812 0,-1.0937 -1.21875,-0.062 c 0,0 -1.1298804,-0.1 -2.375,0.3125 -0.4970996,0.1646 -1.0141192,0.5483 -1.5,0.9687 -9.736e-4,-0.029 -0.06306,-0.097 -0.0625,-0.125 0.00915,-0.4526 0.1773911,-0.7816 0.5625,-1.1562 0.7702178,-0.7493 2.483426,-1.2754 3.3125,-1.2812 l 1.28125,0 0,-1.1876 z"
         color="#000"
         enable-background="accumulate"
         filter="url(#u)"
         font-family="Sans"
         font-weight="400"
         overflow="visible"
         style="text-indent:0;text-align:start;line-height:normal;text-transform:none;block-progression:tb;marker:none;-inkscape-font-specification:Sans"
         id="path33" />
    </g>
  </g>
  <path
     fill="#abca52"
     d="m 6.6568452,1049.5614 c 0.2150324,-3.023 3.9579708,-2.7863 3.9579708,-2.7863 l 0,2.5277 5.667622,-4.4255 -5.667622,-4.5182 0,2.5616 c -2.4133512,0.017 -7.4932205,2.1686 -3.9579708,6.6407 z"
     transform="matrix(.77387 0 0 .77387 -2.635 -801.58)"
     id="path34" />
  <path
     fill="url(#v)"
     d="m 6.6568452,1049.5614 c 0.2150325,-3.023 3.9579708,-2.7863 3.9579708,-2.7863 l 0,2.5277 5.667622,-4.4255 -5.667622,-4.5182 0,2.5616 c -2.4133511,0.017 -7.4932205,2.1686 -3.9579708,6.6407 z"
     transform="matrix(.77387 0 0 .77387 -2.635 -801.58)"
     id="path35" />
  <path
     fill="none"
     stroke="url(#w)"
     stroke-linecap="round"
     stroke-linejoin="round"
     stroke-width="1.292"
     d="m 6.6568452,1049.5614 c 0.2150324,-3.023 3.9579708,-2.7863 3.9579708,-2.7863 l 0,2.5277 5.667622,-4.4255 -5.667622,-4.5182 0,2.5616 c -2.4133512,0.017 -7.4932205,2.1686 -3.9579708,6.6407 z"
     transform="matrix(.77387 0 0 .77387 -2.635 -801.58)"
     id="path36" />
  <path
     fill="#2f9353"
     d="M10.311 1042.365H11.26V1043.564H10.311z"
     transform="matrix(.77387 0 0 .77387 -2.635 -801.58)"
     id="path37" />
  <path
     fill="#1d7a42"
     d="M10.304 1046.124H11.253V1047.323H10.304z"
     transform="matrix(.77387 0 0 .77387 -2.635 -801.58)"
     id="path38" />
  <path
     fill="none"
     d="M4 12H5V13H4z"
     transform="translate(1.06)"
     id="path39" />
  <path
     fill="#cfdc63"
     d="m 11.90625,1043.0312 2.28125,1.8438 -2.28125,1.7812 0,-1.0937 -1.21875,-0.062 c 0,0 -1.1298804,-0.1 -2.375,0.3125 -0.4970996,0.1646 -1.0141192,0.5483 -1.5,0.9687 -9.736e-4,-0.029 -0.06306,-0.097 -0.0625,-0.125 0.00915,-0.4526 0.1773911,-0.7816 0.5625,-1.1562 0.7702178,-0.7493 2.483426,-1.2754 3.3125,-1.2812 l 1.28125,0 0,-1.1876 z"
     color="#000"
     enable-background="accumulate"
     filter="url(#x)"
     font-family="Sans"
     font-weight="400"
     overflow="visible"
     style="text-indent:0;text-align:start;line-height:normal;text-transform:none;block-progression:tb;marker:none;-inkscape-font-specification:Sans"
     transform="matrix(.77387 0 0 .77387 -2.635 -801.58)"
     id="path40" />
</svg>
