<svg xmlns="http://www.w3.org/2000/svg" xmlns:xlink="http://www.w3.org/1999/xlink" width="16" height="16">
  <defs>
    <linearGradient id="b">
      <stop offset="0" stop-color="#c93e35"/>
      <stop offset="1" stop-color="#c8192a"/>
    </linearGradient>
    <linearGradient xlink:href="#a" id="d" x1="388.637" x2="388.637" y1="477.778" y2="458.681" gradientUnits="userSpaceOnUse"/>
    <linearGradient id="a">
      <stop offset="0" stop-color="#eb6d71"/>
      <stop offset=".5" stop-color="#f13f53"/>
      <stop offset="1" stop-color="#f7a29a"/>
    </linearGradient>
    <linearGradient xlink:href="#b" id="e" x1="393.438" x2="393.438" y1="458.681" y2="477.778" gradientUnits="userSpaceOnUse"/>
    <linearGradient id="c">
      <stop offset="0" stop-color="#c93e35"/>
      <stop offset="1" stop-color="#c8192a"/>
    </linearGradient>
    <linearGradient xlink:href="#c" id="f" x1="393.438" x2="393.438" y1="458.681" y2="477.778" gradientUnits="userSpaceOnUse"/>
  </defs>
  <path fill="url(#d)" stroke="url(#e)" stroke-linecap="round" stroke-linejoin="round" stroke-width="2.105" d="m 398.75,468.23718 c 0,5.86803 -4.75697,10.625 -10.625,10.625 -5.86803,0 -10.625,-4.75697 -10.625,-10.625 0,-5.86802 4.75697,-10.625 10.625,-10.625 5.86803,0 10.625,4.75698 10.625,10.625 z" transform="matrix(.47127 0 0 .47127 -174.415 -213.162)"/>
  <path fill="#fff" d="M 11,3.15625 5,10.34375 5,11 l 0.75,0 5.9375,-7.09375 0,-0.75 z" color="#000" font-family="Sans" font-weight="400" overflow="visible" style="text-indent:0;text-align:start;line-height:normal;text-transform:none;block-progression:tb;marker:none;-inkscape-font-specification:Sans"/>
  <path fill="#fff" d="m 14.1875,1053.25 0.0625,1 c 0.22353,-0.011 0.341247,0.031 0.46875,0.125 0.127503,0.094 0.253587,0.2612 0.375,0.5 0.242825,0.4777 0.429979,1.2198 0.65625,2 0.226271,0.7802 0.505095,1.6148 1.03125,2.2812 0.526155,0.6665 1.365276,1.1485 2.46875,1.125 l -0.03125,-1 c -0.837969,0.018 -1.282983,-0.2771 -1.65625,-0.75 -0.373267,-0.4728 -0.626513,-1.1884 -0.84375,-1.9374 -0.217237,-0.7491 -0.387875,-1.5054 -0.71875,-2.1563 -0.165437,-0.3254 -0.38571,-0.6529 -0.6875,-0.875 -0.30179,-0.2221 -0.70353,-0.333 -1.125,-0.3125 z" color="#000" font-family="Sans" font-weight="400" overflow="visible" style="text-indent:0;text-align:start;line-height:normal;text-transform:none;block-progression:tb;marker:none;-inkscape-font-specification:Sans" transform="translate(-8.22 -1049.267)"/>
  <path fill="none" stroke="url(#f)" stroke-linecap="round" stroke-linejoin="round" stroke-width="2.105" d="m 398.75,468.23718 c 0,5.86803 -4.75697,10.625 -10.625,10.625 -5.86803,0 -10.625,-4.75697 -10.625,-10.625 0,-5.86802 4.75697,-10.625 10.625,-10.625 5.86803,0 10.625,4.75698 10.625,10.625 z" transform="matrix(.47127 0 0 .47127 -174.415 -213.162)"/>
</svg>
