<svg xmlns="http://www.w3.org/2000/svg" xmlns:xlink="http://www.w3.org/1999/xlink" width="16" height="16">
  <defs>
    <linearGradient id="b">
      <stop offset="0" stop-color="#96b956"/>
      <stop offset="1" stop-color="#abca52"/>
    </linearGradient>
    <linearGradient id="a">
      <stop offset="0" stop-color="#359b58"/>
      <stop offset="1" stop-color="#146d39"/>
    </linearGradient>
    <linearGradient xlink:href="#a" id="x" x1="10.225" x2="10.225" y1="1030.462" y2="1039.783" gradientTransform="translate(0 10.338)" gradientUnits="userSpaceOnUse"/>
    <linearGradient xlink:href="#b" id="w" x1="11.033" x2="11.033" y1="1048.514" y2="1041.73" gradientUnits="userSpaceOnUse"/>
    <linearGradient id="e">
      <stop offset="0" stop-color="#1b639e"/>
      <stop offset="1" stop-color="#6f8db9"/>
    </linearGradient>
    <linearGradient xlink:href="#c" id="s" x1="7" x2="9" y1="12.5" y2="12.5" gradientTransform="translate(0 1036.362)" gradientUnits="userSpaceOnUse"/>
    <linearGradient id="c">
      <stop offset="0" stop-color="#8297bc"/>
      <stop offset="1" stop-color="#6c81ad"/>
    </linearGradient>
    <linearGradient xlink:href="#d" id="t" x1="7" x2="9" y1="12.5" y2="12.5" gradientTransform="translate(-2 1036.393)" gradientUnits="userSpaceOnUse"/>
    <linearGradient id="d">
      <stop offset="0" stop-color="#8297bc"/>
      <stop offset="1" stop-color="#6c81ad"/>
    </linearGradient>
    <linearGradient xlink:href="#e" id="r" x1="25.93" x2="25.93" y1="1051.114" y2="1047.26" gradientTransform="translate(-20)" gradientUnits="userSpaceOnUse"/>
    <linearGradient xlink:href="#f" id="l" x1="9.895" x2="9.895" y1="1039.153" y2="1051.838" gradientTransform="translate(-1.978 -1.044)" gradientUnits="userSpaceOnUse"/>
    <linearGradient id="f">
      <stop offset="0" stop-color="#f9fafc"/>
      <stop offset="1" stop-color="#dce7f7"/>
    </linearGradient>
    <linearGradient id="g">
      <stop offset="0" stop-color="#e0c88f"/>
      <stop offset="1" stop-color="#d5b269"/>
    </linearGradient>
    <linearGradient xlink:href="#g" id="m" x1="8.505" x2="9.506" y1="1041.813" y2="1040.812" gradientTransform="translate(2.022 -1.044)" gradientUnits="userSpaceOnUse"/>
    <linearGradient id="h">
      <stop offset="0" stop-color="#b28a30"/>
      <stop offset="1" stop-color="#7b703e"/>
    </linearGradient>
    <linearGradient xlink:href="#h" id="n" x1="10.545" x2="10.545" y1="1038.578" y2="1052.323" gradientTransform="translate(-1.978 -1.044)" gradientUnits="userSpaceOnUse"/>
    <linearGradient id="i">
      <stop offset="0" stop-color="#91a5c7"/>
      <stop offset="1" stop-color="#5e76a3"/>
    </linearGradient>
    <linearGradient xlink:href="#i" id="o" x1="9.998" x2="11.998" y1="1043.394" y2="1043.394" gradientTransform="translate(-1.978 -3.044)" gradientUnits="userSpaceOnUse"/>
    <linearGradient id="j">
      <stop offset="0" stop-color="#91a5c7"/>
      <stop offset="1" stop-color="#5e76a3"/>
    </linearGradient>
    <linearGradient xlink:href="#j" id="p" x1="9.998" x2="11.998" y1="1043.394" y2="1043.394" gradientTransform="matrix(1.51563 0 0 1 -7.133 -1.044)" gradientUnits="userSpaceOnUse"/>
    <linearGradient id="k">
      <stop offset="0" stop-color="#91a5c7"/>
      <stop offset="1" stop-color="#5e76a3"/>
    </linearGradient>
    <linearGradient xlink:href="#k" id="q" x1="9.998" x2="11.998" y1="1043.394" y2="1043.394" gradientTransform="matrix(1.51563 0 0 1 -7.133 .956)" gradientUnits="userSpaceOnUse"/>
    <filter id="y" width="1.181" height="1.358" x="-.09" y="-.179">
      <feGaussianBlur stdDeviation=".28"/>
    </filter>
    <filter id="v" width="1.222" height="1.261" x="-.111" y="-.131">
      <feGaussianBlur stdDeviation=".388"/>
    </filter>
    <mask id="u" maskUnits="userSpaceOnUse">
      <g fill="#fff" stroke="#fff">
        <path d="m 6.7693795,1037.8597 3.7596695,0 2.187057,2.1628 0,5.5797 -5.9467265,0 z" transform="translate(2.98 -.988)"/>
        <path d="m 9.998718,1037.397 0,2.9737 2.196228,0 z" transform="translate(2.98 -.988)"/>
        <path d="m 6.5193795,1037.8597 4.0096695,0 1.999557,2.2878 0,5.6734 -6.0092265,0 z" transform="translate(2.98 -.988)"/>
        <path d="M8.02 1039.35H10.02V1040.35H8.02zM8.02 1041.35H11.051V1042.35H8.02zM8.02 1043.35H11.051V1044.35H8.02z" transform="translate(2.98 -.988)"/>
      </g>
    </mask>
  </defs>
  <path fill="url(#l)" d="m 6.7693795,1037.8597 3.7596695,0 2.187057,2.1628 0,5.5797 -5.9467265,0 z" transform="translate(2.98 -1037.35)"/>
  <path fill="url(#m)" d="m 9.998718,1037.397 0,2.9737 2.196228,0 z" transform="translate(2.98 -1037.35)"/>
  <path fill="none" stroke="url(#n)" d="m 6.5193795,1037.8597 4.0096695,0 1.999557,2.2878 0,5.6734 -6.0092265,0 z" transform="translate(2.98 -1037.35)"/>
  <path fill="url(#o)" d="M8.02 1039.35H10.02V1040.35H8.02z" transform="translate(2.98 -1037.35)"/>
  <path fill="url(#p)" d="M8.02 1041.35H11.051V1042.35H8.02z" transform="translate(2.98 -1037.35)"/>
  <path fill="url(#q)" d="M8.02 1043.35H11.051V1044.35H8.02z" transform="translate(2.98 -1037.35)"/>
  <path fill="#f1f5fa" stroke="url(#r)" d="M2.497 1046.86H11.491V1050.86H2.497z" transform="translate(0 -1036.362)"/>
  <path fill="url(#s)" d="M6 1048.362H10V1049.362H6z" transform="translate(0 -1036.362)"/>
  <path fill="url(#t)" d="M4 1048.362H5V1049.362H4z" transform="translate(0 -1036.362)"/>
  <g stroke="#fff" stroke-width="2" filter="url(#v)" mask="url(#u)" transform="translate(0 -1036.362)">
    <path fill="#fff" stroke-linecap="round" stroke-linejoin="round" d="m 1.4560597,1047.0104 c 0.166408,-2.3394 3.0629699,-2.1562 3.0629699,-2.1562 l 0,1.9561 4.3860242,-3.4248 -4.3860242,-3.4965 0,1.9824 c -1.8676292,0.013 -5.798807,1.6782 -3.0629699,5.139 z"/>
  </g>
  <path fill="#abca52" d="m 6.6568452,1049.5614 c 0.2150324,-3.023 3.9579708,-2.7863 3.9579708,-2.7863 l 0,2.5277 5.667622,-4.4255 -5.667622,-4.5182 0,2.5616 c -2.4133512,0.017 -7.4932205,2.1686 -3.9579708,6.6407 z" transform="matrix(.77387 0 0 .77387 -3.695 -801.58)"/>
  <path fill="url(#w)" d="m 6.6568452,1049.5614 c 0.2150325,-3.023 3.9579708,-2.7863 3.9579708,-2.7863 l 0,2.5277 5.667622,-4.4255 -5.667622,-4.5182 0,2.5616 c -2.4133511,0.017 -7.4932205,2.1686 -3.9579708,6.6407 z" transform="matrix(.77387 0 0 .77387 -3.695 -801.58)"/>
  <path fill="none" stroke="url(#x)" stroke-linecap="round" stroke-linejoin="round" stroke-width="1.292" d="m 6.6568452,1049.5614 c 0.2150324,-3.023 3.9579708,-2.7863 3.9579708,-2.7863 l 0,2.5277 5.667622,-4.4255 -5.667622,-4.5182 0,2.5616 c -2.4133512,0.017 -7.4932205,2.1686 -3.9579708,6.6407 z" transform="matrix(.77387 0 0 .77387 -3.695 -801.58)"/>
  <path fill="#2f9353" d="M10.311 1042.365H11.26V1043.564H10.311z" transform="matrix(.77387 0 0 .77387 -3.695 -801.58)"/>
  <path fill="#1d7a42" d="M10.304 1046.124H11.253V1047.323H10.304z" transform="matrix(.77387 0 0 .77387 -3.695 -801.58)"/>
  <path fill="none" d="M4 12H5V13H4z"/>
  <path fill="#cfdc63" d="m 11.90625,1043.0312 2.28125,1.8438 -2.28125,1.7812 0,-1.0937 -1.21875,-0.062 c 0,0 -1.1298804,-0.1 -2.375,0.3125 -0.4970996,0.1646 -1.0141192,0.5483 -1.5,0.9687 -9.736e-4,-0.029 -0.06306,-0.097 -0.0625,-0.125 0.00915,-0.4526 0.1773911,-0.7816 0.5625,-1.1562 0.7702178,-0.7493 2.483426,-1.2754 3.3125,-1.2812 l 1.28125,0 0,-1.1876 z" color="#000" enable-background="accumulate" filter="url(#y)" font-family="Sans" font-weight="400" overflow="visible" style="text-indent:0;text-align:start;line-height:normal;text-transform:none;block-progression:tb;marker:none;-inkscape-font-specification:Sans" transform="matrix(.77387 0 0 .77387 -3.695 -801.58)"/>
</svg>
