<svg xmlns="http://www.w3.org/2000/svg" xmlns:xlink="http://www.w3.org/1999/xlink" width="16" height="16">
  <defs>
    <linearGradient xlink:href="#a" id="s" x1="7.007" x2="12.016" y1="1051.857" y2="1051.857" gradientTransform="translate(-1.978 -3.044)" gradientUnits="userSpaceOnUse"/>
    <linearGradient id="a">
      <stop offset="0" stop-color="#91a5c7"/>
      <stop offset="1" stop-color="#637aa7"/>
    </linearGradient>
    <linearGradient xlink:href="#b" id="r" x1="7.007" x2="14" y1="1049.857" y2="1049.857" gradientTransform="translate(-1.978 -3.044)" gradientUnits="userSpaceOnUse"/>
    <linearGradient id="b">
      <stop offset="0" stop-color="#91a5c7"/>
      <stop offset="1" stop-color="#637aa7"/>
    </linearGradient>
    <linearGradient xlink:href="#c" id="q" x1="7.007" x2="14" y1="1047.857" y2="1047.857" gradientTransform="translate(-1.978 -3.044)" gradientUnits="userSpaceOnUse"/>
    <linearGradient id="c">
      <stop offset="0" stop-color="#91a5c7"/>
      <stop offset="1" stop-color="#637aa7"/>
    </linearGradient>
    <linearGradient xlink:href="#d" id="p" x1="7.007" x2="14" y1="1045.857" y2="1045.857" gradientTransform="translate(-1.978 -3.044)" gradientUnits="userSpaceOnUse"/>
    <linearGradient id="d">
      <stop offset="0" stop-color="#91a5c7"/>
      <stop offset="1" stop-color="#637aa7"/>
    </linearGradient>
    <linearGradient xlink:href="#e" id="o" x1="7.007" x2="11" y1="1043.857" y2="1043.857" gradientTransform="translate(-1.978 -3.044)" gradientUnits="userSpaceOnUse"/>
    <linearGradient id="e">
      <stop offset="0" stop-color="#91a5c7"/>
      <stop offset="1" stop-color="#5e76a3"/>
    </linearGradient>
    <linearGradient xlink:href="#f" id="n" x1="10.545" x2="10.545" y1="1038.578" y2="1052.323" gradientTransform="translate(-1.978 -1.044)" gradientUnits="userSpaceOnUse"/>
    <linearGradient id="f">
      <stop offset="0" stop-color="#b28a30"/>
      <stop offset="1" stop-color="#7b703e"/>
    </linearGradient>
    <linearGradient xlink:href="#g" id="m" x1="7.999" x2="9.987" y1="1042.231" y2="1040.33" gradientTransform="translate(2.022 -1.044)" gradientUnits="userSpaceOnUse"/>
    <linearGradient id="g">
      <stop offset="0" stop-color="#e0c88f"/>
      <stop offset="1" stop-color="#d5b269"/>
    </linearGradient>
    <linearGradient id="h">
      <stop offset="0" stop-color="#f9fafc"/>
      <stop offset="1" stop-color="#dce7f7"/>
    </linearGradient>
    <linearGradient xlink:href="#h" id="l" x1="9.895" x2="9.895" y1="1039.153" y2="1051.838" gradientTransform="translate(-1.978 -1.044)" gradientUnits="userSpaceOnUse"/>
    <linearGradient xlink:href="#i" id="w" x1="-11.211" x2="-8.701" y1="1042.16" y2="1044.67" gradientTransform="translate(20)" gradientUnits="userSpaceOnUse"/>
    <linearGradient id="i">
      <stop offset="0" stop-color="#986443"/>
      <stop offset="1" stop-color="#994f1b"/>
    </linearGradient>
    <linearGradient xlink:href="#j" id="y" x1="-.981" x2="1.984" y1="1047.424" y2="1050.319" gradientTransform="translate(4 -1036.362)" gradientUnits="userSpaceOnUse"/>
    <linearGradient id="j">
      <stop offset="0" stop-color="#e4cf94"/>
      <stop offset=".322" stop-color="#ede0ba"/>
      <stop offset=".648" stop-color="#c1aa7e"/>
      <stop offset="1" stop-color="#ad8865"/>
    </linearGradient>
    <linearGradient id="k">
      <stop offset="0" stop-color="#4d4d4d"/>
      <stop offset=".294" stop-color="#727272"/>
      <stop offset="1" stop-color="#4d4d4d"/>
    </linearGradient>
    <linearGradient xlink:href="#k" id="z" x1="2.656" x2="4.082" y1="1049.398" y2="1050.53" gradientUnits="userSpaceOnUse"/>
    <filter id="x" color-interpolation-filters="sRGB">
      <feGaussianBlur stdDeviation=".222"/>
    </filter>
    <filter id="v" color-interpolation-filters="sRGB">
      <feGaussianBlur stdDeviation=".222"/>
    </filter>
    <filter id="u" width="1.24" height="1.24" x="-.12" y="-.12">
      <feGaussianBlur stdDeviation=".404"/>
    </filter>
    <mask id="t" maskUnits="userSpaceOnUse"/>
  </defs>
  <path fill="url(#l)" d="m 3.5193795,1037.8597 7.0096695,0 3.062057,3.0066 0,9.9546 -10.0717265,0 z" transform="translate(0 -1036.362)"/>
  <path fill="url(#m)" d="m 9.998718,1037.397 0,3.9112 3.977478,0 z" transform="translate(0 -1036.362)"/>
  <path fill="none" stroke="url(#n)" d="m 3.5193795,1037.8597 7.0096695,0 3.062057,3.0066 0,9.9546 -10.0717265,0 z" transform="translate(0 -1036.362)"/>
  <path fill="url(#o)" d="M5.029 1040.307H9.022V1041.317H5.029z" transform="translate(0 -1036.362)"/>
  <path fill="url(#p)" d="M5.029 1042.307H12.022V1043.317H5.029z" transform="translate(0 -1036.362)"/>
  <path fill="url(#q)" d="M5.029 1044.307H12.022V1045.317H5.029z" transform="translate(0 -1036.362)"/>
  <path fill="url(#r)" d="M5.029 1046.307H12.022V1047.317H5.029z" transform="translate(0 -1036.362)"/>
  <path fill="url(#s)" d="M5.029 1048.307H10.038V1049.317H5.029z" transform="translate(0 -1036.362)"/>
  <g stroke="#fff" stroke-width="1.5" filter="url(#u)" mask="url(#t)" transform="translate(0 -1036.362)">
    <g fill="#fff" stroke-width="2.114">
      <path stroke-linejoin="round" d="m 12.866728,1043.3715 -5.928369,5.8862 -5.461084,2.5938 2.59375,-5.4564 5.8445857,-5.9039 c 1.2698873,0.6025 2.2104673,1.6169 2.9511173,2.8807 z" color="#000" enable-background="accumulate" font-family="Sans" font-weight="400" overflow="visible" style="text-indent:0;text-align:start;line-height:normal;text-transform:none;block-progression:tb;marker:none;-inkscape-font-specification:Sans" transform="matrix(-.70941 0 0 .70941 9.623 302.663)"/>
      <path d="M 9.9307747,1040.4939 4.0625,1046.3935 5,1047.2997 l 6.118275,-6.0558 c -0.362696,-0.2963 -0.752826,-0.5438 -1.1875003,-0.75 z" color="#000" enable-background="accumulate" font-family="Sans" font-weight="400" overflow="visible" style="text-indent:0;text-align:start;line-height:normal;text-transform:none;block-progression:tb;marker:none" transform="matrix(-.70941 0 0 .70941 9.623 302.663)"/>
      <path d="m 12.493275,1042.7752 -5.962025,6.087 0.40625,0.4063 5.930775,-5.8996 c -0.120121,-0.205 -0.24381,-0.4026 -0.375,-0.5937 z" color="#000" enable-background="accumulate" font-family="Sans" font-weight="400" overflow="visible" style="text-indent:0;text-align:start;line-height:normal;text-transform:none;block-progression:tb;marker:none;-inkscape-font-specification:Sans" transform="matrix(-.70941 0 0 .70941 9.623 302.663)"/>
      <path d="m 6.536718,1048.8567 -1.548139,-1.5456 6.120492,-6.0629 c 0.52506,0.4288 0.980135,0.9451 1.380966,1.5292 z" color="#000" enable-background="accumulate" font-family="Sans" font-weight="400" overflow="visible" style="text-indent:0;text-align:start;line-height:normal;text-transform:none;block-progression:tb;marker:none;-inkscape-font-specification:Sans" transform="matrix(-.70941 0 0 .70941 9.623 302.663)"/>
      <path d="m 4.984376,1047.2528 6.118276,-6.0089" filter="url(#v)" opacity=".5" transform="matrix(-.70941 0 0 .70941 9.623 302.663)"/>
      <path d="M 5.40625,8.6875 4.09375,10 2.6875,12.9375 l 1.375,1.28125 -0.03125,0.0625 2.9375,-1.40625 0.75,-0.75 0.1875,-2 L 5.1875,9.96875 c 0,0 0.127199,-0.74275 0.21875,-1.28125 z" transform="matrix(-.70941 0 0 .70941 9.623 1037.874)"/>
      <path d="m 3.25,1049.1435 c -0.211528,0.024 -0.41079,0.089 -0.5625,0.1562 l -1.21875,2.5625 2.5625,-1.2187 0.03125,-0.062 c 0.121601,-0.3002 0.273127,-0.8318 -0.09375,-1.2188 -0.132606,-0.1402 -0.331591,-0.1963 -0.5,-0.2187 -0.08057,-0.011 -0.138928,-0.01 -0.21875,0 z" transform="matrix(-.70941 0 0 .70941 9.623 302.663)"/>
    </g>
  </g>
  <path fill="none" stroke="url(#w)" stroke-linejoin="round" d="m 12.866728,1043.3715 -5.928369,5.8862 -5.461084,2.5938 2.59375,-5.4564 5.8445857,-5.9039 c 1.2698873,0.6025 2.2104673,1.6169 2.9511173,2.8807 z" color="#000" enable-background="accumulate" font-family="Sans" font-weight="400" overflow="visible" style="text-indent:0;text-align:start;line-height:normal;text-transform:none;block-progression:tb;marker:none;-inkscape-font-specification:Sans" transform="matrix(-.70941 0 0 .70941 9.623 -733.699)"/>
  <path fill="#ffcb72" d="M 9.9307747,1040.4939 4.0625,1046.3935 5,1047.2997 l 6.118275,-6.0558 c -0.362696,-0.2963 -0.752826,-0.5438 -1.1875003,-0.75 z" color="#000" enable-background="accumulate" font-family="Sans" font-weight="400" overflow="visible" style="text-indent:0;text-align:start;line-height:normal;text-transform:none;block-progression:tb;marker:none;-inkscape-font-specification:Sans" transform="matrix(-.70941 0 0 .70941 9.623 -733.699)"/>
  <path fill="#e5a856" d="m 12.493275,1042.7752 -5.962025,6.087 0.40625,0.4063 5.930775,-5.8996 c -0.120121,-0.205 -0.24381,-0.4026 -0.375,-0.5937 z" color="#000" enable-background="accumulate" font-family="Sans" font-weight="400" overflow="visible" style="text-indent:0;text-align:start;line-height:normal;text-transform:none;block-progression:tb;marker:none;-inkscape-font-specification:Sans" transform="matrix(-.70941 0 0 .70941 9.623 -733.699)"/>
  <path fill="#fbbc67" d="m 6.536718,1048.8567 -1.548139,-1.5456 6.120492,-6.0629 c 0.52506,0.4288 0.980135,0.9451 1.380966,1.5292 z" color="#000" enable-background="accumulate" font-family="Sans" font-weight="400" overflow="visible" style="text-indent:0;text-align:start;line-height:normal;text-transform:none;block-progression:tb;marker:none;-inkscape-font-specification:Sans" transform="matrix(-.70941 0 0 .70941 9.623 -733.699)"/>
  <path fill="none" stroke="#fff" d="m 4.984376,1047.2528 6.118276,-6.0089" filter="url(#x)" opacity=".5" transform="matrix(-.70941 0 0 .70941 9.623 -733.699)"/>
  <path fill="url(#y)" d="M 5.40625,8.6875 4.09375,10 2.6875,12.9375 l 1.375,1.28125 -0.03125,0.0625 2.9375,-1.40625 0.75,-0.75 0.1875,-2 L 5.1875,9.96875 c 0,0 0.127199,-0.74275 0.21875,-1.28125 z" transform="matrix(-.70941 0 0 .70941 9.623 1.512)"/>
  <path fill="url(#z)" d="m 3.25,1049.1435 c -0.211528,0.024 -0.41079,0.089 -0.5625,0.1562 l -1.21875,2.5625 2.5625,-1.2187 0.03125,-0.062 c 0.121601,-0.3002 0.273127,-0.8318 -0.09375,-1.2188 -0.132606,-0.1402 -0.331591,-0.1963 -0.5,-0.2187 -0.08057,-0.011 -0.138928,-0.01 -0.21875,0 z" transform="matrix(-.70941 0 0 .70941 9.623 -733.699)"/>
</svg>
